<svg width="377" height="193" viewBox="0 0 377 193" fill="none" xmlns="http://www.w3.org/2000/svg">
    <path fill-rule="evenodd" clip-rule="evenodd" d="M321.5 97H219v-.001c-16.594-.147-30-13.644-30-30.273 0-16.72 13.554-30.274 30.274-30.274.461 0 .919.01 1.374.03C226.155 16.044 244.821 1 267 1c25.111 0 45.718 19.282 47.823 43.848A26.546 26.546 0 0 1 321.5 44c14.636 0 26.5 11.864 26.5 26.5 0 14.469-11.595 26.229-26 26.495V97h-.5Z" fill="#F5F5F5"/>
    <path d="M85 81a2 2 0 0 1 2-2h28a2 2 0 0 1 2 2v14a2 2 0 0 1-2 2h-6v4l-8-4H87a2 2 0 0 1-2-2V81Z" fill="#E2E2E2"/>
    <circle cx="93" cy="88" r="2" fill="#fff"/>
    <circle cx="101" cy="88" r="2" fill="#fff"/>
    <circle cx="109" cy="88" r="2" fill="#fff"/>
    <path d="M293 58a2 2 0 0 0-2-2h-28a2 2 0 0 0-2 2v14a2 2 0 0 0 2 2h6v4l8-4h14a2 2 0 0 0 2-2V58Z" fill="#CCC"/>
    <circle cx="2" cy="2" r="2" transform="matrix(-1 0 0 1 287 63)" fill="#fff"/>
    <circle cx="2" cy="2" r="2" transform="matrix(-1 0 0 1 279 63)" fill="#fff"/>
    <circle cx="2" cy="2" r="2" transform="matrix(-1 0 0 1 271 63)" fill="#fff"/>
    <path d="M237 75.414V187a1 1 0 0 1-1 1h-94a1 1 0 0 1-1-1V61a1 1 0 0 1 1-1h79.586L237 75.414Z" fill="#fff" stroke="#AAA" stroke-width="2"/>
    <rect x="184" y="152" width="44" height="2" rx="1" fill="#CCC"/>
    <rect x="184" y="146" width="44" height="2" rx="1" fill="#CCC"/>
    <rect x="151" y="140" width="33" height="2" rx="1" fill="#CCC"/>
    <rect x="184" y="158" width="44" height="2" rx="1" fill="#CCC"/>
    <rect x="184" y="164" width="44" height="2" rx="1" fill="#CCC"/>
    <rect x="151" y="170" width="77" height="2" rx="1" fill="#9ADAF3"/>
    <rect x="151" y="176" width="77" height="2" rx="1" fill="#FF6F3D"/>
    <path d="M160.4 157.333 152 166h28l-9.8-13-5.6 7.222-4.2-2.889Z" fill="#CCC"/>
    <circle cx="159.5" cy="148.5" r="2.5" fill="#CCC"/>
    <path d="M182.472 107.294c1.644 4.05 4.403 6.706 7.528 6.706s5.884-2.656 7.528-6.706c.256-.63-.226-1.294-.905-1.294h-13.246c-.679 0-1.161.664-.905 1.294Z" fill="#AAA"/>
    <path d="M196 90c0 2.761 2.686 5 6 5s6-2.239 6-5m-37 0c0 2.761 2.686 5 6 5s6-2.239 6-5" stroke="#AAA" stroke-width="2" stroke-linecap="round"/>
    <path d="m222 59 16 16h-16V59Z" fill="#AAA"/>
    <path d="M141 113.782c-9 14.5-9.39 24.151-2.61 25.737 6.78 1.586 15.794-5.174 19.453-8.753m.411-.445c1.318.309 3.246-.039 4.982-1.538m73.911-15.001c9 14.5 9.39 24.151 2.61 25.737-6.781 1.586-15.794-5.174-19.453-8.753m-.411-.445c-1.318.309-3.247-.039-4.982-1.538" stroke="#AAA" stroke-width="2" stroke-linecap="round"/>
    <path d="m97.828 144.071 4.243-4.243a2 2 0 0 1 2.828 0l28.818 28.818 2.092 6.656c.485 1.542-.965 2.992-2.508 2.507l-6.655-2.091L97.828 146.9a2 2 0 0 1 0-2.829Z" fill="#fff" stroke="#FF6F3D" stroke-width="2"/>
    <path d="m101.363 151.849 8.486-8.486 24.748 24.749-8.485 8.485-24.749-24.748Z" fill="#FF6F3D"/>
    <path fill="#fff" d="m107.021 149.021 2.121-2.121 21.92 21.92-2.12 2.121z"/>
    <path d="m129.648 177.305 5.657-5.657.707 4.95-1.414 1.414-4.95-.707Z" fill="#FF6F3D"/>
    <path d="m276.658 132.828 4.243 4.243a2 2 0 0 1 0 2.828l-28.818 28.818-6.655 2.092c-1.542.485-2.992-.965-2.508-2.508l2.092-6.655 28.818-28.818a2 2 0 0 1 2.828 0Z" fill="#fff" stroke="#9ADAF3" stroke-width="2"/>
    <path d="m268.881 136.364 8.485 8.485-24.749 24.749-8.485-8.485 24.749-24.749Z" fill="#9ADAF3"/>
    <path fill="#fff" d="m271.709 142.021 2.121 2.121-21.92 21.92-2.121-2.12z"/>
    <path d="m243.424 164.648 5.657 5.657-4.95.707-1.414-1.414.707-4.95Z" fill="#9ADAF3"/>
</svg>
