<svg width="377" height="193" viewBox="0 0 377 193" fill="none" xmlns="http://www.w3.org/2000/svg">
    <g clip-path="url(#a)">
        <path fill-rule="evenodd" clip-rule="evenodd" d="M154.5 108H52v-.001c-16.594-.147-30-13.644-30-30.273 0-16.72 13.554-30.274 30.274-30.274.46 0 .919.01 1.374.03C59.155 27.044 77.822 12 100 12c25.111 0 45.718 19.282 47.823 43.848A26.546 26.546 0 0 1 154.5 55c14.636 0 26.5 11.865 26.5 26.5 0 14.469-11.595 26.229-26 26.495V108h-.5Z" fill="#3C3C3C"/>
        <mask id="a" fill="#fff">
            <path fill-rule="evenodd" clip-rule="evenodd" d="M334 157.989c.166.007.332.011.5.011 6.351 0 11.5-5.149 11.5-11.5s-5.149-11.5-11.5-11.5a11.45 11.45 0 0 0-4.474.903C327.734 129.545 321.648 125 314.5 125c-8.95 0-16.236 7.127-16.493 16.015a8.5 8.5 0 1 0-.007 16.971V158h36v-.011Z"/>
        </mask>
        <path fill-rule="evenodd" clip-rule="evenodd" d="M334 157.989c.166.007.332.011.5.011 6.351 0 11.5-5.149 11.5-11.5s-5.149-11.5-11.5-11.5a11.45 11.45 0 0 0-4.474.903C327.734 129.545 321.648 125 314.5 125c-8.95 0-16.236 7.127-16.493 16.015a8.5 8.5 0 1 0-.007 16.971V158h36v-.011Z" fill="#444"/>
        <path d="M334 157.989h-2v-2.087l2.085.089-.085 1.998Zm-3.974-22.086.779 1.842-1.944.822-.716-1.986 1.881-.678Zm-32.019 5.112 1.999.058-.059 2.059-2.057-.121.117-1.996ZM298 157.986l-.116-1.997 2.116-.123v2.12h-2Zm0 .014v2h-2v-2h2Zm36 0h2v2h-2v-2Zm.085-2.009c.138.006.276.009.415.009v4c-.196 0-.391-.004-.585-.013l.17-3.996Zm.415.009a9.5 9.5 0 0 0 9.5-9.5h4c0 7.456-6.044 13.5-13.5 13.5v-4Zm9.5-9.5a9.5 9.5 0 0 0-9.5-9.5v-4c7.456 0 13.5 6.044 13.5 13.5h-4Zm-9.5-9.5a9.46 9.46 0 0 0-3.695.745l-1.557-3.685A13.47 13.47 0 0 1 334.5 133v4Zm-6.355-.419c-2.016-5.59-7.367-9.581-13.645-9.581v-4c8.017 0 14.839 5.099 17.408 12.224l-3.763 1.357ZM314.5 127c-7.865 0-14.268 6.263-14.494 14.073l-3.998-.116C296.296 130.99 304.464 123 314.5 123v4Zm-16.61 16.011a7.195 7.195 0 0 0-.39-.011v-4c.209 0 .418.006.624.018l-.234 3.993Zm-.39-.011a6.5 6.5 0 0 0-6.5 6.5h-4c0-5.799 4.701-10.5 10.5-10.5v4Zm-6.5 6.5a6.5 6.5 0 0 0 6.5 6.5v4c-5.799 0-10.5-4.701-10.5-10.5h4Zm6.5 6.5c.129 0 .257-.004.384-.011l.232 3.993c-.204.012-.41.018-.616.018v-4Zm2.5 1.986V158h-4v-.014h4ZM298 156h16.5v4H298v-4Zm16.5 0H334v4h-19.5v-4Zm17.5 2v-.011h4V158h-4Z" fill="#9ADAF3" mask="url(#a)"/>
        <mask id="b" fill="#fff">
            <path fill-rule="evenodd" clip-rule="evenodd" d="M134 41.99c-.166.006-.332.01-.5.01-6.351 0-11.5-5.149-11.5-11.5S127.149 19 133.5 19c1.587 0 3.099.321 4.474.903C140.266 13.545 146.352 9 153.5 9c8.95 0 16.236 7.127 16.493 16.015a8.5 8.5 0 1 1 .007 16.97V42h-36v-.01Z"/>
        </mask>
        <path fill-rule="evenodd" clip-rule="evenodd" d="M134 41.99c-.166.006-.332.01-.5.01-6.351 0-11.5-5.149-11.5-11.5S127.149 19 133.5 19c1.587 0 3.099.321 4.474.903C140.266 13.545 146.352 9 153.5 9c8.95 0 16.236 7.127 16.493 16.015a8.5 8.5 0 1 1 .007 16.97V42h-36v-.01Z" fill="#444"/>
        <path d="M134 41.99h2v-2.088l-2.085.09.085 1.997Zm3.974-22.087-.779 1.842 1.944.822.716-1.986-1.881-.678Zm32.019 5.112-1.999.058.059 2.06 2.057-.122-.117-1.996Zm.007 16.97.116-1.996-2.116-.123v2.12h2Zm0 .015v2h2v-2h-2Zm-36 0h-2v2h2v-2Zm-.085-2.009a9.87 9.87 0 0 1-.415.009v4c.196 0 .391-.004.585-.013l-.17-3.996ZM133.5 40a9.5 9.5 0 0 1-9.5-9.5h-4c0 7.456 6.044 13.5 13.5 13.5v-4Zm-9.5-9.5a9.5 9.5 0 0 1 9.5-9.5v-4c-7.456 0-13.5 6.044-13.5 13.5h4Zm9.5-9.5a9.46 9.46 0 0 1 3.695.745l1.557-3.685A13.462 13.462 0 0 0 133.5 17v4Zm6.355-.419C141.871 14.991 147.222 11 153.5 11V7c-8.017 0-14.839 5.099-17.408 12.224l3.763 1.357ZM153.5 11c7.865 0 14.268 6.263 14.494 14.073l3.998-.116C171.704 14.99 163.536 7 153.5 7v4Zm16.61 16.011c.129-.007.259-.011.39-.011v-4c-.209 0-.418.006-.624.018l.234 3.993Zm.39-.011a6.5 6.5 0 0 1 6.5 6.5h4c0-5.799-4.701-10.5-10.5-10.5v4Zm6.5 6.5a6.5 6.5 0 0 1-6.5 6.5v4c5.799 0 10.5-4.701 10.5-10.5h-4Zm-6.5 6.5a6.6 6.6 0 0 1-.384-.011l-.232 3.993c.204.012.41.018.616.018v-4Zm-2.5 1.986V42h4v-.014h-4ZM170 40h-16.5v4H170v-4Zm-16.5 0H134v4h19.5v-4ZM136 42v-.01h-4V42h4Z" fill="#9ADAF3" mask="url(#b)"/>
        <path d="M88.17 73.18a1 1 0 0 1 .91-1.083l57.366-5.019 12.366 10.376 7.11 81.275a.999.999 0 0 1-.909 1.084l-67.74 5.926a.999.999 0 0 1-1.084-.909L88.17 73.18Z" fill="#444" stroke="#AAA" stroke-width="2"/>
        <rect x="102.29" y="154.258" width="52" height="2" rx="1" transform="rotate(-5 102.29 154.258)" fill="gray"/>
        <rect x="101.768" y="148.281" width="52" height="2" rx="1" transform="rotate(-5 101.768 148.281)" fill="gray"/>
        <rect x="101.244" y="142.304" width="52" height="2" rx="1" transform="rotate(-5 101.244 142.304)" fill="gray"/>
        <rect x="100.722" y="136.327" width="52" height="2" rx="1" transform="rotate(-5 100.722 136.327)" fill="gray"/>
        <rect x="100.198" y="130.35" width="52" height="2" rx="1" transform="rotate(-5 100.198 130.35)" fill="#FF6F3D"/>
        <rect x="99.676" y="124.372" width="25.022" height="2" rx="1" transform="rotate(-5 99.676 124.372)" fill="#FF6F3D"/>
        <path d="m146.771 66.046 13.001 10.908L147.817 78l-1.046-11.954Z" fill="#AAA"/>
        <circle cx="118.155" cy="94.649" r="3" transform="rotate(-5 118.155 94.649)" fill="#AAA"/>
        <circle cx="136.087" cy="93.08" r="3" transform="rotate(-5 136.087 93.08)" fill="#AAA"/>
        <path d="M112.268 105.202c-.368 1.538.119 4.808 3.013 5.759 2.894.952 4.634-.572 5.392-1.475" stroke="#AAA" stroke-width="2" stroke-linecap="round"/>
        <g filter="url(#d)">
            <mask id="c" fill="#fff">
                <path fill-rule="evenodd" clip-rule="evenodd" d="M131 180h108v-.004c18.823-.267 34-15.609 34-34.496 0-19.054-15.446-34.5-34.5-34.5a34.381 34.381 0 0 0-14.274 3.082C216.826 99.206 201.592 89 184 89c-22.458 0-41.073 16.634-44.452 38.381A26.975 26.975 0 0 0 131 126c-14.912 0-27 12.088-27 27 0 14.239 11.022 25.904 25 26.927V180h2Z"/>
            </mask>
            <path fill-rule="evenodd" clip-rule="evenodd" d="M131 180h108v-.004c18.823-.267 34-15.609 34-34.496 0-19.054-15.446-34.5-34.5-34.5a34.381 34.381 0 0 0-14.274 3.082C216.826 99.206 201.592 89 184 89c-22.458 0-41.073 16.634-44.452 38.381A26.975 26.975 0 0 0 131 126c-14.912 0-27 12.088-27 27 0 14.239 11.022 25.904 25 26.927V180h2Z" fill="#444"/>
            <path d="M239 180h2v2h-2v-2Zm0-.004h-2v-1.971l1.972-.028.028 1.999Zm-14.774-65.914.828 1.821-1.758.8-.861-1.73 1.791-.891Zm-84.678 13.299 1.976.307-.364 2.339-2.245-.749.633-1.897ZM129 179.927l.146-1.995 1.854.136v1.859h-2Zm0 .073v2h-2v-2h2Zm2-2h53v4h-53v-4Zm53 0h54.5v4H184v-4Zm54.5 0h.5v4h-.5v-4Zm-1.5 2v-.004h4V180h-4Zm1.972-2.003C256.703 177.745 271 163.292 271 145.5h4c0 19.982-16.056 36.213-35.972 36.496l-.056-3.999ZM271 145.5c0-17.949-14.551-32.5-32.5-32.5v-4c20.158 0 36.5 16.342 36.5 36.5h-4ZM238.5 113a32.37 32.37 0 0 0-13.446 2.903l-1.657-3.641A36.37 36.37 0 0 1 238.5 109v4Zm-16.065 1.973C215.356 100.743 200.795 91 184 91v-4c18.388 0 34.295 10.67 42.016 26.191l-3.581 1.782ZM184 91c-21.44 0-39.243 15.884-42.476 36.688l-3.953-.614C141.097 104.384 160.525 87 184 87v4Zm-45.085 38.278A24.99 24.99 0 0 0 131 128v-4c3.205 0 6.293.521 9.18 1.484l-1.265 3.794ZM131 128c-13.807 0-25 11.193-25 25h-4c0-16.016 12.984-29 29-29v4Zm-25 25c0 13.183 10.206 23.985 23.146 24.932l-.292 3.99C113.839 180.822 102 168.295 102 153h4Zm25 26.927V180h-4v-.073h4ZM129 178h2v4h-2v-4Z" fill="gray" mask="url(#c)"/>
        </g>
        <path d="M91.668 120c-3.771 5.061-6.682 14.689 2.06 20.256 6.648 4.234 14.74-.507 15.94-1.013m0 .018c1.259-.644 3.879-1.267 4.281 1.386" stroke="#AAA" stroke-width="2" stroke-linecap="round"/>
        <g filter="url(#f)">
            <path d="M214 28a1 1 0 0 1 1-1h57.586L284 38.414V120a1 1 0 0 1-1 1h-68a1 1 0 0 1-1-1V28Z" fill="#4A4A4A" stroke="#AAA" stroke-width="2"/>
            <path d="m273 26 12 12h-12V26Z" fill="#AAA"/>
            <path d="M214 63c-.5 7-3 23-18.5 20-2.979-.577-6.5-3.5-7.5-5" stroke="#AAA" stroke-width="2" stroke-linecap="round"/>
            <path d="M184.214 75c-.045.665-.217 1.431.804 2.57.649.724 2.056.867 3.147.623M284 63c.5 7 3 23 18.5 20 2.979-.577 6.5-3.5 7.5-5m4.149-3c.045.665.216 1.431-.805 2.57-.649.724-2.056.867-3.147.623M243 53c0-2.21-2.015-4-4.5-4s-4.5 1.79-4.5 4m29.893 0c0-2.21-2.015-4-4.5-4-2.486 0-4.5 1.79-4.5 4M242 64.252a11.951 11.951 0 0 0 7.709 2.804c3.073 0 5.877-1.156 8-3.056" stroke="#AAA" stroke-width="2" stroke-linecap="round"/>
            <rect x="247" y="87" width="28" height="2" rx="1" fill="gray"/>
            <rect x="223" y="81" width="28" height="2" rx="1" fill="#FF6F3D"/>
            <rect x="247" y="93" width="28" height="2" rx="1" fill="gray"/>
            <rect x="247" y="99" width="28" height="2" rx="1" fill="gray"/>
            <rect x="223" y="105" width="52" height="2" rx="1" fill="gray"/>
            <rect x="223" y="111" width="52" height="2" rx="1" fill="#FF6F3D"/>
            <path d="m230 95-6 6h20l-7-9-4 5-3-2Z" fill="#FF6F3D"/>
            <circle cx="228.5" cy="89.5" r="1.5" fill="#FF6F3D"/>
        </g>
        <path d="M179 164.5a9.5 9.5 0 0 1 9.5-9.5 9.5 9.5 0 0 1 9.5 9.5v4.5h-19v-4.5Z" stroke="#FF6F3D" stroke-width="4"/>
        <rect x="174" y="166" width="29" height="27" rx="5" fill="#FF6F3D"/>
        <circle cx="188.5" cy="176.5" r="4.5" fill="#333"/>
        <path d="M186 179h5v8a1 1 0 0 1-1 1h-3a1 1 0 0 1-1-1v-8Z" fill="#333"/>
    </g>
</svg>
