<svg width="377" height="193" fill="none" xmlns="http://www.w3.org/2000/svg"><path fill-rule="evenodd" clip-rule="evenodd" d="M52.512 92.508a13.228 13.228 0 0 1-.148 3.455l2.52 1.959-2.191 4.812-3.139-.652a12.93 12.93 0 0 1-2.525 2.34l.406 3.179-4.93 1.821-1.724-2.693a12.708 12.708 0 0 1-3.429-.144l-1.944 2.539-4.776-2.235.652-3.151a13.01 13.01 0 0 1-2.322-2.55l-3.155.414L24 96.636l2.673-1.739a12.988 12.988 0 0 1 .142-3.454l-2.52-1.965 2.191-4.812 3.111.679A12.973 12.973 0 0 1 32.122 83l-.405-3.179L36.646 78l1.725 2.693a12.689 12.689 0 0 1 3.428.149l1.95-2.538 4.77 2.207-.668 3.134a12.66 12.66 0 0 1 2.322 2.544l3.155-.408 1.813 4.967-2.673 1.738.044.022zm-7.536-.552a5.686 5.686 0 0 0-1.973-2.638 5.614 5.614 0 0 0-6.268-.263 5.675 5.675 0 0 0-2.183 2.463 5.728 5.728 0 0 0 .965 6.246 5.638 5.638 0 0 0 2.823 1.678 5.606 5.606 0 0 0 3.273-.185 5.663 5.663 0 0 0 3.18-2.946 5.73 5.73 0 0 0 .183-4.35v-.005z" fill="#F5F5F5"/><path fill-rule="evenodd" clip-rule="evenodd" d="M32.91 60.644c.125 1.322.07 2.655-.165 3.962l2.907 2.24-2.56 5.519-3.591-.773a15.164 15.164 0 0 1-2.913 2.682l.468 3.642-5.71 2.086-1.991-3.085a15.03 15.03 0 0 1-3.978-.138L13.17 79.66 7.652 77.1l.773-3.593a14.693 14.693 0 0 1-2.682-2.92l-3.64.47L0 65.35l3.084-1.992a14.859 14.859 0 0 1 .155-3.963L.33 57.156l2.56-5.518 3.592.772a15.012 15.012 0 0 1 2.93-2.67l-.47-3.638L14.653 44l1.992 3.085a14.8 14.8 0 0 1 3.956.17l2.246-2.907 5.517 2.555-.772 3.592a14.697 14.697 0 0 1 2.681 2.92l3.641-.47L36 58.651l-3.084 1.993h-.006zm-8.706-.624a6.517 6.517 0 1 0-12.232 4.5 6.517 6.517 0 0 0 12.232-4.5z" fill="#E2E2E2"/><path d="M48.25 48.845a4.588 4.588 0 0 1 2.818-4.242 4.576 4.576 0 0 1 1.752-.353H180.18a4.574 4.574 0 0 1 3.235 1.35l.177-.176-.177.176a4.59 4.59 0 0 1 1.334 3.245v84.905H48.267l-.017-84.905zm136.75 0v84.905-84.905z" fill="#F5F5F5" stroke="#333" stroke-width=".5"/><path d="M179.797 130a1.2 1.2 0 0 0 .849-.353c.225-.226.353-.533.354-.854V49.207a1.217 1.217 0 0 0-.354-.854 1.2 1.2 0 0 0-.849-.353H53.203a1.2 1.2 0 0 0-.849.353 1.217 1.217 0 0 0-.354.854v79.575c.002.321.129.628.354.854a1.2 1.2 0 0 0 .85.353l126.593.011z" fill="white"/><path d="M180.401 129.787V49.218a.621.621 0 0 0-.177-.43.598.598 0 0 0-.427-.176H53.203a.592.592 0 0 0-.427.176.606.606 0 0 0-.177.43v80.569a.618.618 0 0 0 .177.431.602.602 0 0 0 .427.176h126.594a.613.613 0 0 0 .427-.176.596.596 0 0 0 .177-.431zm.599 0a1.226 1.226 0 0 1-.354.858 1.198 1.198 0 0 1-.849.355H53.203c-.318 0-.623-.128-.849-.355a1.226 1.226 0 0 1-.354-.858V49.218c0-.323.127-.633.352-.861.226-.229.532-.357.851-.357h126.594c.319 0 .625.128.851.357.225.228.352.538.352.861v80.569z" fill="#333"/><path d="M69.041 95.237a1 1 0 0 0-1.433 0L59.08 104h18.487l-4.622-4.75-3.905-4.013z" fill="#E3EEC4"/><path d="m72.946 99.25 4.622 4.75h15.405L81.449 90.182a1 1 0 0 0-1.561.03l-6.942 9.038z" fill="#D9F4FF"/><path fill-rule="evenodd" clip-rule="evenodd" d="M93 104a1 1 0 0 0 1-1V86a1 1 0 0 0-1-1H57a1 1 0 0 0-1 1v17a1 1 0 0 0 1 1h36zm-.118-.5H93a.5.5 0 0 0 .5-.5V86a.5.5 0 0 0-.5-.5H57a.5.5 0 0 0-.5.5v17a.5.5 0 0 0 .5.5h2.219l8.21-8.438a1.25 1.25 0 0 1 1.791 0l3.704 3.807 6.765-8.808a1.25 1.25 0 0 1 1.952-.04L92.88 103.5zm-19.606-4.27 4.154 4.27h14.8L81.258 90.342a.75.75 0 0 0-1.171.023l-6.81 8.866zm3.456 4.27-7.87-8.089a.75.75 0 0 0-1.075 0l-7.87 8.089h16.815zM60.984 88.37a1.222 1.222 0 1 0-1.752 1.705 1.222 1.222 0 0 0 1.752-1.705zm-2.11-.349a1.722 1.722 0 1 1 2.468 2.402 1.722 1.722 0 0 1-2.468-2.402z" fill="#EBEBEB"/><path d="M105 114.987c.012-.272.12-.528.301-.712a.88.88 0 0 1 .664-.273.916.916 0 0 1 .698.258c.193.184.314.445.337.727v7.976c-.021.287-.14.554-.333.746a.953.953 0 0 1-.702.29.847.847 0 0 1-.367-.068.92.92 0 0 1-.313-.222 1.04 1.04 0 0 1-.211-.341 1.135 1.135 0 0 1-.074-.405v-7.976z" fill="#FFC5B1"/><path d="M109 119.123c.022-.311.142-.6.335-.809a.923.923 0 0 1 .702-.314.873.873 0 0 1 .672.323c.18.21.285.497.291.8v3.754c0 .151-.025.3-.074.439-.049.139-.12.264-.21.369a.922.922 0 0 1-.313.24.778.778 0 0 1-.366.074.913.913 0 0 1-.703-.312 1.327 1.327 0 0 1-.334-.81v-3.754zM119.002 114.17c-.009-.15.01-.3.056-.441.046-.142.118-.272.211-.381a.995.995 0 0 1 .333-.257.92.92 0 0 1 .796 0 .995.995 0 0 1 .333.257c.093.109.165.239.211.381.046.141.065.291.056.441v8.809c-.018.277-.13.537-.315.726A.955.955 0 0 1 120 124a.955.955 0 0 1-.683-.295 1.144 1.144 0 0 1-.315-.726v-8.809z" fill="#D9F4FF"/><path d="M115 118.038c.042-.291.166-.555.349-.744A.903.903 0 0 1 116 117c.238 0 .469.104.651.294.183.189.307.453.349.744v4.924a1.344 1.344 0 0 1-.349.744.903.903 0 0 1-.651.294.903.903 0 0 1-.651-.294 1.344 1.344 0 0 1-.349-.744v-4.924zM125 110.09c0-.289.105-.566.293-.771A.96.96 0 0 1 126 109a.96.96 0 0 1 .707.319c.188.205.293.482.293.771v12.82c0 .289-.105.566-.293.771A.96.96 0 0 1 126 124a.96.96 0 0 1-.707-.319 1.141 1.141 0 0 1-.293-.771v-12.82z" fill="#FFC5B1"/><path d="M129 114.727c0-.193.105-.378.293-.514.187-.136.442-.213.707-.213.265 0 .52.077.707.213.188.136.293.321.293.514v8.546c0 .193-.105.378-.293.514A1.217 1.217 0 0 1 130 124c-.265 0-.52-.077-.707-.213-.188-.136-.293-.321-.293-.514v-8.546z" fill="#D9F4FF"/><path fill-rule="evenodd" clip-rule="evenodd" d="M135 107.5h-33a1.5 1.5 0 0 0-1.5 1.5v15a1.5 1.5 0 0 0 1.5 1.5h33a1.5 1.5 0 0 0 1.5-1.5v-15a1.5 1.5 0 0 0-1.5-1.5zm-33-.5a2 2 0 0 0-2 2v15a2 2 0 0 0 2 2h33a2 2 0 0 0 2-2v-15a2 2 0 0 0-2-2h-33z" fill="#EBEBEB"/><path d="M67.374 139.799h33.249v.132h7.624v-.132h17.35v.16h10.285v-.16h55.37a19.327 19.327 0 0 0 5.028-.828 16.474 16.474 0 0 0 2.3-.922h-44.208v-.419h-8.111v.386l-10.379-.193v-.127h-10.285v.32l-16.737-.254h-8.215v.287l-31.398-.419-.547.132-10.181.094-25.889-.066a7.383 7.383 0 0 0 2.339 1.628c1.845.552 4.184.552 5.673.552H58.52l7.88.193.975-.364z" fill="#AAA"/><path d="m198.29 138.049.81-.551H32.345l.548.551H198.29z" fill="#333"/><path d="M32.636 134.592v3.162c1.095 1.104 3.663 2.373 8.762 2.208l148.583.077a29.06 29.06 0 0 0 5.526-.922c.811-.193 3.434-1.203 3.467-1.495v-3.03c-55.419.094-110.87 0-166.338 0zm8.762 6.07c-2.853 0-5.838 0-8.888-2.014a1.166 1.166 0 0 1-.548-.877v-2.732c.025-.278.15-.537.352-.728.202-.191.466-.301.743-.309h165.676a.849.849 0 0 1 .86.576.864.864 0 0 1 .044.367v2.793l-.033.033a1.284 1.284 0 0 1-.652.679 12.988 12.988 0 0 1-3.565 1.429c-1.727.461-3.5.724-5.285.783H41.398z" fill="#333"/><path opacity=".6" d="M79.687 73h-23.37a.317.317 0 0 0-.317.32.321.321 0 0 0 .318.32h23.369a.317.317 0 0 0 .317-.32.317.317 0 0 0-.318-.32z" fill="#B2B2B2"/><path d="M174.539 55H71.461c-.388 0-.76-.158-1.033-.44A1.52 1.52 0 0 1 70 53.5c0-.398.154-.78.428-1.06.274-.282.645-.44 1.033-.44h103.078c.388 0 .759.158 1.033.44.274.28.428.662.428 1.06s-.154.78-.428 1.06a1.44 1.44 0 0 1-1.033.44zM71.461 52.558c-.243 0-.477.099-.65.276a.956.956 0 0 0-.268.666c0 .25.097.49.269.666a.906.906 0 0 0 .649.276h103.078c.244 0 .477-.099.649-.276a.956.956 0 0 0 0-1.332.905.905 0 0 0-.649-.276H71.461z" fill="#CCC"/><path d="M90.913 134.551H47.49l-.033.033v-.033h-14.87v2.891h166.432v-3.024c-30.637.067-61.262.1-91.877.1h-.296c-5.29.033-10.614.033-15.932.033z" fill="#F2F2F2"/><path d="M57.336 54.627c.738 0 1.337-.588 1.337-1.314 0-.725-.599-1.313-1.337-1.313S56 52.588 56 53.313c0 .726.598 1.314 1.336 1.314zM61.336 54.627c.738 0 1.337-.588 1.337-1.314 0-.725-.599-1.313-1.337-1.313S60 52.588 60 53.313c0 .726.598 1.314 1.336 1.314zM65.336 54.627c.738 0 1.337-.588 1.337-1.314 0-.725-.599-1.313-1.337-1.313S64 52.588 64 53.313c0 .726.598 1.314 1.336 1.314z" fill="#CCC"/><path d="M104.783 65H57.217c-.672 0-1.217.541-1.217 1.209v.005c0 .668.545 1.209 1.217 1.209h47.566c.672 0 1.217-.541 1.217-1.209v-.005c0-.668-.545-1.209-1.217-1.209z" fill="#B2B2B2"/><path opacity=".4" d="M57.013 79h65.974a.934.934 0 0 1 .697.275c.189.187.303.448.316.725a1.093 1.093 0 0 1-.316.725.934.934 0 0 1-.697.274H57.013a.933.933 0 0 1-.697-.274A1.09 1.09 0 0 1 56 80a1.09 1.09 0 0 1 .316-.725.933.933 0 0 1 .697-.274zM100.403 85h20.194a.389.389 0 0 1 .403.37.373.373 0 0 1-.036.147.38.38 0 0 1-.367.223h-20.194a.387.387 0 0 1-.403-.37c.002-.05.014-.1.036-.147a.38.38 0 0 1 .367-.223zM143.326 85h16.348a.255.255 0 0 1 .12.023.306.306 0 0 1 .105.079c.03.034.055.075.072.121a.48.48 0 0 1 .029.147.479.479 0 0 1-.029.147.391.391 0 0 1-.072.121.305.305 0 0 1-.105.079.254.254 0 0 1-.12.023h-16.348a.254.254 0 0 1-.12-.023.305.305 0 0 1-.105-.079.391.391 0 0 1-.072-.121.479.479 0 0 1-.029-.147.48.48 0 0 1 .029-.147.391.391 0 0 1 .072-.121.306.306 0 0 1 .105-.079.255.255 0 0 1 .12-.023zM143.326 108h16.348a.262.262 0 0 1 .12.023.306.306 0 0 1 .105.079c.03.034.055.075.072.121a.486.486 0 0 1 .029.147.48.48 0 0 1-.029.147.402.402 0 0 1-.072.122.317.317 0 0 1-.105.078.262.262 0 0 1-.12.023h-16.348a.262.262 0 0 1-.12-.023.317.317 0 0 1-.105-.078.402.402 0 0 1-.072-.122.48.48 0 0 1-.029-.147.486.486 0 0 1 .029-.147.385.385 0 0 1 .072-.121.306.306 0 0 1 .105-.079.262.262 0 0 1 .12-.023zM100.462 90h36.076a.504.504 0 0 1 .171.023.459.459 0 0 1 .148.079.384.384 0 0 1 .102.121.334.334 0 0 1 .041.147.334.334 0 0 1-.041.147.384.384 0 0 1-.102.121.502.502 0 0 1-.319.101h-36.076a.502.502 0 0 1-.319-.1.384.384 0 0 1-.102-.122.334.334 0 0 1-.041-.147c.002-.05.016-.1.041-.147a.384.384 0 0 1 .102-.121.459.459 0 0 1 .148-.079.504.504 0 0 1 .171-.023zM143.212 90h16.576a.119.119 0 0 1 .078.023.232.232 0 0 1 .068.079.45.45 0 0 1 .047.121.694.694 0 0 1 .019.147.694.694 0 0 1-.019.147.45.45 0 0 1-.047.121.232.232 0 0 1-.068.079.118.118 0 0 1-.078.023h-16.576a.118.118 0 0 1-.078-.023.232.232 0 0 1-.068-.079.45.45 0 0 1-.047-.121.694.694 0 0 1-.019-.147c.001-.05.008-.1.019-.147a.45.45 0 0 1 .047-.121.232.232 0 0 1 .068-.079.119.119 0 0 1 .078-.023zM143.212 113h16.576a.122.122 0 0 1 .078.023.234.234 0 0 1 .068.079c.02.034.036.075.047.121a.704.704 0 0 1 .019.147.695.695 0 0 1-.019.147.463.463 0 0 1-.047.122.24.24 0 0 1-.068.078.122.122 0 0 1-.078.023h-16.576a.122.122 0 0 1-.078-.023.24.24 0 0 1-.068-.078.463.463 0 0 1-.047-.122.695.695 0 0 1-.019-.147.704.704 0 0 1 .019-.147.443.443 0 0 1 .047-.121.234.234 0 0 1 .068-.079.122.122 0 0 1 .078-.023zM100.508 94h31.984a.568.568 0 0 1 .348.1.362.362 0 0 1 .16.265.327.327 0 0 1-.045.146.406.406 0 0 1-.112.122.526.526 0 0 1-.163.078.603.603 0 0 1-.188.023h-31.984a.603.603 0 0 1-.188-.023.526.526 0 0 1-.163-.078.406.406 0 0 1-.112-.122.327.327 0 0 1-.045-.146.362.362 0 0 1 .16-.265.568.568 0 0 1 .348-.1zM143.261 94h16.478c.065-.004.13.032.179.1a.494.494 0 0 1 .082.265.543.543 0 0 1-.023.146.432.432 0 0 1-.058.122.26.26 0 0 1-.084.078.172.172 0 0 1-.096.023h-16.478a.172.172 0 0 1-.096-.023.26.26 0 0 1-.084-.078.432.432 0 0 1-.058-.122.543.543 0 0 1-.023-.146.494.494 0 0 1 .082-.265c.049-.068.114-.104.179-.1zM143.261 117h16.478c.065-.004.13.032.179.1a.492.492 0 0 1 .082.265.543.543 0 0 1-.023.146.431.431 0 0 1-.058.122.257.257 0 0 1-.084.078.161.161 0 0 1-.096.023h-16.478a.161.161 0 0 1-.096-.023.257.257 0 0 1-.084-.078.431.431 0 0 1-.058-.122.543.543 0 0 1-.023-.146.492.492 0 0 1 .082-.265c.049-.068.114-.104.179-.1zM100.225 99h17.55a.13.13 0 0 1 .083.023.23.23 0 0 1 .072.079.453.453 0 0 1 .05.121.548.548 0 0 1-.051.412c-.042.068-.097.104-.154.1h-17.55c-.057.004-.112-.032-.154-.1a.548.548 0 0 1-.001-.533.23.23 0 0 1 .072-.079.13.13 0 0 1 .083-.023zM119.225 99h17.55a.13.13 0 0 1 .083.023.23.23 0 0 1 .072.079.453.453 0 0 1 .05.121.548.548 0 0 1-.051.412c-.042.068-.097.104-.154.1h-17.55c-.057.004-.112-.032-.154-.1a.548.548 0 0 1-.001-.533.23.23 0 0 1 .072-.079.13.13 0 0 1 .083-.023zM143.212 99h16.576a.119.119 0 0 1 .078.023.232.232 0 0 1 .068.079.45.45 0 0 1 .047.121.571.571 0 0 1-.048.412c-.039.068-.092.104-.145.1h-16.576c-.053.004-.106-.032-.145-.1a.571.571 0 0 1-.001-.533.232.232 0 0 1 .068-.079.119.119 0 0 1 .078-.023zM143.212 121h16.576a.122.122 0 0 1 .078.023.234.234 0 0 1 .068.079c.02.034.036.075.047.121a.57.57 0 0 1-.048.412c-.039.068-.092.104-.145.099h-16.576c-.053.005-.106-.031-.145-.099a.57.57 0 0 1-.001-.533.234.234 0 0 1 .068-.079.122.122 0 0 1 .078-.023zM100.475 103h37.05c.06-.002.12.006.176.023a.478.478 0 0 1 .152.079.354.354 0 0 1 .147.268.366.366 0 0 1-.149.265.505.505 0 0 1-.326.099h-37.05a.505.505 0 0 1-.326-.099.366.366 0 0 1-.149-.265.354.354 0 0 1 .147-.268.478.478 0 0 1 .152-.079.546.546 0 0 1 .176-.023zM143.212 103h16.576a.122.122 0 0 1 .078.023.234.234 0 0 1 .068.079c.02.034.036.075.047.121a.57.57 0 0 1-.048.412c-.039.068-.092.104-.145.099h-16.576c-.053.005-.106-.031-.145-.099a.57.57 0 0 1-.001-.533.234.234 0 0 1 .068-.079.122.122 0 0 1 .078-.023zM143.212 125h16.576a.122.122 0 0 1 .078.023.234.234 0 0 1 .068.079c.02.034.036.075.047.121a.57.57 0 0 1-.048.412c-.039.068-.092.104-.145.099h-16.576c-.053.005-.106-.031-.145-.099a.57.57 0 0 1-.001-.533.234.234 0 0 1 .068-.079.122.122 0 0 1 .078-.023zM56.403 108h31.2a.38.38 0 0 1 .362.223.394.394 0 0 1 .035.147.39.39 0 0 1-.25.347.388.388 0 0 1-.147.023h-31.2a.387.387 0 0 1-.403-.37.387.387 0 0 1 .403-.37zM56.406 113h28.188a.39.39 0 0 1 .406.37.393.393 0 0 1-.406.37H56.406a.39.39 0 0 1-.406-.37.39.39 0 0 1 .406-.37zM56.478 117h37.05a.54.54 0 0 1 .175.023.474.474 0 0 1 .15.079.39.39 0 0 1 .105.121c.025.047.04.096.042.147a.336.336 0 0 1-.042.146.39.39 0 0 1-.105.121.51.51 0 0 1-.325.097h-37.05a.48.48 0 0 1-.328-.097.401.401 0 0 1-.106-.121.338.338 0 0 1-.044-.146.374.374 0 0 1 .15-.269.513.513 0 0 1 .328-.101zM56.252 121h16.496c.064-.004.126.032.173.101a.52.52 0 0 1 .079.269.517.517 0 0 1-.08.269c-.046.069-.108.105-.172.101H56.252c-.064.004-.126-.032-.173-.101a.517.517 0 0 1-.079-.269.52.52 0 0 1 .08-.269c.046-.069.108-.105.172-.101zM77.252 121h16.496c.064-.004.126.032.173.101a.52.52 0 0 1 .079.269.517.517 0 0 1-.08.269c-.046.069-.108.105-.172.101H77.252c-.064.004-.126-.032-.173-.101a.517.517 0 0 1-.079-.269.52.52 0 0 1 .08-.269c.046-.069.108-.105.172-.101zM56.563 125h36.874a.679.679 0 0 1 .386.101c.106.07.17.166.177.269a.363.363 0 0 1-.177.269.679.679 0 0 1-.386.101H56.563a.679.679 0 0 1-.386-.101.363.363 0 0 1-.177-.269c.008-.103.071-.199.177-.269a.679.679 0 0 1 .386-.101z" fill="#CCC"/><path d="M167.242 84.46a1.72 1.72 0 0 0 1.714-1.727 1.72 1.72 0 0 0-1.714-1.728c-.946 0-1.714.774-1.714 1.728s.768 1.727 1.714 1.727z" fill="white"/><path d="M164 103.598c0-.313.123-.614.343-.835a1.166 1.166 0 0 1 1.658 0c.22.221.343.522.343.835v13.901c0 .313-.123.613-.343.835a1.17 1.17 0 0 1-1.658 0 1.186 1.186 0 0 1-.343-.835v-13.901z" fill="#E2E2E2"/><path d="M163 146c-.355 0-1-.647-1-1V67c.003-.35.647-1 1-1h48.5L224 78.5v66.813a.67.67 0 0 1-.669.665L163 146z" fill="white"/><path d="M223.101 146h-60.164a.935.935 0 0 1-.937-.933V66.928a.927.927 0 0 1 .937-.928h48.617c.248 0 .487.099.663.273l11.509 11.463a.93.93 0 0 1 .274.66v66.649a.938.938 0 0 1-.899.955zm-60.164-79.454a.38.38 0 0 0-.275.11.375.375 0 0 0-.114.272v78.139a.389.389 0 0 0 .389.387h60.164a.389.389 0 0 0 .389-.387V78.418c0-.102-.042-.2-.115-.273l-11.509-11.463a.381.381 0 0 0-.274-.109l-48.655-.027z" fill="#333"/><path d="M214.294 92h-43.588c-.187 0-.367-.105-.499-.293A1.237 1.237 0 0 1 170 91c0-.265.074-.52.207-.707.132-.188.312-.293.499-.293h43.588c.187 0 .367.105.499.293.133.187.207.442.207.707 0 .265-.074.52-.207.707-.132.188-.312.293-.499.293z" fill="#FFC5B1"/><path d="M214.294 122h-43.588a.879.879 0 0 1-.499-.146c-.133-.094-.207-.221-.207-.354 0-.133.074-.26.207-.354a.879.879 0 0 1 .499-.146h43.588c.187 0 .367.053.499.146.133.094.207.221.207.354 0 .133-.074.26-.207.354a.879.879 0 0 1-.499.146zM214.294 129h-43.588a.879.879 0 0 1-.499-.146c-.133-.094-.207-.221-.207-.354 0-.133.074-.26.207-.354a.879.879 0 0 1 .499-.146h43.588c.187 0 .367.053.499.146.133.094.207.221.207.354 0 .133-.074.26-.207.354a.879.879 0 0 1-.499.146zM212.38 136.998h-41.641a.924.924 0 0 1-.278-.024.768.768 0 0 1-.24-.105.53.53 0 0 1-.163-.168.39.39 0 0 1-.058-.201.39.39 0 0 1 .058-.201.53.53 0 0 1 .163-.168.768.768 0 0 1 .24-.105.924.924 0 0 1 .278-.024h41.641a.796.796 0 0 1 .442.16.44.44 0 0 1 .178.338.44.44 0 0 1-.178.338.796.796 0 0 1-.442.16z" fill="#CDCDCD"/><path d="m173.591 82.158.648 1.908h.837L173.006 78h-.945L170 84.066h.81l.63-1.908h2.151zm-1.989-.612.594-1.755c.117-.369.216-.738.306-1.098h.018c.09.351.18.711.315 1.107l.594 1.746h-1.827zM179.11 84.066a6.133 6.133 0 0 1-.072-1.044v-1.629c0-.873-.324-1.782-1.656-1.782-.549 0-1.071.153-1.431.387l.18.522a2.17 2.17 0 0 1 1.134-.324c.891 0 .99.648.99 1.008v.09c-1.683-.009-2.619.567-2.619 1.62 0 .63.45 1.251 1.332 1.251.621 0 1.089-.306 1.332-.648h.027l.063.549h.72zm-.837-1.467a.827.827 0 0 1-.045.252 1.084 1.084 0 0 1-1.053.729c-.405 0-.747-.243-.747-.756 0-.846.981-.999 1.845-.981v.756z" fill="#333"/><path d="M237 146c-.343 0-1-.647-1-1V67c-.006-.359.636-1 1-1h47l12 12.5v66.802a.67.67 0 0 1-.19.47.637.637 0 0 1-.457.195L237 146z" fill="white"/><path d="M295.114 146h-58.207a.898.898 0 0 1-.64-.275.95.95 0 0 1-.267-.658V66.933c0-.247.096-.485.266-.66.17-.175.4-.273.641-.273h47.048a.88.88 0 0 1 .642.273l11.138 11.463a.946.946 0 0 1 .265.66v66.649a.955.955 0 0 1-.252.665.9.9 0 0 1-.634.29zm-58.207-79.454a.37.37 0 0 0-.266.113.392.392 0 0 0-.111.274v78.134c0 .102.04.201.111.274.07.072.166.113.266.113h58.207c.1 0 .196-.041.266-.113a.394.394 0 0 0 .111-.274V78.418a.378.378 0 0 0-.112-.273l-11.137-11.463a.352.352 0 0 0-.265-.114l-47.07-.022z" fill="#333"/><path d="M288.294 92h-43.588c-.187 0-.367-.105-.499-.293A1.237 1.237 0 0 1 244 91c0-.265.074-.52.207-.707.132-.188.312-.293.499-.293h43.588c.187 0 .367.105.499.293.133.187.207.442.207.707 0 .265-.074.52-.207.707-.132.188-.312.293-.499.293z" fill="#D9F4FF"/><path d="M288.226 99.998h-43.577a.852.852 0 0 1-.462-.16.432.432 0 0 1-.187-.338c0-.125.067-.246.187-.338a.852.852 0 0 1 .462-.16h43.577a.992.992 0 0 1 .291.025.81.81 0 0 1 .252.104.55.55 0 0 1 .171.168c.039.063.06.132.06.201 0 .07-.021.138-.06.201a.55.55 0 0 1-.171.168.81.81 0 0 1-.252.105 1 1 0 0 1-.291.024zM288.226 106.998h-43.577a.853.853 0 0 1-.462-.16.433.433 0 0 1-.187-.338c0-.125.067-.246.187-.338a.853.853 0 0 1 .462-.16h43.577c.099-.006.198.002.291.024a.827.827 0 0 1 .252.105.55.55 0 0 1 .171.168c.039.063.06.132.06.201a.382.382 0 0 1-.06.201.55.55 0 0 1-.171.168.827.827 0 0 1-.252.105c-.093.022-.192.03-.291.024z" fill="#CDCDCD"/><path d="M244 84.372c.261.036.675.072 1.215.072.99 0 1.674-.18 2.097-.567.306-.297.513-.693.513-1.215 0-.9-.675-1.377-1.251-1.521v-.018c.639-.234 1.026-.747 1.026-1.332 0-.477-.189-.837-.504-1.071-.378-.306-.882-.441-1.665-.441-.549 0-1.089.054-1.431.126v5.967zm.783-5.436c.126-.027.333-.054.693-.054.792 0 1.332.279 1.332.99 0 .585-.486 1.017-1.314 1.017h-.711v-1.953zm0 2.547h.648c.855 0 1.566.342 1.566 1.17 0 .882-.747 1.179-1.557 1.179-.279 0-.504-.009-.657-.036v-2.313zM249.499 84.39l.036-.72h.027c.324.576.828.819 1.458.819.972 0 1.953-.774 1.953-2.331.009-1.323-.756-2.223-1.836-2.223-.702 0-1.206.315-1.485.801h-.018V78h-.783v5.265c0 .387-.018.828-.036 1.125h.684zm.135-2.529c0-.126.027-.234.045-.324.162-.603.666-.972 1.206-.972.846 0 1.296.747 1.296 1.62 0 .999-.495 1.674-1.323 1.674-.576 0-1.035-.378-1.188-.927a1.483 1.483 0 0 1-.036-.288v-.783z" fill="#333"/><path d="M288.226 114.998h-43.577a.853.853 0 0 1-.462-.16.433.433 0 0 1-.187-.338c0-.125.067-.246.187-.338a.853.853 0 0 1 .462-.16h43.577c.099-.006.198.002.291.024a.827.827 0 0 1 .252.105.55.55 0 0 1 .171.168c.039.063.06.132.06.201a.382.382 0 0 1-.06.201.55.55 0 0 1-.171.168.827.827 0 0 1-.252.105c-.093.022-.192.03-.291.024z" fill="#CDCDCD"/><path d="M311 146c-.5 0-1-.5-1-1V67.013c-.006-.372.64-1.013 1-1.013h48.719L372 78.615v66.682a.655.655 0 0 1-.196.47.659.659 0 0 1-.473.195L311 146z" fill="white"/><path d="M371.085 146h-60.148a.943.943 0 0 1-.937-.933V66.933a.937.937 0 0 1 .937-.933h48.617a.937.937 0 0 1 .663.273l11.509 11.463a.936.936 0 0 1 .274.66v66.649a.937.937 0 0 1-.915.955zm-60.148-79.454a.39.39 0 0 0-.389.387v78.134a.389.389 0 0 0 .389.387h60.148a.389.389 0 0 0 .389-.387V78.418a.362.362 0 0 0-.115-.273L359.85 66.682a.367.367 0 0 0-.274-.114l-48.639-.022z" fill="#333"/><path d="M362.351 91.996h-43.577a.52.52 0 0 1-.291-.049.707.707 0 0 1-.252-.21 1.063 1.063 0 0 1-.171-.334A1.346 1.346 0 0 1 318 91c0-.139.02-.276.06-.403.04-.127.098-.24.171-.334a.707.707 0 0 1 .252-.21.52.52 0 0 1 .291-.05h43.577c.177.023.342.137.462.322.12.184.187.425.187.675 0 .25-.067.491-.187.675-.12.185-.285.3-.462.321z" fill="#E3EEC4"/><path d="M362.294 100h-43.588a.874.874 0 0 1-.499-.146c-.133-.094-.207-.221-.207-.354 0-.133.074-.26.207-.354a.874.874 0 0 1 .499-.146h43.588c.187 0 .367.053.499.146.133.094.207.221.207.354 0 .133-.074.26-.207.354a.874.874 0 0 1-.499.146zM362.351 128.998h-43.577a1.006 1.006 0 0 1-.291-.024.827.827 0 0 1-.252-.105.55.55 0 0 1-.171-.168.374.374 0 0 1-.06-.201c0-.069.02-.138.06-.201a.55.55 0 0 1 .171-.168.827.827 0 0 1 .252-.105c.093-.022.192-.03.291-.024h43.577a.853.853 0 0 1 .462.16c.12.092.187.213.187.338a.433.433 0 0 1-.187.338.853.853 0 0 1-.462.16zM359.394 135.998h-40.672a.876.876 0 0 1-.271-.024.745.745 0 0 1-.236-.105.539.539 0 0 1-.159-.168.396.396 0 0 1-.056-.201c0-.069.019-.138.056-.201a.539.539 0 0 1 .159-.168.745.745 0 0 1 .236-.105.876.876 0 0 1 .271-.024h40.672c.166.011.32.068.432.16a.44.44 0 0 1 .174.338.44.44 0 0 1-.174.338.764.764 0 0 1-.432.16z" fill="#CDCDCD"/><path d="M322.678 83.346c-.315.153-.801.252-1.278.252-1.476 0-2.331-.954-2.331-2.439 0-1.593.945-2.502 2.367-2.502.504 0 .927.108 1.224.252l.189-.639c-.207-.108-.684-.27-1.44-.27-1.881 0-3.168 1.287-3.168 3.186 0 1.989 1.287 3.069 2.997 3.069.738 0 1.314-.144 1.602-.288l-.162-.621zM326.668 83.409a2.25 2.25 0 0 1-.972.216c-.864 0-1.512-.621-1.512-1.629 0-.909.54-1.647 1.539-1.647.432 0 .729.099.918.207l.18-.612c-.216-.108-.63-.225-1.098-.225-1.422 0-2.34.972-2.34 2.313 0 1.332.855 2.223 2.169 2.223.585 0 1.044-.144 1.251-.252l-.135-.594z" fill="#333"/><path d="M345 111.089c.002-.15.029-.297.079-.434a1.16 1.16 0 0 1 .213-.361.9.9 0 0 1 .311-.229.735.735 0 0 1 .36-.062.867.867 0 0 1 .699.284c.194.203.315.491.338.802v8.767a1.366 1.366 0 0 1-.333.823.918.918 0 0 1-.704.32.776.776 0 0 1-.367-.077.922.922 0 0 1-.312-.245 1.166 1.166 0 0 1-.21-.375 1.368 1.368 0 0 1-.074-.446v-8.767zM349 116.127c.021-.312.141-.602.333-.811a.923.923 0 0 1 .704-.315.798.798 0 0 1 .367.075.937.937 0 0 1 .312.242c.09.105.162.231.21.37.049.139.074.288.074.439v3.746c0 .151-.025.3-.074.439-.048.139-.12.265-.21.37a.937.937 0 0 1-.312.242.798.798 0 0 1-.367.075.923.923 0 0 1-.704-.315 1.335 1.335 0 0 1-.333-.811v-3.746zM357 110.194c0-.157.026-.312.076-.457.05-.145.124-.276.217-.387.093-.111.203-.199.324-.259A.866.866 0 0 1 358 109c.131 0 .261.031.383.091.121.06.231.148.324.259.093.111.167.242.217.387.05.145.076.3.076.457v9.612c0 .317-.105.62-.293.844a.925.925 0 0 1-.707.35.925.925 0 0 1-.707-.35 1.317 1.317 0 0 1-.293-.844v-9.612zM353 115.047c.04-.292.162-.558.345-.75A.906.906 0 0 1 354 114c.24 0 .472.105.655.297.183.192.305.458.345.75v4.906c-.04.292-.162.558-.345.75A.906.906 0 0 1 354 121a.906.906 0 0 1-.655-.297 1.354 1.354 0 0 1-.345-.75v-4.906z" fill="#8BB825"/><path d="m191.964 62.48-.35-.425s.471-.392 1.319-1.015l.324.447c-.833.612-1.287.987-1.293.993zM196.066 59.555l-.296-.469a70.281 70.281 0 0 1 2.952-1.766l.263.48a90.843 90.843 0 0 0-2.919 1.755zm60.841-.044a66.053 66.053 0 0 0-2.881-1.82l.274-.476c.969.552 1.944 1.192 2.908 1.833l-.301.463zm-54.888-3.267-.241-.496a61.263 61.263 0 0 1 3.122-1.44l.214.507a33.592 33.592 0 0 0-3.095 1.43zm49.05-.17c-1.008-.553-2.038-1.027-3.062-1.48l.219-.507c1.035.463 2.076.965 3.094 1.495l-.251.491zm-42.79-2.517-.192-.519a91.137 91.137 0 0 1 3.259-1.104l.159.552a37.129 37.129 0 0 0-3.248 1.049l.022.022zm36.579-.254a76.857 76.857 0 0 0-3.22-1.104l.153-.552c1.095.326 2.191.696 3.259 1.104l-.192.552zm-30.073-1.716-.126-.552a56.535 56.535 0 0 1 3.358-.7l.093.55a34.557 34.557 0 0 0-3.347.68l.022.022zm23.55-.238a48.688 48.688 0 0 0-3.335-.645l.088-.552a50.6 50.6 0 0 1 3.368.657l-.121.54zm-16.879-.943-.055-.552a50.8 50.8 0 0 1 3.418-.27l.027.551a43.877 43.877 0 0 0-3.395.249l.005.022zm10.176-.122a52.39 52.39 0 0 0-3.39-.187v-.552c1.144 0 2.294.088 3.428.193l-.038.546zM261.009 62.486c-.438-.337-.871-.668-1.309-.994l.329-.441c.438.32.876.657 1.314.999l-.334.436zM279.378 62.48l-.351-.425s.471-.392 1.32-1.015l.323.447c-.832.612-1.287.987-1.292.993zM283.48 59.555l-.296-.469a69.644 69.644 0 0 1 2.952-1.766l.263.48a91.026 91.026 0 0 0-2.919 1.755zm60.841-.044a65.891 65.891 0 0 0-2.881-1.815l.274-.48c.969.551 1.949 1.191 2.908 1.832l-.301.463zm-54.904-3.267-.247-.496a61.263 61.263 0 0 1 3.122-1.44l.213.507a38.828 38.828 0 0 0-3.088 1.43zm49.043-.17c-1.007-.553-2.037-1.027-3.061-1.48l.219-.507c1.035.463 2.076.965 3.094 1.495l-.252.491zm-42.789-2.54-.192-.518a77.161 77.161 0 0 1 3.286-1.104l.159.552a45.676 45.676 0 0 0-3.253 1.07zm36.579-.253a76.857 76.857 0 0 0-3.22-1.104l.153-.552c1.095.326 2.191.696 3.259 1.104l-.192.552zm-30.073-1.716-.126-.552a56.535 56.535 0 0 1 3.358-.701l.098.552c-1.106.199-2.229.414-3.33.7zm23.55-.238a48.628 48.628 0 0 0-3.335-.645l.087-.552c1.096.182 2.257.397 3.369.656l-.121.541zm-16.879-.943-.055-.552a51.061 51.061 0 0 1 3.418-.27v.551c-1.079.061-2.218.144-3.347.27h-.016zm10.176-.122a52.39 52.39 0 0 0-3.39-.187v-.552c1.144 0 2.294.088 3.428.193l-.038.546zM348.422 62.486c-.438-.337-.87-.668-1.308-.994l.328-.447c.438.326.876.662 1.315 1.005l-.335.436z" fill="#848484"/><rect x="244.25" y="121.25" width="41.5" height="15.5" rx=".75" fill="white" stroke="#9ADAF3" stroke-width=".5"/><path d="M277.509 125.434c.757-.189 1.498-.685 2.241-1.645v10.961h-28.539a10.093 10.093 0 0 0 3.585-2.969l.005-.008c.834-1.208 1.634-2.294 2.663-2.874 1-.564 2.256-.668 4.057.198.951.458 1.724.639 2.413.58.693-.06 1.268-.358 1.825-.794.461-.361.925-.828 1.438-1.346l.305-.306c.644-.644 1.389-1.363 2.341-2.092.909-.697 1.749-.833 2.562-.734.653.079 1.279.306 1.927.541.185.067.372.134.561.199.833.286 1.71.515 2.616.289z" fill="#D9F4FF" stroke="#9ADAF3" stroke-width=".5"/><rect x="318" y="106" width="20" height="1" rx=".5" fill="#CDCDCD"/><rect x="318" y="114" width="20" height="1" rx=".5" fill="#CDCDCD"/><rect x="318" y="121" width="20" height="1" rx=".5" fill="#CDCDCD"/><path d="M215 138.17c0-1.198.974-2.17 2.177-2.17h11.646c1.203 0 2.177.972 2.177 2.17v11.66c0 1.198-.974 2.17-2.177 2.17h-11.646a2.173 2.173 0 0 1-2.177-2.17v-11.66z" fill="white"/><path fill-rule="evenodd" clip-rule="evenodd" d="M228.823 136.543h-11.646a1.63 1.63 0 0 0-1.633 1.627v11.66a1.63 1.63 0 0 0 1.633 1.627h11.646a1.63 1.63 0 0 0 1.633-1.627v-11.66a1.63 1.63 0 0 0-1.633-1.627zM217.177 136a2.173 2.173 0 0 0-2.177 2.17v11.66c0 1.198.974 2.17 2.177 2.17h11.646a2.173 2.173 0 0 0 2.177-2.17v-11.66c0-1.198-.974-2.17-2.177-2.17h-11.646z" fill="#333"/><path d="M287 138.17c0-1.198.974-2.17 2.177-2.17h11.646c1.203 0 2.177.972 2.177 2.17v11.66c0 1.198-.974 2.17-2.177 2.17h-11.646a2.173 2.173 0 0 1-2.177-2.17v-11.66z" fill="white"/><path fill-rule="evenodd" clip-rule="evenodd" d="M300.823 136.543h-11.646a1.63 1.63 0 0 0-1.633 1.627v11.66a1.63 1.63 0 0 0 1.633 1.627h11.646a1.63 1.63 0 0 0 1.633-1.627v-11.66a1.63 1.63 0 0 0-1.633-1.627zM289.177 136a2.173 2.173 0 0 0-2.177 2.17v11.66c0 1.198.974 2.17 2.177 2.17h11.646a2.173 2.173 0 0 0 2.177-2.17v-11.66c0-1.198-.974-2.17-2.177-2.17h-11.646z" fill="#333"/><path d="M294.649 146.689a.38.38 0 0 1-.537 0l-2.13-2.125a.548.548 0 0 1-.131-.627.558.558 0 0 1 .131-.184l.263-.265a.536.536 0 0 1 .402-.178.55.55 0 0 1 .403.178l1.331 1.341 3.598-3.626a.544.544 0 0 1 .799 0l.269.265a.585.585 0 0 1 0 .812l-4.398 4.409z" fill="#9ADAF3"/><path d="M222.973 146.816a.38.38 0 0 1-.536 0l-2.131-2.124a.559.559 0 0 1 0-.812l.263-.264a.553.553 0 0 1 .622-.132c.07.031.132.076.183.132l1.331 1.341 3.598-3.626a.544.544 0 0 1 .8 0l.268.265a.582.582 0 0 1 0 .811l-4.398 4.409z" fill="#FF6F3D"/><path d="M294.38 146.937a.52.52 0 0 1-.366-.149l-2.131-2.152a.692.692 0 0 1-.153-.77.692.692 0 0 1 .153-.229l.268-.27a.698.698 0 0 1 .992 0l1.237 1.242 3.5-3.527a.707.707 0 0 1 .498-.209.71.71 0 0 1 .499.209l.268.271a.71.71 0 0 1 .203.502.723.723 0 0 1-.203.502l-4.381 4.415a.506.506 0 0 1-.384.165zm-1.736-3.476a.423.423 0 0 0-.301.127l-.268.27a.442.442 0 0 0-.127.306.428.428 0 0 0 .127.307l2.136 2.152a.253.253 0 0 0 .339 0l4.382-4.415a.421.421 0 0 0 .093-.471.448.448 0 0 0-.093-.142l-.269-.27a.432.432 0 0 0-.301-.127.432.432 0 0 0-.301.127l-3.697 3.725-1.429-1.44a.429.429 0 0 0-.291-.149zM222.705 147.065a.499.499 0 0 1-.198-.038.501.501 0 0 1-.169-.111l-2.13-2.152a.71.71 0 0 1-.208-.5.7.7 0 0 1 .208-.499l.268-.271a.7.7 0 0 1 .991 0l1.238 1.242 3.5-3.526a.708.708 0 0 1 .498-.21.708.708 0 0 1 .498.21l.269.27a.7.7 0 0 1 .202.502.72.72 0 0 1-.202.502l-4.382 4.415a.523.523 0 0 1-.383.166zm-1.736-3.477a.426.426 0 0 0-.301.127l-.269.27a.447.447 0 0 0-.127.307.431.431 0 0 0 .127.306l2.136 2.152a.25.25 0 0 0 .34 0l4.381-4.415a.423.423 0 0 0 .094-.47.45.45 0 0 0-.094-.142l-.268-.27a.43.43 0 0 0-.302-.127.427.427 0 0 0-.301.127l-3.697 3.724-1.429-1.44a.433.433 0 0 0-.29-.149z" fill="#333"/><path d="M361.25 138c0-.966.784-1.75 1.75-1.75h12c.966 0 1.75.784 1.75 1.75v12a1.75 1.75 0 0 1-1.75 1.75h-12a1.75 1.75 0 0 1-1.75-1.75v-12z" fill="white" stroke="#333" stroke-width=".5"/><path d="M368.159 146.689a.381.381 0 0 1-.537 0l-2.131-2.125a.56.56 0 0 1-.13-.627.58.58 0 0 1 .13-.184l.263-.265a.536.536 0 0 1 .623-.131.55.55 0 0 1 .182.131l1.331 1.341 3.599-3.625a.546.546 0 0 1 .799 0l.268.265a.577.577 0 0 1 0 .811l-4.397 4.409z" fill="#8BB825"/><path d="M367.89 146.937a.516.516 0 0 1-.367-.149l-2.13-2.152a.7.7 0 0 1-.154-.77.7.7 0 0 1 .154-.229l.268-.27a.698.698 0 0 1 .992 0l1.237 1.241 3.5-3.526a.712.712 0 0 1 .498-.21.716.716 0 0 1 .499.21l.268.271a.704.704 0 0 1 .203.502.723.723 0 0 1-.203.502l-4.381 4.415a.51.51 0 0 1-.384.165zm-1.736-3.476a.426.426 0 0 0-.301.126l-.268.271a.431.431 0 0 0 0 .612l2.135 2.153a.253.253 0 0 0 .34 0l4.381-4.415a.422.422 0 0 0 .126-.304.434.434 0 0 0-.126-.309l-.268-.27a.432.432 0 0 0-.301-.127.432.432 0 0 0-.301.127l-3.697 3.725-1.43-1.44a.427.427 0 0 0-.29-.149z" fill="#333"/><path fill-rule="evenodd" clip-rule="evenodd" d="M211.75 66.5h.5v11.25h11.25v.5h-11.75V66.5zM283.75 66.5h.5v11.75h11.25v.5h-11.75V66.5zM359.75 66.5h.5v11.25h11.25v.5h-11.75V66.5z" fill="#333"/><path fill-rule="evenodd" clip-rule="evenodd" d="M362 103.5h-20a.5.5 0 0 0-.5.5v20a.5.5 0 0 0 .5.5h20a.5.5 0 0 0 .5-.5v-20a.5.5 0 0 0-.5-.5zm-20-.5a1 1 0 0 0-1 1v20a1 1 0 0 0 1 1h20a1 1 0 0 0 1-1v-20a1 1 0 0 0-1-1h-20z" fill="#8BB825"/><path stroke="#E2E2E2" d="M170.5 96.5h9v3h-9zM170.5 99.5h9v3h-9z"/><path fill="#EBECEC" stroke="#E2E2E2" d="M170.5 102.5h9v3h-9z"/><path stroke="#E2E2E2" d="M170.5 105.5h9v3h-9z"/><path fill="#FFC5B1" stroke="#E2E2E2" d="M170.5 108.5h9v3h-9z"/><path stroke="#E2E2E2" d="M170.5 111.5h9v3h-9zM170.5 114.5h9v3h-9zM179.5 96.5h9v3h-9zM179.5 99.5h9v3h-9zM179.5 102.5h9v3h-9zM179.5 105.5h9v3h-9zM179.5 108.5h9v3h-9z"/><path fill="#FFC5B1" stroke="#E2E2E2" d="M179.5 111.5h9v3h-9z"/><path stroke="#E2E2E2" d="M179.5 114.5h9v3h-9zM188.5 96.5h9v3h-9z"/><path fill="#FFC5B1" stroke="#E2E2E2" d="M188.5 99.5h9v3h-9z"/><path stroke="#E2E2E2" d="M188.5 102.5h9v3h-9z"/><path fill="#EBECEC" stroke="#E2E2E2" d="M188.5 105.5h9v3h-9z"/><path stroke="#E2E2E2" d="M188.5 108.5h9v3h-9zM188.5 111.5h9v3h-9zM188.5 114.5h9v3h-9zM197.5 96.5h9v3h-9zM197.5 99.5h9v3h-9zM197.5 102.5h9v3h-9zM197.5 105.5h9v3h-9zM197.5 108.5h9v3h-9zM197.5 111.5h9v3h-9z"/><path fill="#FFC5B1" stroke="#E2E2E2" d="M197.5 114.5h9v3h-9z"/><path fill="#EBECEC" stroke="#E2E2E2" d="M206.5 96.5h8v3h-8z"/><path stroke="#E2E2E2" d="M206.5 99.5h8v3h-8zM206.5 102.5h8v3h-8z"/><path fill="#FFC5B1" stroke="#E2E2E2" d="M206.5 105.5h8v3h-8z"/><path stroke="#E2E2E2" d="M206.5 108.5h8v3h-8zM206.5 111.5h8v3h-8zM206.5 114.5h8v3h-8z"/><path fill-rule="evenodd" clip-rule="evenodd" d="M214 97h-43v20h43V97zm-44-1v22h45V96h-45z" fill="#E2E2E2"/></svg>