<svg width="377" height="193" viewBox="0 0 377 193" fill="none" xmlns="http://www.w3.org/2000/svg">
    <path fill-rule="evenodd" clip-rule="evenodd" d="M321.5 98H219v-.001c-16.594-.147-30-13.644-30-30.273 0-16.72 13.554-30.274 30.274-30.274.461 0 .919.01 1.374.03C226.155 17.044 244.821 2 267 2c25.111 0 45.718 19.282 47.823 43.848A26.546 26.546 0 0 1 321.5 45c14.636 0 26.5 11.864 26.5 26.5 0 14.469-11.595 26.229-26 26.495V98h-.5Z" fill="#3C3C3C"/>
    <path d="M85 71a2 2 0 0 1 2-2h28a2 2 0 0 1 2 2v14a2 2 0 0 1-2 2h-6v4l-8-4H87a2 2 0 0 1-2-2V71Z" fill="#444"/>
    <circle cx="93" cy="78" r="2" fill="#333"/>
    <circle cx="101" cy="78" r="2" fill="#333"/>
    <circle cx="109" cy="78" r="2" fill="#333"/>
    <path d="M293 48a2 2 0 0 0-2-2h-28a2 2 0 0 0-2 2v14a2 2 0 0 0 2 2h6v4l8-4h14a2 2 0 0 0 2-2V48Z" fill="#666"/>
    <circle cx="2" cy="2" r="2" transform="matrix(-1 0 0 1 287 53)" fill="#333"/>
    <circle cx="2" cy="2" r="2" transform="matrix(-1 0 0 1 279 53)" fill="#333"/>
    <circle cx="2" cy="2" r="2" transform="matrix(-1 0 0 1 271 53)" fill="#333"/>
    <path d="M141 51a1 1 0 0 1 1-1h79.586L237 65.414V177a1 1 0 0 1-1 1h-94a1 1 0 0 1-1-1V51Z" fill="#444" stroke="#AAA" stroke-width="2"/>
    <rect x="184" y="142" width="44" height="2" rx="1" fill="gray"/>
    <rect x="184" y="136" width="44" height="2" rx="1" fill="gray"/>
    <rect x="184" y="148" width="44" height="2" rx="1" fill="gray"/>
    <rect x="184" y="154" width="44" height="2" rx="1" fill="gray"/>
    <rect x="151" y="160" width="77" height="2" rx="1" fill="#9ADAF3"/>
    <rect x="151" y="166" width="77" height="2" rx="1" fill="#FF6F3D"/>
    <rect x="151" y="130" width="30" height="2" rx="1" fill="#FF6F3D"/>
    <path d="M160.4 147.333 152 156h28l-9.8-13-5.6 7.222-4.2-2.889Z" fill="#FF6F3D"/>
    <circle cx="160" cy="139" r="3" fill="#FF6F3D"/>
    <path d="M182.472 97.294c1.644 4.05 4.403 6.706 7.528 6.706s5.884-2.656 7.528-6.706c.256-.63-.226-1.294-.905-1.294h-13.246c-.679 0-1.161.664-.905 1.294Z" fill="#AAA"/>
    <path d="M196 80c0 2.761 2.686 5 6 5s6-2.239 6-5m-37 0c0 2.761 2.686 5 6 5s6-2.239 6-5" stroke="#AAA" stroke-width="2" stroke-linecap="round"/>
    <path d="m222 49 16 16h-16V49Z" fill="#AAA"/>
    <path d="M141 103.782c-9 14.5-9.39 24.151-2.61 25.737 6.78 1.586 15.794-5.174 19.453-8.753m.411-.445c1.318.308 3.246-.039 4.982-1.539m73.911-15c9 14.5 9.39 24.151 2.61 25.737-6.781 1.586-15.794-5.174-19.453-8.753m-.411-.445c-1.318.308-3.247-.039-4.982-1.539" stroke="#AAA" stroke-width="2" stroke-linecap="round"/>
    <path d="M97.828 136.9a2 2 0 0 1 0-2.829l4.243-4.243a2 2 0 0 1 2.828 0l28.818 28.818 2.092 6.656c.485 1.542-.965 2.992-2.508 2.507l-6.655-2.091L97.828 136.9Z" fill="#333" stroke="#FF6F3D" stroke-width="2"/>
    <path d="m101.364 141.849 8.486-8.485 24.748 24.749-8.485 8.485-24.749-24.749Z" fill="#FF6F3D"/>
    <path fill="#333" d="m107.021 139.021 2.121-2.121 21.92 21.92-2.12 2.121z"/>
    <path d="m129.648 167.305 5.657-5.657.707 4.95-1.414 1.414-4.95-.707Z" fill="#FF6F3D"/>
    <path d="M273.83 122.828a2 2 0 0 1 2.828 0l4.243 4.243a2 2 0 0 1 0 2.828l-28.818 28.818-6.655 2.092c-1.542.485-2.992-.965-2.508-2.508l2.092-6.655 28.818-28.818Z" fill="#333" stroke="#9ADAF3" stroke-width="2"/>
    <path d="m268.88 126.364 8.485 8.485-24.749 24.749-8.485-8.485 24.749-24.749Z" fill="#9ADAF3"/>
    <path fill="#333" d="m271.709 132.021 2.121 2.121-21.92 21.92-2.121-2.12z"/>
    <path d="m243.425 154.648 5.657 5.657-4.95.707-1.414-1.414.707-4.95Z" fill="#9ADAF3"/>
</svg>
