<svg width="377" height="193" viewBox="0 0 377 193" fill="none" xmlns="http://www.w3.org/2000/svg">
<symbol id="connect2-light" viewBox="0 0 377 193">
<path fill-rule="evenodd" clip-rule="evenodd" d="M52.5117 92.5079C52.6138 93.661 52.5641 94.8226 52.3639 95.9625L54.8831 97.9215L52.6925 102.734L49.5543 102.082C48.8197 102.972 47.9706 103.759 47.0295 104.422L47.4348 107.601L42.5058 109.422L40.7806 106.729C39.6366 106.836 38.4834 106.788 37.3522 106.585L35.408 109.124L30.6323 106.889L31.284 103.738C30.4011 102.996 29.6202 102.138 28.9619 101.188L25.8073 101.602L24 96.6357L26.6726 94.8974C26.5659 93.7447 26.6138 92.5827 26.815 91.4429L24.2957 89.4783L26.4864 84.6663L29.5972 85.345C30.3316 84.4537 31.1807 83.6649 32.122 82.9997L31.7167 79.8211L36.6457 78L38.3709 80.693C39.5151 80.5872 40.6683 80.6373 41.7993 80.842L43.749 78.3035L48.5192 80.5109L47.8511 83.6453C48.7366 84.3827 49.5179 85.2386 50.1732 86.1893L53.3278 85.781L55.1405 90.7476L52.4679 92.4859L52.5117 92.5079ZM44.9758 91.9561C44.5916 90.8997 43.9052 89.9817 43.0034 89.3183C42.1015 88.6549 41.0247 88.2758 39.9091 88.2289C38.7935 88.1821 37.6891 88.4696 36.7356 89.0551C35.7821 89.6406 35.0223 90.4978 34.5522 91.5184C34.0821 92.539 33.9229 93.677 34.0947 94.7888C34.2665 95.9005 34.7615 96.9359 35.5173 97.7642C36.273 98.5925 37.2555 99.1764 38.3405 99.4421C39.4255 99.7078 40.5644 99.6434 41.6131 99.257C43.0188 98.7385 44.1627 97.6788 44.7933 96.3108C45.4239 94.9427 45.4895 93.3784 44.9758 91.9616V91.9561Z" fill="#F5F5F5"/>
<path fill-rule="evenodd" clip-rule="evenodd" d="M32.9103 60.6436C33.0354 61.9657 32.9798 63.2987 32.7448 64.6058L35.6524 66.8463L33.0924 72.3647L29.5007 71.5921C28.651 72.6096 27.6717 73.5113 26.5876 74.2741L27.0565 77.9163L21.3462 80.0022L19.3545 76.9174C18.0283 77.048 16.6906 77.0016 15.3766 76.7795L13.1697 79.6601L7.65241 77.0995L8.42483 73.507C7.40332 72.6596 6.50132 71.6775 5.74345 70.5878L2.10207 71.0569L0 65.3508L3.08414 63.3586C2.95838 62.0369 3.01034 60.7043 3.23862 59.3964L0.331034 57.1559L2.89103 51.6375L6.48276 52.4101C7.33698 51.3942 8.32212 50.496 9.41241 49.7392L8.94345 46.1025L14.6538 44L16.6455 47.0848C17.9658 46.9644 19.2964 47.0219 20.6014 47.2559L22.8469 44.3477L28.3641 46.9027L27.5917 50.4952C28.6132 51.3427 29.5152 52.3247 30.2731 53.4144L33.9145 52.9454L36 58.6514L32.9159 60.6436H32.9103ZM24.2041 60.02C23.7591 58.8102 22.9653 57.7596 21.9232 57.001C20.881 56.2425 19.6374 55.8101 18.3496 55.7586C17.0618 55.707 15.7877 56.0387 14.6883 56.7115C13.5889 57.3843 12.7137 58.3682 12.1735 59.5385C11.6332 60.7089 11.452 62.0133 11.6529 63.2866C11.8539 64.56 12.4278 65.7451 13.3022 66.6922C14.1766 67.6393 15.3122 68.3057 16.5653 68.6072C17.8184 68.9087 19.1327 68.8317 20.3421 68.3859C21.9631 67.7885 23.2806 66.5716 24.0048 65.0027C24.729 63.4339 24.8007 61.6417 24.2041 60.02Z" fill="#E2E2E2"/>
<path d="M48.25 48.8452L48.25 48.8447C48.2486 48.2426 48.3658 47.6462 48.5947 47.0895C48.8236 46.5328 49.1599 46.0266 49.5842 45.6C50.0086 45.1733 50.5127 44.8345 51.0679 44.6029C51.6229 44.3713 52.2181 44.2514 52.8195 44.25H180.181C180.782 44.2514 181.377 44.3713 181.932 44.6029C182.487 44.8345 182.991 45.1733 183.416 45.6L183.593 45.4237L183.416 45.6C183.84 46.0266 184.176 46.5328 184.405 47.0895C184.634 47.6462 184.751 48.2426 184.75 48.8447V48.8452V133.75H48.2665L48.25 48.8452ZM185 48.8452V133.75V48.8452Z" fill="#F5F5F5" stroke="#333333" stroke-width="0.5"/>
<path d="M179.797 130C180.115 130 180.42 129.873 180.646 129.647C180.871 129.421 180.999 129.114 181 128.793V49.2068C180.999 48.8862 180.871 48.5793 180.646 48.3531C180.42 48.127 180.115 48 179.797 48H53.2033C52.8852 48 52.5799 48.127 52.3544 48.3531C52.1289 48.5793 52.0015 48.8862 52 49.2068V128.782C52.0015 129.103 52.1289 129.41 52.3544 129.636C52.5799 129.862 52.8852 129.989 53.2033 129.989L179.797 130Z" fill="white"/>
<path d="M180.401 129.787V49.2183C180.401 49.1382 180.385 49.0589 180.355 48.985C180.325 48.911 180.28 48.8439 180.224 48.7876C180.168 48.7312 180.101 48.6866 180.028 48.6565C179.954 48.6263 179.876 48.6112 179.797 48.6119H53.2033C53.1242 48.6112 53.0458 48.6263 52.9725 48.6565C52.8992 48.6866 52.8325 48.7312 52.7763 48.7876C52.7201 48.8439 52.6755 48.911 52.645 48.985C52.6146 49.0589 52.5989 49.1382 52.5989 49.2183V129.787C52.5989 129.867 52.6146 129.947 52.645 130.021C52.6755 130.095 52.7201 130.162 52.7763 130.218C52.8325 130.274 52.8992 130.319 52.9725 130.349C53.0458 130.379 53.1242 130.394 53.2033 130.394H179.797C179.876 130.394 179.954 130.379 180.028 130.349C180.101 130.319 180.168 130.274 180.224 130.218C180.28 130.162 180.325 130.095 180.355 130.021C180.385 129.947 180.401 129.867 180.401 129.787ZM181 129.787C180.999 130.109 180.871 130.418 180.646 130.645C180.42 130.872 180.115 131 179.797 131H53.2033C52.8852 131 52.5799 130.872 52.3544 130.645C52.1289 130.418 52.0015 130.109 52 129.787V49.2183C52 48.8952 52.1268 48.5853 52.3525 48.3568C52.5781 48.1284 52.8842 48 53.2033 48H179.797C180.116 48 180.422 48.1284 180.648 48.3568C180.873 48.5853 181 48.8952 181 49.2183V129.787Z" fill="#333333"/>
<path d="M69.041 95.2366C68.6484 94.8331 68.0002 94.8331 67.6076 95.2366L59.0811 104H77.5676L72.9459 99.25L69.041 95.2366Z" fill="#E3EEC4"/>
<path d="M72.9459 99.25L77.5676 104H92.973L81.4487 90.1816C81.0384 89.6896 80.2779 89.7049 79.8877 90.2129L72.9459 99.25Z" fill="#D9F4FF"/>

<path fill-rule="evenodd" clip-rule="evenodd" d="M93 104C93.5523 104 94 103.552 94 103V86C94 85.4477 93.5523 85 93 85H57C56.4477 85 56 85.4477 56 86V103C56 103.552 56.4477 104 57 104H93ZM92.8815 103.5H93C93.2761 103.5 93.5 103.276 93.5 103V86C93.5 85.7239 93.2761 85.5 93 85.5H57C56.7239 85.5 56.5 85.7239 56.5 86V103C56.5 103.276 56.7239 103.5 57 103.5H59.2188L67.4284 95.0623C67.9192 94.5579 68.7295 94.5579 69.2202 95.0623L72.9237 98.8686L79.6894 90.0606C80.1772 89.4256 81.1279 89.4065 81.6407 90.0214L92.8815 103.5ZM73.276 99.2307L77.4299 103.5H92.2305L81.2567 90.3417C80.949 89.9727 80.3786 89.9842 80.086 90.3652L73.276 99.2307ZM76.7323 103.5L68.8619 95.411C68.5674 95.1083 68.0812 95.1083 67.7868 95.411L59.9164 103.5H76.7323ZM60.9841 88.3699C60.5042 87.8767 59.712 87.8767 59.2321 88.3699C58.7705 88.8444 58.7705 89.6001 59.2321 90.0745C59.712 90.5677 60.5042 90.5677 60.9841 90.0745C61.4457 89.6001 61.4457 88.8444 60.9841 88.3699ZM58.8738 88.0212C59.5499 87.3263 60.6663 87.3263 61.3424 88.0212C61.9929 88.6898 61.9929 89.7547 61.3424 90.4232C60.6663 91.1182 59.5499 91.1182 58.8738 90.4232C58.2233 89.7547 58.2233 88.6898 58.8738 88.0212Z" fill="#EBEBEB"/>
<path d="M105 114.987C105.012 114.715 105.12 114.459 105.301 114.275C105.481 114.09 105.72 113.993 105.965 114.002C106.219 113.984 106.47 114.076 106.663 114.26C106.856 114.444 106.977 114.705 107 114.987V122.963C106.979 123.25 106.86 123.517 106.667 123.709C106.475 123.902 106.224 124.006 105.965 123.999C105.84 124.004 105.715 123.981 105.598 123.931C105.481 123.881 105.375 123.806 105.285 123.709C105.194 123.612 105.123 123.496 105.074 123.368C105.025 123.24 105 123.102 105 122.963V114.987Z" fill="#FFC5B1"/>
<path d="M109 119.123C109.022 118.812 109.142 118.523 109.335 118.314C109.527 118.106 109.778 117.993 110.037 118C110.288 117.997 110.529 118.113 110.709 118.323C110.889 118.533 110.994 118.82 111 119.123V122.877C111 123.028 110.975 123.177 110.926 123.316C110.877 123.455 110.806 123.58 110.716 123.685C110.626 123.79 110.52 123.871 110.403 123.925C110.287 123.979 110.162 124.005 110.037 123.999C109.778 124.008 109.526 123.896 109.334 123.687C109.141 123.478 109.021 123.189 109 122.877V119.123Z" fill="#D9F4FF"/>
<path d="M119.002 114.17C118.993 114.02 119.012 113.87 119.058 113.729C119.104 113.587 119.176 113.457 119.269 113.348C119.363 113.238 119.476 113.15 119.602 113.091C119.727 113.031 119.863 113 120 113C120.137 113 120.273 113.031 120.398 113.091C120.524 113.15 120.637 113.238 120.731 113.348C120.824 113.457 120.896 113.587 120.942 113.729C120.988 113.87 121.007 114.02 120.998 114.17V122.979C120.98 123.256 120.868 123.516 120.683 123.705C120.497 123.895 120.253 124 120 124C119.747 124 119.503 123.895 119.317 123.705C119.132 123.516 119.02 123.256 119.002 122.979V114.17Z" fill="#D9F4FF"/>
<path d="M115 118.038C115.042 117.747 115.166 117.483 115.349 117.294C115.531 117.104 115.762 117 116 117C116.238 117 116.469 117.104 116.651 117.294C116.834 117.483 116.958 117.747 117 118.038V122.962C116.958 123.254 116.834 123.517 116.651 123.706C116.469 123.896 116.238 124 116 124C115.762 124 115.531 123.896 115.349 123.706C115.166 123.517 115.042 123.254 115 122.962V118.038Z" fill="#FFC5B1"/>
<path d="M125 110.09C125 109.801 125.105 109.524 125.293 109.319C125.48 109.115 125.735 109 126 109C126.265 109 126.52 109.115 126.707 109.319C126.895 109.524 127 109.801 127 110.09V122.91C127 123.199 126.895 123.476 126.707 123.681C126.52 123.885 126.265 124 126 124C125.735 124 125.48 123.885 125.293 123.681C125.105 123.476 125 123.199 125 122.91V110.09Z" fill="#FFC5B1"/>
<path d="M129 114.727C129 114.534 129.105 114.349 129.293 114.213C129.48 114.077 129.735 114 130 114C130.265 114 130.52 114.077 130.707 114.213C130.895 114.349 131 114.534 131 114.727V123.273C131 123.466 130.895 123.651 130.707 123.787C130.52 123.923 130.265 124 130 124C129.735 124 129.48 123.923 129.293 123.787C129.105 123.651 129 123.466 129 123.273V114.727Z" fill="#D9F4FF"/>
<path fill-rule="evenodd" clip-rule="evenodd" d="M135 107.5H102C101.172 107.5 100.5 108.172 100.5 109V124C100.5 124.828 101.172 125.5 102 125.5H135C135.828 125.5 136.5 124.828 136.5 124V109C136.5 108.172 135.828 107.5 135 107.5ZM102 107C100.895 107 100 107.895 100 109V124C100 125.105 100.895 126 102 126H135C136.105 126 137 125.105 137 124V109C137 107.895 136.105 107 135 107H102Z" fill="#EBEBEB"/>
<path d="M67.3744 139.799H100.623V139.931H108.247V139.799H125.597V139.959H135.882V139.799H191.252C192.957 139.746 194.647 139.468 196.28 138.971C197.068 138.722 197.837 138.414 198.58 138.049H154.372V137.63H146.261V138.016L135.882 137.823V137.696H125.597V138.016L108.86 137.762H100.645V138.049L69.2474 137.63L68.6997 137.762L58.5185 137.856L32.6301 137.79C33.2975 138.48 34.0917 139.033 34.9687 139.418C36.8143 139.97 39.1529 139.97 40.6425 139.97H58.5185L66.3995 140.163L67.3744 139.799Z" fill="#AAAAAA"/>
<path d="M198.29 138.049L199.1 137.498H32.3455L32.8931 138.049H198.29Z" fill="#333333"/>
<path d="M32.6356 134.592V137.754C33.7309 138.858 36.2995 140.127 41.3983 139.962L189.981 140.039C191.848 139.91 193.699 139.602 195.507 139.117C196.318 138.924 198.941 137.914 198.974 137.622V134.592C143.555 134.686 88.1036 134.592 32.6356 134.592ZM41.3983 140.662C38.5449 140.662 35.5601 140.662 32.5096 138.648C32.3575 138.554 32.229 138.426 32.134 138.274C32.0391 138.122 31.9802 137.95 31.9619 137.771V135.039C31.9872 134.761 32.1126 134.502 32.3144 134.311C32.5162 134.12 32.7804 134.01 33.0573 134.002H198.733C198.857 133.994 198.98 134.013 199.096 134.058C199.211 134.104 199.315 134.173 199.401 134.263C199.487 134.353 199.553 134.46 199.593 134.578C199.634 134.696 199.649 134.821 199.637 134.945V137.738L199.604 137.771C199.48 138.072 199.247 138.315 198.952 138.45C197.84 139.101 196.639 139.582 195.387 139.879C193.66 140.34 191.887 140.603 190.102 140.662H41.3983Z" fill="#333333"/>
<path opacity="0.6" d="M79.6868 73H56.3176C56.2334 73 56.1526 73.0337 56.093 73.0937C56.0335 73.1538 56 73.2352 56 73.3201C56 73.405 56.0335 73.4864 56.093 73.5464C56.1526 73.6064 56.2334 73.6401 56.3176 73.6401H79.6868C79.771 73.6401 79.8518 73.6064 79.9114 73.5464C79.9709 73.4864 80.0044 73.405 80.0044 73.3201C80.0044 73.2352 79.9709 73.1538 79.9114 73.0937C79.8518 73.0337 79.771 73 79.6868 73Z" fill="#B2B2B2"/>
<path d="M174.539 55H71.4609C71.0735 55 70.7019 54.842 70.4279 54.5607C70.1539 54.2794 70 53.8978 70 53.5C70 53.1022 70.1539 52.7206 70.4279 52.4393C70.7019 52.158 71.0735 52 71.4609 52H174.539C174.927 52 175.298 52.158 175.572 52.4393C175.846 52.7206 176 53.1022 176 53.5C176 53.8978 175.846 54.2794 175.572 54.5607C175.298 54.842 174.927 55 174.539 55ZM71.4609 52.5576C71.2175 52.5576 70.984 52.6569 70.8119 52.8336C70.6398 53.0104 70.5431 53.2501 70.5431 53.5C70.5431 53.7499 70.6398 53.9896 70.8119 54.1664C70.984 54.3431 71.2175 54.4424 71.4609 54.4424H174.539C174.783 54.4424 175.016 54.3431 175.188 54.1664C175.36 53.9896 175.457 53.7499 175.457 53.5C175.457 53.2501 175.36 53.0104 175.188 52.8336C175.016 52.6569 174.783 52.5576 174.539 52.5576H71.4609Z" fill="#CCCCCC"/>
<path d="M90.9133 134.551H47.4885L47.4557 134.584V134.551H32.5864V137.442H199.018V134.418C168.381 134.485 137.756 134.518 107.141 134.518H106.845C101.555 134.551 96.2312 134.551 90.9133 134.551Z" fill="#F2F2F2"/>
<path d="M57.3363 54.6268C58.0743 54.6268 58.6726 54.0387 58.6726 53.3134C58.6726 52.588 58.0743 52 57.3363 52C56.5983 52 56 52.588 56 53.3134C56 54.0387 56.5983 54.6268 57.3363 54.6268Z" fill="#CCCCCC"/>
<path d="M61.3363 54.6268C62.0743 54.6268 62.6726 54.0387 62.6726 53.3134C62.6726 52.588 62.0743 52 61.3363 52C60.5983 52 60 52.588 60 53.3134C60 54.0387 60.5983 54.6268 61.3363 54.6268Z" fill="#CCCCCC"/>
<path d="M65.3363 54.6268C66.0743 54.6268 66.6726 54.0387 66.6726 53.3134C66.6726 52.588 66.0743 52 65.3363 52C64.5983 52 64 52.588 64 53.3134C64 54.0387 64.5983 54.6268 65.3363 54.6268Z" fill="#CCCCCC"/>
<path d="M104.783 65H57.2172C56.545 65 56 65.5411 56 66.2085V66.2141C56 66.8815 56.545 67.4226 57.2172 67.4226H104.783C105.455 67.4226 106 66.8815 106 66.2141V66.2085C106 65.5411 105.455 65 104.783 65Z" fill="#B2B2B2"/>
<path opacity="0.4" d="M57.0134 79.0009H122.987C123.243 78.9895 123.494 79.0881 123.684 79.2752C123.873 79.4623 123.987 79.7228 124 80C123.987 80.2772 123.873 80.5377 123.684 80.7248C123.494 80.9119 123.243 81.0105 122.987 80.9991H57.0134C56.7567 81.0105 56.5062 80.9119 56.3164 80.7248C56.1266 80.5377 56.0129 80.2772 56 80C56.0129 79.7228 56.1266 79.4623 56.3164 79.2752C56.5062 79.0881 56.7567 78.9895 57.0134 79.0009Z" fill="#CCCCCC"/>
<path opacity="0.4" d="M100.403 85.0004H120.597C120.647 84.9981 120.698 85.006 120.746 85.0233C120.794 85.0407 120.838 85.0674 120.875 85.1017C120.913 85.136 120.943 85.1774 120.964 85.2235C120.986 85.2695 120.998 85.3194 121 85.3701C120.998 85.4209 120.986 85.4707 120.964 85.5167C120.943 85.5628 120.913 85.6042 120.875 85.6385C120.838 85.6729 120.794 85.6995 120.746 85.7169C120.698 85.7343 120.647 85.7421 120.597 85.7398H100.403C100.353 85.7421 100.302 85.7343 100.254 85.7169C100.206 85.6995 100.162 85.6729 100.125 85.6385C100.087 85.6042 100.057 85.5628 100.036 85.5167C100.014 85.4707 100.002 85.4209 100 85.3701C100.002 85.3194 100.014 85.2695 100.036 85.2235C100.057 85.1774 100.087 85.136 100.125 85.1017C100.162 85.0674 100.206 85.0407 100.254 85.0233C100.302 85.006 100.353 84.9981 100.403 85.0004Z" fill="#CCCCCC"/>
<path opacity="0.4" d="M143.326 85.0004H159.674C159.715 84.9981 159.756 85.006 159.794 85.0233C159.833 85.0407 159.869 85.0674 159.899 85.1017C159.929 85.136 159.954 85.1774 159.971 85.2235C159.988 85.2695 159.998 85.3194 160 85.3701C159.998 85.4209 159.988 85.4707 159.971 85.5167C159.954 85.5628 159.929 85.6042 159.899 85.6385C159.869 85.6729 159.833 85.6995 159.794 85.7169C159.756 85.7343 159.715 85.7421 159.674 85.7398H143.326C143.285 85.7421 143.244 85.7343 143.206 85.7169C143.167 85.6995 143.131 85.6729 143.101 85.6385C143.071 85.6042 143.046 85.5628 143.029 85.5167C143.012 85.4707 143.002 85.4209 143 85.3701C143.002 85.3194 143.012 85.2695 143.029 85.2235C143.046 85.1774 143.071 85.136 143.101 85.1017C143.131 85.0674 143.167 85.0407 143.206 85.0233C143.244 85.006 143.285 84.9981 143.326 85.0004Z" fill="#CCCCCC"/>
<path opacity="0.4" d="M143.326 108H159.674C159.715 107.998 159.756 108.006 159.794 108.023C159.833 108.041 159.869 108.067 159.899 108.102C159.929 108.136 159.954 108.177 159.971 108.223C159.988 108.27 159.998 108.319 160 108.37C159.998 108.421 159.988 108.471 159.971 108.517C159.954 108.563 159.929 108.604 159.899 108.639C159.869 108.673 159.833 108.699 159.794 108.717C159.756 108.734 159.715 108.742 159.674 108.74H143.326C143.285 108.742 143.244 108.734 143.206 108.717C143.167 108.699 143.131 108.673 143.101 108.639C143.071 108.604 143.046 108.563 143.029 108.517C143.012 108.471 143.002 108.421 143 108.37C143.002 108.319 143.012 108.27 143.029 108.223C143.046 108.177 143.071 108.136 143.101 108.102C143.131 108.067 143.167 108.041 143.206 108.023C143.244 108.006 143.285 107.998 143.326 108Z" fill="#CCCCCC"/>
<path opacity="0.4" d="M100.462 90.0004H136.538C136.596 89.9981 136.654 90.006 136.709 90.0233C136.764 90.0407 136.814 90.0674 136.857 90.1017C136.9 90.136 136.935 90.1774 136.959 90.2235C136.984 90.2695 136.998 90.3194 137 90.3701C136.998 90.4208 136.984 90.4707 136.959 90.5167C136.935 90.5628 136.9 90.6042 136.857 90.6385C136.814 90.6728 136.764 90.6995 136.709 90.7169C136.654 90.7343 136.596 90.7421 136.538 90.7398H100.462C100.404 90.7421 100.346 90.7343 100.291 90.7169C100.236 90.6995 100.186 90.6728 100.143 90.6385C100.1 90.6042 100.065 90.5628 100.041 90.5167C100.016 90.4707 100.002 90.4208 100 90.3701C100.002 90.3194 100.016 90.2695 100.041 90.2235C100.065 90.1774 100.1 90.136 100.143 90.1017C100.186 90.0674 100.236 90.0407 100.291 90.0233C100.346 90.006 100.404 89.9981 100.462 90.0004Z" fill="#CCCCCC"/>
<path opacity="0.4" d="M143.212 90.0004H159.788C159.814 89.9981 159.841 90.006 159.866 90.0233C159.891 90.0407 159.915 90.0674 159.934 90.1017C159.954 90.136 159.97 90.1774 159.981 90.2235C159.992 90.2695 159.999 90.3194 160 90.3701C159.999 90.4208 159.992 90.4707 159.981 90.5167C159.97 90.5628 159.954 90.6042 159.934 90.6385C159.915 90.6728 159.891 90.6995 159.866 90.7169C159.841 90.7343 159.814 90.7421 159.788 90.7398H143.212C143.186 90.7421 143.159 90.7343 143.134 90.7169C143.109 90.6995 143.085 90.6728 143.066 90.6385C143.046 90.6042 143.03 90.5628 143.019 90.5167C143.008 90.4707 143.001 90.4208 143 90.3701C143.001 90.3194 143.008 90.2695 143.019 90.2235C143.03 90.1774 143.046 90.136 143.066 90.1017C143.085 90.0674 143.109 90.0407 143.134 90.0233C143.159 90.006 143.186 89.9981 143.212 90.0004Z" fill="#CCCCCC"/>
<path opacity="0.4" d="M143.212 113H159.788C159.814 112.998 159.841 113.006 159.866 113.023C159.891 113.041 159.915 113.067 159.934 113.102C159.954 113.136 159.97 113.177 159.981 113.223C159.992 113.27 159.999 113.319 160 113.37C159.999 113.421 159.992 113.471 159.981 113.517C159.97 113.563 159.954 113.604 159.934 113.639C159.915 113.673 159.891 113.699 159.866 113.717C159.841 113.734 159.814 113.742 159.788 113.74H143.212C143.186 113.742 143.159 113.734 143.134 113.717C143.109 113.699 143.085 113.673 143.066 113.639C143.046 113.604 143.03 113.563 143.019 113.517C143.008 113.471 143.001 113.421 143 113.37C143.001 113.319 143.008 113.27 143.019 113.223C143.03 113.177 143.046 113.136 143.066 113.102C143.085 113.067 143.109 113.041 143.134 113.023C143.159 113.006 143.186 112.998 143.212 113Z" fill="#CCCCCC"/>
<path opacity="0.4" d="M100.508 94.0004H132.492C132.62 93.9959 132.745 94.0316 132.84 94.0997C132.935 94.1679 132.993 94.2631 133 94.3646C132.997 94.4153 132.982 94.4652 132.955 94.5112C132.928 94.5573 132.89 94.5987 132.843 94.633C132.796 94.6673 132.74 94.694 132.68 94.7114C132.62 94.7287 132.556 94.7366 132.492 94.7343H100.508C100.444 94.7366 100.38 94.7287 100.32 94.7114C100.26 94.694 100.204 94.6673 100.157 94.633C100.11 94.5987 100.072 94.5573 100.045 94.5112C100.018 94.4652 100.003 94.4153 100 94.3646C100.007 94.2631 100.065 94.1679 100.16 94.0997C100.255 94.0316 100.38 93.9959 100.508 94.0004Z" fill="#CCCCCC"/>
<path opacity="0.4" d="M143.261 94.0004H159.739C159.804 93.9959 159.869 94.0316 159.918 94.0997C159.967 94.1679 159.996 94.2631 160 94.3646C159.999 94.4153 159.991 94.4652 159.977 94.5112C159.963 94.5573 159.943 94.5987 159.919 94.633C159.895 94.6673 159.866 94.694 159.835 94.7114C159.804 94.7287 159.771 94.7366 159.739 94.7343H143.261C143.229 94.7366 143.196 94.7287 143.165 94.7114C143.134 94.694 143.105 94.6673 143.081 94.633C143.057 94.5987 143.037 94.5573 143.023 94.5112C143.009 94.4652 143.001 94.4153 143 94.3646C143.004 94.2631 143.033 94.1679 143.082 94.0997C143.131 94.0316 143.196 93.9959 143.261 94.0004Z" fill="#CCCCCC"/>
<path opacity="0.4" d="M143.261 117H159.739C159.804 116.996 159.869 117.032 159.918 117.1C159.967 117.168 159.996 117.263 160 117.365C159.999 117.415 159.991 117.465 159.977 117.511C159.963 117.557 159.943 117.599 159.919 117.633C159.895 117.667 159.866 117.694 159.835 117.711C159.804 117.729 159.771 117.737 159.739 117.734H143.261C143.229 117.737 143.196 117.729 143.165 117.711C143.134 117.694 143.105 117.667 143.081 117.633C143.057 117.599 143.037 117.557 143.023 117.511C143.009 117.465 143.001 117.415 143 117.365C143.004 117.263 143.033 117.168 143.082 117.1C143.131 117.032 143.196 116.996 143.261 117Z" fill="#CCCCCC"/>
<path opacity="0.4" d="M100.225 99.0004H117.775C117.804 98.9981 117.832 99.006 117.858 99.0233C117.885 99.0407 117.91 99.0674 117.93 99.1017C117.951 99.136 117.968 99.1774 117.98 99.2235C117.992 99.2695 117.999 99.3194 118 99.3701C117.997 99.4716 117.971 99.5668 117.929 99.635C117.887 99.7031 117.832 99.7388 117.775 99.7343H100.225C100.168 99.7388 100.113 99.7031 100.071 99.635C100.029 99.5668 100.003 99.4716 100 99.3701C100.001 99.3194 100.008 99.2695 100.02 99.2235C100.032 99.1774 100.049 99.136 100.07 99.1017C100.09 99.0674 100.115 99.0407 100.142 99.0233C100.168 99.006 100.196 98.9981 100.225 99.0004Z" fill="#CCCCCC"/>
<path opacity="0.4" d="M119.225 99.0004H136.775C136.804 98.9981 136.832 99.006 136.858 99.0233C136.885 99.0407 136.91 99.0674 136.93 99.1017C136.951 99.136 136.968 99.1774 136.98 99.2235C136.992 99.2695 136.999 99.3194 137 99.3701C136.997 99.4716 136.971 99.5668 136.929 99.635C136.887 99.7031 136.832 99.7388 136.775 99.7343H119.225C119.168 99.7388 119.113 99.7031 119.071 99.635C119.029 99.5668 119.003 99.4716 119 99.3701C119.001 99.3194 119.008 99.2695 119.02 99.2235C119.032 99.1774 119.049 99.136 119.07 99.1017C119.09 99.0674 119.115 99.0407 119.142 99.0233C119.168 99.006 119.196 98.9981 119.225 99.0004Z" fill="#CCCCCC"/>
<path opacity="0.4" d="M143.212 99.0004H159.788C159.814 98.9981 159.841 99.006 159.866 99.0233C159.891 99.0407 159.915 99.0674 159.934 99.1017C159.954 99.136 159.97 99.1774 159.981 99.2235C159.992 99.2695 159.999 99.3194 160 99.3701C159.997 99.4716 159.973 99.5668 159.933 99.635C159.894 99.7031 159.841 99.7388 159.788 99.7343H143.212C143.159 99.7388 143.106 99.7031 143.067 99.635C143.027 99.5668 143.003 99.4716 143 99.3701C143.001 99.3194 143.008 99.2695 143.019 99.2235C143.03 99.1774 143.046 99.136 143.066 99.1017C143.085 99.0674 143.109 99.0407 143.134 99.0233C143.159 99.006 143.186 98.9981 143.212 99.0004Z" fill="#CCCCCC"/>
<path opacity="0.4" d="M143.212 121H159.788C159.814 120.998 159.841 121.006 159.866 121.023C159.891 121.041 159.915 121.067 159.934 121.102C159.954 121.136 159.97 121.177 159.981 121.223C159.992 121.27 159.999 121.319 160 121.37C159.997 121.472 159.973 121.567 159.933 121.635C159.894 121.703 159.841 121.739 159.788 121.734H143.212C143.159 121.739 143.106 121.703 143.067 121.635C143.027 121.567 143.003 121.472 143 121.37C143.001 121.319 143.008 121.27 143.019 121.223C143.03 121.177 143.046 121.136 143.066 121.102C143.085 121.067 143.109 121.041 143.134 121.023C143.159 121.006 143.186 120.998 143.212 121Z" fill="#CCCCCC"/>
<path opacity="0.4" d="M100.475 103H137.525C137.585 102.998 137.645 103.006 137.701 103.023C137.757 103.041 137.809 103.067 137.853 103.102C137.897 103.136 137.933 103.177 137.958 103.223C137.983 103.27 137.997 103.319 138 103.37C137.993 103.472 137.94 103.567 137.851 103.635C137.762 103.703 137.645 103.739 137.525 103.734H100.475C100.355 103.739 100.238 103.703 100.149 103.635C100.06 103.567 100.007 103.472 100 103.37C100.003 103.319 100.017 103.27 100.042 103.223C100.067 103.177 100.103 103.136 100.147 103.102C100.191 103.067 100.243 103.041 100.299 103.023C100.355 103.006 100.415 102.998 100.475 103Z" fill="#CCCCCC"/>
<path opacity="0.4" d="M143.212 103H159.788C159.814 102.998 159.841 103.006 159.866 103.023C159.891 103.041 159.915 103.067 159.934 103.102C159.954 103.136 159.97 103.177 159.981 103.223C159.992 103.27 159.999 103.319 160 103.37C159.997 103.472 159.973 103.567 159.933 103.635C159.894 103.703 159.841 103.739 159.788 103.734H143.212C143.159 103.739 143.106 103.703 143.067 103.635C143.027 103.567 143.003 103.472 143 103.37C143.001 103.319 143.008 103.27 143.019 103.223C143.03 103.177 143.046 103.136 143.066 103.102C143.085 103.067 143.109 103.041 143.134 103.023C143.159 103.006 143.186 102.998 143.212 103Z" fill="#CCCCCC"/>
<path opacity="0.4" d="M143.212 125H159.788C159.814 124.998 159.841 125.006 159.866 125.023C159.891 125.041 159.915 125.067 159.934 125.102C159.954 125.136 159.97 125.177 159.981 125.223C159.992 125.27 159.999 125.319 160 125.37C159.997 125.472 159.973 125.567 159.933 125.635C159.894 125.703 159.841 125.739 159.788 125.734H143.212C143.159 125.739 143.106 125.703 143.067 125.635C143.027 125.567 143.003 125.472 143 125.37C143.001 125.319 143.008 125.27 143.019 125.223C143.03 125.177 143.046 125.136 143.066 125.102C143.085 125.067 143.109 125.041 143.134 125.023C143.159 125.006 143.186 124.998 143.212 125Z" fill="#CCCCCC"/>
<path opacity="0.4" d="M56.4029 108H87.6026C87.6526 107.998 87.7026 108.006 87.7497 108.023C87.7968 108.041 87.84 108.067 87.8769 108.102C87.9138 108.136 87.9437 108.177 87.9648 108.223C87.986 108.27 87.9979 108.319 88 108.37C87.9979 108.421 87.986 108.471 87.9648 108.517C87.9437 108.563 87.9138 108.604 87.8769 108.639C87.84 108.673 87.7968 108.699 87.7497 108.717C87.7026 108.734 87.6526 108.742 87.6026 108.74H56.4029C56.3012 108.744 56.2019 108.708 56.1265 108.639C56.0511 108.57 56.0056 108.473 56 108.37C56.0056 108.267 56.0511 108.171 56.1265 108.101C56.2019 108.032 56.3012 107.996 56.4029 108Z" fill="#CCCCCC"/>
<path opacity="0.4" d="M56.4056 113H84.5944C84.6967 112.996 84.7967 113.032 84.8726 113.101C84.9486 113.171 84.9943 113.267 85 113.37C84.9943 113.473 84.9486 113.57 84.8726 113.639C84.7967 113.708 84.6967 113.744 84.5944 113.74H56.4056C56.3033 113.744 56.2033 113.708 56.1274 113.639C56.0514 113.57 56.0057 113.473 56 113.37C56.0057 113.267 56.0514 113.171 56.1274 113.101C56.2033 113.032 56.3033 112.996 56.4056 113Z" fill="#CCCCCC"/>
<path opacity="0.4" d="M56.4784 117H93.5281C93.5875 116.998 93.6469 117.006 93.7028 117.023C93.7587 117.041 93.81 117.067 93.8539 117.102C93.8977 117.136 93.9332 117.177 93.9582 117.223C93.9833 117.27 93.9975 117.319 94 117.37C93.9975 117.421 93.9833 117.47 93.9581 117.516C93.933 117.562 93.8974 117.603 93.8535 117.637C93.8096 117.671 93.7581 117.697 93.7023 117.713C93.6464 117.73 93.5872 117.737 93.5281 117.734H56.4784C56.4189 117.737 56.3594 117.73 56.3031 117.714C56.2469 117.697 56.1951 117.671 56.1506 117.637C56.1062 117.603 56.07 117.562 56.0441 117.516C56.0183 117.471 56.0033 117.421 56 117.37C56.0067 117.267 56.0607 117.171 56.1502 117.101C56.2398 117.032 56.3577 116.996 56.4784 117Z" fill="#CCCCCC"/>
<path opacity="0.4" d="M56.2518 121H72.7483C72.8118 120.996 72.8738 121.032 72.9209 121.101C72.9681 121.171 72.9965 121.267 73 121.37C72.9965 121.473 72.9681 121.57 72.9209 121.639C72.8738 121.708 72.8118 121.744 72.7483 121.74H56.2518C56.1882 121.744 56.1262 121.708 56.0791 121.639C56.0319 121.57 56.0035 121.473 56 121.37C56.0035 121.267 56.0319 121.171 56.0791 121.101C56.1262 121.032 56.1882 120.996 56.2518 121Z" fill="#CCCCCC"/>
<path opacity="0.4" d="M77.2518 121H93.7483C93.8118 120.996 93.8738 121.032 93.9209 121.101C93.9681 121.171 93.9965 121.267 94 121.37C93.9965 121.473 93.9681 121.57 93.9209 121.639C93.8738 121.708 93.8118 121.744 93.7483 121.74H77.2518C77.1882 121.744 77.1262 121.708 77.0791 121.639C77.0319 121.57 77.0035 121.473 77 121.37C77.0035 121.267 77.0319 121.171 77.0791 121.101C77.1262 121.032 77.1882 120.996 77.2518 121Z" fill="#CCCCCC"/>
<path opacity="0.4" d="M56.5627 125H93.4373C93.5792 124.996 93.7179 125.032 93.8233 125.101C93.9286 125.171 93.9921 125.267 94 125.37C93.9921 125.473 93.9286 125.57 93.8233 125.639C93.7179 125.708 93.5792 125.744 93.4373 125.74H56.5627C56.4208 125.744 56.2821 125.708 56.1767 125.639C56.0714 125.57 56.0079 125.473 56 125.37C56.0079 125.267 56.0714 125.171 56.1767 125.101C56.2821 125.032 56.4208 124.996 56.5627 125Z" fill="#CCCCCC"/>
<path d="M167.242 84.4599C168.189 84.4599 168.956 83.6866 168.956 82.7326C168.956 81.7787 168.189 81.0054 167.242 81.0054C166.296 81.0054 165.528 81.7787 165.528 82.7326C165.528 83.6866 166.296 84.4599 167.242 84.4599Z" fill="white"/>
<path d="M164 103.598C164 103.285 164.123 102.984 164.343 102.763C164.563 102.541 164.861 102.417 165.172 102.417C165.483 102.417 165.781 102.541 166.001 102.763C166.221 102.984 166.344 103.285 166.344 103.598V117.499C166.344 117.812 166.221 118.112 166.001 118.334C165.781 118.555 165.483 118.68 165.172 118.68C164.861 118.68 164.563 118.555 164.343 118.334C164.123 118.112 164 117.812 164 117.499V103.598Z" fill="#E2E2E2"/>
<path d="M163 146C162.645 146 162 145.353 162 145L162 67C162.003 66.6492 162.647 66.0001 163 66.0001H211.5L224 78.5V145.313C224 145.489 223.93 145.659 223.804 145.783C223.679 145.908 223.508 145.978 223.331 145.978L163 146Z" fill="white"/>
<path d="M223.101 146H162.937C162.689 146 162.45 145.902 162.274 145.727C162.099 145.552 162 145.314 162 145.067V66.928C162 66.8056 162.024 66.6845 162.071 66.5716C162.119 66.4587 162.188 66.3561 162.275 66.2699C162.362 66.1836 162.465 66.1154 162.579 66.0691C162.693 66.0228 162.814 65.9993 162.937 66H211.554C211.802 66.0004 212.041 66.0985 212.217 66.2729L223.726 77.7358C223.813 77.8224 223.882 77.9254 223.929 78.0387C223.976 78.1521 224 78.2736 224 78.3963V145.045C224.004 145.289 223.913 145.526 223.745 145.704C223.577 145.883 223.346 145.989 223.101 146ZM162.937 66.5459C162.886 66.5451 162.836 66.5545 162.789 66.5734C162.741 66.5923 162.699 66.6203 162.662 66.6558C162.626 66.6914 162.597 66.7338 162.578 66.7805C162.558 66.8272 162.548 66.8773 162.548 66.928V145.067C162.548 145.169 162.589 145.268 162.662 145.341C162.735 145.413 162.834 145.454 162.937 145.454H223.101C223.204 145.454 223.303 145.413 223.376 145.341C223.449 145.268 223.49 145.169 223.49 145.067V78.4181C223.49 78.3156 223.448 78.2174 223.375 78.1452L211.866 66.6823C211.83 66.647 211.787 66.6192 211.74 66.6005C211.693 66.5817 211.643 66.5724 211.592 66.5732L162.937 66.5459Z" fill="#333333"/>
<path d="M214.294 92H170.706C170.519 92 170.339 91.8947 170.207 91.7071C170.074 91.5196 170 91.2652 170 91C170 90.7348 170.074 90.4804 170.207 90.2929C170.339 90.1054 170.519 90 170.706 90H214.294C214.481 90 214.661 90.1054 214.793 90.2929C214.926 90.4804 215 90.7348 215 91C215 91.2652 214.926 91.5196 214.793 91.7071C214.661 91.8947 214.481 92 214.294 92Z" fill="#FFC5B1"/>
<path d="M214.294 122H170.706C170.519 122 170.339 121.947 170.207 121.854C170.074 121.76 170 121.633 170 121.5C170 121.367 170.074 121.24 170.207 121.146C170.339 121.053 170.519 121 170.706 121H214.294C214.481 121 214.661 121.053 214.793 121.146C214.926 121.24 215 121.367 215 121.5C215 121.633 214.926 121.76 214.793 121.854C214.661 121.947 214.481 122 214.294 122Z" fill="#CDCDCD"/>
<path d="M214.294 129H170.706C170.519 129 170.339 128.947 170.207 128.854C170.074 128.76 170 128.633 170 128.5C170 128.367 170.074 128.24 170.207 128.146C170.339 128.053 170.519 128 170.706 128H214.294C214.481 128 214.661 128.053 214.793 128.146C214.926 128.24 215 128.367 215 128.5C215 128.633 214.926 128.76 214.793 128.854C214.661 128.947 214.481 129 214.294 129Z" fill="#CDCDCD"/>
<path d="M212.38 136.998H170.739C170.645 137.004 170.551 136.996 170.461 136.974C170.372 136.951 170.29 136.916 170.221 136.869C170.151 136.822 170.096 136.765 170.058 136.701C170.02 136.638 170 136.569 170 136.5C170 136.431 170.02 136.362 170.058 136.299C170.096 136.235 170.151 136.178 170.221 136.131C170.29 136.084 170.372 136.049 170.461 136.026C170.551 136.004 170.645 135.996 170.739 136.002H212.38C212.549 136.013 212.707 136.07 212.822 136.162C212.936 136.254 213 136.375 213 136.5C213 136.625 212.936 136.746 212.822 136.838C212.707 136.93 212.549 136.987 212.38 136.998Z" fill="#CDCDCD"/>
<path d="M173.591 82.158L174.239 84.066H175.076L173.006 78H172.061L170 84.066H170.81L171.44 82.158H173.591ZM171.602 81.546L172.196 79.791C172.313 79.422 172.412 79.053 172.502 78.693H172.52C172.61 79.044 172.7 79.404 172.835 79.8L173.429 81.546H171.602Z" fill="#333333"/>
<path d="M179.11 84.066C179.056 83.769 179.038 83.4 179.038 83.022V81.393C179.038 80.52 178.714 79.611 177.382 79.611C176.833 79.611 176.311 79.764 175.951 79.998L176.131 80.52C176.437 80.322 176.86 80.196 177.265 80.196C178.156 80.196 178.255 80.844 178.255 81.204V81.294C176.572 81.285 175.636 81.861 175.636 82.914C175.636 83.544 176.086 84.165 176.968 84.165C177.589 84.165 178.057 83.859 178.3 83.517H178.327L178.39 84.066H179.11ZM178.273 82.599C178.273 82.68 178.255 82.77 178.228 82.851C178.102 83.22 177.742 83.58 177.175 83.58C176.77 83.58 176.428 83.337 176.428 82.824C176.428 81.978 177.409 81.825 178.273 81.843V82.599Z" fill="#333333"/>
<path d="M237 146C236.657 146 236 145.353 236 145V67C235.994 66.6412 236.636 65.9999 237 66L284 66L296 78.5V145.302C296 145.478 295.932 145.648 295.81 145.772C295.689 145.897 295.524 145.967 295.353 145.967L237 146Z" fill="white"/>
<path d="M295.114 146H236.907C236.667 145.999 236.437 145.9 236.267 145.725C236.097 145.55 236.001 145.314 236 145.067V66.9334C236 66.6859 236.096 66.4484 236.266 66.2734C236.436 66.0984 236.666 66 236.907 66H283.955C284.075 65.9996 284.193 66.0235 284.303 66.0703C284.413 66.1172 284.513 66.186 284.597 66.2729L295.735 77.7358C295.819 77.8224 295.886 77.9254 295.932 78.0387C295.977 78.1521 296 78.2736 296 78.3963V145.045C296.004 145.292 295.914 145.531 295.748 145.71C295.582 145.889 295.354 145.993 295.114 146ZM236.907 66.5459C236.807 66.5459 236.711 66.5867 236.641 66.6594C236.57 66.732 236.53 66.8306 236.53 66.9334V145.067C236.53 145.169 236.57 145.268 236.641 145.341C236.711 145.413 236.807 145.454 236.907 145.454H295.114C295.214 145.454 295.31 145.413 295.38 145.341C295.451 145.268 295.491 145.169 295.491 145.067V78.4181C295.492 78.3672 295.482 78.3165 295.463 78.2695C295.444 78.2225 295.415 78.1802 295.379 78.1452L284.242 66.6823C284.208 66.6452 284.167 66.6159 284.121 66.5962C284.075 66.5764 284.026 66.5667 283.977 66.5677L236.907 66.5459Z" fill="#333333"/>
<path d="M288.294 92H244.706C244.519 92 244.339 91.8947 244.207 91.7071C244.074 91.5196 244 91.2652 244 91C244 90.7348 244.074 90.4804 244.207 90.2929C244.339 90.1054 244.519 90 244.706 90H288.294C288.481 90 288.661 90.1054 288.793 90.2929C288.926 90.4804 289 90.7348 289 91C289 91.2652 288.926 91.5196 288.793 91.7071C288.661 91.8947 288.481 92 288.294 92Z" fill="#D9F4FF"/>
<path d="M288.226 99.9981H244.649C244.472 99.9871 244.307 99.9299 244.187 99.8377C244.067 99.7455 244 99.625 244 99.5C244 99.375 244.067 99.2545 244.187 99.1623C244.307 99.0701 244.472 99.0129 244.649 99.0019H288.226C288.325 98.9958 288.424 99.0042 288.517 99.0265C288.611 99.0487 288.696 99.0844 288.769 99.1313C288.842 99.1781 288.9 99.2351 288.94 99.2986C288.979 99.3621 289 99.4306 289 99.5C289 99.5694 288.979 99.638 288.94 99.7014C288.9 99.7649 288.842 99.8219 288.769 99.8687C288.696 99.9156 288.611 99.9513 288.517 99.9735C288.424 99.9958 288.325 100.004 288.226 99.9981Z" fill="#CDCDCD"/>
<path d="M288.226 106.998H244.649C244.472 106.987 244.307 106.93 244.187 106.838C244.067 106.746 244 106.625 244 106.5C244 106.375 244.067 106.254 244.187 106.162C244.307 106.07 244.472 106.013 244.649 106.002H288.226C288.325 105.996 288.424 106.004 288.517 106.026C288.611 106.049 288.696 106.084 288.769 106.131C288.842 106.178 288.9 106.235 288.94 106.299C288.979 106.362 289 106.431 289 106.5C289 106.569 288.979 106.638 288.94 106.701C288.9 106.765 288.842 106.822 288.769 106.869C288.696 106.916 288.611 106.951 288.517 106.974C288.424 106.996 288.325 107.004 288.226 106.998Z" fill="#CDCDCD"/>
<path d="M244 84.372C244.261 84.408 244.675 84.444 245.215 84.444C246.205 84.444 246.889 84.264 247.312 83.877C247.618 83.58 247.825 83.184 247.825 82.662C247.825 81.762 247.15 81.285 246.574 81.141V81.123C247.213 80.889 247.6 80.376 247.6 79.791C247.6 79.314 247.411 78.954 247.096 78.72C246.718 78.414 246.214 78.279 245.431 78.279C244.882 78.279 244.342 78.333 244 78.405V84.372ZM244.783 78.936C244.909 78.909 245.116 78.882 245.476 78.882C246.268 78.882 246.808 79.161 246.808 79.872C246.808 80.457 246.322 80.889 245.494 80.889H244.783V78.936ZM244.783 81.483H245.431C246.286 81.483 246.997 81.825 246.997 82.653C246.997 83.535 246.25 83.832 245.44 83.832C245.161 83.832 244.936 83.823 244.783 83.796V81.483Z" fill="#333333"/>
<path d="M249.499 84.39L249.535 83.67H249.562C249.886 84.246 250.39 84.489 251.02 84.489C251.992 84.489 252.973 83.715 252.973 82.158C252.982 80.835 252.217 79.935 251.137 79.935C250.435 79.935 249.931 80.25 249.652 80.736H249.634V78H248.851V83.265C248.851 83.652 248.833 84.093 248.815 84.39H249.499ZM249.634 81.861C249.634 81.735 249.661 81.627 249.679 81.537C249.841 80.934 250.345 80.565 250.885 80.565C251.731 80.565 252.181 81.312 252.181 82.185C252.181 83.184 251.686 83.859 250.858 83.859C250.282 83.859 249.823 83.481 249.67 82.932C249.652 82.842 249.634 82.743 249.634 82.644V81.861Z" fill="#333333"/>
<path d="M288.226 114.998H244.649C244.472 114.987 244.307 114.93 244.187 114.838C244.067 114.746 244 114.625 244 114.5C244 114.375 244.067 114.254 244.187 114.162C244.307 114.07 244.472 114.013 244.649 114.002H288.226C288.325 113.996 288.424 114.004 288.517 114.026C288.611 114.049 288.696 114.084 288.769 114.131C288.842 114.178 288.9 114.235 288.94 114.299C288.979 114.362 289 114.431 289 114.5C289 114.569 288.979 114.638 288.94 114.701C288.9 114.765 288.842 114.822 288.769 114.869C288.696 114.916 288.611 114.951 288.517 114.974C288.424 114.996 288.325 115.004 288.226 114.998Z" fill="#CDCDCD"/>
<path d="M311 146C310.5 146 310 145.5 310 145V67.0127C309.994 66.6413 310.64 66 311 66L359.719 66L372 78.6153V145.297C372 145.384 371.983 145.47 371.949 145.551C371.915 145.632 371.866 145.705 371.804 145.767C371.742 145.829 371.668 145.878 371.587 145.911C371.506 145.944 371.419 145.962 371.331 145.962L311 146Z" fill="white"/>
<path d="M371.085 146H310.937C310.689 145.999 310.452 145.9 310.276 145.725C310.101 145.55 310.001 145.314 310 145.067V66.9334C310.001 66.6863 310.101 66.4497 310.276 66.275C310.452 66.1002 310.689 66.0014 310.937 66H359.554C359.677 65.9996 359.799 66.0235 359.913 66.0703C360.027 66.1172 360.13 66.186 360.217 66.2729L371.726 77.7358C371.901 77.9114 372 78.1488 372 78.3963V145.045C372.004 145.292 371.911 145.531 371.739 145.71C371.568 145.889 371.333 145.993 371.085 146ZM310.937 66.5459C310.834 66.5459 310.735 66.5867 310.662 66.6594C310.589 66.732 310.548 66.8306 310.548 66.9334V145.067C310.548 145.169 310.589 145.268 310.662 145.341C310.735 145.413 310.834 145.454 310.937 145.454H371.085C371.188 145.454 371.287 145.413 371.36 145.341C371.433 145.268 371.474 145.169 371.474 145.067V78.4181C371.475 78.3672 371.465 78.3165 371.445 78.2695C371.425 78.2225 371.396 78.1802 371.359 78.1452L359.85 66.6823C359.815 66.6452 359.772 66.6159 359.725 66.5962C359.678 66.5764 359.627 66.5667 359.576 66.5677L310.937 66.5459Z" fill="#333333"/>
<path d="M362.351 91.9962H318.774C318.675 92.0083 318.576 91.9916 318.483 91.947C318.389 91.9025 318.304 91.8311 318.231 91.7374C318.158 91.6438 318.1 91.5298 318.06 91.4028C318.02 91.2759 318 91.1387 318 91C318 90.8613 318.02 90.7241 318.06 90.5972C318.1 90.4702 318.158 90.3562 318.231 90.2626C318.304 90.1689 318.389 90.0975 318.483 90.053C318.576 90.0084 318.675 89.9917 318.774 90.0038H362.351C362.528 90.0258 362.693 90.1402 362.813 90.3246C362.933 90.509 363 90.75 363 91C363 91.2501 362.933 91.491 362.813 91.6754C362.693 91.8598 362.528 91.9742 362.351 91.9962Z" fill="#E3EEC4"/>
<path d="M362.294 100H318.706C318.519 100 318.339 99.9473 318.207 99.8536C318.074 99.7598 318 99.6326 318 99.5C318 99.3674 318.074 99.2402 318.207 99.1464C318.339 99.0527 318.519 99 318.706 99H362.294C362.481 99 362.661 99.0527 362.793 99.1464C362.926 99.2402 363 99.3674 363 99.5C363 99.6326 362.926 99.7598 362.793 99.8536C362.661 99.9473 362.481 100 362.294 100Z" fill="#CDCDCD"/>
<path d="M362.351 128.998H318.774C318.675 129.004 318.576 128.996 318.483 128.974C318.389 128.951 318.304 128.916 318.231 128.869C318.158 128.822 318.1 128.765 318.06 128.701C318.02 128.638 318 128.569 318 128.5C318 128.431 318.02 128.362 318.06 128.299C318.1 128.235 318.158 128.178 318.231 128.131C318.304 128.084 318.389 128.049 318.483 128.026C318.576 128.004 318.675 127.996 318.774 128.002H362.351C362.528 128.013 362.693 128.07 362.813 128.162C362.933 128.254 363 128.375 363 128.5C363 128.625 362.933 128.746 362.813 128.838C362.693 128.93 362.528 128.987 362.351 128.998Z" fill="#CDCDCD"/>
<path d="M359.394 135.998H318.722C318.63 136.004 318.538 135.996 318.451 135.974C318.363 135.951 318.283 135.916 318.215 135.869C318.148 135.822 318.093 135.765 318.056 135.701C318.019 135.638 318 135.569 318 135.5C318 135.431 318.019 135.362 318.056 135.299C318.093 135.235 318.148 135.178 318.215 135.131C318.283 135.084 318.363 135.049 318.451 135.026C318.538 135.004 318.63 134.996 318.722 135.002H359.394C359.56 135.013 359.714 135.07 359.826 135.162C359.938 135.254 360 135.375 360 135.5C360 135.625 359.938 135.746 359.826 135.838C359.714 135.93 359.56 135.987 359.394 135.998Z" fill="#CDCDCD"/>
<path d="M322.678 83.346C322.363 83.499 321.877 83.598 321.4 83.598C319.924 83.598 319.069 82.644 319.069 81.159C319.069 79.566 320.014 78.657 321.436 78.657C321.94 78.657 322.363 78.765 322.66 78.909L322.849 78.27C322.642 78.162 322.165 78 321.409 78C319.528 78 318.241 79.287 318.241 81.186C318.241 83.175 319.528 84.255 321.238 84.255C321.976 84.255 322.552 84.111 322.84 83.967L322.678 83.346Z" fill="#333333"/>
<path d="M326.668 83.409C326.443 83.508 326.146 83.625 325.696 83.625C324.832 83.625 324.184 83.004 324.184 81.996C324.184 81.087 324.724 80.349 325.723 80.349C326.155 80.349 326.452 80.448 326.641 80.556L326.821 79.944C326.605 79.836 326.191 79.719 325.723 79.719C324.301 79.719 323.383 80.691 323.383 82.032C323.383 83.364 324.238 84.255 325.552 84.255C326.137 84.255 326.596 84.111 326.803 84.003L326.668 83.409Z" fill="#333333"/>
<path d="M345 111.089C345.002 110.939 345.029 110.792 345.079 110.655C345.13 110.519 345.202 110.396 345.292 110.294C345.382 110.193 345.488 110.115 345.603 110.065C345.718 110.014 345.84 109.993 345.963 110.003C346.217 109.982 346.468 110.084 346.662 110.287C346.856 110.49 346.977 110.778 347 111.089V119.856C346.979 120.172 346.859 120.467 346.667 120.679C346.474 120.892 346.222 121.006 345.963 120.999C345.838 121.004 345.713 120.978 345.596 120.922C345.48 120.867 345.373 120.784 345.284 120.677C345.194 120.57 345.122 120.443 345.074 120.302C345.025 120.16 345 120.009 345 119.856V111.089Z" fill="#8BB825"/>
<path d="M349 116.127C349.021 115.815 349.141 115.525 349.333 115.316C349.526 115.106 349.778 114.994 350.037 115.001C350.162 114.996 350.287 115.022 350.404 115.076C350.52 115.131 350.627 115.213 350.716 115.318C350.806 115.423 350.878 115.549 350.926 115.688C350.975 115.827 351 115.976 351 116.127V119.873C351 120.024 350.975 120.173 350.926 120.312C350.878 120.451 350.806 120.577 350.716 120.682C350.627 120.787 350.52 120.869 350.404 120.924C350.287 120.978 350.162 121.004 350.037 120.999C349.778 121.006 349.526 120.894 349.333 120.684C349.141 120.475 349.021 120.185 349 119.873V116.127Z" fill="#8BB825"/>
<path d="M357 110.194C357 110.037 357.026 109.882 357.076 109.737C357.126 109.592 357.2 109.461 357.293 109.35C357.386 109.239 357.496 109.151 357.617 109.091C357.739 109.031 357.869 109 358 109C358.131 109 358.261 109.031 358.383 109.091C358.504 109.151 358.614 109.239 358.707 109.35C358.8 109.461 358.874 109.592 358.924 109.737C358.974 109.882 359 110.037 359 110.194V119.806C359 120.123 358.895 120.426 358.707 120.65C358.52 120.874 358.265 121 358 121C357.735 121 357.48 120.874 357.293 120.65C357.105 120.426 357 120.123 357 119.806V110.194Z" fill="#8BB825"/>
<path d="M353 115.047C353.04 114.755 353.162 114.489 353.345 114.297C353.528 114.105 353.76 114 354 114C354.24 114 354.472 114.105 354.655 114.297C354.838 114.489 354.96 114.755 355 115.047V119.953C354.96 120.245 354.838 120.511 354.655 120.703C354.472 120.895 354.24 121 354 121C353.76 121 353.528 120.895 353.345 120.703C353.162 120.511 353.04 120.245 353 119.953V115.047Z" fill="#8BB825"/>
<path d="M191.964 62.48L191.614 62.0551C191.614 62.0551 192.085 61.6633 192.933 61.0397L193.257 61.4867C192.424 62.0992 191.97 62.4745 191.964 62.48Z" fill="#848484"/>
<path d="M196.066 59.5554L195.77 59.0863C196.723 58.4848 197.715 57.8888 198.722 57.3204L198.985 57.8005C197.988 58.3744 197.008 58.9649 196.066 59.5554ZM256.907 59.5112C255.954 58.8711 254.984 58.264 254.026 57.6901L254.3 57.2155C255.269 57.7674 256.244 58.4075 257.208 59.0477L256.907 59.5112ZM202.019 56.2443L201.778 55.7476C202.802 55.2399 203.854 54.7543 204.9 54.3073L205.114 54.815C204.057 55.2399 203.016 55.72 202.019 56.2443ZM251.069 56.0732C250.061 55.5214 249.031 55.0468 248.007 54.5943L248.226 54.0866C249.261 54.5501 250.302 55.0523 251.32 55.5821L251.069 56.0732ZM208.279 53.5568L208.087 53.0381C209.183 52.6408 210.278 52.2765 211.346 51.9344L211.505 52.4862C210.409 52.7787 209.32 53.1429 208.257 53.5347L208.279 53.5568ZM244.858 53.303C243.795 52.9112 242.711 52.5414 241.638 52.1993L241.791 51.6474C242.886 51.973 243.982 52.3428 245.05 52.7511L244.858 53.303ZM214.785 51.5867L214.659 51.0349C215.755 50.77 216.899 50.5327 218.017 50.3341L218.11 50.8859C216.987 51.0625 215.864 51.2777 214.763 51.5647L214.785 51.5867ZM238.335 51.3494C237.24 51.0956 236.112 50.8804 235 50.7038L235.088 50.1519C236.21 50.3341 237.344 50.5493 238.456 50.8086L238.335 51.3494ZM221.456 50.4058L221.401 49.854C222.535 49.727 223.685 49.6332 224.819 49.5836L224.846 50.1354C223.718 50.174 222.579 50.2568 221.451 50.3837L221.456 50.4058ZM231.632 50.2844C230.536 50.1851 229.37 50.1244 228.242 50.0968V49.5449C229.386 49.5449 230.536 49.6332 231.67 49.7381L231.632 50.2844Z" fill="#848484"/>
<path d="M261.009 62.4856C260.571 62.1489 260.138 61.8178 259.7 61.4923L260.029 61.0508C260.467 61.3709 260.905 61.7075 261.343 62.0496L261.009 62.4856Z" fill="#848484"/>
<path d="M279.378 62.48L279.027 62.0551C279.027 62.0551 279.498 61.6633 280.347 61.0397L280.67 61.4867C279.838 62.0992 279.383 62.4745 279.378 62.48Z" fill="#848484"/>
<path d="M283.48 59.5553L283.184 59.0863C284.137 58.4848 285.128 57.8888 286.136 57.3204L286.399 57.8005C285.402 58.3744 284.422 58.9649 283.48 59.5553ZM344.321 59.5112C343.368 58.8766 342.398 58.264 341.44 57.6956L341.714 57.2155C342.683 57.7674 343.663 58.4075 344.622 59.0476L344.321 59.5112ZM289.417 56.2443L289.17 55.7476C290.194 55.2399 291.246 54.7543 292.292 54.3073L292.505 54.815C291.47 55.2399 290.43 55.72 289.417 56.2443ZM338.46 56.0732C337.453 55.5214 336.423 55.0468 335.399 54.5943L335.618 54.0866C336.653 54.5501 337.694 55.0523 338.712 55.5821L338.46 56.0732ZM295.671 53.5347L295.479 53.016C296.575 52.6187 297.67 52.2545 298.765 51.9123L298.924 52.4642C297.823 52.7787 296.733 53.1429 295.671 53.5347ZM332.25 53.2809C331.187 52.8891 330.103 52.5193 329.03 52.1772L329.183 51.6253C330.278 51.9509 331.374 52.3207 332.442 52.729L332.25 53.2809ZM302.177 51.5646L302.051 51.0128C303.147 50.7479 304.291 50.5106 305.409 50.312L305.507 50.8638C304.401 51.0625 303.278 51.2777 302.177 51.5646ZM325.727 51.3274C324.632 51.0735 323.504 50.8583 322.392 50.6817L322.479 50.1299C323.575 50.312 324.736 50.5272 325.848 50.7865L325.727 51.3274ZM308.848 50.3837L308.793 49.8319C309.927 49.7049 311.082 49.6111 312.211 49.5615V50.1133C311.132 50.174 309.993 50.2568 308.864 50.3837H308.848ZM319.024 50.2623C317.928 50.163 316.762 50.1023 315.634 50.0747V49.5228C316.778 49.5228 317.928 49.6111 319.062 49.716L319.024 50.2623Z" fill="#848484"/>
<path d="M348.422 62.4855C347.984 62.1489 347.552 61.8177 347.114 61.4922L347.442 61.0452C347.88 61.3708 348.318 61.7074 348.757 62.0495L348.422 62.4855Z" fill="#848484"/>
<rect x="244.25" y="121.25" width="41.5" height="15.5" rx="0.75" fill="white" stroke="#9ADAF3" stroke-width="0.5"/>
<path d="M277.509 125.434C278.266 125.245 279.007 124.749 279.75 123.789V134.75H251.211C252.639 134.036 253.87 133.021 254.796 131.781L254.796 131.781L254.801 131.773C255.635 130.565 256.435 129.479 257.464 128.899C258.464 128.335 259.72 128.231 261.521 129.097C262.472 129.555 263.245 129.736 263.934 129.677C264.627 129.617 265.202 129.319 265.759 128.883C266.22 128.522 266.684 128.055 267.197 127.537C267.297 127.437 267.398 127.335 267.502 127.231C268.146 126.587 268.891 125.868 269.843 125.139C270.752 124.442 271.592 124.306 272.405 124.405C273.058 124.484 273.684 124.711 274.332 124.946C274.517 125.013 274.704 125.08 274.893 125.145C275.726 125.431 276.603 125.66 277.509 125.434Z" fill="#D9F4FF" stroke="#9ADAF3" stroke-width="0.5"/>
<rect x="318" y="106" width="20" height="1" rx="0.5" fill="#CDCDCD"/>
<rect x="318" y="114" width="20" height="1" rx="0.5" fill="#CDCDCD"/>
<rect x="318" y="121" width="20" height="1" rx="0.5" fill="#CDCDCD"/>
<path d="M215 138.17C215 136.972 215.974 136 217.177 136H228.823C230.026 136 231 136.972 231 138.17V149.83C231 151.028 230.026 152 228.823 152H217.177C215.974 152 215 151.028 215 149.83V138.17Z" fill="white"/>
<path fill-rule="evenodd" clip-rule="evenodd" d="M228.823 136.543H217.177C216.275 136.543 215.544 137.271 215.544 138.17V149.83C215.544 150.729 216.275 151.457 217.177 151.457H228.823C229.725 151.457 230.456 150.729 230.456 149.83V138.17C230.456 137.271 229.725 136.543 228.823 136.543ZM217.177 136C215.974 136 215 136.972 215 138.17V149.83C215 151.028 215.974 152 217.177 152H228.823C230.026 152 231 151.028 231 149.83V138.17C231 136.972 230.026 136 228.823 136H217.177Z" fill="#333333"/>
<path d="M287 138.17C287 136.972 287.974 136 289.177 136H300.823C302.026 136 303 136.972 303 138.17V149.83C303 151.028 302.026 152 300.823 152H289.177C287.974 152 287 151.028 287 149.83V138.17Z" fill="white"/>
<path fill-rule="evenodd" clip-rule="evenodd" d="M300.823 136.543H289.177C288.275 136.543 287.544 137.271 287.544 138.17V149.83C287.544 150.729 288.275 151.457 289.177 151.457H300.823C301.725 151.457 302.456 150.729 302.456 149.83V138.17C302.456 137.271 301.725 136.543 300.823 136.543ZM289.177 136C287.974 136 287 136.972 287 138.17V149.83C287 151.028 287.974 152 289.177 152H300.823C302.026 152 303 151.028 303 149.83V138.17C303 136.972 302.026 136 300.823 136H289.177Z" fill="#333333"/>
<path d="M294.649 146.689C294.577 146.76 294.481 146.799 294.381 146.799C294.331 146.8 294.281 146.79 294.235 146.771C294.189 146.752 294.147 146.724 294.112 146.689L291.982 144.564C291.926 144.513 291.882 144.45 291.851 144.38C291.821 144.31 291.805 144.235 291.805 144.159C291.805 144.082 291.821 144.007 291.851 143.937C291.882 143.867 291.926 143.805 291.982 143.753L292.245 143.488C292.296 143.432 292.358 143.387 292.427 143.357C292.497 143.326 292.572 143.31 292.647 143.31C292.723 143.31 292.798 143.326 292.867 143.357C292.936 143.387 292.998 143.432 293.05 143.488L294.381 144.829L297.979 141.203C298.03 141.148 298.092 141.104 298.161 141.074C298.229 141.044 298.304 141.029 298.378 141.029C298.453 141.029 298.528 141.044 298.596 141.074C298.665 141.104 298.727 141.148 298.778 141.203L299.047 141.468C299.152 141.577 299.211 141.722 299.211 141.874C299.211 142.026 299.152 142.171 299.047 142.28L294.649 146.689Z" fill="#9ADAF3"/>
<path d="M222.973 146.816C222.902 146.887 222.805 146.927 222.705 146.927C222.655 146.927 222.606 146.918 222.56 146.899C222.514 146.88 222.472 146.852 222.437 146.816L220.306 144.692C220.251 144.64 220.206 144.577 220.176 144.507C220.146 144.438 220.13 144.362 220.13 144.286C220.13 144.21 220.146 144.134 220.176 144.065C220.206 143.995 220.251 143.932 220.306 143.88L220.569 143.616C220.62 143.56 220.683 143.515 220.752 143.484C220.821 143.454 220.896 143.438 220.972 143.438C221.047 143.438 221.122 143.454 221.191 143.484C221.261 143.515 221.323 143.56 221.374 143.616L222.705 144.957L226.303 141.331C226.354 141.276 226.416 141.232 226.485 141.202C226.554 141.172 226.628 141.156 226.703 141.156C226.778 141.156 226.852 141.172 226.921 141.202C226.99 141.232 227.052 141.276 227.103 141.331L227.371 141.596C227.476 141.704 227.535 141.85 227.535 142.001C227.535 142.153 227.476 142.299 227.371 142.407L222.973 146.816Z" fill="#FF6F3D"/>
<path d="M294.38 146.937C294.313 146.938 294.245 146.925 294.182 146.9C294.119 146.874 294.062 146.836 294.014 146.788L291.883 144.636C291.817 144.571 291.765 144.493 291.73 144.407C291.694 144.322 291.676 144.23 291.676 144.137C291.676 144.044 291.694 143.952 291.73 143.866C291.765 143.78 291.817 143.703 291.883 143.637L292.151 143.367C292.283 143.234 292.461 143.16 292.647 143.16C292.833 143.16 293.011 143.234 293.143 143.367L294.38 144.609L297.88 141.082C298.012 140.949 298.191 140.874 298.378 140.873C298.565 140.874 298.744 140.949 298.877 141.082L299.145 141.353C299.21 141.419 299.262 141.497 299.297 141.583C299.331 141.669 299.349 141.762 299.348 141.855C299.348 142.042 299.275 142.223 299.145 142.357L294.764 146.772C294.715 146.825 294.656 146.867 294.59 146.895C294.524 146.924 294.452 146.938 294.38 146.937ZM292.644 143.461C292.531 143.461 292.423 143.507 292.343 143.588L292.075 143.858C292.035 143.898 292.003 143.946 291.981 143.998C291.959 144.051 291.948 144.107 291.948 144.164C291.948 144.221 291.959 144.278 291.981 144.33C292.003 144.383 292.035 144.431 292.075 144.471L294.211 146.623C294.257 146.665 294.318 146.689 294.38 146.689C294.443 146.689 294.504 146.665 294.55 146.623L298.932 142.208C298.972 142.169 299.004 142.121 299.025 142.069C299.047 142.017 299.058 141.961 299.058 141.905C299.058 141.847 299.047 141.79 299.025 141.737C299.003 141.684 298.972 141.636 298.932 141.595L298.663 141.325C298.583 141.245 298.475 141.199 298.362 141.198C298.249 141.199 298.141 141.245 298.061 141.325L294.364 145.05L292.935 143.61C292.861 143.524 292.757 143.47 292.644 143.461Z" fill="#333333"/>
<path d="M222.705 147.065C222.637 147.066 222.57 147.053 222.507 147.027C222.444 147.002 222.386 146.964 222.338 146.916L220.208 144.764C220.142 144.698 220.09 144.621 220.054 144.535C220.018 144.449 220 144.357 220 144.264C220 144.171 220.018 144.079 220.054 143.993C220.09 143.908 220.142 143.83 220.208 143.765L220.476 143.494C220.607 143.362 220.786 143.287 220.972 143.287C221.157 143.287 221.336 143.362 221.467 143.494L222.705 144.736L226.205 141.21C226.337 141.077 226.516 141.001 226.703 141C226.89 141.001 227.069 141.077 227.201 141.21L227.47 141.48C227.535 141.546 227.586 141.624 227.621 141.711C227.656 141.797 227.673 141.889 227.672 141.982C227.672 142.17 227.6 142.35 227.47 142.484L223.088 146.899C223.039 146.952 222.98 146.994 222.914 147.023C222.848 147.051 222.777 147.066 222.705 147.065ZM220.969 143.588C220.856 143.589 220.747 143.634 220.668 143.715L220.399 143.985C220.359 144.026 220.327 144.073 220.305 144.126C220.283 144.178 220.272 144.235 220.272 144.292C220.272 144.349 220.283 144.405 220.305 144.458C220.327 144.51 220.359 144.558 220.399 144.598L222.535 146.75C222.582 146.793 222.642 146.816 222.705 146.816C222.768 146.816 222.828 146.793 222.875 146.75L227.256 142.335C227.296 142.296 227.328 142.249 227.35 142.197C227.371 142.145 227.382 142.088 227.382 142.032C227.382 141.975 227.371 141.918 227.35 141.865C227.328 141.812 227.296 141.764 227.256 141.723L226.988 141.453C226.908 141.372 226.799 141.327 226.686 141.326C226.573 141.327 226.465 141.372 226.385 141.453L222.688 145.177L221.259 143.737C221.185 143.651 221.081 143.598 220.969 143.588Z" fill="#333333"/>
<path d="M361.25 138C361.25 137.034 362.034 136.25 363 136.25H375C375.966 136.25 376.75 137.034 376.75 138V150C376.75 150.966 375.966 151.75 375 151.75H363C362.034 151.75 361.25 150.966 361.25 150V138Z" fill="white" stroke="#333333" stroke-width="0.5"/>
<path d="M368.159 146.689C368.087 146.76 367.991 146.799 367.89 146.799C367.841 146.8 367.791 146.79 367.745 146.772C367.699 146.753 367.657 146.724 367.622 146.689L365.491 144.564C365.436 144.513 365.392 144.45 365.361 144.38C365.331 144.31 365.315 144.235 365.315 144.159C365.315 144.083 365.331 144.007 365.361 143.937C365.392 143.868 365.436 143.805 365.491 143.753L365.754 143.488C365.806 143.432 365.868 143.388 365.937 143.357C366.006 143.326 366.081 143.311 366.157 143.311C366.233 143.311 366.307 143.326 366.377 143.357C366.446 143.388 366.508 143.432 366.559 143.488L367.89 144.829L371.489 141.204C371.54 141.148 371.602 141.105 371.67 141.074C371.739 141.044 371.813 141.029 371.888 141.029C371.963 141.029 372.037 141.044 372.106 141.074C372.175 141.105 372.237 141.148 372.288 141.204L372.556 141.469C372.662 141.577 372.721 141.722 372.721 141.874C372.721 142.026 372.662 142.171 372.556 142.28L368.159 146.689Z" fill="#8BB825"/>
<path d="M367.89 146.937C367.822 146.938 367.755 146.925 367.692 146.9C367.629 146.874 367.572 146.836 367.523 146.788L365.393 144.636C365.327 144.571 365.275 144.493 365.239 144.407C365.204 144.322 365.185 144.23 365.185 144.137C365.185 144.044 365.204 143.952 365.239 143.866C365.275 143.78 365.327 143.702 365.393 143.637L365.661 143.367C365.793 143.234 365.971 143.16 366.157 143.16C366.343 143.16 366.521 143.234 366.653 143.367L367.89 144.608L371.39 141.082C371.522 140.949 371.701 140.874 371.888 140.872C372.075 140.874 372.254 140.949 372.387 141.082L372.655 141.353C372.72 141.418 372.772 141.497 372.806 141.583C372.841 141.669 372.859 141.762 372.858 141.855C372.858 142.042 372.785 142.223 372.655 142.357L368.274 146.772C368.225 146.825 368.165 146.867 368.099 146.895C368.033 146.924 367.962 146.938 367.89 146.937ZM366.154 143.461C366.041 143.461 365.933 143.507 365.853 143.587L365.585 143.858C365.544 143.898 365.512 143.946 365.491 143.998C365.469 144.051 365.458 144.107 365.458 144.164C365.458 144.221 365.469 144.278 365.491 144.33C365.512 144.383 365.544 144.43 365.585 144.47L367.72 146.623C367.767 146.665 367.827 146.689 367.89 146.689C367.953 146.689 368.014 146.665 368.06 146.623L372.441 142.208C372.482 142.168 372.513 142.121 372.535 142.069C372.557 142.017 372.568 141.961 372.567 141.904C372.568 141.847 372.557 141.79 372.535 141.737C372.513 141.684 372.482 141.636 372.441 141.595L372.173 141.325C372.093 141.245 371.985 141.199 371.872 141.198C371.759 141.199 371.651 141.245 371.571 141.325L367.874 145.05L366.444 143.61C366.371 143.524 366.266 143.47 366.154 143.461Z" fill="#333333"/>
<path fill-rule="evenodd" clip-rule="evenodd" d="M211.75 66.5H212.25V77.75H223.5V78.25H211.75V66.5Z" fill="#333333"/>
<path fill-rule="evenodd" clip-rule="evenodd" d="M283.75 66.5H284.25V78.25H295.5V78.75H283.75V66.5Z" fill="#333333"/>
<path fill-rule="evenodd" clip-rule="evenodd" d="M359.75 66.5H360.25V77.75H371.5V78.25H359.75V66.5Z" fill="#333333"/>
<path fill-rule="evenodd" clip-rule="evenodd" d="M362 103.5H342C341.724 103.5 341.5 103.724 341.5 104V124C341.5 124.276 341.724 124.5 342 124.5H362C362.276 124.5 362.5 124.276 362.5 124V104C362.5 103.724 362.276 103.5 362 103.5ZM342 103C341.448 103 341 103.448 341 104V124C341 124.552 341.448 125 342 125H362C362.552 125 363 124.552 363 124V104C363 103.448 362.552 103 362 103H342Z" fill="#8BB825"/>
<rect x="170.5" y="96.5" width="9" height="3" stroke="#E2E2E2"/>
<rect x="170.5" y="99.5" width="9" height="3" stroke="#E2E2E2"/>
<rect x="170.5" y="102.5" width="9" height="3" fill="#EBECEC" stroke="#E2E2E2"/>
<rect x="170.5" y="105.5" width="9" height="3" stroke="#E2E2E2"/>
<rect x="170.5" y="108.5" width="9" height="3" fill="#FFC5B1" stroke="#E2E2E2"/>
<rect x="170.5" y="111.5" width="9" height="3" stroke="#E2E2E2"/>
<rect x="170.5" y="114.5" width="9" height="3" stroke="#E2E2E2"/>
<rect x="179.5" y="96.5" width="9" height="3" stroke="#E2E2E2"/>
<rect x="179.5" y="99.5" width="9" height="3" stroke="#E2E2E2"/>
<rect x="179.5" y="102.5" width="9" height="3" stroke="#E2E2E2"/>
<rect x="179.5" y="105.5" width="9" height="3" stroke="#E2E2E2"/>
<rect x="179.5" y="108.5" width="9" height="3" stroke="#E2E2E2"/>
<rect x="179.5" y="111.5" width="9" height="3" fill="#FFC5B1" stroke="#E2E2E2"/>
<rect x="179.5" y="114.5" width="9" height="3" stroke="#E2E2E2"/>
<rect x="188.5" y="96.5" width="9" height="3" stroke="#E2E2E2"/>
<rect x="188.5" y="99.5" width="9" height="3" fill="#FFC5B1" stroke="#E2E2E2"/>
<rect x="188.5" y="102.5" width="9" height="3" stroke="#E2E2E2"/>
<rect x="188.5" y="105.5" width="9" height="3" fill="#EBECEC" stroke="#E2E2E2"/>
<rect x="188.5" y="108.5" width="9" height="3" stroke="#E2E2E2"/>
<rect x="188.5" y="111.5" width="9" height="3" stroke="#E2E2E2"/>
<rect x="188.5" y="114.5" width="9" height="3" stroke="#E2E2E2"/>
<rect x="197.5" y="96.5" width="9" height="3" stroke="#E2E2E2"/>
<rect x="197.5" y="99.5" width="9" height="3" stroke="#E2E2E2"/>
<rect x="197.5" y="102.5" width="9" height="3" stroke="#E2E2E2"/>
<rect x="197.5" y="105.5" width="9" height="3" stroke="#E2E2E2"/>
<rect x="197.5" y="108.5" width="9" height="3" stroke="#E2E2E2"/>
<rect x="197.5" y="111.5" width="9" height="3" stroke="#E2E2E2"/>
<rect x="197.5" y="114.5" width="9" height="3" fill="#FFC5B1" stroke="#E2E2E2"/>
<rect x="206.5" y="96.5" width="8" height="3" fill="#EBECEC" stroke="#E2E2E2"/>
<rect x="206.5" y="99.5" width="8" height="3" stroke="#E2E2E2"/>
<rect x="206.5" y="102.5" width="8" height="3" stroke="#E2E2E2"/>
<rect x="206.5" y="105.5" width="8" height="3" fill="#FFC5B1" stroke="#E2E2E2"/>
<rect x="206.5" y="108.5" width="8" height="3" stroke="#E2E2E2"/>
<rect x="206.5" y="111.5" width="8" height="3" stroke="#E2E2E2"/>
<rect x="206.5" y="114.5" width="8" height="3" stroke="#E2E2E2"/>
<path fill-rule="evenodd" clip-rule="evenodd" d="M214 97H171V117H214V97ZM170 96V118H215V96H170Z" fill="#E2E2E2"/>
</symbol>
</svg>
