<svg width="377" height="193" viewBox="0 0 377 193" fill="none" xmlns="http://www.w3.org/2000/svg">
    <symbol id="connect1-light" viewBox="0 0 377 193">
<rect width="377" height="193" fill="white"/>
<g clip-path="url(#clip0)">
<path d="M119 60.193C119 58.8158 119.544 57.4949 120.513 56.521C121.481 55.5471 122.795 55 124.165 55H260.835C262.205 55 263.519 55.5471 264.487 56.521C265.456 57.4949 266 58.8158 266 60.193V152H119V60.193Z" fill="#F5F5F5"/>
<path d="M268 151H118V60.3525C118.004 59.5146 118.174 58.6856 118.502 57.9128C118.83 57.1401 119.308 56.4388 119.91 55.8489C120.511 55.259 121.224 54.7921 122.009 54.4749C122.793 54.1577 123.632 53.9963 124.479 54.0001H261.515C262.363 53.9956 263.203 54.1564 263.987 54.4733C264.772 54.7901 265.486 55.2569 266.088 55.8469C266.691 56.4368 267.169 57.1384 267.497 57.9115C267.825 58.6846 267.996 59.5141 268 60.3525V151ZM124.479 55.2694C123.113 55.2694 121.801 55.8037 120.831 56.7558C119.861 57.7079 119.311 59.0008 119.3 60.3525V149.719H266.705V60.3525C266.695 59.0008 266.144 57.7079 265.174 56.7558C264.204 55.8037 262.893 55.2694 261.527 55.2694H124.479Z" fill="#333333"/>
<path d="M260.705 147C260.875 147.001 261.043 146.968 261.2 146.904C261.357 146.84 261.5 146.746 261.62 146.627C261.741 146.508 261.836 146.367 261.901 146.212C261.966 146.056 262 145.889 262 145.721V61.2735C261.999 61.1055 261.965 60.9393 261.9 60.7844C261.834 60.6295 261.739 60.4889 261.618 60.3706C261.498 60.2524 261.355 60.1588 261.199 60.0952C261.042 60.0316 260.874 59.9993 260.705 60H124.295C124.126 59.9993 123.958 60.0316 123.801 60.0952C123.644 60.1588 123.502 60.2524 123.382 60.3706C123.261 60.4889 123.166 60.6295 123.1 60.7844C123.035 60.9393 123.001 61.1055 123 61.2735V145.721C123 145.889 123.034 146.056 123.099 146.212C123.164 146.367 123.259 146.508 123.38 146.627C123.5 146.746 123.643 146.84 123.8 146.904C123.957 146.968 124.125 147.001 124.295 147H260.705Z" fill="white"/>
<path d="M261.355 146.71V61.2899C261.354 61.1191 261.285 60.9558 261.163 60.8355C261.041 60.7153 260.876 60.6478 260.705 60.6478H124.295C124.124 60.6478 123.959 60.7153 123.837 60.8355C123.715 60.9558 123.646 61.1191 123.645 61.2899V146.71C123.646 146.881 123.715 147.045 123.837 147.167C123.958 147.288 124.123 147.356 124.295 147.358H260.705C260.877 147.356 261.042 147.288 261.163 147.167C261.285 147.045 261.354 146.881 261.355 146.71ZM262 146.71C262.001 146.88 261.968 147.048 261.903 147.205C261.838 147.361 261.743 147.504 261.622 147.624C261.502 147.744 261.359 147.839 261.201 147.903C261.044 147.968 260.875 148.001 260.705 148H124.295C124.125 148.001 123.956 147.968 123.799 147.903C123.641 147.839 123.498 147.744 123.378 147.624C123.257 147.504 123.162 147.361 123.097 147.205C123.032 147.048 122.999 146.88 123 146.71V61.2899C123 60.9478 123.136 60.6197 123.379 60.3778C123.622 60.1359 123.952 60 124.295 60H260.705C261.048 60 261.378 60.1359 261.621 60.3778C261.864 60.6197 262 60.9478 262 61.2899V146.71Z" fill="#333333"/>
<g filter="url(#filter0_d)">
<path d="M222.881 94.1027C222.881 93.9411 223.017 93.8101 223.184 93.8101H250.032C250.2 93.8101 250.336 93.9411 250.336 94.1027V109.408C250.336 109.569 250.2 109.7 250.032 109.7H223.184C223.017 109.7 222.881 109.569 222.881 109.408V94.1027Z" fill="#EFEFEF"/>
</g>
<path fill-rule="evenodd" clip-rule="evenodd" d="M223.184 93.5171H250.032C250.367 93.5171 250.639 93.7791 250.639 94.1024V109.408C250.639 109.731 250.367 109.993 250.032 109.993H223.184C222.849 109.993 222.578 109.731 222.578 109.408V94.1024C222.578 93.7791 222.849 93.5171 223.184 93.5171ZM223.184 93.8097C223.017 93.8097 222.881 93.9408 222.881 94.1024V109.408C222.881 109.569 223.017 109.7 223.184 109.7H250.032C250.2 109.7 250.336 109.569 250.336 109.408V94.1024C250.336 93.9408 250.2 93.8097 250.032 93.8097H223.184Z" fill="#D8D8D8"/>
<mask id="mask0" mask-type="alpha" maskUnits="userSpaceOnUse" x="222" y="95" width="26" height="15">
<path d="M222.84 95.0181H247.155V109.7H222.84V95.0181Z" fill="#EFEFEF"/>
</mask>
<g mask="url(#mask0)">
<path d="M228.349 99.063L236.284 109.677H220.204L228.349 99.063Z" fill="url(#paint0_linear)"/>
<path d="M228.35 99.0615L230.167 101.451L229.127 101.11L228.346 101.792L227.566 101.11L226.517 101.44L228.35 99.0615Z" fill="white"/>
<path d="M236.679 101.464L244.557 112.028H228.594L236.679 101.464Z" fill="url(#paint1_linear)"/>
<path d="M236.668 101.464L238.617 103.971L237.503 103.612L236.668 104.329L235.833 103.612L234.719 103.971L236.668 101.464Z" fill="white"/>
</g>
<path d="M248.809 96.7206C248.809 97.4789 248.195 98.0936 247.437 98.0936C246.678 98.0936 246.064 97.4789 246.064 96.7206C246.064 95.9624 246.678 95.3477 247.437 95.3477C248.195 95.3477 248.809 95.9624 248.809 96.7206Z" fill="url(#paint2_linear)"/>
<path d="M140.321 157.29H175.802V157.432H183.938V157.295H202.454V157.466H213.43V157.295H272.518C274.336 157.238 276.139 156.944 277.881 156.42C278.724 156.154 279.546 155.825 280.341 155.437H233.185V155H224.504V155.403L213.425 155.205V155.068H202.454V155.403L184.591 155.159H175.802V155.46L142.281 155.023L141.713 155.159L130.844 155.261L103.21 155.159C103.925 155.88 104.772 156.459 105.704 156.863C107.675 157.471 110.17 157.471 111.76 157.471H130.833L139.242 157.676L140.321 157.29Z" fill="#AAAAAA"/>
<path d="M280.023 155.432L280.887 154.864H102.943L103.511 155.432H280.023Z" fill="#333333"/>
<path d="M103.255 151.591V154.938C104.391 156.108 107.164 157.449 112.635 157.278L271.183 157.358C273.169 157.22 275.138 156.893 277.063 156.381C277.926 156.176 280.733 155.108 280.767 154.801V151.591C221.612 151.694 162.439 151.591 103.255 151.591ZM112.635 158C109.584 158 106.386 158 103.147 155.869C102.835 155.591 102.579 155.42 102.579 154.938V152.046C102.605 151.757 102.734 151.487 102.942 151.285C103.151 151.084 103.426 150.965 103.715 150.949H280.472C280.603 150.94 280.735 150.96 280.858 151.008C280.982 151.055 281.093 151.128 281.185 151.223C281.277 151.317 281.347 151.431 281.391 151.555C281.434 151.68 281.45 151.812 281.438 151.944V154.903L281.398 154.938C281.266 155.255 281.021 155.512 280.71 155.659C279.519 156.346 278.235 156.856 276.898 157.176C275.054 157.659 273.162 157.936 271.256 158H112.635Z" fill="#333333"/>
<path opacity="0.6" d="M157.121 89.8926H132.185C132.141 89.8919 132.097 89.9 132.056 89.9166C132.015 89.9332 131.978 89.9578 131.946 89.9891C131.915 90.0204 131.891 90.0576 131.874 90.0986C131.857 90.1397 131.849 90.1836 131.85 90.2278C131.849 90.2723 131.857 90.3165 131.874 90.3579C131.89 90.3992 131.915 90.4368 131.946 90.4685C131.977 90.5003 132.015 90.5255 132.056 90.5427C132.097 90.5599 132.141 90.5687 132.185 90.5687H157.127C157.216 90.5672 157.302 90.5306 157.364 90.4669C157.427 90.4031 157.462 90.3173 157.462 90.2278C157.462 90.1833 157.453 90.1393 157.436 90.0982C157.419 90.0572 157.394 90.02 157.362 89.9888C157.33 89.9576 157.293 89.933 157.251 89.9165C157.21 89.9 157.166 89.8919 157.121 89.8926Z" fill="white"/>
<path d="M256.115 66.9287H145.196C144.778 66.9287 144.378 66.7629 144.083 66.4678C143.788 66.1726 143.622 65.7723 143.622 65.355C143.622 64.9376 143.788 64.5373 144.083 64.2422C144.378 63.947 144.778 63.7812 145.196 63.7812H256.115C256.533 63.7812 256.933 63.947 257.228 64.2422C257.523 64.5373 257.689 64.9376 257.689 65.355C257.689 65.7723 257.523 66.1726 257.228 66.4678C256.933 66.7629 256.533 66.9287 256.115 66.9287ZM145.196 64.3664C144.934 64.3664 144.682 64.4706 144.497 64.656C144.311 64.8413 144.207 65.0928 144.207 65.355C144.207 65.6171 144.311 65.8686 144.497 66.054C144.682 66.2394 144.934 66.3435 145.196 66.3435H256.115C256.377 66.3435 256.629 66.2394 256.814 66.054C257 65.8686 257.104 65.6171 257.104 65.355C257.104 65.0928 257 64.8413 256.814 64.656C256.629 64.4706 256.377 64.3664 256.115 64.3664H145.196Z" fill="#CCCCCC"/>
<path d="M165.439 151.75H119.118L119.084 151.785V151.75H103.21V154.813H280.801V151.608C248.102 151.677 215.419 151.711 182.75 151.711H182.444C176.796 151.75 171.115 151.75 165.439 151.75Z" fill="#F2F2F2"/>
<path d="M129.151 66.8439C129.939 66.8439 130.577 66.2207 130.577 65.452C130.577 64.6832 129.939 64.0601 129.151 64.0601C128.364 64.0601 127.725 64.6832 127.725 65.452C127.725 66.2207 128.364 66.8439 129.151 66.8439Z" fill="#CCCCCC"/>
<path d="M133.231 66.8439C134.018 66.8439 134.657 66.2207 134.657 65.452C134.657 64.6832 134.018 64.0601 133.231 64.0601C132.443 64.0601 131.805 64.6832 131.805 65.452C131.805 66.2207 132.443 66.8439 133.231 66.8439Z" fill="#CCCCCC"/>
<path d="M137.304 66.8439C138.092 66.8439 138.73 66.2207 138.73 65.452C138.73 64.6832 138.092 64.0601 137.304 64.0601C136.517 64.0601 135.878 64.6832 135.878 65.452C135.878 66.2207 136.517 66.8439 137.304 66.8439Z" fill="#CCCCCC"/>
<path d="M180.38 78.7461H130.124C129.411 78.7461 128.833 79.2548 128.833 79.8823C128.833 80.5099 129.411 81.0186 130.124 81.0186H180.38C181.093 81.0186 181.671 80.5099 181.671 79.8823C181.671 79.2548 181.093 78.7461 180.38 78.7461Z" fill="#B2B2B2"/>
<path opacity="0.4" d="M130.467 93.518H199.923C200.192 93.5072 200.456 93.5905 200.656 93.7496C200.855 93.9087 200.975 94.1307 200.988 94.3668C200.982 94.4842 200.95 94.5994 200.893 94.7058C200.837 94.8123 200.756 94.9079 200.657 94.9872C200.558 95.0665 200.443 95.1279 200.317 95.168C200.191 95.208 200.057 95.2259 199.923 95.2206H130.467C130.333 95.2259 130.199 95.208 130.073 95.168C129.947 95.1279 129.831 95.0665 129.732 94.9872C129.633 94.9079 129.553 94.8123 129.496 94.7058C129.439 94.5994 129.407 94.4842 129.401 94.3668C129.415 94.1307 129.534 93.9087 129.734 93.7496C129.933 93.5905 130.197 93.5072 130.467 93.518Z" fill="#CCCCCC"/>
<path d="M246.894 98.6817C247.905 98.6817 248.724 97.8627 248.724 96.8523C248.724 95.842 247.905 95.0229 246.894 95.0229C245.884 95.0229 245.065 95.842 245.065 96.8523C245.065 97.8627 245.884 98.6817 246.894 98.6817Z" fill="white"/>
<path d="M222.578 124.237C222.582 124.075 222.621 123.916 222.692 123.768C222.764 123.621 222.866 123.488 222.994 123.378C223.122 123.269 223.272 123.184 223.436 123.13C223.599 123.076 223.773 123.053 223.946 123.063C224.307 123.041 224.663 123.151 224.938 123.371C225.213 123.59 225.385 123.901 225.418 124.237V133.744C225.39 134.088 225.222 134.409 224.948 134.641C224.675 134.872 224.316 134.998 223.946 134.99C223.769 134.993 223.592 134.962 223.427 134.901C223.262 134.84 223.111 134.748 222.984 134.633C222.857 134.517 222.756 134.379 222.686 134.226C222.616 134.074 222.579 133.91 222.578 133.744V124.237Z" fill="#ECECEC"/>
<path d="M227.691 129.456C227.719 129.103 227.887 128.772 228.16 128.534C228.433 128.295 228.791 128.166 229.159 128.174C229.337 128.17 229.514 128.201 229.68 128.264C229.845 128.327 229.996 128.42 230.124 128.54C230.251 128.659 230.353 128.801 230.423 128.959C230.493 129.116 230.53 129.285 230.532 129.456V133.708C230.53 133.879 230.493 134.048 230.423 134.205C230.353 134.363 230.251 134.505 230.124 134.624C229.996 134.744 229.845 134.838 229.68 134.9C229.514 134.963 229.337 134.994 229.159 134.991C228.791 134.998 228.433 134.869 228.16 134.63C227.887 134.392 227.719 134.062 227.691 133.708V129.456Z" fill="#ECECEC"/>
<path d="M238.486 123.222C238.486 122.878 238.605 122.548 238.818 122.304C239.032 122.061 239.321 121.924 239.622 121.924C239.923 121.924 240.212 122.061 240.425 122.304C240.639 122.548 240.758 122.878 240.758 123.222V133.692C240.758 134.037 240.639 134.367 240.425 134.61C240.212 134.854 239.923 134.991 239.622 134.991C239.321 134.991 239.032 134.854 238.818 134.61C238.605 134.367 238.486 134.037 238.486 133.692V123.222Z" fill="#ECECEC"/>
<path d="M232.804 128.702C232.864 128.395 233.039 128.116 233.298 127.916C233.558 127.715 233.886 127.605 234.225 127.605C234.563 127.605 234.891 127.715 235.151 127.916C235.41 128.116 235.585 128.395 235.645 128.702V133.893C235.585 134.201 235.41 134.479 235.151 134.68C234.891 134.881 234.563 134.991 234.225 134.991C233.886 134.991 233.558 134.881 233.298 134.68C233.039 134.479 232.864 134.201 232.804 133.893V128.702Z" fill="#ECECEC"/>
<path d="M243.434 118.947C243.434 118.615 243.566 118.297 243.8 118.063C244.035 117.828 244.353 117.697 244.684 117.697C245.016 117.697 245.334 117.828 245.568 118.063C245.802 118.297 245.934 118.615 245.934 118.947V133.718C245.934 134.05 245.802 134.367 245.568 134.602C245.334 134.836 245.016 134.968 244.684 134.968C244.353 134.968 244.035 134.836 243.8 134.602C243.566 134.367 243.434 134.05 243.434 133.718V118.947Z" fill="#ECECEC"/>
<path d="M147.075 118.379C147.359 118.379 147.632 118.266 147.833 118.066C148.035 117.866 148.149 117.594 148.15 117.31V46.727C148.15 46.5861 148.122 46.4467 148.068 46.3167C148.014 46.1866 147.935 46.0686 147.835 45.9692C147.735 45.8699 147.617 45.7913 147.486 45.7379C147.356 45.6846 147.216 45.6575 147.075 45.6582H33.8912C33.7503 45.6575 33.6107 45.6846 33.4803 45.7379C33.3499 45.7913 33.2314 45.8699 33.1315 45.9692C33.0316 46.0686 32.9523 46.1866 32.8982 46.3167C32.8441 46.4467 32.8163 46.5861 32.8163 46.727V117.31C32.8178 117.594 32.9317 117.866 33.1331 118.066C33.3345 118.266 33.6071 118.379 33.8912 118.379H147.075Z" fill="white"/>
<path d="M147.459 116.915V45.0853C147.459 44.9338 147.399 44.7885 147.293 44.6814C147.186 44.5743 147.041 44.5141 146.89 44.5141H33.0811C32.9302 44.5141 32.7855 44.5743 32.6788 44.6814C32.5721 44.7885 32.5121 44.9338 32.5121 45.0853V116.915C32.5194 117.061 32.5826 117.199 32.6885 117.3C32.7944 117.401 32.935 117.458 33.0811 117.457H146.919C147.06 117.45 147.194 117.391 147.293 117.291C147.393 117.19 147.453 117.056 147.459 116.915ZM148 116.915C148 117.203 147.886 117.479 147.683 117.682C147.481 117.886 147.206 118 146.919 118H33.0811C32.9392 118 32.7986 117.972 32.6674 117.917C32.5362 117.863 32.417 117.783 32.3167 117.682C32.2163 117.581 32.1366 117.462 32.0823 117.33C32.028 117.198 32 117.057 32 116.915V45.0853C32 44.9428 32.028 44.8016 32.0823 44.67C32.1366 44.5383 32.2163 44.4187 32.3167 44.3179C32.417 44.2171 32.5362 44.1372 32.6674 44.0826C32.7986 44.0281 32.9392 44 33.0811 44H146.919C147.206 44 147.481 44.1143 147.683 44.3179C147.886 44.5214 148 44.7975 148 45.0853V116.915Z" fill="#AFAFAF"/>
<path opacity="0.6" d="M60.5305 69.48H39.509C39.4337 69.48 39.3615 69.5099 39.3082 69.5632C39.2549 69.6165 39.225 69.6887 39.225 69.764C39.225 69.8394 39.2549 69.9116 39.3082 69.9649C39.3615 70.0182 39.4337 70.0481 39.509 70.0481H60.5589C60.6343 70.0481 60.7065 70.0182 60.7598 69.9649C60.8131 69.9116 60.843 69.8394 60.843 69.764C60.843 69.6887 60.8131 69.6165 60.7598 69.5632C60.7065 69.5099 60.6343 69.48 60.5589 69.48H60.5305Z" fill="white"/>
<path d="M142.603 48.9979H50.2257C49.8934 48.9813 49.5819 48.8689 49.3543 48.6836C49.1267 48.4983 49 48.2539 49 48C49 47.7461 49.1267 47.5017 49.3543 47.3164C49.5819 47.1311 49.8934 47.0187 50.2257 47.0021H142.603C142.782 46.9932 142.962 47.0124 143.13 47.0585C143.299 47.1046 143.454 47.1766 143.585 47.2702C143.716 47.3637 143.82 47.4767 143.892 47.6023C143.963 47.7278 144 47.8632 144 48C144 48.1368 143.963 48.2722 143.892 48.3977C143.82 48.5233 143.716 48.6363 143.585 48.7298C143.454 48.8234 143.299 48.8954 143.13 48.9415C142.962 48.9876 142.782 49.0068 142.603 48.9979ZM50.2481 47.3697C50.0296 47.3697 49.8201 47.4358 49.6656 47.5537C49.5111 47.6715 49.4243 47.8313 49.4243 47.9979C49.4243 48.1645 49.5111 48.3243 49.6656 48.4421C49.8201 48.5599 50.0296 48.6261 50.2481 48.6261H142.603C142.821 48.6261 143.031 48.5599 143.185 48.4421C143.34 48.3243 143.427 48.1645 143.427 47.9979C143.427 47.8313 143.34 47.6715 143.185 47.5537C143.031 47.4358 142.821 47.3697 142.603 47.3697H50.2481Z" fill="#CCCCCC"/>
<path d="M36.924 50.0215C37.5892 50.0215 38.1284 49.495 38.1284 48.8455C38.1284 48.196 37.5892 47.6694 36.924 47.6694C36.2587 47.6694 35.7195 48.196 35.7195 48.8455C35.7195 49.495 36.2587 50.0215 36.924 50.0215Z" fill="#CCCCCC"/>
<path d="M40.3612 50.0215C41.0264 50.0215 41.5657 49.495 41.5657 48.8455C41.5657 48.196 41.0264 47.6694 40.3612 47.6694C39.696 47.6694 39.1567 48.196 39.1567 48.8455C39.1567 49.495 39.696 50.0215 40.3612 50.0215Z" fill="#CCCCCC"/>
<path d="M43.8042 50.0215C44.4694 50.0215 45.0087 49.495 45.0087 48.8455C45.0087 48.196 44.4694 47.6694 43.8042 47.6694C43.139 47.6694 42.5997 48.196 42.5997 48.8455C42.5997 49.495 43.139 50.0215 43.8042 50.0215Z" fill="#CCCCCC"/>
<path d="M78.9297 58H37.0703C36.4792 58 36 58.4465 36 58.9974V59.0026C36 59.5535 36.4792 60 37.0703 60H78.9297C79.5208 60 80 59.5535 80 59.0026V58.9974C80 58.4465 79.5208 58 78.9297 58Z" fill="#BDECFF"/>
<path d="M335.105 144C335.222 144.001 335.338 143.978 335.447 143.933C335.556 143.889 335.654 143.823 335.738 143.74C335.821 143.656 335.887 143.557 335.932 143.448C335.977 143.339 336 143.222 336 143.104V83.89C335.999 83.7723 335.975 83.656 335.93 83.5476C335.885 83.4392 335.819 83.3409 335.735 83.2583C335.652 83.1756 335.554 83.1103 335.446 83.066C335.337 83.0217 335.222 82.9993 335.105 83H240.895C240.778 82.9993 240.662 83.0219 240.553 83.0665C240.444 83.1112 240.346 83.1771 240.262 83.2603C240.179 83.3436 240.113 83.4426 240.068 83.5516C240.023 83.6607 240 83.7777 240 83.8958V143.104C240 143.222 240.023 143.339 240.068 143.448C240.113 143.557 240.179 143.656 240.262 143.74C240.346 143.823 240.444 143.889 240.553 143.933C240.662 143.978 240.778 144.001 240.895 144H335.105Z" fill="white"/>
<path d="M335.555 143.105V83.895C335.555 83.7755 335.508 83.661 335.423 83.5765C335.339 83.492 335.224 83.4446 335.105 83.4446H240.895C240.776 83.4446 240.661 83.492 240.577 83.5765C240.492 83.661 240.445 83.7755 240.445 83.895V143.105C240.445 143.164 240.456 143.222 240.479 143.277C240.502 143.331 240.535 143.38 240.577 143.421C240.619 143.463 240.669 143.495 240.723 143.517C240.778 143.539 240.836 143.55 240.895 143.55H335.105C335.164 143.55 335.222 143.539 335.277 143.517C335.331 143.495 335.381 143.463 335.423 143.421C335.465 143.38 335.498 143.331 335.521 143.277C335.544 143.222 335.555 143.164 335.555 143.105ZM336 143.105C336 143.342 335.906 143.57 335.738 143.738C335.57 143.906 335.342 144 335.105 144H240.895C240.778 144 240.661 143.977 240.553 143.932C240.444 143.887 240.345 143.821 240.262 143.738C240.179 143.655 240.113 143.556 240.068 143.448C240.023 143.339 240 143.223 240 143.105V83.895C239.999 83.7772 240.022 83.6605 240.067 83.5516C240.111 83.4426 240.177 83.3437 240.26 83.2604C240.344 83.1772 240.443 83.1113 240.552 83.0666C240.661 83.0219 240.777 82.9993 240.895 83H335.105C335.223 82.9993 335.339 83.0219 335.448 83.0666C335.557 83.1113 335.656 83.1772 335.74 83.2604C335.823 83.3437 335.889 83.4426 335.933 83.5516C335.978 83.6605 336.001 83.7772 336 83.895V143.105Z" fill="#AFAFAF"/>
<path opacity="0.6" d="M263.683 103.897H246.514C246.452 103.897 246.393 103.922 246.349 103.965C246.305 104.009 246.281 104.068 246.281 104.13C246.281 104.192 246.305 104.251 246.349 104.295C246.393 104.338 246.452 104.363 246.514 104.363H263.683C263.745 104.363 263.804 104.338 263.848 104.295C263.891 104.251 263.916 104.192 263.916 104.13C263.916 104.068 263.891 104.009 263.848 103.965C263.804 103.922 263.745 103.897 263.683 103.897Z" fill="white"/>
<path d="M331.832 88.12H255.473C255.324 88.1308 255.175 88.1108 255.034 88.0613C254.894 88.0118 254.765 87.9339 254.656 87.8323C254.546 87.7308 254.459 87.6078 254.4 87.4711C254.34 87.3344 254.31 87.1869 254.31 87.0378C254.31 86.8887 254.34 86.7411 254.4 86.6044C254.459 86.4677 254.546 86.3448 254.656 86.2432C254.765 86.1417 254.894 86.0637 255.034 86.0142C255.175 85.9647 255.324 85.9447 255.473 85.9555H331.832C332.106 85.9753 332.362 86.0979 332.548 86.2987C332.735 86.4995 332.839 86.7636 332.839 87.0378C332.839 87.312 332.735 87.576 332.548 87.7768C332.362 87.9776 332.106 88.1002 331.832 88.12ZM255.473 86.3248C255.292 86.3248 255.119 86.3966 254.991 86.5244C254.863 86.6523 254.791 86.8257 254.791 87.0065C254.791 87.1873 254.863 87.3607 254.991 87.4886C255.119 87.6164 255.292 87.6883 255.473 87.6883H331.832C332.013 87.6883 332.186 87.6164 332.314 87.4886C332.442 87.3607 332.514 87.1873 332.514 87.0065C332.514 86.8257 332.442 86.6523 332.314 86.5244C332.186 86.3966 332.013 86.3248 331.832 86.3248H255.473Z" fill="#CCCCCC"/>
<path d="M244.983 87.9203C245.526 87.9203 245.966 87.4904 245.966 86.9601C245.966 86.4299 245.526 86 244.983 86C244.44 86 244 86.4299 244 86.9601C244 87.4904 244.44 87.9203 244.983 87.9203Z" fill="#CCCCCC"/>
<path d="M247.79 87.9203C248.332 87.9203 248.772 87.4904 248.772 86.9601C248.772 86.4299 248.332 86 247.79 86C247.247 86 246.807 86.4299 246.807 86.9601C246.807 87.4904 247.247 87.9203 247.79 87.9203Z" fill="#CCCCCC"/>
<path d="M250.596 87.9203C251.139 87.9203 251.579 87.4904 251.579 86.9601C251.579 86.4299 251.139 86 250.596 86C250.053 86 249.613 86.4299 249.613 86.9601C249.613 87.4904 250.053 87.9203 250.596 87.9203Z" fill="#CCCCCC"/>
<path d="M279.31 96H244.881C244.394 96 244 96.3943 244 96.8806V96.8863C244 97.3726 244.394 97.7669 244.881 97.7669H279.31C279.797 97.7669 280.191 97.3726 280.191 96.8863V96.8806C280.191 96.3943 279.797 96 279.31 96Z" fill="url(#paint3_linear)"/>
<path d="M246 58.5C246 61.7634 246.968 64.9535 248.781 67.6669C250.594 70.3803 253.171 72.4952 256.186 73.744C259.201 74.9929 262.518 75.3196 265.719 74.683C268.92 74.0463 271.86 72.4748 274.167 70.1673C276.475 67.8597 278.046 64.9197 278.683 61.719C279.32 58.5183 278.993 55.2007 277.744 52.1857C276.495 49.1707 274.38 46.5938 271.667 44.7807C268.953 42.9677 265.763 42 262.5 42C258.127 42.0109 253.937 43.7528 250.845 46.8448C247.753 49.9368 246.011 54.1273 246 58.5ZM263.478 48.5764V59.0304L271.569 67.4336C271.686 67.5437 271.779 67.6766 271.843 67.8241C271.906 67.9715 271.939 68.1304 271.939 68.291C271.939 68.4516 271.906 68.6104 271.843 68.7579C271.779 68.9053 271.686 69.0382 271.569 69.1484C271.337 69.3719 271.025 69.4943 270.703 69.4888C270.38 69.4833 270.073 69.3503 269.848 69.1189L261.386 60.3621C261.169 60.1331 261.049 59.8291 261.05 59.5136V48.5764C261.05 48.2545 261.178 47.9457 261.406 47.7181C261.634 47.4904 261.942 47.3625 262.264 47.3625C262.586 47.3625 262.895 47.4904 263.123 47.7181C263.35 47.9457 263.478 48.2545 263.478 48.5764Z" fill="#EFEFEF"/>
<path d="M244.282 58.9901C244.282 62.6941 245.38 66.315 247.438 69.3947C249.496 72.4745 252.421 74.8749 255.843 76.2924C259.266 77.7099 263.031 78.0807 266.664 77.3581C270.297 76.6355 273.634 74.8518 276.253 72.2327C278.873 69.6136 280.656 66.2766 281.379 62.6437C282.102 59.0109 281.731 55.2453 280.313 51.8232C278.896 48.4012 276.495 45.4763 273.415 43.4184C270.336 41.3606 266.715 40.2622 263.01 40.2622C258.043 40.2622 253.28 42.2353 249.767 45.7475C246.255 49.2596 244.282 54.0231 244.282 58.9901ZM278.819 58.9901C278.819 62.1121 277.893 65.164 276.158 67.7598C274.424 70.3557 271.958 72.3789 269.074 73.5736C266.189 74.7684 263.015 75.0809 259.953 74.4719C256.891 73.8628 254.079 72.3594 251.871 70.1518C249.663 67.9443 248.16 65.1316 247.551 62.0696C246.942 59.0076 247.254 55.8337 248.449 52.9494C249.644 50.0651 251.667 47.5998 254.263 45.8653C256.859 44.1308 259.911 43.205 263.033 43.205C267.216 43.2154 271.225 44.8818 274.184 47.8399C277.142 50.7979 278.808 54.8068 278.819 58.9901Z" fill="#CCCCCC"/>
<path d="M263.01 78C259.25 78 255.575 76.8851 252.449 74.7963C249.323 72.7075 246.886 69.7385 245.447 66.265C244.008 62.7914 243.632 58.9692 244.365 55.2816C245.099 51.5941 246.909 48.2069 249.568 45.5483C252.227 42.8897 255.614 41.0792 259.302 40.3457C262.989 39.6122 266.812 39.9887 270.285 41.4275C273.759 42.8663 276.728 45.3028 278.817 48.429C280.906 51.5551 282.021 55.2305 282.021 58.9902C282.015 64.0301 280.01 68.8619 276.446 72.4256C272.882 75.9893 268.05 77.994 263.01 78ZM263.01 40.5442C259.362 40.5442 255.796 41.6261 252.762 43.6529C249.728 45.6798 247.364 48.5607 245.968 51.9313C244.572 55.3018 244.206 59.0107 244.918 62.5889C245.63 66.1671 247.387 69.4538 249.967 72.0335C252.546 74.6133 255.833 76.3701 259.412 77.0818C262.99 77.7936 266.699 77.4283 270.07 76.0321C273.44 74.636 276.321 72.2717 278.348 69.2383C280.375 66.2049 281.457 62.6385 281.457 58.9902C281.451 54.0999 279.506 49.4115 276.047 45.9535C272.589 42.4955 267.901 40.5502 263.01 40.5442ZM263.01 75.0798C259.828 75.0798 256.717 74.1361 254.071 72.3682C251.425 70.6002 249.363 68.0874 248.145 65.1474C246.927 62.2075 246.609 58.9724 247.23 55.8513C247.85 52.7303 249.383 49.8634 251.633 47.6132C253.883 45.3631 256.75 43.8307 259.871 43.2099C262.993 42.5891 266.228 42.9077 269.168 44.1255C272.108 45.3432 274.621 47.4055 276.389 50.0514C278.157 52.6973 279.1 55.808 279.1 58.9902C279.096 63.2561 277.399 67.3459 274.383 70.3623C271.366 73.3787 267.276 75.0753 263.01 75.0798ZM263.01 43.4645C259.94 43.4645 256.938 44.375 254.384 46.081C251.831 47.787 249.841 50.2118 248.666 53.0488C247.491 55.8857 247.183 59.0075 247.782 62.0192C248.382 65.0309 249.86 67.7973 252.032 69.9686C254.203 72.1399 256.97 73.6186 259.981 74.2177C262.993 74.8167 266.115 74.5093 268.952 73.3342C271.789 72.1591 274.214 70.1691 275.92 67.6159C277.626 65.0627 278.537 62.0609 278.537 58.9902C278.532 54.8739 276.895 50.9275 273.984 48.0168C271.073 45.1061 267.127 43.4689 263.01 43.4645Z" fill="#333333"/>
<path d="M39.0857 36.5684H9.24665C7.47539 36.5684 5.77668 37.2968 4.52421 38.5933C3.27174 39.8898 2.56812 41.6483 2.56812 43.4819V52.9647C2.56812 54.7983 3.27174 56.5568 4.52421 57.8534C5.77668 59.1499 7.47539 59.8783 9.24665 59.8783H30.8278L37.9463 67.2473V59.8783H39.0744C40.8447 59.8768 42.542 59.1477 43.7932 57.8513C45.0445 56.5549 45.7473 54.7973 45.7473 52.9647V43.4819C45.7473 41.6514 45.046 39.8955 43.7972 38.5995C42.5484 37.3034 40.854 36.573 39.0857 36.5684Z" fill="#BDECFF"/>
<path d="M38.403 68.3834L30.7876 60.4263H9.07837C8.15038 60.4295 7.23092 60.2413 6.37264 59.8726C5.51436 59.5039 4.73412 58.9619 4.07661 58.2777C3.41909 57.5934 2.89723 56.7804 2.54089 55.8851C2.18455 54.9898 2.00075 54.0298 2 53.0602V43.3661C2.00151 41.413 2.74474 39.5403 4.06651 38.1592C5.38828 36.7782 7.18054 36.0016 9.0498 36H39.2714C41.1401 36.0016 42.9318 36.7783 44.2527 38.1596C45.5735 39.5408 46.3155 41.4135 46.3155 43.3661V53.0602C46.314 55.0123 45.5715 56.8841 44.251 58.265C42.9305 59.6459 41.1397 60.4232 39.2714 60.4263H38.403V68.3834ZM9.0498 36.5969C7.33252 36.6001 5.68645 37.3143 4.47214 38.5831C3.25784 39.8518 2.57432 41.5718 2.5713 43.3661V53.0602C2.57432 54.8545 3.25784 56.5745 4.47214 57.8433C5.68645 59.112 7.33252 59.8262 9.0498 59.8294H31.0276L37.8317 66.9388V59.8294H39.2714C40.9882 59.8262 42.6336 59.1118 43.847 57.8429C45.0604 56.5739 45.7427 54.854 45.7442 53.0602V43.3661C45.7427 41.5723 45.0604 39.8524 43.847 38.5834C42.6336 37.3145 40.9882 36.6001 39.2714 36.5969H9.0498Z" fill="#333333"/>
<path d="M14.2152 50.2035C15.3134 50.2035 16.2037 49.3132 16.2037 48.215C16.2037 47.1168 15.3134 46.2266 14.2152 46.2266C13.117 46.2266 12.2267 47.1168 12.2267 48.215C12.2267 49.3132 13.117 50.2035 14.2152 50.2035Z" fill="white"/>
<path d="M14.2208 50.7714C13.7149 50.7725 13.2201 50.6235 12.7989 50.3433C12.3777 50.0631 12.0491 49.6642 11.8547 49.1971C11.6603 48.7301 11.6089 48.2158 11.7069 47.7195C11.8049 47.2232 12.0479 46.7672 12.4052 46.409C12.7626 46.0509 13.2181 45.8069 13.7142 45.7077C14.2103 45.6086 14.7247 45.6589 15.1922 45.8523C15.6597 46.0456 16.0593 46.3733 16.3405 46.7938C16.6217 47.2144 16.7718 47.7089 16.7718 48.2148C16.7718 48.8918 16.5032 49.5412 16.025 50.0205C15.5467 50.4998 14.8979 50.7698 14.2208 50.7714ZM14.2208 46.2372C13.8281 46.236 13.4438 46.3515 13.1168 46.569C12.7897 46.7865 12.5346 47.0962 12.3838 47.4589C12.2329 47.8215 12.1932 48.2208 12.2695 48.606C12.3459 48.9913 12.5349 49.3452 12.8126 49.6229C13.0904 49.9007 13.4443 50.0897 13.8296 50.166C14.2149 50.2424 14.6141 50.2026 14.9768 50.0518C15.3394 49.901 15.6491 49.6459 15.8667 49.3188C16.0842 48.9918 16.1997 48.6075 16.1985 48.2148C16.197 47.6907 15.9882 47.1886 15.6176 46.8181C15.247 46.4475 14.7449 46.2387 14.2208 46.2372Z" fill="#333333"/>
<path d="M23.8736 50.2035C24.9719 50.2035 25.8622 49.3132 25.8622 48.215C25.8622 47.1168 24.9719 46.2266 23.8736 46.2266C22.7754 46.2266 21.8851 47.1168 21.8851 48.215C21.8851 49.3132 22.7754 50.2035 23.8736 50.2035Z" fill="white"/>
<path d="M23.8508 50.7713C23.3461 50.7667 22.8541 50.613 22.4366 50.3293C22.0192 50.0456 21.6951 49.6448 21.5051 49.1773C21.3151 48.7097 21.2677 48.1964 21.369 47.702C21.4702 47.2076 21.7155 46.7542 22.0739 46.399C22.4324 46.0437 22.888 45.8025 23.3833 45.7057C23.8786 45.6089 24.3915 45.6608 24.8573 45.855C25.3231 46.0491 25.7211 46.3768 26.001 46.7967C26.2809 47.2167 26.4303 47.71 26.4303 48.2147C26.4304 48.5524 26.3635 48.8867 26.2336 49.1984C26.1036 49.5101 25.9133 49.7929 25.6734 50.0306C25.4336 50.2683 25.149 50.4562 24.8362 50.5833C24.5233 50.7104 24.1884 50.7743 23.8508 50.7713ZM23.8508 46.2371C23.4592 46.2416 23.0778 46.3619 22.7546 46.5828C22.4313 46.8037 22.1806 47.1154 22.0342 47.4785C21.8878 47.8416 21.8521 48.24 21.9317 48.6233C22.0112 49.0067 22.2025 49.3579 22.4813 49.6328C22.7602 49.9076 23.1141 50.0938 23.4986 50.1679C23.8831 50.2419 24.2809 50.2005 24.6419 50.0488C25.0029 49.8972 25.3109 49.6421 25.5271 49.3157C25.7434 48.9893 25.8582 48.6062 25.8571 48.2147C25.8556 47.953 25.8025 47.6942 25.7008 47.453C25.599 47.2119 25.4508 46.9932 25.2644 46.8095C25.078 46.6258 24.8572 46.4806 24.6146 46.3824C24.372 46.2842 24.1125 46.2348 23.8508 46.2371Z" fill="#333333"/>
<path d="M33.5322 50.2035C34.6304 50.2035 35.5207 49.3132 35.5207 48.215C35.5207 47.1168 34.6304 46.2266 33.5322 46.2266C32.434 46.2266 31.5437 47.1168 31.5437 48.215C31.5437 49.3132 32.434 50.2035 33.5322 50.2035Z" fill="white"/>
<path d="M33.5321 50.7714C33.0265 50.7714 32.5322 50.6214 32.1117 50.3405C31.6913 50.0596 31.3636 49.6603 31.1701 49.1931C30.9766 48.726 30.9259 48.2119 31.0246 47.716C31.1232 47.2201 31.3667 46.7646 31.7243 46.407C32.0819 46.0495 32.5374 45.806 33.0333 45.7073C33.5293 45.6087 34.0433 45.6593 34.5105 45.8528C34.9777 46.0463 35.377 46.374 35.6579 46.7944C35.9388 47.2149 36.0888 47.7091 36.0888 48.2148C36.0888 48.8928 35.8194 49.5431 35.34 50.0226C34.8605 50.502 34.2102 50.7714 33.5321 50.7714ZM33.5321 46.2372C33.1396 46.2372 32.7559 46.3536 32.4296 46.5718C32.1033 46.79 31.8491 47.1001 31.6991 47.4628C31.5492 47.8256 31.5103 48.2247 31.5872 48.6096C31.6642 48.9945 31.8537 49.3478 32.1317 49.625C32.4096 49.9021 32.7636 50.0906 33.1487 50.1665C33.5338 50.2423 33.9328 50.2022 34.2951 50.0513C34.6574 49.9003 34.9668 49.6452 35.1841 49.3182C35.4013 48.9913 35.5167 48.6073 35.5155 48.2148C35.514 47.6898 35.3044 47.1868 34.9326 46.816C34.5608 46.4453 34.0572 46.2372 33.5321 46.2372Z" fill="#333333"/>
<path d="M86.1607 84H71.8176C69.7442 84 67.7558 84.8805 66.2897 86.4476C64.8236 88.0148 64 90.1403 64 92.3567C64.001 94.1262 64.5271 95.8499 65.5026 97.2796C66.4782 98.7093 67.8529 99.7713 69.4289 100.313V106L74.3746 100.713H86.1824C88.2558 100.713 90.2442 99.8329 91.7103 98.2657C93.1764 96.6985 94 94.573 94 92.3567C94 91.2573 93.7971 90.1687 93.4029 89.1533C93.0086 88.138 92.4308 87.2157 91.7026 86.4394C90.9744 85.6631 90.11 85.0481 89.159 84.6295C88.208 84.2109 87.1891 83.997 86.1607 84Z" fill="url(#paint4_linear)"/>
<path d="M69.3693 106V100.518C67.5873 99.8674 66.0799 98.5594 65.1166 96.8284C64.1533 95.0975 63.797 93.0564 64.1113 91.0702C64.4257 89.084 65.3902 87.2822 66.8324 85.9869C68.2747 84.6916 70.1005 83.9874 71.9836 84.0002H86.0666C88.1707 84.0002 90.1886 84.8943 91.6764 86.4859C93.1642 88.0776 94 90.2363 94 92.4872C94 94.738 93.1642 96.8967 91.6764 98.4883C90.1886 100.08 88.1707 100.974 86.0666 100.974H74.5978L69.3693 106ZM71.9995 84.5869C70.236 84.5873 68.5305 85.2615 67.1904 86.4879C65.8503 87.7143 64.9636 89.4123 64.69 91.2761C64.4165 93.1399 64.774 95.0469 65.6983 96.6537C66.6226 98.2604 68.0528 99.4613 69.7313 100.04L69.9177 100.103V104.65L74.3902 100.444H86.1039C88.0667 100.444 89.9492 99.6103 91.3371 98.1255C92.7251 96.6407 93.5048 94.6268 93.5048 92.527C93.5048 90.4272 92.7251 88.4134 91.3371 86.9286C89.9492 85.4438 88.0667 84.6096 86.1039 84.6096L71.9995 84.5869Z" fill="#333333"/>
<path d="M85.6539 94.6534C86.5952 94.6534 87.3583 93.8903 87.3583 92.949C87.3583 92.0077 86.5952 91.2446 85.6539 91.2446C84.7126 91.2446 83.9495 92.0077 83.9495 92.949C83.9495 93.8903 84.7126 94.6534 85.6539 94.6534Z" fill="white"/>
<path d="M85.6539 94.6534C85.3168 94.6534 84.9873 94.5534 84.707 94.3662C84.4267 94.1789 84.2082 93.9127 84.0792 93.6013C83.9502 93.2898 83.9164 92.9471 83.9822 92.6165C84.048 92.2859 84.2103 91.9822 84.4487 91.7438C84.6871 91.5055 84.9907 91.3431 85.3214 91.2774C85.652 91.2116 85.9947 91.2454 86.3062 91.3744C86.6176 91.5034 86.8838 91.7218 87.0711 92.0021C87.2584 92.2824 87.3583 92.6119 87.3583 92.949C87.3583 93.401 87.1788 93.8346 86.8591 94.1542C86.5395 94.4738 86.1059 94.6534 85.6539 94.6534ZM85.6539 91.7707C85.4208 91.7707 85.193 91.8398 84.9992 91.9693C84.8054 92.0987 84.6544 92.2828 84.5652 92.4981C84.476 92.7134 84.4527 92.9503 84.4982 93.1789C84.5436 93.4075 84.6559 93.6174 84.8207 93.7822C84.9855 93.947 85.1954 94.0592 85.424 94.1047C85.6526 94.1502 85.8895 94.1268 86.1048 94.0377C86.3202 93.9485 86.5042 93.7974 86.6337 93.6037C86.7632 93.4099 86.8323 93.1821 86.8323 92.949C86.8323 92.6365 86.7081 92.3368 86.4871 92.1158C86.2662 91.8948 85.9664 91.7707 85.6539 91.7707Z" fill="#333333"/>
<path d="M79.4044 94.6534C80.3457 94.6534 81.1088 93.8903 81.1088 92.949C81.1088 92.0077 80.3457 91.2446 79.4044 91.2446C78.4631 91.2446 77.7 92.0077 77.7 92.949C77.7 93.8903 78.4631 94.6534 79.4044 94.6534Z" fill="white"/>
<path d="M79.4044 94.6534C79.0673 94.6534 78.7377 94.5534 78.4575 94.3662C78.1772 94.1789 77.9587 93.9127 77.8297 93.6013C77.7007 93.2898 77.6669 92.9471 77.7327 92.6165C77.7985 92.2859 77.9608 91.9822 78.1992 91.7438C78.4375 91.5055 78.7412 91.3431 79.0719 91.2774C79.4025 91.2116 79.7452 91.2454 80.0567 91.3744C80.3681 91.5034 80.6343 91.7218 80.8216 92.0021C81.0089 92.2824 81.1088 92.6119 81.1088 92.949C81.1074 93.4006 80.9274 93.8333 80.6081 94.1527C80.2887 94.472 79.856 94.652 79.4044 94.6534ZM79.4044 91.7707C79.1713 91.7707 78.9435 91.8398 78.7497 91.9693C78.5559 92.0987 78.4049 92.2828 78.3157 92.4981C78.2265 92.7134 78.2032 92.9503 78.2487 93.1789C78.2941 93.4075 78.4064 93.6174 78.5712 93.7822C78.736 93.947 78.9459 94.0592 79.1745 94.1047C79.4031 94.1502 79.64 94.1268 79.8553 94.0377C80.0707 93.9485 80.2547 93.7974 80.3842 93.6037C80.5137 93.4099 80.5828 93.1821 80.5828 92.949C80.5828 92.6365 80.4586 92.3368 80.2376 92.1158C80.0166 91.8948 79.7169 91.7707 79.4044 91.7707Z" fill="#333333"/>
<path d="M73.1548 94.6534C74.0961 94.6534 74.8592 93.8903 74.8592 92.949C74.8592 92.0077 74.0961 91.2446 73.1548 91.2446C72.2134 91.2446 71.4503 92.0077 71.4503 92.949C71.4503 93.8903 72.2134 94.6534 73.1548 94.6534Z" fill="white"/>
<path d="M73.1495 94.6534C72.8126 94.6524 72.4836 94.5515 72.204 94.3636C71.9244 94.1757 71.7068 93.9091 71.5786 93.5976C71.4504 93.2861 71.4174 92.9436 71.4837 92.6133C71.5501 92.283 71.7128 91.9798 71.9514 91.742C72.19 91.5041 72.4937 91.3423 72.8242 91.277C73.1547 91.2117 73.4971 91.2457 73.8082 91.3749C74.1194 91.504 74.3853 91.7225 74.5723 92.0027C74.7594 92.2828 74.8592 92.6121 74.8592 92.949C74.8592 93.1733 74.8149 93.3953 74.729 93.6025C74.643 93.8096 74.517 93.9977 74.3581 94.1561C74.1993 94.3144 74.0108 94.4398 73.8034 94.5252C73.596 94.6105 73.3738 94.6541 73.1495 94.6534ZM73.1495 91.7707C72.9167 91.7717 72.6894 91.8417 72.4963 91.9718C72.3032 92.1019 72.153 92.2863 72.0646 92.5017C71.9762 92.7171 71.9536 92.9539 71.9997 93.1821C72.0457 93.4103 72.1584 93.6198 72.3234 93.7841C72.4884 93.9483 72.6984 94.06 72.9268 94.1051C73.1552 94.1501 73.3919 94.1265 73.6069 94.0371C73.8219 93.9478 74.0057 93.7968 74.1349 93.6031C74.2642 93.4095 74.3331 93.1818 74.3331 92.949C74.3331 92.7938 74.3025 92.6402 74.2429 92.4969C74.1834 92.3535 74.0961 92.2234 73.9861 92.1139C73.8762 92.0044 73.7456 91.9178 73.6021 91.8588C73.4585 91.7999 73.3047 91.77 73.1495 91.7707Z" fill="#333333"/>
<path d="M312.152 108.97L312.083 108.897C311.97 108.766 311.76 108.522 312.652 101.63H306.038C304.956 101.629 303.918 101.198 303.153 100.432C302.389 99.6659 301.959 98.6278 301.959 97.5454V70.1104C301.96 69.029 302.391 67.9923 303.155 67.2277C303.92 66.463 304.957 66.0328 306.038 66.0312H371.943C373.025 66.0328 374.062 66.463 374.826 67.2277C375.591 67.9923 376.021 69.029 376.023 70.1104V97.5454C376.023 98.6278 375.593 99.6659 374.828 100.432C374.063 101.198 373.026 101.629 371.943 101.63H318.009C312.725 108.982 312.453 108.982 312.271 108.982L312.152 108.97ZM306.038 66.4517C305.069 66.4532 304.14 66.8393 303.455 67.5253C302.77 68.2113 302.385 69.141 302.385 70.1104V97.5454C302.39 98.5118 302.776 99.4372 303.461 100.12C304.145 100.802 305.072 101.186 306.038 101.187H313.123L313.089 101.426C312.464 106.192 312.367 107.817 312.379 108.368C312.805 107.902 314.055 106.357 317.702 101.278L317.765 101.187H371.943C372.913 101.186 373.842 100.799 374.527 100.113C375.212 99.4275 375.597 98.4977 375.597 97.5283V70.1104C375.597 69.141 375.212 68.2113 374.527 67.5253C373.842 66.8393 372.913 66.4532 371.943 66.4517H306.038Z" fill="#333333"/>
<path d="M353.337 83.9275C353.336 85.8471 353.904 87.724 354.97 89.3207C356.036 90.9173 357.551 92.1619 359.324 92.8971C361.098 93.6322 363.049 93.8249 364.932 93.4506C366.815 93.0764 368.545 92.1521 369.902 90.7947C371.26 89.4372 372.184 87.7077 372.558 85.8248C372.933 83.942 372.74 81.9904 372.005 80.2171C371.27 78.4438 370.025 76.9283 368.428 75.8625C366.832 74.7967 364.955 74.2284 363.035 74.2295C360.463 74.2295 357.996 75.2512 356.177 77.07C354.358 78.8887 353.337 81.3554 353.337 83.9275Z" fill="white"/>
<path d="M371.943 66.2417H306.038C305.012 66.2417 304.028 66.6493 303.303 67.3749C302.577 68.1005 302.169 69.0846 302.169 70.1107V97.5456C302.169 98.5717 302.577 99.5558 303.303 100.281C304.028 101.007 305.012 101.415 306.038 101.415H312.856C312.458 104.437 311.941 108.772 312.226 108.772C312.51 108.772 315.845 104.227 317.856 101.415H371.943C372.97 101.415 373.954 101.007 374.679 100.281C375.405 99.5558 375.813 98.5717 375.813 97.5456V70.1107C375.813 69.0846 375.405 68.1005 374.679 67.3749C373.954 66.6493 372.97 66.2417 371.943 66.2417Z" fill="url(#paint5_linear)"/>
<path d="M353.126 83.9274C353.125 81.9663 353.706 80.049 354.795 78.418C355.883 76.7869 357.431 75.5153 359.243 74.7641C361.054 74.0129 363.048 73.8157 364.971 74.1976C366.895 74.5795 368.662 75.5233 370.049 76.9095C371.436 78.2958 372.381 80.0622 372.764 81.9855C373.147 83.9087 372.951 85.9024 372.201 87.7142C371.45 89.5261 370.18 91.0748 368.549 92.1644C366.919 93.254 365.002 93.8355 363.041 93.8355C360.413 93.8325 357.894 92.7878 356.036 90.9305C354.177 89.0732 353.131 86.5548 353.126 83.9274ZM353.553 83.9274C353.553 85.8039 354.109 87.6382 355.152 89.1985C356.194 90.7587 357.676 91.9748 359.41 92.6929C361.143 93.411 363.051 93.5989 364.892 93.2328C366.732 92.8667 368.423 91.9631 369.75 90.6362C371.077 89.3093 371.98 87.6188 372.346 85.7783C372.713 83.9379 372.525 82.0302 371.806 80.2965C371.088 78.5629 369.872 77.0811 368.312 76.0386C366.752 74.996 364.917 74.4396 363.041 74.4396C360.525 74.4426 358.114 75.4432 356.335 77.2218C354.556 79.0005 353.556 81.412 353.553 83.9274Z" fill="#333333"/>
<path d="M364.347 88.8135H361.501V91.6541H364.347V88.8135Z" fill="white"/>
<path d="M361.291 88.603H364.558V91.8698H361.285L361.291 88.603ZM364.131 89.0234H361.717V91.4437H364.137L364.131 89.0234Z" fill="#333333"/>
<path d="M357.228 83.5752C357.372 83.5087 357.355 83.5686 357.512 83.5752C357.67 83.5818 357.972 83.3736 358.109 83.4518C358.151 82.1895 358.675 80.993 359.573 80.115C360.47 79.2369 361.67 78.7461 362.918 78.7461C364.166 78.7461 365.366 79.2369 366.263 80.115C367.16 80.993 367.685 82.1895 367.727 83.4518C367.864 83.3736 368.018 83.3293 368.175 83.3227C368.333 83.316 368.448 83.5087 368.591 83.5752C368.841 83.7759 369.276 83.8955 369.346 84.2103C369.664 84.7115 369.487 85.1945 369.346 85.4838C369.205 85.773 368.881 85.9962 368.591 86.1318C368.302 86.2673 367.739 86.1318 367.425 85.8888C367.352 85.8497 367.518 86.1868 367.455 86.1318C367.455 87.2885 366.766 88.0132 365.958 88.8312C365.15 89.6492 364.053 90.1087 362.91 90.1087C361.767 90.1087 360.67 89.6492 359.862 88.8312C359.053 88.0132 358.649 87.0045 358.649 85.8477C358.586 85.9028 358.619 86.0906 358.365 86.1318C358.051 86.6588 357.518 86.2673 357.228 86.1318C356.939 85.9962 356.835 85.8529 356.694 85.5636C356.553 85.2744 356.624 84.525 356.694 84.2103C356.764 83.8955 356.954 83.7759 357.203 83.5752H357.228Z" fill="white"/>
<path d="M358.342 86.5066C357.969 86.6301 357.564 86.6065 357.208 86.4407C356.852 86.2749 356.573 85.9794 356.427 85.6146C356.318 85.4076 356.251 85.1809 356.231 84.9477C356.211 84.7146 356.237 84.4797 356.308 84.2568C356.355 84.1015 356.433 83.9574 356.538 83.8334C356.642 83.7093 356.771 83.6079 356.916 83.5353C357.176 83.4095 357.472 83.3813 357.751 83.4557C357.785 82.1491 358.317 80.9049 359.24 79.9788C360.271 79.0183 361.628 78.4844 363.038 78.4844C364.447 78.4844 365.804 79.0183 366.836 79.9788C367.758 80.9049 368.291 82.1491 368.324 83.4557C368.622 83.373 368.94 83.4107 369.21 83.5606C369.48 83.7105 369.68 83.9605 369.767 84.2568C369.839 84.4797 369.865 84.7146 369.845 84.9477C369.824 85.1809 369.757 85.4076 369.648 85.6146C369.503 85.9794 369.224 86.2749 368.868 86.4407C368.512 86.6065 368.106 86.6301 367.734 86.5066C367.523 87.5864 366.948 88.5614 366.106 89.2686C365.263 89.9759 364.203 90.3726 363.103 90.3926H362.978C361.877 90.3739 360.816 89.9777 359.972 89.2704C359.128 88.563 358.553 87.5874 358.342 86.5066ZM363.097 89.9665C364.152 89.9471 365.164 89.5481 365.948 88.8426C366.731 88.1371 367.234 87.1725 367.364 86.1259L367.421 85.7282L367.716 85.9953C367.768 86.0402 367.825 86.0784 367.887 86.1089C368.161 86.1893 368.455 86.1638 368.71 86.0375C368.966 85.9112 369.165 85.6933 369.267 85.4271C369.434 85.1086 369.47 84.7381 369.37 84.3931C369.305 84.1883 369.162 84.017 368.972 83.9159C368.851 83.8598 368.718 83.8337 368.584 83.8396C368.451 83.8455 368.321 83.8834 368.205 83.95L367.887 83.9159L367.881 83.7512C367.903 83.1101 367.793 82.4714 367.559 81.8744C367.324 81.2774 366.97 80.7348 366.518 80.2799C365.566 79.399 364.317 78.9097 363.021 78.9097C361.724 78.9097 360.475 79.399 359.524 80.2799C359.071 80.7346 358.717 81.2772 358.482 81.8743C358.248 82.4713 358.138 83.1101 358.16 83.7512L358.081 83.95H357.836C357.721 83.8834 357.59 83.8455 357.457 83.8396C357.324 83.8337 357.191 83.8598 357.069 83.9159C356.88 84.017 356.737 84.1883 356.672 84.3931C356.57 84.738 356.607 85.1088 356.774 85.4271C356.876 85.6933 357.075 85.9112 357.331 86.0375C357.587 86.1638 357.881 86.1893 358.155 86.1089C358.215 86.0797 358.271 86.0414 358.319 85.9953L358.62 85.7282L358.677 86.1259C358.808 87.1729 359.312 88.1376 360.097 88.843C360.882 89.5485 361.895 89.9473 362.95 89.9665H363.063H363.097Z" fill="#333333"/>
<path d="M366.506 77.5814C366.506 77.5814 365.075 76.3769 361.831 76.5701C358.586 76.7633 357.961 78.462 357.774 80.8822L357.967 83.7626C358.775 82.7752 359.43 81.6721 359.91 80.4902C359.91 80.4902 361.728 82.5298 362.518 82.2912C363.308 82.0525 362.223 80.5868 362.223 80.5868C362.223 80.5868 365.927 83.7797 368.109 83.774C368.109 83.774 369.245 80.0414 367.643 78.6608C367.643 78.6608 368.864 78.7176 368.927 78.479C368.989 78.2404 368.359 77.8768 367.171 78.0131C367.171 78.0131 368.006 76.3769 367.54 76.2065C367.075 76.036 366.506 77.5814 366.506 77.5814Z" fill="#7C7C7C"/>
<path d="M357.74 84.4159L357.512 80.8992C357.711 78.1835 358.507 76.4848 361.83 76.286C364.319 76.1383 365.807 76.7916 366.376 77.1495C366.654 76.5019 367.108 75.7462 367.643 75.9394C367.707 75.9636 367.766 76.0015 367.816 76.0505C367.865 76.0995 367.902 76.1585 367.927 76.2235C367.99 76.7341 367.888 77.2517 367.637 77.7006C368.161 77.6476 368.686 77.8027 369.097 78.1324C369.148 78.1882 369.185 78.2555 369.205 78.3287C369.225 78.4019 369.227 78.4788 369.211 78.5528C369.177 78.6664 369.114 78.905 368.273 78.9505C369.358 80.6549 368.432 83.7001 368.387 83.8478L368.324 84.0466H368.108C366.552 84.0466 364.342 82.5695 363.063 81.6093C363.112 81.7821 363.112 81.9649 363.063 82.1377C363.03 82.2397 362.971 82.3317 362.892 82.4051C362.814 82.4786 362.718 82.5312 362.614 82.5581C361.853 82.7967 360.637 81.6605 360.001 80.9958C359.541 82.0667 358.929 83.0656 358.183 83.9614L357.74 84.4159ZM360.484 78.6948L362.421 80.3651C362.455 80.3935 365.83 83.2796 367.915 83.4671C368.12 82.6831 368.728 79.9334 367.478 78.8766L366.841 78.3426H366.694L366.938 77.871C367.172 77.44 367.336 76.9737 367.421 76.4905C367.144 76.843 366.931 77.2409 366.79 77.6665L366.648 78.0472L366.341 77.7858C366.341 77.7858 364.921 76.6496 361.864 76.8371C358.927 77.0132 358.268 78.3937 358.075 80.8878L358.217 82.9842C358.776 82.1512 359.26 81.2711 359.666 80.3538L359.848 79.9618L360.137 80.2856C360.955 81.206 362.08 82.115 362.455 81.99C362.518 81.99 362.524 81.9445 362.529 81.9275C362.609 81.7002 362.279 81.081 362.007 80.7174L360.484 78.6948ZM366.864 78.3369L367.671 78.3767C367.919 78.3913 368.167 78.3913 368.415 78.3767C368.026 78.2742 367.62 78.251 367.222 78.3085L366.864 78.3369Z" fill="#333333"/>
<path d="M361.149 87.0405C361.289 87.3391 361.509 87.593 361.784 87.7741C362.06 87.9552 362.38 88.0563 362.71 88.0664C363.039 88.0764 363.365 87.9948 363.651 87.8308C363.937 87.6667 364.172 87.4266 364.33 87.1371L361.149 87.0405Z" fill="white"/>
<path d="M310.582 78H347.418C347.74 78 348 77.6864 348 77.2997V76.7003C348 76.3136 347.74 76 347.418 76H310.582C310.26 76 310 76.3136 310 76.7003V77.2997C310 77.6864 310.26 78 310.582 78Z" fill="white"/>
<path d="M339.583 82H347.417C347.739 82 348 81.6865 348 81.2997V80.7003C348 80.3135 347.739 80 347.417 80H339.583C339.261 80 339 80.3135 339 80.7003V81.2997C339 81.6865 339.261 82 339.583 82Z" fill="white"/>
<path d="M310.59 82H335.41C335.736 82 336 81.6865 336 81.2997V80.7003C336 80.3135 335.736 80 335.41 80H310.59C310.264 80 310 80.3135 310 80.7003V81.2997C310 81.6865 310.264 82 310.59 82Z" fill="white"/>
<path d="M328.593 87H347.407C347.735 87 348 86.6864 348 86.2997V85.7003C348 85.3136 347.735 85 347.407 85H328.593C328.265 85 328 85.3136 328 85.7003V86.2997C328 86.6864 328.265 87 328.593 87Z" fill="white"/>
<path d="M310.563 87H324.437C324.748 87 325 86.6864 325 86.2997V85.7003C325 85.3136 324.748 85 324.437 85H310.563C310.252 85 310 85.3136 310 85.7003V86.2997C310 86.6864 310.252 87 310.563 87Z" fill="white"/>
<path d="M310.582 91H347.418C347.74 91 348 90.6865 348 90.2997V89.7003C348 89.3135 347.74 89 347.418 89H310.582C310.26 89 310 89.3135 310 89.7003V90.2997C310 90.6865 310.26 91 310.582 91Z" fill="white"/>
<rect x="148.15" y="103.175" width="13.0674" height="0.568123" rx="0.284061" fill="#EBEBEB"/>
<rect x="244" y="110" width="31.8163" height="0.56813" rx="0.284065" fill="#EBEBEB"/>
<rect x="36" y="71" width="94" height="1" rx="0.5" fill="#EBEBEB"/>
<rect x="168.035" y="103.175" width="21.5896" height="0.568123" rx="0.284061" fill="#EBEBEB"/>
<rect x="288" y="110" width="23.294" height="0.56813" rx="0.284065" fill="#EBEBEB"/>
<rect x="36" y="77" width="46" height="1" rx="0.5" fill="#EBEBEB"/>
<rect x="168.035" y="106.584" width="32.9525" height="0.568123" rx="0.284061" fill="#EBEBEB"/>
<rect x="288" y="112.84" width="35.2251" height="0.56813" rx="0.284065" fill="#EBEBEB"/>
<rect x="94" y="77" width="30" height="1" rx="0.5" fill="#EBEBEB"/>
<rect x="168.035" y="113.402" width="32.3844" height="0.56813" rx="0.284065" fill="#EBEBEB"/>
<rect x="288" y="119.09" width="34.657" height="0.56813" rx="0.284065" fill="#EBEBEB"/>
<rect x="168.035" y="120.219" width="30.68" height="0.56813" rx="0.284065" fill="#EBEBEB"/>
<rect x="288" y="125.339" width="32.9525" height="0.56813" rx="0.284065" fill="#EBEBEB"/>
<rect x="168.035" y="127.037" width="32.9525" height="0.56813" rx="0.284065" fill="#EBEBEB"/>
<rect x="288" y="131.589" width="35.2251" height="0.56813" rx="0.284065" fill="#EBEBEB"/>
<rect x="288" y="134.43" width="35.2251" height="0.56813" rx="0.284065" fill="#EBEBEB"/>
<rect x="168.035" y="130.446" width="32.9525" height="0.56813" rx="0.284065" fill="#EBEBEB"/>
<rect x="96" y="94" width="42" height="1" rx="0.5" fill="#EBEBEB"/>
<rect x="94" y="101" width="44" height="1" rx="0.5" fill="#EBEBEB"/>
<rect x="168.035" y="123.628" width="32.9525" height="0.568123" rx="0.284061" fill="#EBEBEB"/>
<rect x="288" y="128.18" width="35.2251" height="0.56813" rx="0.284065" fill="#EBEBEB"/>
<rect x="168.035" y="109.993" width="27.8392" height="0.56813" rx="0.284065" fill="#EBEBEB"/>
<rect x="288" y="116.25" width="29.5437" height="0.56813" rx="0.284065" fill="#EBEBEB"/>
<rect x="148.15" y="106.584" width="13.0674" height="0.568123" rx="0.284061" fill="#EBEBEB"/>
<rect x="244" y="112.84" width="31.8163" height="0.56813" rx="0.284065" fill="#EBEBEB"/>
<rect x="94" y="84" width="40" height="1" rx="0.5" fill="#EBEBEB"/>
<rect x="127.697" y="120.219" width="26.7029" height="0.56813" rx="0.284065" fill="#EBEBEB"/>
<rect x="244" y="125.339" width="32.3844" height="0.56813" rx="0.284065" fill="#EBEBEB"/>
<rect x="127.697" y="123.628" width="28.9755" height="0.568123" rx="0.284061" fill="#EBEBEB"/>
<rect x="244" y="128.18" width="30.68" height="0.56813" rx="0.284065" fill="#EBEBEB"/>
<rect x="36" y="94" width="26" height="1" rx="0.5" fill="#EBEBEB"/>
<rect x="127.697" y="127.037" width="32.3844" height="0.56813" rx="0.284065" fill="#EBEBEB"/>
<rect x="244" y="131.589" width="30.68" height="0.56813" rx="0.284065" fill="#EBEBEB"/>
<rect x="127.697" y="130.446" width="32.3844" height="0.56813" rx="0.284065" fill="#EBEBEB"/>
<rect x="244" y="134.43" width="30.68" height="0.56813" rx="0.284065" fill="#EBEBEB"/>
<rect x="36" y="101" width="31" height="1" rx="0.5" fill="#EBEBEB"/>
<rect x="148.15" y="109.993" width="13.0674" height="0.56813" rx="0.284065" fill="#EBEBEB"/>
<rect x="244" y="116.25" width="31.8163" height="0.56813" rx="0.284065" fill="#EBEBEB"/>
<rect x="148.15" y="113.402" width="10.7948" height="0.56813" rx="0.284065" fill="#EBEBEB"/>
<rect x="244" y="119.09" width="25.5667" height="0.56813" rx="0.284065" fill="#EBEBEB"/>
<rect x="36" y="84" width="32" height="1" rx="0.5" fill="#EBEBEB"/>
<rect x="258" y="48" width="14" height="22" fill="#EFEFEF"/>
<path d="M262.115 46C261.819 46 261.536 46.1271 261.327 46.3533C261.117 46.5796 261 46.8864 261 47.2063V58.081C260.999 58.3946 261.109 58.6966 261.309 58.9243L269.066 67.6322C269.272 67.8622 269.554 67.9943 269.85 67.9998C270.147 68.0053 270.433 67.8837 270.646 67.6615C270.756 67.5531 270.844 67.4213 270.905 67.2744C270.966 67.1274 270.998 66.9685 271 66.8074C271.001 66.6464 270.972 66.4868 270.914 66.3385C270.856 66.1902 270.77 66.0565 270.662 65.9457L263.23 57.595V47.2063C263.23 46.8864 263.113 46.5796 262.904 46.3533C262.694 46.1271 262.411 46 262.115 46Z" fill="#333333"/>
</g>
<defs>
<filter id="filter0_d" x="222.881" y="93.8101" width="27.4549" height="19.8904" filterUnits="userSpaceOnUse" color-interpolation-filters="sRGB">
<feFlood flood-opacity="0" result="BackgroundImageFix"/>
<feColorMatrix in="SourceAlpha" type="matrix" values="0 0 0 0 0 0 0 0 0 0 0 0 0 0 0 0 0 0 127 0"/>
<feOffset dy="4"/>
<feColorMatrix type="matrix" values="0 0 0 0 0.333333 0 0 0 0 0.333333 0 0 0 0 0.333333 0 0 0 0.18 0"/>
<feBlend mode="normal" in2="BackgroundImageFix" result="effect1_dropShadow"/>
<feBlend mode="normal" in="SourceGraphic" in2="effect1_dropShadow" result="shape"/>
</filter>
<linearGradient id="paint0_linear" x1="220.204" y1="98.6484" x2="229.819" y2="113.783" gradientUnits="userSpaceOnUse">
<stop stop-color="#FFC671"/>
<stop offset="0.59375" stop-color="#FF7541"/>
<stop offset="1" stop-color="#FF6F3D"/>
</linearGradient>
<linearGradient id="paint1_linear" x1="228.594" y1="101.051" x2="238.174" y2="116.093" gradientUnits="userSpaceOnUse">
<stop stop-color="#FFC671"/>
<stop offset="0.59375" stop-color="#FF7541"/>
<stop offset="1" stop-color="#FF6F3D"/>
</linearGradient>
<linearGradient id="paint2_linear" x1="247.437" y1="95.3477" x2="247.437" y2="98.0936" gradientUnits="userSpaceOnUse">
<stop stop-color="white"/>
<stop offset="1" stop-color="white"/>
</linearGradient>
<linearGradient id="paint3_linear" x1="15737" y1="288.626" x2="18042.4" y2="288.626" gradientUnits="userSpaceOnUse">
<stop stop-color="#FFC671"/>
<stop offset="0.59" stop-color="#FF7541"/>
<stop offset="1" stop-color="#FF6F3D"/>
</linearGradient>
<linearGradient id="paint4_linear" x1="4221.1" y1="3177.86" x2="5878.6" y2="3177.86" gradientUnits="userSpaceOnUse">
<stop stop-color="#FF7E46"/>
<stop offset="0.59" stop-color="#FF7541"/>
<stop offset="1" stop-color="#FF6F3D"/>
</linearGradient>
<linearGradient id="paint5_linear" x1="-32293.9" y1="5421.64" x2="-41833.6" y2="5421.64" gradientUnits="userSpaceOnUse">
<stop stop-color="#FF7E46"/>
<stop offset="0.59" stop-color="#FF7541"/>
<stop offset="1" stop-color="#FF6F3D"/>
</linearGradient>
<clipPath id="clip0">
<rect width="375" height="123" fill="white" transform="translate(1 35)"/>
</clipPath>
</defs>
    </symbol>
</svg>
