<svg width="377" height="193" viewBox="0 0 377 193" fill="none" xmlns="http://www.w3.org/2000/svg">
    <symbol id="connect2-light" viewBox="0 0 377 193">
<rect width="377" height="193" fill="white"/>
<path fill-rule="evenodd" clip-rule="evenodd" d="M52.3416 92.4725C52.4436 93.6256 52.3939 94.7872 52.1937 95.9271L54.713 97.8861L52.5223 102.698L49.3841 102.047C48.6495 102.937 47.8004 103.723 46.8594 104.387L47.2647 107.565L42.3356 109.387L40.6105 106.694C39.4664 106.801 38.3133 106.753 37.182 106.55L35.2378 109.089L30.4621 106.854L31.1139 103.703C30.2309 102.96 29.45 102.103 28.7917 101.153L25.6371 101.567L23.8298 96.6003L26.5025 94.862C26.3957 93.7093 26.4436 92.5473 26.6449 91.4075L24.1256 89.4429L26.3163 84.6309L29.427 85.3096C30.1614 84.4183 31.0105 83.6295 31.9518 82.9643L31.5465 79.7857L36.4755 77.9646L38.2007 80.6576C39.345 80.5518 40.4982 80.6019 41.6291 80.8066L43.5788 78.2681L48.349 80.4755L47.6809 83.6099C48.5664 84.3473 49.3477 85.2032 50.003 86.1539L53.1576 85.7456L54.9704 90.7122L52.2977 92.4505L52.3416 92.4725ZM44.8056 91.9207C44.4215 90.8643 43.7351 89.9463 42.8332 89.2829C41.9314 88.6195 40.8546 88.2404 39.7389 88.1935C38.6233 88.1467 37.5189 88.4342 36.5654 89.0197C35.6119 89.6052 34.8521 90.4624 34.382 91.483C33.912 92.5036 33.7528 93.6416 33.9246 94.7534C34.0963 95.8651 34.5914 96.9005 35.3471 97.7288C36.1028 98.5571 37.0853 99.141 38.1703 99.4067C39.2554 99.6724 40.3942 99.608 41.4429 99.2216C42.8487 98.7031 43.9926 97.6434 44.6231 96.2754C45.2537 94.9073 45.3193 93.343 44.8056 91.9262V91.9207Z" fill="#F5F5F5"/>
<path fill-rule="evenodd" clip-rule="evenodd" d="M32.6686 60.5266C32.7927 61.8488 32.7375 63.1818 32.5043 64.4889L35.3905 66.7294L32.8493 72.2478L29.2839 71.4752C28.4405 72.4927 27.4683 73.3944 26.3922 74.1572L26.8578 77.7993L21.1894 79.8853L19.2123 76.8005C17.8958 76.931 16.5679 76.8846 15.2636 76.6625L13.0729 79.5431L7.59619 76.9826L8.36293 73.3901C7.34892 72.5426 6.45355 71.5606 5.70125 70.4708L2.08663 70.9399L0 65.2339L3.06148 63.2417C2.93665 61.92 2.98822 60.5874 3.21483 59.2795L0.328602 57.039L2.86979 51.5206L6.43513 52.2931C7.28308 51.2772 8.26098 50.3791 9.34326 49.6222L8.87774 45.9856L14.5461 43.8831L16.5232 46.9679C17.8339 46.8474 19.1546 46.905 20.45 47.1389L22.679 44.2307L28.1557 46.7858L27.389 50.3782C28.403 51.2257 29.2984 52.2078 30.0507 53.2975L33.6653 52.8284L35.7355 58.5345L32.674 60.5266H32.6686ZM24.0263 59.9031C23.5845 58.6932 22.7965 57.6426 21.7621 56.8841C20.7276 56.1256 19.4932 55.6932 18.2148 55.6416C16.9365 55.5901 15.6717 55.9217 14.5804 56.5946C13.4891 57.2674 12.6203 58.2512 12.084 59.4216C11.5477 60.592 11.3679 61.8963 11.5673 63.1697C11.7668 64.443 12.3365 65.6282 13.2045 66.5753C14.0725 67.5223 15.1997 68.1887 16.4436 68.4902C17.6875 68.7917 18.9922 68.7147 20.1926 68.269C21.8018 67.6715 23.1095 66.4546 23.8285 64.8858C24.5474 63.317 24.6185 61.5247 24.0263 59.9031Z" fill="#ECECEC"/>
<path d="M48.4614 49.0703L48.4614 49.0698C48.4601 48.4661 48.5767 47.868 48.8047 47.3098C49.0327 46.7517 49.3675 46.2443 49.7899 45.8167C50.2123 45.3891 50.7141 45.0497 51.2665 44.8176C51.8189 44.5856 52.411 44.4655 53.0093 44.4641H179.8C180.398 44.4655 180.99 44.5856 181.543 44.8176C182.095 45.0497 182.597 45.3891 183.019 45.8167C183.442 46.2443 183.777 46.7517 184.005 47.3098C184.233 47.868 184.349 48.4661 184.348 49.0698V49.0703V134.168H48.4778L48.4614 49.0703ZM184.598 49.0703V134.168V49.0703Z" fill="#F5F5F5" stroke="#333333" stroke-width="0.5"/>
<path d="M179.192 130.191C179.509 130.191 179.814 130.065 180.039 129.839C180.263 129.614 180.39 129.308 180.392 128.988V49.6498C180.39 49.3302 180.263 49.0242 180.039 48.7988C179.814 48.5733 179.509 48.4468 179.192 48.4468H53.0145C52.6973 48.4468 52.3931 48.5733 52.1683 48.7988C51.9435 49.0242 51.8165 49.3302 51.8151 49.6498V128.977C51.8165 129.297 51.9435 129.603 52.1683 129.828C52.3931 130.054 52.6973 130.18 53.0145 130.18L179.192 130.191Z" fill="white"/>
<path d="M179.795 129.579V49.6553C179.795 49.5759 179.779 49.4972 179.749 49.4238C179.718 49.3505 179.674 49.2839 179.618 49.228C179.562 49.1721 179.496 49.1279 179.422 49.098C179.349 49.0681 179.271 49.0531 179.192 49.0538H53.0145C52.9356 49.0531 52.8574 49.0681 52.7843 49.098C52.7113 49.1279 52.6448 49.1721 52.5888 49.228C52.5328 49.2839 52.4883 49.3505 52.458 49.4238C52.4276 49.4972 52.412 49.5759 52.412 49.6553V129.579C52.412 129.658 52.4276 129.737 52.458 129.81C52.4883 129.884 52.5328 129.95 52.5888 130.006C52.6448 130.062 52.7113 130.106 52.7843 130.136C52.8574 130.166 52.9356 130.181 53.0145 130.18H179.192C179.271 130.181 179.349 130.166 179.422 130.136C179.496 130.106 179.562 130.062 179.618 130.006C179.674 129.95 179.718 129.884 179.749 129.81C179.779 129.737 179.795 129.658 179.795 129.579ZM180.392 129.579C180.39 129.898 180.263 130.204 180.039 130.43C179.814 130.655 179.509 130.782 179.192 130.782H53.0145C52.6973 130.782 52.3931 130.655 52.1683 130.43C51.9435 130.204 51.8165 129.898 51.8151 129.579V49.6553C51.8151 49.3348 51.9414 49.0274 52.1664 48.8008C52.3913 48.5741 52.6964 48.4468 53.0145 48.4468H179.192C179.51 48.4468 179.816 48.5741 180.04 48.8008C180.265 49.0274 180.392 49.3348 180.392 49.6553V129.579Z" fill="#333333"/>
<g filter="url(#filter0_d)">
<path d="M144.32 78.6177C144.32 78.4473 144.463 78.3091 144.639 78.3091H172.874C173.05 78.3091 173.193 78.4473 173.193 78.6177V94.7599C173.193 94.9304 173.05 95.0686 172.874 95.0686H144.639C144.463 95.0686 144.32 94.9304 144.32 94.7599V78.6177Z" fill="#EFEFEF"/>
</g>
<path fill-rule="evenodd" clip-rule="evenodd" d="M144.638 78H172.873C173.225 78 173.511 78.2764 173.511 78.6173V94.7595C173.511 95.1004 173.225 95.3768 172.873 95.3768H144.638C144.286 95.3768 144 95.1004 144 94.7595V78.6173C144 78.2764 144.286 78 144.638 78ZM144.638 78.3087C144.462 78.3087 144.319 78.4469 144.319 78.6173V94.7595C144.319 94.93 144.462 95.0681 144.638 95.0681H172.873C173.049 95.0681 173.192 94.93 173.192 94.7595V78.6173C173.192 78.4469 173.049 78.3087 172.873 78.3087H144.638Z" fill="#D8D8D8"/>
<mask id="mask0" mask-type="alpha" maskUnits="userSpaceOnUse" x="144" y="79" width="26" height="17">
<path d="M144.276 79.583H169.848V95.0682H144.276V79.583Z" fill="#EFEFEF"/>
</mask>
<g mask="url(#mask0)">
<path d="M150.069 83.8491L158.414 95.0432H141.504L150.069 83.8491Z" fill="url(#paint0_linear)"/>
<path d="M150.07 83.8479L151.981 86.3678L150.887 86.008L150.067 86.7276L149.246 86.008L148.143 86.3569L150.07 83.8479Z" fill="white"/>
<path d="M158.83 86.3813L167.114 97.5231H150.327L158.83 86.3813Z" fill="url(#paint1_linear)"/>
<path d="M158.818 86.3813L160.868 89.0252L159.697 88.6475L158.818 89.4028L157.94 88.6475L156.769 89.0252L158.818 86.3813Z" fill="white"/>
</g>
<path d="M171.586 81.3787C171.586 82.1785 170.94 82.8268 170.143 82.8268C169.346 82.8268 168.699 82.1785 168.699 81.3787C168.699 80.579 169.346 79.9307 170.143 79.9307C170.94 79.9307 171.586 80.579 171.586 81.3787Z" fill="url(#paint2_linear)"/>
<path d="M67.3745 139.799H100.624V139.931H108.247V139.799H125.597V139.959H135.883V139.799H191.252C192.957 139.746 194.647 139.468 196.28 138.971C197.068 138.722 197.837 138.414 198.58 138.049H154.372V137.63H146.261V138.016L135.883 137.823V137.696H125.597V138.016L108.861 137.762H100.645V138.049L69.2475 137.63L68.6998 137.762L58.5186 137.856L32.6302 137.79C33.2976 138.48 34.0919 139.033 34.9688 139.418C36.8145 139.97 39.153 139.97 40.6427 139.97H58.5186L66.3996 140.163L67.3745 139.799Z" fill="#AAAAAA"/>
<path d="M198.29 138.049L199.1 137.498H32.3455L32.8931 138.049H198.29Z" fill="#333333"/>
<path d="M32.6357 134.418V137.58C33.731 138.684 36.2996 139.953 41.3984 139.788L189.981 139.865C191.848 139.737 193.699 139.428 195.507 138.943C196.318 138.75 198.941 137.74 198.974 137.448V134.418C143.555 134.512 88.1038 134.418 32.6357 134.418ZM41.3984 140.489C38.545 140.489 35.5602 140.489 32.5097 138.474C32.3577 138.38 32.2291 138.252 32.1342 138.1C32.0392 137.948 31.9803 137.776 31.962 137.597V134.865C31.9873 134.587 32.1127 134.328 32.3145 134.137C32.5163 133.946 32.7805 133.836 33.0574 133.828H198.733C198.857 133.82 198.98 133.839 199.096 133.885C199.211 133.93 199.316 134 199.401 134.089C199.487 134.179 199.553 134.287 199.594 134.404C199.634 134.522 199.649 134.647 199.637 134.772V137.564L199.604 137.597C199.48 137.898 199.247 138.141 198.952 138.276C197.84 138.927 196.639 139.408 195.387 139.705C193.66 140.166 191.887 140.429 190.102 140.489H41.3984Z" fill="#333333"/>
<path opacity="0.6" d="M83.6868 76H60.3176C60.2334 76 60.1526 76.0337 60.093 76.0937C60.0335 76.1538 60 76.2352 60 76.3201C60 76.405 60.0335 76.4864 60.093 76.5464C60.1526 76.6064 60.2334 76.6401 60.3176 76.6401H83.6868C83.771 76.6401 83.8518 76.6064 83.9114 76.5464C83.9709 76.4864 84.0044 76.405 84.0044 76.3201C84.0044 76.2352 83.9709 76.1538 83.9114 76.0937C83.8518 76.0337 83.771 76 83.6868 76Z" fill="#B2B2B2"/>
<path d="M174.539 55H71.4609C71.0735 55 70.7019 54.842 70.4279 54.5607C70.1539 54.2794 70 53.8978 70 53.5C70 53.1022 70.1539 52.7206 70.4279 52.4393C70.7019 52.158 71.0735 52 71.4609 52H174.539C174.927 52 175.298 52.158 175.572 52.4393C175.846 52.7206 176 53.1022 176 53.5C176 53.8978 175.846 54.2794 175.572 54.5607C175.298 54.842 174.927 55 174.539 55ZM71.4609 52.5576C71.2175 52.5576 70.984 52.6569 70.8119 52.8336C70.6398 53.0104 70.5431 53.2501 70.5431 53.5C70.5431 53.7499 70.6398 53.9896 70.8119 54.1664C70.984 54.3431 71.2175 54.4424 71.4609 54.4424H174.539C174.783 54.4424 175.016 54.3431 175.188 54.1664C175.36 53.9896 175.457 53.7499 175.457 53.5C175.457 53.2501 175.36 53.0104 175.188 52.8336C175.016 52.6569 174.783 52.5576 174.539 52.5576H71.4609Z" fill="#CCCCCC"/>
<path d="M90.9133 134.551H47.4885L47.4557 134.584V134.551H32.5864V137.442H199.018V134.418C168.381 134.484 137.756 134.518 107.141 134.518H106.845C101.555 134.551 96.2312 134.551 90.9133 134.551Z" fill="#F2F2F2"/>
<path d="M57.3363 54.6268C58.0743 54.6268 58.6726 54.0387 58.6726 53.3134C58.6726 52.588 58.0743 52 57.3363 52C56.5983 52 56 52.588 56 53.3134C56 54.0387 56.5983 54.6268 57.3363 54.6268Z" fill="#CCCCCC"/>
<path d="M61.1536 54.6268C61.8916 54.6268 62.4899 54.0387 62.4899 53.3134C62.4899 52.588 61.8916 52 61.1536 52C60.4155 52 59.8173 52.588 59.8173 53.3134C59.8173 54.0387 60.4155 54.6268 61.1536 54.6268Z" fill="#CCCCCC"/>
<path d="M64.9763 54.6268C65.7144 54.6268 66.3126 54.0387 66.3126 53.3134C66.3126 52.588 65.7144 52 64.9763 52C64.2383 52 63.64 52.588 63.64 53.3134C63.64 54.0387 64.2383 54.6268 64.9763 54.6268Z" fill="#CCCCCC"/>
<path d="M104.069 65H57.1994C56.537 65 56 65.5411 56 66.2085V66.2141C56 66.8815 56.537 67.4226 57.1994 67.4226H104.069C104.731 67.4226 105.268 66.8815 105.268 66.2141V66.2085C105.268 65.5411 104.731 65 104.069 65Z" fill="#B2B2B2"/>
<path opacity="0.4" d="M56.3998 85.0004H87.617C87.6674 84.9981 87.7177 85.006 87.765 85.0233C87.8124 85.0407 87.8559 85.0674 87.893 85.1017C87.9302 85.136 87.9602 85.1774 87.9814 85.2235C88.0027 85.2695 88.0147 85.3194 88.0168 85.3701C88.0147 85.4209 88.0027 85.4707 87.9814 85.5167C87.9602 85.5628 87.9302 85.6042 87.893 85.6385C87.8559 85.6729 87.8124 85.6995 87.765 85.7169C87.7177 85.7343 87.6674 85.7421 87.617 85.7398H56.3998C56.3494 85.7421 56.2991 85.7343 56.2518 85.7169C56.2044 85.6995 56.1609 85.6729 56.1238 85.6385C56.0867 85.6042 56.0566 85.5628 56.0354 85.5167C56.0141 85.4707 56.0021 85.4209 56 85.3701C56.0021 85.3194 56.0141 85.2695 56.0354 85.2235C56.0566 85.1774 56.0867 85.136 56.1238 85.1017C56.1609 85.0674 56.2044 85.0407 56.2518 85.0233C56.2991 85.006 56.3494 84.9981 56.3998 85.0004Z" fill="#CCCCCC"/>
<path opacity="0.4" d="M57.0134 79.0009H122.987C123.243 78.9895 123.494 79.0881 123.684 79.2752C123.873 79.4623 123.987 79.7228 124 80C123.987 80.2772 123.873 80.5377 123.684 80.7248C123.494 80.9119 123.243 81.0105 122.987 80.9991H57.0134C56.7567 81.0105 56.5062 80.9119 56.3164 80.7248C56.1266 80.5377 56.0129 80.2772 56 80C56.0129 79.7228 56.1266 79.4623 56.3164 79.2752C56.5062 79.0881 56.7567 78.9895 57.0134 79.0009Z" fill="#CCCCCC"/>
<path opacity="0.4" d="M96.5696 85.0004H116.587C116.637 84.9981 116.688 85.006 116.735 85.0233C116.782 85.0407 116.826 85.0674 116.863 85.1017C116.9 85.136 116.93 85.1774 116.951 85.2235C116.973 85.2695 116.985 85.3194 116.987 85.3701C116.985 85.4209 116.973 85.4707 116.951 85.5167C116.93 85.5628 116.9 85.6042 116.863 85.6385C116.826 85.6729 116.782 85.6995 116.735 85.7169C116.688 85.7343 116.637 85.7421 116.587 85.7398H96.5696C96.5192 85.7421 96.4689 85.7343 96.4216 85.7169C96.3742 85.6995 96.3307 85.6729 96.2936 85.6385C96.2565 85.6042 96.2264 85.5628 96.2052 85.5167C96.1839 85.4707 96.1719 85.4209 96.1698 85.3701C96.1719 85.3194 96.1839 85.2695 96.2052 85.2235C96.2264 85.1774 96.2565 85.136 96.2936 85.1017C96.3307 85.0674 96.3742 85.0407 96.4216 85.0233C96.4689 85.006 96.5192 84.9981 96.5696 85.0004Z" fill="#CCCCCC"/>
<path opacity="0.4" d="M56.3998 88.6866H84.4241C84.4745 88.6844 84.5247 88.6922 84.5721 88.7096C84.6195 88.727 84.663 88.7536 84.7001 88.788C84.7372 88.8223 84.7673 88.8637 84.7885 88.9098C84.8098 88.9558 84.8218 89.0056 84.8239 89.0564C84.8218 89.1071 84.8098 89.1569 84.7885 89.203C84.7673 89.2491 84.7372 89.2904 84.7001 89.3248C84.663 89.3591 84.6195 89.3858 84.5721 89.4031C84.5247 89.4205 84.4745 89.4283 84.4241 89.4261H56.3998C56.3494 89.4283 56.2991 89.4205 56.2518 89.4031C56.2044 89.3858 56.1609 89.3591 56.1238 89.3248C56.0867 89.2904 56.0566 89.2491 56.0354 89.203C56.0141 89.1569 56.0021 89.1071 56 89.0564C56.0021 89.0056 56.0141 88.9558 56.0354 88.9098C56.0566 88.8637 56.0867 88.8223 56.1238 88.788C56.1609 88.7536 56.2044 88.727 56.2518 88.7096C56.2991 88.6922 56.3494 88.6844 56.3998 88.6866Z" fill="#CCCCCC"/>
<path opacity="0.4" d="M96.5696 88.6866H127.787C127.837 88.6844 127.887 88.6922 127.935 88.7096C127.982 88.727 128.026 88.7536 128.063 88.788C128.1 88.8223 128.13 88.8637 128.151 88.9098C128.172 88.9558 128.184 89.0056 128.187 89.0564C128.184 89.1071 128.172 89.1569 128.151 89.203C128.13 89.2491 128.1 89.2904 128.063 89.3248C128.026 89.3591 127.982 89.3858 127.935 89.4031C127.887 89.4205 127.837 89.4283 127.787 89.4261H96.5696C96.5192 89.4283 96.4689 89.4205 96.4216 89.4031C96.3742 89.3858 96.3307 89.3591 96.2936 89.3248C96.2565 89.2904 96.2264 89.2491 96.2052 89.203C96.1839 89.1569 96.1719 89.1071 96.1698 89.0564C96.1719 89.0056 96.1839 88.9558 96.2052 88.9098C96.2264 88.8637 96.2565 88.8223 96.2936 88.788C96.3307 88.7536 96.3742 88.727 96.4216 88.7096C96.4689 88.6922 96.5192 88.6844 96.5696 88.6866Z" fill="#CCCCCC"/>
<path opacity="0.4" d="M56.3998 92.3786H87.617C87.7178 92.374 87.8163 92.4097 87.8912 92.4779C87.966 92.5461 88.0112 92.6413 88.0168 92.7428C88.0147 92.7935 88.0027 92.8433 87.9814 92.8894C87.9602 92.9355 87.9302 92.9768 87.893 93.0112C87.8559 93.0455 87.8124 93.0721 87.765 93.0895C87.7177 93.1069 87.6674 93.1147 87.617 93.1125H56.3998C56.3494 93.1147 56.2991 93.1069 56.2518 93.0895C56.2044 93.0721 56.1609 93.0455 56.1238 93.0112C56.0867 92.9768 56.0566 92.9355 56.0354 92.8894C56.0141 92.8433 56.0021 92.7935 56 92.7428C56.0057 92.6413 56.0508 92.5461 56.1257 92.4779C56.2005 92.4097 56.299 92.374 56.3998 92.3786Z" fill="#CCCCCC"/>
<path opacity="0.4" d="M96.5696 92.3786H121.762C121.863 92.374 121.962 92.4097 122.037 92.4779C122.111 92.5461 122.157 92.6413 122.162 92.7428C122.16 92.7935 122.148 92.8433 122.127 92.8894C122.106 92.9355 122.076 92.9768 122.038 93.0112C122.001 93.0455 121.958 93.0721 121.91 93.0895C121.863 93.1069 121.813 93.1147 121.762 93.1125H96.5696C96.5192 93.1147 96.4689 93.1069 96.4216 93.0895C96.3742 93.0721 96.3307 93.0455 96.2936 93.0112C96.2565 92.9768 96.2264 92.9355 96.2052 92.8894C96.1839 92.8433 96.1719 92.7935 96.1698 92.7428C96.1755 92.6413 96.2206 92.5461 96.2955 92.4779C96.3703 92.4097 96.4688 92.374 96.5696 92.3786Z" fill="#CCCCCC"/>
<path opacity="0.4" d="M56.3998 96.0648H82.8194C82.9217 96.0603 83.0216 96.0966 83.0974 96.1658C83.1733 96.235 83.219 96.3316 83.2247 96.4346C83.2177 96.5365 83.1713 96.6317 83.0956 96.6998C83.0199 96.7678 82.9208 96.8033 82.8194 96.7988H56.3998C56.299 96.8033 56.2005 96.7676 56.1257 96.6994C56.0508 96.6312 56.0057 96.5361 56 96.4346C56.0021 96.3838 56.0141 96.334 56.0354 96.2879C56.0566 96.2419 56.0867 96.2005 56.1238 96.1662C56.1609 96.1318 56.2044 96.1052 56.2518 96.0878C56.2991 96.0704 56.3494 96.0626 56.3998 96.0648Z" fill="#CCCCCC"/>
<path opacity="0.4" d="M96.5696 96.0648H127.787C127.837 96.0626 127.887 96.0704 127.935 96.0878C127.982 96.1052 128.026 96.1318 128.063 96.1661C128.1 96.2005 128.13 96.2419 128.151 96.2879C128.172 96.334 128.184 96.3838 128.187 96.4346C128.181 96.5361 128.136 96.6312 128.061 96.6994C127.986 96.7676 127.888 96.8033 127.787 96.7988H96.5696C96.4688 96.8033 96.3703 96.7676 96.2955 96.6994C96.2206 96.6312 96.1755 96.5361 96.1698 96.4346C96.1719 96.3838 96.1839 96.334 96.2052 96.2879C96.2264 96.2419 96.2565 96.2005 96.2936 96.1661C96.3307 96.1318 96.3742 96.1052 96.4216 96.0878C96.4689 96.0704 96.5192 96.0626 96.5696 96.0648Z" fill="#CCCCCC"/>
<path opacity="0.4" d="M56.4053 104.265H87.7923C87.8426 104.263 87.893 104.271 87.9403 104.288C87.9877 104.306 88.0312 104.332 88.0683 104.367C88.1054 104.401 88.1355 104.442 88.1567 104.488C88.178 104.534 88.19 104.584 88.1921 104.635C88.19 104.686 88.178 104.736 88.1567 104.782C88.1355 104.828 88.1054 104.869 88.0683 104.903C88.0312 104.938 87.9877 104.964 87.9403 104.982C87.893 104.999 87.8426 105.007 87.7923 105.005H56.4053C56.303 105.009 56.2031 104.973 56.1273 104.904C56.0514 104.835 56.0057 104.738 56 104.635C56.0057 104.532 56.0514 104.435 56.1273 104.366C56.2031 104.297 56.303 104.261 56.4053 104.265Z" fill="#CCCCCC"/>
<path opacity="0.4" d="M56.4053 107.93H84.572C84.6742 107.925 84.7741 107.961 84.85 108.031C84.9258 108.1 84.9716 108.196 84.9772 108.299C84.9716 108.402 84.9258 108.499 84.85 108.568C84.7741 108.637 84.6742 108.674 84.572 108.669H56.4053C56.303 108.674 56.2031 108.637 56.1273 108.568C56.0514 108.499 56.0057 108.402 56 108.299C56.0057 108.196 56.0514 108.1 56.1273 108.031C56.2031 107.961 56.303 107.925 56.4053 107.93Z" fill="#CCCCCC"/>
<path opacity="0.4" d="M56.4053 111.643H87.7923C87.8426 111.641 87.893 111.649 87.9403 111.666C87.9877 111.684 88.0312 111.71 88.0683 111.745C88.1054 111.779 88.1355 111.82 88.1567 111.866C88.178 111.912 88.19 111.962 88.1921 112.013C88.19 112.063 88.1779 112.113 88.1566 112.159C88.1353 112.205 88.1052 112.246 88.068 112.279C88.0308 112.313 87.9872 112.339 87.9399 112.356C87.8925 112.373 87.8424 112.38 87.7923 112.377H56.4053C56.3549 112.38 56.3045 112.373 56.2568 112.356C56.2092 112.34 56.1653 112.314 56.1276 112.28C56.09 112.246 56.0593 112.205 56.0374 112.159C56.0155 112.113 56.0028 112.064 56 112.013C56.0057 111.91 56.0514 111.813 56.1273 111.744C56.2031 111.675 56.303 111.639 56.4053 111.643Z" fill="#CCCCCC"/>
<path opacity="0.4" d="M56.4053 115.33H82.9618C83.0641 115.325 83.1639 115.361 83.2398 115.431C83.3157 115.5 83.3614 115.596 83.3671 115.699C83.3614 115.802 83.3157 115.899 83.2398 115.968C83.1639 116.037 83.0641 116.074 82.9618 116.069H56.4053C56.303 116.074 56.2031 116.037 56.1273 115.968C56.0514 115.899 56.0057 115.802 56 115.699C56.0057 115.596 56.0514 115.5 56.1273 115.431C56.2031 115.361 56.303 115.325 56.4053 115.33Z" fill="#CCCCCC"/>
<path opacity="0.4" d="M96.4053 104.265H127.792C127.895 104.261 127.994 104.297 128.07 104.366C128.146 104.435 128.192 104.532 128.198 104.635C128.192 104.738 128.146 104.835 128.07 104.904C127.994 104.973 127.895 105.009 127.792 105.005H96.4053C96.303 105.009 96.2031 104.973 96.1273 104.904C96.0514 104.835 96.0057 104.738 96 104.635C96.0057 104.532 96.0514 104.435 96.1273 104.366C96.2031 104.297 96.303 104.261 96.4053 104.265Z" fill="#CCCCCC"/>
<path opacity="0.4" d="M96.4053 107.93H124.572C124.674 107.925 124.774 107.961 124.85 108.031C124.926 108.1 124.972 108.196 124.977 108.299C124.972 108.402 124.926 108.499 124.85 108.568C124.774 108.637 124.674 108.674 124.572 108.669H96.4053C96.303 108.674 96.2031 108.637 96.1273 108.568C96.0514 108.499 96.0057 108.402 96 108.299C96.0057 108.196 96.0514 108.1 96.1273 108.031C96.2031 107.961 96.303 107.925 96.4053 107.93Z" fill="#CCCCCC"/>
<path opacity="0.4" d="M96.4053 111.643H127.792C127.895 111.639 127.994 111.675 128.07 111.744C128.146 111.813 128.192 111.91 128.198 112.013C128.195 112.064 128.182 112.113 128.16 112.159C128.138 112.205 128.108 112.246 128.07 112.28C128.032 112.314 127.988 112.34 127.941 112.356C127.893 112.373 127.843 112.38 127.792 112.377H96.4053C96.3549 112.38 96.3045 112.373 96.2568 112.356C96.2092 112.34 96.1653 112.314 96.1276 112.28C96.0899 112.246 96.0593 112.205 96.0374 112.159C96.0155 112.113 96.0028 112.064 96 112.013C96.0057 111.91 96.0514 111.813 96.1273 111.744C96.2031 111.675 96.303 111.639 96.4053 111.643Z" fill="#CCCCCC"/>
<path opacity="0.4" d="M96.4053 115.33H122.962C123.064 115.325 123.164 115.361 123.24 115.431C123.316 115.5 123.361 115.596 123.367 115.699C123.361 115.802 123.316 115.899 123.24 115.968C123.164 116.037 123.064 116.074 122.962 116.069H96.4053C96.303 116.074 96.2031 116.037 96.1273 115.968C96.0514 115.899 96.0057 115.802 96 115.699C96.0057 115.596 96.0514 115.5 96.1273 115.431C96.2031 115.361 96.303 115.325 96.4053 115.33Z" fill="#CCCCCC"/>
<path d="M167.242 84.4599C168.189 84.4599 168.956 83.6866 168.956 82.7326C168.956 81.7787 168.189 81.0054 167.242 81.0054C166.295 81.0054 165.528 81.7787 165.528 82.7326C165.528 83.6866 166.295 84.4599 167.242 84.4599Z" fill="white"/>
<path d="M144 108.051C144.014 107.761 144.141 107.489 144.353 107.292C144.566 107.096 144.846 106.992 145.134 107.003C145.432 106.983 145.726 107.081 145.954 107.277C146.181 107.473 146.323 107.751 146.35 108.051V116.505C146.323 116.81 146.183 117.094 145.957 117.299C145.732 117.503 145.437 117.614 145.134 117.609C144.839 117.612 144.554 117.498 144.342 117.291C144.13 117.085 144.007 116.802 144 116.505V108.051Z" fill="#ECECEC"/>
<path d="M149 113.104C149.025 112.799 149.164 112.516 149.389 112.311C149.614 112.106 149.907 111.995 150.21 112C150.505 111.997 150.79 112.111 151.002 112.318C151.214 112.524 151.337 112.807 151.344 113.104V116.768C151.337 117.065 151.214 117.348 151.002 117.554C150.79 117.761 150.505 117.875 150.21 117.872C149.907 117.877 149.614 117.766 149.389 117.561C149.164 117.356 149.025 117.073 149 116.768V113.104Z" fill="#ECECEC"/>
<path d="M159 107.181C159 107.026 159.03 106.872 159.089 106.729C159.148 106.586 159.234 106.456 159.343 106.346C159.452 106.236 159.581 106.149 159.723 106.09C159.866 106.031 160.018 106 160.172 106C160.326 106 160.478 106.031 160.621 106.09C160.763 106.149 160.892 106.236 161.001 106.346C161.11 106.456 161.196 106.586 161.255 106.729C161.314 106.872 161.344 107.026 161.344 107.181V116.684C161.344 116.997 161.221 117.297 161.001 117.519C160.781 117.74 160.483 117.865 160.172 117.865C159.861 117.865 159.563 117.74 159.343 117.519C159.123 117.297 159 116.997 159 116.684V107.181Z" fill="#ECECEC"/>
<path d="M154 111.999C154.047 111.72 154.19 111.466 154.404 111.283C154.619 111.1 154.891 111 155.172 111C155.453 111 155.725 111.1 155.94 111.283C156.154 111.466 156.297 111.72 156.344 111.999V116.679C156.297 116.958 156.154 117.212 155.94 117.394C155.725 117.577 155.453 117.678 155.172 117.678C154.891 117.678 154.619 117.577 154.404 117.394C154.19 117.212 154.047 116.958 154 116.679V111.999Z" fill="#ECECEC"/>
<path d="M164 103.598C164 103.285 164.123 102.984 164.343 102.763C164.563 102.541 164.861 102.417 165.172 102.417C165.483 102.417 165.781 102.541 166.001 102.763C166.221 102.984 166.344 103.285 166.344 103.598V117.499C166.344 117.812 166.221 118.112 166.001 118.334C165.781 118.555 165.483 118.68 165.172 118.68C164.861 118.68 164.563 118.555 164.343 118.334C164.123 118.112 164 117.812 164 117.499V103.598Z" fill="#ECECEC"/>
<path d="M162.669 148C162.492 148 162.321 147.928 162.196 147.8C162.07 147.673 162 147.499 162 147.318V66.6761C162.001 66.4963 162.073 66.3243 162.198 66.1977C162.323 66.0711 162.493 66.0001 162.669 66.0001H211.719C211.807 65.9989 211.893 66.0158 211.974 66.0496C212.055 66.0835 212.128 66.1337 212.189 66.1972L223.801 78.0274C223.928 78.1557 223.999 78.3299 224 78.5119V147.296C224 147.477 223.93 147.65 223.804 147.778C223.679 147.906 223.508 147.977 223.331 147.977L162.669 148Z" fill="white"/>
<path d="M223.101 146H162.937C162.689 146 162.45 145.902 162.274 145.727C162.099 145.552 162 145.314 162 145.067V66.928C162 66.8056 162.024 66.6845 162.071 66.5716C162.119 66.4587 162.188 66.3561 162.275 66.2699C162.362 66.1836 162.465 66.1154 162.579 66.0691C162.693 66.0228 162.814 65.9993 162.937 66H211.554C211.802 66.0004 212.041 66.0985 212.217 66.2729L223.726 77.7358C223.813 77.8224 223.882 77.9254 223.929 78.0387C223.976 78.1521 224 78.2736 224 78.3963V145.045C224.004 145.289 223.913 145.526 223.745 145.704C223.577 145.883 223.346 145.989 223.101 146ZM162.937 66.5459C162.886 66.5451 162.836 66.5545 162.789 66.5734C162.741 66.5923 162.699 66.6203 162.662 66.6558C162.626 66.6914 162.597 66.7338 162.578 66.7805C162.558 66.8272 162.548 66.8773 162.548 66.928V145.067C162.548 145.169 162.589 145.268 162.662 145.341C162.735 145.413 162.834 145.454 162.937 145.454H223.101C223.204 145.454 223.303 145.413 223.376 145.341C223.449 145.268 223.49 145.169 223.49 145.067V78.4181C223.49 78.3156 223.448 78.2174 223.375 78.1452L211.866 66.6823C211.83 66.647 211.787 66.6192 211.74 66.6005C211.693 66.5817 211.643 66.5724 211.592 66.5732L162.937 66.5459Z" fill="#333333"/>
<path d="M214.294 92H170.706C170.519 92 170.339 91.8947 170.207 91.7071C170.074 91.5196 170 91.2652 170 91C170 90.7348 170.074 90.4804 170.207 90.2929C170.339 90.1054 170.519 90 170.706 90H214.294C214.481 90 214.661 90.1054 214.793 90.2929C214.926 90.4804 215 90.7348 215 91C215 91.2652 214.926 91.5196 214.793 91.7071C214.661 91.8947 214.481 92 214.294 92Z" fill="url(#paint3_linear)"/>
<path d="M214.351 99.0019H170.774C170.675 98.9958 170.576 99.0042 170.483 99.0265C170.389 99.0487 170.304 99.0844 170.231 99.1313C170.158 99.1781 170.1 99.2351 170.06 99.2986C170.021 99.362 170 99.4306 170 99.5C170 99.5694 170.021 99.6379 170.06 99.7014C170.1 99.7649 170.158 99.8219 170.231 99.8687C170.304 99.9156 170.389 99.9513 170.483 99.9735C170.576 99.9958 170.675 100.004 170.774 99.9981H214.351C214.528 99.9871 214.693 99.9299 214.813 99.8377C214.933 99.7455 215 99.625 215 99.5C215 99.375 214.933 99.2545 214.813 99.1623C214.693 99.0701 214.528 99.0129 214.351 99.0019Z" fill="#D8D8D8"/>
<path d="M214.351 106.998H170.774C170.675 107.004 170.576 106.996 170.483 106.974C170.389 106.951 170.304 106.916 170.231 106.869C170.158 106.822 170.1 106.765 170.06 106.701C170.021 106.638 170 106.569 170 106.5C170 106.431 170.021 106.362 170.06 106.299C170.1 106.235 170.158 106.178 170.231 106.131C170.304 106.084 170.389 106.049 170.483 106.026C170.576 106.004 170.675 105.996 170.774 106.002H214.351C214.528 106.013 214.693 106.07 214.813 106.162C214.933 106.254 215 106.375 215 106.5C215 106.625 214.933 106.746 214.813 106.838C214.693 106.93 214.528 106.987 214.351 106.998Z" fill="#D8D8D8"/>
<path d="M214.351 114.998H170.774C170.675 115.004 170.576 114.996 170.483 114.974C170.389 114.951 170.304 114.916 170.231 114.869C170.158 114.822 170.1 114.765 170.06 114.701C170.021 114.638 170 114.569 170 114.5C170 114.431 170.021 114.362 170.06 114.299C170.1 114.235 170.158 114.178 170.231 114.131C170.304 114.084 170.389 114.049 170.483 114.026C170.576 114.004 170.675 113.996 170.774 114.002H214.351C214.528 114.013 214.693 114.07 214.813 114.162C214.933 114.254 215 114.375 215 114.5C215 114.625 214.933 114.746 214.813 114.838C214.693 114.93 214.528 114.987 214.351 114.998Z" fill="#D8D8D8"/>
<path d="M214.294 122H170.706C170.519 122 170.339 121.947 170.207 121.854C170.074 121.76 170 121.633 170 121.5C170 121.367 170.074 121.24 170.207 121.146C170.339 121.053 170.519 121 170.706 121H214.294C214.481 121 214.661 121.053 214.793 121.146C214.926 121.24 215 121.367 215 121.5C215 121.633 214.926 121.76 214.793 121.854C214.661 121.947 214.481 122 214.294 122Z" fill="#D8D8D8"/>
<path d="M214.294 129H170.706C170.519 129 170.339 128.947 170.207 128.854C170.074 128.76 170 128.633 170 128.5C170 128.367 170.074 128.24 170.207 128.146C170.339 128.053 170.519 128 170.706 128H214.294C214.481 128 214.661 128.053 214.793 128.146C214.926 128.24 215 128.367 215 128.5C215 128.633 214.926 128.76 214.793 128.854C214.661 128.947 214.481 129 214.294 129Z" fill="#D8D8D8"/>
<path d="M214.351 136.998H170.774C170.675 137.004 170.576 136.996 170.483 136.974C170.389 136.951 170.304 136.916 170.231 136.869C170.158 136.822 170.1 136.765 170.06 136.701C170.021 136.638 170 136.569 170 136.5C170 136.431 170.021 136.362 170.06 136.299C170.1 136.235 170.158 136.178 170.231 136.131C170.304 136.084 170.389 136.049 170.483 136.026C170.576 136.004 170.675 135.996 170.774 136.002H214.351C214.528 136.013 214.693 136.07 214.813 136.162C214.933 136.254 215 136.375 215 136.5C215 136.625 214.933 136.746 214.813 136.838C214.693 136.93 214.528 136.987 214.351 136.998Z" fill="#D8D8D8"/>
<path d="M173.816 82.092L174.464 84H175.301L173.231 77.934H172.286L170.225 84H171.035L171.665 82.092H173.816ZM171.827 81.48L172.421 79.725C172.538 79.356 172.637 78.987 172.727 78.627H172.745C172.835 78.978 172.925 79.338 173.06 79.734L173.654 81.48H171.827ZM179.335 84C179.281 83.703 179.263 83.334 179.263 82.956V81.327C179.263 80.454 178.939 79.545 177.607 79.545C177.058 79.545 176.536 79.698 176.176 79.932L176.356 80.454C176.662 80.256 177.085 80.13 177.49 80.13C178.381 80.13 178.48 80.778 178.48 81.138V81.228C176.797 81.219 175.861 81.795 175.861 82.848C175.861 83.478 176.311 84.099 177.193 84.099C177.814 84.099 178.282 83.793 178.525 83.451H178.552L178.615 84H179.335ZM178.498 82.533C178.498 82.614 178.48 82.704 178.453 82.785C178.327 83.154 177.967 83.514 177.4 83.514C176.995 83.514 176.653 83.271 176.653 82.758C176.653 81.912 177.634 81.759 178.498 81.777V82.533Z" fill="#333333"/>
<path d="M237.637 145C237.468 145 237.306 144.931 237.187 144.808C237.067 144.685 237 144.518 237 144.343V66.6675C236.999 66.5803 237.014 66.4938 237.046 66.4129C237.077 66.3319 237.124 66.2583 237.183 66.1961C237.242 66.134 237.313 66.0847 237.391 66.051C237.469 66.0173 237.552 66 237.637 66H284.318C284.485 66.0002 284.646 66.0684 284.765 66.1899L295.816 77.5857C295.933 77.7111 295.999 77.8782 296 78.0524V144.311C296 144.485 295.933 144.652 295.814 144.775C295.694 144.898 295.532 144.967 295.363 144.967L237.637 145Z" fill="white"/>
<path d="M295.114 146H236.907C236.667 145.999 236.437 145.9 236.267 145.725C236.097 145.55 236.001 145.314 236 145.067V66.9334C236 66.6859 236.096 66.4484 236.266 66.2734C236.436 66.0984 236.666 66 236.907 66H283.955C284.075 65.9996 284.193 66.0235 284.303 66.0703C284.413 66.1172 284.513 66.186 284.597 66.2729L295.735 77.7358C295.819 77.8224 295.886 77.9254 295.932 78.0387C295.977 78.1521 296 78.2736 296 78.3963V145.045C296.004 145.292 295.914 145.531 295.748 145.71C295.582 145.889 295.354 145.993 295.114 146ZM236.907 66.5459C236.807 66.5459 236.711 66.5867 236.641 66.6594C236.57 66.732 236.53 66.8306 236.53 66.9334V145.067C236.53 145.169 236.57 145.268 236.641 145.341C236.711 145.413 236.807 145.454 236.907 145.454H295.114C295.214 145.454 295.31 145.413 295.38 145.341C295.451 145.268 295.491 145.169 295.491 145.067V78.4181C295.492 78.3672 295.482 78.3165 295.463 78.2695C295.444 78.2225 295.415 78.1802 295.379 78.1452L284.242 66.6823C284.208 66.6452 284.167 66.6159 284.121 66.5962C284.075 66.5764 284.026 66.5667 283.977 66.5677L236.907 66.5459Z" fill="#333333"/>
<path d="M288.328 92.4238H244.706C244.519 92.4238 244.339 92.3488 244.207 92.2153C244.074 92.0818 244 91.9007 244 91.7119C244 91.5231 244.074 91.342 244.207 91.2085C244.339 91.075 244.519 91 244.706 91H288.328C288.516 91 288.696 91.075 288.828 91.2085C288.961 91.342 289.035 91.5231 289.035 91.7119C289.035 91.9007 288.961 92.0818 288.828 92.2153C288.696 92.3488 288.516 92.4238 288.328 92.4238Z" fill="#BDECFF"/>
<path d="M288.272 100.432H244.65C244.472 100.416 244.307 100.334 244.187 100.202C244.067 100.07 244 99.8968 244 99.7174C244 99.538 244.067 99.3651 244.187 99.2329C244.307 99.1006 244.472 99.0185 244.65 99.0028H288.272C288.37 98.994 288.469 99.006 288.563 99.038C288.656 99.0699 288.742 99.1212 288.815 99.1884C288.888 99.2556 288.946 99.3373 288.986 99.4284C289.025 99.5195 289.046 99.6179 289.046 99.7174C289.046 99.8169 289.025 99.9153 288.986 100.006C288.946 100.097 288.888 100.179 288.815 100.246C288.742 100.314 288.656 100.365 288.563 100.397C288.469 100.429 288.37 100.441 288.272 100.432Z" fill="#D8D8D8"/>
<path d="M288.272 108.432H244.65C244.472 108.416 244.307 108.334 244.187 108.202C244.067 108.07 244 107.897 244 107.717C244 107.538 244.067 107.365 244.187 107.233C244.307 107.101 244.472 107.018 244.65 107.003H288.272C288.37 106.994 288.469 107.006 288.563 107.038C288.656 107.07 288.742 107.121 288.815 107.188C288.888 107.256 288.946 107.337 288.986 107.428C289.025 107.519 289.046 107.618 289.046 107.717C289.046 107.817 289.025 107.915 288.986 108.006C288.946 108.097 288.888 108.179 288.815 108.246C288.742 108.314 288.656 108.365 288.563 108.397C288.469 108.429 288.37 108.441 288.272 108.432Z" fill="#D8D8D8"/>
<path d="M243.684 83.982C243.945 84.018 244.359 84.054 244.899 84.054C245.889 84.054 246.573 83.874 246.996 83.487C247.302 83.19 247.509 82.794 247.509 82.272C247.509 81.372 246.834 80.895 246.258 80.751V80.733C246.897 80.499 247.284 79.986 247.284 79.401C247.284 78.924 247.095 78.564 246.78 78.33C246.402 78.024 245.898 77.889 245.115 77.889C244.566 77.889 244.026 77.943 243.684 78.015V83.982ZM244.467 78.546C244.593 78.519 244.8 78.492 245.16 78.492C245.952 78.492 246.492 78.771 246.492 79.482C246.492 80.067 246.006 80.499 245.178 80.499H244.467V78.546ZM244.467 81.093H245.115C245.97 81.093 246.681 81.435 246.681 82.263C246.681 83.145 245.934 83.442 245.124 83.442C244.845 83.442 244.62 83.433 244.467 83.406V81.093ZM249.183 84L249.219 83.28H249.246C249.57 83.856 250.074 84.099 250.704 84.099C251.676 84.099 252.657 83.325 252.657 81.768C252.666 80.445 251.901 79.545 250.821 79.545C250.119 79.545 249.615 79.86 249.336 80.346H249.318V77.61H248.535V82.875C248.535 83.262 248.517 83.703 248.499 84H249.183ZM249.318 81.471C249.318 81.345 249.345 81.237 249.363 81.147C249.525 80.544 250.029 80.175 250.569 80.175C251.415 80.175 251.865 80.922 251.865 81.795C251.865 82.794 251.37 83.469 250.542 83.469C249.966 83.469 249.507 83.091 249.354 82.542C249.336 82.452 249.318 82.353 249.318 82.254V81.471Z" fill="#333333"/>
<path d="M280.676 123.933H244.299V141.228H280.676V123.933ZM243.587 123.249V141.934H281.377V123.249H243.587Z" fill="white"/>
<path d="M288.272 116.432H244.65C244.472 116.416 244.307 116.334 244.187 116.202C244.067 116.07 244 115.897 244 115.717C244 115.538 244.067 115.365 244.187 115.233C244.307 115.101 244.472 115.018 244.65 115.003H288.272C288.37 114.994 288.469 115.006 288.563 115.038C288.656 115.07 288.742 115.121 288.815 115.188C288.888 115.256 288.946 115.337 288.986 115.428C289.025 115.519 289.046 115.618 289.046 115.717C289.046 115.817 289.025 115.915 288.986 116.006C288.946 116.097 288.888 116.179 288.815 116.246C288.742 116.314 288.656 116.365 288.563 116.397C288.469 116.429 288.37 116.441 288.272 116.432Z" fill="#D8D8D8"/>
<path d="M311.648 145C311.563 145 311.478 144.983 311.4 144.95C311.321 144.917 311.25 144.869 311.19 144.808C311.13 144.747 311.082 144.674 311.049 144.595C311.017 144.515 311 144.43 311 144.343V66.6675C310.999 66.5803 311.014 66.4938 311.046 66.4129C311.078 66.3319 311.126 66.2583 311.186 66.1961C311.246 66.134 311.318 66.0847 311.397 66.051C311.477 66.0173 311.562 66 311.648 66H359.116C359.287 66.001 359.452 66.069 359.576 66.1899L370.813 77.5857C370.933 77.7085 371 77.8742 371 78.047V144.305C371 144.392 370.983 144.477 370.951 144.557C370.918 144.636 370.871 144.709 370.81 144.77C370.75 144.831 370.679 144.879 370.6 144.912C370.522 144.945 370.438 144.962 370.353 144.962L311.648 145Z" fill="white"/>
<path d="M371.085 146H310.937C310.689 145.999 310.452 145.9 310.276 145.725C310.101 145.55 310.001 145.314 310 145.067V66.9334C310.001 66.6863 310.101 66.4497 310.276 66.275C310.452 66.1002 310.689 66.0014 310.937 66H359.554C359.677 65.9996 359.799 66.0235 359.913 66.0703C360.027 66.1172 360.13 66.186 360.217 66.2729L371.726 77.7358C371.901 77.9114 372 78.1488 372 78.3963V145.045C372.004 145.292 371.911 145.531 371.739 145.71C371.568 145.889 371.333 145.993 371.085 146ZM310.937 66.5459C310.834 66.5459 310.735 66.5867 310.662 66.6594C310.589 66.732 310.548 66.8306 310.548 66.9334V145.067C310.548 145.169 310.589 145.268 310.662 145.341C310.735 145.413 310.834 145.454 310.937 145.454H371.085C371.188 145.454 371.287 145.413 371.36 145.341C371.433 145.268 371.474 145.169 371.474 145.067V78.4181C371.475 78.3672 371.465 78.3165 371.445 78.2695C371.425 78.2225 371.396 78.1802 371.359 78.1452L359.85 66.6823C359.815 66.6452 359.772 66.6159 359.725 66.5962C359.678 66.5764 359.627 66.5667 359.576 66.5677L310.937 66.5459Z" fill="#333333"/>
<path d="M362.396 92.432H318.774C318.676 92.4408 318.577 92.4288 318.483 92.3968C318.39 92.3649 318.304 92.3136 318.231 92.2464C318.158 92.1792 318.1 92.0975 318.06 92.0064C318.021 91.9153 318 91.8169 318 91.7174C318 91.6179 318.021 91.5195 318.06 91.4284C318.1 91.3373 318.158 91.2556 318.231 91.1884C318.304 91.1212 318.39 91.07 318.483 91.038C318.577 91.006 318.676 90.994 318.774 91.0028H362.396C362.574 91.0185 362.739 91.1006 362.859 91.2329C362.979 91.3651 363.046 91.538 363.046 91.7174C363.046 91.8968 362.979 92.0697 362.859 92.2019C362.739 92.3342 362.574 92.4163 362.396 92.432Z" fill="#B2B2B2"/>
<path d="M362.328 100.424H318.706C318.519 100.424 318.339 100.349 318.207 100.215C318.074 100.082 318 99.9007 318 99.7119C318 99.5231 318.074 99.342 318.207 99.2085C318.339 99.075 318.519 99 318.706 99H362.328C362.516 99 362.696 99.075 362.828 99.2085C362.96 99.342 363.035 99.5231 363.035 99.7119C363.035 99.9007 362.96 100.082 362.828 100.215C362.696 100.349 362.516 100.424 362.328 100.424Z" fill="#D8D8D8"/>
<path d="M362.396 131.432H318.774C318.676 131.441 318.577 131.429 318.483 131.397C318.39 131.365 318.304 131.314 318.231 131.246C318.158 131.179 318.1 131.097 318.06 131.006C318.021 130.915 318 130.817 318 130.717C318 130.618 318.021 130.519 318.06 130.428C318.1 130.337 318.158 130.256 318.231 130.188C318.304 130.121 318.39 130.07 318.483 130.038C318.577 130.006 318.676 129.994 318.774 130.003H362.396C362.574 130.018 362.739 130.101 362.859 130.233C362.979 130.365 363.046 130.538 363.046 130.717C363.046 130.897 362.979 131.07 362.859 131.202C362.739 131.334 362.574 131.416 362.396 131.432Z" fill="#D8D8D8"/>
<path d="M362.396 138.432H318.774C318.676 138.441 318.577 138.429 318.483 138.397C318.39 138.365 318.304 138.314 318.231 138.246C318.158 138.179 318.1 138.097 318.06 138.006C318.021 137.915 318 137.817 318 137.717C318 137.618 318.021 137.519 318.06 137.428C318.1 137.337 318.158 137.256 318.231 137.188C318.304 137.121 318.39 137.07 318.483 137.038C318.577 137.006 318.676 136.994 318.774 137.003H362.396C362.574 137.018 362.739 137.101 362.859 137.233C362.979 137.365 363.046 137.538 363.046 137.717C363.046 137.897 362.979 138.07 362.859 138.202C362.739 138.334 362.574 138.416 362.396 138.432Z" fill="#D8D8D8"/>
<path d="M322.678 82.7396C322.363 82.8926 321.877 82.9916 321.4 82.9916C319.924 82.9916 319.069 82.0376 319.069 80.5526C319.069 78.9596 320.014 78.0506 321.436 78.0506C321.94 78.0506 322.363 78.1586 322.66 78.3026L322.849 77.6636C322.642 77.5556 322.165 77.3936 321.409 77.3936C319.528 77.3936 318.241 78.6806 318.241 80.5796C318.241 82.5686 319.528 83.6486 321.238 83.6486C321.976 83.6486 322.552 83.5046 322.84 83.3606L322.678 82.7396ZM326.668 82.8026C326.443 82.9016 326.146 83.0186 325.696 83.0186C324.832 83.0186 324.184 82.3976 324.184 81.3896C324.184 80.4806 324.724 79.7426 325.723 79.7426C326.155 79.7426 326.452 79.8416 326.641 79.9496L326.821 79.3376C326.605 79.2296 326.191 79.1126 325.723 79.1126C324.301 79.1126 323.383 80.0846 323.383 81.4256C323.383 82.7576 324.238 83.6486 325.552 83.6486C326.137 83.6486 326.596 83.5046 326.803 83.3966L326.668 82.8026Z" fill="#333333"/>
<path d="M345 112.089C345.002 111.939 345.029 111.792 345.079 111.655C345.13 111.519 345.202 111.396 345.292 111.294C345.382 111.193 345.488 111.115 345.603 111.065C345.718 111.014 345.84 110.993 345.963 111.003C346.217 110.982 346.468 111.084 346.662 111.287C346.856 111.49 346.977 111.778 347 112.089V120.856C346.979 121.172 346.859 121.467 346.667 121.679C346.474 121.892 346.222 122.006 345.963 121.999C345.838 122.004 345.713 121.978 345.596 121.922C345.48 121.867 345.373 121.784 345.284 121.677C345.194 121.57 345.122 121.443 345.074 121.302C345.025 121.16 345 121.009 345 120.856V112.089Z" fill="url(#paint4_linear)"/>
<path d="M349 117.127C349.021 116.815 349.141 116.525 349.333 116.316C349.526 116.106 349.778 115.994 350.037 116.001C350.162 115.996 350.287 116.022 350.404 116.076C350.52 116.131 350.627 116.213 350.716 116.318C350.806 116.423 350.878 116.549 350.926 116.688C350.975 116.827 351 116.976 351 117.127V120.873C351 121.024 350.975 121.173 350.926 121.312C350.878 121.451 350.806 121.577 350.716 121.682C350.627 121.787 350.52 121.869 350.404 121.924C350.287 121.978 350.162 122.004 350.037 121.999C349.778 122.006 349.526 121.894 349.333 121.684C349.141 121.475 349.021 121.185 349 120.873V117.127Z" fill="url(#paint5_linear)"/>
<path d="M357 111.194C357 111.037 357.026 110.882 357.076 110.737C357.126 110.592 357.2 110.461 357.293 110.35C357.386 110.239 357.496 110.151 357.617 110.091C357.739 110.031 357.869 110 358 110C358.131 110 358.261 110.031 358.383 110.091C358.504 110.151 358.614 110.239 358.707 110.35C358.8 110.461 358.874 110.592 358.924 110.737C358.974 110.882 359 111.037 359 111.194V120.806C359 121.123 358.895 121.426 358.707 121.65C358.52 121.874 358.265 122 358 122C357.735 122 357.48 121.874 357.293 121.65C357.105 121.426 357 121.123 357 120.806V111.194Z" fill="url(#paint6_linear)"/>
<path d="M353 116.047C353.04 115.755 353.162 115.489 353.345 115.297C353.528 115.105 353.76 115 354 115C354.24 115 354.472 115.105 354.655 115.297C354.838 115.489 354.96 115.755 355 116.047V120.953C354.96 121.245 354.838 121.511 354.655 121.703C354.472 121.895 354.24 122 354 122C353.76 122 353.528 121.895 353.345 121.703C353.162 121.511 353.04 121.245 353 120.953V116.047Z" fill="url(#paint7_linear)"/>
<path d="M361 107.161C361 106.853 361.105 106.558 361.293 106.34C361.48 106.122 361.735 106 362 106C362.265 106 362.52 106.122 362.707 106.34C362.895 106.558 363 106.853 363 107.161V120.839C363 121.147 362.895 121.442 362.707 121.66C362.52 121.878 362.265 122 362 122C361.735 122 361.48 121.878 361.293 121.66C361.105 121.442 361 121.147 361 120.839V107.161Z" fill="url(#paint8_linear)"/>
<path d="M191.964 62.4801L191.614 62.0552C191.614 62.0552 192.085 61.6634 192.933 61.0398L193.257 61.4868C192.424 62.0993 191.97 62.4746 191.964 62.4801Z" fill="#848484"/>
<path d="M196.066 59.5554L195.77 59.0863C196.723 58.4848 197.715 57.8888 198.722 57.3204L198.985 57.8005C197.988 58.3744 197.008 58.9649 196.066 59.5554ZM256.907 59.5112C255.954 58.8711 254.984 58.264 254.026 57.6901L254.3 57.2155C255.269 57.7674 256.244 58.4075 257.208 59.0477L256.907 59.5112ZM202.019 56.2443L201.778 55.7476C202.802 55.2399 203.854 54.7543 204.9 54.3073L205.114 54.815C204.057 55.2399 203.016 55.72 202.019 56.2443ZM251.069 56.0732C250.061 55.5214 249.031 55.0468 248.007 54.5943L248.226 54.0866C249.261 54.5501 250.302 55.0523 251.32 55.5821L251.069 56.0732ZM208.279 53.5568L208.087 53.0381C209.183 52.6408 210.278 52.2765 211.346 51.9344L211.505 52.4862C210.409 52.7787 209.32 53.1429 208.257 53.5347L208.279 53.5568ZM244.858 53.303C243.795 52.9112 242.711 52.5414 241.638 52.1993L241.791 51.6474C242.886 51.973 243.982 52.3428 245.05 52.7511L244.858 53.303ZM214.785 51.5867L214.659 51.0349C215.755 50.77 216.899 50.5327 218.017 50.3341L218.11 50.8859C216.987 51.0625 215.864 51.2777 214.763 51.5647L214.785 51.5867ZM238.335 51.3494C237.24 51.0956 236.112 50.8804 235 50.7038L235.088 50.1519C236.21 50.3341 237.344 50.5493 238.456 50.8086L238.335 51.3494ZM221.456 50.4058L221.401 49.854C222.535 49.727 223.685 49.6332 224.819 49.5836L224.846 50.1354C223.718 50.174 222.579 50.2568 221.451 50.3837L221.456 50.4058ZM231.632 50.2844C230.536 50.1851 229.37 50.1244 228.242 50.0968V49.5449C229.386 49.5449 230.536 49.6332 231.67 49.7381L231.632 50.2844Z" fill="#848484"/>
<path d="M261.009 62.4856C260.571 62.1489 260.138 61.8178 259.7 61.4923L260.029 61.0508C260.467 61.3709 260.905 61.7075 261.343 62.0496L261.009 62.4856Z" fill="#848484"/>
<path d="M279.378 62.4801L279.027 62.0552C279.027 62.0552 279.498 61.6634 280.347 61.0398L280.67 61.4868C279.838 62.0993 279.383 62.4746 279.378 62.4801Z" fill="#848484"/>
<path d="M283.48 59.5555L283.184 59.0864C284.137 58.4849 285.128 57.8889 286.136 57.3205L286.399 57.8006C285.402 58.3745 284.422 58.965 283.48 59.5555ZM344.321 59.5113C343.368 58.8767 342.398 58.2641 341.44 57.6957L341.714 57.2156C342.683 57.7675 343.663 58.4076 344.622 59.0478L344.321 59.5113ZM289.417 56.2444L289.17 55.7477C290.194 55.24 291.246 54.7544 292.292 54.3074L292.505 54.8151C291.47 55.24 290.43 55.7201 289.417 56.2444ZM338.46 56.0733C337.453 55.5215 336.423 55.0469 335.399 54.5944L335.618 54.0867C336.653 54.5502 337.694 55.0524 338.712 55.5822L338.46 56.0733ZM295.671 53.5348L295.479 53.0161C296.575 52.6188 297.67 52.2546 298.765 51.9124L298.924 52.4643C297.823 52.7788 296.733 53.143 295.671 53.5348ZM332.25 53.281C331.187 52.8892 330.103 52.5195 329.03 52.1773L329.183 51.6255C330.278 51.9511 331.374 52.3208 332.442 52.7292L332.25 53.281ZM302.177 51.5648L302.051 51.0129C303.147 50.748 304.291 50.5107 305.409 50.3121L305.507 50.8639C304.401 51.0626 303.278 51.2778 302.177 51.5648ZM325.727 51.3275C324.632 51.0736 323.504 50.8584 322.392 50.6818L322.479 50.13C323.575 50.3121 324.736 50.5273 325.848 50.7867L325.727 51.3275ZM308.848 50.3838L308.793 49.832C309.927 49.7051 311.082 49.6112 312.211 49.5616V50.1134C311.132 50.1741 309.993 50.2569 308.864 50.3838H308.848ZM319.024 50.2624C317.928 50.1631 316.762 50.1024 315.634 50.0748V49.5229C316.778 49.5229 317.928 49.6112 319.062 49.7161L319.024 50.2624Z" fill="#848484"/>
<path d="M348.422 62.4855C347.984 62.1489 347.552 61.8177 347.114 61.4922L347.442 61.0452C347.88 61.3708 348.318 61.7074 348.757 62.0495L348.422 62.4855Z" fill="#848484"/>
<rect x="244.25" y="122.25" width="37.5" height="19.5" fill="white" stroke="#D8D8D8" stroke-width="0.5"/>
<path d="M248 138C249.865 137.318 251.465 136.145 252.596 134.631C254.253 132.23 255.916 130.085 259.629 131.872C263.343 133.659 263.831 130.899 267.691 127.94C271.551 124.981 274.483 131.462 278 126V138H248Z" fill="#BDECFF"/>
<rect x="318" y="107" width="19.4276" height="1.57971" rx="0.789856" fill="#D8D8D8"/>
<rect x="318" y="115" width="19.4276" height="1.5797" rx="0.789852" fill="#D8D8D8"/>
<rect x="318" y="123" width="19.4276" height="1.57971" rx="0.789856" fill="#D8D8D8"/>
<path d="M215 138.035C215 136.911 215.974 136 217.177 136H228.823C230.026 136 231 136.911 231 138.035V148.965C231 150.089 230.026 151 228.823 151H217.177C215.974 151 215 150.089 215 148.965V138.035Z" fill="white"/>
<path fill-rule="evenodd" clip-rule="evenodd" d="M228.823 136.543H217.177C216.275 136.543 215.544 137.271 215.544 138.17V149.83C215.544 150.729 216.275 151.457 217.177 151.457H228.823C229.725 151.457 230.456 150.729 230.456 149.83V138.17C230.456 137.271 229.725 136.543 228.823 136.543ZM217.177 136C215.974 136 215 136.972 215 138.17V149.83C215 151.028 215.974 152 217.177 152H228.823C230.026 152 231 151.028 231 149.83V138.17C231 136.972 230.026 136 228.823 136H217.177Z" fill="#333333"/>
<path d="M287 138.17C287 136.972 287.974 136 289.177 136H300.823C302.026 136 303 136.972 303 138.17V149.83C303 151.028 302.026 152 300.823 152H289.177C287.974 152 287 151.028 287 149.83V138.17Z" fill="white"/>
<path fill-rule="evenodd" clip-rule="evenodd" d="M300.823 136.543H289.177C288.275 136.543 287.544 137.271 287.544 138.17V149.83C287.544 150.729 288.275 151.457 289.177 151.457H300.823C301.725 151.457 302.456 150.729 302.456 149.83V138.17C302.456 137.271 301.725 136.543 300.823 136.543ZM289.177 136C287.974 136 287 136.972 287 138.17V149.83C287 151.028 287.974 152 289.177 152H300.823C302.026 152 303 151.028 303 149.83V138.17C303 136.972 302.026 136 300.823 136H289.177Z" fill="#333333"/>
<path d="M294.649 146.689C294.577 146.76 294.481 146.799 294.381 146.799C294.331 146.8 294.281 146.79 294.235 146.771C294.189 146.752 294.147 146.724 294.112 146.689L291.982 144.564C291.926 144.513 291.882 144.45 291.851 144.38C291.821 144.31 291.805 144.235 291.805 144.159C291.805 144.082 291.821 144.007 291.851 143.937C291.882 143.867 291.926 143.805 291.982 143.753L292.245 143.488C292.296 143.432 292.358 143.387 292.427 143.357C292.497 143.326 292.572 143.31 292.647 143.31C292.723 143.31 292.798 143.326 292.867 143.357C292.936 143.387 292.998 143.432 293.05 143.488L294.381 144.829L297.979 141.203C298.03 141.148 298.092 141.104 298.161 141.074C298.229 141.044 298.304 141.029 298.378 141.029C298.453 141.029 298.528 141.044 298.596 141.074C298.665 141.104 298.727 141.148 298.778 141.203L299.047 141.468C299.152 141.577 299.211 141.722 299.211 141.874C299.211 142.026 299.152 142.171 299.047 142.28L294.649 146.689Z" fill="#BDECFF"/>
<path d="M222.973 146.816C222.902 146.887 222.805 146.927 222.705 146.927C222.655 146.927 222.606 146.918 222.56 146.899C222.514 146.88 222.472 146.852 222.437 146.816L220.306 144.692C220.251 144.64 220.206 144.577 220.176 144.507C220.146 144.438 220.13 144.362 220.13 144.286C220.13 144.21 220.146 144.134 220.176 144.065C220.206 143.995 220.251 143.932 220.306 143.88L220.569 143.616C220.62 143.56 220.683 143.515 220.752 143.484C220.821 143.454 220.896 143.438 220.972 143.438C221.047 143.438 221.122 143.454 221.191 143.484C221.261 143.515 221.323 143.56 221.374 143.616L222.705 144.957L226.303 141.331C226.354 141.276 226.416 141.232 226.485 141.202C226.554 141.172 226.628 141.156 226.703 141.156C226.778 141.156 226.852 141.172 226.921 141.202C226.99 141.232 227.052 141.276 227.103 141.331L227.371 141.596C227.476 141.704 227.535 141.85 227.535 142.001C227.535 142.153 227.476 142.299 227.371 142.407L222.973 146.816Z" fill="#FFC671"/>
<path d="M294.38 146.937C294.313 146.938 294.245 146.925 294.182 146.9C294.119 146.874 294.062 146.836 294.014 146.788L291.883 144.636C291.817 144.571 291.765 144.493 291.73 144.407C291.694 144.322 291.676 144.23 291.676 144.137C291.676 144.044 291.694 143.952 291.73 143.866C291.765 143.78 291.817 143.703 291.883 143.637L292.151 143.367C292.283 143.234 292.461 143.16 292.647 143.16C292.833 143.16 293.011 143.234 293.143 143.367L294.38 144.609L297.88 141.082C298.012 140.949 298.191 140.874 298.378 140.873C298.565 140.874 298.744 140.949 298.877 141.082L299.145 141.353C299.21 141.419 299.262 141.497 299.297 141.583C299.331 141.669 299.349 141.762 299.348 141.855C299.348 142.042 299.275 142.223 299.145 142.357L294.764 146.772C294.715 146.825 294.656 146.867 294.59 146.895C294.524 146.924 294.452 146.938 294.38 146.937ZM292.644 143.461C292.531 143.461 292.423 143.507 292.343 143.588L292.075 143.858C292.035 143.898 292.003 143.946 291.981 143.998C291.959 144.051 291.948 144.107 291.948 144.164C291.948 144.221 291.959 144.278 291.981 144.33C292.003 144.383 292.035 144.431 292.075 144.471L294.211 146.623C294.257 146.665 294.318 146.689 294.38 146.689C294.443 146.689 294.504 146.665 294.55 146.623L298.932 142.208C298.972 142.169 299.004 142.121 299.025 142.069C299.047 142.017 299.058 141.961 299.058 141.905C299.058 141.847 299.047 141.79 299.025 141.737C299.003 141.684 298.972 141.636 298.932 141.595L298.663 141.325C298.583 141.245 298.475 141.199 298.362 141.198C298.249 141.199 298.141 141.245 298.061 141.325L294.364 145.05L292.935 143.61C292.861 143.524 292.757 143.47 292.644 143.461Z" fill="#333333"/>
<path d="M222.705 147.065C222.637 147.066 222.57 147.053 222.507 147.027C222.444 147.002 222.386 146.964 222.338 146.916L220.208 144.764C220.142 144.698 220.09 144.621 220.054 144.535C220.018 144.449 220 144.357 220 144.264C220 144.171 220.018 144.079 220.054 143.993C220.09 143.908 220.142 143.83 220.208 143.765L220.476 143.494C220.607 143.362 220.786 143.287 220.972 143.287C221.157 143.287 221.336 143.362 221.467 143.494L222.705 144.736L226.205 141.21C226.337 141.077 226.516 141.001 226.703 141C226.89 141.001 227.069 141.077 227.201 141.21L227.47 141.48C227.535 141.546 227.586 141.624 227.621 141.711C227.656 141.797 227.673 141.889 227.672 141.982C227.672 142.17 227.6 142.35 227.47 142.484L223.088 146.899C223.039 146.952 222.98 146.994 222.914 147.023C222.848 147.051 222.777 147.066 222.705 147.065ZM220.969 143.588C220.856 143.589 220.747 143.634 220.668 143.715L220.399 143.985C220.359 144.026 220.327 144.073 220.305 144.126C220.283 144.178 220.272 144.235 220.272 144.292C220.272 144.349 220.283 144.405 220.305 144.458C220.327 144.51 220.359 144.558 220.399 144.598L222.535 146.75C222.582 146.793 222.642 146.816 222.705 146.816C222.768 146.816 222.828 146.793 222.875 146.75L227.256 142.335C227.296 142.296 227.328 142.249 227.35 142.197C227.371 142.145 227.382 142.088 227.382 142.032C227.382 141.975 227.371 141.918 227.35 141.865C227.328 141.812 227.296 141.764 227.256 141.723L226.988 141.453C226.908 141.372 226.799 141.327 226.686 141.326C226.573 141.327 226.465 141.372 226.385 141.453L222.688 145.177L221.259 143.737C221.185 143.651 221.081 143.598 220.969 143.588Z" fill="#333333"/>
<path d="M361.25 138C361.25 137.034 362.034 136.25 363 136.25H375C375.966 136.25 376.75 137.034 376.75 138V150C376.75 150.966 375.966 151.75 375 151.75H363C362.034 151.75 361.25 150.966 361.25 150V138Z" fill="white" stroke="#333333" stroke-width="0.5"/>
<path d="M368.159 146.689C368.087 146.76 367.991 146.799 367.89 146.799C367.841 146.8 367.791 146.79 367.745 146.771C367.699 146.752 367.657 146.724 367.622 146.689L365.491 144.564C365.436 144.513 365.392 144.45 365.361 144.38C365.331 144.31 365.315 144.235 365.315 144.159C365.315 144.082 365.331 144.007 365.361 143.937C365.392 143.867 365.436 143.805 365.491 143.753L365.754 143.488C365.806 143.432 365.868 143.387 365.937 143.357C366.006 143.326 366.081 143.31 366.157 143.31C366.233 143.31 366.307 143.326 366.377 143.357C366.446 143.387 366.508 143.432 366.559 143.488L367.89 144.829L371.489 141.203C371.54 141.148 371.602 141.104 371.67 141.074C371.739 141.044 371.813 141.029 371.888 141.029C371.963 141.029 372.037 141.044 372.106 141.074C372.175 141.104 372.237 141.148 372.288 141.203L372.556 141.468C372.662 141.577 372.721 141.722 372.721 141.874C372.721 142.026 372.662 142.171 372.556 142.28L368.159 146.689Z" fill="white"/>
<path d="M367.89 146.937C367.822 146.938 367.755 146.925 367.692 146.9C367.629 146.874 367.572 146.836 367.523 146.788L365.393 144.636C365.327 144.571 365.275 144.493 365.239 144.407C365.204 144.322 365.185 144.23 365.185 144.137C365.185 144.044 365.204 143.952 365.239 143.866C365.275 143.78 365.327 143.703 365.393 143.637L365.661 143.367C365.793 143.234 365.971 143.16 366.157 143.16C366.343 143.16 366.521 143.234 366.653 143.367L367.89 144.609L371.39 141.082C371.522 140.949 371.701 140.874 371.888 140.873C372.075 140.874 372.254 140.949 372.387 141.082L372.655 141.353C372.72 141.419 372.772 141.497 372.806 141.583C372.841 141.669 372.859 141.762 372.858 141.855C372.858 142.042 372.785 142.223 372.655 142.357L368.274 146.772C368.225 146.825 368.165 146.867 368.099 146.895C368.033 146.924 367.962 146.938 367.89 146.937ZM366.154 143.461C366.041 143.461 365.933 143.507 365.853 143.588L365.585 143.858C365.544 143.898 365.512 143.946 365.491 143.998C365.469 144.051 365.458 144.107 365.458 144.164C365.458 144.221 365.469 144.278 365.491 144.33C365.512 144.383 365.544 144.431 365.585 144.471L367.72 146.623C367.767 146.665 367.827 146.689 367.89 146.689C367.953 146.689 368.014 146.665 368.06 146.623L372.441 142.208C372.482 142.169 372.513 142.121 372.535 142.069C372.557 142.017 372.568 141.961 372.567 141.905C372.568 141.847 372.557 141.79 372.535 141.737C372.513 141.684 372.482 141.636 372.441 141.595L372.173 141.325C372.093 141.245 371.985 141.199 371.872 141.198C371.759 141.199 371.651 141.245 371.571 141.325L367.874 145.05L366.444 143.61C366.371 143.524 366.266 143.47 366.154 143.461Z" fill="#333333"/>
<path d="M212 66.5V78H223.5" stroke="#333333" stroke-width="0.5"/>
<path d="M284 66V78H295.5" stroke="#333333" stroke-width="0.5"/>
<path d="M360 66.5V78H371.5" stroke="#333333" stroke-width="0.5"/>
<defs>
<filter id="filter0_d" x="144.32" y="78.3091" width="28.873" height="20.7595" filterUnits="userSpaceOnUse" color-interpolation-filters="sRGB">
<feFlood flood-opacity="0" result="BackgroundImageFix"/>
<feColorMatrix in="SourceAlpha" type="matrix" values="0 0 0 0 0 0 0 0 0 0 0 0 0 0 0 0 0 0 127 0"/>
<feOffset dy="4"/>
<feColorMatrix type="matrix" values="0 0 0 0 0.333333 0 0 0 0 0.333333 0 0 0 0 0.333333 0 0 0 0.18 0"/>
<feBlend mode="normal" in2="BackgroundImageFix" result="effect1_dropShadow"/>
<feBlend mode="normal" in="SourceGraphic" in2="effect1_dropShadow" result="shape"/>
</filter>
<linearGradient id="paint0_linear" x1="141.504" y1="83.4119" x2="151.657" y2="99.3481" gradientUnits="userSpaceOnUse">
<stop stop-color="#FFC671"/>
<stop offset="0.59375" stop-color="#FF7541"/>
<stop offset="1" stop-color="#FF6F3D"/>
</linearGradient>
<linearGradient id="paint1_linear" x1="150.327" y1="85.9461" x2="160.444" y2="101.784" gradientUnits="userSpaceOnUse">
<stop stop-color="#FFC671"/>
<stop offset="0.59375" stop-color="#FF7541"/>
<stop offset="1" stop-color="#FF6F3D"/>
</linearGradient>
<linearGradient id="paint2_linear" x1="170.143" y1="79.9307" x2="170.143" y2="82.8268" gradientUnits="userSpaceOnUse">
<stop stop-color="white"/>
<stop offset="1" stop-color="white"/>
</linearGradient>
<linearGradient id="paint3_linear" x1="14819.3" y1="364.66" x2="18520.1" y2="364.66" gradientUnits="userSpaceOnUse">
<stop stop-color="#FFC671"/>
<stop offset="0.59" stop-color="#FF7541"/>
<stop offset="1" stop-color="#FF6F3D"/>
</linearGradient>
<linearGradient id="paint4_linear" x1="1621.92" y1="2084.4" x2="1630.48" y2="2084.4" gradientUnits="userSpaceOnUse">
<stop stop-color="#FFC671"/>
<stop offset="0.59" stop-color="#FF7541"/>
<stop offset="1" stop-color="#FF6F3D"/>
</linearGradient>
<linearGradient id="paint5_linear" x1="1643.04" y1="1218.08" x2="1651.6" y2="1218.08" gradientUnits="userSpaceOnUse">
<stop stop-color="#FFC671"/>
<stop offset="0.59" stop-color="#FF7541"/>
<stop offset="1" stop-color="#FF6F3D"/>
</linearGradient>
<linearGradient id="paint6_linear" x1="1685.28" y1="2249.96" x2="1693.84" y2="2249.96" gradientUnits="userSpaceOnUse">
<stop stop-color="#FFC671"/>
<stop offset="0.59" stop-color="#FF7541"/>
<stop offset="1" stop-color="#FF6F3D"/>
</linearGradient>
<linearGradient id="paint7_linear" x1="1664.16" y1="1396" x2="1672.72" y2="1396" gradientUnits="userSpaceOnUse">
<stop stop-color="#FFC671"/>
<stop offset="0.59" stop-color="#FF7541"/>
<stop offset="1" stop-color="#FF6F3D"/>
</linearGradient>
<linearGradient id="paint8_linear" x1="1706.42" y1="2896.56" x2="1714.98" y2="2896.56" gradientUnits="userSpaceOnUse">
<stop stop-color="#FFC671"/>
<stop offset="0.59" stop-color="#FF7541"/>
<stop offset="1" stop-color="#FF6F3D"/>
</linearGradient>
</defs>
    </symbol>
</svg>
