<svg width="377" height="193" viewBox="0 0 377 193" fill="none" xmlns="http://www.w3.org/2000/svg">
    <symbol id="connect2-dark" viewBox="0 0 377 193">
<rect width="377" height="193" fill="#333333"/>
<g clip-path="url(#clip0)">
<path fill-rule="evenodd" clip-rule="evenodd" d="M52.3416 91.4725C52.4436 92.6256 52.3939 93.7872 52.1937 94.9271L54.713 96.8861L52.5223 101.698L49.3841 101.047C48.6495 101.937 47.8004 102.723 46.8594 103.387L47.2647 106.565L42.3356 108.387L40.6105 105.694C39.4664 105.801 38.3133 105.753 37.182 105.55L35.2378 108.089L30.4621 105.854L31.1139 102.703C30.2309 101.96 29.45 101.103 28.7917 100.153L25.6371 100.567L23.8298 95.6003L26.5025 93.862C26.3957 92.7093 26.4436 91.5473 26.6449 90.4075L24.1256 88.4429L26.3163 83.6309L29.427 84.3096C30.1614 83.4183 31.0105 82.6295 31.9518 81.9643L31.5465 78.7857L36.4755 76.9646L38.2007 79.6576C39.345 79.5518 40.4982 79.6019 41.6291 79.8066L43.5788 77.2681L48.349 79.4755L47.6809 82.6099C48.5664 83.3473 49.3477 84.2032 50.003 85.1539L53.1576 84.7456L54.9704 89.7122L52.2978 91.4505L52.3416 91.4725ZM44.8056 90.9207C44.4215 89.8643 43.7351 88.9463 42.8332 88.2829C41.9314 87.6195 40.8546 87.2404 39.7389 87.1935C38.6233 87.1467 37.5189 87.4342 36.5654 88.0197C35.6119 88.6052 34.8521 89.4624 34.382 90.483C33.912 91.5036 33.7528 92.6416 33.9246 93.7534C34.0963 94.8651 34.5914 95.9005 35.3471 96.7288C36.1028 97.5571 37.0853 98.141 38.1703 98.4067C39.2554 98.6724 40.3942 98.608 41.4429 98.2216C42.8487 97.7031 43.9926 96.6434 44.6231 95.2754C45.2537 93.9073 45.3193 92.343 44.8056 90.9262V90.9207Z" fill="#606060"/>
<path fill-rule="evenodd" clip-rule="evenodd" d="M32.6685 59.5266C32.7927 60.8488 32.7374 62.1818 32.5043 63.4889L35.3905 65.7294L32.8493 71.2478L29.2839 70.4752C28.4405 71.4927 27.4683 72.3944 26.3922 73.1572L26.8578 76.7993L21.1894 78.8853L19.2123 75.8005C17.8958 75.931 16.5679 75.8846 15.2636 75.6625L13.0729 78.5431L7.59619 75.9826L8.36293 72.3901C7.34892 71.5426 6.45355 70.5606 5.70125 69.4708L2.08663 69.9399L0 64.2339L3.06148 62.2417C2.93665 60.92 2.98822 59.5874 3.21483 58.2795L0.328602 56.039L2.86979 50.5206L6.43513 51.2931C7.28308 50.2772 8.26098 49.3791 9.34326 48.6222L8.87774 44.9856L14.5461 42.8831L16.5232 45.9679C17.8339 45.8474 19.1546 45.905 20.45 46.1389L22.679 43.2307L28.1557 45.7858L27.389 49.3782C28.403 50.2257 29.2984 51.2078 30.0507 52.2975L33.6653 51.8284L35.7355 57.5345L32.674 59.5266H32.6685ZM24.0263 58.9031C23.5845 57.6932 22.7965 56.6426 21.7621 55.8841C20.7276 55.1256 19.4932 54.6932 18.2148 54.6416C16.9365 54.5901 15.6717 54.9217 14.5804 55.5946C13.4891 56.2674 12.6203 57.2512 12.084 58.4216C11.5477 59.592 11.3679 60.8963 11.5673 62.1697C11.7668 63.443 12.3365 64.6282 13.2045 65.5753C14.0725 66.5223 15.1997 67.1887 16.4436 67.4902C17.6875 67.7917 18.9922 67.7147 20.1926 67.269C21.8018 66.6715 23.1095 65.4546 23.8285 63.8858C24.5474 62.317 24.6185 60.5247 24.0263 58.9031Z" fill="#606060"/>
<path d="M48.2114 48.0703C48.21 47.434 48.3329 46.8037 48.5733 46.2153C48.8136 45.6269 49.1666 45.092 49.6121 44.641C50.0576 44.1901 50.5869 43.832 51.1697 43.5871C51.7526 43.3423 52.3776 43.2156 53.009 43.2141H179.8C180.432 43.2156 181.057 43.3423 181.64 43.5871C182.222 43.832 182.752 44.1901 183.197 44.641C183.643 45.092 183.996 45.6269 184.236 46.2153C184.476 46.8037 184.599 47.434 184.598 48.0703V133.418H48.2279L48.2114 48.0703Z" fill="#606060"/>
<path d="M185.803 133.418H47.0284V47.9875C47.0327 47.1954 47.1921 46.412 47.4974 45.6821C47.8027 44.9522 48.2479 44.2902 48.8075 43.734C49.3672 43.1778 50.0302 42.7383 50.7587 42.4408C51.4872 42.1432 52.2668 41.9934 53.0528 42H179.8C180.586 41.9934 181.366 42.1432 182.094 42.4408C182.823 42.7383 183.486 43.1778 184.046 43.734C184.605 44.2902 185.05 44.9522 185.356 45.6821C185.661 46.412 185.82 47.1954 185.825 47.9875L185.803 133.418ZM53.009 43.1975C52.3814 43.1938 51.7592 43.3149 51.1781 43.5537C50.5969 43.7925 50.0682 44.1444 49.6221 44.5893C49.176 45.0342 48.8214 45.5633 48.5784 46.1463C48.3354 46.7294 48.2088 47.3551 48.2059 47.9875V132.221H184.603V47.9875C184.6 47.3551 184.474 46.7294 184.231 46.1463C183.988 45.5633 183.633 45.0342 183.187 44.5893C182.741 44.1444 182.212 43.7925 181.631 43.5537C181.05 43.3149 180.428 43.1938 179.8 43.1975H53.009Z" fill="#333333"/>
<path d="M179.192 129.191C179.509 129.191 179.814 129.065 180.039 128.839C180.263 128.614 180.39 128.308 180.392 127.988V48.6498C180.39 48.3302 180.263 48.0242 180.039 47.7988C179.814 47.5733 179.509 47.4468 179.192 47.4468H53.0145C52.6973 47.4468 52.3931 47.5733 52.1683 47.7988C51.9435 48.0242 51.8165 48.3302 51.8151 48.6498V127.977C51.8165 128.297 51.9435 128.603 52.1683 128.828C52.3931 129.054 52.6973 129.18 53.0145 129.18L179.192 129.191Z" fill="#808080"/>
<path d="M179.795 128.579V48.6553C179.795 48.5759 179.779 48.4972 179.749 48.4238C179.718 48.3505 179.674 48.2839 179.618 48.228C179.562 48.1721 179.496 48.1279 179.422 48.098C179.349 48.0681 179.271 48.0531 179.192 48.0538H53.0145C52.9356 48.0531 52.8574 48.0681 52.7843 48.098C52.7113 48.1279 52.6448 48.1721 52.5888 48.228C52.5328 48.2839 52.4883 48.3505 52.458 48.4238C52.4276 48.4972 52.412 48.5759 52.412 48.6553V128.579C52.412 128.658 52.4276 128.737 52.458 128.81C52.4883 128.884 52.5328 128.95 52.5888 129.006C52.6448 129.062 52.7113 129.106 52.7843 129.136C52.8574 129.166 52.9356 129.181 53.0145 129.18H179.192C179.271 129.181 179.349 129.166 179.422 129.136C179.496 129.106 179.562 129.062 179.618 129.006C179.674 128.95 179.718 128.884 179.749 128.81C179.779 128.737 179.795 128.658 179.795 128.579ZM180.392 128.579C180.39 128.898 180.263 129.204 180.039 129.43C179.814 129.655 179.509 129.782 179.192 129.782H53.0145C52.6973 129.782 52.3931 129.655 52.1683 129.43C51.9435 129.204 51.8165 128.898 51.8151 128.579V48.6553C51.8151 48.3348 51.9414 48.0274 52.1664 47.8008C52.3913 47.5741 52.6964 47.4468 53.0145 47.4468H179.192C179.51 47.4468 179.816 47.5741 180.04 47.8008C180.265 48.0274 180.392 48.3348 180.392 48.6553V128.579Z" fill="#333333"/>
<g filter="url(#filter0_d)">
<path d="M144.319 78.6177C144.319 78.4473 144.462 78.3091 144.638 78.3091H172.873C173.049 78.3091 173.192 78.4473 173.192 78.6177V94.7599C173.192 94.9304 173.049 95.0686 172.873 95.0686H144.638C144.462 95.0686 144.319 94.9304 144.319 94.7599V78.6177Z" fill="#9F9F9F"/>
</g>
<path fill-rule="evenodd" clip-rule="evenodd" d="M144.638 78H172.873C173.225 78 173.511 78.2764 173.511 78.6173V94.7595C173.511 95.1004 173.225 95.3768 172.873 95.3768H144.638C144.286 95.3768 144 95.1004 144 94.7595V78.6173C144 78.2764 144.286 78 144.638 78ZM144.638 78.3087C144.462 78.3087 144.319 78.4469 144.319 78.6173V94.7595C144.319 94.93 144.462 95.0681 144.638 95.0681H172.873C173.049 95.0681 173.192 94.93 173.192 94.7595V78.6173C173.192 78.4469 173.049 78.3087 172.873 78.3087H144.638Z" fill="#ADADAD"/>
<mask id="mask0" mask-type="alpha" maskUnits="userSpaceOnUse" x="144" y="79" width="26" height="17">
<path d="M144.276 79.583H169.847V95.0682H144.276V79.583Z" fill="#EFEFEF"/>
</mask>
<g mask="url(#mask0)">
<path d="M150.069 83.8491L158.414 95.0432H141.504L150.069 83.8491Z" fill="url(#paint0_linear)"/>
<path d="M150.07 83.8479L151.981 86.3678L150.887 86.008L150.067 86.7276L149.246 86.008L148.143 86.3569L150.07 83.8479Z" fill="#D7D7D7"/>
<path d="M158.83 86.3813L167.114 97.5231H150.327L158.83 86.3813Z" fill="url(#paint1_linear)"/>
<path d="M158.818 86.3813L160.868 89.0252L159.697 88.6475L158.818 89.4028L157.94 88.6475L156.769 89.0252L158.818 86.3813Z" fill="#D7D7D7"/>
</g>
<path d="M171.586 81.3787C171.586 82.1785 170.94 82.8268 170.143 82.8268C169.346 82.8268 168.699 82.1785 168.699 81.3787C168.699 80.579 169.346 79.9307 170.143 79.9307C170.94 79.9307 171.586 80.579 171.586 81.3787Z" fill="url(#paint2_linear)"/>
<path d="M67.3744 138.799H100.623V138.931H108.247V138.799H125.597V138.959H135.883V138.799H191.252C192.957 138.746 194.647 138.468 196.28 137.971C197.068 137.722 197.837 137.414 198.58 137.049H154.372V136.63H146.261V137.016L135.883 136.823V136.696H125.597V137.016L108.86 136.762H100.645V137.049L69.2475 136.63L68.6998 136.762L58.5186 136.856L32.6302 136.79C33.2975 137.48 34.0918 138.033 34.9687 138.418C36.8144 138.97 39.1529 138.97 40.6426 138.97H58.5186L66.3996 139.163L67.3744 138.799Z" fill="#606060"/>
<path d="M198.29 137.049L199.1 136.498H32.3454L32.8931 137.049H198.29Z" fill="#333333"/>
<path d="M32.6357 133.418V136.58C33.731 137.684 36.2996 138.953 41.3984 138.788L189.981 138.865C191.848 138.737 193.699 138.428 195.507 137.943C196.318 137.75 198.941 136.74 198.974 136.448V133.418C143.555 133.512 88.1037 133.418 32.6357 133.418ZM41.3984 139.489C38.545 139.489 35.5602 139.489 32.5097 137.474C32.3577 137.38 32.2291 137.252 32.1342 137.1C32.0392 136.948 31.9803 136.776 31.962 136.597V133.865C31.9873 133.587 32.1127 133.328 32.3145 133.137C32.5163 132.946 32.7805 132.836 33.0574 132.828H198.733C198.857 132.82 198.98 132.839 199.096 132.885C199.211 132.93 199.315 133 199.401 133.089C199.487 133.179 199.553 133.287 199.594 133.404C199.634 133.522 199.649 133.647 199.637 133.772V136.564L199.604 136.597C199.48 136.898 199.247 137.141 198.952 137.276C197.84 137.927 196.639 138.408 195.387 138.705C193.66 139.166 191.887 139.429 190.102 139.489H41.3984Z" fill="#333333"/>
<path opacity="0.6" d="M83.6867 75H60.3176C60.2334 75 60.1526 75.0337 60.093 75.0937C60.0335 75.1538 60 75.2352 60 75.3201C60 75.405 60.0335 75.4864 60.093 75.5464C60.1526 75.6064 60.2334 75.6401 60.3176 75.6401H83.6867C83.771 75.6401 83.8518 75.6064 83.9114 75.5464C83.9709 75.4864 84.0044 75.405 84.0044 75.3201C84.0044 75.2352 83.9709 75.1538 83.9114 75.0937C83.8518 75.0337 83.771 75 83.6867 75Z" fill="#9F9F9F"/>
<path d="M174.539 54H71.4609C71.0735 54 70.7019 53.842 70.4279 53.5607C70.1539 53.2794 70 52.8978 70 52.5C70 52.1022 70.1539 51.7206 70.4279 51.4393C70.7019 51.158 71.0735 51 71.4609 51H174.539C174.927 51 175.298 51.158 175.572 51.4393C175.846 51.7206 176 52.1022 176 52.5C176 52.8978 175.846 53.2794 175.572 53.5607C175.298 53.842 174.927 54 174.539 54ZM71.4609 51.5576C71.2175 51.5576 70.984 51.6569 70.8119 51.8336C70.6398 52.0104 70.5431 52.2501 70.5431 52.5C70.5431 52.7499 70.6398 52.9896 70.8119 53.1664C70.984 53.3431 71.2175 53.4424 71.4609 53.4424H174.539C174.783 53.4424 175.016 53.3431 175.188 53.1664C175.36 52.9896 175.457 52.7499 175.457 52.5C175.457 52.2501 175.36 52.0104 175.188 51.8336C175.016 51.6569 174.783 51.5576 174.539 51.5576H71.4609Z" fill="#B2B2B2"/>
<path d="M90.9133 133.551H47.4885L47.4556 133.584V133.551H32.5864V136.442H199.018V133.418C168.381 133.484 137.756 133.518 107.141 133.518H106.845C101.555 133.551 96.2312 133.551 90.9133 133.551Z" fill="#606060"/>
<path d="M57.3363 53.6268C58.0743 53.6268 58.6726 53.0387 58.6726 52.3134C58.6726 51.588 58.0743 51 57.3363 51C56.5983 51 56 51.588 56 52.3134C56 53.0387 56.5983 53.6268 57.3363 53.6268Z" fill="#B2B2B2"/>
<path d="M61.1536 53.6268C61.8916 53.6268 62.4899 53.0387 62.4899 52.3134C62.4899 51.588 61.8916 51 61.1536 51C60.4155 51 59.8173 51.588 59.8173 52.3134C59.8173 53.0387 60.4155 53.6268 61.1536 53.6268Z" fill="#B2B2B2"/>
<path d="M64.9763 53.6268C65.7144 53.6268 66.3127 53.0387 66.3127 52.3134C66.3127 51.588 65.7144 51 64.9763 51C64.2383 51 63.64 51.588 63.64 52.3134C63.64 53.0387 64.2383 53.6268 64.9763 53.6268Z" fill="#B2B2B2"/>
<path d="M102.831 64H57.1685C56.5232 64 56 64.4467 56 64.9977V65.0023C56 65.5533 56.5232 66 57.1685 66H102.831C103.477 66 104 65.5533 104 65.0023V64.9977C104 64.4467 103.477 64 102.831 64Z" fill="#B2B2B2"/>
<path opacity="0.4" d="M56.3998 84.0004H87.617C87.6674 83.9981 87.7177 84.006 87.765 84.0233C87.8124 84.0407 87.8559 84.0674 87.893 84.1017C87.9302 84.136 87.9602 84.1774 87.9814 84.2235C88.0027 84.2695 88.0147 84.3194 88.0168 84.3701C88.0147 84.4209 88.0027 84.4707 87.9814 84.5167C87.9602 84.5628 87.9302 84.6042 87.893 84.6385C87.8559 84.6729 87.8124 84.6995 87.765 84.7169C87.7177 84.7343 87.6674 84.7421 87.617 84.7398H56.3998C56.3494 84.7421 56.2991 84.7343 56.2518 84.7169C56.2044 84.6995 56.1609 84.6729 56.1238 84.6385C56.0867 84.6042 56.0566 84.5628 56.0354 84.5167C56.0141 84.4707 56.0021 84.4209 56 84.3701C56.0021 84.3194 56.0141 84.2695 56.0354 84.2235C56.0566 84.1774 56.0867 84.136 56.1238 84.1017C56.1609 84.0674 56.2044 84.0407 56.2518 84.0233C56.2991 84.006 56.3494 83.9981 56.3998 84.0004Z" fill="#CCCCCC"/>
<path opacity="0.4" d="M57.0022 78.0008H122.252C122.506 77.9903 122.753 78.0812 122.941 78.2538C123.129 78.4264 123.241 78.6667 123.254 78.9224C123.241 79.1781 123.129 79.4184 122.941 79.591C122.753 79.7636 122.506 79.8545 122.252 79.844H57.0022C56.7484 79.8545 56.5006 79.7636 56.3129 79.591C56.1252 79.4184 56.0128 79.1781 56 78.9224C56.0128 78.6667 56.1252 78.4264 56.3129 78.2538C56.5006 78.0812 56.7484 77.9903 57.0022 78.0008Z" fill="#CCCCCC"/>
<path opacity="0.4" d="M96.5696 84.0004H116.587C116.637 83.9981 116.688 84.006 116.735 84.0233C116.782 84.0407 116.826 84.0674 116.863 84.1017C116.9 84.136 116.93 84.1774 116.951 84.2235C116.973 84.2695 116.985 84.3194 116.987 84.3701C116.985 84.4209 116.973 84.4707 116.951 84.5167C116.93 84.5628 116.9 84.6042 116.863 84.6385C116.826 84.6729 116.782 84.6995 116.735 84.7169C116.688 84.7343 116.637 84.7421 116.587 84.7398H96.5696C96.5192 84.7421 96.4689 84.7343 96.4216 84.7169C96.3742 84.6995 96.3307 84.6729 96.2936 84.6385C96.2565 84.6042 96.2264 84.5628 96.2052 84.5167C96.1839 84.4707 96.1719 84.4209 96.1698 84.3701C96.1719 84.3194 96.1839 84.2695 96.2052 84.2235C96.2264 84.1774 96.2565 84.136 96.2936 84.1017C96.3307 84.0674 96.3742 84.0407 96.4216 84.0233C96.4689 84.006 96.5192 83.9981 96.5696 84.0004Z" fill="#CCCCCC"/>
<path opacity="0.4" d="M56.3998 87.6866H84.4241C84.4745 87.6844 84.5248 87.6922 84.5721 87.7096C84.6195 87.727 84.663 87.7536 84.7001 87.788C84.7372 87.8223 84.7673 87.8637 84.7885 87.9098C84.8098 87.9558 84.8218 88.0056 84.8239 88.0564C84.8218 88.1071 84.8098 88.1569 84.7885 88.203C84.7673 88.2491 84.7372 88.2904 84.7001 88.3248C84.663 88.3591 84.6195 88.3858 84.5721 88.4031C84.5248 88.4205 84.4745 88.4283 84.4241 88.4261H56.3998C56.3494 88.4283 56.2991 88.4205 56.2518 88.4031C56.2044 88.3858 56.1609 88.3591 56.1238 88.3248C56.0867 88.2904 56.0566 88.2491 56.0354 88.203C56.0141 88.1569 56.0021 88.1071 56 88.0564C56.0021 88.0056 56.0141 87.9558 56.0354 87.9098C56.0566 87.8637 56.0867 87.8223 56.1238 87.788C56.1609 87.7536 56.2044 87.727 56.2518 87.7096C56.2991 87.6922 56.3494 87.6844 56.3998 87.6866Z" fill="#CCCCCC"/>
<path opacity="0.4" d="M96.5696 87.6866H127.787C127.837 87.6844 127.887 87.6922 127.935 87.7096C127.982 87.727 128.026 87.7536 128.063 87.788C128.1 87.8223 128.13 87.8637 128.151 87.9098C128.172 87.9558 128.185 88.0056 128.187 88.0564C128.185 88.1071 128.172 88.1569 128.151 88.203C128.13 88.2491 128.1 88.2904 128.063 88.3248C128.026 88.3591 127.982 88.3858 127.935 88.4031C127.887 88.4205 127.837 88.4283 127.787 88.4261H96.5696C96.5192 88.4283 96.4689 88.4205 96.4216 88.4031C96.3742 88.3858 96.3307 88.3591 96.2936 88.3248C96.2565 88.2904 96.2264 88.2491 96.2052 88.203C96.1839 88.1569 96.1719 88.1071 96.1698 88.0564C96.1719 88.0056 96.1839 87.9558 96.2052 87.9098C96.2264 87.8637 96.2565 87.8223 96.2936 87.788C96.3307 87.7536 96.3742 87.727 96.4216 87.7096C96.4689 87.6922 96.5192 87.6844 96.5696 87.6866Z" fill="#CCCCCC"/>
<path opacity="0.4" d="M56.3998 91.3786H87.617C87.7178 91.374 87.8163 91.4097 87.8912 91.4779C87.966 91.5461 88.0112 91.6413 88.0168 91.7428C88.0147 91.7935 88.0027 91.8433 87.9814 91.8894C87.9602 91.9355 87.9302 91.9768 87.893 92.0112C87.8559 92.0455 87.8124 92.0721 87.765 92.0895C87.7177 92.1069 87.6674 92.1147 87.617 92.1125H56.3998C56.3494 92.1147 56.2991 92.1069 56.2518 92.0895C56.2044 92.0721 56.1609 92.0455 56.1238 92.0112C56.0867 91.9768 56.0566 91.9355 56.0354 91.8894C56.0141 91.8433 56.0021 91.7935 56 91.7428C56.0057 91.6413 56.0508 91.5461 56.1257 91.4779C56.2005 91.4097 56.299 91.374 56.3998 91.3786Z" fill="#CCCCCC"/>
<path opacity="0.4" d="M96.5696 91.3786H121.762C121.863 91.374 121.962 91.4097 122.037 91.4779C122.111 91.5461 122.157 91.6413 122.162 91.7428C122.16 91.7935 122.148 91.8433 122.127 91.8894C122.106 91.9355 122.076 91.9768 122.038 92.0112C122.001 92.0455 121.958 92.0721 121.91 92.0895C121.863 92.1069 121.813 92.1147 121.762 92.1125H96.5696C96.5192 92.1147 96.4689 92.1069 96.4216 92.0895C96.3742 92.0721 96.3307 92.0455 96.2936 92.0112C96.2565 91.9768 96.2264 91.9355 96.2052 91.8894C96.1839 91.8433 96.1719 91.7935 96.1698 91.7428C96.1755 91.6413 96.2206 91.5461 96.2955 91.4779C96.3703 91.4097 96.4688 91.374 96.5696 91.3786Z" fill="#CCCCCC"/>
<path opacity="0.4" d="M56.3998 95.0648H82.8194C82.9217 95.0603 83.0216 95.0966 83.0975 95.1658C83.1733 95.235 83.219 95.3316 83.2247 95.4346C83.2177 95.5365 83.1713 95.6317 83.0956 95.6998C83.0199 95.7678 82.9208 95.8033 82.8194 95.7988H56.3998C56.299 95.8033 56.2005 95.7676 56.1257 95.6994C56.0508 95.6312 56.0057 95.5361 56 95.4346C56.0021 95.3838 56.0141 95.334 56.0354 95.2879C56.0566 95.2419 56.0867 95.2005 56.1238 95.1662C56.1609 95.1318 56.2044 95.1052 56.2518 95.0878C56.2991 95.0704 56.3494 95.0626 56.3998 95.0648Z" fill="#CCCCCC"/>
<path opacity="0.4" d="M96.5696 95.0648H127.787C127.837 95.0626 127.887 95.0704 127.935 95.0878C127.982 95.1052 128.026 95.1318 128.063 95.1661C128.1 95.2005 128.13 95.2419 128.151 95.2879C128.172 95.334 128.185 95.3838 128.187 95.4346C128.181 95.5361 128.136 95.6312 128.061 95.6994C127.986 95.7676 127.888 95.8033 127.787 95.7988H96.5696C96.4688 95.8033 96.3703 95.7676 96.2955 95.6994C96.2206 95.6312 96.1755 95.5361 96.1698 95.4346C96.1719 95.3838 96.1839 95.334 96.2052 95.2879C96.2264 95.2419 96.2565 95.2005 96.2936 95.1661C96.3307 95.1318 96.3742 95.1052 96.4216 95.0878C96.4689 95.0704 96.5192 95.0626 96.5696 95.0648Z" fill="#CCCCCC"/>
<path opacity="0.4" d="M56.4053 103.265H87.7923C87.8426 103.263 87.8929 103.271 87.9403 103.288C87.9877 103.306 88.0311 103.332 88.0683 103.367C88.1054 103.401 88.1355 103.442 88.1567 103.488C88.178 103.534 88.19 103.584 88.1921 103.635C88.19 103.686 88.178 103.736 88.1567 103.782C88.1355 103.828 88.1054 103.869 88.0683 103.903C88.0311 103.938 87.9877 103.964 87.9403 103.982C87.8929 103.999 87.8426 104.007 87.7923 104.005H56.4053C56.303 104.009 56.2031 103.973 56.1273 103.904C56.0514 103.835 56.0057 103.738 56 103.635C56.0057 103.532 56.0514 103.435 56.1273 103.366C56.2031 103.297 56.303 103.261 56.4053 103.265Z" fill="#CCCCCC"/>
<path opacity="0.4" d="M56.4053 106.93H84.572C84.6742 106.925 84.7741 106.961 84.85 107.031C84.9259 107.1 84.9716 107.196 84.9773 107.299C84.9716 107.402 84.9259 107.499 84.85 107.568C84.7741 107.637 84.6742 107.674 84.572 107.669H56.4053C56.303 107.674 56.2031 107.637 56.1273 107.568C56.0514 107.499 56.0057 107.402 56 107.299C56.0057 107.196 56.0514 107.1 56.1273 107.031C56.2031 106.961 56.303 106.925 56.4053 106.93Z" fill="#CCCCCC"/>
<path opacity="0.4" d="M56.4053 110.643H87.7923C87.8426 110.641 87.8929 110.649 87.9403 110.666C87.9877 110.684 88.0311 110.71 88.0683 110.745C88.1054 110.779 88.1355 110.82 88.1567 110.866C88.178 110.912 88.19 110.962 88.1921 111.013C88.19 111.063 88.1779 111.113 88.1566 111.159C88.1353 111.205 88.1052 111.246 88.068 111.279C88.0307 111.313 87.9872 111.339 87.9399 111.356C87.8925 111.373 87.8424 111.38 87.7923 111.377H56.4053C56.3549 111.38 56.3045 111.373 56.2568 111.356C56.2092 111.34 56.1653 111.314 56.1276 111.28C56.09 111.246 56.0593 111.205 56.0374 111.159C56.0155 111.113 56.0028 111.064 56 111.013C56.0057 110.91 56.0514 110.813 56.1273 110.744C56.2031 110.675 56.303 110.639 56.4053 110.643Z" fill="#CCCCCC"/>
<path opacity="0.4" d="M56.4053 114.33H82.9618C83.0641 114.325 83.164 114.361 83.2398 114.431C83.3157 114.5 83.3614 114.596 83.3671 114.699C83.3614 114.802 83.3157 114.899 83.2398 114.968C83.164 115.037 83.0641 115.074 82.9618 115.069H56.4053C56.303 115.074 56.2031 115.037 56.1273 114.968C56.0514 114.899 56.0057 114.802 56 114.699C56.0057 114.596 56.0514 114.5 56.1273 114.431C56.2031 114.361 56.303 114.325 56.4053 114.33Z" fill="#CCCCCC"/>
<path opacity="0.4" d="M96.4053 103.265H127.792C127.895 103.261 127.994 103.297 128.07 103.366C128.146 103.435 128.192 103.532 128.198 103.635C128.192 103.738 128.146 103.835 128.07 103.904C127.994 103.973 127.895 104.009 127.792 104.005H96.4053C96.303 104.009 96.2031 103.973 96.1273 103.904C96.0514 103.835 96.0057 103.738 96 103.635C96.0057 103.532 96.0514 103.435 96.1273 103.366C96.2031 103.297 96.303 103.261 96.4053 103.265Z" fill="#CCCCCC"/>
<path opacity="0.4" d="M96.4053 106.93H124.572C124.674 106.925 124.774 106.961 124.85 107.031C124.926 107.1 124.972 107.196 124.977 107.299C124.972 107.402 124.926 107.499 124.85 107.568C124.774 107.637 124.674 107.674 124.572 107.669H96.4053C96.303 107.674 96.2031 107.637 96.1273 107.568C96.0514 107.499 96.0057 107.402 96 107.299C96.0057 107.196 96.0514 107.1 96.1273 107.031C96.2031 106.961 96.303 106.925 96.4053 106.93Z" fill="#CCCCCC"/>
<path opacity="0.4" d="M96.4053 110.643H127.792C127.895 110.639 127.994 110.675 128.07 110.744C128.146 110.813 128.192 110.91 128.198 111.013C128.195 111.064 128.182 111.113 128.16 111.159C128.138 111.205 128.108 111.246 128.07 111.28C128.032 111.314 127.988 111.34 127.941 111.356C127.893 111.373 127.843 111.38 127.792 111.377H96.4053C96.3549 111.38 96.3045 111.373 96.2568 111.356C96.2092 111.34 96.1653 111.314 96.1276 111.28C96.0899 111.246 96.0593 111.205 96.0374 111.159C96.0155 111.113 96.0028 111.064 96 111.013C96.0057 110.91 96.0514 110.813 96.1273 110.744C96.2031 110.675 96.303 110.639 96.4053 110.643Z" fill="#CCCCCC"/>
<path opacity="0.4" d="M96.4053 114.33H122.962C123.064 114.325 123.164 114.361 123.24 114.431C123.316 114.5 123.361 114.596 123.367 114.699C123.361 114.802 123.316 114.899 123.24 114.968C123.164 115.037 123.064 115.074 122.962 115.069H96.4053C96.303 115.074 96.2031 115.037 96.1273 114.968C96.0514 114.899 96.0057 114.802 96 114.699C96.0057 114.596 96.0514 114.5 96.1273 114.431C96.2031 114.361 96.303 114.325 96.4053 114.33Z" fill="#CCCCCC"/>
<path d="M167.242 83.4599C168.189 83.4599 168.956 82.6866 168.956 81.7326C168.956 80.7787 168.189 80.0054 167.242 80.0054C166.295 80.0054 165.528 80.7787 165.528 81.7326C165.528 82.6866 166.295 83.4599 167.242 83.4599Z" fill="white"/>
<path d="M146 106.229C146.014 105.94 146.141 105.667 146.353 105.471C146.566 105.275 146.846 105.17 147.134 105.181C147.432 105.161 147.726 105.26 147.954 105.456C148.181 105.652 148.323 105.929 148.35 106.229V114.684C148.323 114.989 148.183 115.272 147.957 115.477C147.732 115.682 147.437 115.793 147.134 115.787C146.839 115.79 146.554 115.676 146.342 115.47C146.13 115.263 146.007 114.981 146 114.684V106.229Z" fill="#9F9F9F"/>
<path d="M150.694 111.019C150.719 110.715 150.858 110.432 151.082 110.227C151.307 110.022 151.601 109.91 151.904 109.916C152.199 109.913 152.483 110.027 152.695 110.233C152.907 110.44 153.03 110.722 153.038 111.019V114.684C153.03 114.981 152.907 115.263 152.695 115.47C152.483 115.676 152.199 115.79 151.904 115.787C151.601 115.793 151.307 115.681 151.082 115.476C150.858 115.271 150.719 114.988 150.694 114.684V111.019Z" fill="#9F9F9F"/>
<path d="M160.059 105.181C160.059 105.026 160.089 104.872 160.148 104.729C160.207 104.586 160.293 104.456 160.402 104.346C160.511 104.236 160.64 104.149 160.782 104.09C160.924 104.031 161.077 104 161.231 104C161.385 104 161.537 104.031 161.679 104.09C161.821 104.149 161.951 104.236 162.059 104.346C162.168 104.456 162.255 104.586 162.314 104.729C162.372 104.872 162.403 105.026 162.403 105.181V114.684C162.403 114.997 162.279 115.297 162.059 115.519C161.84 115.74 161.542 115.865 161.231 115.865C160.92 115.865 160.622 115.74 160.402 115.519C160.182 115.297 160.059 114.997 160.059 114.684V105.181Z" fill="#9F9F9F"/>
<path d="M155.382 110.142C155.428 109.863 155.571 109.609 155.786 109.426C156.001 109.243 156.273 109.143 156.554 109.143C156.835 109.143 157.107 109.243 157.321 109.426C157.536 109.609 157.679 109.863 157.726 110.142V114.822C157.679 115.101 157.536 115.354 157.321 115.537C157.107 115.72 156.835 115.821 156.554 115.821C156.273 115.821 156.001 115.72 155.786 115.537C155.571 115.354 155.428 115.101 155.382 114.822V110.142Z" fill="#9F9F9F"/>
<path d="M164 102.598C164 102.285 164.123 101.984 164.343 101.763C164.563 101.541 164.861 101.417 165.172 101.417C165.483 101.417 165.781 101.541 166.001 101.763C166.221 101.984 166.344 102.285 166.344 102.598V116.499C166.344 116.812 166.221 117.112 166.001 117.334C165.781 117.555 165.483 117.68 165.172 117.68C164.861 117.68 164.563 117.555 164.343 117.334C164.123 117.112 164 116.812 164 116.499V102.598Z" fill="#ECECEC"/>
<path d="M164.658 146C164.484 146 164.316 145.93 164.193 145.805C164.069 145.681 164 145.511 164 145.335V66.6596C164.001 66.4842 164.071 66.3164 164.195 66.1929C164.318 66.0694 164.485 66 164.658 66.0001H212.917C213.003 65.9989 213.089 66.0154 213.168 66.0484C213.248 66.0815 213.32 66.1305 213.38 66.1924L224.804 77.734C224.929 77.8592 224.999 78.0292 225 78.2067V145.313C225 145.489 224.931 145.659 224.807 145.783C224.684 145.908 224.516 145.978 224.342 145.978L164.658 146Z" fill="#808080"/>
<path d="M225.101 147H164.937C164.689 147 164.45 146.9 164.274 146.723C164.099 146.546 164 146.306 164 146.055V66.9396C164 66.8157 164.024 66.6931 164.071 66.5787C164.119 66.4644 164.188 66.3606 164.275 66.2732C164.362 66.1859 164.465 66.1168 164.579 66.0699C164.693 66.0231 164.814 65.9993 164.937 66H213.554C213.802 66.0004 214.041 66.0997 214.217 66.2764L225.726 77.8825C225.813 77.9702 225.882 78.0744 225.929 78.1892C225.976 78.304 226 78.4271 226 78.5513V146.033C226.004 146.28 225.913 146.52 225.745 146.7C225.577 146.881 225.346 146.989 225.101 147ZM164.937 66.5527C164.886 66.552 164.836 66.5614 164.789 66.5805C164.741 66.5997 164.699 66.628 164.662 66.664C164.626 66.7 164.597 66.7429 164.578 66.7902C164.558 66.8375 164.548 66.8883 164.548 66.9396V146.055C164.548 146.159 164.589 146.259 164.662 146.332C164.735 146.406 164.834 146.447 164.937 146.447H225.101C225.204 146.447 225.303 146.406 225.376 146.332C225.449 146.259 225.49 146.159 225.49 146.055V78.5734C225.49 78.4695 225.448 78.3702 225.375 78.297L213.866 66.6909C213.83 66.6551 213.787 66.6269 213.74 66.608C213.693 66.589 213.643 66.5796 213.592 66.5803L164.937 66.5527Z" fill="#333333"/>
<path d="M214.451 92.3947H170.829C170.642 92.3947 170.462 92.3197 170.329 92.1862C170.197 92.0527 170.123 91.8716 170.123 91.6828C170.123 91.494 170.197 91.313 170.329 91.1795C170.462 91.046 170.642 90.9709 170.829 90.9709H214.451C214.638 90.9709 214.818 91.046 214.951 91.1795C215.083 91.313 215.158 91.494 215.158 91.6828C215.158 91.8716 215.083 92.0527 214.951 92.1862C214.818 92.3197 214.638 92.3947 214.451 92.3947Z" fill="#B2B2B2"/>
<path d="M214.519 100.181H170.897C170.799 100.19 170.699 100.178 170.606 100.146C170.512 100.114 170.426 100.062 170.354 99.9952C170.281 99.928 170.223 99.8463 170.183 99.7552C170.143 99.6641 170.123 99.5657 170.123 99.4662C170.123 99.3667 170.143 99.2683 170.183 99.1772C170.223 99.0861 170.281 99.0044 170.354 98.9371C170.426 98.8699 170.512 98.8187 170.606 98.7868C170.699 98.7548 170.799 98.7428 170.897 98.7515H214.519C214.696 98.7673 214.861 98.8494 214.982 98.9816C215.102 99.1139 215.168 99.2868 215.168 99.4662C215.168 99.6456 215.102 99.8184 214.982 99.9507C214.861 100.083 214.696 100.165 214.519 100.181Z" fill="#9B9B9B"/>
<path d="M214.519 107.796H170.897C170.799 107.805 170.699 107.793 170.606 107.761C170.512 107.729 170.426 107.678 170.354 107.611C170.281 107.543 170.223 107.462 170.183 107.371C170.143 107.28 170.123 107.181 170.123 107.082C170.123 106.982 170.143 106.884 170.183 106.793C170.223 106.702 170.281 106.62 170.354 106.553C170.426 106.485 170.512 106.434 170.606 106.402C170.699 106.37 170.799 106.358 170.897 106.367H214.519C214.696 106.383 214.861 106.465 214.982 106.597C215.102 106.729 215.168 106.902 215.168 107.082C215.168 107.261 215.102 107.434 214.982 107.566C214.861 107.698 214.696 107.781 214.519 107.796Z" fill="#9B9B9B"/>
<path d="M214.519 115.395H170.897C170.799 115.404 170.699 115.392 170.606 115.36C170.512 115.328 170.426 115.277 170.354 115.21C170.281 115.142 170.223 115.061 170.183 114.97C170.143 114.878 170.123 114.78 170.123 114.681C170.123 114.581 170.143 114.483 170.183 114.392C170.223 114.3 170.281 114.219 170.354 114.151C170.426 114.084 170.512 114.033 170.606 114.001C170.699 113.969 170.799 113.957 170.897 113.966H214.519C214.696 113.982 214.861 114.064 214.982 114.196C215.102 114.328 215.168 114.501 215.168 114.681C215.168 114.86 215.102 115.033 214.982 115.165C214.861 115.297 214.696 115.379 214.519 115.395Z" fill="#9B9B9B"/>
<path d="M214.519 123.027H170.897C170.71 123.027 170.53 122.952 170.397 122.819C170.265 122.685 170.19 122.504 170.19 122.315C170.19 122.126 170.265 121.945 170.397 121.812C170.53 121.678 170.71 121.603 170.897 121.603H214.519C214.706 121.603 214.886 121.678 215.019 121.812C215.151 121.945 215.225 122.126 215.225 122.315C215.225 122.504 215.151 122.685 215.019 122.819C214.886 122.952 214.706 123.027 214.519 123.027Z" fill="#9B9B9B"/>
<path d="M214.519 130.643H170.897C170.71 130.643 170.53 130.567 170.397 130.434C170.265 130.3 170.19 130.119 170.19 129.931C170.19 129.742 170.265 129.561 170.397 129.427C170.53 129.294 170.71 129.219 170.897 129.219H214.519C214.706 129.219 214.886 129.294 215.019 129.427C215.151 129.561 215.225 129.742 215.225 129.931C215.225 130.119 215.151 130.3 215.019 130.434C214.886 130.567 214.706 130.643 214.519 130.643Z" fill="#9B9B9B"/>
<path d="M214.519 138.264H170.897C170.799 138.272 170.699 138.26 170.606 138.228C170.512 138.196 170.426 138.145 170.354 138.078C170.281 138.011 170.223 137.929 170.183 137.838C170.143 137.747 170.123 137.648 170.123 137.549C170.123 137.449 170.143 137.351 170.183 137.26C170.223 137.169 170.281 137.087 170.354 137.02C170.426 136.953 170.512 136.901 170.606 136.87C170.699 136.838 170.799 136.826 170.897 136.834H214.519C214.696 136.85 214.861 136.932 214.982 137.064C215.102 137.197 215.168 137.37 215.168 137.549C215.168 137.728 215.102 137.901 214.982 138.033C214.861 138.166 214.696 138.248 214.519 138.264Z" fill="#9B9B9B"/>
<path d="M173.816 82.092L174.464 84H175.301L173.231 77.934H172.286L170.225 84H171.035L171.665 82.092H173.816ZM171.827 81.48L172.421 79.725C172.538 79.356 172.637 78.987 172.727 78.627H172.745C172.835 78.978 172.925 79.338 173.06 79.734L173.654 81.48H171.827ZM179.335 84C179.281 83.703 179.263 83.334 179.263 82.956V81.327C179.263 80.454 178.939 79.545 177.607 79.545C177.058 79.545 176.536 79.698 176.176 79.932L176.356 80.454C176.662 80.256 177.085 80.13 177.49 80.13C178.381 80.13 178.48 80.778 178.48 81.138V81.228C176.797 81.219 175.861 81.795 175.861 82.848C175.861 83.478 176.311 84.099 177.193 84.099C177.814 84.099 178.282 83.793 178.525 83.451H178.552L178.615 84H179.335ZM178.498 82.533C178.498 82.614 178.48 82.704 178.453 82.785C178.327 83.154 177.967 83.514 177.4 83.514C176.995 83.514 176.653 83.271 176.653 82.758C176.653 81.912 177.634 81.759 178.498 81.777V82.533Z" fill="#333333"/>
<path d="M238.658 146C238.484 146 238.316 145.931 238.193 145.808C238.069 145.685 238 145.518 238 145.343V67.6675C237.999 67.5803 238.015 67.4938 238.047 67.4129C238.079 67.3319 238.128 67.2583 238.189 67.1961C238.25 67.134 238.323 67.0847 238.404 67.051C238.485 67.0173 238.571 67 238.658 67H286.922C287.095 67.0002 287.261 67.0684 287.384 67.1899L298.81 78.5857C298.931 78.7111 298.999 78.8782 299 79.0524V145.311C299 145.485 298.931 145.652 298.807 145.775C298.684 145.898 298.516 145.967 298.342 145.967L238.658 146Z" fill="#808080"/>
<path d="M299.07 146H237.952C237.7 145.999 237.459 145.9 237.281 145.725C237.102 145.55 237.001 145.314 237 145.067V66.9334C237 66.6859 237.1 66.4484 237.279 66.2734C237.458 66.0984 237.7 66 237.952 66H287.353C287.478 65.9996 287.602 66.0235 287.718 66.0703C287.834 66.1172 287.939 66.186 288.027 66.2729L299.721 77.7358C299.81 77.8224 299.88 77.9254 299.928 78.0387C299.976 78.1521 300 78.2736 300 78.3963V145.045C300.004 145.292 299.909 145.531 299.735 145.71C299.561 145.889 299.322 145.993 299.07 146ZM237.952 66.5459C237.847 66.5459 237.747 66.5867 237.673 66.6594C237.599 66.732 237.557 66.8306 237.557 66.9334V145.067C237.557 145.169 237.599 145.268 237.673 145.341C237.747 145.413 237.847 145.454 237.952 145.454H299.07C299.175 145.454 299.275 145.413 299.349 145.341C299.424 145.268 299.465 145.169 299.465 145.067V78.4181C299.466 78.3672 299.456 78.3165 299.436 78.2695C299.416 78.2225 299.386 78.1802 299.348 78.1452L287.654 66.6823C287.618 66.6452 287.575 66.6159 287.527 66.5962C287.479 66.5764 287.427 66.5667 287.375 66.5677L237.952 66.5459Z" fill="#333333"/>
<path d="M287.961 92.3947H244.339C244.151 92.3947 243.972 92.3197 243.839 92.1862C243.707 92.0527 243.632 91.8716 243.632 91.6828C243.632 91.494 243.707 91.313 243.839 91.1795C243.972 91.046 244.151 90.9709 244.339 90.9709H287.961C288.148 90.9709 288.328 91.046 288.46 91.1795C288.593 91.313 288.667 91.494 288.667 91.6828C288.667 91.8716 288.593 92.0527 288.46 92.1862C288.328 92.3197 288.148 92.3947 287.961 92.3947Z" fill="#B2B2B2"/>
<path d="M287.961 100.016H244.339C244.161 100 243.996 99.918 243.876 99.7857C243.756 99.6534 243.689 99.4805 243.689 99.3011C243.689 99.1218 243.756 98.9489 243.876 98.8166C243.996 98.6843 244.161 98.6022 244.339 98.5865H287.961C288.059 98.5778 288.158 98.5898 288.252 98.6217C288.345 98.6537 288.431 98.7049 288.504 98.7721C288.577 98.8393 288.635 98.9211 288.675 99.0121C288.715 99.1032 288.735 99.2016 288.735 99.3011C288.735 99.4006 288.715 99.4991 288.675 99.5901C288.635 99.6812 288.577 99.763 288.504 99.8302C288.431 99.8974 288.345 99.9486 288.252 99.9805C288.158 100.012 288.059 100.024 287.961 100.016Z" fill="#9B9B9B"/>
<path d="M287.961 107.631H244.339C244.161 107.616 243.996 107.533 243.876 107.401C243.756 107.269 243.689 107.096 243.689 106.917C243.689 106.737 243.756 106.564 243.876 106.432C243.996 106.3 244.161 106.218 244.339 106.202H287.961C288.059 106.193 288.158 106.205 288.252 106.237C288.345 106.269 288.431 106.32 288.504 106.388C288.577 106.455 288.635 106.537 288.675 106.628C288.715 106.719 288.735 106.817 288.735 106.917C288.735 107.016 288.715 107.115 288.675 107.206C288.635 107.297 288.577 107.378 288.504 107.446C288.431 107.513 288.345 107.564 288.252 107.596C288.158 107.628 288.059 107.64 287.961 107.631Z" fill="#9B9B9B"/>
<path d="M243.757 83.639C244.018 83.675 244.432 83.711 244.972 83.711C245.962 83.711 246.646 83.531 247.069 83.144C247.375 82.847 247.582 82.451 247.582 81.929C247.582 81.029 246.907 80.552 246.331 80.408V80.39C246.97 80.156 247.357 79.643 247.357 79.058C247.357 78.581 247.168 78.221 246.853 77.987C246.475 77.681 245.971 77.546 245.188 77.546C244.639 77.546 244.099 77.6 243.757 77.672V83.639ZM244.54 78.203C244.666 78.176 244.873 78.149 245.233 78.149C246.025 78.149 246.565 78.428 246.565 79.139C246.565 79.724 246.079 80.156 245.251 80.156H244.54V78.203ZM244.54 80.75H245.188C246.043 80.75 246.754 81.092 246.754 81.92C246.754 82.802 246.007 83.099 245.197 83.099C244.918 83.099 244.693 83.09 244.54 83.063V80.75ZM249.256 83.657L249.292 82.937H249.319C249.643 83.513 250.147 83.756 250.777 83.756C251.749 83.756 252.73 82.982 252.73 81.425C252.739 80.102 251.974 79.202 250.894 79.202C250.192 79.202 249.688 79.517 249.409 80.003H249.391V77.267H248.608V82.532C248.608 82.919 248.59 83.36 248.572 83.657H249.256ZM249.391 81.128C249.391 81.002 249.418 80.894 249.436 80.804C249.598 80.201 250.102 79.832 250.642 79.832C251.488 79.832 251.938 80.579 251.938 81.452C251.938 82.451 251.443 83.126 250.615 83.126C250.039 83.126 249.58 82.748 249.427 82.199C249.409 82.109 249.391 82.01 249.391 81.911V81.128Z" fill="#333333"/>
<path d="M287.961 114.976H244.339C244.161 114.96 243.996 114.878 243.876 114.746C243.756 114.614 243.689 114.441 243.689 114.262C243.689 114.082 243.756 113.909 243.876 113.777C243.996 113.645 244.161 113.563 244.339 113.547H287.961C288.059 113.538 288.158 113.55 288.252 113.582C288.345 113.614 288.431 113.665 288.504 113.733C288.577 113.8 288.635 113.881 288.675 113.973C288.715 114.064 288.735 114.162 288.735 114.262C288.735 114.361 288.715 114.46 288.675 114.551C288.635 114.642 288.577 114.723 288.504 114.791C288.431 114.858 288.345 114.909 288.252 114.941C288.158 114.973 288.059 114.985 287.961 114.976Z" fill="#9B9B9B"/>
<path d="M312.648 145C312.563 145 312.478 144.983 312.4 144.951C312.321 144.918 312.25 144.87 312.19 144.81C312.13 144.75 312.082 144.678 312.049 144.6C312.017 144.521 312 144.437 312 144.352V67.659C311.999 67.573 312.014 67.4875 312.046 67.4076C312.078 67.3277 312.126 67.255 312.186 67.1937C312.246 67.1323 312.318 67.0836 312.397 67.0504C312.477 67.0171 312.562 67 312.648 67H360.116C360.287 67.001 360.452 67.0682 360.576 67.1875L371.813 78.4391C371.933 78.5603 372 78.7239 372 78.8945V144.314C372 144.399 371.983 144.484 371.951 144.562C371.918 144.641 371.87 144.712 371.81 144.773C371.75 144.833 371.679 144.881 371.6 144.913C371.522 144.946 371.438 144.962 371.353 144.962L312.648 145Z" fill="#808080"/>
<path d="M362.589 91.35H318.967C318.868 91.3587 318.769 91.3467 318.676 91.3148C318.582 91.2828 318.496 91.2316 318.423 91.1644C318.35 91.0972 318.292 91.0154 318.253 90.9244C318.213 90.8333 318.192 90.7349 318.192 90.6354C318.192 90.5359 318.213 90.4374 318.253 90.3464C318.292 90.2553 318.35 90.1735 318.423 90.1063C318.496 90.0391 318.582 89.9879 318.676 89.956C318.769 89.924 318.868 89.912 318.967 89.9207H362.589C362.766 89.9364 362.931 90.0185 363.051 90.1508C363.171 90.2831 363.238 90.456 363.238 90.6354C363.238 90.8148 363.171 90.9876 363.051 91.1199C362.931 91.2522 362.766 91.3343 362.589 91.35Z" fill="#B2B2B2"/>
<path d="M362.521 99.2401H318.899C318.711 99.2401 318.532 99.1651 318.399 99.0316C318.267 98.8981 318.192 98.7171 318.192 98.5283C318.192 98.3395 318.267 98.1584 318.399 98.0249C318.532 97.8914 318.711 97.8164 318.899 97.8164H362.521C362.708 97.8164 362.888 97.8914 363.02 98.0249C363.153 98.1584 363.227 98.3395 363.227 98.5283C363.227 98.7171 363.153 98.8981 363.02 99.0316C362.888 99.1651 362.708 99.2401 362.521 99.2401Z" fill="#9B9B9B"/>
<path d="M362.589 129.789H318.967C318.868 129.798 318.769 129.786 318.676 129.754C318.582 129.722 318.496 129.671 318.423 129.604C318.35 129.537 318.292 129.455 318.253 129.364C318.213 129.273 318.192 129.174 318.192 129.075C318.192 128.975 318.213 128.877 318.253 128.786C318.292 128.695 318.35 128.613 318.423 128.546C318.496 128.479 318.582 128.427 318.676 128.395C318.769 128.363 318.868 128.351 318.967 128.36H362.589C362.766 128.376 362.931 128.458 363.051 128.59C363.171 128.723 363.238 128.895 363.238 129.075C363.238 129.254 363.171 129.427 363.051 129.559C362.931 129.692 362.766 129.774 362.589 129.789Z" fill="#9B9B9B"/>
<path d="M362.589 136.108H318.967C318.868 136.117 318.769 136.105 318.676 136.073C318.582 136.041 318.496 135.99 318.423 135.923C318.35 135.856 318.292 135.774 318.253 135.683C318.213 135.592 318.192 135.493 318.192 135.394C318.192 135.294 318.213 135.196 318.253 135.105C318.292 135.014 318.35 134.932 318.423 134.865C318.496 134.797 318.582 134.746 318.676 134.714C318.769 134.682 318.868 134.67 318.967 134.679H362.589C362.766 134.695 362.931 134.777 363.051 134.909C363.171 135.041 363.238 135.214 363.238 135.394C363.238 135.573 363.171 135.746 363.051 135.878C362.931 136.011 362.766 136.093 362.589 136.108Z" fill="#9B9B9B"/>
<path d="M322.761 82.181C322.446 82.334 321.96 82.433 321.483 82.433C320.007 82.433 319.152 81.479 319.152 79.994C319.152 78.401 320.097 77.492 321.519 77.492C322.023 77.492 322.446 77.6 322.743 77.744L322.932 77.105C322.725 76.997 322.248 76.835 321.492 76.835C319.611 76.835 318.324 78.122 318.324 80.021C318.324 82.01 319.611 83.09 321.321 83.09C322.059 83.09 322.635 82.946 322.923 82.802L322.761 82.181ZM326.751 82.244C326.526 82.343 326.229 82.46 325.779 82.46C324.915 82.46 324.267 81.839 324.267 80.831C324.267 79.922 324.807 79.184 325.806 79.184C326.238 79.184 326.535 79.283 326.724 79.391L326.904 78.779C326.688 78.671 326.274 78.554 325.806 78.554C324.384 78.554 323.466 79.526 323.466 80.867C323.466 82.199 324.321 83.09 325.635 83.09C326.22 83.09 326.679 82.946 326.886 82.838L326.751 82.244Z" fill="#333333"/>
<path d="M342.345 111.497C342.348 111.354 342.376 111.212 342.429 111.081C342.482 110.951 342.557 110.833 342.652 110.736C342.746 110.639 342.857 110.564 342.978 110.516C343.1 110.468 343.228 110.448 343.356 110.457C343.624 110.437 343.887 110.535 344.091 110.729C344.295 110.923 344.422 111.199 344.446 111.497V119.89C344.423 120.193 344.298 120.475 344.096 120.679C343.893 120.882 343.629 120.992 343.356 120.985C343.225 120.989 343.094 120.964 342.972 120.911C342.849 120.858 342.738 120.778 342.643 120.676C342.549 120.574 342.474 120.452 342.423 120.317C342.372 120.182 342.345 120.037 342.345 119.89V111.497Z" fill="#BDECFF"/>
<path d="M347.022 116.085C347.048 115.78 347.187 115.495 347.413 115.29C347.639 115.085 347.934 114.975 348.238 114.981C348.385 114.977 348.531 115.002 348.668 115.056C348.804 115.109 348.929 115.19 349.034 115.293C349.139 115.396 349.223 115.519 349.28 115.655C349.337 115.791 349.367 115.937 349.367 116.085V119.755C349.367 119.903 349.337 120.049 349.28 120.185C349.223 120.321 349.139 120.444 349.034 120.547C348.929 120.65 348.804 120.731 348.668 120.784C348.531 120.838 348.385 120.863 348.238 120.859C347.934 120.865 347.639 120.755 347.413 120.55C347.187 120.345 347.048 120.06 347.022 119.755V116.085Z" fill="#BDECFF"/>
<path d="M356.41 110.247C356.41 110.092 356.44 109.938 356.499 109.795C356.558 109.651 356.644 109.521 356.753 109.412C356.862 109.302 356.991 109.215 357.133 109.156C357.275 109.096 357.428 109.066 357.582 109.066C357.736 109.066 357.888 109.096 358.03 109.156C358.172 109.215 358.302 109.302 358.41 109.412C358.519 109.521 358.605 109.651 358.664 109.795C358.723 109.938 358.754 110.092 358.754 110.247V119.755C358.754 120.068 358.63 120.368 358.41 120.59C358.191 120.811 357.892 120.936 357.582 120.936C357.271 120.936 356.973 120.811 356.753 120.59C356.533 120.368 356.41 120.068 356.41 119.755V110.247Z" fill="#BDECFF"/>
<path d="M351.722 115.208C351.768 114.928 351.911 114.675 352.126 114.492C352.341 114.309 352.612 114.208 352.894 114.208C353.175 114.208 353.447 114.309 353.661 114.492C353.876 114.675 354.019 114.928 354.066 115.208V119.887C354.019 120.166 353.876 120.42 353.661 120.603C353.447 120.786 353.175 120.886 352.894 120.886C352.612 120.886 352.341 120.786 352.126 120.603C351.911 120.42 351.768 120.166 351.722 119.887V115.208Z" fill="#BDECFF"/>
<path d="M361.103 105.843C361.103 105.53 361.227 105.229 361.446 105.008C361.666 104.786 361.964 104.662 362.275 104.662C362.586 104.662 362.884 104.786 363.104 105.008C363.324 105.229 363.447 105.53 363.447 105.843V119.755C363.447 120.068 363.324 120.368 363.104 120.59C362.884 120.811 362.586 120.936 362.275 120.936C361.964 120.936 361.666 120.811 361.446 120.59C361.227 120.368 361.103 120.068 361.103 119.755V105.843Z" fill="#BDECFF"/>
<path d="M191.964 61.4801L191.614 61.0552C191.614 61.0552 192.085 60.6634 192.933 60.0398L193.257 60.4868C192.424 61.0993 191.97 61.4746 191.964 61.4801Z" fill="#848484"/>
<path d="M196.066 58.5554L195.77 58.0863C196.723 57.4848 197.715 56.8888 198.722 56.3204L198.985 56.8005C197.988 57.3744 197.008 57.9649 196.066 58.5554ZM256.907 58.5112C255.954 57.8711 254.984 57.264 254.026 56.6901L254.3 56.2155C255.269 56.7674 256.244 57.4075 257.208 58.0477L256.907 58.5112ZM202.019 55.2443L201.778 54.7476C202.802 54.2399 203.854 53.7543 204.9 53.3073L205.114 53.815C204.057 54.2399 203.016 54.72 202.019 55.2443ZM251.069 55.0732C250.061 54.5214 249.031 54.0468 248.007 53.5943L248.226 53.0866C249.261 53.5501 250.302 54.0523 251.321 54.5821L251.069 55.0732ZM208.279 52.5568L208.087 52.0381C209.183 51.6408 210.278 51.2765 211.346 50.9344L211.505 51.4862C210.41 51.7787 209.32 52.1429 208.257 52.5347L208.279 52.5568ZM244.858 52.303C243.796 51.9112 242.711 51.5414 241.638 51.1993L241.791 50.6474C242.886 50.973 243.982 51.3428 245.05 51.7511L244.858 52.303ZM214.785 50.5867L214.659 50.0349C215.755 49.77 216.899 49.5327 218.017 49.3341L218.11 49.8859C216.987 50.0625 215.864 50.2777 214.764 50.5647L214.785 50.5867ZM238.335 50.3494C237.24 50.0956 236.112 49.8804 235 49.7038L235.088 49.1519C236.21 49.3341 237.344 49.5493 238.456 49.8086L238.335 50.3494ZM221.456 49.4058L221.401 48.854C222.535 48.727 223.685 48.6332 224.819 48.5836L224.846 49.1354C223.718 49.174 222.579 49.2568 221.451 49.3837L221.456 49.4058ZM231.632 49.2844C230.536 49.1851 229.37 49.1244 228.242 49.0968V48.5449C229.386 48.5449 230.536 48.6332 231.67 48.7381L231.632 49.2844Z" fill="#848484"/>
<path d="M261.009 61.4856C260.571 61.1489 260.138 60.8178 259.7 60.4923L260.029 60.0508C260.467 60.3709 260.905 60.7075 261.343 61.0496L261.009 61.4856Z" fill="#848484"/>
<path d="M279.378 61.4801L279.027 61.0552C279.027 61.0552 279.498 60.6634 280.347 60.0398L280.67 60.4868C279.838 61.0993 279.383 61.4746 279.378 61.4801Z" fill="#848484"/>
<path d="M283.48 58.5555L283.184 58.0864C284.137 57.4849 285.128 56.8889 286.136 56.3205L286.399 56.8006C285.402 57.3745 284.422 57.965 283.48 58.5555ZM344.321 58.5113C343.368 57.8767 342.398 57.2641 341.44 56.6957L341.714 56.2156C342.683 56.7675 343.663 57.4076 344.622 58.0478L344.321 58.5113ZM289.417 55.2444L289.17 54.7477C290.194 54.24 291.246 53.7544 292.292 53.3074L292.505 53.8151C291.47 54.24 290.43 54.7201 289.417 55.2444ZM338.46 55.0733C337.453 54.5215 336.423 54.0469 335.399 53.5944L335.618 53.0867C336.653 53.5502 337.694 54.0524 338.712 54.5822L338.46 55.0733ZM295.671 52.5348L295.479 52.0161C296.575 51.6188 297.67 51.2546 298.765 50.9124L298.924 51.4643C297.823 51.7788 296.733 52.143 295.671 52.5348ZM332.25 52.281C331.187 51.8892 330.103 51.5195 329.03 51.1773L329.183 50.6255C330.278 50.9511 331.374 51.3208 332.442 51.7292L332.25 52.281ZM302.177 50.5648L302.051 50.0129C303.147 49.748 304.291 49.5107 305.409 49.3121L305.507 49.8639C304.401 50.0626 303.278 50.2778 302.177 50.5648ZM325.727 50.3275C324.632 50.0736 323.504 49.8584 322.392 49.6818L322.479 49.13C323.575 49.3121 324.736 49.5273 325.848 49.7867L325.727 50.3275ZM308.848 49.3838L308.793 48.832C309.927 48.7051 311.082 48.6112 312.211 48.5616V49.1134C311.132 49.1741 309.993 49.2569 308.864 49.3838H308.848ZM319.024 49.2624C317.928 49.1631 316.762 49.1024 315.634 49.0748V48.5229C316.778 48.5229 317.928 48.6112 319.062 48.7161L319.024 49.2624Z" fill="#848484"/>
<path d="M348.423 61.4855C347.984 61.1489 347.552 60.8177 347.114 60.4922L347.442 60.0452C347.88 60.3708 348.319 60.7074 348.757 61.0495L348.423 61.4855Z" fill="#848484"/>
<rect x="318.192" y="105.188" width="19.4276" height="1.57971" rx="0.789856" fill="#9B9B9B"/>
<rect x="318.192" y="112.56" width="19.4276" height="1.5797" rx="0.789852" fill="#9B9B9B"/>
<rect x="318.192" y="120.459" width="19.4276" height="1.57971" rx="0.789856" fill="#9B9B9B"/>
<rect x="243.882" y="122.289" width="37.3051" height="18.4565" fill="#808080" stroke="#616161" stroke-width="0.5"/>
<path d="M247.833 137.836C249.661 137.118 251.229 135.883 252.337 134.288C253.961 131.759 255.591 129.5 259.231 131.382C262.871 133.264 263.35 130.358 267.133 127.241C270.916 124.125 273.79 130.951 277.237 125.198V137.836H247.833Z" fill="#BDECFF"/>
<path d="M215.25 138C215.25 137.034 216.034 136.25 217 136.25H228C228.966 136.25 229.75 137.034 229.75 138V149C229.75 149.966 228.966 150.75 228 150.75H217C216.034 150.75 215.25 149.966 215.25 149V138Z" fill="#808080" stroke="#333333" stroke-width="0.5"/>
<path d="M289.25 138C289.25 137.034 290.034 136.25 291 136.25H302C302.966 136.25 303.75 137.034 303.75 138V149C303.75 149.966 302.966 150.75 302 150.75H291C290.034 150.75 289.25 149.966 289.25 149V138Z" fill="#808080" stroke="#333333" stroke-width="0.5"/>
<path d="M362.25 138C362.25 137.034 363.034 136.25 364 136.25H375C375.966 136.25 376.75 137.034 376.75 138V149C376.75 149.966 375.966 150.75 375 150.75H364C363.034 150.75 362.25 149.966 362.25 149V138Z" fill="#808080" stroke="#333333" stroke-width="0.5"/>
<path d="M222.189 146.215C222.118 146.286 222.021 146.326 221.921 146.326C221.871 146.326 221.822 146.317 221.776 146.298C221.73 146.279 221.688 146.251 221.653 146.215L219.522 144.091C219.466 144.039 219.422 143.976 219.392 143.907C219.361 143.837 219.346 143.761 219.346 143.685C219.346 143.609 219.361 143.534 219.392 143.464C219.422 143.394 219.466 143.331 219.522 143.28L219.785 143.015C219.836 142.959 219.898 142.914 219.968 142.883C220.037 142.853 220.112 142.837 220.187 142.837C220.263 142.837 220.338 142.853 220.407 142.883C220.477 142.914 220.539 142.959 220.59 143.015L221.921 144.356L225.519 140.73C225.57 140.675 225.632 140.631 225.701 140.601C225.77 140.571 225.844 140.555 225.919 140.555C225.994 140.555 226.068 140.571 226.137 140.601C226.206 140.631 226.267 140.675 226.319 140.73L226.587 140.995C226.692 141.103 226.751 141.249 226.751 141.401C226.751 141.552 226.692 141.698 226.587 141.806L222.189 146.215Z" fill="#96C8FD"/>
<path d="M295.699 146.215C295.627 146.286 295.531 146.326 295.431 146.326C295.381 146.326 295.332 146.317 295.285 146.298C295.239 146.279 295.197 146.251 295.162 146.215L293.032 144.091C292.976 144.039 292.932 143.976 292.902 143.907C292.871 143.837 292.856 143.761 292.856 143.685C292.856 143.609 292.871 143.534 292.902 143.464C292.932 143.394 292.976 143.331 293.032 143.28L293.295 143.015C293.346 142.959 293.408 142.914 293.478 142.883C293.547 142.853 293.622 142.837 293.697 142.837C293.773 142.837 293.848 142.853 293.917 142.883C293.986 142.914 294.049 142.959 294.1 143.015L295.431 144.356L299.029 140.73C299.08 140.675 299.142 140.631 299.211 140.601C299.28 140.571 299.354 140.555 299.429 140.555C299.504 140.555 299.578 140.571 299.647 140.601C299.715 140.631 299.777 140.675 299.828 140.73L300.097 140.995C300.202 141.103 300.261 141.249 300.261 141.401C300.261 141.552 300.202 141.698 300.097 141.806L295.699 146.215Z" fill="#BDECFF"/>
<path d="M369.209 146.215C369.137 146.286 369.041 146.326 368.94 146.326C368.891 146.326 368.841 146.317 368.795 146.298C368.749 146.279 368.707 146.251 368.672 146.215L366.542 144.091C366.486 144.039 366.442 143.976 366.411 143.907C366.381 143.837 366.365 143.761 366.365 143.685C366.365 143.609 366.381 143.534 366.411 143.464C366.442 143.394 366.486 143.331 366.542 143.28L366.804 143.015C366.856 142.959 366.918 142.914 366.987 142.883C367.057 142.853 367.131 142.837 367.207 142.837C367.283 142.837 367.357 142.853 367.427 142.883C367.496 142.914 367.558 142.959 367.61 143.015L368.94 144.356L372.539 140.73C372.59 140.675 372.652 140.631 372.721 140.601C372.789 140.571 372.863 140.555 372.938 140.555C373.013 140.555 373.088 140.571 373.156 140.601C373.225 140.631 373.287 140.675 373.338 140.73L373.607 140.995C373.712 141.103 373.771 141.249 373.771 141.401C373.771 141.552 373.712 141.698 373.607 141.806L369.209 146.215Z" fill="#B2B2B2"/>
<path d="M221.921 146.464C221.853 146.465 221.786 146.452 221.723 146.426C221.66 146.401 221.602 146.363 221.554 146.315L219.424 144.163C219.358 144.098 219.306 144.02 219.27 143.934C219.234 143.848 219.216 143.756 219.216 143.663C219.216 143.57 219.234 143.478 219.27 143.393C219.306 143.307 219.358 143.229 219.424 143.164L219.692 142.894C219.823 142.761 220.002 142.687 220.187 142.687C220.373 142.687 220.552 142.761 220.683 142.894L221.921 144.135L225.42 140.609C225.553 140.476 225.732 140.4 225.919 140.399C226.106 140.4 226.285 140.476 226.417 140.609L226.686 140.879C226.751 140.945 226.802 141.024 226.837 141.11C226.872 141.196 226.889 141.288 226.888 141.381C226.888 141.569 226.816 141.749 226.686 141.884L222.304 146.298C222.255 146.351 222.196 146.394 222.13 146.422C222.064 146.451 221.993 146.465 221.921 146.464ZM220.185 142.987C220.072 142.988 219.963 143.033 219.884 143.114L219.615 143.385C219.575 143.425 219.543 143.472 219.521 143.525C219.499 143.578 219.488 143.634 219.488 143.691C219.488 143.748 219.499 143.804 219.521 143.857C219.543 143.909 219.575 143.957 219.615 143.997L221.751 146.149C221.798 146.192 221.858 146.216 221.921 146.216C221.984 146.216 222.044 146.192 222.091 146.149L226.472 141.735C226.512 141.695 226.544 141.648 226.566 141.596C226.587 141.544 226.598 141.488 226.598 141.431C226.598 141.374 226.587 141.317 226.566 141.264C226.544 141.211 226.512 141.163 226.472 141.122L226.204 140.852C226.124 140.771 226.015 140.726 225.902 140.725C225.789 140.726 225.681 140.771 225.601 140.852L221.904 144.577L220.475 143.136C220.401 143.05 220.297 142.997 220.185 142.987Z" fill="#333333"/>
<path d="M295.431 146.464C295.363 146.465 295.295 146.452 295.232 146.426C295.169 146.401 295.112 146.363 295.064 146.315L292.933 144.163C292.868 144.098 292.815 144.02 292.78 143.934C292.744 143.848 292.726 143.756 292.726 143.663C292.726 143.57 292.744 143.478 292.78 143.393C292.815 143.307 292.868 143.229 292.933 143.164L293.202 142.894C293.333 142.761 293.511 142.687 293.697 142.687C293.883 142.687 294.061 142.761 294.193 142.894L295.431 144.135L298.93 140.609C299.063 140.476 299.242 140.4 299.429 140.399C299.616 140.4 299.795 140.476 299.927 140.609L300.195 140.879C300.261 140.945 300.312 141.024 300.347 141.11C300.382 141.196 300.399 141.288 300.398 141.381C300.398 141.569 300.326 141.749 300.195 141.884L295.814 146.298C295.765 146.351 295.706 146.394 295.64 146.422C295.574 146.451 295.502 146.465 295.431 146.464ZM293.695 142.987C293.581 142.988 293.473 143.033 293.393 143.114L293.125 143.385C293.085 143.425 293.053 143.472 293.031 143.525C293.009 143.578 292.998 143.634 292.998 143.691C292.998 143.748 293.009 143.804 293.031 143.857C293.053 143.909 293.085 143.957 293.125 143.997L295.261 146.149C295.307 146.192 295.368 146.216 295.431 146.216C295.493 146.216 295.554 146.192 295.6 146.149L299.982 141.735C300.022 141.695 300.054 141.648 300.076 141.596C300.097 141.544 300.108 141.488 300.108 141.431C300.108 141.374 300.097 141.317 300.075 141.264C300.054 141.211 300.022 141.163 299.982 141.122L299.713 140.852C299.633 140.771 299.525 140.726 299.412 140.725C299.299 140.726 299.191 140.771 299.111 140.852L295.414 144.577L293.985 143.136C293.911 143.05 293.807 142.997 293.695 142.987Z" fill="#333333"/>
<path d="M368.94 146.464C368.872 146.465 368.805 146.452 368.742 146.426C368.679 146.401 368.622 146.363 368.573 146.315L366.443 144.163C366.377 144.098 366.325 144.02 366.289 143.934C366.254 143.848 366.235 143.756 366.235 143.663C366.235 143.57 366.254 143.478 366.289 143.393C366.325 143.307 366.377 143.229 366.443 143.164L366.711 142.894C366.843 142.761 367.021 142.687 367.207 142.687C367.393 142.687 367.571 142.761 367.703 142.894L368.94 144.135L372.44 140.609C372.572 140.476 372.751 140.4 372.938 140.399C373.125 140.4 373.304 140.476 373.437 140.609L373.705 140.879C373.77 140.945 373.822 141.024 373.857 141.11C373.891 141.196 373.909 141.288 373.908 141.381C373.908 141.569 373.835 141.749 373.705 141.884L369.324 146.298C369.275 146.351 369.215 146.394 369.149 146.422C369.083 146.451 369.012 146.465 368.94 146.464ZM367.204 142.987C367.091 142.988 366.983 143.033 366.903 143.114L366.635 143.385C366.594 143.425 366.562 143.472 366.541 143.525C366.519 143.578 366.508 143.634 366.508 143.691C366.508 143.748 366.519 143.804 366.541 143.857C366.562 143.909 366.594 143.957 366.635 143.997L368.771 146.149C368.817 146.192 368.878 146.216 368.94 146.216C369.003 146.216 369.064 146.192 369.11 146.149L373.491 141.735C373.532 141.695 373.564 141.648 373.585 141.596C373.607 141.544 373.618 141.488 373.617 141.431C373.618 141.374 373.607 141.317 373.585 141.264C373.563 141.211 373.532 141.163 373.491 141.122L373.223 140.852C373.143 140.771 373.035 140.726 372.922 140.725C372.809 140.726 372.701 140.771 372.621 140.852L368.924 144.577L367.494 143.136C367.421 143.05 367.317 142.997 367.204 142.987Z" fill="#333333"/>
<path d="M214 66V78H226" stroke="#333333" stroke-width="0.5"/>
<path d="M287 67V79H299" stroke="#333333" stroke-width="0.5"/>
<path d="M360 67V79H373" stroke="#333333" stroke-width="0.5"/>
</g>
<defs>
<filter id="filter0_d" x="144.319" y="78.3091" width="28.873" height="20.7595" filterUnits="userSpaceOnUse" color-interpolation-filters="sRGB">
<feFlood flood-opacity="0" result="BackgroundImageFix"/>
<feColorMatrix in="SourceAlpha" type="matrix" values="0 0 0 0 0 0 0 0 0 0 0 0 0 0 0 0 0 0 127 0"/>
<feOffset dy="4"/>
<feColorMatrix type="matrix" values="0 0 0 0 0.333333 0 0 0 0 0.333333 0 0 0 0 0.333333 0 0 0 0.18 0"/>
<feBlend mode="normal" in2="BackgroundImageFix" result="effect1_dropShadow"/>
<feBlend mode="normal" in="SourceGraphic" in2="effect1_dropShadow" result="shape"/>
</filter>
<linearGradient id="paint0_linear" x1="141.504" y1="83.4119" x2="151.657" y2="99.3481" gradientUnits="userSpaceOnUse">
<stop stop-color="#FFC671"/>
<stop offset="0.59375" stop-color="#FF7541"/>
<stop offset="1" stop-color="#FF6F3D"/>
</linearGradient>
<linearGradient id="paint1_linear" x1="150.327" y1="85.9461" x2="160.444" y2="101.784" gradientUnits="userSpaceOnUse">
<stop stop-color="#FFC671"/>
<stop offset="0.59375" stop-color="#FF7541"/>
<stop offset="1" stop-color="#FF6F3D"/>
</linearGradient>
<linearGradient id="paint2_linear" x1="170.143" y1="79.9307" x2="170.143" y2="82.8268" gradientUnits="userSpaceOnUse">
<stop stop-color="white"/>
<stop offset="1" stop-color="white"/>
</linearGradient>
<clipPath id="clip0">
<rect width="377" height="109" fill="white" transform="translate(0 42)"/>
</clipPath>
</defs>
    </symbol>
</svg>
