<svg width="377" height="193" fill="none" xmlns="http://www.w3.org/2000/svg"><g clip-path="url(#a)"><path d="m107.165 103.697-.7.188-.356-.74a19.756 19.756 0 0 0-8.976-8.928 19.941 19.941 0 0 0-12.589-1.682l-.7.188-.356-.552C79.453 84.311 71.738 79 62.791 79c-12.972 0-23.666 11.338-23.666 25.392-7.892-5.52-16.318-5.52-21.753-3.466-5.436 2.053-9.638 6.767-11.75 12.431A23.895 23.895 0 0 0 5.8 131.11c2.457 5.52 7.37 9.936 15.429 11.526l92.427.364h.578a20.065 20.065 0 0 0 13.439-6.332 19.8 19.8 0 0 0 5.325-13.794c.133-13.69-13.561-23.196-25.833-19.177z" fill="#F5F5F5"/><path d="M119 60.193a5.19 5.19 0 0 1 1.523-3.672A5.203 5.203 0 0 1 124.2 55h137.6c1.379 0 2.702.547 3.677 1.521A5.19 5.19 0 0 1 267 60.193V152H119V60.193z" fill="#F5F5F5"/><path d="M268 152H118V60.418a6.44 6.44 0 0 1 4.009-5.938 6.45 6.45 0 0 1 2.47-.48h137.036A6.449 6.449 0 0 1 268 60.418V152zM124.479 55.282a5.176 5.176 0 0 0-5.179 5.136v90.288h147.405V60.418a5.18 5.18 0 0 0-5.178-5.136H124.479z" fill="#333"/><path d="M260.705 147a1.29 1.29 0 0 0 1.295-1.279V61.273a1.284 1.284 0 0 0-.382-.902 1.283 1.283 0 0 0-.913-.371h-136.41a1.302 1.302 0 0 0-.913.37 1.278 1.278 0 0 0-.382.904v84.447a1.278 1.278 0 0 0 .8 1.183c.157.064.325.097.495.096h136.41z" fill="#fff"/><path d="M261.355 146.71V61.29a.643.643 0 0 0-.192-.454.653.653 0 0 0-.458-.188h-136.41a.653.653 0 0 0-.458.188.643.643 0 0 0-.192.454v85.42a.652.652 0 0 0 .65.648h136.41a.652.652 0 0 0 .65-.648zm.645 0a1.273 1.273 0 0 1-.378.914 1.27 1.27 0 0 1-.421.279 1.278 1.278 0 0 1-.496.097h-136.41a1.278 1.278 0 0 1-.496-.097 1.287 1.287 0 0 1-.799-1.193V61.29c0-.342.136-.67.379-.912a1.3 1.3 0 0 1 .916-.378h136.41a1.3 1.3 0 0 1 .916.378c.243.242.379.57.379.912v85.42z" fill="#333"/><path d="M140.321 157.29h35.481v.142h8.136v-.137h18.516v.171h10.976v-.171l59.07.205c1.818-.057 3.639-.555 5.381-1.079a17.995 17.995 0 0 0 2.46-.983h-47.156V155h-8.681v.404l-11.079-.199v-.137h-10.971v.336l-17.863-.245h-8.789v.301l-33.521-.437-.568.136-10.869.103-27.634-.103a7.992 7.992 0 0 0 2.494 1.705c1.971.608 4.466.608 6.056.608h19.073l8.409.204 1.079-.386z" fill="#AAA"/><path d="m280.023 155.432.863-.568H102.943l.568.568h176.512z" fill="#333"/><path d="M103.255 151.592v3.346c1.136 1.17 3.909 2.511 9.38 2.341l158.548.079a31.324 31.324 0 0 0 5.88-.977c.863-.205 3.67-1.273 3.704-1.58v-3.209c-59.155.102-118.328 0-177.512 0zm9.38 6.408c-3.051 0-6.249 0-9.488-2.13-.312-.279-.568-.449-.568-.932v-2.892a1.208 1.208 0 0 1 1.136-1.096h176.757a.908.908 0 0 1 .966.994v2.96l-.04.034a1.387 1.387 0 0 1-.688.721 14.247 14.247 0 0 1-3.812 1.517c-1.844.483-3.736.76-5.642.824H112.635z" fill="#333"/><path opacity=".6" d="M157.121 89.893h-24.936a.33.33 0 0 0-.335.335.33.33 0 0 0 .206.315.334.334 0 0 0 .129.026h24.942a.342.342 0 0 0 .309-.47.328.328 0 0 0-.185-.183.333.333 0 0 0-.13-.023z" fill="#fff"/><path d="M255.524 67H151.476c-.391 0-.767-.158-1.044-.44a1.516 1.516 0 0 1 0-2.12c.277-.282.653-.44 1.044-.44h104.048c.391 0 .767.158 1.044.44a1.516 1.516 0 0 1 0 2.12c-.277.282-.653.44-1.044.44zm-104.048-2.442c-.246 0-.482.099-.655.276a.95.95 0 0 0 0 1.332.917.917 0 0 0 .655.276h104.048c.246 0 .482-.099.655-.276a.95.95 0 0 0 0-1.332.917.917 0 0 0-.655-.276H151.476z" fill="#CCC"/><path d="M165.439 151.751h-46.321l-.034.034v-.034H103.21v3.062h177.591v-3.204c-32.699.068-65.382.102-98.051.102h-.306c-5.648.04-11.329.04-17.005.04z" fill="#F2F2F2"/><path d="M129.151 66.844c.788 0 1.426-.623 1.426-1.392 0-.769-.638-1.392-1.426-1.392-.787 0-1.426.623-1.426 1.392 0 .769.639 1.392 1.426 1.392zM133.231 66.844c.787 0 1.426-.623 1.426-1.392 0-.769-.639-1.392-1.426-1.392-.788 0-1.426.623-1.426 1.392 0 .769.638 1.392 1.426 1.392zM137.304 66.844c.788 0 1.426-.623 1.426-1.392 0-.769-.638-1.392-1.426-1.392-.787 0-1.426.623-1.426 1.392 0 .769.639 1.392 1.426 1.392z" fill="#CCC"/><path d="M198.803 78.746h-46.606c-.661 0-1.197.509-1.197 1.136 0 .628.536 1.136 1.197 1.136h46.606c.661 0 1.197-.508 1.197-1.136 0-.627-.536-1.136-1.197-1.136z" fill="#B2B2B2"/><path opacity=".4" d="M151.952 93h62.096a.924.924 0 0 1 .655.233c.178.159.285.38.297.617a.889.889 0 0 1-.6.801.933.933 0 0 1-.352.053h-62.096a.933.933 0 0 1-.657-.234.889.889 0 0 1-.295-.62.889.889 0 0 1 .297-.617.924.924 0 0 1 .655-.232z" fill="#CCC"/><path d="M246.894 98.682a1.83 1.83 0 1 0 0-3.66 1.83 1.83 0 0 0 0 3.66z" fill="#fff"/><path d="M243.434 118.947a1.25 1.25 0 1 1 2.5 0v14.771a1.252 1.252 0 0 1-1.25 1.25 1.254 1.254 0 0 1-1.25-1.25v-14.771z" fill="#E2E2E2"/><path d="M335.105 144a.886.886 0 0 0 .895-.896V83.89a.914.914 0 0 0-.265-.632.885.885 0 0 0-.63-.258h-94.21a.888.888 0 0 0-.895.896v59.208a.902.902 0 0 0 .262.636.886.886 0 0 0 .633.26h94.21z" fill="#fff"/><path d="M335.555 143.105v-59.21a.448.448 0 0 0-.45-.45h-94.21a.45.45 0 0 0-.45.45v59.21a.443.443 0 0 0 .45.445h94.21a.461.461 0 0 0 .318-.129.444.444 0 0 0 .132-.316zm.445 0a.895.895 0 0 1-.895.895h-94.21a.892.892 0 0 1-.827-.552.897.897 0 0 1-.068-.343v-59.21a.88.88 0 0 1 .067-.343.88.88 0 0 1 .485-.485.888.888 0 0 1 .343-.067h94.21a.888.888 0 0 1 .895.895v59.21z" fill="#AFAFAF"/><path opacity=".6" d="M263.683 103.897h-17.169a.232.232 0 0 0-.165.398.236.236 0 0 0 .165.068h17.169a.236.236 0 0 0 .165-.068.236.236 0 0 0 .068-.165.236.236 0 0 0-.068-.165.236.236 0 0 0-.165-.068z" fill="#fff"/><path d="M332.523 88.167h-76.359a1.086 1.086 0 0 1-.439-2.106c.141-.049.29-.069.439-.058h76.359a1.087 1.087 0 0 1 .716 1.821c-.187.2-.443.324-.716.343zm-76.359-1.795a.68.68 0 0 0-.682.682.682.682 0 0 0 .682.682h76.359a.683.683 0 0 0 .482-1.164.684.684 0 0 0-.482-.2h-76.359zM244.983 87.92c.543 0 .983-.43.983-.96s-.44-.96-.983-.96a.972.972 0 0 0-.983.96c0 .53.44.96.983.96zM247.983 87.92c.543 0 .983-.43.983-.96s-.44-.96-.983-.96a.972.972 0 0 0-.983.96c0 .53.44.96.983.96zM250.983 87.92c.543 0 .983-.43.983-.96s-.44-.96-.983-.96a.972.972 0 0 0-.983.96c0 .53.44.96.983.96z" fill="#CCC"/><path d="M279.31 96h-34.429a.88.88 0 0 0-.881.88v.006c0 .487.394.88.881.88h34.429a.88.88 0 0 0 .881-.88v-.005a.88.88 0 0 0-.881-.881z" fill="#FF6F3D"/><path d="M353.337 83.927a9.704 9.704 0 1 0 9.698-9.698 9.7 9.7 0 0 0-9.698 9.698z" fill="#fff"/><path d="M371.165 66h-65.33a3.844 3.844 0 0 0-2.712 1.12 3.814 3.814 0 0 0-1.123 2.7v27.094c0 1.013.404 1.985 1.123 2.701a3.844 3.844 0 0 0 2.712 1.119h6.759c-.395 2.985-.907 7.266-.626 7.266.282 0 3.588-4.488 5.582-7.266h53.615a3.844 3.844 0 0 0 2.712-1.119A3.814 3.814 0 0 0 375 96.914V69.82a3.814 3.814 0 0 0-1.123-2.702A3.844 3.844 0 0 0 371.165 66z" fill="#fff"/><path fill-rule="evenodd" clip-rule="evenodd" d="m313.164 100.234-.075.566a154.789 154.789 0 0 0-.564 4.736c-.046.467-.083.89-.106 1.247.356-.442.805-1.022 1.299-1.676a248.451 248.451 0 0 0 3.425-4.664l.15-.209h53.872c.885 0 1.733-.35 2.359-.973a3.314 3.314 0 0 0 .976-2.347V69.82c0-.88-.351-1.725-.976-2.348a3.344 3.344 0 0 0-2.359-.973h-65.33c-.885 0-1.733.35-2.359.973a3.314 3.314 0 0 0-.976 2.348v27.093c0 .88.351 1.724.976 2.347a3.343 3.343 0 0 0 2.359.973h7.329zm-.776 7.367-.059.067c-.188.212-.315.332-.361.332-.057 0-.082-.18-.081-.493l.002-.097c.021-1.186.348-3.937.639-6.176l.066-.5h-6.759a3.844 3.844 0 0 1-2.712-1.119A3.814 3.814 0 0 1 302 96.914V69.82c0-1.014.404-1.985 1.123-2.702A3.844 3.844 0 0 1 305.835 66h65.33c1.017 0 1.992.403 2.712 1.12a3.814 3.814 0 0 1 1.123 2.7v27.094a3.814 3.814 0 0 1-1.123 2.701 3.844 3.844 0 0 1-2.712 1.119H317.55c-1.636 2.279-4.154 5.708-5.162 6.867z" fill="#333"/><path d="M372 84c0 6.075-4.925 11-11 11s-11-4.925-11-11 4.925-11 11-11 11 4.925 11 11z" fill="#fff"/><path fill-rule="evenodd" clip-rule="evenodd" d="M361 94.5c5.799 0 10.5-4.701 10.5-10.5s-4.701-10.5-10.5-10.5-10.5 4.701-10.5 10.5 4.701 10.5 10.5 10.5zm0 .5c6.075 0 11-4.925 11-11s-4.925-11-11-11-11 4.925-11 11 4.925 11 11 11z" fill="#333"/><path fill-rule="evenodd" clip-rule="evenodd" d="M362.212 87.565a.736.736 0 0 1-.04.417l-.794 1.945a.79.79 0 0 1-.165.262.286.286 0 0 1-.407-.002 1.467 1.467 0 0 1-.127-.163c-.499-.712-.628-1.361-1.031-2.02a.952.952 0 0 1-.148-.493c0-.526-.478-.92-.98-.768a14.382 14.382 0 0 0-3.683 1.76.85.85 0 0 0-.14 1.3c1.624 1.703 3.854 2.752 6.318 2.752 2.445 0 4.662-1.038 6.284-2.72a.823.823 0 0 0-.146-1.28c-1.109-.699-2.706-1.387-4.1-1.795-.497-.145-.942.296-.841.805z" fill="#9ADAF3"/><path fill-rule="evenodd" clip-rule="evenodd" d="M360.982 89.576a5.647 5.647 0 0 1-.396-.781l-.05-.117a7.205 7.205 0 0 0-.461-.935.456.456 0 0 1-.075-.232c0-.822-.765-1.507-1.625-1.246a14.877 14.877 0 0 0-3.818 1.824 1.35 1.35 0 0 0-.222 2.058c1.712 1.795 4.069 2.908 6.68 2.908 2.591 0 4.936-1.1 6.644-2.872.584-.606.49-1.591-.24-2.05-1.154-.729-2.795-1.434-4.225-1.853-.893-.26-1.64.542-1.473 1.382a.226.226 0 0 1-.012.131l-.727 1.783zm1.19-1.594a.736.736 0 0 0 .04-.417c-.101-.509.344-.95.841-.805 1.394.408 2.991 1.096 4.1 1.795a.823.823 0 0 1 .146 1.28c-1.622 1.683-3.839 2.72-6.284 2.72-2.464 0-4.694-1.05-6.318-2.753a.85.85 0 0 1 .14-1.299 14.379 14.379 0 0 1 3.683-1.76c.502-.152.98.242.98.768 0 .174.057.344.148.493.178.29.302.578.428.87.16.372.323.751.603 1.15.046.067.088.121.127.163a.286.286 0 0 0 .407.002.79.79 0 0 0 .165-.261l.794-1.946z" fill="#333"/><path fill-rule="evenodd" clip-rule="evenodd" d="M362.125 87.576c.062-.112.098-.174.098-.327v-2.842c-.408.306-.781.306-1.222.306-.442 0-.857-.05-1.223-.306v2.842c0 .154.032.213.095.327.294.521.628.97.941 1.535.075.135.128.2.187.182.058.018.111-.047.186-.182.314-.561.644-1.014.938-1.535z" fill="#fff"/><path fill-rule="evenodd" clip-rule="evenodd" d="M362.56 87.821c-.149.265-.306.511-.458.749l-.017.027c-.159.25-.313.492-.462.758a1.21 1.21 0 0 1-.175.25.602.602 0 0 1-.447.192.602.602 0 0 1-.448-.191 1.214 1.214 0 0 1-.175-.252 14.308 14.308 0 0 0-.462-.757l-.024-.037c-.15-.234-.307-.477-.454-.739l-.002-.002-.004-.009a1.04 1.04 0 0 1-.154-.561v-3.803l.787.552c.237.166.523.215.936.215.444 0 .66-.01.922-.206l.8-.6v3.842c0 .12-.015.23-.053.342-.032.09-.076.17-.102.216a.29.29 0 0 1-.006.012l-.002.002zm-1.559 1.472c-.059.018-.112-.047-.187-.182-.164-.296-.333-.56-.5-.818-.151-.236-.301-.469-.441-.718a.548.548 0 0 1-.095-.326v-2.842c.158.111.326.183.5.23.23.06.472.076.723.076.257 0 .491 0 .722-.06.165-.044.33-.118.5-.246v2.842c0 .15-.035.213-.096.322l-.002.005" fill="#333"/><path d="M365.481 80.74a4.481 4.481 0 1 1-8.962.001 4.481 4.481 0 0 1 8.962 0z" fill="#fff"/><path fill-rule="evenodd" clip-rule="evenodd" d="M361 76.509a4.232 4.232 0 1 0 0 8.464 4.232 4.232 0 0 0 0-8.464zm-4.732 4.231a4.732 4.732 0 1 1 9.464.002 4.732 4.732 0 0 1-9.464-.002z" fill="#333"/><path fill-rule="evenodd" clip-rule="evenodd" d="M359.371 78.704c-.856 1.422-1.222 2.037-2.825 2.379-.296-2.516 1.856-4.824 4.46-4.824 2.687 0 4.712 2.352 4.454 4.889-1.352-.016-5.022-.412-6.089-2.444z" fill="#AAA"/><path fill-rule="evenodd" clip-rule="evenodd" d="M365.708 81.173c.274-2.682-1.864-5.164-4.702-5.164-2.743 0-5.023 2.429-4.708 5.103l.032.272.268-.057c.83-.177 1.369-.432 1.811-.846.356-.334.639-.764.966-1.3.647.89 1.769 1.422 2.864 1.741a12.89 12.89 0 0 0 3.218.476l.228.003.023-.228zm-.48-.281a12.422 12.422 0 0 1-2.849-.45c-1.205-.35-2.303-.932-2.787-1.855l-.206-.393-.229.38c-.435.722-.722 1.197-1.09 1.542-.31.291-.689.499-1.295.656-.093-2.246 1.867-4.263 4.234-4.263 2.455 0 4.325 2.08 4.222 4.383z" fill="#333"/><path d="M310.582 78h36.836c.322 0 .582-.314.582-.7v-.6c0-.386-.26-.7-.582-.7h-36.836c-.322 0-.582.314-.582.7v.6c0 .386.26.7.582.7zM339.583 82h7.834c.322 0 .583-.314.583-.7v-.6c0-.386-.261-.7-.583-.7h-7.834c-.322 0-.583.314-.583.7v.6c0 .386.261.7.583.7zM310.59 82h24.82c.326 0 .59-.314.59-.7v-.6c0-.386-.264-.7-.59-.7h-24.82c-.326 0-.59.314-.59.7v.6c0 .386.264.7.59.7zM328.593 87h18.814c.328 0 .593-.314.593-.7v-.6c0-.386-.265-.7-.593-.7h-18.814c-.328 0-.593.314-.593.7v.6c0 .386.265.7.593.7zM310.563 87h13.874c.311 0 .563-.314.563-.7v-.6c0-.386-.252-.7-.563-.7h-13.874c-.311 0-.563.314-.563.7v.6c0 .386.252.7.563.7zM310.582 91h36.836c.322 0 .582-.314.582-.7v-.6c0-.386-.26-.7-.582-.7h-36.836c-.322 0-.582.314-.582.7v.6c0 .386.26.7.582.7z" fill="#CDCDCD"/><path fill="#FFC5B1" d="M205 102h28v3h-28z"/><rect x="151" y="103" width="13" height=".568" rx=".284" fill="#EBECEC"/><rect x="206" y="103.2" width="21.59" height=".568" rx=".284" fill="#fff"/><rect x="288" y="110" width="23.294" height=".568" rx=".284" fill="#EBECEC"/><rect x="288" y="107" width="21" height=".568" rx=".284" fill="#EBECEC"/><rect x="288" y="104" width="18" height=".568" rx=".284" fill="#EBECEC"/><rect x="206" y="106" width="14" height=".568" rx=".284" fill="#EBECEC"/><rect x="288" y="113" width="35.225" height=".568" rx=".284" fill="#EBECEC"/><rect x="206" y="112" width="30" height=".568" rx=".284" fill="#EBECEC"/><rect x="288" y="119" width="34.657" height=".568" rx=".284" fill="#EBECEC"/><rect x="288" y="125" width="32.953" height=".568" rx=".284" fill="#EBECEC"/><rect x="168" y="127" width="33" height=".568" rx=".284" fill="#EBECEC"/><rect x="288" y="131" width="35.225" height=".568" rx=".284" fill="#EBECEC"/><rect x="288" y="134" width="35.225" height=".568" rx=".284" fill="#EBECEC"/><rect x="168" y="130" width="15" height=".568" rx=".284" fill="#EBECEC"/><rect x="288" y="128" width="35.225" height=".568" rx=".284" fill="#EBECEC"/><rect x="206" y="109" width="27.839" height=".568" rx=".284" fill="#EBECEC"/><rect x="288" y="116" width="29.544" height=".568" rx=".284" fill="#EBECEC"/><rect x="151" y="106" width="13" height=".568" rx=".284" fill="#EBECEC"/><rect x="127" y="121" width="26.703" height=".568" rx=".284" fill="#EBECEC"/><path fill="#E3EEC4" d="M126 135h33v3h-33z"/><rect x="127" y="124" width="29" height=".568" rx=".284" fill="#EBECEC"/><rect x="127" y="127" width="32" height=".568" rx=".284" fill="#EBECEC"/><rect x="127" y="133" width="32" height=".568" rx=".284" fill="#EBECEC"/><rect x="168" y="133" width="26" height=".568" rx=".284" fill="#EBECEC"/><rect x="127" y="139" width="32" height=".568" rx=".284" fill="#EBECEC"/><rect x="168" y="139" width="27" height=".568" rx=".284" fill="#EBECEC"/><rect x="127" y="130" width="14" height=".568" rx=".284" fill="#EBECEC"/><rect x="145" y="130" width="14" height=".568" rx=".284" fill="#EBECEC"/><rect x="127" y="136.4" width="17" height=".568" rx=".284" fill="#fff"/><rect x="168" y="136" width="17" height=".568" rx=".284" fill="#EBECEC"/><rect x="187" y="136" width="14" height=".568" rx=".284" fill="#EBECEC"/><rect x="127" y="142" width="30" height=".568" rx=".284" fill="#EBECEC"/><rect x="168" y="142" width="30" height=".568" rx=".284" fill="#EBECEC"/><rect x="151" y="109" width="13" height=".568" rx=".284" fill="#EBECEC"/><rect x="151" y="112" width="11" height=".568" rx=".284" fill="#EBECEC"/><circle cx="263" cy="59" r="19" fill="#fff"/><path d="M244.282 58.718a18.723 18.723 0 0 0 22.37 18.359 18.72 18.72 0 1 0-22.37-18.359zm34.518 0a15.782 15.782 0 0 1-9.74 14.576 15.776 15.776 0 0 1-20.613-20.613 15.778 15.778 0 0 1 14.576-9.74A15.815 15.815 0 0 1 278.8 58.718z" fill="#D9F4FF"/><path d="M263 77.98a19.002 19.002 0 0 1-18.635-22.706A19 19 0 0 1 282 58.98a19.023 19.023 0 0 1-19 19zm0-37.436a18.438 18.438 0 0 0-13.037 31.473 18.441 18.441 0 0 0 20.092 3.997 18.436 18.436 0 0 0 11.382-17.033A18.46 18.46 0 0 0 263 40.543zm0 34.518a16.078 16.078 0 0 1-14.857-9.927 16.078 16.078 0 0 1 3.486-17.526 16.08 16.08 0 0 1 27.452 11.371A16.096 16.096 0 0 1 263 75.063zm0-31.6a15.518 15.518 0 1 0 15.518 15.518A15.538 15.538 0 0 0 263 43.463z" fill="#333"/><path d="M262.115 46c-.296 0-.579.127-.788.353-.21.227-.327.533-.327.853v10.875c-.001.314.109.616.309.843l7.757 8.708c.206.23.488.362.784.368.297.005.583-.116.796-.338.11-.109.198-.24.259-.388a1.26 1.26 0 0 0 .009-.936 1.176 1.176 0 0 0-.252-.392l-7.432-8.351V47.206c0-.32-.117-.626-.326-.853a1.076 1.076 0 0 0-.789-.353z" fill="#333"/><path fill-rule="evenodd" clip-rule="evenodd" d="M200 102.5h-31a.5.5 0 0 0-.5.5v20a.5.5 0 0 0 .5.5h31a.5.5 0 0 0 .5-.5v-20a.5.5 0 0 0-.5-.5zm-31-.5a1 1 0 0 0-1 1v20a1 1 0 0 0 1 1h31a1 1 0 0 0 1-1v-20a1 1 0 0 0-1-1h-31z" fill="#EBECEC"/><circle cx="179" cy="113" r="8" fill="#FFC5B1"/><path d="M187 113a7.995 7.995 0 0 0-5.401-7.566 8.002 8.002 0 0 0-10.592 7.231 7.996 7.996 0 0 0 5.079 7.785 7.998 7.998 0 0 0 4.871.307L179 113h8z" fill="#E3EEC4"/><path d="M187 113a8.002 8.002 0 0 0-11.264-7.304 8.003 8.003 0 0 0-3.807 3.562L179 113h8z" fill="#D9F4FF"/><rect x="190" y="111" width="8" height=".57" rx=".285" fill="#D9F4FF"/><rect x="190" y="113" width="8" height=".57" rx=".285" fill="#E3EEC4"/><rect x="190" y="115" width="8" height=".57" rx=".285" fill="#FFC5B1"/><path d="m208.5 129 7.5-2.5 8-4.5 6.5 4.5 3.5-4" stroke="#D9F4FF" stroke-width=".5"/><path d="M208.652 133.802a.249.249 0 1 0-.304.396l.304-.396zM215 139l-.152.198.178.138.155-.164L215 139zm9-9.5.177-.177-.182-.181-.176.186.181.172zm4.5 4.5-.177.177.222.222.167-.267-.212-.132zm-20.152.198 6.5 5 .304-.396-6.5-5-.304.396zm6.833 4.974 9-9.5-.362-.344-9 9.5.362.344zm8.642-9.495 4.5 4.5.354-.354-4.5-4.5-.354.354zm4.889 4.455 5-8-.424-.264-5 8 .424.264z" fill="#E3EEC4"/><path d="M208.5 140.5 217 130l2.5 2.5 5-7 2 2 6-6.5" stroke="#FFC5B1" stroke-width=".5"/><path fill-rule="evenodd" clip-rule="evenodd" d="M236 116.5h-29a.5.5 0 0 0-.5.5v25a.5.5 0 0 0 .5.5h29a.5.5 0 0 0 .5-.5v-25a.5.5 0 0 0-.5-.5zm-29-.5a1 1 0 0 0-1 1v25a1 1 0 0 0 1 1h29a1 1 0 0 0 1-1v-25a1 1 0 0 0-1-1h-29z" fill="#EBECEC"/><path stroke="#EBECEC" stroke-width=".5" d="M208.25 120v21M208 140.75h27"/><path fill-rule="evenodd" clip-rule="evenodd" d="M282 103.5h-37a.5.5 0 0 0-.5.5v30a.5.5 0 0 0 .5.5h37a.5.5 0 0 0 .5-.5v-30a.5.5 0 0 0-.5-.5zm-37-.5a1 1 0 0 0-1 1v30a1 1 0 0 0 1 1h37a1 1 0 0 0 1-1v-30a1 1 0 0 0-1-1h-37z" fill="#EBECEC"/><path d="M249.5 109.5v5.5m4 14h-4v-7m2.5-7h-2.5m0 0v7m3 0h-3" stroke="#B2B2B2" stroke-width=".5"/><rect x="252" y="127" width="28" height="4" rx="2" fill="#D9F4FF"/><rect x="255" y="128.5" width="20" height="1" rx=".5" fill="#fff"/><rect x="247" y="106" width="33" height="4" rx="2" fill="#EBECEC"/><rect x="252" y="113" width="28" height="4" rx="2" fill="#E3EEC4"/><rect x="252" y="120" width="28" height="4" rx="2" fill="#FFC5B1"/><rect x="250" y="107.5" width="27" height="1" rx=".5" fill="#fff"/><rect x="255" y="114.5" width="22" height="1" rx=".5" fill="#fff"/><rect x="255" y="121.5" width="16" height="1" rx=".5" fill="#fff"/><rect x="81.25" y="42.25" width="62.045" height="85.5" rx=".75" fill="#fff" stroke="#333" stroke-width=".5"/><path d="M88.818 62.069a.583.583 0 0 1 .192-.386.526.526 0 0 1 .394-.132h47.714a.467.467 0 0 1 .393.12.504.504 0 0 1 .126.177.548.548 0 0 1 0 .43.505.505 0 0 1-.31.283.468.468 0 0 1-.209.015H89.393a.527.527 0 0 1-.384-.133.582.582 0 0 1-.191-.374zM88.818 65.967a.542.542 0 0 1 .157-.364.487.487 0 0 1 .354-.143h26.291a.465.465 0 0 1 .392.12.548.548 0 0 1 .125.607.486.486 0 0 1-.517.297H89.33a.479.479 0 0 1-.358-.146.531.531 0 0 1-.154-.371z" fill="#D9F4FF"/><path d="M88.818 58.16a.588.588 0 0 1 .192-.389.524.524 0 0 1 .394-.133h47.692a.524.524 0 0 1 .394.133.59.59 0 0 1 .192.388.601.601 0 0 1-.06.213.553.553 0 0 1-.317.276.508.508 0 0 1-.209.021H89.393a.514.514 0 0 1-.386-.13.576.576 0 0 1-.189-.38z" fill="#CCC"/><path d="M88.818 103.109a.567.567 0 0 1 .192-.378.535.535 0 0 1 .396-.129h47.669a.49.49 0 0 1 .421.105.517.517 0 0 1 .186.402.529.529 0 0 1-.186.401.49.49 0 0 1-.421.106h-47.68a.535.535 0 0 1-.388-.134.563.563 0 0 1-.19-.373z" fill="#D9F4FF"/><path d="M88.818 107.016c0-.285.374-.516.83-.516h42.848c.467 0 .841.231.841.516 0 .286-.374.517-.841.517H89.649c-.457.033-.831-.231-.831-.517z" fill="#CCC"/><path d="M88.818 99.205a.582.582 0 0 1 .193-.385.529.529 0 0 1 .395-.133h47.71a.473.473 0 0 1 .395.12.532.532 0 0 1 0 .784.49.49 0 0 1-.395.121h-47.72a.53.53 0 0 1-.386-.132.581.581 0 0 1-.192-.375z" fill="#FFC5B1"/><path fill-rule="evenodd" clip-rule="evenodd" d="M136.682 71.818H89.818a.5.5 0 0 0-.5.5v21.455a.5.5 0 0 0 .5.5h46.864a.5.5 0 0 0 .5-.5V72.318a.5.5 0 0 0-.5-.5zm-46.864-.5a1 1 0 0 0-1 1v21.455a1 1 0 0 0 1 1h46.864a1 1 0 0 0 1-1V72.318a1 1 0 0 0-1-1H89.818z" fill="#E2E2E2"/><circle cx="102.5" cy="83.046" r="7.818" fill="#D9F4FF"/><path d="M110.318 83.046a7.818 7.818 0 1 0-9.349 7.666l1.531-7.666h7.818z" fill="#E3EEC4"/><path d="M110.318 83.046a7.815 7.815 0 0 0-6.238-7.657 7.818 7.818 0 0 0-8.76 4.562l7.18 3.095h7.818z" fill="#FFC5B1"/><rect x="116.182" y="79.136" width="15.636" height="1.036" rx=".518" fill="#FFC5B1"/><rect x="116.182" y="83.046" width="15.636" height="1.036" rx=".518" fill="#E3EEC4"/><rect x="116.182" y="86.955" width="15.636" height="1.036" rx=".518" fill="#D9F4FF"/><path d="M92.06 39H69.132c-1.361 0-2.666.56-3.629 1.556A5.409 5.409 0 0 0 64 44.312V51.6c0 1.409.54 2.76 1.503 3.757a5.045 5.045 0 0 0 3.629 1.555h16.583l5.47 5.663V56.91h.867a5.045 5.045 0 0 0 3.626-1.557 5.41 5.41 0 0 0 1.501-3.755v-7.287a5.41 5.41 0 0 0-1.498-3.751A5.046 5.046 0 0 0 92.06 39z" fill="#9ADAF3"/><path fill-rule="evenodd" clip-rule="evenodd" d="m85.878 56.527 4.923 5.096v-5.096h1.25a4.66 4.66 0 0 0 3.35-1.44 5.025 5.025 0 0 0 1.394-3.488v-7.287a5.025 5.025 0 0 0-1.39-3.485 4.661 4.661 0 0 0-3.345-1.443H69.132c-1.255 0-2.461.516-3.353 1.439a5.025 5.025 0 0 0-1.395 3.49v7.286c0 1.311.504 2.566 1.395 3.49a4.661 4.661 0 0 0 3.353 1.438h16.746zM92.06 39H69.132c-1.361 0-2.666.56-3.629 1.556A5.409 5.409 0 0 0 64 44.312V51.6c0 1.409.54 2.76 1.503 3.757a5.045 5.045 0 0 0 3.629 1.555h16.583l5.47 5.663V56.91h.867a5.045 5.045 0 0 0 3.626-1.557 5.41 5.41 0 0 0 1.501-3.755v-7.287a5.41 5.41 0 0 0-1.498-3.751A5.046 5.046 0 0 0 92.06 39z" fill="#333"/><path d="M72.88 50.177a1.528 1.528 0 1 0 0-3.056 1.528 1.528 0 0 0 0 3.056z" fill="#fff"/><path d="M72.885 50.613a1.965 1.965 0 1 1-.009-3.929 1.965 1.965 0 0 1 .009 3.93zm0-3.484a1.523 1.523 0 1 0-.01 3.046 1.523 1.523 0 0 0 .01-3.046z" fill="#333"/><path d="M80.565 50.177a1.528 1.528 0 1 0 0-3.056 1.528 1.528 0 0 0 0 3.056z" fill="#fff"/><path d="M80.547 50.613a1.964 1.964 0 1 1 .035-3.928 1.964 1.964 0 0 1-.035 3.928zm0-3.484a1.524 1.524 0 1 0 .035 3.047 1.524 1.524 0 0 0-.035-3.047z" fill="#333"/><path d="M88.248 50.177a1.528 1.528 0 1 0 0-3.056 1.528 1.528 0 0 0 0 3.056z" fill="#fff"/><path d="M88.248 50.613a1.964 1.964 0 1 1 0-3.929 1.964 1.964 0 0 1 0 3.93zm0-3.484a1.524 1.524 0 1 0 0 3.048 1.524 1.524 0 0 0 0-3.048z" fill="#333"/><path d="M144.102 86h-9.127c-1.32 0-2.585.56-3.518 1.558-.933.997-1.457 2.35-1.457 3.76a5.573 5.573 0 0 0 .956 3.133 5.01 5.01 0 0 0 2.499 1.93V100l3.147-3.364h7.514c1.319 0 2.585-.56 3.518-1.558.933-.997 1.457-2.35 1.457-3.76 0-.7-.129-1.392-.38-2.039a5.365 5.365 0 0 0-1.082-1.727 4.963 4.963 0 0 0-1.619-1.151 4.695 4.695 0 0 0-1.908-.401z" fill="#FF6F3D"/><path d="M133.417 100v-3.488c-1.134-.415-2.093-1.247-2.706-2.348a5.72 5.72 0 0 1-.64-3.665 5.5 5.5 0 0 1 1.731-3.235A4.854 4.854 0 0 1 135.08 86h8.962c1.339 0 2.623.57 3.57 1.582.947 1.013 1.479 2.387 1.479 3.819s-.532 2.806-1.479 3.819c-.947 1.013-2.231 1.582-3.57 1.582h-7.298L133.417 100zm1.674-13.626c-1.123 0-2.208.429-3.061 1.21a5.135 5.135 0 0 0-1.591 3.046 5.333 5.333 0 0 0 .642 3.422c.588 1.023 1.498 1.787 2.566 2.155l.119.04v2.894l2.846-2.676h7.454c1.249 0 2.447-.531 3.33-1.476.884-.945 1.38-2.227 1.38-3.563 0-1.336-.496-2.618-1.38-3.562-.883-.945-2.081-1.476-3.33-1.476l-8.975-.014z" fill="#333"/><path d="M143.175 92.624a1.084 1.084 0 1 0 .001-2.169 1.084 1.084 0 0 0-.001 2.169z" fill="#fff"/><path d="M143.175 92.624a1.083 1.083 0 0 1-.766-1.852 1.079 1.079 0 0 1 1.182-.235 1.082 1.082 0 0 1 .669 1.002 1.082 1.082 0 0 1-1.085 1.085zm0-1.835a.748.748 0 0 0-.735.897.749.749 0 1 0 .735-.897z" fill="#333"/><path d="M139.357 92.624a1.085 1.085 0 1 0 0-2.17 1.085 1.085 0 0 0 0 2.17z" fill="#fff"/><path d="M139.357 92.624a1.083 1.083 0 0 1-1.063-1.296 1.082 1.082 0 0 1 1.478-.79 1.08 1.08 0 0 1 .67 1.001 1.086 1.086 0 0 1-1.085 1.085zm0-1.835a.748.748 0 0 0-.735.897.749.749 0 1 0 .735-.897z" fill="#333"/><path d="M135.539 92.624a1.085 1.085 0 1 0 0-2.17 1.085 1.085 0 0 0 0 2.17z" fill="#fff"/><path d="M135.536 92.624a1.087 1.087 0 0 1-1.06-1.298 1.088 1.088 0 0 1 .853-.85 1.084 1.084 0 1 1 .207 2.148zm0-1.835a.752.752 0 0 0-.732.898.747.747 0 0 0 1.023.545.747.747 0 0 0 .405-.98.753.753 0 0 0-.696-.463z" fill="#333"/></g><defs><clipPath id="a"><path fill="#fff" transform="translate(1 35)" d="M0 0h375v123H0z"/></clipPath></defs></svg>