<svg width="377" height="193" viewBox="0 0 377 193" fill="none" xmlns="http://www.w3.org/2000/svg">
<g clip-path="url(#clip0_2601_128335)">
<path d="M107.165 103.697L106.465 103.885L106.109 103.145C104.184 99.2716 101.03 96.1345 97.1334 94.2173C93.2365 92.3 88.8127 91.709 84.5442 92.5353L83.8439 92.723L83.4883 92.1709C79.4532 84.3103 71.7388 79 62.7906 79C49.8185 79 39.1252 90.3383 39.1252 104.392C31.233 98.8723 22.8073 98.8723 17.3716 100.926C11.936 102.979 7.73427 107.693 5.62227 113.357C3.39936 119.081 3.46302 125.431 5.80016 131.11C8.25675 136.63 13.1699 141.046 21.2288 142.636L113.656 143H114.234C119.367 142.683 124.179 140.415 127.673 136.668C131.167 132.92 133.073 127.98 132.998 122.874C133.131 109.184 119.437 99.6783 107.165 103.697Z" fill="#F5F5F5"/>
<path d="M119 60.193C119 58.8158 119.548 57.4949 120.523 56.521C121.498 55.5471 122.821 55 124.2 55H261.8C263.179 55 264.502 55.5471 265.477 56.521C266.452 57.4949 267 58.8158 267 60.193V152H119V60.193Z" fill="#F5F5F5"/>
<path d="M268 152H118V60.418C118.004 59.5714 118.174 58.7339 118.502 57.9532C118.83 57.1725 119.308 56.4639 119.91 55.8679C120.511 55.272 121.224 54.8003 122.009 54.4798C122.793 54.1593 123.632 53.9963 124.479 54.0001H261.515C262.363 53.9956 263.203 54.158 263.987 54.4781C264.772 54.7983 265.486 55.2699 266.088 55.8659C266.691 56.4619 267.169 57.1707 267.497 57.9518C267.825 58.7329 267.996 59.5709 268 60.418V152ZM124.479 55.2825C123.113 55.2825 121.801 55.8223 120.831 56.7842C119.861 57.7462 119.311 59.0523 119.3 60.418V150.706H266.705V60.418C266.695 59.0523 266.144 57.7462 265.174 56.7842C264.204 55.8223 262.893 55.2825 261.527 55.2825H124.479Z" fill="#333333"/>
<path d="M260.705 147C260.875 147.001 261.043 146.968 261.2 146.904C261.357 146.84 261.5 146.746 261.62 146.627C261.741 146.508 261.836 146.367 261.901 146.212C261.966 146.056 262 145.889 262 145.721V61.2735C261.999 61.1055 261.965 60.9393 261.9 60.7844C261.834 60.6295 261.739 60.4889 261.618 60.3706C261.498 60.2524 261.355 60.1588 261.199 60.0952C261.042 60.0316 260.874 59.9993 260.705 60H124.295C124.126 59.9993 123.958 60.0316 123.801 60.0952C123.644 60.1588 123.502 60.2524 123.382 60.3706C123.261 60.4889 123.166 60.6295 123.1 60.7844C123.035 60.9393 123.001 61.1055 123 61.2735V145.721C123 145.889 123.034 146.056 123.099 146.212C123.164 146.367 123.259 146.508 123.38 146.627C123.5 146.746 123.643 146.84 123.8 146.904C123.957 146.968 124.125 147.001 124.295 147H260.705Z" fill="white"/>
<path d="M261.355 146.71V61.2899C261.354 61.1191 261.285 60.9558 261.163 60.8355C261.041 60.7153 260.876 60.6478 260.705 60.6478H124.295C124.124 60.6478 123.959 60.7153 123.837 60.8355C123.715 60.9558 123.646 61.1191 123.645 61.2899V146.71C123.646 146.881 123.715 147.045 123.837 147.167C123.958 147.288 124.123 147.356 124.295 147.358H260.705C260.877 147.356 261.042 147.288 261.163 147.167C261.285 147.045 261.354 146.881 261.355 146.71ZM262 146.71C262.001 146.88 261.968 147.048 261.903 147.205C261.838 147.361 261.743 147.504 261.622 147.624C261.502 147.744 261.359 147.839 261.201 147.903C261.044 147.968 260.875 148.001 260.705 148H124.295C124.125 148.001 123.956 147.968 123.799 147.903C123.641 147.839 123.498 147.744 123.378 147.624C123.257 147.504 123.162 147.361 123.097 147.205C123.032 147.048 122.999 146.88 123 146.71V61.2899C123 60.9478 123.136 60.6197 123.379 60.3778C123.622 60.1359 123.952 60 124.295 60H260.705C261.048 60 261.378 60.1359 261.621 60.3778C261.864 60.6197 262 60.9478 262 61.2899V146.71Z" fill="#333333"/>
<path d="M140.321 157.29H175.802V157.432H183.938V157.295H202.454V157.466H213.43V157.295L272.5 157.5C274.318 157.443 276.139 156.945 277.881 156.421C278.724 156.154 279.546 155.826 280.341 155.438H233.185V155H224.504V155.404L213.425 155.205V155.068H202.454V155.404L184.591 155.159H175.802V155.46L142.281 155.023L141.713 155.159L130.844 155.262L103.21 155.159C103.925 155.881 104.772 156.459 105.704 156.864C107.675 157.472 110.17 157.472 111.76 157.472H130.833L139.242 157.676L140.321 157.29Z" fill="#AAAAAA"/>
<path d="M280.023 155.432L280.886 154.864H102.943L103.511 155.432H280.023Z" fill="#333333"/>
<path d="M103.255 151.592V154.938C104.391 156.108 107.164 157.449 112.635 157.279L271.182 157.358C273.169 157.22 275.138 156.893 277.063 156.381C277.926 156.176 280.733 155.108 280.767 154.801V151.592C221.612 151.694 162.439 151.592 103.255 151.592ZM112.635 158C109.584 158 106.386 158 103.147 155.87C102.835 155.591 102.579 155.421 102.579 154.938V152.046C102.605 151.757 102.734 151.487 102.942 151.286C103.151 151.084 103.426 150.965 103.715 150.95H280.472C280.603 150.941 280.735 150.961 280.858 151.008C280.981 151.055 281.093 151.129 281.185 151.223C281.277 151.318 281.347 151.431 281.39 151.556C281.434 151.68 281.45 151.813 281.438 151.944V154.904L281.398 154.938C281.266 155.255 281.021 155.512 280.71 155.659C279.519 156.346 278.235 156.857 276.898 157.176C275.054 157.659 273.162 157.936 271.256 158H112.635Z" fill="#333333"/>
<path opacity="0.6" d="M157.121 89.8926H132.185C132.141 89.8919 132.097 89.9 132.056 89.9166C132.015 89.9332 131.978 89.9578 131.946 89.9891C131.915 90.0204 131.891 90.0576 131.874 90.0986C131.857 90.1397 131.849 90.1836 131.85 90.2278C131.849 90.2723 131.857 90.3165 131.874 90.3579C131.89 90.3992 131.915 90.4368 131.946 90.4685C131.977 90.5003 132.015 90.5255 132.056 90.5427C132.097 90.5599 132.141 90.5687 132.185 90.5687H157.127C157.216 90.5672 157.302 90.5306 157.364 90.4669C157.427 90.4031 157.462 90.3173 157.462 90.2278C157.462 90.1833 157.453 90.1393 157.436 90.0982C157.419 90.0572 157.394 90.02 157.362 89.9888C157.33 89.9576 157.293 89.933 157.251 89.9165C157.21 89.9 157.166 89.8919 157.121 89.8926Z" fill="white"/>
<path d="M255.524 67H151.476C151.085 67 150.709 66.842 150.432 66.5607C150.156 66.2794 150 65.8978 150 65.5C150 65.1022 150.156 64.7206 150.432 64.4393C150.709 64.158 151.085 64 151.476 64H255.524C255.915 64 256.291 64.158 256.568 64.4393C256.844 64.7206 257 65.1022 257 65.5C257 65.8978 256.844 66.2794 256.568 66.5607C256.291 66.842 255.915 67 255.524 67ZM151.476 64.5578C151.23 64.5578 150.994 64.657 150.821 64.8337C150.647 65.0104 150.549 65.2501 150.549 65.5C150.549 65.7499 150.647 65.9896 150.821 66.1663C150.994 66.343 151.23 66.4422 151.476 66.4422H255.524C255.77 66.4422 256.006 66.343 256.179 66.1663C256.353 65.9896 256.451 65.7499 256.451 65.5C256.451 65.2501 256.353 65.0104 256.179 64.8337C256.006 64.657 255.77 64.5578 255.524 64.5578H151.476Z" fill="#CCCCCC"/>
<path d="M165.439 151.751H119.118L119.084 151.785V151.751H103.21V154.813H280.801V151.609C248.102 151.677 215.419 151.711 182.75 151.711H182.444C176.796 151.751 171.115 151.751 165.439 151.751Z" fill="#F2F2F2"/>
<path d="M129.151 66.8436C129.939 66.8436 130.577 66.2205 130.577 65.4517C130.577 64.683 129.939 64.0598 129.151 64.0598C128.364 64.0598 127.725 64.683 127.725 65.4517C127.725 66.2205 128.364 66.8436 129.151 66.8436Z" fill="#CCCCCC"/>
<path d="M133.231 66.8436C134.018 66.8436 134.657 66.2205 134.657 65.4517C134.657 64.683 134.018 64.0598 133.231 64.0598C132.443 64.0598 131.805 64.683 131.805 65.4517C131.805 66.2205 132.443 66.8436 133.231 66.8436Z" fill="#CCCCCC"/>
<path d="M137.304 66.8436C138.092 66.8436 138.73 66.2205 138.73 65.4517C138.73 64.683 138.092 64.0598 137.304 64.0598C136.517 64.0598 135.878 64.683 135.878 65.4517C135.878 66.2205 136.517 66.8436 137.304 66.8436Z" fill="#CCCCCC"/>
<path d="M198.803 78.7458H152.197C151.536 78.7458 151 79.2546 151 79.8821C151 80.5096 151.536 81.0184 152.197 81.0184H198.803C199.464 81.0184 200 80.5096 200 79.8821C200 79.2546 199.464 78.7458 198.803 78.7458Z" fill="#B2B2B2"/>
<path opacity="0.4" d="M151.952 93.0009H214.048C214.289 92.9901 214.524 93.0734 214.703 93.2325C214.881 93.3916 214.988 93.6136 215 93.8497C214.995 93.9671 214.966 94.0823 214.915 94.1888C214.865 94.2952 214.793 94.3908 214.705 94.4701C214.616 94.5494 214.513 94.6109 214.4 94.6509C214.287 94.6909 214.167 94.7088 214.048 94.7035H151.952C151.833 94.7088 151.713 94.6909 151.6 94.6509C151.487 94.6109 151.384 94.5494 151.295 94.4701C151.207 94.3908 151.135 94.2952 151.085 94.1888C151.034 94.0823 151.005 93.9671 151 93.8497C151.012 93.6136 151.119 93.3916 151.297 93.2325C151.476 93.0734 151.711 92.9901 151.952 93.0009Z" fill="#CCCCCC"/>
<path d="M246.894 98.6817C247.905 98.6817 248.724 97.8627 248.724 96.8523C248.724 95.842 247.905 95.0229 246.894 95.0229C245.884 95.0229 245.065 95.842 245.065 96.8523C245.065 97.8627 245.884 98.6817 246.894 98.6817Z" fill="white"/>
<path d="M243.434 118.947C243.434 118.615 243.566 118.297 243.8 118.063C244.035 117.828 244.353 117.697 244.684 117.697C245.016 117.697 245.334 117.828 245.568 118.063C245.802 118.297 245.934 118.615 245.934 118.947V133.718C245.934 134.05 245.802 134.367 245.568 134.602C245.334 134.836 245.016 134.968 244.684 134.968C244.353 134.968 244.035 134.836 243.8 134.602C243.566 134.367 243.434 134.05 243.434 133.718V118.947Z" fill="#E2E2E2"/>
<path d="M335.105 144C335.222 144.001 335.338 143.978 335.447 143.933C335.556 143.889 335.654 143.823 335.738 143.74C335.821 143.656 335.887 143.557 335.932 143.448C335.977 143.339 336 143.222 336 143.104V83.89C335.999 83.7723 335.975 83.656 335.93 83.5476C335.885 83.4392 335.819 83.3409 335.735 83.2583C335.652 83.1756 335.554 83.1103 335.446 83.066C335.337 83.0217 335.222 82.9993 335.105 83H240.895C240.778 82.9993 240.662 83.0219 240.553 83.0665C240.444 83.1112 240.346 83.1771 240.262 83.2603C240.179 83.3436 240.113 83.4426 240.068 83.5516C240.023 83.6607 240 83.7777 240 83.8958V143.104C240 143.222 240.023 143.339 240.068 143.448C240.113 143.557 240.179 143.656 240.262 143.74C240.346 143.823 240.444 143.889 240.553 143.933C240.662 143.978 240.778 144.001 240.895 144H335.105Z" fill="white"/>
<path d="M335.555 143.105V83.895C335.555 83.7755 335.508 83.661 335.423 83.5765C335.339 83.492 335.224 83.4446 335.105 83.4446H240.895C240.776 83.4446 240.661 83.492 240.577 83.5765C240.492 83.661 240.445 83.7755 240.445 83.895V143.105C240.445 143.164 240.456 143.222 240.479 143.277C240.502 143.331 240.535 143.38 240.577 143.421C240.619 143.463 240.669 143.495 240.723 143.517C240.778 143.539 240.836 143.55 240.895 143.55H335.105C335.164 143.55 335.222 143.539 335.277 143.517C335.331 143.495 335.381 143.463 335.423 143.421C335.465 143.38 335.498 143.331 335.521 143.277C335.544 143.222 335.555 143.164 335.555 143.105ZM336 143.105C336 143.342 335.906 143.57 335.738 143.738C335.57 143.906 335.342 144 335.105 144H240.895C240.778 144 240.661 143.977 240.553 143.932C240.444 143.887 240.345 143.821 240.262 143.738C240.179 143.655 240.113 143.556 240.068 143.448C240.023 143.339 240 143.223 240 143.105V83.895C239.999 83.7772 240.022 83.6605 240.067 83.5516C240.111 83.4426 240.177 83.3437 240.26 83.2604C240.344 83.1772 240.443 83.1113 240.552 83.0666C240.661 83.0219 240.777 82.9993 240.895 83H335.105C335.223 82.9993 335.339 83.0219 335.448 83.0666C335.557 83.1113 335.656 83.1772 335.74 83.2604C335.823 83.3437 335.889 83.4426 335.933 83.5516C335.978 83.6605 336.001 83.7772 336 83.895V143.105Z" fill="#AFAFAF"/>
<path opacity="0.6" d="M263.683 103.897H246.514C246.452 103.897 246.393 103.922 246.349 103.965C246.305 104.009 246.281 104.068 246.281 104.13C246.281 104.192 246.305 104.251 246.349 104.295C246.393 104.338 246.452 104.363 246.514 104.363H263.683C263.745 104.363 263.804 104.338 263.848 104.295C263.891 104.251 263.916 104.192 263.916 104.13C263.916 104.068 263.891 104.009 263.848 103.965C263.804 103.922 263.745 103.897 263.683 103.897Z" fill="white"/>
<path d="M332.523 88.1674H256.164C256.015 88.1782 255.866 88.1582 255.725 88.1087C255.584 88.0592 255.455 87.9812 255.346 87.8797C255.237 87.7781 255.15 87.6552 255.09 87.5185C255.031 87.3818 255 87.2342 255 87.0851C255 86.936 255.031 86.7885 255.09 86.6518C255.15 86.5151 255.237 86.3921 255.346 86.2906C255.455 86.189 255.584 86.1111 255.725 86.0615C255.866 86.012 256.015 85.9921 256.164 86.0028H332.523C332.796 86.0227 333.052 86.1453 333.239 86.3461C333.426 86.5469 333.529 86.8109 333.529 87.0851C333.529 87.3593 333.426 87.6234 333.239 87.8242C333.052 88.0249 332.796 88.1476 332.523 88.1674ZM256.164 86.3721C255.983 86.3721 255.809 86.444 255.682 86.5718C255.554 86.6997 255.482 86.8731 255.482 87.0539C255.482 87.2347 255.554 87.4081 255.682 87.536C255.809 87.6638 255.983 87.7356 256.164 87.7356H332.523C332.703 87.7356 332.877 87.6638 333.005 87.536C333.133 87.4081 333.204 87.2347 333.204 87.0539C333.204 86.8731 333.133 86.6997 333.005 86.5718C332.877 86.444 332.703 86.3721 332.523 86.3721H256.164Z" fill="#CCCCCC"/>
<path d="M244.983 87.9203C245.526 87.9203 245.966 87.4904 245.966 86.9601C245.966 86.4299 245.526 86 244.983 86C244.44 86 244 86.4299 244 86.9601C244 87.4904 244.44 87.9203 244.983 87.9203Z" fill="#CCCCCC"/>
<path d="M247.983 87.9203C248.526 87.9203 248.966 87.4904 248.966 86.9601C248.966 86.4299 248.526 86 247.983 86C247.44 86 247 86.4299 247 86.9601C247 87.4904 247.44 87.9203 247.983 87.9203Z" fill="#CCCCCC"/>
<path d="M250.983 87.9203C251.526 87.9203 251.966 87.4904 251.966 86.9601C251.966 86.4299 251.526 86 250.983 86C250.44 86 250 86.4299 250 86.9601C250 87.4904 250.44 87.9203 250.983 87.9203Z" fill="#CCCCCC"/>
<path d="M279.31 96H244.881C244.394 96 244 96.3943 244 96.8806V96.8863C244 97.3726 244.394 97.7669 244.881 97.7669H279.31C279.797 97.7669 280.191 97.3726 280.191 96.8863V96.8806C280.191 96.3943 279.797 96 279.31 96Z" fill="#FF6F3D"/>
<path d="M353.337 83.9275C353.336 85.8471 353.904 87.724 354.97 89.3207C356.036 90.9173 357.551 92.1619 359.324 92.8971C361.098 93.6322 363.049 93.8249 364.932 93.4506C366.815 93.0764 368.545 92.1521 369.902 90.7947C371.26 89.4372 372.184 87.7077 372.558 85.8248C372.933 83.942 372.74 81.9904 372.005 80.2171C371.27 78.4438 370.025 76.9283 368.428 75.8625C366.832 74.7967 364.955 74.2284 363.035 74.2295C360.463 74.2295 357.996 75.2512 356.177 77.07C354.358 78.8887 353.337 81.3554 353.337 83.9275Z" fill="white"/>
<path d="M371.165 66H305.835C304.818 66 303.843 66.4025 303.123 67.1191C302.404 67.8356 302 68.8074 302 69.8207V96.9137C302 97.927 302.404 98.8988 303.123 99.6154C303.843 100.332 304.818 100.734 305.835 100.734H312.594C312.199 103.719 311.687 108 311.968 108C312.25 108 315.556 103.512 317.55 100.734H371.165C372.182 100.734 373.157 100.332 373.877 99.6154C374.596 98.8988 375 97.927 375 96.9137V69.8207C375 68.8074 374.596 67.8356 373.877 67.1191C373.157 66.4025 372.182 66 371.165 66Z" fill="white"/>
<path fill-rule="evenodd" clip-rule="evenodd" d="M313.164 100.234L313.089 100.8C312.892 102.291 312.666 104.101 312.525 105.536C312.479 106.003 312.442 106.426 312.419 106.783C312.775 106.341 313.224 105.761 313.718 105.107C314.826 103.642 316.148 101.83 317.143 100.443L317.293 100.234H371.165C372.05 100.234 372.898 99.8841 373.524 99.2611C374.149 98.6382 374.5 97.7938 374.5 96.9137V69.8207C374.5 68.9406 374.149 68.0962 373.524 67.4733C372.898 66.8503 372.05 66.5 371.165 66.5H305.835C304.95 66.5 304.102 66.8503 303.476 67.4733C302.851 68.0962 302.5 68.9406 302.5 69.8207V96.9137C302.5 97.7938 302.851 98.6382 303.476 99.2611C304.102 99.8841 304.95 100.234 305.835 100.234H313.164ZM312.388 107.601C312.368 107.624 312.348 107.647 312.329 107.668C312.141 107.88 312.014 108 311.968 108C311.911 108 311.886 107.82 311.887 107.507C311.888 107.476 311.888 107.444 311.889 107.41C311.91 106.224 312.237 103.473 312.528 101.234C312.55 101.064 312.572 100.898 312.594 100.734H305.835C304.818 100.734 303.843 100.332 303.123 99.6154C302.404 98.8988 302 97.927 302 96.9137V69.8207C302 68.8074 302.404 67.8356 303.123 67.1191C303.843 66.4025 304.818 66 305.835 66H371.165C372.182 66 373.157 66.4025 373.877 67.1191C374.596 67.8356 375 68.8074 375 69.8207V96.9137C375 97.927 374.596 98.8988 373.877 99.6154C373.157 100.332 372.182 100.734 371.165 100.734H317.55C315.914 103.013 313.396 106.442 312.388 107.601Z" fill="#333333"/>
<path d="M372 84C372 90.0751 367.075 95 361 95C354.925 95 350 90.0751 350 84C350 77.9249 354.925 73 361 73C367.075 73 372 77.9249 372 84Z" fill="white"/>
<path fill-rule="evenodd" clip-rule="evenodd" d="M361 94.5C366.799 94.5 371.5 89.799 371.5 84C371.5 78.201 366.799 73.5 361 73.5C355.201 73.5 350.5 78.201 350.5 84C350.5 89.799 355.201 94.5 361 94.5ZM361 95C367.075 95 372 90.0751 372 84C372 77.9249 367.075 73 361 73C354.925 73 350 77.9249 350 84C350 90.0751 354.925 95 361 95Z" fill="#333333"/>
<path fill-rule="evenodd" clip-rule="evenodd" d="M362.212 87.5646C362.239 87.7047 362.226 87.8499 362.172 87.9821L361.378 89.9274C361.352 89.9917 361.32 90.0537 361.278 90.1092C361.255 90.1396 361.234 90.1661 361.213 90.1887C361.107 90.3024 360.911 90.3004 360.806 90.1868C360.767 90.145 360.725 90.0905 360.679 90.0241C360.18 89.3121 360.051 88.6628 359.648 88.0037C359.557 87.8545 359.5 87.6854 359.5 87.5106C359.5 86.9854 359.022 86.5908 358.52 86.7433C357.222 87.1372 355.858 87.8119 354.837 88.5034C354.394 88.8033 354.328 89.4151 354.697 89.8021C356.321 91.5059 358.551 92.5554 361.015 92.5554C363.46 92.5554 365.677 91.5175 367.299 89.8358C367.67 89.4507 367.605 88.8403 367.153 88.5551C366.044 87.8562 364.447 87.1681 363.053 86.7601C362.556 86.6146 362.111 87.0564 362.212 87.5646Z" fill="#9ADAF3"/>
<path fill-rule="evenodd" clip-rule="evenodd" d="M360.981 89.5761C360.82 89.3191 360.704 89.0654 360.586 88.7949C360.569 88.7566 360.553 88.7175 360.536 88.6779C360.411 88.3877 360.272 88.0655 360.075 87.7429C360.022 87.6559 360 87.576 360 87.5106C360 86.6892 359.235 86.0037 358.375 86.2649C357.026 86.6742 355.617 87.3715 354.557 88.0894C353.858 88.5625 353.753 89.5361 354.335 90.1471C356.047 91.9425 358.404 93.0554 361.015 93.0554C363.606 93.0554 365.95 91.9547 367.659 90.1828C368.243 89.5769 368.148 88.5919 367.419 88.1321C366.265 87.4042 364.624 86.6987 363.193 86.2803C362.301 86.0192 361.554 86.8216 361.721 87.6621C361.73 87.7061 361.726 87.7517 361.709 87.7933L360.981 89.5761ZM362.172 87.9821C362.226 87.8499 362.239 87.7047 362.212 87.5646C362.111 87.0564 362.556 86.6146 363.053 86.7601C364.447 87.1681 366.044 87.8562 367.153 88.5551C367.605 88.8403 367.67 89.4507 367.299 89.8358C365.677 91.5175 363.46 92.5554 361.015 92.5554C358.551 92.5554 356.321 91.5059 354.697 89.8021C354.328 89.4151 354.394 88.8032 354.837 88.5034C355.858 87.8118 357.222 87.1372 358.52 86.7433C359.022 86.5908 359.5 86.9854 359.5 87.5106C359.5 87.6854 359.557 87.8545 359.648 88.0037C359.826 88.2937 359.95 88.5819 360.076 88.8743C360.236 89.2464 360.399 89.6254 360.679 90.0241C360.725 90.0905 360.767 90.145 360.806 90.1868C360.911 90.3004 361.107 90.3024 361.213 90.1887C361.234 90.1661 361.255 90.1396 361.278 90.1092C361.32 90.0537 361.352 89.9917 361.378 89.9274L362.172 87.9821Z" fill="#333333"/>
<path fill-rule="evenodd" clip-rule="evenodd" d="M362.125 87.5755C362.187 87.4641 362.223 87.4016 362.223 87.2493V86.8517V85.4945V84.4072C361.815 84.7128 361.442 84.7128 361.001 84.7128C360.559 84.7128 360.144 84.6638 359.778 84.4072V86.8666V87.2493C359.778 87.4032 359.81 87.4624 359.873 87.5755C360.167 88.0974 360.501 88.5453 360.814 89.1107C360.889 89.2455 360.942 89.3107 361.001 89.2934C361.059 89.3107 361.112 89.2455 361.187 89.1107C361.501 88.5497 361.831 88.0974 362.125 87.5755Z" fill="white"/>
<path fill-rule="evenodd" clip-rule="evenodd" d="M362.56 87.821C362.411 88.0857 362.254 88.3322 362.102 88.5696C362.096 88.5789 362.091 88.5881 362.085 88.5973C361.926 88.8464 361.772 89.0885 361.623 89.3547C361.586 89.4219 361.527 89.5233 361.448 89.6058C361.377 89.6795 361.219 89.8053 361.001 89.7967C360.782 89.8053 360.624 89.6795 360.553 89.6058C360.474 89.5233 360.415 89.4213 360.378 89.3542C360.229 89.0872 360.075 88.8453 359.916 88.5971C359.908 88.5847 359.9 88.5723 359.892 88.5598C359.742 88.3263 359.585 88.083 359.437 87.821L359.436 87.8187C359.435 87.816 359.433 87.8132 359.432 87.8104C359.404 87.7602 359.358 87.6795 359.327 87.5838C359.29 87.4718 359.278 87.363 359.278 87.2493V83.4461L360.065 83.9978C360.302 84.1638 360.588 84.2128 361.001 84.2128C361.445 84.2128 361.661 84.2033 361.923 84.0072L362.723 83.4072V87.2493C362.723 87.3686 362.708 87.4793 362.67 87.5908C362.638 87.6817 362.594 87.7603 362.568 87.8074C362.566 87.8114 362.564 87.8151 362.562 87.8187L362.56 87.821ZM361.001 89.2934C360.942 89.3108 360.889 89.2455 360.814 89.1107C360.65 88.815 360.481 88.5515 360.314 88.2927C360.163 88.0566 360.013 87.8244 359.873 87.5755C359.81 87.4624 359.778 87.4032 359.778 87.2493V84.4072C359.936 84.5181 360.104 84.5902 360.278 84.6364C360.508 84.697 360.75 84.7128 361.001 84.7128C361.257 84.7128 361.492 84.7128 361.723 84.6524C361.888 84.6091 362.053 84.5348 362.223 84.4072V87.2493C362.223 87.3994 362.188 87.4623 362.127 87.5707L362.125 87.5755" fill="#333333"/>
<path d="M365.481 80.7405C365.481 83.2156 363.475 85.222 361 85.222C358.525 85.222 356.518 83.2156 356.518 80.7405C356.518 78.2655 358.525 76.259 361 76.259C363.475 76.259 365.481 78.2655 365.481 80.7405Z" fill="white"/>
<path fill-rule="evenodd" clip-rule="evenodd" d="M361 76.509C358.663 76.509 356.768 78.4035 356.768 80.7405C356.768 83.0775 358.663 84.972 361 84.972C363.337 84.972 365.231 83.0775 365.231 80.7405C365.231 78.4035 363.337 76.509 361 76.509ZM356.268 80.7405C356.268 78.1274 358.387 76.009 361 76.009C363.613 76.009 365.731 78.1274 365.731 80.7405C365.731 83.3536 363.613 85.472 361 85.472C358.387 85.472 356.268 83.3536 356.268 80.7405Z" fill="#333333"/>
<path fill-rule="evenodd" clip-rule="evenodd" d="M359.371 78.7035C358.515 80.126 358.149 80.7405 356.546 81.0825C356.25 78.5674 358.402 76.259 361.006 76.259C363.693 76.259 365.718 78.6106 365.46 81.1479C364.108 81.1316 360.438 80.7364 359.371 78.7035Z" fill="#AAAAAA"/>
<path fill-rule="evenodd" clip-rule="evenodd" d="M365.708 81.1733C365.982 78.4909 363.844 76.009 361.006 76.009C358.263 76.009 355.983 78.4378 356.298 81.1117L356.33 81.3843L356.598 81.327C357.428 81.1499 357.967 80.8954 358.409 80.4805C358.765 80.1469 359.048 79.7169 359.375 79.1809C360.022 80.0709 361.144 80.6035 362.239 80.922C363.486 81.2849 364.765 81.3895 365.457 81.3979L365.685 81.4007L365.708 81.1733ZM365.228 80.8918C364.535 80.8651 363.441 80.7511 362.379 80.4419C361.174 80.0914 360.076 79.5095 359.592 78.5872L359.386 78.1941L359.157 78.5745C358.722 79.2958 358.435 79.7705 358.067 80.1159C357.757 80.4071 357.378 80.6147 356.772 80.7725C356.679 78.5261 358.639 76.509 361.006 76.509C363.461 76.509 365.331 78.5894 365.228 80.8918Z" fill="#333333"/>
<path d="M310.582 78H347.418C347.74 78 348 77.6864 348 77.2997V76.7003C348 76.3136 347.74 76 347.418 76H310.582C310.26 76 310 76.3136 310 76.7003V77.2997C310 77.6864 310.26 78 310.582 78Z" fill="#CDCDCD"/>
<path d="M339.583 82H347.417C347.739 82 348 81.6865 348 81.2997V80.7003C348 80.3135 347.739 80 347.417 80H339.583C339.261 80 339 80.3135 339 80.7003V81.2997C339 81.6865 339.261 82 339.583 82Z" fill="#CDCDCD"/>
<path d="M310.59 82H335.41C335.736 82 336 81.6865 336 81.2997V80.7003C336 80.3135 335.736 80 335.41 80H310.59C310.264 80 310 80.3135 310 80.7003V81.2997C310 81.6865 310.264 82 310.59 82Z" fill="#CDCDCD"/>
<path d="M328.593 87H347.407C347.735 87 348 86.6864 348 86.2997V85.7003C348 85.3136 347.735 85 347.407 85H328.593C328.265 85 328 85.3136 328 85.7003V86.2997C328 86.6864 328.265 87 328.593 87Z" fill="#CDCDCD"/>
<path d="M310.563 87H324.437C324.748 87 325 86.6864 325 86.2997V85.7003C325 85.3136 324.748 85 324.437 85H310.563C310.252 85 310 85.3136 310 85.7003V86.2997C310 86.6864 310.252 87 310.563 87Z" fill="#CDCDCD"/>
<path d="M310.582 91H347.418C347.74 91 348 90.6865 348 90.2997V89.7003C348 89.3135 347.74 89 347.418 89H310.582C310.26 89 310 89.3135 310 89.7003V90.2997C310 90.6865 310.26 91 310.582 91Z" fill="#CDCDCD"/>
<rect x="205" y="102" width="28" height="3" fill="#FFC5B1"/>
<rect x="151" y="103" width="13" height="0.568123" rx="0.284061" fill="#EBECEC"/>
<rect x="206" y="103.2" width="21.5896" height="0.568123" rx="0.284061" fill="white"/>
<rect x="288" y="110" width="23.294" height="0.56813" rx="0.284065" fill="#EBECEC"/>
<rect x="288" y="107" width="21" height="0.56813" rx="0.284065" fill="#EBECEC"/>
<rect x="288" y="104" width="18" height="0.56813" rx="0.284065" fill="#EBECEC"/>
<rect x="206" y="106" width="14" height="0.568123" rx="0.284061" fill="#EBECEC"/>
<rect x="288" y="113" width="35.2251" height="0.56813" rx="0.284065" fill="#EBECEC"/>
<rect x="206" y="112" width="30" height="0.56813" rx="0.284065" fill="#EBECEC"/>
<rect x="288" y="119" width="34.657" height="0.56813" rx="0.284065" fill="#EBECEC"/>
<rect x="288" y="125" width="32.9525" height="0.56813" rx="0.284065" fill="#EBECEC"/>
<rect x="168" y="127" width="33" height="0.56813" rx="0.284065" fill="#EBECEC"/>
<rect x="288" y="131" width="35.2251" height="0.56813" rx="0.284065" fill="#EBECEC"/>
<rect x="288" y="134" width="35.2251" height="0.56813" rx="0.284065" fill="#EBECEC"/>
<rect x="168" y="130" width="15" height="0.56813" rx="0.284065" fill="#EBECEC"/>
<rect x="288" y="128" width="35.2251" height="0.56813" rx="0.284065" fill="#EBECEC"/>
<rect x="206" y="109" width="27.8392" height="0.56813" rx="0.284065" fill="#EBECEC"/>
<rect x="288" y="116" width="29.5437" height="0.56813" rx="0.284065" fill="#EBECEC"/>
<rect x="151" y="106" width="13" height="0.568123" rx="0.284061" fill="#EBECEC"/>
<rect x="127" y="121" width="26.7029" height="0.56813" rx="0.284065" fill="#EBECEC"/>
<rect x="126" y="135" width="33" height="3" fill="#E3EEC4"/>
<rect x="127" y="124" width="29" height="0.568123" rx="0.284061" fill="#EBECEC"/>
<rect x="127" y="127" width="32" height="0.56813" rx="0.284065" fill="#EBECEC"/>
<rect x="127" y="133" width="32" height="0.56813" rx="0.284065" fill="#EBECEC"/>
<rect x="168" y="133" width="26" height="0.56813" rx="0.284065" fill="#EBECEC"/>
<rect x="127" y="139" width="32" height="0.56813" rx="0.284065" fill="#EBECEC"/>
<rect x="168" y="139" width="27" height="0.56813" rx="0.284065" fill="#EBECEC"/>
<rect x="127" y="130" width="14" height="0.56813" rx="0.284065" fill="#EBECEC"/>
<rect x="145" y="130" width="14" height="0.56813" rx="0.284065" fill="#EBECEC"/>
<rect x="127" y="136.4" width="17" height="0.56813" rx="0.284065" fill="white"/>
<rect x="168" y="136" width="17" height="0.56813" rx="0.284065" fill="#EBECEC"/>
<rect x="187" y="136" width="14" height="0.56813" rx="0.284065" fill="#EBECEC"/>
<rect x="127" y="142" width="30" height="0.56813" rx="0.284065" fill="#EBECEC"/>
<rect x="168" y="142" width="30" height="0.56813" rx="0.284065" fill="#EBECEC"/>
<rect x="151" y="109" width="13" height="0.56813" rx="0.284065" fill="#EBECEC"/>
<rect x="151" y="112" width="11" height="0.56813" rx="0.284065" fill="#EBECEC"/>
<circle cx="263" cy="59" r="19" fill="white"/>
<path d="M244.282 58.7183C244.282 62.4204 245.38 66.0394 247.436 69.1176C249.493 72.1958 252.417 74.5949 255.837 76.0117C259.257 77.4284 263.021 77.7991 266.652 77.0769C270.283 76.3546 273.618 74.5719 276.236 71.9541C278.854 69.3363 280.636 66.001 281.359 62.37C282.081 58.739 281.71 54.9754 280.293 51.5551C278.877 48.1348 276.478 45.2114 273.399 43.1546C270.321 41.0978 266.702 40 263 40C258.036 40 253.275 41.9721 249.764 45.4825C246.254 48.9928 244.282 53.7539 244.282 58.7183ZM278.8 58.7183C278.8 61.8387 277.874 64.889 276.141 67.4835C274.407 70.078 271.943 72.1002 269.06 73.2943C266.177 74.4884 263.005 74.8009 259.945 74.1921C256.884 73.5833 254.073 72.0807 251.867 69.8743C249.66 67.6678 248.157 64.8566 247.549 61.7962C246.94 58.7358 247.252 55.5635 248.447 52.6807C249.641 49.7978 251.663 47.3338 254.257 45.6002C256.852 43.8666 259.902 42.9413 263.023 42.9413C267.204 42.9517 271.211 44.6173 274.167 47.5738C277.124 50.5303 278.789 54.5371 278.8 58.7183Z" fill="#D9F4FF"/>
<path d="M263 77.9805C259.242 77.9805 255.569 76.8661 252.444 74.7784C249.32 72.6907 246.884 69.7233 245.446 66.2515C244.008 62.7797 243.632 58.9594 244.365 55.2738C245.098 51.5881 246.908 48.2026 249.565 45.5454C252.222 42.8883 255.608 41.0787 259.293 40.3456C262.979 39.6124 266.799 39.9887 270.271 41.4268C273.743 42.8648 276.71 45.3001 278.798 48.4246C280.886 51.5492 282 55.2226 282 58.9805C281.994 64.0178 279.99 68.847 276.428 72.4089C272.867 75.9708 268.037 77.9745 263 77.9805ZM263 40.5439C259.354 40.5439 255.789 41.6252 252.757 43.6511C249.725 45.6769 247.362 48.5563 245.967 51.9251C244.571 55.294 244.206 59.0009 244.918 62.5773C245.629 66.1536 247.385 69.4387 249.963 72.0171C252.542 74.5955 255.827 76.3514 259.403 77.0628C262.98 77.7741 266.687 77.409 270.055 76.0136C273.424 74.6182 276.304 72.2551 278.329 69.2233C280.355 66.1914 281.437 62.6269 281.437 58.9805C281.431 54.0926 279.486 49.4067 276.03 45.9505C272.574 42.4942 267.888 40.5499 263 40.5439ZM263 75.0617C259.819 75.0617 256.71 74.1186 254.066 72.3516C251.421 70.5845 249.36 68.073 248.143 65.1345C246.926 62.196 246.607 58.9626 247.228 55.8432C247.848 52.7237 249.38 49.8583 251.629 47.6093C253.878 45.3603 256.743 43.8287 259.863 43.2082C262.982 42.5877 266.216 42.9062 269.154 44.1233C272.092 45.3405 274.604 47.4017 276.371 50.0462C278.138 52.6908 279.081 55.7999 279.081 58.9805C279.077 63.2441 277.381 67.3318 274.366 70.3467C271.351 73.3615 267.264 75.0573 263 75.0617ZM263 43.4627C259.931 43.4627 256.931 44.3728 254.379 46.0779C251.827 47.783 249.838 50.2066 248.663 53.0421C247.489 55.8776 247.182 58.9977 247.78 62.0078C248.379 65.018 249.857 67.783 252.027 69.9532C254.197 72.1234 256.962 73.6013 259.973 74.2001C262.983 74.7989 266.103 74.4916 268.938 73.317C271.774 72.1425 274.197 70.1536 275.903 67.6017C277.608 65.0498 278.518 62.0496 278.518 58.9805C278.513 54.8663 276.877 50.9219 273.968 48.0127C271.059 45.1035 267.114 43.4672 263 43.4627Z" fill="#333333"/>
<path d="M262.115 46C261.819 46 261.536 46.1271 261.327 46.3533C261.117 46.5796 261 46.8864 261 47.2063V58.081C260.999 58.3946 261.109 58.6966 261.309 58.9243L269.066 67.6322C269.272 67.8622 269.554 67.9943 269.85 67.9998C270.147 68.0053 270.433 67.8837 270.646 67.6615C270.756 67.5531 270.844 67.4213 270.905 67.2744C270.966 67.1274 270.998 66.9685 271 66.8074C271.001 66.6464 270.972 66.4868 270.914 66.3385C270.856 66.1902 270.77 66.0565 270.662 65.9457L263.23 57.595V47.2063C263.23 46.8864 263.113 46.5796 262.904 46.3533C262.694 46.1271 262.411 46 262.115 46Z" fill="#333333"/>
<rect x="168.25" y="102.25" width="32.5" height="21.5" rx="0.75" stroke="#EBECEC" stroke-width="0.5"/>
<circle cx="179" cy="113" r="8" fill="#FFC5B1"/>
<path d="M187 113C187 111.333 186.48 109.709 185.511 108.352C184.543 106.996 183.175 105.976 181.599 105.434C180.023 104.893 178.317 104.857 176.72 105.332C175.123 105.807 173.713 106.769 172.689 108.083C171.665 109.398 171.077 111 171.007 112.665C170.937 114.33 171.389 115.975 172.3 117.371C173.21 118.767 174.534 119.843 176.086 120.45C177.638 121.057 179.341 121.165 180.957 120.757L179 113H187Z" fill="#E3EEC4"/>
<path d="M187 113C187 111.214 186.402 109.479 185.302 108.072C184.201 106.665 182.662 105.666 180.928 105.236C179.194 104.805 177.366 104.967 175.736 105.696C174.105 106.425 172.765 107.679 171.929 109.258L179 113H187Z" fill="#D9F4FF"/>
<rect x="190" y="111" width="8" height="0.57" rx="0.285" fill="#D9F4FF"/>
<rect x="190" y="113" width="8" height="0.57" rx="0.285" fill="#E3EEC4"/>
<rect x="190" y="115" width="8" height="0.57" rx="0.285" fill="#FFC5B1"/>
<path d="M208.5 129L216 126.5L224 122L230.5 126.5L234 122.5" stroke="#D9F4FF" stroke-width="0.5"/>
<path d="M208.652 133.802C208.543 133.718 208.386 133.738 208.302 133.848C208.218 133.957 208.238 134.114 208.348 134.198L208.652 133.802ZM215 139L214.848 139.198L215.026 139.336L215.181 139.172L215 139ZM224 129.5L224.177 129.323L223.995 129.142L223.819 129.328L224 129.5ZM228.5 134L228.323 134.177L228.545 134.399L228.712 134.132L228.5 134ZM208.348 134.198L214.848 139.198L215.152 138.802L208.652 133.802L208.348 134.198ZM215.181 139.172L224.181 129.672L223.819 129.328L214.819 138.828L215.181 139.172ZM223.823 129.677L228.323 134.177L228.677 133.823L224.177 129.323L223.823 129.677ZM228.712 134.132L233.712 126.132L233.288 125.868L228.288 133.868L228.712 134.132Z" fill="#E3EEC4"/>
<path d="M208.5 140.5L217 130L219.5 132.5L224.5 125.5L226.5 127.5L232.5 121" stroke="#FFC5B1" stroke-width="0.5"/>
<rect x="206.25" y="116.25" width="30.5" height="26.5" rx="0.75" stroke="#EBECEC" stroke-width="0.5"/>
<line x1="208.25" y1="120" x2="208.25" y2="141" stroke="#EBECEC" stroke-width="0.5"/>
<line x1="208" y1="140.75" x2="235" y2="140.75" stroke="#EBECEC" stroke-width="0.5"/>
<rect x="244.25" y="103.25" width="38.5" height="31.5" rx="0.75" stroke="#EBECEC" stroke-width="0.5"/>
<path d="M249.5 109.5V115M253.5 129H249.5V122M252 115H249.5M249.5 115V122M252.5 122H249.5" stroke="#B2B2B2" stroke-width="0.5"/>
<rect x="252" y="127" width="28" height="4" rx="2" fill="#D9F4FF"/>
<rect x="255" y="128.5" width="20" height="1" rx="0.5" fill="white"/>
<rect x="247" y="106" width="33" height="4" rx="2" fill="#EBECEC"/>
<rect x="252" y="113" width="28" height="4" rx="2" fill="#E3EEC4"/>
<rect x="252" y="120" width="28" height="4" rx="2" fill="#FFC5B1"/>
<rect x="250" y="107.5" width="27" height="1" rx="0.5" fill="white"/>
<rect x="255" y="114.5" width="22" height="1" rx="0.5" fill="white"/>
<rect x="255" y="121.5" width="16" height="1" rx="0.5" fill="white"/>
<rect x="81.25" y="42.25" width="62.0455" height="85.5" rx="0.75" fill="white" stroke="#333333" stroke-width="0.5"/>
<path d="M88.818 62.0689C88.8313 61.9188 88.9002 61.7803 89.0099 61.6833C89.1196 61.5864 89.2611 61.5389 89.4038 61.5512H137.118C137.188 61.5403 137.26 61.5455 137.327 61.5663C137.395 61.5871 137.458 61.623 137.511 61.6716C137.565 61.7202 137.608 61.7803 137.637 61.848C137.666 61.9156 137.682 61.9891 137.682 62.0634C137.682 62.1378 137.666 62.2113 137.637 62.2789C137.608 62.3465 137.565 62.4067 137.511 62.4553C137.458 62.5039 137.395 62.5398 137.327 62.5606C137.26 62.5814 137.188 62.5865 137.118 62.5757H89.3934C89.254 62.5851 89.1166 62.5378 89.0095 62.4435C88.9024 62.3491 88.8338 62.215 88.818 62.0689Z" fill="#D9F4FF"/>
<path d="M88.818 65.9669C88.8234 65.8285 88.88 65.698 88.9757 65.6032C89.0713 65.5085 89.1983 65.4571 89.3294 65.4601H115.62C115.689 65.4493 115.761 65.4544 115.828 65.4752C115.896 65.496 115.958 65.5319 116.012 65.5805C116.065 65.6291 116.108 65.6893 116.137 65.7569C116.166 65.8245 116.182 65.898 116.182 65.9724C116.182 66.0467 116.166 66.1202 116.137 66.1879C116.108 66.2555 116.065 66.3156 116.012 66.3642C115.958 66.4128 115.896 66.4488 115.828 66.4695C115.761 66.4903 115.689 66.4955 115.62 66.4847H89.3294C89.2636 66.4861 89.1982 66.4739 89.1369 66.4487C89.0756 66.4234 89.0196 66.3857 88.9721 66.3376C88.9246 66.2895 88.8865 66.232 88.8601 66.1684C88.8337 66.1048 88.8193 66.0363 88.818 65.9669Z" fill="#D9F4FF"/>
<path d="M88.8182 58.1593C88.8315 58.0082 88.9004 57.8689 89.01 57.7713C89.1196 57.6738 89.2611 57.6261 89.4037 57.6384H137.096C137.239 57.6261 137.38 57.6738 137.49 57.7713C137.6 57.8689 137.669 58.0082 137.682 58.1593C137.675 58.2336 137.655 58.3059 137.622 58.3719C137.589 58.4378 137.544 58.4962 137.489 58.5436C137.435 58.591 137.372 58.6265 137.305 58.648C137.237 58.6696 137.166 58.6767 137.096 58.6691H89.3933C89.2534 58.6814 89.1146 58.6348 89.0069 58.5394C88.8993 58.4439 88.8315 58.3074 88.8182 58.1593Z" fill="#CCCCCC"/>
<path d="M88.818 103.109C88.8313 102.962 88.9005 102.826 89.0105 102.731C89.1206 102.636 89.2626 102.59 89.4057 102.602H137.076C137.149 102.586 137.225 102.588 137.297 102.606C137.37 102.624 137.438 102.659 137.496 102.707C137.554 102.756 137.601 102.817 137.633 102.887C137.665 102.956 137.682 103.032 137.682 103.109C137.682 103.186 137.665 103.262 137.633 103.331C137.601 103.401 137.554 103.462 137.496 103.51C137.438 103.559 137.37 103.594 137.297 103.612C137.225 103.63 137.149 103.631 137.076 103.616H89.3952C89.2538 103.625 89.1145 103.577 89.0068 103.482C88.899 103.388 88.8313 103.254 88.818 103.109Z" fill="#D9F4FF"/>
<path d="M88.818 107.016C88.818 106.731 89.1918 106.5 89.6488 106.5H132.496C132.963 106.5 133.337 106.731 133.337 107.016C133.337 107.302 132.963 107.533 132.496 107.533H89.6488C89.1918 107.566 88.818 107.302 88.818 107.016Z" fill="#CCCCCC"/>
<path d="M88.818 99.2052C88.8313 99.055 88.9006 98.9165 89.0107 98.8196C89.1208 98.7226 89.2629 98.6751 89.4062 98.6874H137.116C137.186 98.6766 137.258 98.6817 137.326 98.7025C137.394 98.7233 137.457 98.7592 137.511 98.8078C137.564 98.8564 137.607 98.9166 137.637 98.9842C137.666 99.0518 137.682 99.1253 137.682 99.1997C137.682 99.274 137.666 99.3475 137.637 99.4151C137.607 99.4828 137.564 99.5429 137.511 99.5915C137.457 99.6401 137.394 99.6761 137.326 99.6968C137.258 99.7176 137.186 99.7228 137.116 99.712H89.3957C89.2558 99.7214 89.1178 99.674 89.0103 99.5797C88.9027 99.4854 88.8339 99.3513 88.818 99.2052Z" fill="#FFC5B1"/>
<rect x="89.0682" y="71.5681" width="48.3636" height="22.9545" rx="0.75" stroke="#E2E2E2" stroke-width="0.5"/>
<circle cx="102.5" cy="83.0455" r="7.81818" fill="#D9F4FF"/>
<path d="M110.318 83.0455C110.318 81.5647 109.898 80.1144 109.106 78.8634C108.314 77.6123 107.182 76.6119 105.844 75.9785C104.506 75.3452 103.015 75.105 101.545 75.2858C100.075 75.4667 98.6874 76.0612 97.5424 77.0001C96.3974 77.9391 95.5427 79.1839 95.0775 80.5897C94.6124 81.9955 94.5561 83.5044 94.9151 84.941C95.2741 86.3776 96.0337 87.6826 97.1054 88.7043C98.1772 89.726 99.5171 90.4224 100.969 90.7123L102.5 83.0455H110.318Z" fill="#E3EEC4"/>
<path d="M110.318 83.0455C110.318 81.2463 109.698 79.5021 108.561 78.1072C107.425 76.7123 105.842 75.7521 104.08 75.3886C102.318 75.025 100.484 75.2803 98.8884 76.1115C97.2926 76.9426 96.0324 78.2988 95.3203 79.951L102.5 83.0455H110.318Z" fill="#FFC5B1"/>
<rect x="116.182" y="79.1365" width="15.6364" height="1.03591" rx="0.517955" fill="#FFC5B1"/>
<rect x="116.182" y="83.0457" width="15.6364" height="1.03591" rx="0.517955" fill="#E3EEC4"/>
<rect x="116.182" y="86.9546" width="15.6364" height="1.03591" rx="0.517955" fill="#D9F4FF"/>
<path d="M92.0604 39H69.1318C67.7708 39 66.4655 39.5597 65.5031 40.556C64.5407 41.5523 64 42.9035 64 44.3124V51.5991C64 53.008 64.5407 54.3593 65.5031 55.3556C66.4655 56.3518 67.7708 56.9115 69.1318 56.9115H85.7149L91.1848 62.5739V56.9115H92.0517C93.412 56.9103 94.7162 56.3501 95.6777 55.354C96.6391 54.3578 97.1792 53.0073 97.1792 51.5991V44.3124C97.1792 42.9058 96.6403 41.5566 95.6807 40.5607C94.7211 39.5648 93.4192 39.0036 92.0604 39Z" fill="#9ADAF3"/>
<path fill-rule="evenodd" clip-rule="evenodd" d="M85.878 56.5273L90.8006 61.6232V56.5273H92.0514C93.3055 56.5262 94.5106 56.0099 95.4012 55.0872C96.2922 54.164 96.795 52.9096 96.795 51.5991V44.3124C96.795 43.0034 96.2934 41.7502 95.4041 40.8273C94.5153 39.9049 93.3124 39.3876 92.0599 39.3842H69.1318C67.8771 39.3842 66.6709 39.9001 65.7794 40.8229C64.8875 41.7462 64.3842 43.0012 64.3842 44.3124V51.5991C64.3842 52.9103 64.8875 54.1653 65.7794 55.0886C66.6709 56.0114 67.8771 56.5273 69.1318 56.5273H85.878ZM92.0604 39H69.1318C67.7708 39 66.4655 39.5597 65.5031 40.556C64.5407 41.5523 64 42.9035 64 44.3124V51.5991C64 53.008 64.5407 54.3593 65.5031 55.3556C66.4655 56.3518 67.7708 56.9115 69.1318 56.9115H85.7149L91.1848 62.5739V56.9115H92.0517C93.412 56.9103 94.7162 56.3501 95.6777 55.354C96.6391 54.3578 97.1792 53.0073 97.1792 51.5991V44.3124C97.1792 42.9058 96.6403 41.5566 95.6807 40.5607C94.7211 39.5648 93.4192 39.0036 92.0604 39Z" fill="#333333"/>
<path d="M72.8805 50.1767C73.7244 50.1767 74.4085 49.4927 74.4085 48.6488C74.4085 47.8049 73.7244 47.1208 72.8805 47.1208C72.0366 47.1208 71.3525 47.8049 71.3525 48.6488C71.3525 49.4927 72.0366 50.1767 72.8805 50.1767Z" fill="white"/>
<path d="M72.8846 50.6131C72.4959 50.6139 72.1156 50.4995 71.792 50.2841C71.4683 50.0688 71.2158 49.7623 71.0665 49.4034C70.9171 49.0445 70.8776 48.6494 70.9529 48.268C71.0282 47.8867 71.2149 47.5362 71.4895 47.261C71.7641 46.9858 72.1141 46.7983 72.4953 46.7222C72.8765 46.646 73.2718 46.6846 73.631 46.8332C73.9902 46.9818 74.2973 47.2335 74.5134 47.5567C74.7294 47.8799 74.8448 48.2598 74.8448 48.6486C74.8448 49.1688 74.6384 49.6678 74.2709 50.0361C73.9034 50.4044 73.4049 50.6119 72.8846 50.6131ZM72.8846 47.129C72.5828 47.1281 72.2875 47.2168 72.0362 47.384C71.7849 47.5511 71.5889 47.7891 71.473 48.0677C71.3571 48.3464 71.3265 48.6532 71.3852 48.9492C71.4439 49.2453 71.5891 49.5172 71.8025 49.7306C72.0159 49.944 72.2879 50.0893 72.584 50.1479C72.88 50.2066 73.1868 50.176 73.4655 50.0601C73.7441 49.9442 73.9821 49.7482 74.1493 49.4969C74.3164 49.2456 74.4052 48.9504 74.4043 48.6486C74.4031 48.2459 74.2426 47.8601 73.9579 47.5753C73.6732 47.2906 73.2873 47.1301 72.8846 47.129Z" fill="#333333"/>
<path d="M80.5646 50.1767C81.4084 50.1767 82.0925 49.4927 82.0925 48.6488C82.0925 47.8049 81.4084 47.1208 80.5646 47.1208C79.7207 47.1208 79.0366 47.8049 79.0366 48.6488C79.0366 49.4927 79.7207 50.1767 80.5646 50.1767Z" fill="white"/>
<path d="M80.5467 50.613C80.1589 50.6095 79.7808 50.4914 79.4601 50.2734C79.1393 50.0554 78.8903 49.7474 78.7443 49.3881C78.5983 49.0289 78.5619 48.6345 78.6397 48.2546C78.7174 47.8747 78.9059 47.5263 79.1814 47.2533C79.4568 46.9803 79.8069 46.7949 80.1875 46.7206C80.5681 46.6462 80.9622 46.6861 81.3201 46.8353C81.6781 46.9845 81.9838 47.2363 82.1989 47.5589C82.414 47.8816 82.5288 48.2607 82.5288 48.6485C82.5289 48.908 82.4775 49.1649 82.3776 49.4044C82.2778 49.6439 82.1315 49.8612 81.9472 50.0439C81.7629 50.2265 81.5443 50.3709 81.3039 50.4685C81.0635 50.5662 80.8061 50.6153 80.5467 50.613ZM80.5467 47.1289C80.2458 47.1324 79.9527 47.2248 79.7043 47.3946C79.4559 47.5643 79.2634 47.8038 79.1508 48.0828C79.0383 48.3618 79.0109 48.6679 79.072 48.9625C79.1332 49.2571 79.2801 49.527 79.4944 49.7382C79.7087 49.9494 79.9807 50.0924 80.2761 50.1493C80.5715 50.2062 80.8772 50.1744 81.1546 50.0579C81.432 49.9414 81.6687 49.7453 81.8348 49.4945C82.001 49.2437 82.0892 48.9494 82.0884 48.6485C82.0872 48.4474 82.0464 48.2485 81.9682 48.0632C81.8901 47.878 81.7761 47.7099 81.6329 47.5687C81.4897 47.4276 81.32 47.3161 81.1336 47.2406C80.9472 47.1651 80.7478 47.1271 80.5467 47.1289Z" fill="#333333"/>
<path d="M88.2486 50.1767C89.0925 50.1767 89.7766 49.4927 89.7766 48.6488C89.7766 47.8049 89.0925 47.1208 88.2486 47.1208C87.4047 47.1208 86.7206 47.8049 86.7206 48.6488C86.7206 49.4927 87.4047 50.1767 88.2486 50.1767Z" fill="white"/>
<path d="M88.2484 50.6131C87.8598 50.6131 87.48 50.4979 87.1569 50.282C86.8339 50.0661 86.582 49.7593 86.4334 49.4004C86.2847 49.0414 86.2458 48.6464 86.3216 48.2653C86.3974 47.8842 86.5845 47.5342 86.8592 47.2595C87.134 46.9847 87.484 46.7976 87.8651 46.7218C88.2462 46.646 88.6412 46.6849 89.0002 46.8336C89.3591 46.9823 89.666 47.2341 89.8818 47.5572C90.0977 47.8802 90.2129 48.26 90.2129 48.6486C90.2129 49.1696 90.0059 49.6693 89.6375 50.0377C89.2691 50.4061 88.7694 50.6131 88.2484 50.6131ZM88.2484 47.129C87.9468 47.129 87.6519 47.2185 87.4012 47.3861C87.1505 47.5538 86.9551 47.792 86.8399 48.0708C86.7247 48.3495 86.6947 48.6562 86.7539 48.9519C86.8131 49.2477 86.9587 49.5192 87.1723 49.7322C87.3858 49.9452 87.6578 50.09 87.9537 50.1483C88.2497 50.2066 88.5563 50.1758 88.8347 50.0597C89.1131 49.9437 89.3508 49.7477 89.5177 49.4965C89.6847 49.2453 89.7733 48.9502 89.7724 48.6486C89.7713 48.2451 89.6102 47.8586 89.3245 47.5738C89.0388 47.2889 88.6518 47.129 88.2484 47.129Z" fill="#333333"/>
<path d="M144.102 86H134.975C133.655 86 132.39 86.5603 131.457 87.5576C130.524 88.5549 130 89.9075 130 91.3179C130.001 92.444 130.335 93.5408 130.956 94.4506C131.577 95.3604 132.452 96.0363 133.455 96.3809V100L136.602 96.6357H144.116C145.435 96.6357 146.701 96.0755 147.634 95.0782C148.567 94.0809 149.091 92.7283 149.091 91.3179C149.091 90.6183 148.962 89.9256 148.711 89.2794C148.46 88.6332 148.092 88.0464 147.629 87.5523C147.166 87.0583 146.615 86.6669 146.01 86.4006C145.405 86.1342 144.757 85.9981 144.102 86Z" fill="#FF6F3D"/>
<path d="M133.417 100V96.5117C132.283 96.0974 131.324 95.2651 130.711 94.1636C130.098 93.062 129.871 91.7632 130.071 90.4992C130.271 89.2353 130.885 88.0887 131.802 87.2644C132.72 86.4401 133.882 85.992 135.08 86.0001H144.042C145.381 86.0001 146.665 86.5691 147.612 87.582C148.559 88.5948 149.091 89.9685 149.091 91.4009C149.091 92.8333 148.559 94.207 147.612 95.2199C146.665 96.2327 145.381 96.8017 144.042 96.8017H136.744L133.417 100ZM135.091 86.3735C133.968 86.3738 132.883 86.8028 132.03 87.5832C131.177 88.3636 130.613 89.4442 130.439 90.6302C130.265 91.8163 130.493 93.0299 131.081 94.0523C131.669 95.0748 132.579 95.839 133.647 96.2073L133.766 96.2471V99.1409L136.612 96.4646H144.066C145.315 96.4646 146.513 95.9338 147.396 94.9889C148.28 94.0441 148.776 92.7625 148.776 91.4263C148.776 90.09 148.28 88.8085 147.396 87.8636C146.513 86.9188 145.315 86.388 144.066 86.388L135.091 86.3735Z" fill="#333333"/>
<path d="M143.176 92.6238C143.775 92.6238 144.26 92.1382 144.26 91.5392C144.26 90.9402 143.775 90.4546 143.176 90.4546C142.576 90.4546 142.091 90.9402 142.091 91.5392C142.091 92.1382 142.576 92.6238 143.176 92.6238Z" fill="white"/>
<path d="M143.176 92.6238C142.961 92.6238 142.751 92.5602 142.573 92.441C142.395 92.3218 142.256 92.1524 142.173 91.9543C142.091 91.7561 142.07 91.538 142.112 91.3276C142.154 91.1172 142.257 90.9239 142.409 90.7723C142.56 90.6206 142.754 90.5173 142.964 90.4754C143.174 90.4336 143.392 90.4551 143.591 90.5372C143.789 90.6192 143.958 90.7583 144.077 90.9366C144.197 91.115 144.26 91.3247 144.26 91.5392C144.26 91.8269 144.146 92.1027 143.942 92.3061C143.739 92.5095 143.463 92.6238 143.176 92.6238ZM143.176 90.7893C143.027 90.7893 142.882 90.8333 142.759 90.9157C142.636 90.9981 142.539 91.1152 142.483 91.2522C142.426 91.3893 142.411 91.54 142.44 91.6855C142.469 91.8309 142.54 91.9646 142.645 92.0694C142.75 92.1743 142.884 92.2457 143.029 92.2746C143.175 92.3036 143.325 92.2887 143.462 92.232C143.6 92.1752 143.717 92.0791 143.799 91.9558C143.881 91.8325 143.925 91.6875 143.925 91.5392C143.925 91.3403 143.846 91.1496 143.706 91.009C143.565 90.8683 143.374 90.7893 143.176 90.7893Z" fill="#333333"/>
<path d="M139.357 92.6238C139.956 92.6238 140.442 92.1382 140.442 91.5392C140.442 90.9402 139.956 90.4546 139.357 90.4546C138.758 90.4546 138.273 90.9402 138.273 91.5392C138.273 92.1382 138.758 92.6238 139.357 92.6238Z" fill="white"/>
<path d="M139.357 92.6238C139.143 92.6238 138.933 92.5602 138.755 92.441C138.576 92.3218 138.437 92.1524 138.355 91.9543C138.273 91.7561 138.252 91.538 138.294 91.3276C138.335 91.1172 138.439 90.9239 138.59 90.7723C138.742 90.6206 138.935 90.5173 139.146 90.4754C139.356 90.4336 139.574 90.4551 139.772 90.5372C139.971 90.6192 140.14 90.7583 140.259 90.9366C140.378 91.115 140.442 91.3247 140.442 91.5392C140.441 91.8266 140.327 92.1019 140.123 92.3052C139.92 92.5084 139.645 92.6229 139.357 92.6238ZM139.357 90.7893C139.209 90.7893 139.064 90.8333 138.941 90.9157C138.817 90.9981 138.721 91.1152 138.665 91.2522C138.608 91.3893 138.593 91.54 138.622 91.6855C138.651 91.8309 138.722 91.9646 138.827 92.0694C138.932 92.1743 139.066 92.2457 139.211 92.2746C139.357 92.3036 139.507 92.2887 139.644 92.232C139.781 92.1752 139.898 92.0791 139.981 91.9558C140.063 91.8325 140.107 91.6875 140.107 91.5392C140.107 91.3403 140.028 91.1496 139.888 91.009C139.747 90.8683 139.556 90.7893 139.357 90.7893Z" fill="#333333"/>
<path d="M135.539 92.6238C136.138 92.6238 136.624 92.1382 136.624 91.5392C136.624 90.9402 136.138 90.4546 135.539 90.4546C134.94 90.4546 134.455 90.9402 134.455 91.5392C134.455 92.1382 134.94 92.6238 135.539 92.6238Z" fill="white"/>
<path d="M135.536 92.6238C135.321 92.6231 135.112 92.559 134.934 92.4394C134.756 92.3198 134.618 92.1502 134.536 91.9519C134.455 91.7537 134.434 91.5357 134.476 91.3256C134.518 91.1154 134.622 90.9224 134.773 90.7711C134.925 90.6197 135.118 90.5168 135.329 90.4752C135.539 90.4336 135.757 90.4553 135.955 90.5375C136.153 90.6197 136.322 90.7587 136.441 90.937C136.56 91.1153 136.624 91.3248 136.624 91.5392C136.624 91.6819 136.596 91.8232 136.541 91.955C136.486 92.0868 136.406 92.2066 136.305 92.3073C136.204 92.4081 136.084 92.4879 135.952 92.5422C135.82 92.5965 135.679 92.6242 135.536 92.6238ZM135.536 90.7893C135.388 90.79 135.243 90.8345 135.12 90.9173C134.997 91.0001 134.902 91.1175 134.845 91.2545C134.789 91.3916 134.775 91.5423 134.804 91.6875C134.833 91.8328 134.905 91.9661 135.01 92.0706C135.115 92.1751 135.249 92.2462 135.394 92.2749C135.539 92.3035 135.69 92.2885 135.827 92.2316C135.964 92.1748 136.081 92.0787 136.163 91.9554C136.245 91.8322 136.289 91.6874 136.289 91.5392C136.289 91.4404 136.27 91.3427 136.232 91.2515C136.194 91.1603 136.138 91.0775 136.068 91.0078C135.998 90.9381 135.915 90.8829 135.824 90.8455C135.732 90.808 135.635 90.7889 135.536 90.7893Z" fill="#333333"/>
</g>
<defs>
<clipPath id="clip0_2601_128335">
<rect width="375" height="123" fill="white" transform="translate(1 35)"/>
</clipPath>
</defs>
</svg>
