<svg width="377" height="193" viewBox="0 0 377 193" fill="none" xmlns="http://www.w3.org/2000/svg">
    <symbol id="connect1-dark" viewBox="0 0 377 193">
<rect width="377" height="193" fill="#333333"/>
<g clip-path="url(#clip0)">
<path d="M119.507 61.4096C119.507 60.0425 120.049 58.7314 121.013 57.7647C121.977 56.798 123.285 56.2549 124.648 56.2549H260.674C262.037 56.2549 263.345 56.798 264.309 57.7647C265.273 58.7314 265.815 60.0425 265.815 61.4096V152.54H119.507V61.4096Z" fill="#555555"/>
<path d="M267.111 152.539H118.217V61.329C118.22 60.4858 118.39 59.6517 118.715 58.8741C119.04 58.0966 119.515 57.3909 120.112 56.7974C120.709 56.2038 121.417 55.734 122.196 55.4149C122.974 55.0957 123.807 54.9333 124.648 54.9371H260.674C261.515 54.9326 262.349 55.0944 263.128 55.4132C263.907 55.7321 264.616 56.2017 265.214 56.7953C265.811 57.3889 266.287 58.0949 266.612 58.8728C266.938 59.6507 267.107 60.4853 267.111 61.329V152.539ZM124.648 56.2143C123.292 56.2143 121.99 56.7519 121.027 57.7099C120.064 58.668 119.518 59.9688 119.507 61.329V151.25H265.826V61.329C265.815 59.9688 265.269 58.668 264.306 57.7099C263.343 56.7519 262.042 56.2143 260.685 56.2143H124.648Z" fill="#333333"/>
<path d="M260.023 148.015C260.191 148.015 260.358 147.983 260.514 147.919C260.67 147.854 260.812 147.76 260.931 147.641C261.051 147.522 261.145 147.38 261.21 147.224C261.275 147.068 261.308 146.901 261.308 146.732V62.0336C261.307 61.8651 261.273 61.6984 261.208 61.5431C261.143 61.3877 261.049 61.2467 260.929 61.1281C260.81 61.0095 260.668 60.9156 260.513 60.8518C260.357 60.788 260.191 60.7556 260.023 60.7564H124.654C124.486 60.7556 124.319 60.788 124.164 60.8518C124.008 60.9156 123.867 61.0095 123.747 61.1281C123.628 61.2467 123.533 61.3877 123.468 61.5431C123.403 61.6984 123.369 61.8651 123.369 62.0336V146.732C123.369 146.901 123.402 147.068 123.467 147.224C123.531 147.38 123.626 147.522 123.745 147.641C123.865 147.76 124.007 147.854 124.162 147.919C124.318 147.983 124.485 148.015 124.654 148.015H260.023Z" fill="#808080"/>
<path d="M260.668 147.367V62.0279C260.667 61.8573 260.598 61.6941 260.477 61.574C260.356 61.4539 260.193 61.3865 260.023 61.3865H124.654C124.484 61.3865 124.32 61.4539 124.199 61.574C124.079 61.6941 124.01 61.8573 124.008 62.0279V147.367C124.01 147.539 124.078 147.702 124.199 147.823C124.32 147.944 124.483 148.013 124.654 148.015H260.023C260.194 148.013 260.357 147.944 260.478 147.823C260.598 147.702 260.667 147.539 260.668 147.367ZM261.308 147.367C261.309 147.537 261.276 147.705 261.212 147.861C261.147 148.018 261.053 148.161 260.933 148.28C260.814 148.4 260.672 148.495 260.516 148.56C260.359 148.624 260.192 148.657 260.023 148.656H124.654C124.485 148.657 124.317 148.624 124.161 148.56C124.005 148.495 123.863 148.4 123.743 148.28C123.624 148.161 123.529 148.018 123.465 147.861C123.401 147.705 123.368 147.537 123.369 147.367V62.0279C123.369 61.6862 123.504 61.3584 123.745 61.1167C123.986 60.875 124.313 60.7393 124.654 60.7393H260.023C260.364 60.7393 260.691 60.875 260.932 61.1167C261.173 61.3584 261.308 61.6862 261.308 62.0279V147.367Z" fill="#333333"/>
<g filter="url(#filter0_d)">
<path d="M222.305 94.5904C222.305 94.4275 222.442 94.2954 222.61 94.2954H249.601C249.77 94.2954 249.906 94.4275 249.906 94.5904V110.02C249.906 110.183 249.77 110.315 249.601 110.315H222.61C222.442 110.315 222.305 110.183 222.305 110.02V94.5904Z" fill="#9F9F9F"/>
</g>
<path fill-rule="evenodd" clip-rule="evenodd" d="M222.61 94H249.601C249.938 94 250.211 94.2642 250.211 94.5901V110.02C250.211 110.346 249.938 110.61 249.601 110.61H222.61C222.273 110.61 222 110.346 222 110.02V94.5901C222 94.2642 222.273 94 222.61 94ZM222.61 94.295C222.442 94.295 222.305 94.4271 222.305 94.5901V110.02C222.305 110.183 222.442 110.315 222.61 110.315H249.601C249.77 110.315 249.906 110.183 249.906 110.02V94.5901C249.906 94.4271 249.77 94.295 249.601 94.295H222.61Z" fill="#B2B2B2"/>
<mask id="mask0" mask-type="alpha" maskUnits="userSpaceOnUse" x="222" y="95" width="25" height="16">
<path d="M222.264 95.5132H246.709V110.315H222.264V95.5132Z" fill="#EFEFEF"/>
</mask>
<g mask="url(#mask0)">
<path d="M227.802 99.5908L235.779 110.291H219.614L227.802 99.5908Z" fill="url(#paint0_linear)"/>
<path d="M227.803 99.5898L229.63 101.999L228.584 101.655L227.8 102.342L227.015 101.655L225.96 101.988L227.803 99.5898Z" fill="white"/>
<path d="M236.177 102.011L244.096 112.661H228.048L236.177 102.011Z" fill="url(#paint1_linear)"/>
<path d="M236.166 102.011L238.125 104.538L237.005 104.177L236.166 104.899L235.326 104.177L234.206 104.538L236.166 102.011Z" fill="white"/>
</g>
<path d="M248.371 97.2298C248.371 97.9943 247.754 98.614 246.992 98.614C246.229 98.614 245.612 97.9943 245.612 97.2298C245.612 96.4654 246.229 95.8457 246.992 95.8457C247.754 95.8457 248.371 96.4654 248.371 97.2298Z" fill="url(#paint2_linear)"/>
<path d="M140.064 158.284H175.734V158.427H183.913V158.289H202.528V158.461H213.563V158.289H272.966C274.794 158.232 276.606 157.936 278.358 157.407C279.205 157.139 280.032 156.808 280.831 156.417H233.423V155.976H224.696V156.382L213.558 156.182V156.044H202.528V156.382L184.57 156.136H175.734V156.44L142.035 155.998L141.464 156.136L130.537 156.239L102.755 156.136C103.474 156.863 104.325 157.446 105.262 157.854C107.244 158.467 109.752 158.467 111.351 158.467H130.525L138.979 158.673L140.064 158.284Z" fill="#555555"/>
<path d="M280.511 156.411L281.379 155.838H102.486L103.058 156.411H280.511Z" fill="#333333"/>
<path d="M102.801 152.539V155.913C103.943 157.093 106.73 158.444 112.231 158.273L271.624 158.353C273.621 158.214 275.6 157.884 277.535 157.368C278.403 157.161 281.225 156.085 281.259 155.775V152.539C221.788 152.643 162.3 152.539 102.801 152.539ZM112.231 159C109.163 159 105.948 159 102.692 156.852C102.378 156.572 102.121 156.4 102.121 155.913V152.998C102.147 152.706 102.276 152.434 102.486 152.231C102.696 152.028 102.972 151.908 103.263 151.892H280.962C281.095 151.883 281.227 151.903 281.351 151.951C281.475 151.999 281.587 152.073 281.679 152.168C281.771 152.263 281.842 152.378 281.886 152.503C281.93 152.629 281.946 152.762 281.933 152.895V155.879L281.893 155.913C281.761 156.233 281.514 156.492 281.202 156.64C280.005 157.332 278.714 157.847 277.37 158.17C275.516 158.657 273.613 158.935 271.698 159H112.231Z" fill="#333333"/>
<path opacity="0.6" d="M157.954 90.3389H132.885C132.84 90.3381 132.796 90.3464 132.755 90.3631C132.714 90.3798 132.676 90.4046 132.645 90.4362C132.613 90.4677 132.589 90.5053 132.572 90.5466C132.555 90.588 132.547 90.6323 132.548 90.6768C132.547 90.7217 132.555 90.7663 132.572 90.8079C132.588 90.8496 132.613 90.8875 132.645 90.9195C132.676 90.9515 132.713 90.9769 132.755 90.9942C132.796 91.0116 132.84 91.0205 132.885 91.0205H157.96C158.049 91.019 158.135 90.9821 158.198 90.9178C158.261 90.8536 158.297 90.767 158.297 90.6768C158.297 90.632 158.288 90.5876 158.27 90.5462C158.253 90.5048 158.228 90.4673 158.196 90.4358C158.164 90.4044 158.126 90.3796 158.085 90.363C158.043 90.3463 157.999 90.3382 157.954 90.3389Z" fill="white"/>
<path d="M256.476 67.1882H144.965C144.545 67.1882 144.143 67.021 143.846 66.7235C143.549 66.426 143.383 66.0224 143.383 65.6016C143.383 65.1809 143.549 64.7773 143.846 64.4798C144.143 64.1823 144.545 64.0151 144.965 64.0151H256.476C256.895 64.0151 257.298 64.1823 257.595 64.4798C257.891 64.7773 258.058 65.1809 258.058 65.6016C258.058 66.0224 257.891 66.426 257.595 66.7235C257.298 67.021 256.895 67.1882 256.476 67.1882ZM144.965 64.6051C144.701 64.6051 144.448 64.7101 144.262 64.897C144.076 65.0839 143.971 65.3373 143.971 65.6016C143.971 65.866 144.076 66.1194 144.262 66.3063C144.448 66.4932 144.701 66.5982 144.965 66.5982H256.476C256.739 66.5982 256.992 66.4932 257.179 66.3063C257.365 66.1194 257.47 65.866 257.47 65.6016C257.47 65.3373 257.365 65.0839 257.179 64.897C256.992 64.7101 256.739 64.6051 256.476 64.6051H144.965Z" fill="#CCCCCC"/>
<path d="M165.316 152.7H118.748L118.714 152.734V152.7H102.755V155.787H281.293V152.557C248.42 152.625 215.562 152.66 182.72 152.66H182.411C176.734 152.7 171.022 152.7 165.316 152.7Z" fill="#555555"/>
<path d="M128.835 67.1024C129.627 67.1024 130.268 66.4741 130.268 65.6991C130.268 64.9241 129.627 64.2959 128.835 64.2959C128.043 64.2959 127.401 64.9241 127.401 65.6991C127.401 66.4741 128.043 67.1024 128.835 67.1024Z" fill="#CCCCCC"/>
<path d="M132.936 67.1024C133.728 67.1024 134.37 66.4741 134.37 65.6991C134.37 64.9241 133.728 64.2959 132.936 64.2959C132.144 64.2959 131.502 64.9241 131.502 65.6991C131.502 66.4741 132.144 67.1024 132.936 67.1024Z" fill="#CCCCCC"/>
<path d="M137.031 67.1024C137.823 67.1024 138.465 66.4741 138.465 65.6991C138.465 64.9241 137.823 64.2959 137.031 64.2959C136.239 64.2959 135.598 64.9241 135.598 65.6991C135.598 66.4741 136.239 67.1024 137.031 67.1024Z" fill="#CCCCCC"/>
<path d="M180.706 79H130.294C129.58 79 129 79.4477 129 80C129 80.5523 129.58 81 130.294 81H180.706C181.42 81 182 80.5523 182 80C182 79.4477 181.42 79 180.706 79Z" fill="#B2B2B2"/>
<path opacity="0.4" d="M130.057 94.0011H198.943C199.211 93.9884 199.472 94.0861 199.67 94.2728C199.868 94.4595 199.987 94.72 200 94.9971C199.994 95.1348 199.962 95.27 199.906 95.3949C199.85 95.5199 199.77 95.6321 199.672 95.7251C199.574 95.8182 199.459 95.8902 199.334 95.9372C199.209 95.9842 199.076 96.0052 198.943 95.9989H130.057C129.924 96.0052 129.791 95.9842 129.666 95.9372C129.541 95.8902 129.426 95.8182 129.328 95.7251C129.23 95.6321 129.15 95.5199 129.094 95.3949C129.038 95.27 129.006 95.1348 129 94.9971C129.013 94.72 129.132 94.4595 129.33 94.2728C129.528 94.0861 129.789 93.9884 130.057 94.0011Z" fill="#CCCCCC"/>
<path d="M247.206 99.1992C248.221 99.1992 249.045 98.3735 249.045 97.355C249.045 96.3364 248.221 95.5107 247.206 95.5107C246.19 95.5107 245.366 96.3364 245.366 97.355C245.366 98.3735 246.19 99.1992 247.206 99.1992Z" fill="white"/>
<path d="M224 123.332C224.004 123.169 224.043 123.008 224.115 122.859C224.187 122.711 224.291 122.577 224.419 122.467C224.547 122.356 224.698 122.271 224.863 122.216C225.027 122.162 225.202 122.138 225.376 122.148C225.739 122.126 226.097 122.238 226.373 122.459C226.65 122.68 226.823 122.993 226.856 123.332V132.916C226.828 133.263 226.659 133.587 226.383 133.82C226.108 134.054 225.748 134.18 225.376 134.173C225.197 134.175 225.02 134.145 224.854 134.083C224.688 134.021 224.537 133.929 224.409 133.812C224.281 133.695 224.179 133.556 224.109 133.402C224.039 133.249 224.002 133.084 224 132.916V123.332Z" fill="#B2B2B2"/>
<path d="M229.141 128.594C229.169 128.237 229.337 127.904 229.612 127.664C229.887 127.423 230.246 127.293 230.617 127.301C230.796 127.297 230.974 127.328 231.14 127.392C231.306 127.455 231.458 127.549 231.586 127.67C231.715 127.79 231.817 127.934 231.887 128.092C231.958 128.251 231.995 128.421 231.997 128.594V132.88C231.995 133.052 231.958 133.223 231.887 133.381C231.817 133.54 231.715 133.684 231.586 133.804C231.458 133.924 231.306 134.019 231.14 134.082C230.974 134.145 230.796 134.176 230.617 134.173C230.246 134.18 229.887 134.05 229.612 133.81C229.337 133.569 229.169 133.237 229.141 132.88V128.594Z" fill="#B2B2B2"/>
<path d="M239.422 122.309C239.422 121.962 239.542 121.629 239.756 121.383C239.971 121.138 240.261 121 240.564 121C240.867 121 241.158 121.138 241.372 121.383C241.586 121.629 241.707 121.962 241.707 122.309V132.864C241.707 133.211 241.586 133.544 241.372 133.79C241.158 134.035 240.867 134.173 240.564 134.173C240.261 134.173 239.971 134.035 239.756 133.79C239.542 133.544 239.422 133.211 239.422 132.864V122.309Z" fill="#B2B2B2"/>
<path d="M234.281 127.834C234.341 127.524 234.517 127.243 234.778 127.041C235.039 126.838 235.369 126.728 235.709 126.728C236.05 126.728 236.379 126.838 236.64 127.041C236.901 127.243 237.077 127.524 237.137 127.834V133.067C237.077 133.377 236.901 133.658 236.64 133.86C236.379 134.062 236.05 134.173 235.709 134.173C235.369 134.173 235.039 134.062 234.778 133.86C234.517 133.658 234.341 133.377 234.281 133.067V127.834Z" fill="#B2B2B2"/>
<path d="M243.727 119.629C243.727 119.295 243.86 118.975 244.095 118.738C244.331 118.502 244.651 118.369 244.984 118.369C245.317 118.369 245.637 118.502 245.872 118.738C246.108 118.975 246.24 119.295 246.24 119.629V134.521C246.24 134.855 246.108 135.175 245.872 135.412C245.637 135.648 245.317 135.781 244.984 135.781C244.651 135.781 244.331 135.648 244.095 135.412C243.86 135.175 243.727 134.855 243.727 134.521V119.629Z" fill="#ECECEC"/>
<path d="M146.854 118.049C147.14 118.049 147.414 117.935 147.616 117.733C147.819 117.531 147.934 117.257 147.935 116.971V45.8143C147.935 45.6723 147.907 45.5317 147.853 45.4006C147.798 45.2695 147.719 45.1505 147.618 45.0504C147.518 44.9503 147.399 44.871 147.267 44.8172C147.136 44.7634 146.996 44.7361 146.854 44.7368H33.0666C32.925 44.7361 32.7846 44.7634 32.6535 44.8172C32.5224 44.871 32.4032 44.9503 32.3028 45.0504C32.2024 45.1505 32.1227 45.2695 32.0683 45.4006C32.014 45.5317 31.986 45.6723 31.986 45.8143V116.971C31.9875 117.257 32.102 117.531 32.3045 117.733C32.507 117.935 32.781 118.049 33.0666 118.049H146.854Z" fill="#555555"/>
<path d="M147.395 117.538V45.8204C147.395 45.6692 147.335 45.5241 147.228 45.4171C147.121 45.3102 146.977 45.2501 146.826 45.2501H33.0666C32.9158 45.2501 32.7711 45.3102 32.6644 45.4171C32.5578 45.5241 32.4979 45.6692 32.4979 45.8204V117.538C32.5052 117.684 32.5683 117.822 32.6742 117.923C32.7801 118.024 32.9206 118.08 33.0666 118.08H146.854C146.995 118.073 147.129 118.013 147.229 117.913C147.329 117.813 147.388 117.679 147.395 117.538ZM147.935 117.538C147.935 117.825 147.821 118.101 147.618 118.304C147.416 118.507 147.141 118.621 146.854 118.621H33.0666C32.9247 118.621 32.7842 118.593 32.6531 118.539C32.522 118.484 32.4028 118.405 32.3025 118.304C32.2021 118.203 32.1225 118.084 32.0682 117.952C32.0139 117.821 31.986 117.68 31.986 117.538V45.8204C31.986 45.6781 32.0139 45.5372 32.0682 45.4057C32.1225 45.2743 32.2021 45.1548 32.3025 45.0542C32.4028 44.9536 32.522 44.8738 32.6531 44.8193C32.7842 44.7648 32.9247 44.7368 33.0666 44.7368H146.854C147.141 44.7368 147.416 44.851 147.618 45.0542C147.821 45.2574 147.935 45.533 147.935 45.8204V117.538Z" fill="#AFAFAF"/>
<path opacity="0.6" d="M59.848 69.7603H38.7144C38.6387 69.7603 38.566 69.7904 38.5125 69.8441C38.4589 69.8978 38.4288 69.9707 38.4288 70.0466C38.4288 70.1226 38.4589 70.1954 38.5125 70.2491C38.566 70.3028 38.6387 70.333 38.7144 70.333H59.8766C59.9523 70.333 60.0249 70.3028 60.0785 70.2491C60.1321 70.1954 60.1621 70.1226 60.1621 70.0466C60.1621 69.9707 60.1321 69.8978 60.0785 69.8441C60.0249 69.7904 59.9523 69.7603 59.8766 69.7603H59.848Z" fill="#6B6B6B"/>
<path d="M142.526 50.4613H49.2169C48.8813 50.4375 48.5666 50.2766 48.3367 50.0113C48.1068 49.746 47.9789 49.396 47.9789 49.0325C47.9789 48.6689 48.1068 48.3189 48.3367 48.0536C48.5666 47.7883 48.8813 47.6274 49.2169 47.6036H142.526C142.706 47.5908 142.888 47.6183 143.058 47.6843C143.229 47.7503 143.385 47.8535 143.518 47.9874C143.65 48.1213 143.755 48.2832 143.827 48.463C143.9 48.6427 143.937 48.8365 143.937 49.0325C143.937 49.2284 143.9 49.4222 143.827 49.602C143.755 49.7817 143.65 49.9436 143.518 50.0775C143.385 50.2114 143.229 50.3146 143.058 50.3806C142.888 50.4466 142.706 50.4741 142.526 50.4613ZM49.2396 48.1299C49.0189 48.1299 48.8072 48.2247 48.6512 48.3933C48.4951 48.562 48.4075 48.7908 48.4075 49.0294C48.4075 49.268 48.4951 49.4968 48.6512 49.6654C48.8072 49.8341 49.0189 49.9289 49.2396 49.9289H142.526C142.746 49.9289 142.958 49.8341 143.114 49.6654C143.27 49.4968 143.358 49.268 143.358 49.0294C143.358 48.7908 143.27 48.562 143.114 48.3933C142.958 48.2247 142.746 48.1299 142.526 48.1299H49.2396Z" fill="#6B6B6B"/>
<path d="M36.1156 50.1436C36.7843 50.1436 37.3265 49.6128 37.3265 48.9581C37.3265 48.3033 36.7843 47.7725 36.1156 47.7725C35.4468 47.7725 34.9047 48.3033 34.9047 48.9581C34.9047 49.6128 35.4468 50.1436 36.1156 50.1436Z" fill="#CCCCCC"/>
<path d="M39.5712 50.1436C40.2399 50.1436 40.7821 49.6128 40.7821 48.9581C40.7821 48.3033 40.2399 47.7725 39.5712 47.7725C38.9024 47.7725 38.3603 48.3033 38.3603 48.9581C38.3603 49.6128 38.9024 50.1436 39.5712 50.1436Z" fill="#CCCCCC"/>
<path d="M43.0325 50.1436C43.7013 50.1436 44.2434 49.6128 44.2434 48.9581C44.2434 48.3033 43.7013 47.7725 43.0325 47.7725C42.3638 47.7725 41.8217 48.3033 41.8217 48.9581C41.8217 49.6128 42.3638 50.1436 43.0325 50.1436Z" fill="#CCCCCC"/>
<path d="M78.895 59.6284H37.054C36.4632 59.6284 35.9842 60.1399 35.9842 60.7709V60.7769C35.9842 61.4079 36.4632 61.9194 37.054 61.9194H78.895C79.4859 61.9194 79.9649 61.4079 79.9649 60.7769V60.7709C79.9649 60.1399 79.4859 59.6284 78.895 59.6284Z" fill="#96C8FD" fill-opacity="0.5"/>
<path d="M335.124 145C335.238 145.001 335.352 144.979 335.459 144.935C335.565 144.891 335.662 144.826 335.743 144.744C335.824 144.662 335.889 144.565 335.933 144.457C335.977 144.35 336 144.235 336 144.119V85.8754C335.999 85.7597 335.976 85.6453 335.932 85.5386C335.887 85.432 335.822 85.3353 335.741 85.254C335.66 85.1727 335.563 85.1085 335.457 85.0649C335.351 85.0213 335.238 84.9993 335.124 85H242.876C242.762 84.9993 242.648 85.0215 242.541 85.0654C242.435 85.1094 242.338 85.1742 242.257 85.2561C242.176 85.3379 242.111 85.4353 242.067 85.5426C242.023 85.6499 242 85.7649 242 85.8811V144.119C242 144.235 242.023 144.35 242.067 144.457C242.111 144.565 242.176 144.662 242.257 144.744C242.338 144.826 242.435 144.891 242.541 144.935C242.648 144.979 242.762 145.001 242.876 145H335.124Z" fill="#555555"/>
<path d="M335.565 144.12V85.8803C335.565 85.7628 335.518 85.6501 335.435 85.5671C335.353 85.484 335.241 85.4373 335.124 85.4373H242.876C242.759 85.4373 242.647 85.484 242.565 85.5671C242.482 85.6501 242.435 85.7628 242.435 85.8803V144.12C242.435 144.178 242.447 144.235 242.469 144.288C242.491 144.342 242.524 144.39 242.565 144.431C242.606 144.472 242.655 144.504 242.708 144.525C242.762 144.547 242.819 144.558 242.876 144.557H335.124C335.181 144.558 335.238 144.547 335.292 144.525C335.345 144.504 335.394 144.472 335.435 144.431C335.476 144.39 335.509 144.342 335.531 144.288C335.553 144.235 335.565 144.178 335.565 144.12ZM336 144.12C336 144.353 335.908 144.577 335.743 144.742C335.579 144.907 335.356 145 335.124 145H242.876C242.761 145 242.647 144.977 242.541 144.933C242.435 144.889 242.338 144.824 242.257 144.742C242.175 144.66 242.111 144.563 242.067 144.457C242.023 144.35 242 144.235 242 144.12V85.8803C241.999 85.7645 242.021 85.6497 242.065 85.5425C242.109 85.4354 242.174 85.338 242.255 85.2562C242.337 85.1743 242.433 85.1095 242.54 85.0655C242.647 85.0215 242.761 84.9993 242.876 85H335.124C335.239 84.9993 335.353 85.0215 335.46 85.0655C335.567 85.1095 335.663 85.1743 335.745 85.2562C335.826 85.338 335.891 85.4354 335.935 85.5425C335.979 85.6497 336.001 85.7645 336 85.8803V144.12Z" fill="#AFAFAF"/>
<path d="M332.936 89.185H256.17C256.02 89.1959 255.87 89.1758 255.729 89.1258C255.587 89.0759 255.458 88.9973 255.348 88.895C255.238 88.7926 255.151 88.6686 255.091 88.5308C255.031 88.393 255 88.2443 255 88.0939C255 87.9436 255.031 87.7949 255.091 87.6571C255.151 87.5193 255.238 87.3953 255.348 87.2929C255.458 87.1906 255.587 87.112 255.729 87.062C255.87 87.0121 256.02 86.992 256.17 87.0029H332.936C333.211 87.0229 333.468 87.1465 333.656 87.3489C333.844 87.5513 333.948 87.8175 333.948 88.0939C333.948 88.3704 333.844 88.6366 333.656 88.839C333.468 89.0414 333.211 89.165 332.936 89.185ZM256.17 87.3751C255.988 87.3751 255.814 87.4476 255.685 87.5765C255.557 87.7053 255.484 87.8802 255.484 88.0624C255.484 88.2447 255.557 88.4195 255.685 88.5484C255.814 88.6773 255.988 88.7497 256.17 88.7497H332.936C333.118 88.7497 333.292 88.6773 333.421 88.5484C333.549 88.4195 333.621 88.2447 333.621 88.0624C333.621 87.8802 333.549 87.7053 333.421 87.5765C333.292 87.4476 333.118 87.3751 332.936 87.3751H256.17Z" fill="#6B6B6B"/>
<path d="M245.988 88.9359C246.534 88.9359 246.976 88.5025 246.976 87.9679C246.976 87.4334 246.534 87 245.988 87C245.442 87 245 87.4334 245 87.9679C245 88.5025 245.442 88.9359 245.988 88.9359Z" fill="#6B6B6B"/>
<path d="M248.81 88.9359C249.355 88.9359 249.798 88.5025 249.798 87.9679C249.798 87.4334 249.355 87 248.81 87C248.264 87 247.822 87.4334 247.822 87.9679C247.822 88.5025 248.264 88.9359 248.81 88.9359Z" fill="#6B6B6B"/>
<path d="M251.631 88.9359C252.177 88.9359 252.619 88.5025 252.619 87.9679C252.619 87.4334 252.177 87 251.631 87C251.086 87 250.643 87.4334 250.643 87.9679C250.643 88.5025 251.086 88.9359 251.631 88.9359Z" fill="#6B6B6B"/>
<path d="M281.124 96H246.876C246.392 96 246 96.4463 246 96.9968V97.0032C246 97.5537 246.392 98 246.876 98H281.124C281.608 98 282 97.5537 282 97.0032V96.9968C282 96.4463 281.608 96 281.124 96Z" fill="#96C8FD" fill-opacity="0.5"/>
<path d="M37.2835 35.5728H7.28532C5.50461 35.5728 3.79684 36.2799 2.5377 37.5385C1.27855 38.7972 0.571167 40.5044 0.571167 42.2844V51.4902C0.571167 53.2703 1.27855 54.9774 2.5377 56.2361C3.79684 57.4947 5.50461 58.2019 7.28532 58.2019H28.9816L36.138 65.3557V58.2019H37.2722C39.0519 58.2004 40.7582 57.4926 42.0161 56.2341C43.2741 54.9756 43.9807 53.2693 43.9807 51.4902V42.2844C43.9807 40.5073 43.2756 38.8027 42.0201 37.5445C40.7647 36.2864 39.0613 35.5773 37.2835 35.5728Z" fill="#96C8FD"/>
<path d="M36.5972 66.5012L28.9412 58.7609H7.11612C6.18319 58.7639 5.25882 58.5809 4.39596 58.2222C3.5331 57.8636 2.7487 57.3363 2.08768 56.6707C1.42666 56.0051 0.902011 55.2142 0.543773 54.3433C0.185536 53.4724 0.000750521 52.5387 0 51.5954V42.1654C0.00152103 40.2655 0.748716 38.4438 2.07753 37.1004C3.40635 35.757 5.20817 35.0015 7.0874 35H37.4702C39.3489 35.0015 41.1501 35.7571 42.478 37.1008C43.8059 38.4444 44.5518 40.266 44.5518 42.1654V51.5954C44.5503 53.4944 43.8039 55.3151 42.4763 56.6584C41.1488 58.0017 39.3484 58.7578 37.4702 58.7609H36.5972V66.5012ZM7.0874 35.5807C5.36096 35.5837 3.70611 36.2785 2.48533 37.5127C1.26455 38.7469 0.577381 40.42 0.574344 42.1654V51.5954C0.577381 53.3409 1.26455 55.014 2.48533 56.2482C3.70611 57.4824 5.36096 58.1771 7.0874 58.1802H29.1824L36.0228 65.0959V58.1802H37.4702C39.1961 58.1771 40.8504 57.4822 42.0702 56.2478C43.2901 55.0134 43.976 53.3404 43.9775 51.5954V42.1654C43.976 40.4205 43.2901 38.7474 42.0702 37.513C40.8504 36.2787 39.1961 35.5837 37.4702 35.5807H7.0874Z" fill="#333333"/>
<path d="M12.3889 49.3531C13.6381 49.3531 14.6507 48.3376 14.6507 47.085C14.6507 45.8324 13.6381 44.8169 12.3889 44.8169C11.1397 44.8169 10.127 45.8324 10.127 47.085C10.127 48.3376 11.1397 49.3531 12.3889 49.3531Z" fill="white"/>
<path d="M12.3889 49.6397C11.8848 49.6408 11.3917 49.492 10.972 49.212C10.5523 48.932 10.2249 48.5334 10.0313 48.0667C9.83756 47.6001 9.7863 47.0863 9.88395 46.5904C9.9816 46.0945 10.2238 45.6388 10.5798 45.281C10.9358 44.9232 11.3897 44.6793 11.8841 44.5803C12.3784 44.4812 12.8909 44.5315 13.3567 44.7247C13.8225 44.9178 14.2207 45.2452 14.5009 45.6654C14.781 46.0856 14.9306 46.5797 14.9306 47.0852C14.9306 47.7617 14.663 48.4106 14.1865 48.8895C13.71 49.3684 13.0635 49.6382 12.3889 49.6397ZM12.3889 45.1092C11.9975 45.1081 11.6146 45.2235 11.2888 45.4408C10.9629 45.6581 10.7087 45.9676 10.5584 46.3299C10.4081 46.6923 10.3685 47.0912 10.4446 47.4761C10.5207 47.8611 10.709 48.2147 10.9857 48.4922C11.2624 48.7697 11.6151 48.9586 11.999 49.0348C12.3829 49.1111 12.7807 49.0714 13.1421 48.9207C13.5034 48.77 13.812 48.5151 14.0287 48.1883C14.2455 47.8616 14.3606 47.4776 14.3594 47.0852C14.3579 46.5616 14.1498 46.0599 13.7806 45.6897C13.4114 45.3194 12.911 45.1107 12.3889 45.1092Z" fill="#333333"/>
<path d="M21.9332 49.3531C23.1824 49.3531 24.1951 48.3376 24.1951 47.085C24.1951 45.8324 23.1824 44.8169 21.9332 44.8169C20.684 44.8169 19.6713 45.8324 19.6713 47.085C19.6713 48.3376 20.684 49.3531 21.9332 49.3531Z" fill="white"/>
<path d="M21.9332 49.6396C21.4304 49.6351 20.9401 49.4814 20.5242 49.198C20.1083 48.9146 19.7854 48.514 19.596 48.0469C19.4067 47.5797 19.3595 47.0669 19.4604 46.5729C19.5613 46.0789 19.8057 45.6259 20.1628 45.2709C20.52 44.9159 20.9739 44.6749 21.4674 44.5782C21.961 44.4815 22.472 44.5334 22.9362 44.7274C23.4003 44.9214 23.7968 45.2488 24.0757 45.6683C24.3547 46.0879 24.5035 46.5809 24.5035 47.0851C24.5035 47.4225 24.4369 47.7566 24.3075 48.068C24.178 48.3794 23.9883 48.662 23.7493 48.8995C23.5104 49.137 23.2268 49.3247 22.9151 49.4517C22.6034 49.5788 22.2697 49.6426 21.9332 49.6396ZM21.9332 45.1091C21.5431 45.1137 21.1631 45.2339 20.841 45.4546C20.5189 45.6753 20.2691 45.9867 20.1232 46.3496C19.9773 46.7124 19.9418 47.1104 20.0211 47.4934C20.1003 47.8765 20.2909 48.2274 20.5687 48.502C20.8466 48.7767 21.1993 48.9627 21.5824 49.0367C21.9655 49.1106 22.3618 49.0693 22.7215 48.9178C23.0812 48.7662 23.3881 48.5114 23.6036 48.1852C23.8191 47.8591 23.9335 47.4763 23.9324 47.0851C23.9309 46.8236 23.8779 46.565 23.7766 46.3241C23.6752 46.0832 23.5275 45.8647 23.3418 45.6811C23.156 45.4975 22.936 45.3525 22.6943 45.2544C22.4526 45.1562 22.194 45.1069 21.9332 45.1091Z" fill="#333333"/>
<path d="M31.4833 49.3531C32.7325 49.3531 33.7452 48.3376 33.7452 47.085C33.7452 45.8324 32.7325 44.8169 31.4833 44.8169C30.2341 44.8169 29.2214 45.8324 29.2214 47.085C29.2214 48.3376 30.2341 49.3531 31.4833 49.3531Z" fill="white"/>
<path d="M31.4833 49.6397C30.9795 49.6397 30.4869 49.4899 30.068 49.2092C29.6491 48.9285 29.3226 48.5295 29.1298 48.0628C28.937 47.596 28.8865 47.0824 28.9848 46.5869C29.0831 46.0914 29.3257 45.6362 29.682 45.2789C30.0383 44.9217 30.4922 44.6784 30.9863 44.5798C31.4805 44.4813 31.9927 44.5319 32.4582 44.7252C32.9237 44.9185 33.3215 45.246 33.6014 45.666C33.8813 46.0861 34.0308 46.58 34.0308 47.0852C34.0308 47.7627 33.7624 48.4124 33.2846 48.8915C32.8069 49.3705 32.1589 49.6397 31.4833 49.6397ZM31.4833 45.1092C31.0922 45.1092 30.7099 45.2256 30.3848 45.4436C30.0596 45.6616 29.8063 45.9715 29.6569 46.3339C29.5075 46.6964 29.4687 47.0951 29.5454 47.4797C29.6222 47.8642 29.8109 48.2173 30.0879 48.4943C30.3649 48.7712 30.7175 48.9595 31.1013 49.0353C31.485 49.1111 31.8825 49.071 32.2436 48.9202C32.6046 48.7693 32.9128 48.5144 33.1293 48.1878C33.3458 47.8611 33.4607 47.4774 33.4596 47.0852C33.4581 46.5606 33.2492 46.058 32.8787 45.6876C32.5083 45.3172 32.0065 45.1092 31.4833 45.1092Z" fill="#333333"/>
<path d="M85.8994 85H71.0782C68.9357 85 67.015 85.9328 65.5 87.5C63.985 89.0672 63 91.2837 63 93.5C63.001 95.2696 63.5447 96.8499 64.5527 98.2796C65.5608 99.7092 66.9813 100.771 68.6098 101.313V107L73.7204 101.713H85.9218C88.0643 101.713 90.119 100.833 91.634 99.2657C93.1489 97.6985 93.5 95.7163 93.5 93.5C93.5 92.4006 93.4074 91.0154 93 90C92.5926 88.9846 92.2525 88.2763 91.5 87.5C90.7475 86.7237 89.9827 86.4186 89 86C88.0173 85.5814 86.9621 84.997 85.8994 85Z" fill="url(#paint3_linear)"/>
<path d="M68.5483 108V101.826C66.7068 101.163 65.1492 99.8309 64.1538 98.0677C63.1584 96.3044 62.7902 94.2253 63.1151 92.2021C63.4399 90.1788 64.4365 88.3434 65.9268 87.024C67.4171 85.7045 69.3039 84.9872 71.2497 85.0002H85.8022C87.9764 85.0002 90.0615 85.911 91.5989 87.5323C93.1363 89.1536 94 91.3526 94 93.6454C94 95.9383 93.1363 98.1372 91.5989 99.7585C90.0615 101.38 87.9764 102.291 85.8022 102.291H73.9511L68.5483 108ZM71.2662 85.5978C69.4438 85.5983 67.6816 86.285 66.2968 87.5343C64.912 88.7835 63.9957 90.5132 63.713 92.4118C63.4303 94.3103 63.7998 96.2529 64.7549 97.8896C65.71 99.5264 67.1879 100.75 68.9224 101.339L69.1149 101.403V106.625L73.7365 101.751H85.8407C87.869 101.751 89.8142 100.901 91.2484 99.3889C92.6826 97.8764 93.4883 95.825 93.4883 93.686C93.4883 91.5471 92.6826 89.4957 91.2484 87.9832C89.8142 86.4707 87.869 85.621 85.8407 85.621L71.2662 85.5978Z" fill="#333333"/>
<path d="M85.8506 95.4253C86.715 95.4253 87.4156 94.7227 87.4156 93.8559C87.4156 92.9892 86.715 92.2866 85.8506 92.2866C84.9863 92.2866 84.2856 92.9892 84.2856 93.8559C84.2856 94.7227 84.9863 95.4253 85.8506 95.4253Z" fill="white"/>
<path d="M85.8506 95.7114C85.4846 95.7114 85.1268 95.6026 84.8225 95.3987C84.5181 95.1948 84.2809 94.9049 84.1409 94.5659C84.0008 94.2268 83.9642 93.8536 84.0356 93.4937C84.107 93.1337 84.2832 92.803 84.542 92.5435C84.8008 92.284 85.1306 92.1073 85.4896 92.0357C85.8486 91.9641 86.2207 92.0008 86.5588 92.1413C86.897 92.2817 87.186 92.5196 87.3893 92.8247C87.5927 93.1299 87.7012 93.4887 87.7012 93.8557C87.7012 94.3479 87.5063 94.8199 87.1592 95.1679C86.8121 95.5159 86.3414 95.7114 85.8506 95.7114ZM85.8506 92.5727C85.5976 92.5727 85.3502 92.648 85.1398 92.789C84.9294 92.9299 84.7654 93.1303 84.6686 93.3647C84.5717 93.5992 84.5464 93.8571 84.5958 94.106C84.6451 94.3549 84.767 94.5835 84.9459 94.7629C85.1249 94.9423 85.3528 95.0645 85.601 95.114C85.8492 95.1635 86.1064 95.1381 86.3402 95.041C86.574 94.9439 86.7738 94.7795 86.9144 94.5685C87.055 94.3575 87.1301 94.1095 87.1301 93.8557C87.1301 93.5154 86.9953 93.1891 86.7553 92.9485C86.5154 92.7079 86.1899 92.5727 85.8506 92.5727Z" fill="#333333"/>
<path d="M78.8506 95.4253C79.715 95.4253 80.4156 94.7227 80.4156 93.8559C80.4156 92.9892 79.715 92.2866 78.8506 92.2866C77.9863 92.2866 77.2856 92.9892 77.2856 93.8559C77.2856 94.7227 77.9863 95.4253 78.8506 95.4253Z" fill="white"/>
<path d="M78.8506 95.7114C78.4846 95.7114 78.1268 95.6026 77.8225 95.3987C77.5181 95.1948 77.2809 94.9049 77.1409 94.5659C77.0008 94.2268 76.9642 93.8536 77.0356 93.4937C77.107 93.1337 77.2832 92.803 77.542 92.5435C77.8008 92.284 78.1306 92.1073 78.4896 92.0357C78.8486 91.9641 79.2207 92.0008 79.5588 92.1413C79.897 92.2817 80.186 92.5196 80.3893 92.8247C80.5927 93.1299 80.7012 93.4887 80.7012 93.8557C80.6997 94.3474 80.5043 94.8185 80.1575 95.1662C79.8108 95.5139 79.341 95.7099 78.8506 95.7114ZM78.8506 92.5727C78.5976 92.5727 78.3502 92.648 78.1398 92.789C77.9294 92.9299 77.7654 93.1303 77.6686 93.3647C77.5717 93.5992 77.5464 93.8571 77.5958 94.106C77.6451 94.3549 77.767 94.5835 77.9459 94.7629C78.1248 94.9423 78.3528 95.0645 78.601 95.114C78.8492 95.1635 79.1064 95.1381 79.3402 95.041C79.574 94.9439 79.7738 94.7795 79.9144 94.5685C80.055 94.3575 80.13 94.1095 80.13 93.8557C80.13 93.5154 79.9952 93.1891 79.7553 92.9485C79.5154 92.7079 79.1899 92.5727 78.8506 92.5727Z" fill="#333333"/>
<path d="M71.8449 95.4253C72.7093 95.4253 73.41 94.7227 73.41 93.8559C73.41 92.9892 72.7093 92.2866 71.8449 92.2866C70.9806 92.2866 70.2799 92.9892 70.2799 93.8559C70.2799 94.7227 70.9806 95.4253 71.8449 95.4253Z" fill="white"/>
<path d="M71.8449 95.7114C71.4791 95.7103 71.1219 95.6005 70.8183 95.3959C70.5147 95.1913 70.2784 94.9011 70.1392 94.5619C70 94.2227 69.9642 93.8498 70.0363 93.4902C70.1083 93.1306 70.285 92.8005 70.544 92.5415C70.8031 92.2825 71.1328 92.1064 71.4917 92.0352C71.8505 91.9641 72.2223 92.0012 72.5601 92.1418C72.8979 92.2824 73.1866 92.5203 73.3897 92.8253C73.5928 93.1304 73.7012 93.4889 73.7012 93.8557C73.7012 94.0999 73.6532 94.3416 73.5598 94.5672C73.4664 94.7927 73.3296 94.9975 73.1572 95.1699C72.9847 95.3423 72.78 95.4789 72.5549 95.5718C72.3297 95.6647 72.0884 95.7122 71.8449 95.7114ZM71.8449 92.5727C71.5921 92.5739 71.3453 92.6501 71.1356 92.7917C70.926 92.9334 70.7629 93.1342 70.6669 93.3687C70.571 93.6032 70.5465 93.861 70.5965 94.1095C70.6465 94.358 70.7688 94.586 70.9479 94.7649C71.1271 94.9437 71.3551 95.0654 71.6031 95.1144C71.8511 95.1634 72.1081 95.1377 72.3415 95.0404C72.575 94.9432 72.7745 94.7787 72.9148 94.5679C73.0552 94.357 73.13 94.1092 73.13 93.8557C73.13 93.6867 73.0968 93.5194 73.0321 93.3634C72.9675 93.2074 72.8727 93.0657 72.7533 92.9465C72.6339 92.8273 72.4922 92.7329 72.3363 92.6687C72.1804 92.6046 72.0134 92.572 71.8449 92.5727Z" fill="#333333"/>
<path d="M312.811 109.572L312.743 109.498C312.628 109.366 312.417 109.12 313.314 102.172H306.665C305.577 102.171 304.534 101.736 303.765 100.964C302.996 100.192 302.564 99.1452 302.564 98.054V70.396C302.566 69.3058 302.998 68.2607 303.767 67.4898C304.536 66.719 305.578 66.2852 306.665 66.2837H372.922C374.009 66.2852 375.051 66.719 375.82 67.4898C376.589 68.2607 377.021 69.3058 377.023 70.396V98.054C377.023 99.1452 376.591 100.192 375.822 100.964C375.053 101.736 374.01 102.171 372.922 102.172H318.7C313.388 109.583 313.114 109.583 312.931 109.583L312.811 109.572ZM306.665 66.7075C305.691 66.709 304.757 67.0983 304.068 67.7899C303.379 68.4814 302.993 69.4188 302.993 70.396V98.054C302.997 99.0283 303.386 99.9612 304.074 100.649C304.762 101.337 305.694 101.724 306.665 101.725H313.788L313.754 101.966C313.125 106.771 313.028 108.409 313.04 108.965C313.468 108.495 314.725 106.937 318.392 101.817L318.454 101.725H372.922C373.896 101.724 374.831 101.335 375.519 100.643C376.208 99.9514 376.595 99.0141 376.595 98.0369V70.396C376.595 69.4188 376.208 68.4814 375.519 67.7899C374.831 67.0983 373.896 66.709 372.922 66.7075H306.665Z" fill="#333333"/>
<path d="M354.216 84.3252C354.215 86.2604 354.786 88.1526 355.858 89.7622C356.929 91.3718 358.453 92.6265 360.235 93.3677C362.018 94.1088 363.98 94.303 365.873 93.9257C367.766 93.5484 369.505 92.6166 370.87 91.2482C372.235 89.8797 373.164 88.1361 373.54 86.238C373.916 84.3398 373.723 82.3724 372.984 80.5846C372.244 78.7969 370.993 77.2691 369.388 76.1946C367.783 75.1201 365.896 74.5472 363.966 74.5483C361.38 74.5483 358.9 75.5784 357.071 77.4119C355.243 79.2454 354.216 81.7322 354.216 84.3252Z" fill="white"/>
<path d="M372.922 66.4956H306.665C305.634 66.4956 304.644 66.9065 303.915 67.638C303.185 68.3695 302.776 69.3616 302.776 70.396V98.054C302.776 99.0885 303.185 100.081 303.915 100.812C304.644 101.544 305.634 101.954 306.665 101.954H313.519C313.12 105.001 312.6 109.372 312.885 109.372C313.171 109.372 316.524 104.79 318.546 101.954H372.922C373.953 101.954 374.943 101.544 375.672 100.812C376.402 100.081 376.812 99.0885 376.812 98.054V70.396C376.812 69.3616 376.402 68.3695 375.672 67.638C374.943 66.9065 373.953 66.4956 372.922 66.4956Z" fill="#96C8FD"/>
<path fill-rule="evenodd" clip-rule="evenodd" d="M314.171 101.382L314.086 102.029C313.886 103.551 313.657 105.398 313.514 106.862C313.476 107.252 313.444 107.612 313.42 107.929C313.758 107.503 314.165 106.971 314.608 106.382C315.731 104.887 317.072 103.037 318.081 101.621L318.252 101.382H372.922C373.802 101.382 374.646 101.031 375.268 100.407C375.891 99.783 376.24 98.9366 376.24 98.054V70.396C376.24 69.5135 375.891 68.6671 375.268 68.043C374.646 67.4189 373.802 67.0684 372.922 67.0684H306.665C305.785 67.0684 304.941 67.4189 304.319 68.043C303.696 68.6671 303.347 69.5135 303.347 70.396V98.054C303.347 98.9366 303.696 99.783 304.319 100.407C304.941 101.031 305.785 101.382 306.665 101.382H314.171ZM313.374 108.89C313.346 108.923 313.319 108.955 313.293 108.985C313.079 109.231 312.935 109.372 312.885 109.372C312.823 109.372 312.799 109.163 312.804 108.805C312.804 108.763 312.805 108.718 312.807 108.672C312.843 107.425 313.159 104.741 313.445 102.527C313.47 102.332 313.495 102.141 313.519 101.954H306.665C305.634 101.954 304.644 101.544 303.915 100.812C303.185 100.081 302.776 99.0885 302.776 98.054V70.396C302.776 69.3616 303.185 68.3695 303.915 67.638C304.644 66.9065 305.634 66.4956 306.665 66.4956H372.922C373.953 66.4956 374.943 66.9065 375.672 67.638C376.402 68.3695 376.812 69.3616 376.812 70.396V98.054C376.812 99.0885 376.402 100.081 375.672 100.812C374.943 101.544 373.953 101.954 372.922 101.954H318.546C316.92 104.233 314.435 107.641 313.374 108.89Z" fill="#333333"/>
<path d="M354.004 84.3249C354.003 82.3479 354.587 80.415 355.681 78.7707C356.776 77.1264 358.332 75.8445 360.153 75.0871C361.974 74.3298 363.979 74.1311 365.912 74.5161C367.846 74.901 369.623 75.8525 371.017 77.25C372.412 78.6475 373.362 80.4283 373.747 82.3672C374.132 84.3061 373.935 86.316 373.18 88.1426C372.426 89.9691 371.149 91.5304 369.509 92.6289C367.87 93.7273 365.943 94.3136 363.971 94.3136C361.33 94.3106 358.797 93.2574 356.929 91.385C355.061 89.5126 354.009 86.9737 354.004 84.3249ZM354.433 84.3249C354.433 86.2167 354.992 88.0659 356.04 89.6389C357.088 91.2118 358.578 92.4378 360.321 93.1617C362.064 93.8856 363.982 94.0751 365.832 93.706C367.683 93.3369 369.382 92.426 370.716 91.0883C372.05 89.7506 372.959 88.0463 373.327 86.1909C373.695 84.3355 373.506 82.4123 372.784 80.6646C372.062 78.9168 370.839 77.423 369.271 76.372C367.702 75.321 365.858 74.76 363.971 74.76C361.443 74.763 359.018 75.7717 357.23 77.5648C355.442 79.3579 354.436 81.7891 354.433 84.3249Z" fill="#333333"/>
<path d="M312.645 78.0308H350.269C350.597 78.0308 350.863 77.7641 350.863 77.4351V76.9254C350.863 76.5964 350.597 76.3297 350.269 76.3297H312.645C312.317 76.3297 312.051 76.5964 312.051 76.9254V77.4351C312.051 77.7641 312.317 78.0308 312.645 78.0308Z" fill="#E5E5E5"/>
<path fill-rule="evenodd" clip-rule="evenodd" d="M312.645 77.7444H350.269C350.439 77.7444 350.577 77.6059 350.577 77.4351V76.9254C350.577 76.7545 350.439 76.6161 350.269 76.6161H312.645C312.475 76.6161 312.337 76.7545 312.337 76.9254V77.4351C312.337 77.6059 312.475 77.7444 312.645 77.7444ZM350.269 78.0308H312.645C312.317 78.0308 312.051 77.7641 312.051 77.4351V76.9254C312.051 76.5964 312.317 76.3297 312.645 76.3297H350.269C350.597 76.3297 350.863 76.5964 350.863 76.9254V77.4351C350.863 77.7641 350.597 78.0308 350.269 78.0308Z" fill="#333333"/>
<path d="M342.29 82.5093H350.269C350.597 82.5093 350.863 82.2426 350.863 81.9136V81.4039C350.863 81.0749 350.597 80.8082 350.269 80.8082H342.29C341.961 80.8082 341.696 81.0749 341.696 81.4039V81.9136C341.696 82.2426 341.961 82.5093 342.29 82.5093Z" fill="#E5E5E5"/>
<path fill-rule="evenodd" clip-rule="evenodd" d="M342.29 82.2229H350.269C350.439 82.2229 350.577 82.0844 350.577 81.9136V81.4039C350.577 81.2331 350.439 81.0946 350.269 81.0946H342.29C342.119 81.0946 341.981 81.2331 341.981 81.4039V81.9136C341.981 82.0844 342.119 82.2229 342.29 82.2229ZM350.269 82.5093H342.29C341.961 82.5093 341.696 82.2426 341.696 81.9136V81.4039C341.696 81.0749 341.961 80.8082 342.29 80.8082H350.269C350.597 80.8082 350.863 81.0749 350.863 81.4039V81.9136C350.863 82.2426 350.597 82.5093 350.269 82.5093Z" fill="#333333"/>
<path d="M312.651 82.5093H337.646C337.974 82.5093 338.24 82.2426 338.24 81.9136V81.4039C338.24 81.0749 337.974 80.8082 337.646 80.8082H312.651C312.323 80.8082 312.057 81.0749 312.057 81.4039V81.9136C312.057 82.2426 312.323 82.5093 312.651 82.5093Z" fill="#E5E5E5"/>
<path fill-rule="evenodd" clip-rule="evenodd" d="M312.651 82.2229H337.646C337.816 82.2229 337.954 82.0844 337.954 81.9136V81.4039C337.954 81.2331 337.816 81.0946 337.646 81.0946H312.651C312.481 81.0946 312.343 81.2331 312.343 81.4039V81.9136C312.343 82.0844 312.481 82.2229 312.651 82.2229ZM337.646 82.5093H312.651C312.323 82.5093 312.057 82.2426 312.057 81.9136V81.4039C312.057 81.0749 312.323 80.8082 312.651 80.8082H337.646C337.974 80.8082 338.24 81.0749 338.24 81.4039V81.9136C338.24 82.2426 337.974 82.5093 337.646 82.5093Z" fill="#333333"/>
<path d="M331.403 86.9941H350.263C350.591 86.9941 350.857 86.7275 350.857 86.3985V85.8887C350.857 85.5598 350.591 85.2931 350.263 85.2931H331.403C331.075 85.2931 330.809 85.5598 330.809 85.8887V86.3985C330.809 86.7275 331.075 86.9941 331.403 86.9941Z" fill="#E5E5E5"/>
<path fill-rule="evenodd" clip-rule="evenodd" d="M331.403 86.7078H350.263C350.434 86.7078 350.572 86.5693 350.572 86.3985V85.8887C350.572 85.7179 350.434 85.5795 350.263 85.5795H331.403C331.233 85.5795 331.094 85.7179 331.094 85.8887V86.3985C331.094 86.5693 331.233 86.7078 331.403 86.7078ZM350.263 86.9941H331.403C331.075 86.9941 330.809 86.7275 330.809 86.3985V85.8887C330.809 85.5598 331.075 85.2931 331.403 85.2931H350.263C350.591 85.2931 350.857 85.5598 350.857 85.8887V86.3985C350.857 86.7275 350.591 86.9941 350.263 86.9941Z" fill="#333333"/>
<path d="M312.645 86.9941H327.285C327.613 86.9941 327.879 86.7275 327.879 86.3985V85.8887C327.879 85.5598 327.613 85.2931 327.285 85.2931H312.645C312.317 85.2931 312.051 85.5598 312.051 85.8887V86.3985C312.051 86.7275 312.317 86.9941 312.645 86.9941Z" fill="#E5E5E5"/>
<path fill-rule="evenodd" clip-rule="evenodd" d="M312.645 86.7078H327.285C327.455 86.7078 327.593 86.5693 327.593 86.3985V85.8887C327.593 85.7179 327.455 85.5795 327.285 85.5795H312.645C312.475 85.5795 312.337 85.7179 312.337 85.8887V86.3985C312.337 86.5693 312.475 86.7078 312.645 86.7078ZM327.285 86.9941H312.645C312.317 86.9941 312.051 86.7275 312.051 86.3985V85.8887C312.051 85.5598 312.317 85.2931 312.645 85.2931H327.285C327.613 85.2931 327.879 85.5598 327.879 85.8887V86.3985C327.879 86.7275 327.613 86.9941 327.285 86.9941Z" fill="#333333"/>
<path d="M312.645 91.4731H350.269C350.597 91.4731 350.863 91.2065 350.863 90.8775V90.3677C350.863 90.0388 350.597 89.7721 350.269 89.7721H312.645C312.317 89.7721 312.051 90.0388 312.051 90.3677V90.8775C312.051 91.2065 312.317 91.4731 312.645 91.4731Z" fill="#E5E5E5"/>
<path fill-rule="evenodd" clip-rule="evenodd" d="M312.645 91.1868H350.269C350.439 91.1868 350.577 91.0483 350.577 90.8775V90.3677C350.577 90.1969 350.439 90.0585 350.269 90.0585H312.645C312.475 90.0585 312.337 90.1969 312.337 90.3677V90.8775C312.337 91.0483 312.475 91.1868 312.645 91.1868ZM350.269 91.4731H312.645C312.317 91.4731 312.051 91.2065 312.051 90.8775V90.3677C312.051 90.0388 312.317 89.7721 312.645 89.7721H350.269C350.597 89.7721 350.863 90.0388 350.863 90.3677V90.8775C350.863 91.2065 350.597 91.4731 350.269 91.4731Z" fill="#333333"/>
<path d="M147.935 104.016C147.935 103.858 148.063 103.73 148.221 103.73H160.786C160.944 103.73 161.072 103.858 161.072 104.016C161.072 104.175 160.944 104.303 160.786 104.303H148.221C148.063 104.303 147.935 104.175 147.935 104.016Z" fill="#9F9F9F"/>
<path d="M246 110.286C246 110.128 246.128 110 246.286 110H277.7C277.858 110 277.986 110.128 277.986 110.286C277.986 110.445 277.858 110.573 277.7 110.573H246.286C246.128 110.573 246 110.445 246 110.286Z" fill="#6B6B6B"/>
<path d="M36 71.5727C36 71.2564 36.2557 71 36.5712 71H130.244C130.56 71 130.815 71.2564 130.815 71.5727C130.815 71.8891 130.56 72.1455 130.244 72.1455H36.5712C36.2557 72.1455 36 71.8891 36 71.5727Z" fill="#6B6B6B"/>
<path d="M170 104.286C170 104.128 170.128 104 170.286 104H191.419C191.577 104 191.705 104.128 191.705 104.286C191.705 104.445 191.577 104.573 191.419 104.573H170.286C170.128 104.573 170 104.445 170 104.286Z" fill="#9F9F9F"/>
<path d="M288 110.286C288 110.128 288.128 110 288.286 110H311.133C311.29 110 311.418 110.128 311.418 110.286C311.418 110.445 311.29 110.573 311.133 110.573H288.286C288.128 110.573 288 110.445 288 110.286Z" fill="#6B6B6B"/>
<path d="M36 78.2864C36 78.1282 36.1279 78 36.2856 78H81.4086C81.5663 78 81.6942 78.1282 81.6942 78.2864C81.6942 78.4445 81.5663 78.5728 81.4086 78.5728H36.2856C36.1279 78.5728 36 78.4445 36 78.2864Z" fill="#6B6B6B"/>
<path d="M170 107.723C170 107.565 170.128 107.437 170.286 107.437H202.843C203 107.437 203.128 107.565 203.128 107.723C203.128 107.881 203 108.009 202.843 108.009H170.286C170.128 108.009 170 107.881 170 107.723Z" fill="#9F9F9F"/>
<path d="M288 113.15C288 112.992 288.128 112.864 288.286 112.864H323.127C323.285 112.864 323.413 112.992 323.413 113.15C323.413 113.308 323.285 113.437 323.127 113.437H288.286C288.128 113.437 288 113.308 288 113.15Z" fill="#6B6B6B"/>
<path d="M94 78.2864C94 78.1282 94.1279 78 94.2856 78H123.416C123.573 78 123.701 78.1282 123.701 78.2864C123.701 78.4445 123.573 78.5728 123.416 78.5728H94.2856C94.1279 78.5728 94 78.4445 94 78.2864Z" fill="#6B6B6B"/>
<path d="M170 114.595C170 114.437 170.128 114.309 170.286 114.309H202.272C202.429 114.309 202.557 114.437 202.557 114.595C202.557 114.754 202.429 114.882 202.272 114.882H170.286C170.128 114.882 170 114.754 170 114.595Z" fill="#9F9F9F"/>
<path d="M288 119.45C288 119.292 288.128 119.164 288.286 119.164H322.556C322.714 119.164 322.842 119.292 322.842 119.45C322.842 119.609 322.714 119.737 322.556 119.737H288.286C288.128 119.737 288 119.609 288 119.45Z" fill="#6B6B6B"/>
<path d="M94 81.2864C94 81.1282 94.1279 81 94.2856 81H139.409C139.566 81 139.694 81.1282 139.694 81.2864C139.694 81.4445 139.566 81.5728 139.409 81.5728H94.2856C94.1279 81.5728 94 81.4445 94 81.2864Z" fill="#6B6B6B"/>
<path d="M170 121.469C170 121.31 170.128 121.182 170.286 121.182H200.558C200.716 121.182 200.844 121.31 200.844 121.469C200.844 121.627 200.716 121.755 200.558 121.755H170.286C170.128 121.755 170 121.627 170 121.469Z" fill="#9F9F9F"/>
<path d="M288 125.751C288 125.593 288.128 125.464 288.286 125.464H320.843C321 125.464 321.128 125.593 321.128 125.751C321.128 125.909 321 126.037 320.843 126.037H288.286C288.128 126.037 288 125.909 288 125.751Z" fill="#6B6B6B"/>
<path d="M95 88.2864C95 88.1282 95.1279 88 95.2856 88H139.266C139.424 88 139.552 88.1282 139.552 88.2864C139.552 88.4445 139.424 88.5728 139.266 88.5728H95.2856C95.1279 88.5728 95 88.4445 95 88.2864Z" fill="#6B6B6B"/>
<path d="M170 128.342C170 128.183 170.128 128.055 170.286 128.055H202.843C203 128.055 203.128 128.183 203.128 128.342C203.128 128.5 203 128.628 202.843 128.628H170.286C170.128 128.628 170 128.5 170 128.342Z" fill="#9F9F9F"/>
<path d="M288 132.051C288 131.893 288.128 131.765 288.286 131.765H323.127C323.285 131.765 323.413 131.893 323.413 132.051C323.413 132.209 323.285 132.337 323.127 132.337H288.286C288.128 132.337 288 132.209 288 132.051Z" fill="#6B6B6B"/>
<path d="M288 134.915C288 134.757 288.128 134.628 288.286 134.628H323.127C323.285 134.628 323.413 134.757 323.413 134.915C323.413 135.073 323.285 135.201 323.127 135.201H288.286C288.128 135.201 288 135.073 288 134.915Z" fill="#6B6B6B"/>
<path d="M170 131.778C170 131.62 170.128 131.492 170.286 131.492H202.843C203 131.492 203.128 131.62 203.128 131.778C203.128 131.936 203 132.064 202.843 132.064H170.286C170.128 132.064 170 131.936 170 131.778Z" fill="#9F9F9F"/>
<path d="M97 95.2864C97 95.1282 97.1279 95 97.2856 95H139.553C139.71 95 139.838 95.1282 139.838 95.2864C139.838 95.4445 139.71 95.5727 139.553 95.5727H97.2856C97.1279 95.5727 97 95.4445 97 95.2864Z" fill="#6B6B6B"/>
<path d="M92 102.286C92 102.128 92.1279 102 92.2856 102H137.409C137.566 102 137.694 102.128 137.694 102.286C137.694 102.445 137.566 102.573 137.409 102.573H92.2856C92.1279 102.573 92 102.445 92 102.286Z" fill="#6B6B6B"/>
<path d="M170 124.905C170 124.747 170.128 124.619 170.286 124.619H202.843C203 124.619 203.128 124.747 203.128 124.905C203.128 125.063 203 125.191 202.843 125.191H170.286C170.128 125.191 170 125.063 170 124.905Z" fill="#9F9F9F"/>
<path d="M288 128.614C288 128.456 288.128 128.328 288.286 128.328H323.127C323.285 128.328 323.413 128.456 323.413 128.614C323.413 128.773 323.285 128.901 323.127 128.901H288.286C288.128 128.901 288 128.773 288 128.614Z" fill="#6B6B6B"/>
<path d="M92 105.286C92 105.128 92.1279 105 92.2856 105H137.409C137.566 105 137.694 105.128 137.694 105.286C137.694 105.445 137.566 105.573 137.409 105.573H92.2856C92.1279 105.573 92 105.445 92 105.286Z" fill="#6B6B6B"/>
<path d="M170 111.159C170 111.001 170.128 110.873 170.286 110.873H197.702C197.86 110.873 197.988 111.001 197.988 111.159C197.988 111.317 197.86 111.445 197.702 111.445H170.286C170.128 111.445 170 111.317 170 111.159Z" fill="#9F9F9F"/>
<path d="M288 116.587C288 116.429 288.128 116.3 288.286 116.3H317.416C317.573 116.3 317.701 116.429 317.701 116.587C317.701 116.745 317.573 116.873 317.416 116.873H288.286C288.128 116.873 288 116.745 288 116.587Z" fill="#6B6B6B"/>
<path d="M94 98.2864C94 98.1282 94.1279 98 94.2856 98H132.554C132.712 98 132.84 98.1282 132.84 98.2864C132.84 98.4445 132.712 98.5728 132.554 98.5728H94.2856C94.1279 98.5728 94 98.4445 94 98.2864Z" fill="#6B6B6B"/>
<path d="M147.935 107.453C147.935 107.295 148.063 107.167 148.221 107.167H160.786C160.944 107.167 161.072 107.295 161.072 107.453C161.072 107.611 160.944 107.739 160.786 107.739H148.221C148.063 107.739 147.935 107.611 147.935 107.453Z" fill="#9F9F9F"/>
<path d="M246 113.15C246 112.992 246.128 112.864 246.286 112.864H277.7C277.858 112.864 277.986 112.992 277.986 113.15C277.986 113.308 277.858 113.437 277.7 113.437H246.286C246.128 113.437 246 113.308 246 113.15Z" fill="#6B6B6B"/>
<path d="M94 85.2864C94 85.1282 94.1279 85 94.2856 85H132.554C132.712 85 132.84 85.1282 132.84 85.2864C132.84 85.4445 132.712 85.5728 132.554 85.5728H94.2856C94.1279 85.5728 94 85.4445 94 85.2864Z" fill="#6B6B6B"/>
<path d="M128 121.286C128 121.128 128.128 121 128.286 121H154.56C154.717 121 154.845 121.128 154.845 121.286C154.845 121.445 154.717 121.573 154.56 121.573H128.286C128.128 121.573 128 121.445 128 121.286Z" fill="#9F9F9F"/>
<path d="M246 125.751C246 125.593 246.128 125.464 246.286 125.464H278.272C278.429 125.464 278.557 125.593 278.557 125.751C278.557 125.909 278.429 126.037 278.272 126.037H246.286C246.128 126.037 246 125.909 246 125.751Z" fill="#6B6B6B"/>
<path d="M36 81.7229C36 81.5647 36.1279 81.4365 36.2856 81.4365H79.1239C79.2816 81.4365 79.4095 81.5647 79.4095 81.7229C79.4095 81.8811 79.2816 82.0093 79.1239 82.0093H36.2856C36.1279 82.0093 36 81.8811 36 81.7229Z" fill="#6B6B6B"/>
<path d="M128 124.723C128 124.565 128.128 124.437 128.286 124.437H156.844C157.002 124.437 157.13 124.565 157.13 124.723C157.13 124.881 157.002 125.009 156.844 125.009H128.286C128.128 125.009 128 124.881 128 124.723Z" fill="#9F9F9F"/>
<path d="M246 128.614C246 128.456 246.128 128.328 246.286 128.328H276.558C276.716 128.328 276.844 128.456 276.844 128.614C276.844 128.773 276.716 128.901 276.558 128.901H246.286C246.128 128.901 246 128.773 246 128.614Z" fill="#6B6B6B"/>
<path d="M36 95.469C36 95.3108 36.1279 95.1826 36.2856 95.1826H61.4174C61.5751 95.1826 61.703 95.3108 61.703 95.469C61.703 95.6271 61.5751 95.7554 61.4174 95.7554H36.2856C36.1279 95.7554 36 95.6271 36 95.469Z" fill="#6B6B6B"/>
<path d="M128 128.159C128 128.001 128.128 127.873 128.286 127.873H160.272C160.429 127.873 160.557 128.001 160.557 128.159C160.557 128.318 160.429 128.446 160.272 128.446H128.286C128.128 128.446 128 128.318 128 128.159Z" fill="#9F9F9F"/>
<path d="M246 132.051C246 131.893 246.128 131.765 246.286 131.765H276.558C276.716 131.765 276.844 131.893 276.844 132.051C276.844 132.209 276.716 132.337 276.558 132.337H246.286C246.128 132.337 246 132.209 246 132.051Z" fill="#6B6B6B"/>
<path d="M36 98.9055C36 98.7474 36.1279 98.6191 36.2856 98.6191H63.1309C63.2887 98.6191 63.4165 98.7474 63.4165 98.9055C63.4165 99.0637 63.2887 99.1919 63.1309 99.1919H36.2856C36.1279 99.1919 36 99.0637 36 98.9055Z" fill="#6B6B6B"/>
<path d="M128 131.596C128 131.438 128.128 131.31 128.286 131.31H160.272C160.429 131.31 160.557 131.438 160.557 131.596C160.557 131.754 160.429 131.882 160.272 131.882H128.286C128.128 131.882 128 131.754 128 131.596Z" fill="#9F9F9F"/>
<path d="M246 134.915C246 134.757 246.128 134.628 246.286 134.628H276.558C276.716 134.628 276.844 134.757 276.844 134.915C276.844 135.073 276.716 135.201 276.558 135.201H246.286C246.128 135.201 246 135.073 246 134.915Z" fill="#6B6B6B"/>
<path d="M36 102.342C36 102.184 36.1279 102.056 36.2856 102.056H66.558C66.7157 102.056 66.8436 102.184 66.8436 102.342C66.8436 102.5 66.7157 102.628 66.558 102.628H36.2856C36.1279 102.628 36 102.5 36 102.342Z" fill="#6B6B6B"/>
<path d="M147.935 110.889C147.935 110.731 148.063 110.603 148.221 110.603H160.786C160.944 110.603 161.072 110.731 161.072 110.889C161.072 111.047 160.944 111.175 160.786 111.175H148.221C148.063 111.175 147.935 111.047 147.935 110.889Z" fill="#9F9F9F"/>
<path d="M246 116.587C246 116.429 246.128 116.3 246.286 116.3H277.7C277.858 116.3 277.986 116.429 277.986 116.587C277.986 116.745 277.858 116.873 277.7 116.873H246.286C246.128 116.873 246 116.745 246 116.587Z" fill="#6B6B6B"/>
<path d="M36 105.779C36 105.62 36.1279 105.492 36.2856 105.492H67.1292C67.2869 105.492 67.4148 105.62 67.4148 105.779C67.4148 105.937 67.2869 106.065 67.1292 106.065H36.2856C36.1279 106.065 36 105.937 36 105.779Z" fill="#6B6B6B"/>
<path d="M147.935 114.325C147.935 114.167 148.063 114.039 148.221 114.039H158.502C158.66 114.039 158.787 114.167 158.787 114.325C158.787 114.484 158.66 114.612 158.502 114.612H148.221C148.063 114.612 147.935 114.484 147.935 114.325Z" fill="#9F9F9F"/>
<path d="M246 119.45C246 119.292 246.128 119.164 246.286 119.164H271.417C271.575 119.164 271.703 119.292 271.703 119.45C271.703 119.609 271.575 119.737 271.417 119.737H246.286C246.128 119.737 246 119.609 246 119.45Z" fill="#6B6B6B"/>
<path d="M36 85.1594C36 85.0013 36.1279 84.873 36.2856 84.873H67.1292C67.2869 84.873 67.4148 85.0013 67.4148 85.1594C67.4148 85.3176 67.2869 85.4458 67.1292 85.4458H36.2856C36.1279 85.4458 36 85.3176 36 85.1594Z" fill="#6B6B6B"/>
<path d="M36 88.5959C36 88.4378 36.1279 88.3096 36.2856 88.3096H63.1309C63.2887 88.3096 63.4165 88.4378 63.4165 88.5959C63.4165 88.7541 63.2887 88.8823 63.1309 88.8823H36.2856C36.1279 88.8823 36 88.7541 36 88.5959Z" fill="#6B6B6B"/>
<path d="M245 58.5C245 61.9612 245.997 65.3446 247.865 68.2225C249.733 71.1003 252.388 73.3433 255.494 74.6679C258.601 75.9924 262.019 76.339 265.317 75.6637C268.614 74.9885 271.643 73.3218 274.021 70.8744C276.398 68.4269 278.017 65.3087 278.673 61.9141C279.329 58.5194 278.993 55.0007 277.706 51.803C276.419 48.6053 274.24 45.8722 271.445 43.9493C268.649 42.0264 265.362 41 262 41C257.495 41.0116 253.177 42.859 249.992 46.1384C246.806 49.4178 245.011 53.8623 245 58.5ZM263.008 47.975V59.0625L271.344 67.975C271.464 68.0918 271.56 68.2328 271.626 68.3892C271.691 68.5455 271.725 68.7141 271.725 68.8844C271.725 69.0547 271.691 69.2232 271.626 69.3796C271.56 69.536 271.464 69.6769 271.344 69.7937C271.104 70.0309 270.783 70.1607 270.451 70.1548C270.119 70.149 269.803 70.0079 269.571 69.7625L260.853 60.475C260.629 60.232 260.505 59.9097 260.506 59.575V47.975C260.506 47.6335 260.638 47.3061 260.873 47.0646C261.107 46.8231 261.425 46.6875 261.757 46.6875C262.089 46.6875 262.407 46.8231 262.642 47.0646C262.876 47.3061 263.008 47.6335 263.008 47.975Z" fill="#808080"/>
<path d="M242.297 58.8724C242.297 62.7801 243.452 66.6 245.617 69.8491C247.782 73.0983 250.859 75.6306 254.46 77.126C258.06 78.6215 262.022 79.0127 265.844 78.2504C269.666 77.488 273.177 75.6063 275.932 72.8431C278.688 70.08 280.565 66.5595 281.325 62.7269C282.085 58.8943 281.695 54.9217 280.204 51.3115C278.712 47.7012 276.187 44.6155 272.947 42.4445C269.706 40.2735 265.897 39.1147 262 39.1147C256.774 39.1147 251.763 41.1963 248.068 44.9016C244.372 48.6069 242.297 53.6323 242.297 58.8724ZM278.631 58.8724C278.631 62.166 277.657 65.3857 275.832 68.1243C274.007 70.8629 271.414 72.9973 268.379 74.2578C265.344 75.5182 262.005 75.848 258.784 75.2054C255.562 74.5629 252.603 72.9768 250.281 70.6478C247.958 68.3189 246.376 65.3516 245.735 62.1212C245.095 58.8909 245.424 55.5425 246.681 52.4995C247.938 49.4566 250.066 46.8557 252.797 45.0259C255.528 43.196 258.739 42.2193 262.024 42.2193C266.425 42.2303 270.643 43.9884 273.755 47.109C276.867 50.2297 278.62 54.4591 278.631 58.8724Z" fill="#555555"/>
<path d="M262 78.9274C258.044 78.9274 254.178 77.7512 250.889 75.5475C247.6 73.3439 245.036 70.2117 243.522 66.5471C242.009 62.8825 241.613 58.8501 242.384 54.9599C243.156 51.0696 245.061 47.4961 247.858 44.6914C250.655 41.8866 254.219 39.9766 258.098 39.2027C261.978 38.4289 265.999 38.8261 269.654 40.344C273.308 41.8619 276.432 44.4324 278.629 47.7304C280.827 51.0285 282 54.9059 282 58.8724C281.994 64.1894 279.885 69.2868 276.135 73.0465C272.386 76.8062 267.302 78.9211 262 78.9274ZM262 39.4121C258.162 39.4121 254.41 40.5535 251.218 42.6918C248.027 44.8301 245.539 47.8694 244.07 51.4253C242.602 54.9812 242.217 58.894 242.966 62.6689C243.715 66.4438 245.563 69.9113 248.277 72.6329C250.991 75.3544 254.449 77.2079 258.214 77.9587C261.978 78.7096 265.881 78.3242 269.427 76.8513C272.973 75.3784 276.004 72.8842 278.136 69.6839C280.269 66.4837 281.407 62.7213 281.407 58.8724C281.401 53.7131 279.354 48.767 275.716 45.1189C272.078 41.4707 267.145 39.4184 262 39.4121ZM262 75.8466C258.652 75.8466 255.379 74.8511 252.596 72.9859C249.812 71.1208 247.642 68.4698 246.361 65.3681C245.08 62.2665 244.744 58.8536 245.398 55.5609C246.051 52.2682 247.663 49.2437 250.03 46.8698C252.398 44.4959 255.414 42.8793 258.698 42.2244C261.981 41.5694 265.385 41.9055 268.478 43.1903C271.571 44.475 274.215 46.6506 276.075 49.442C277.935 52.2334 278.928 55.5152 278.928 58.8724C278.923 63.3728 277.138 67.6875 273.964 70.8697C270.791 74.052 266.488 75.8419 262 75.8466ZM262 42.493C258.769 42.493 255.611 43.4536 252.925 45.2534C250.239 47.0532 248.145 49.6113 246.909 52.6043C245.673 55.5972 245.349 58.8906 245.979 62.0679C246.61 65.2452 248.165 68.1637 250.45 70.4544C252.734 72.7451 255.645 74.3051 258.813 74.9371C261.982 75.5691 265.266 75.2448 268.251 74.005C271.236 72.7653 273.787 70.6659 275.582 67.9723C277.377 65.2787 278.335 62.1119 278.335 58.8724C278.33 54.5297 276.607 50.3663 273.545 47.2956C270.483 44.2249 266.331 42.4977 262 42.493Z" fill="#333333"/>
<path d="M365.152 89.2476H362.291V92.1113H365.152V89.2476Z" fill="#EDEDED"/>
<path d="M362.079 89.0356H365.364V92.329H362.074L362.079 89.0356ZM364.935 89.4595H362.508V91.8994H364.941L364.935 89.4595Z" fill="#333333"/>
<path d="M357.995 83.9665C358.139 83.8995 358.123 83.9598 358.281 83.9665C358.439 83.9732 358.743 83.7632 358.881 83.8421C358.922 82.5695 359.45 81.3633 360.352 80.4781C361.255 79.593 362.46 79.0981 363.715 79.0981C364.97 79.0981 366.176 79.593 367.078 80.4781C367.98 81.3633 368.508 82.5695 368.55 83.8421C368.688 83.7632 368.842 83.7186 369.001 83.7119C369.159 83.7052 369.275 83.8995 369.419 83.9665C369.67 84.1689 370.108 84.2894 370.178 84.6068C370.497 85.112 370.319 85.599 370.178 85.8906C370.036 86.1822 369.71 86.4072 369.419 86.5439C369.128 86.6805 368.562 86.5439 368.247 86.299C368.173 86.2595 368.34 86.5994 368.277 86.5439C368.277 87.71 367.584 88.4406 366.772 89.2652C365.959 90.0899 364.857 90.5531 363.707 90.5531C362.558 90.5531 361.456 90.0899 360.643 89.2652C359.83 88.4406 359.423 87.4237 359.423 86.2575C359.36 86.313 359.394 86.5024 359.138 86.5439C358.822 87.0751 358.286 86.6805 357.995 86.5439C357.705 86.4072 357.6 86.2627 357.458 85.9711C357.316 85.6795 357.388 84.9241 357.458 84.6068C357.528 84.2894 357.72 84.1689 357.97 83.9665H357.995Z" fill="#EDEDED"/>
<path d="M359.115 86.9219C358.74 87.0464 358.332 87.0226 357.975 86.8555C357.617 86.6883 357.336 86.3904 357.19 86.0227C357.08 85.814 357.013 85.5854 356.993 85.3504C356.972 85.1153 356.998 84.8785 357.07 84.6538C357.117 84.4973 357.196 84.352 357.301 84.227C357.406 84.1019 357.536 83.9996 357.681 83.9264C357.943 83.7997 358.241 83.7712 358.521 83.8462C358.555 82.529 359.09 81.2747 360.017 80.341C361.055 79.3728 362.419 78.8345 363.836 78.8345C365.253 78.8345 366.617 79.3728 367.654 80.341C368.581 81.2747 369.117 82.529 369.151 83.8462C369.45 83.7629 369.77 83.8009 370.041 83.952C370.312 84.1031 370.514 84.3552 370.601 84.6538C370.673 84.8785 370.699 85.1153 370.679 85.3504C370.658 85.5854 370.591 85.814 370.481 86.0227C370.335 86.3904 370.055 86.6883 369.697 86.8555C369.339 87.0226 368.931 87.0464 368.557 86.9219C368.345 88.0105 367.767 88.9934 366.92 89.7064C366.073 90.4194 365.007 90.8193 363.901 90.8395H363.776C362.669 90.8206 361.602 90.4213 360.754 89.7082C359.905 88.9951 359.327 88.0115 359.115 86.9219ZM363.896 90.4099C364.956 90.3904 365.973 89.9881 366.761 89.2769C367.549 88.5656 368.055 87.5932 368.185 86.5382L368.242 86.1372L368.539 86.4064C368.592 86.4517 368.649 86.4902 368.711 86.521C368.986 86.602 369.281 86.5763 369.539 86.449C369.796 86.3217 369.996 86.102 370.099 85.8337C370.266 85.5125 370.303 85.139 370.202 84.7913C370.136 84.5847 369.993 84.4121 369.802 84.3102C369.68 84.2536 369.546 84.2273 369.412 84.2332C369.278 84.2392 369.147 84.2774 369.031 84.3445L368.711 84.3102L368.705 84.1441C368.727 83.4978 368.617 82.8539 368.381 82.2521C368.145 81.6502 367.789 81.1032 367.334 80.6446C366.378 79.7566 365.122 79.2633 363.819 79.2633C362.515 79.2633 361.26 79.7566 360.303 80.6446C359.848 81.103 359.492 81.65 359.256 82.2519C359.02 82.8538 358.91 83.4978 358.932 84.1441L358.852 84.3445H358.607C358.49 84.2774 358.359 84.2392 358.225 84.2332C358.091 84.2273 357.957 84.2536 357.836 84.3102C357.645 84.4121 357.501 84.5847 357.436 84.7913C357.334 85.139 357.371 85.5127 357.539 85.8337C357.642 86.102 357.842 86.3217 358.099 86.449C358.356 86.5763 358.651 86.602 358.927 86.521C358.987 86.4915 359.043 86.4529 359.092 86.4064L359.395 86.1372L359.452 86.5382C359.584 87.5937 360.091 88.5662 360.88 89.2773C361.668 89.9885 362.687 90.3906 363.747 90.4099H363.861H363.896Z" fill="#333333"/>
<path d="M367.323 77.9242C367.323 77.9242 365.883 76.71 362.622 76.9047C359.361 77.0994 358.732 78.812 358.544 81.2519L358.738 84.1557C359.55 83.1603 360.209 82.0482 360.691 80.8567C360.691 80.8567 362.519 82.9128 363.313 82.6723C364.107 82.4317 363.016 80.954 363.016 80.954C363.016 80.954 366.74 84.1729 368.934 84.1671C368.934 84.1671 370.076 80.4042 368.465 79.0124C368.465 79.0124 369.693 79.0697 369.756 78.8291C369.819 78.5886 369.185 78.222 367.991 78.3595C367.991 78.3595 368.831 76.71 368.362 76.5381C367.894 76.3663 367.323 77.9242 367.323 77.9242Z" fill="#7C7C7C"/>
<path d="M358.51 84.8142L358.281 81.2689C358.481 78.5311 359.281 76.8186 362.622 76.6181C365.124 76.4692 366.62 77.1279 367.191 77.4887C367.471 76.8358 367.928 76.074 368.465 76.2688C368.53 76.2931 368.59 76.3313 368.639 76.3808C368.688 76.4302 368.726 76.4896 368.751 76.5551C368.814 77.07 368.712 77.5917 368.459 78.0443C368.987 77.9909 369.514 78.1472 369.927 78.4796C369.979 78.5358 370.016 78.6037 370.036 78.6775C370.056 78.7512 370.058 78.8288 370.042 78.9034C370.007 79.018 369.945 79.2585 369.099 79.3043C370.19 81.0226 369.259 84.0925 369.213 84.2414L369.151 84.4419H368.934C367.369 84.4419 365.147 82.9527 363.861 81.9848C363.91 82.159 363.91 82.3433 363.861 82.5174C363.828 82.6203 363.769 82.713 363.69 82.7871C363.611 82.8611 363.515 82.9141 363.41 82.9413C362.645 83.1818 361.423 82.0363 360.783 81.3662C360.32 82.4459 359.705 83.4529 358.955 84.356L358.51 84.8142ZM361.268 79.0466L363.216 80.7305C363.25 80.7591 366.643 83.6687 368.739 83.8577C368.945 83.0673 369.556 80.2952 368.3 79.2299L367.66 78.6915H367.511L367.757 78.2161C367.993 77.7815 368.157 77.3115 368.242 76.8243C367.964 77.1797 367.75 77.5809 367.608 78.0099L367.466 78.3937L367.157 78.1302C367.157 78.1302 365.729 76.9847 362.656 77.1737C359.703 77.3513 359.041 78.743 358.847 81.2574L358.989 83.3708C359.551 82.5311 360.038 81.6438 360.446 80.719L360.629 80.3238L360.92 80.6503C361.742 81.5781 362.873 82.4945 363.25 82.3685C363.313 82.3685 363.319 82.3227 363.325 82.3055C363.405 82.0764 363.073 81.4521 362.799 81.0856L361.268 79.0466ZM367.683 78.6858L368.494 78.7258C368.743 78.7406 368.993 78.7406 369.242 78.7258C368.851 78.6225 368.443 78.5991 368.043 78.6571L367.683 78.6858Z" fill="#333333"/>
<rect x="256" y="47" width="16" height="24" fill="#808080"/>
<path d="M261.227 46C260.901 46 260.589 46.1387 260.359 46.3855C260.129 46.6323 260 46.967 260 47.316V59.1793C259.999 59.5214 260.12 59.8509 260.339 60.0992L268.872 69.5988C269.099 69.8496 269.409 69.9938 269.735 69.9998C270.061 70.0058 270.376 69.8731 270.611 69.6307C270.732 69.5125 270.829 69.3687 270.896 69.2084C270.963 69.0481 270.998 68.8747 271 68.699C271.002 68.5233 270.97 68.3492 270.906 68.1875C270.842 68.0257 270.747 67.8798 270.629 67.7589L262.453 58.6491V47.316C262.453 46.967 262.324 46.6323 262.094 46.3855C261.864 46.1387 261.552 46 261.227 46Z" fill="#333333"/>
</g>
<defs>
<filter id="filter0_d" x="222.305" y="94.2954" width="27.6013" height="20.0196" filterUnits="userSpaceOnUse" color-interpolation-filters="sRGB">
<feFlood flood-opacity="0" result="BackgroundImageFix"/>
<feColorMatrix in="SourceAlpha" type="matrix" values="0 0 0 0 0 0 0 0 0 0 0 0 0 0 0 0 0 0 127 0"/>
<feOffset dy="4"/>
<feColorMatrix type="matrix" values="0 0 0 0 0.333333 0 0 0 0 0.333333 0 0 0 0 0.333333 0 0 0 0.18 0"/>
<feBlend mode="normal" in2="BackgroundImageFix" result="effect1_dropShadow"/>
<feBlend mode="normal" in="SourceGraphic" in2="effect1_dropShadow" result="shape"/>
</filter>
<linearGradient id="paint0_linear" x1="219.614" y1="99.1729" x2="229.318" y2="114.407" gradientUnits="userSpaceOnUse">
<stop stop-color="#FFC671"/>
<stop offset="0.59375" stop-color="#FF7541"/>
<stop offset="1" stop-color="#FF6F3D"/>
</linearGradient>
<linearGradient id="paint1_linear" x1="228.048" y1="101.595" x2="237.718" y2="116.735" gradientUnits="userSpaceOnUse">
<stop stop-color="#FFC671"/>
<stop offset="0.59375" stop-color="#FF7541"/>
<stop offset="1" stop-color="#FF6F3D"/>
</linearGradient>
<linearGradient id="paint2_linear" x1="246.992" y1="95.8457" x2="246.992" y2="98.614" gradientUnits="userSpaceOnUse">
<stop stop-color="white"/>
<stop offset="1" stop-color="white"/>
</linearGradient>
<linearGradient id="paint3_linear" x1="4358.67" y1="3178.86" x2="6071.42" y2="3178.86" gradientUnits="userSpaceOnUse">
<stop stop-color="#FF7E46"/>
<stop offset="0.59" stop-color="#FF7541"/>
<stop offset="1" stop-color="#FF6F3D"/>
</linearGradient>
<clipPath id="clip0">
<rect width="377" height="124" fill="white" transform="translate(0 35)"/>
</clipPath>
</defs>
    </symbol>
</svg>
