<svg width="52" height="45" viewBox="0 0 52 45" fill="none" xmlns="http://www.w3.org/2000/svg">
    <path d="M23.4402 44.4485L3.28816 35.1802C1.57151 34.3711 1.57151 33.1206 3.28816 32.385L10.3041 29.1484L23.3656 35.1802C25.0823 35.9893 27.8438 35.9893 29.4859 35.1802L42.5474 29.1484L49.5633 32.385C51.2799 33.1941 51.2799 34.4446 49.5633 35.1802L29.4112 44.4485C27.8438 45.1841 25.0823 45.1841 23.4402 44.4485Z" fill="#FF6F3D"/>
    <path d="M23.4402 33.0468L3.28816 23.7785C1.57151 22.9694 1.57151 21.7189 3.28816 20.9833L10.1548 17.8203L23.4402 23.9256C25.1569 24.7348 27.9184 24.7348 29.5605 23.9256L42.8459 17.8203L49.7125 20.9833C51.4292 21.7924 51.4292 23.0429 49.7125 23.7785L29.5605 33.0468C27.8438 33.856 25.0822 33.856 23.4402 33.0468Z" fill="#95C038"/>
    <path d="M23.4396 21.9387L3.28749 12.6704C1.57084 11.8612 1.57084 10.6108 3.28749 9.87517L23.4396 0.606854C25.1562 -0.202285 27.9178 -0.202285 29.5598 0.606854L49.7119 9.87517C51.4285 10.6843 51.4285 11.9348 49.7119 12.6704L29.5598 21.9387C27.8432 22.6743 25.0816 22.6743 23.4396 21.9387Z" fill="#5DC0E8"/>
</svg>
