<svg xmlns="http://www.w3.org/2000/svg" width="443.343" height="218.909">
  <symbol id="logo__owncloud" viewBox="0 0 443.343 218.909">
    <circle cx="28.999" cy="189.908" r="21.999" fill="none" stroke="#1d2d44" stroke-width="4"/><circle cx="296.512" cy="189.908" r="22.001" fill="none" stroke="#1d2d44" stroke-width="4"/><path d="M67 167.703v30.074c0 7.801 6.324 14.123 14.123 14.123 7.803 0 14.125-6.322 14.125-14.123v-30.074M95.248 167.703v30.074c0 7.801 6.324 14.123 14.125 14.123s14.125-6.322 14.125-14.123v-30.074M251.265 127.699v70.078c0 7.801 6.322 14.123 14.123 14.123M140.004 211.906v-22.201c0-12.15 9.85-22 22-22 12.152 0 22.002 9.85 22.002 22v22.201M333.009 167.703v22.205c0 12.148 9.85 21.998 22 21.998s22.002-9.85 22.002-21.998v-22.205M234.833 141.576c-19.421 0-35.167 15.744-35.167 35.166 0 19.422 15.746 35.164 35.167 35.164M436.283 127.699v40.172-.979M421.923 211.894h-7.848c-12.15 0-22-9.85-22-21.998 0-12.15 9.85-22 22-22l22.207-.025s.137 22.342 0 29.895c-.138 7.552-7.968 14.128-14.359 14.128z" fill="none" stroke="#1d2d44" stroke-width="4"/><circle cx="220.181" cy="43.648" r="20.332" fill="#1d2d44" stroke="#fff" stroke-width="4"/><circle cx="182.898" cy="114.314" r="37.242" fill="#1d2d44" stroke="#fff" stroke-width="4"/><circle cx="224.912" cy="89.533" r="40.261" fill="#1d2d44" stroke="#fff" stroke-width="4"/><circle cx="307.021" cy="73.209" r="37.242" fill="#1d2d44" stroke="#fff" stroke-width="4"/><circle cx="266.18" cy="44.241" r="37.241" fill="#1d2d44" stroke="#fff" stroke-width="4"/><circle cx="390.114" cy="128.695" r="21.3" fill="#1d2d44" stroke="#fff" stroke-width="4"/><circle cx="344.85" cy="112.3" r="40.261" fill="#1d2d44" stroke="#fff" stroke-width="4"/><circle cx="222.449" cy="130.748" r="21.299" fill="#1d2d44" stroke="#fff" stroke-width="4"/><path d="M329.794 100.406c0 28.348-22.984 51.328-51.334 51.328s-51.333-22.98-51.333-51.328c0-28.351 22.984-51.333 51.333-51.333 28.349 0 51.334 22.982 51.334 51.333z" fill="#1d2d44" stroke="#fff" stroke-width="4"/>
  </symbol>
</svg>