<svg width="377" height="193" viewBox="0 0 377 193" fill="none" xmlns="http://www.w3.org/2000/svg">
    <path fill-rule="evenodd" clip-rule="evenodd" d="M309 74H188v-.006c-10.538-.266-19-8.892-19-19.494 0-10.77 8.73-19.5 19.5-19.5 3.522 0 6.826.934 9.678 2.567C202.197 28.402 211.351 22 222 22c2.754 0 5.408.428 7.899 1.221C235.456 10.16 248.409 1 263.5 1c15.617 0 28.943 9.807 34.155 23.6A25.891 25.891 0 0 1 309 22c14.359 0 26 11.64 26 26 0 13-9.54 23.77-22 25.694V74h-4ZM59.5 193H126c11.598 0 21-9.402 21-21s-9.402-21-21-21c-2.786 0-5.446.543-7.878 1.528C113.873 141.123 102.885 133 90 133c-15.56 0-28.354 11.847-29.853 27.012-.215-.008-.43-.012-.647-.012-9.113 0-16.5 7.387-16.5 16.5 0 8.945 7.119 16.228 16 16.493V193h.5Z" fill="#3B3B3B"/>
    <path d="M111 64.52V35.5m19 23.02V48m132 60V96m9 5V80" stroke="#444" stroke-width="2" stroke-miterlimit="10" stroke-linecap="round"/>
    <path d="M299.23 113.74s-21.04 27.51-61.89 12.54c-30.788-11.283-48.488-47.15-55.34-64.135l-12-5.188-64.75 29.073s17.8 58.25 58.66 73.22c40.86 14.97 61.29-21.89 61.29-21.89l74.03-23.62Z" fill="#666" stroke="#444" stroke-width="2" stroke-miterlimit="10" stroke-linecap="round" stroke-linejoin="round"/>
    <path d="m225.199 137.35 74.03-23.61s-5.26 6.47-18.64 13.22c-12.78 6.45-82.21 33.08-82.21 33.08s12.46-2.31 26.82-22.69Z" fill="#333" stroke="#444" stroke-width="2" stroke-miterlimit="10" stroke-linecap="round" stroke-linejoin="round"/>
    <path fill-rule="evenodd" clip-rule="evenodd" d="M95.557 110.998a1 1 0 0 1 1.174.789c.927 4.718 4.647 9.26 10.238 12.23 5.587 2.967 12.913 4.279 19.864 3.528a1 1 0 0 1 .215 1.989c-7.309.789-15.043-.578-21.017-3.751-5.969-3.17-10.189-8.149-11.262-13.611a1 1 0 0 1 .788-1.174Z" fill="#444"/>
    <path fill-rule="evenodd" clip-rule="evenodd" d="M86.832 107.275a1 1 0 0 1 1.413.078 11.353 11.353 0 0 0 6.088 3.498c.906.187 1.707.21 2.34-.047.635-.258.978-.841.933-1.242a1 1 0 0 1 1.988-.224c.175 1.559-.982 2.836-2.167 3.318-1.187.483-2.465.367-3.499.153h-.002a13.357 13.357 0 0 1-7.17-4.121 1.001 1.001 0 0 1 .076-1.413Z" fill="#444"/>
    <path fill-rule="evenodd" clip-rule="evenodd" d="M91.463 105.368a1 1 0 0 1 1.119.865c.248 1.934 1.499 3.72 3.23 4.62a1 1 0 1 1-.923 1.774c-2.31-1.2-3.96-3.554-4.29-6.14a1 1 0 0 1 .864-1.119Z" fill="#444"/>
    <path fill-rule="evenodd" clip-rule="evenodd" d="M95.22 105.921a1 1 0 0 1 .839 1.139 5.035 5.035 0 0 0 1.19 4.017 1 1 0 0 1-1.498 1.325 7.034 7.034 0 0 1-1.67-5.643 1 1 0 0 1 1.14-.838Zm114.66-42.424a1 1 0 0 1 1.333.473c2.641 5.554 3.018 11.944 1.043 17.714-1.975 5.766-6.273 10.84-11.895 14.1a1 1 0 1 1-1.003-1.73c5.239-3.038 9.2-7.745 11.005-13.018 1.805-5.27 1.462-11.12-.957-16.207a1 1 0 0 1 .474-1.332Z" fill="#444"/>
    <path fill-rule="evenodd" clip-rule="evenodd" d="M213.546 57.02a1 1 0 0 1 1.051.947c.115 2.18-.718 4.378-2.215 5.944a8.118 8.118 0 0 1-5.838 2.468 1 1 0 1 1 .01-2 6.117 6.117 0 0 0 4.382-1.85c1.123-1.175 1.749-2.837 1.664-4.457a1 1 0 0 1 .946-1.051Z" fill="#444"/>
    <path fill-rule="evenodd" clip-rule="evenodd" d="M208.359 58.641a1 1 0 0 1 1.409.128 5.048 5.048 0 0 1 1.149 3.54 4.998 4.998 0 0 1-1.641 3.345 1 1 0 1 1-1.333-1.49 3.003 3.003 0 0 0 .979-1.994 3.047 3.047 0 0 0-.691-2.12 1 1 0 0 1 .128-1.409Z" fill="#444"/>
    <path fill-rule="evenodd" clip-rule="evenodd" d="M210.638 57.312a1 1 0 0 1 1.328.486 7.598 7.598 0 0 1 .254 5.699 1 1 0 1 1-1.883-.675 5.599 5.599 0 0 0-.185-4.182 1 1 0 0 1 .486-1.328Z" fill="#444"/>
    <path d="M150.969 101.824c1.203-.426 1.776-1.903 1.281-3.298-.495-1.395-1.87-2.18-3.073-1.753-1.202.426-1.776 1.903-1.281 3.298.495 1.395 1.871 2.18 3.073 1.753Zm15.876-7.067c1.073-.69 1.292-2.26.49-3.504-.801-1.244-2.321-1.692-3.393-1.001-1.073.69-1.292 2.26-.49 3.504.802 1.244 2.321 1.692 3.393 1.001Zm3.633 11.181c-2.97-1.96-6.57-.49-9.37 1.14a20.376 20.376 0 0 0-6.97 6.78c-.86 1.38-1.55 3.12-.85 4.59.69 1.44 2.57 2.02 4.13 1.62 1.55-.4 2.8-1.55 3.79-2.8.99-1.25 1.8-2.66 2.88-3.84 1.39-1.53 3.22-2.66 5.22-3.22.91-.25 1.96-.48 2.41-1.31.55-1.04-.26-2.32-1.24-2.96Z" fill="#444"/>
    <path fill-rule="evenodd" clip-rule="evenodd" d="M134.53 82.904a1.5 1.5 0 0 1 .135 2.118c-1.504 1.708-2.076 4.214-1.47 6.41a1.5 1.5 0 1 1-2.892.797c-.874-3.165-.066-6.718 2.11-9.19a1.5 1.5 0 0 1 2.117-.135Zm27.929-9.704a6.54 6.54 0 0 0-4.049-.812 1.5 1.5 0 0 1-.382-2.976 9.54 9.54 0 0 1 5.931 1.189 1.5 1.5 0 0 1-1.5 2.598Z" fill="#444"/>
    <path d="m159.777 139.553 44-22m-35 29 44-22m-31.001 26L204 139" stroke="#333" stroke-width="2" stroke-linecap="round"/>
    <path d="m174.5 66-4.5-8.5 12 5-7.5 3.5Z" fill="#444"/>
</svg>
