<svg id="svg-update-status" width="28" height="28" viewBox="0 0 28 28" fill="none" xmlns="http://www.w3.org/2000/svg">
    <defs>
        <style>
        </style>
    </defs>
    <symbol id="error">
        <path d="M15 12v7h-1v-7h1Zm0-1v-1h-1v1h1Z"/>
        <path d="M14.5 25C20.299 25 25 20.299 25 14.5S20.299 4 14.5 4 4 8.701 4 14.5 8.701 25 14.5 25Zm0-1a9.5 9.5 0 1 1 0-19 9.5 9.5 0 0 1 0 19Z"/>
    </symbol>
    <symbol id="lastcheck">
        <path d="M14.493 23.095c4.75 0 8.602-3.848 8.602-8.595 0-4.747-3.851-8.595-8.601-8.595A8.586 8.586 0 0 0 7.883 9H11v1H6V5h1v3.654A9.492 9.492 0 0 1 14.493 5C19.743 5 24 9.253 24 14.5S19.744 24 14.493 24C9.412 24 5.26 20.014 5 15h.907a8.599 8.599 0 0 0 8.586 8.095Z"/>
        <path d="M14 8h1v6h3v1h-4V8Z"/>
    </symbol>
    <symbol id="load">
        <path d="M10.524 3.3A11.25 11.25 0 0 1 25.25 14h-1.5a9.75 9.75 0 1 0-6.737 9.273l.463 1.426a11.25 11.25 0 0 1-6.952-21.398Z"/>
    </symbol>
    <symbol id="success">
        <path d="M21.884 9.569 12.5 18.952l-5.384-5.384 1.768-1.767 3.616 3.616L20.116 7.8l1.768 1.768Z"/>
    </symbol>
</svg>