<svg id="svg-update-status" width="28" height="28" viewBox="0 0 28 28" fill="none" xmlns="http://www.w3.org/2000/svg">
  <defs>
        <style>
        </style>
    </defs>
  <symbol id="error">
    <path d="M15 12v7h-1v-7h1Zm0-1v-1h-1v1h1Z"/>
    <path d="M14.5 25C20.299 25 25 20.299 25 14.5S20.299 4 14.5 4 4 8.701 4 14.5 8.701 25 14.5 25Zm0-1a9.5 9.5 0 1 1 0-19 9.5 9.5 0 0 1 0 19Z"/>
  </symbol>
  <symbol id="lastcheck">
    <path d="M25 14.5C25 8.70101 20.299 4 14.5 4C11.562 4 8.90578 5.2067 7 7.15153V4H6V9H11V8L7.57176 8C9.30484 6.15346 11.7677 5 14.5 5C19.7467 5 24 9.25329 24 14.5C24 19.7467 19.7467 24 14.5 24C9.25329 24 5 19.7467 5 14.5C5 14.3323 5.00435 14.1656 5.01293 14H4.0117C4.00393 14.1657 4 14.3324 4 14.5C4 20.299 8.70101 25 14.5 25C20.299 25 25 20.299 25 14.5Z"/>
    <path d="M15 14L15 8H14L14 15H18V14H15Z"/>
  </symbol>
  <symbol id="load">
    <path d="M24 14.5C24 8.701 19.299 4 13.5 4S3 8.701 3 14.5c0 .168.004.334.012.5h1a9.5 9.5 0 1 1 9.487 9 9.5 9.5 0 0 1-2.788-.416l-.31.951c.98.302 2.02.465 3.099.465C19.299 25 24 20.299 24 14.5Z"/>
  </symbol>
  <symbol id="success">
    <path d="M21.884 9.569 12.5 18.952l-5.384-5.384 1.768-1.767 3.616 3.616L20.116 7.8l1.768 1.768Z"/>
  </symbol>
</svg>