<svg width="377" height="193" viewBox="0 0 377 193" fill="none" xmlns="http://www.w3.org/2000/svg"><g clip-path="url(#a)"><path d="m136.732 114.821 101.164-8.306-.707 68.17a4 4 0 0 1-3.666 3.945l-97.64 8.186.849-71.995Z" fill="#666"/><path d="m166.743 19.769 32.492 75.203a.998.998 0 0 1-.509 1.31l-62.312 27.9a.999.999 0 0 1-1.33-.524L99.627 39.394a1 1 0 0 1 .508-1.299l52.883-24.005 13.725 5.679Z" fill="#444" stroke="#AAA" stroke-width="2"/><path d="M113 71c1 5 1 14-4.5 17-3.459 1.886-7.667 1.333-9 1M95 90.5c.486.455.965 1.383 2.5 1 1.533-.384 1.5-1.5 2-2.5m77.501-45.5c1.522 2.413 6.244 7.663 12.5 8 3.934.212 7.5-2 8-4m3.5 0c-1.455.62-2.498.495-3.5 0" stroke="#AAA" stroke-width="2" stroke-linecap="round"/><rect x="127" y="81.954" width="52" height="2" rx="1" transform="rotate(-23.764 127 81.954)" fill="gray"/><rect x="151.383" y="77.774" width="28" height="2" rx="1" transform="rotate(-23.764 151.383 77.774)" fill="gray"/><rect x="153.801" y="83.266" width="28" height="2" rx="1" transform="rotate(-23.764 153.801 83.266)" fill="gray"/><rect x="134.254" y="98.428" width="52" height="2" rx="1" transform="rotate(-23.764 134.254 98.428)" fill="gray"/><rect x="136.672" y="103.919" width="52" height="2" rx="1" transform="rotate(-23.764 136.672 103.919)" fill="#9ADAF3"/><path d="m136.63 86.455-3.074 7.91 18.305-8.06-10.034-5.416-1.646 6.188-3.551-.622Z" fill="#9ADAF3"/><path d="M133.849 47.926c-.892-2.021-3.458-2.846-5.732-1.843-2.274 1.004-3.394 3.455-2.502 5.476m24.703-10.9c-.892-2.021-3.459-2.846-5.732-1.843-2.274 1.003-3.394 3.455-2.502 5.476" stroke="#AAA" stroke-width="2" stroke-linecap="round"/><path d="M135.975 60.543c2.938 1.757 6.537 2.142 9.77.715 3.232-1.426 5.374-4.344 6.056-7.699.149-.733-.603-1.265-1.288-.963l-14.381 6.346c-.685.303-.8 1.216-.157 1.6ZM153 13l14.5 6-1.5 1.5-9.5 4.5-3.5-9.5V13Z" fill="#AAA"/><path d="M228.228 172.603a9 9 0 0 0 3.096 5.099l-104.038 9.224a2.998 2.998 0 0 1-3.184-2.299l-15.767-66.791a3 3 0 0 1 2.507-3.661l33.08-4.592a.998.998 0 0 1 .797.239l6.735 5.915a5 5 0 0 0 3.909 1.206l56.85-6.982a3 3 0 0 1 3.301 2.359l12.714 60.283Z" fill="#333" stroke="#666" stroke-width="2"/><g filter="url(#b)"><path d="m274.409 80.993-33.669 75.7a1 1 0 0 1-1.318.509l-62.188-27.517a1.001 1.001 0 0 1-.51-1.32l37.222-84.121a1.001 1.001 0 0 1 1.325-.508l53.464 24.016 5.674 13.24Z" fill="#4A4A4A" stroke="#AAA" stroke-width="2"/><path d="m202.9 118.905-9.628 4.506 22.885 10.062-3.811-13.692-6.992 3.48-2.454-4.356Z" fill="#FF6F3D"/><rect x="199.561" y="96.682" width="54" height="32" rx="3" transform="rotate(23.734 199.561 96.682)" stroke="gray" stroke-width="2"/><circle cx="205.974" cy="113.156" r="2.5" transform="rotate(23.734 205.974 113.156)" fill="#FF6F3D"/><rect x="202.125" y="103.271" width="25" height="2" rx="1" transform="rotate(23.734 202.125 103.271)" fill="#FF6F3D"/><rect x="225.746" y="119.119" width="16" height="2" rx="1" transform="rotate(23.734 225.746 119.119)" fill="gray"/><rect x="223.732" y="123.696" width="16" height="2" rx="1" transform="rotate(23.734 223.732 123.696)" fill="gray"/><rect x="221.721" y="128.273" width="16" height="2" rx="1" transform="rotate(23.734 221.721 128.273)" fill="gray"/><rect x="219.709" y="132.85" width="16" height="2" rx="1" transform="rotate(23.734 219.709 132.85)" fill="gray"/><path d="M223.698 85.629c.627 3.365 2.722 6.318 5.93 7.797 3.208 1.478 6.814 1.152 9.78-.557.649-.374.549-1.29-.131-1.603l-14.275-6.58c-.68-.313-1.441.207-1.304.943ZM269.5 67l6 14-2.31.605-9.79-3.828L268 68.5l1.5-1.5Z" fill="#AAA"/><circle cx="228.106" cy="72.973" r="3" transform="rotate(24.478 228.106 72.973)" fill="#AAA"/><circle cx="244.974" cy="80.713" r="3" transform="rotate(24.478 244.974 80.713)" fill="#AAA"/><path d="M199.047 77c-4.667 1.333-13.3 5.1-10.5 9.5 2.8 4.4 11.166 5.5 15 5.5m.453-.023c.544.855 2 2.41 3.473 1.785m56.603 11.546c2.184 4.334 5.27 13.233.137 14.159-5.133.925-11.614-4.479-14.213-7.296m-4-2.194c.544.855 2.527 2.648 4 2.023" stroke="#AAA" stroke-width="2" stroke-linecap="round"/></g><path d="M270.558 45.965a1 1 0 0 1-1.397.994l-7.542-3.291a1 1 0 0 1-.18-1.731l6.898-4.912a1 1 0 0 1 1.577.736l.644 8.204Zm-190 29a1 1 0 0 1-1.397.994l-7.542-3.291a1 1 0 0 1-.18-1.731l6.898-4.912a1 1 0 0 1 1.576.736l.645 8.204Z" fill="#F36700"/><path d="M263.594 175.89a.999.999 0 0 1-1.462-.895l.072-8.229a1 1 0 0 1 1.522-.844l7.223 4.421a1 1 0 0 1-.06 1.739l-7.295 3.808ZM210.558 13.965a1 1 0 0 1-1.397.994l-7.542-3.291a1 1 0 0 1-.18-1.731l6.898-4.912a1 1 0 0 1 1.577.736l.644 8.204Z" fill="#95C03D"/><path d="M246.534 10.921a1 1 0 0 1-1.44-.931l.278-8.225a1 1 0 0 1 1.543-.806l7.109 4.6a1 1 0 0 1-.102 1.737l-7.388 3.625ZM89.559 149.87a1 1 0 0 1-1.592.639l-6.559-4.969a1 1 0 0 1 .231-1.725l7.858-3.157a1 1 0 0 1 1.36 1.086l-1.298 8.126Z" fill="#5FC1E8"/><path d="M50 105a2 2 0 0 1 2-2h28a2 2 0 0 1 2 2v14a2 2 0 0 1-2 2h-6v4l-8-4H52a2 2 0 0 1-2-2v-14Z" fill="#444"/><circle cx="58" cy="112" r="2" fill="#333"/><circle cx="66" cy="112" r="2" fill="#333"/><circle cx="74" cy="112" r="2" fill="#333"/><path d="M315 130a2 2 0 0 0-2-2h-28a2 2 0 0 0-2 2v14a2 2 0 0 0 2 2h6v4l8-4h14a2 2 0 0 0 2-2v-14Z" fill="#444"/><circle cx="2" cy="2" r="2" transform="matrix(-1 0 0 1 309 135)" fill="#333"/><circle cx="2" cy="2" r="2" transform="matrix(-1 0 0 1 301 135)" fill="#333"/><circle cx="2" cy="2" r="2" transform="matrix(-1 0 0 1 293 135)" fill="#333"/></g><defs><clipPath id="a"><path fill="#fff" d="M0 0h377v193H0z"/></clipPath><filter id="b" x="150.639" y="24.648" width="149.861" height="165.64" filterUnits="userSpaceOnUse" color-interpolation-filters="sRGB"><feFlood flood-opacity="0" result="BackgroundImageFix"/><feColorMatrix in="SourceAlpha" values="0 0 0 0 0 0 0 0 0 0 0 0 0 0 0 0 0 0 127 0" result="hardAlpha"/><feOffset dy="7"/><feGaussianBlur stdDeviation="12.5"/><feColorMatrix values="0 0 0 0 0 0 0 0 0 0 0 0 0 0 0 0 0 0 0.15 0"/><feBlend in2="BackgroundImageFix" result="effect1_dropShadow_1769_8127"/><feBlend in="SourceGraphic" in2="effect1_dropShadow_1769_8127" result="shape"/></filter></defs></svg>