<svg width="377" height="193" viewBox="0 0 377 193" fill="none" xmlns="http://www.w3.org/2000/svg">
<g clip-path="url(#clip0_2601_126815)">
<path d="M298 77V94H247" stroke="#AAAAAA" stroke-dasharray="2 4"/>
<rect x="76.5" y="38.5" width="31" height="45" rx="1.5" fill="#444444" stroke="#666666"/>
<path d="M211.583 36.8523L211.247 36.9424L211.076 36.5874C210.151 34.7285 208.635 33.223 206.762 32.3029C204.889 31.3828 202.763 31.0992 200.711 31.4957L200.375 31.5858L200.204 31.3209C198.264 27.5485 194.557 25 190.256 25C184.021 25 178.882 30.4414 178.882 37.1861C175.089 34.5369 171.039 34.5369 168.427 35.5224C165.814 36.5079 163.795 38.7756 162.78 41.5042C161.711 44.2509 161.742 47.2988 162.865 50.0239C164.046 52.673 166.407 54.7923 170.281 55.5553L214.703 55.7301H214.981C217.448 55.5779 219.761 54.4896 221.44 52.6912C223.119 50.8927 224.035 48.5221 223.999 46.0713C224.063 39.4856 217.481 34.9237 211.583 36.8523Z" fill="#9ADAF3"/>
<path fill-rule="evenodd" clip-rule="evenodd" d="M211.726 37.3318L210.976 37.5324L210.628 36.8101C210.627 36.8092 210.627 36.8082 210.626 36.8072C209.75 35.0485 208.315 33.6232 206.541 32.7517C204.771 31.8822 202.763 31.6123 200.823 31.9833L200.152 32.163L199.77 31.5713L199.759 31.5495C197.895 27.9238 194.348 25.5 190.256 25.5C184.328 25.5 179.382 30.6863 179.382 37.1861V38.1452L178.596 37.596C174.944 35.0457 171.069 35.0602 168.603 35.9902C166.149 36.9162 164.222 39.0609 163.248 41.6785L163.246 41.6855C162.225 44.3102 162.253 47.2222 163.325 49.8268C164.433 52.3079 166.641 54.3157 170.331 55.0555L214.703 55.2301H214.965C217.299 55.0822 219.486 54.0508 221.074 52.3499C222.666 50.6455 223.533 48.3998 223.499 46.0788L223.499 46.0665C223.56 39.8281 217.316 35.5036 211.738 37.3275L211.726 37.3318ZM214.981 55.7301H214.703L170.281 55.5553C166.407 54.7923 164.046 52.673 162.865 50.0239C161.742 47.2988 161.711 44.2509 162.78 41.5042C163.795 38.7756 165.814 36.5079 168.427 35.5224C170.926 34.5798 174.739 34.5388 178.386 36.8555C178.552 36.9608 178.717 37.0709 178.882 37.1861C178.882 36.9863 178.886 36.7877 178.895 36.5903C179.187 30.1238 184.206 25 190.256 25C194.557 25 198.264 27.5485 200.204 31.3209L200.375 31.5858L200.711 31.4957C202.763 31.0992 204.889 31.3828 206.762 32.3029C208.635 33.223 210.151 34.7285 211.076 36.5874L211.247 36.9424L211.583 36.8523C217.481 34.9237 224.063 39.4856 223.999 46.0713C224.035 48.5221 223.119 50.8927 221.44 52.6912C219.761 54.4896 217.448 55.5779 214.981 55.7301Z" fill="#808080"/>
<path fill-rule="evenodd" clip-rule="evenodd" d="M38.1137 91.1715C38.1862 91.9785 38.1511 92.7915 38.0095 93.5893L39.7864 94.9597L38.2231 98.3311L36.0294 97.8569C35.5088 98.4788 34.9098 99.0306 34.2473 99.4983L34.5339 101.723L31.0426 103L29.8285 101.114C29.0198 101.186 28.205 101.151 27.4055 101.009L26.0351 102.786L22.6689 101.223L23.1378 99.0294C22.5163 98.51 21.9662 97.9108 21.5017 97.2473L19.2714 97.5339L18 94.0426L19.8811 92.8285C19.8085 92.0198 19.8435 91.205 19.9853 90.4055L18.2084 89.0351L19.7717 85.6637L21.9654 86.1379C22.4848 85.5163 23.084 84.9662 23.7475 84.5017L23.4661 82.2714L26.9522 81L28.1715 82.8811C28.9785 82.8086 29.7915 82.8437 30.5893 82.9853L31.9597 81.2084L35.3311 82.7717L34.8569 84.9654C35.4788 85.486 36.0306 86.085 36.4983 86.7475L38.7234 86.4609L40 89.9522L38.1137 91.1715ZM32.7987 90.7859C32.5282 90.0453 32.0441 89.4016 31.4078 88.9361C30.7714 88.4707 30.0113 88.2044 29.2236 88.1709C28.4358 88.1374 27.6559 88.3383 26.9823 88.7481C26.3088 89.158 25.7719 89.7583 25.4396 90.4733C25.1072 91.1882 24.9944 91.9857 25.1153 92.7648C25.2362 93.5439 25.5854 94.2697 26.1188 94.8503C26.6521 95.4309 27.3457 95.8404 28.1118 96.0268C28.8779 96.2132 29.682 96.1683 30.4225 95.8977C31.4155 95.5349 32.2236 94.7925 32.6692 93.8338C33.1148 92.8752 33.1614 91.7788 32.7987 90.7859Z" fill="#3C3C3C"/>
<path fill-rule="evenodd" clip-rule="evenodd" d="M23.7559 69.0231C23.8415 69.9762 23.8 70.9365 23.6325 71.8786L25.7316 73.4889L23.8848 77.4661L21.2918 76.9294C20.6806 77.667 19.9727 78.3187 19.1873 78.867L19.5255 81.4917L15.4078 83L13.9744 80.7725C13.0212 80.8609 12.0604 80.8194 11.1183 80.649L9.50774 82.7477L5.52963 80.9013L6.06649 78.3142C5.33169 77.7017 4.68175 76.9942 4.1338 76.2102L1.5032 76.5483L0 72.4315L2.22259 70.993C2.13696 70.0399 2.17849 69.0796 2.34607 68.1375L0.246954 66.5272L2.09374 62.5285L4.68676 63.0652C5.29737 62.3306 6.00331 61.6808 6.78588 61.1329L6.45302 58.5083L10.5707 57L12.0041 59.2275C12.9571 59.1373 13.9179 59.177 14.8602 59.3456L16.4708 57.2469L20.4704 59.1094L19.9335 61.7019C20.6683 62.3144 21.3183 63.0219 21.8662 63.8059L24.4968 63.4678L26 67.5846L23.7774 69.0231H23.7559ZM17.4801 68.5723C17.1612 67.6985 16.5902 66.939 15.8395 66.3897C15.0887 65.8404 14.1919 65.5261 13.2625 65.4865C12.333 65.4469 11.4127 65.6838 10.6179 66.1672C9.82317 66.6506 9.18965 67.3588 8.79752 68.2022C8.40539 69.0457 8.27227 69.9864 8.41499 70.9055C8.55771 71.8246 8.96987 72.6807 9.59933 73.3656C10.2288 74.0504 11.0473 74.5332 11.9512 74.753C12.8552 74.9727 13.804 74.9194 14.6777 74.5999C15.8485 74.1718 16.8014 73.2963 17.3268 72.1661C17.8523 71.0358 17.9075 69.7431 17.4801 68.5723Z" fill="#444444"/>
<path d="M127.637 137.988C128.063 137.852 128.511 137.804 128.956 137.845C129.402 137.798 129.853 137.843 130.28 137.977C129.855 138.115 129.406 138.164 128.961 138.12C128.516 138.17 128.064 138.125 127.637 137.988Z" fill="#808080"/>
<path d="M132.934 137.988C133.36 137.852 133.808 137.804 134.253 137.845C134.699 137.798 135.15 137.843 135.577 137.977C135.152 138.115 134.703 138.164 134.258 138.12C133.813 138.17 133.361 138.125 132.934 137.988Z" fill="#808080"/>
<path d="M138.231 137.988C138.657 137.852 139.105 137.804 139.55 137.845C139.996 137.798 140.447 137.843 140.874 137.977C140.449 138.115 140 138.164 139.555 138.12C139.11 138.17 138.658 138.125 138.231 137.988Z" fill="#808080"/>
<path d="M144.058 137.988C144.484 137.852 144.932 137.804 145.377 137.845C145.823 137.798 146.273 137.843 146.701 137.977C146.276 138.115 145.827 138.164 145.382 138.12C144.936 138.17 144.485 138.125 144.058 137.988Z" fill="#808080"/>
<path d="M149.355 137.988C149.781 137.852 150.229 137.804 150.674 137.845C151.12 137.798 151.57 137.843 151.998 137.977C151.573 138.115 151.124 138.164 150.679 138.12C150.233 138.17 149.782 138.125 149.355 137.988Z" fill="#808080"/>
<path d="M69.3646 138.178C69.7917 138.041 70.2423 137.992 70.6889 138.035C71.1364 137.985 71.5896 138.03 72.0184 138.168C71.145 138.351 70.2433 138.351 69.3699 138.168L69.3646 138.178Z" fill="#808080"/>
<path d="M257.277 152.208C256.403 152.392 255.501 152.392 254.628 152.208C255.501 152.025 256.403 152.025 257.277 152.208Z" fill="#808080"/>
<path d="M246.153 101.874C245.28 102.058 244.378 102.058 243.504 101.874C244.378 101.691 245.28 101.691 246.153 101.874Z" fill="#808080"/>
<path d="M251.45 101.874C250.577 102.058 249.675 102.058 248.801 101.874C249.675 101.691 250.577 101.691 251.45 101.874Z" fill="#808080"/>
<path d="M256.747 101.874C255.874 102.058 254.972 102.058 254.098 101.874C254.972 101.691 255.874 101.691 256.747 101.874Z" fill="#808080"/>
<path d="M288.529 101.874C287.656 102.058 286.754 102.058 285.881 101.874C286.754 101.691 287.656 101.691 288.529 101.874Z" fill="#808080"/>
<path d="M293.826 101.874C292.953 102.058 292.051 102.058 291.178 101.874C292.051 101.691 292.953 101.691 293.826 101.874Z" fill="#808080"/>
<path d="M298.631 101.382C298.678 101.382 298.71 101.572 298.736 101.88V101.975H298.62C298.397 101.975 298.09 102.002 297.794 102.002C297.347 102.048 296.896 102.001 296.469 101.864C296.897 101.73 297.347 101.683 297.794 101.726C298.111 101.726 298.397 101.726 298.62 101.758L298.514 101.864C298.551 101.572 298.588 101.382 298.631 101.382Z" fill="#808080"/>
<path d="M160.479 122.623C160.904 122.487 161.353 122.439 161.798 122.48C162.244 122.433 162.694 122.478 163.122 122.612C162.697 122.75 162.248 122.798 161.803 122.755C161.357 122.805 160.906 122.76 160.479 122.623Z" fill="#808080"/>
<path d="M155.182 122.649C155.608 122.508 156.059 122.458 156.506 122.501C156.952 122.457 157.402 122.502 157.83 122.633C157.404 122.774 156.953 122.825 156.506 122.782C156.06 122.825 155.61 122.78 155.182 122.649Z" fill="#808080"/>
<path d="M149.885 122.67C150.312 122.533 150.762 122.484 151.209 122.527C151.655 122.477 152.106 122.523 152.533 122.66C152.106 122.794 151.655 122.843 151.209 122.803C150.763 122.849 150.312 122.804 149.885 122.67Z" fill="#808080"/>
<path d="M144.588 122.691C145.461 122.508 146.363 122.508 147.236 122.691C146.81 122.832 146.358 122.881 145.912 122.835C145.465 122.881 145.014 122.832 144.588 122.691Z" fill="#808080"/>
<path d="M139.291 122.718C140.164 122.534 141.066 122.534 141.939 122.718C141.512 122.854 141.061 122.902 140.615 122.861C140.168 122.901 139.718 122.852 139.291 122.718Z" fill="#808080"/>
<path d="M133.994 122.739C134.421 122.605 134.871 122.556 135.318 122.596C135.764 122.55 136.214 122.595 136.642 122.729C136.214 122.863 135.764 122.912 135.318 122.872C134.872 122.918 134.421 122.873 133.994 122.739Z" fill="#808080"/>
<path d="M128.697 122.766C129.123 122.625 129.574 122.574 130.021 122.617C130.467 122.574 130.917 122.619 131.345 122.75C130.919 122.89 130.467 122.939 130.021 122.893C129.575 122.939 129.125 122.896 128.697 122.766Z" fill="#808080"/>
<path d="M193.58 80.57C193.445 80.1423 193.398 79.6917 193.442 79.2454C193.399 78.7991 193.446 78.3487 193.58 77.9208C193.717 78.348 193.764 78.7991 193.718 79.2454C193.765 79.6917 193.718 80.1429 193.58 80.57Z" fill="#808080"/>
<path d="M193.58 85.8736C193.446 85.4458 193.399 84.9953 193.442 84.549C193.399 84.1027 193.446 83.6522 193.58 83.2244C193.717 83.6516 193.764 84.1027 193.718 84.549C193.764 84.9953 193.717 85.4464 193.58 85.8736Z" fill="#808080"/>
<path d="M193.58 91.1719C193.396 90.2984 193.396 89.3962 193.58 88.5227C193.763 89.3962 193.763 90.2984 193.58 91.1719Z" fill="#808080"/>
<path d="M193.58 96.4702C193.396 95.5967 193.396 94.6945 193.58 93.821C193.763 94.6945 193.763 95.5967 193.58 96.4702Z" fill="#808080"/>
<path d="M125.25 82.6626C125.251 81.4919 125.717 80.3695 126.545 79.5422C127.374 78.7147 128.496 78.25 129.667 78.25H252.584C253.753 78.2527 254.874 78.7193 255.7 79.5475C256.526 80.3757 256.99 81.4978 256.99 82.6678V164.568H125.25V82.6626Z" fill="#646464" stroke="#808080" stroke-width="0.5"/>
<path d="M251.841 160C251.993 160.001 252.143 159.972 252.284 159.915C252.424 159.857 252.552 159.772 252.66 159.664C252.768 159.556 252.853 159.428 252.912 159.286C252.97 159.145 253 158.993 253 158.84V82.1601C253 82.0069 252.97 81.8551 252.912 81.7137C252.853 81.5722 252.768 81.4439 252.66 81.336C252.552 81.2282 252.424 81.1429 252.284 81.0853C252.143 81.0276 251.993 80.9986 251.841 81H130.159C130.007 80.9986 129.857 81.0276 129.716 81.0853C129.576 81.1429 129.448 81.2282 129.34 81.336C129.232 81.4439 129.147 81.5722 129.088 81.7137C129.03 81.8551 129 82.0069 129 82.1601V158.84C129 158.993 129.03 159.145 129.088 159.286C129.147 159.428 129.232 159.556 129.34 159.664C129.448 159.772 129.576 159.857 129.716 159.915C129.857 159.972 130.007 160.001 130.159 160H251.841Z" fill="#3C3C3C"/>
<path d="M253.363 159.311V82.1638C253.363 82.087 253.348 82.011 253.318 81.9401C253.289 81.8691 253.246 81.8047 253.192 81.7504C253.137 81.6961 253.073 81.6531 253.002 81.6237C252.931 81.5943 252.855 81.5792 252.779 81.5792H130.168C130.013 81.5792 129.865 81.6408 129.755 81.7504C129.646 81.86 129.584 82.0087 129.584 82.1638V159.311C129.584 159.466 129.646 159.614 129.755 159.724C129.865 159.834 130.013 159.895 130.168 159.895H252.832C252.977 159.882 253.113 159.815 253.211 159.706C253.309 159.598 253.363 159.457 253.363 159.311ZM253.947 159.311C253.947 159.464 253.917 159.616 253.858 159.757C253.799 159.899 253.713 160.027 253.604 160.136C253.496 160.244 253.367 160.329 253.225 160.387C253.084 160.446 252.932 160.475 252.779 160.475H130.168C130.015 160.475 129.863 160.446 129.722 160.387C129.58 160.329 129.451 160.244 129.342 160.136C129.234 160.027 129.148 159.899 129.089 159.757C129.03 159.616 129 159.464 129 159.311V82.1638C129 82.0105 129.03 81.8587 129.089 81.7172C129.148 81.5756 129.234 81.4471 129.342 81.339C129.451 81.2308 129.58 81.1452 129.722 81.0871C129.863 81.0289 130.015 80.9993 130.168 81H252.832C252.985 80.9993 253.137 81.0289 253.278 81.0871C253.42 81.1452 253.549 81.2308 253.658 81.339C253.766 81.4471 253.852 81.5756 253.911 81.7172C253.97 81.8587 254 82.0105 254 82.1638L253.947 159.311Z" fill="#808080"/>
<path d="M144.159 169.354L176.396 169.475H183.786L200.609 169.507H210.578L264.5 169.5C266.152 169.447 267.548 169.034 269.131 168.559C269.897 168.316 270.644 168.018 271.367 167.669H228.508V167.266H220.642V167.637L210.578 167.452V167.319H200.609V167.626L184.384 167.383H176.396V167.658L145.954 167.255L145.425 167.383L135.551 167.473L110.454 167.409C111.097 168.081 111.865 168.621 112.715 168.999C114.511 169.528 116.773 169.528 118.219 169.528H135.54L143.179 169.714L144.159 169.354Z" fill="#AAAAAA"/>
<path d="M271.091 167.669L271.875 167.139H110.194L110.724 167.669H271.091Z" fill="#808080"/>
<path d="M110.48 164.172V167.218C111.539 168.278 114.034 169.497 119.003 169.338L263.082 169.412C264.893 169.287 266.688 168.99 268.443 168.527C269.227 168.336 271.775 167.367 271.806 167.086V164.167C218.02 164.267 164.256 164.172 110.48 164.172ZM119.003 170C116.233 170 113.34 170 110.385 168.061C110.104 167.812 109.882 167.653 109.855 167.218V164.569C109.879 164.302 110 164.053 110.196 163.868C110.391 163.684 110.646 163.577 110.914 163.568H271.504C271.624 163.56 271.744 163.579 271.855 163.622C271.967 163.666 272.068 163.733 272.151 163.819C272.234 163.905 272.297 164.008 272.337 164.121C272.376 164.234 272.39 164.355 272.378 164.474V167.165L272.347 167.197C272.226 167.487 272.001 167.721 271.716 167.854C270.636 168.476 269.47 168.938 268.257 169.226C266.582 169.67 264.862 169.923 263.13 169.979L119.003 170Z" fill="#808080"/>
<path opacity="0.6" d="M159.419 108.1H136.764C136.682 108.1 136.604 108.132 136.547 108.19C136.489 108.248 136.457 108.326 136.457 108.407C136.457 108.489 136.489 108.567 136.547 108.625C136.604 108.682 136.682 108.715 136.764 108.715H159.419C159.501 108.715 159.579 108.682 159.637 108.625C159.694 108.567 159.727 108.489 159.727 108.407C159.727 108.326 159.694 108.248 159.637 108.19C159.579 108.132 159.501 108.1 159.419 108.1Z" fill="#3C3C3C"/>
<path d="M248.509 86.9981H149.491C149.299 87.0064 149.108 86.9868 148.927 86.9404C148.747 86.894 148.582 86.8218 148.442 86.7283C148.303 86.6348 148.191 86.5219 148.115 86.3967C148.039 86.2714 148 86.1364 148 86C148 85.8636 148.039 85.7286 148.115 85.6033C148.191 85.4781 148.303 85.3652 148.442 85.2717C148.582 85.1782 148.747 85.106 148.927 85.0596C149.108 85.0132 149.299 84.9936 149.491 85.0019H248.509C248.701 84.9936 248.892 85.0132 249.073 85.0596C249.253 85.106 249.418 85.1782 249.558 85.2717C249.697 85.3652 249.809 85.4781 249.885 85.6033C249.961 85.7286 250 85.8636 250 86C250 86.1364 249.961 86.2714 249.885 86.3967C249.809 86.5219 249.697 86.6348 249.558 86.7283C249.418 86.8218 249.253 86.894 249.073 86.9404C248.892 86.9868 248.701 87.0064 248.509 86.9981ZM149.491 85.3722C149.369 85.3656 149.247 85.3769 149.132 85.4054C149.017 85.4339 148.911 85.4791 148.822 85.538C148.732 85.597 148.661 85.6684 148.612 85.7479C148.563 85.8274 148.538 85.9132 148.538 86C148.538 86.0868 148.563 86.1726 148.612 86.2521C148.661 86.3316 148.732 86.403 148.822 86.462C148.911 86.5209 149.017 86.5661 149.132 86.5946C149.247 86.6231 149.369 86.6344 149.491 86.6278H248.509C248.631 86.6344 248.753 86.6231 248.868 86.5946C248.983 86.5661 249.089 86.5209 249.178 86.462C249.268 86.403 249.339 86.3316 249.388 86.2521C249.437 86.1726 249.462 86.0868 249.462 86C249.462 85.9132 249.437 85.8274 249.388 85.7479C249.339 85.6684 249.268 85.597 249.178 85.538C249.089 85.4791 248.983 85.4339 248.868 85.4054C248.753 85.3769 248.631 85.3656 248.509 85.3722H149.491Z" fill="#666666"/>
<path d="M166.978 164.304H124.877L124.846 164.336V164.304H110.432V167.086H271.796V164.172C242.09 164.235 212.395 164.269 182.71 164.273H182.43C177.302 164.304 172.138 164.304 166.978 164.304Z" fill="#2A2A2A"/>
<path d="M133.298 87.5326C134.015 87.5326 134.596 86.9656 134.596 86.2663C134.596 85.5669 134.015 85 133.298 85C132.581 85 132 85.5669 132 86.2663C132 86.9656 132.581 87.5326 133.298 87.5326Z" fill="#666666"/>
<path d="M138.298 87.5326C139.014 87.5326 139.596 86.9656 139.596 86.2663C139.596 85.5669 139.014 85 138.298 85C137.581 85 137 85.5669 137 86.2663C137 86.9656 137.581 87.5326 138.298 87.5326Z" fill="#666666"/>
<path d="M143.298 87.5326C144.015 87.5326 144.596 86.9656 144.596 86.2663C144.596 85.5669 144.015 85 143.298 85C142.581 85 142 85.5669 142 86.2663C142 86.9656 142.581 87.5326 143.298 87.5326Z" fill="#666666"/>
<path d="M180.829 98H135.171C134.524 98 134 98.4477 134 99C134 99.5523 134.524 100 135.171 100H180.829C181.476 100 182 99.5523 182 99C182 98.4477 181.476 98 180.829 98Z" fill="#B2B2B2"/>
<path d="M134.383 117H164.34C164.388 116.999 164.436 117.004 164.482 117.017C164.527 117.029 164.569 117.048 164.604 117.073C164.64 117.097 164.669 117.127 164.689 117.16C164.709 117.193 164.721 117.229 164.723 117.265C164.721 117.301 164.709 117.337 164.689 117.37C164.669 117.403 164.64 117.432 164.604 117.457C164.569 117.482 164.527 117.501 164.482 117.513C164.436 117.526 164.388 117.531 164.34 117.53H134.383C134.334 117.531 134.286 117.526 134.241 117.513C134.196 117.501 134.154 117.482 134.119 117.457C134.083 117.432 134.054 117.403 134.034 117.37C134.014 117.337 134.002 117.301 134 117.265C134.002 117.229 134.014 117.193 134.034 117.16C134.054 117.127 134.083 117.097 134.119 117.073C134.154 117.048 134.196 117.029 134.241 117.017C134.286 117.004 134.334 116.999 134.383 117Z" fill="#666666"/>
<path d="M170.383 117H200.34C200.388 116.999 200.436 117.004 200.482 117.017C200.527 117.029 200.569 117.048 200.604 117.073C200.64 117.097 200.669 117.127 200.689 117.16C200.709 117.193 200.721 117.229 200.723 117.265C200.721 117.301 200.709 117.337 200.689 117.37C200.669 117.403 200.64 117.432 200.604 117.457C200.569 117.482 200.527 117.501 200.482 117.513C200.436 117.526 200.388 117.531 200.34 117.53H170.383C170.334 117.531 170.286 117.526 170.241 117.513C170.196 117.501 170.154 117.482 170.119 117.457C170.083 117.432 170.054 117.403 170.034 117.37C170.014 117.337 170.002 117.301 170 117.265C170.002 117.229 170.014 117.193 170.034 117.16C170.054 117.127 170.083 117.097 170.119 117.073C170.154 117.048 170.196 117.029 170.241 117.017C170.286 117.004 170.334 116.999 170.383 117Z" fill="#666666"/>
<path d="M134.981 111.001H199.019C199.267 110.99 199.51 111.088 199.694 111.274C199.877 111.461 199.987 111.721 200 111.997C199.989 112.274 199.879 112.536 199.695 112.724C199.512 112.911 199.268 113.01 199.019 112.999H134.981C134.732 113.01 134.488 112.911 134.305 112.724C134.121 112.536 134.011 112.274 134 111.997C134.013 111.721 134.123 111.461 134.306 111.274C134.49 111.088 134.733 110.99 134.981 111.001Z" fill="#666666"/>
<path d="M134.381 121H161.163C161.211 120.999 161.259 121.004 161.304 121.017C161.35 121.029 161.391 121.048 161.427 121.073C161.462 121.097 161.491 121.127 161.511 121.16C161.531 121.193 161.543 121.229 161.545 121.265C161.543 121.301 161.531 121.337 161.511 121.37C161.491 121.403 161.462 121.432 161.427 121.457C161.391 121.482 161.35 121.501 161.304 121.513C161.259 121.526 161.211 121.531 161.163 121.53H134.381C134.333 121.531 134.285 121.526 134.24 121.513C134.195 121.501 134.153 121.482 134.118 121.457C134.083 121.432 134.054 121.403 134.034 121.37C134.013 121.337 134.002 121.301 134 121.265C134.002 121.229 134.013 121.193 134.034 121.16C134.054 121.127 134.083 121.097 134.118 121.073C134.153 121.048 134.195 121.029 134.24 121.017C134.285 121.004 134.333 120.999 134.381 121Z" fill="#666666"/>
<path d="M170.381 121H197.163C197.211 120.999 197.259 121.004 197.305 121.017C197.35 121.029 197.391 121.048 197.427 121.073C197.462 121.097 197.491 121.127 197.511 121.16C197.531 121.193 197.543 121.229 197.545 121.265C197.543 121.301 197.531 121.337 197.511 121.37C197.491 121.403 197.462 121.432 197.427 121.457C197.391 121.482 197.35 121.501 197.305 121.513C197.259 121.526 197.211 121.531 197.163 121.53H170.381C170.333 121.531 170.285 121.526 170.24 121.513C170.195 121.501 170.153 121.482 170.118 121.457C170.083 121.432 170.054 121.403 170.034 121.37C170.013 121.337 170.002 121.301 170 121.265C170.002 121.229 170.013 121.193 170.034 121.16C170.054 121.127 170.083 121.097 170.118 121.073C170.153 121.048 170.195 121.029 170.24 121.017C170.285 121.004 170.333 120.999 170.381 121Z" fill="#666666"/>
<path d="M134.383 125H164.34C164.388 124.999 164.436 125.004 164.482 125.017C164.527 125.029 164.569 125.048 164.604 125.073C164.64 125.097 164.669 125.127 164.689 125.16C164.709 125.193 164.721 125.229 164.723 125.265C164.721 125.301 164.709 125.337 164.689 125.37C164.669 125.403 164.64 125.432 164.604 125.457C164.569 125.482 164.527 125.501 164.482 125.513C164.436 125.526 164.388 125.531 164.34 125.53H134.383C134.334 125.531 134.286 125.526 134.241 125.513C134.196 125.501 134.154 125.482 134.119 125.457C134.083 125.432 134.054 125.403 134.034 125.37C134.014 125.337 134.002 125.301 134 125.265C134.002 125.229 134.014 125.193 134.034 125.16C134.054 125.127 134.083 125.097 134.119 125.073C134.154 125.048 134.196 125.029 134.241 125.017C134.286 125.004 134.334 124.999 134.383 125Z" fill="#666666"/>
<path d="M170.383 125H200.34C200.388 124.999 200.436 125.004 200.482 125.017C200.527 125.029 200.569 125.048 200.604 125.073C200.64 125.097 200.669 125.127 200.689 125.16C200.709 125.193 200.721 125.229 200.723 125.265C200.721 125.301 200.709 125.337 200.689 125.37C200.669 125.403 200.64 125.432 200.604 125.457C200.569 125.482 200.527 125.501 200.482 125.513C200.436 125.526 200.388 125.531 200.34 125.53H170.383C170.334 125.531 170.286 125.526 170.241 125.513C170.196 125.501 170.154 125.482 170.119 125.457C170.083 125.432 170.054 125.403 170.034 125.37C170.014 125.337 170.002 125.301 170 125.265C170.002 125.229 170.014 125.193 170.034 125.16C170.054 125.127 170.083 125.097 170.119 125.073C170.154 125.048 170.196 125.029 170.241 125.017C170.286 125.004 170.334 124.999 170.383 125Z" fill="#666666"/>
<path d="M134.388 129H160.097C160.146 128.999 160.195 129.004 160.241 129.017C160.287 129.029 160.329 129.048 160.365 129.073C160.401 129.097 160.43 129.127 160.451 129.16C160.471 129.193 160.483 129.229 160.485 129.265C160.483 129.301 160.471 129.337 160.451 129.37C160.43 129.403 160.401 129.432 160.365 129.457C160.329 129.482 160.287 129.501 160.241 129.513C160.195 129.526 160.146 129.531 160.097 129.53H134.388C134.339 129.531 134.29 129.526 134.244 129.513C134.198 129.501 134.156 129.482 134.12 129.457C134.084 129.432 134.055 129.403 134.034 129.37C134.014 129.337 134.002 129.301 134 129.265C134.002 129.229 134.014 129.193 134.034 129.16C134.055 129.127 134.084 129.097 134.12 129.073C134.156 129.048 134.198 129.029 134.244 129.017C134.29 129.004 134.339 128.999 134.388 129Z" fill="#666666"/>
<path d="M170.388 129H196.097C196.146 128.999 196.195 129.004 196.241 129.017C196.287 129.029 196.329 129.048 196.365 129.073C196.401 129.097 196.43 129.127 196.451 129.16C196.471 129.193 196.483 129.229 196.485 129.265C196.483 129.301 196.471 129.337 196.451 129.37C196.43 129.403 196.401 129.432 196.365 129.457C196.329 129.482 196.287 129.501 196.241 129.513C196.195 129.526 196.146 129.531 196.097 129.53H170.388C170.339 129.531 170.29 129.526 170.244 129.513C170.198 129.501 170.156 129.482 170.12 129.457C170.084 129.432 170.055 129.403 170.034 129.37C170.014 129.337 170.002 129.301 170 129.265C170.002 129.229 170.014 129.193 170.034 129.16C170.055 129.127 170.084 129.097 170.12 129.073C170.156 129.048 170.198 129.029 170.244 129.017C170.29 129.004 170.339 128.999 170.388 129Z" fill="#666666"/>
<path d="M134.386 139H164.342C164.39 138.999 164.438 139.004 164.483 139.017C164.528 139.029 164.57 139.048 164.605 139.073C164.64 139.097 164.669 139.127 164.689 139.16C164.709 139.193 164.721 139.229 164.723 139.265C164.721 139.301 164.709 139.337 164.689 139.37C164.669 139.403 164.64 139.432 164.605 139.457C164.57 139.482 164.528 139.501 164.483 139.513C164.438 139.526 164.39 139.531 164.342 139.53H134.386C134.289 139.533 134.193 139.507 134.121 139.457C134.049 139.408 134.005 139.339 134 139.265C134.005 139.191 134.049 139.122 134.121 139.073C134.193 139.023 134.289 138.997 134.386 139Z" fill="#666666"/>
<path d="M170.386 139H200.342C200.39 138.999 200.438 139.004 200.483 139.017C200.528 139.029 200.57 139.048 200.605 139.073C200.64 139.097 200.669 139.127 200.689 139.16C200.709 139.193 200.721 139.229 200.723 139.265C200.721 139.301 200.709 139.337 200.689 139.37C200.669 139.403 200.64 139.432 200.605 139.457C200.57 139.482 200.528 139.501 200.483 139.513C200.438 139.526 200.39 139.531 200.342 139.53H170.386C170.289 139.533 170.193 139.507 170.121 139.457C170.049 139.408 170.005 139.339 170 139.265C170.005 139.191 170.049 139.122 170.121 139.073C170.193 139.023 170.289 138.997 170.386 139Z" fill="#666666"/>
<path d="M134.384 143H161.16C161.257 142.997 161.352 143.023 161.424 143.073C161.496 143.122 161.539 143.191 161.545 143.265C161.539 143.339 161.496 143.408 161.424 143.457C161.352 143.507 161.257 143.533 161.16 143.53H134.384C134.287 143.533 134.193 143.507 134.121 143.457C134.049 143.408 134.005 143.339 134 143.265C134.005 143.191 134.049 143.122 134.121 143.073C134.193 143.023 134.287 142.997 134.384 143Z" fill="#666666"/>
<path d="M170.384 143H197.16C197.257 142.997 197.352 143.023 197.424 143.073C197.496 143.122 197.539 143.191 197.545 143.265C197.539 143.339 197.496 143.408 197.424 143.457C197.352 143.507 197.257 143.533 197.16 143.53H170.384C170.287 143.533 170.193 143.507 170.121 143.457C170.049 143.408 170.005 143.339 170 143.265C170.005 143.191 170.049 143.122 170.121 143.073C170.193 143.023 170.287 142.997 170.384 143Z" fill="#666666"/>
<path d="M134.386 147H164.342C164.39 146.999 164.438 147.004 164.483 147.017C164.528 147.029 164.57 147.048 164.605 147.073C164.64 147.097 164.669 147.127 164.689 147.16C164.709 147.193 164.721 147.229 164.723 147.265C164.721 147.301 164.709 147.337 164.689 147.37C164.669 147.403 164.64 147.432 164.605 147.457C164.57 147.482 164.528 147.501 164.483 147.513C164.438 147.526 164.39 147.531 164.342 147.53H134.386C134.289 147.533 134.193 147.507 134.121 147.457C134.049 147.408 134.005 147.339 134 147.265C134.005 147.191 134.049 147.122 134.121 147.073C134.193 147.023 134.289 146.997 134.386 147Z" fill="#666666"/>
<path d="M170.386 147H200.342C200.39 146.999 200.438 147.004 200.483 147.017C200.528 147.029 200.57 147.048 200.605 147.073C200.64 147.097 200.669 147.127 200.689 147.16C200.709 147.193 200.721 147.229 200.723 147.265C200.721 147.301 200.709 147.337 200.689 147.37C200.669 147.403 200.64 147.432 200.605 147.457C200.57 147.482 200.528 147.501 200.483 147.513C200.438 147.526 200.39 147.531 200.342 147.53H170.386C170.289 147.533 170.193 147.507 170.121 147.457C170.049 147.408 170.005 147.339 170 147.265C170.005 147.191 170.049 147.122 170.121 147.073C170.193 147.023 170.289 146.997 170.386 147Z" fill="#666666"/>
<path d="M134.392 151H160.141C160.19 150.999 160.238 151.004 160.284 151.017C160.33 151.029 160.372 151.048 160.408 151.073C160.444 151.097 160.473 151.127 160.493 151.16C160.514 151.193 160.525 151.229 160.528 151.265C160.525 151.301 160.514 151.337 160.493 151.37C160.473 151.403 160.444 151.433 160.408 151.457C160.372 151.482 160.33 151.501 160.284 151.513C160.238 151.526 160.19 151.531 160.141 151.53H134.392C134.293 151.533 134.196 151.507 134.123 151.457C134.05 151.408 134.005 151.339 134 151.265C134.005 151.191 134.05 151.122 134.123 151.073C134.196 151.023 134.293 150.997 134.392 151Z" fill="#666666"/>
<path d="M170.392 151H196.141C196.19 150.999 196.238 151.004 196.284 151.017C196.33 151.029 196.372 151.048 196.408 151.073C196.444 151.097 196.473 151.127 196.493 151.16C196.514 151.193 196.525 151.229 196.528 151.265C196.525 151.301 196.514 151.337 196.493 151.37C196.473 151.403 196.444 151.433 196.408 151.457C196.372 151.482 196.33 151.501 196.284 151.513C196.238 151.526 196.19 151.531 196.141 151.53H170.392C170.293 151.533 170.196 151.507 170.123 151.457C170.05 151.408 170.005 151.339 170 151.265C170.005 151.191 170.05 151.122 170.123 151.073C170.196 151.023 170.293 150.997 170.392 151Z" fill="#666666"/>
<path d="M240.994 116.09C241.912 116.09 242.657 115.345 242.657 114.426C242.657 113.507 241.912 112.762 240.994 112.762C240.075 112.762 239.33 113.507 239.33 114.426C239.33 115.345 240.075 116.09 240.994 116.09Z" fill="#3C3C3C"/>
<path d="M364.711 94.3986L364.377 94.4886L364.208 94.1336C363.291 92.2748 361.788 90.7693 359.931 89.8492C358.074 88.9291 355.966 88.6454 353.931 89.042L353.598 89.1321L353.428 88.8671C351.505 85.0947 347.829 82.5463 343.565 82.5463C337.384 82.5463 332.288 87.9876 332.288 94.7324C328.527 92.0832 324.512 92.0832 321.922 93.0687C319.331 94.0542 317.329 96.3165 316.323 99.0346C315.263 101.781 315.294 104.829 316.407 107.554C317.578 110.203 319.919 112.323 323.76 113.086L367.804 113.261H368.08C370.526 113.108 372.819 112.02 374.484 110.222C376.149 108.423 377.057 106.052 377.021 103.602C377.085 97.0318 370.559 92.47 364.711 94.3986Z" fill="#444444"/>
<path d="M282.12 98.3458C282.122 98.1976 282.153 98.0512 282.212 97.9151C282.27 97.779 282.355 97.6557 282.461 97.5524C282.568 97.4491 282.693 97.3677 282.831 97.3129C282.969 97.2582 283.116 97.231 283.264 97.2331H337.95C338.099 97.231 338.246 97.2582 338.383 97.3129C338.521 97.3677 338.647 97.4491 338.753 97.5524C338.859 97.6557 338.944 97.779 339.003 97.9151C339.061 98.0512 339.092 98.1976 339.095 98.3458V130.162C339.092 130.31 339.061 130.457 339.003 130.593C338.944 130.729 338.859 130.852 338.753 130.955C338.647 131.059 338.521 131.14 338.383 131.195C338.246 131.25 338.099 131.277 337.95 131.275H283.264C283.116 131.277 282.969 131.25 282.831 131.195C282.693 131.14 282.568 131.059 282.461 130.955C282.355 130.852 282.27 130.729 282.212 130.593C282.153 130.457 282.122 130.31 282.12 130.162V98.3458Z" fill="#3C3C3C"/>
<path d="M282.12 98.3776C282.12 98.0741 282.24 97.783 282.455 97.5683C282.669 97.3537 282.96 97.2332 283.264 97.2332H337.95C338.254 97.2332 338.545 97.3537 338.759 97.5683C338.974 97.783 339.095 98.0741 339.095 98.3776V100.677H282.12V98.3776Z" fill="#5E5E5E"/>
<path d="M315.004 117.123H335.27V127.052H315.004V117.123Z" fill="#3C3C3C"/>
<path d="M315 106H335V115H315V106Z" fill="#3C3C3C"/>
<line x1="282" y1="107.75" x2="339" y2="107.75" stroke="#444444" stroke-width="0.5"/>
<line x1="282" y1="111.75" x2="339" y2="111.75" stroke="#444444" stroke-width="0.5"/>
<line x1="282" y1="115.75" x2="339" y2="115.75" stroke="#444444" stroke-width="0.5"/>
<line x1="282" y1="119.75" x2="339" y2="119.75" stroke="#444444" stroke-width="0.5"/>
<line x1="282" y1="123.75" x2="339" y2="123.75" stroke="#444444" stroke-width="0.5"/>
<line x1="282" y1="127.75" x2="339" y2="127.75" stroke="#444444" stroke-width="0.5"/>
<path d="M286.25 104V131.5" stroke="#444444" stroke-width="0.5"/>
<path d="M294.25 104V131.5" stroke="#444444" stroke-width="0.5"/>
<path d="M302.25 104V131.5" stroke="#444444" stroke-width="0.5"/>
<path d="M310.25 104V131.5" stroke="#444444" stroke-width="0.5"/>
<path d="M315.25 104V131.5" stroke="#444444" stroke-width="0.5"/>
<path d="M326.25 104V131.5" stroke="#444444" stroke-width="0.5"/>
<path d="M334.25 104V131.5" stroke="#444444" stroke-width="0.5"/>
<path d="M334 106H315V116H334V106Z" fill="#3C3C3C"/>
<path fill-rule="evenodd" clip-rule="evenodd" d="M315 106H334V116H315V106ZM315.255 106.28V115.72H333.745V106.28H315.255Z" fill="#CCCCCC"/>
<path d="M331.664 109C331.565 109 331.47 109.039 331.398 109.108C331.327 109.177 331.286 109.272 331.283 109.371V113.986C331.283 114.087 331.323 114.184 331.395 114.255C331.466 114.327 331.563 114.367 331.664 114.367C331.765 114.367 331.862 114.327 331.934 114.255C332.006 114.184 332.046 114.087 332.046 113.986V109.371C332.045 109.322 332.035 109.273 332.015 109.227C331.995 109.182 331.967 109.141 331.932 109.106C331.896 109.072 331.855 109.045 331.809 109.027C331.763 109.008 331.714 108.999 331.664 109ZM330.144 110.436C330.043 110.441 329.947 110.485 329.877 110.557C329.806 110.63 329.765 110.727 329.763 110.828V114.007C329.763 114.108 329.803 114.205 329.874 114.277C329.946 114.348 330.043 114.388 330.144 114.388C330.245 114.388 330.342 114.348 330.414 114.277C330.485 114.205 330.525 114.108 330.525 114.007V110.828C330.523 110.727 330.482 110.63 330.412 110.557C330.341 110.485 330.245 110.441 330.144 110.436ZM327.109 112.396C327.009 112.396 326.913 112.434 326.841 112.502C326.768 112.569 326.724 112.662 326.717 112.762V113.986C326.722 114.086 326.766 114.18 326.839 114.249C326.912 114.318 327.008 114.357 327.109 114.357C327.207 114.357 327.301 114.318 327.371 114.248C327.441 114.178 327.48 114.084 327.48 113.986V112.762C327.48 112.713 327.47 112.665 327.451 112.621C327.433 112.576 327.405 112.535 327.371 112.501C327.336 112.467 327.295 112.441 327.25 112.423C327.205 112.404 327.157 112.396 327.109 112.396ZM328.237 112.476C328.252 112.385 328.299 112.303 328.369 112.244C328.438 112.185 328.527 112.153 328.618 112.153C328.71 112.153 328.799 112.185 328.868 112.244C328.938 112.303 328.985 112.385 329 112.476V114.028C328.985 114.118 328.938 114.2 328.868 114.26C328.799 114.319 328.71 114.351 328.618 114.351C328.527 114.351 328.438 114.319 328.369 114.26C328.299 114.2 328.252 114.118 328.237 114.028V112.476ZM325.17 110.828C325.164 110.774 325.169 110.72 325.185 110.669C325.201 110.617 325.228 110.57 325.264 110.53C325.3 110.489 325.343 110.457 325.393 110.435C325.442 110.413 325.495 110.402 325.549 110.402C325.603 110.402 325.656 110.413 325.705 110.435C325.754 110.457 325.798 110.489 325.834 110.53C325.87 110.57 325.897 110.617 325.913 110.669C325.929 110.72 325.934 110.774 325.928 110.828V114.007C325.917 114.1 325.872 114.185 325.802 114.247C325.732 114.309 325.642 114.344 325.549 114.344C325.455 114.344 325.365 114.309 325.296 114.247C325.226 114.185 325.181 114.1 325.17 114.007V110.828ZM320.932 110.918C320.885 110.916 320.838 110.923 320.794 110.94C320.75 110.957 320.709 110.982 320.675 111.015C320.641 111.047 320.614 111.087 320.595 111.13C320.576 111.174 320.567 111.22 320.567 111.268V113.991C320.567 114.088 320.605 114.182 320.674 114.251C320.742 114.321 320.835 114.361 320.932 114.362C321.033 114.362 321.13 114.324 321.202 114.255C321.275 114.186 321.319 114.091 321.324 113.991V111.268C321.319 111.172 321.277 111.082 321.207 111.017C321.137 110.952 321.044 110.916 320.948 110.918H320.932ZM322.485 112.449C322.384 112.449 322.288 112.487 322.215 112.556C322.142 112.625 322.098 112.72 322.093 112.82V113.986C322.098 114.086 322.142 114.18 322.215 114.249C322.288 114.318 322.384 114.357 322.485 114.357C322.533 114.357 322.581 114.347 322.626 114.328C322.671 114.31 322.712 114.282 322.747 114.248C322.781 114.214 322.808 114.173 322.827 114.128C322.846 114.083 322.855 114.034 322.855 113.986V112.82C322.855 112.724 322.819 112.632 322.752 112.563C322.686 112.494 322.596 112.453 322.5 112.449H322.485ZM324.01 112.068C323.917 112.067 323.828 112.1 323.758 112.16C323.687 112.221 323.642 112.305 323.629 112.396V114.028C323.644 114.118 323.69 114.2 323.76 114.26C323.83 114.319 323.919 114.351 324.01 114.351C324.102 114.351 324.19 114.319 324.26 114.26C324.33 114.2 324.376 114.118 324.391 114.028V112.396C324.379 112.307 324.336 112.225 324.269 112.165C324.202 112.105 324.116 112.071 324.026 112.068H324.01ZM317.5 111.289C317.501 111.242 317.511 111.196 317.53 111.153C317.548 111.11 317.576 111.071 317.61 111.039C317.644 111.007 317.684 110.982 317.728 110.966C317.772 110.95 317.819 110.942 317.865 110.945C317.964 110.939 318.06 110.971 318.134 111.036C318.209 111.1 318.255 111.191 318.263 111.289V113.986C318.256 114.086 318.211 114.181 318.137 114.25C318.064 114.319 317.966 114.357 317.865 114.357C317.768 114.355 317.675 114.316 317.607 114.246C317.538 114.177 317.5 114.083 317.5 113.986V111.289ZM319.418 112.396C319.318 112.396 319.222 112.434 319.149 112.502C319.077 112.569 319.032 112.662 319.026 112.762V113.986C319.031 114.086 319.075 114.18 319.148 114.249C319.221 114.318 319.317 114.357 319.418 114.357C319.515 114.355 319.608 114.316 319.676 114.246C319.745 114.177 319.783 114.083 319.783 113.986V112.762C319.783 112.668 319.747 112.577 319.682 112.509C319.617 112.441 319.528 112.4 319.433 112.396H319.418Z" fill="#DDDDDD"/>
<path d="M310.122 108.499L286.378 108.499V111.008H310.122V108.499ZM286 108V111.5H310.5V108L286 108Z" fill="#8A956A"/>
<path d="M286.37 116.462H310.13V118.996H286.37V116.462ZM286 119.5V116H310.5V119.5H286ZM287.311 117.477C287.262 117.477 287.215 117.504 287.181 117.551C287.146 117.598 287.126 117.662 287.126 117.729C287.126 117.796 287.146 117.86 287.181 117.907C287.215 117.954 287.262 117.981 287.311 117.981H289.883C289.932 117.981 289.979 117.954 290.014 117.907C290.048 117.86 290.068 117.796 290.068 117.729C290.068 117.662 290.048 117.598 290.014 117.551C289.979 117.504 289.932 117.477 289.883 117.477H287.311ZM301.475 117.736C301.476 117.667 301.497 117.601 301.534 117.552C301.57 117.504 301.619 117.477 301.67 117.477H304.241C304.293 117.477 304.342 117.504 304.38 117.552C304.417 117.6 304.439 117.666 304.442 117.736C304.439 117.805 304.417 117.87 304.379 117.918C304.342 117.965 304.292 117.99 304.241 117.988H301.67C301.645 117.989 301.62 117.983 301.597 117.971C301.573 117.959 301.552 117.941 301.534 117.917C301.516 117.894 301.501 117.866 301.491 117.835C301.481 117.804 301.475 117.77 301.475 117.736ZM292.135 117.477C292.086 117.477 292.039 117.504 292.004 117.551C291.97 117.598 291.95 117.662 291.95 117.729C291.95 117.796 291.97 117.86 292.004 117.907C292.039 117.954 292.086 117.981 292.135 117.981H294.707C294.756 117.981 294.803 117.954 294.838 117.907C294.872 117.86 294.892 117.796 294.892 117.729C294.892 117.662 294.872 117.598 294.838 117.551C294.803 117.504 294.756 117.477 294.707 117.477H292.135ZM305.928 117.736C305.931 117.666 305.953 117.6 305.99 117.552C306.028 117.504 306.077 117.477 306.129 117.477H308.7C308.751 117.477 308.8 117.504 308.836 117.552C308.873 117.601 308.894 117.667 308.895 117.736C308.895 117.77 308.889 117.804 308.879 117.835C308.869 117.866 308.854 117.894 308.836 117.917C308.818 117.941 308.797 117.959 308.773 117.971C308.75 117.983 308.725 117.989 308.7 117.988H306.129C306.078 117.99 306.028 117.965 305.991 117.918C305.953 117.87 305.931 117.805 305.928 117.736ZM296.846 117.477C296.795 117.477 296.746 117.504 296.71 117.552C296.673 117.601 296.652 117.667 296.651 117.736C296.651 117.77 296.657 117.804 296.667 117.835C296.677 117.866 296.692 117.894 296.71 117.917C296.728 117.941 296.749 117.959 296.773 117.971C296.796 117.983 296.821 117.989 296.846 117.988H299.417C299.442 117.989 299.467 117.983 299.491 117.971C299.514 117.959 299.535 117.941 299.553 117.917C299.572 117.894 299.586 117.866 299.596 117.835C299.607 117.804 299.612 117.77 299.613 117.736C299.611 117.667 299.59 117.601 299.554 117.552C299.517 117.504 299.468 117.477 299.417 117.477H296.846Z" fill="#A1B7BF"/>
<path d="M268.347 47.482C268.349 47.3334 268.381 47.1866 268.44 47.0501C268.499 46.9136 268.584 46.7902 268.691 46.6868C268.798 46.5834 268.924 46.5021 269.062 46.4477C269.201 46.3932 269.348 46.3666 269.497 46.3694H324.173C324.321 46.3666 324.469 46.3932 324.607 46.4477C324.746 46.5021 324.872 46.5834 324.979 46.6868C325.086 46.7902 325.171 46.9136 325.23 47.0501C325.289 47.1866 325.32 47.3334 325.322 47.482V79.2984C325.32 79.447 325.289 79.5938 325.23 79.7303C325.171 79.8668 325.086 79.9902 324.979 80.0936C324.872 80.197 324.746 80.2783 324.607 80.3327C324.469 80.3872 324.321 80.4138 324.173 80.411H269.497C269.348 80.4138 269.201 80.3872 269.062 80.3327C268.924 80.2783 268.798 80.197 268.691 80.0936C268.584 79.9902 268.499 79.8668 268.44 79.7303C268.381 79.5938 268.349 79.447 268.347 79.2984V47.482Z" fill="#3C3C3C"/>
<path d="M269.531 46.0002H324.207C324.405 45.9967 324.601 46.0324 324.786 46.1051C324.97 46.1778 325.138 46.2862 325.28 46.424C325.422 46.5619 325.536 46.7264 325.614 46.9083C325.693 47.0901 325.735 47.2857 325.738 47.4838V79.3213C325.735 79.5193 325.693 79.7149 325.614 79.8967C325.536 80.0786 325.422 80.2432 325.28 80.381C325.138 80.5188 324.97 80.6272 324.786 80.6999C324.601 80.7727 324.405 80.8083 324.207 80.8048H269.531C269.333 80.8083 269.136 80.7727 268.952 80.6999C268.768 80.6272 268.6 80.5188 268.457 80.381C268.315 80.2432 268.202 80.0786 268.123 79.8967C268.045 79.7149 268.003 79.5193 268 79.3213V47.4838C268.003 47.2857 268.045 47.0901 268.123 46.9083C268.202 46.7264 268.315 46.5619 268.457 46.424C268.6 46.2862 268.768 46.1778 268.952 46.1051C269.136 46.0324 269.333 45.9967 269.531 46.0002ZM269.531 46.3817C269.383 46.3782 269.236 46.404 269.098 46.4575C268.96 46.5111 268.834 46.5913 268.727 46.6937C268.62 46.7962 268.535 46.9187 268.475 47.0542C268.416 47.1898 268.384 47.3358 268.381 47.4838V79.3213C268.383 79.4699 268.415 79.6167 268.474 79.7532C268.533 79.8897 268.618 80.0131 268.725 80.1165C268.832 80.2199 268.958 80.3012 269.096 80.3556C269.235 80.4101 269.382 80.4367 269.531 80.4339H324.207C324.355 80.4367 324.503 80.4101 324.641 80.3556C324.78 80.3012 324.906 80.2199 325.013 80.1165C325.119 80.0131 325.205 79.8897 325.264 79.7532C325.323 79.6167 325.354 79.4699 325.356 79.3213V47.4838C325.353 47.3358 325.321 47.1898 325.262 47.0542C325.203 46.9187 325.117 46.7962 325.01 46.6937C324.904 46.5913 324.778 46.5111 324.64 46.4575C324.502 46.404 324.355 46.3782 324.207 46.3817H269.531Z" fill="#808080"/>
<path d="M302.614 63.3876C302.614 63.3379 302.633 63.2902 302.668 63.2545C302.702 63.2189 302.75 63.1982 302.799 63.1968H312.371C312.417 63.2044 312.458 63.2281 312.488 63.2635C312.518 63.2989 312.535 63.3438 312.535 63.3902C312.535 63.4367 312.518 63.4816 312.488 63.517C312.458 63.5524 312.417 63.576 312.371 63.5836H302.799C302.749 63.5809 302.702 63.5591 302.667 63.5226C302.633 63.4861 302.614 63.4378 302.614 63.3876Z" fill="#3C3C3C"/>
<path d="M302.995 61.2841C302.995 61.1839 303.035 61.0876 303.105 61.0162C303.175 60.9448 303.271 60.904 303.371 60.9026H313.324C313.419 60.9137 313.505 60.959 313.568 61.0298C313.631 61.1006 313.666 61.192 313.666 61.2868C313.666 61.3815 313.631 61.473 313.568 61.5438C313.505 61.6146 313.419 61.6598 313.324 61.6709H303.371C303.321 61.6702 303.272 61.6597 303.226 61.6398C303.18 61.62 303.138 61.5913 303.103 61.5554C303.068 61.5195 303.041 61.4771 303.022 61.4305C303.004 61.384 302.995 61.3342 302.995 61.2841Z" fill="#3C3C3C"/>
<path d="M302.963 66.4977C302.963 66.4726 302.968 66.4478 302.978 66.4247C302.988 66.4016 303.002 66.3805 303.019 66.3628C303.037 66.3451 303.058 66.3311 303.081 66.3215C303.104 66.3119 303.129 66.3069 303.154 66.3069H313.038C313.063 66.3069 313.088 66.3119 313.111 66.3215C313.135 66.3311 313.156 66.3451 313.173 66.3628C313.191 66.3805 313.205 66.4016 313.215 66.4247C313.224 66.4478 313.229 66.4726 313.229 66.4977C313.229 66.5227 313.224 66.5475 313.215 66.5707C313.205 66.5938 313.191 66.6148 313.173 66.6326C313.156 66.6503 313.135 66.6643 313.111 66.6739C313.088 66.6835 313.063 66.6884 313.038 66.6884H303.154C303.104 66.6884 303.055 66.6683 303.019 66.6326C302.984 66.5968 302.963 66.5483 302.963 66.4977Z" fill="#3C3C3C"/>
<path d="M302.963 69.5389C302.963 69.5138 302.968 69.489 302.978 69.4659C302.988 69.4428 303.002 69.4217 303.019 69.404C303.037 69.3863 303.058 69.3722 303.081 69.3627C303.104 69.3531 303.129 69.3481 303.154 69.3481H313.038C313.063 69.3481 313.088 69.3531 313.111 69.3627C313.135 69.3722 313.156 69.3863 313.173 69.404C313.191 69.4217 313.205 69.4428 313.215 69.4659C313.224 69.489 313.229 69.5138 313.229 69.5389C313.229 69.5639 313.224 69.5887 313.215 69.6119C313.205 69.635 313.191 69.656 313.173 69.6738C313.156 69.6915 313.135 69.7055 313.111 69.7151C313.088 69.7247 313.063 69.7296 313.038 69.7296H303.154C303.104 69.7296 303.055 69.7095 303.019 69.6738C302.984 69.638 302.963 69.5895 302.963 69.5389Z" fill="#3C3C3C"/>
<path d="M302.963 64.977C302.963 64.9274 302.983 64.8796 303.017 64.844C303.052 64.8084 303.099 64.7877 303.149 64.7863H314.58C314.63 64.7877 314.677 64.8084 314.711 64.844C314.746 64.8796 314.765 64.9274 314.765 64.977C314.765 65.0267 314.746 65.0745 314.711 65.1101C314.677 65.1457 314.63 65.1664 314.58 65.1678H303.149C303.099 65.1664 303.052 65.1457 303.017 65.1101C302.983 65.0745 302.963 65.0267 302.963 64.977Z" fill="#3C3C3C"/>
<path d="M302.963 68.0183C302.963 67.9686 302.983 67.9209 303.017 67.8853C303.052 67.8497 303.099 67.829 303.149 67.8276H314.58C314.63 67.829 314.677 67.8497 314.711 67.8853C314.746 67.9209 314.765 67.9686 314.765 68.0183C314.765 68.068 314.746 68.1157 314.711 68.1513C314.677 68.187 314.63 68.2077 314.58 68.2091H303.149C303.099 68.2077 303.052 68.187 303.017 68.1513C302.983 68.1157 302.963 68.068 302.963 68.0183Z" fill="#3C3C3C"/>
<path d="M302.963 71.0595C302.963 71.0098 302.983 70.9621 303.017 70.9265C303.052 70.8909 303.099 70.8702 303.149 70.8688H314.58C314.624 70.8763 314.665 70.8993 314.694 70.9337C314.723 70.9681 314.739 71.0118 314.739 71.0569C314.739 71.102 314.723 71.1456 314.694 71.18C314.665 71.2145 314.624 71.2375 314.58 71.245H303.149C303.1 71.245 303.053 71.2254 303.018 71.1906C302.983 71.1559 302.963 71.1087 302.963 71.0595Z" fill="#3C3C3C"/>
<path d="M268.347 49.4318H325.322V52.8757H268.347V49.4318Z" fill="#757575"/>
<path d="M268.348 53H280.584V80.4105H269.513C269.21 80.4162 268.918 80.3018 268.7 80.0923C268.481 79.8827 268.355 79.5952 268.348 79.2926V53Z" fill="#646464"/>
<path d="M268.348 47.4287C268.361 47.1409 268.49 46.87 268.705 46.6747C268.92 46.4794 269.205 46.3755 269.497 46.3854H324.162C324.454 46.3755 324.775 46.4794 324.99 46.6747C325.206 46.87 325.334 47.1409 325.348 47.4287V49.3848H268.348V47.4287Z" fill="#5E5E5E"/>
<path d="M325.348 53.2575H268.348V52.876H325.348V53.2575Z" fill="#828282"/>
<path d="M270.26 55.3815C270.261 55.2798 270.302 55.1828 270.375 55.1114C270.447 55.04 270.545 55 270.646 55H278.29C278.34 55 278.39 55.0099 278.436 55.029C278.482 55.0482 278.524 55.0763 278.56 55.1117C278.595 55.1472 278.623 55.1892 278.642 55.2355C278.662 55.2818 278.671 55.3314 278.671 55.3815V59.6185C278.671 59.6686 278.662 59.7182 278.642 59.7645C278.623 59.8108 278.595 59.8528 278.56 59.8883C278.524 59.9237 278.482 59.9518 278.436 59.971C278.39 59.9901 278.34 60 278.29 60H270.646C270.545 60 270.447 59.96 270.375 59.8886C270.302 59.8172 270.261 59.7202 270.26 59.6185V55.3815Z" fill="#9ADAF3"/>
<path d="M270.148 68.3762C270.149 68.3261 270.16 68.2766 270.179 68.2306C270.199 68.1846 270.228 68.1429 270.264 68.108C270.3 68.0731 270.342 68.0456 270.389 68.027C270.435 68.0085 270.485 67.9993 270.535 68H278.179C278.229 67.9993 278.278 68.0085 278.324 68.0271C278.371 68.0457 278.413 68.0733 278.448 68.1083C278.484 68.1433 278.512 68.185 278.531 68.231C278.55 68.277 278.56 68.3264 278.56 68.3762V72.2069C278.56 72.257 278.55 72.3066 278.531 72.3529C278.512 72.3992 278.484 72.4412 278.448 72.4766C278.413 72.5121 278.371 72.5402 278.325 72.5593C278.278 72.5785 278.229 72.5884 278.179 72.5884H270.535C270.433 72.5884 270.336 72.5484 270.264 72.477C270.191 72.4056 270.15 72.3085 270.148 72.2069V68.3762Z" fill="#3C3C3C"/>
<path d="M270.26 62.3762C270.26 62.3261 270.271 62.2766 270.291 62.2306C270.311 62.1846 270.339 62.1429 270.375 62.108C270.411 62.0731 270.454 62.0456 270.5 62.027C270.547 62.0085 270.596 61.9993 270.646 62H278.29C278.34 61.9993 278.389 62.0085 278.436 62.0271C278.482 62.0457 278.524 62.0733 278.559 62.1083C278.595 62.1433 278.623 62.185 278.642 62.231C278.662 62.277 278.671 62.3264 278.671 62.3762V66.2069C278.671 66.257 278.662 66.3066 278.642 66.3529C278.623 66.3992 278.595 66.4412 278.56 66.4766C278.524 66.5121 278.482 66.5402 278.436 66.5593C278.39 66.5785 278.34 66.5884 278.29 66.5884H270.646C270.545 66.5884 270.447 66.5484 270.375 66.477C270.302 66.4056 270.261 66.3085 270.26 66.2069V62.3762Z" fill="#3C3C3C"/>
<path d="M270.148 74.3762C270.149 74.3261 270.16 74.2766 270.179 74.2306C270.199 74.1846 270.228 74.1429 270.264 74.108C270.3 74.0731 270.342 74.0456 270.389 74.027C270.435 74.0085 270.485 73.9993 270.535 74H278.179C278.229 73.9993 278.278 74.0085 278.324 74.0271C278.371 74.0457 278.413 74.0733 278.448 74.1083C278.484 74.1433 278.512 74.185 278.531 74.231C278.55 74.277 278.56 74.3264 278.56 74.3762V78.2069C278.56 78.257 278.55 78.3066 278.531 78.3529C278.512 78.3992 278.484 78.4412 278.448 78.4766C278.413 78.5121 278.371 78.5402 278.325 78.5593C278.278 78.5785 278.229 78.5884 278.179 78.5884H270.535C270.433 78.5884 270.336 78.5484 270.264 78.477C270.191 78.4056 270.15 78.3085 270.148 78.2069V74.3762Z" fill="#3C3C3C"/>
<path d="M18 119.139C18.0028 118.986 18.0347 118.836 18.094 118.696C18.1533 118.557 18.2388 118.43 18.3455 118.325C18.4523 118.219 18.5783 118.136 18.7164 118.08C18.8544 118.024 19.0017 117.997 19.15 118H73.85C73.9983 117.997 74.1456 118.024 74.2836 118.08C74.4217 118.136 74.5477 118.219 74.6545 118.325C74.7612 118.43 74.8467 118.557 74.906 118.696C74.9653 118.836 74.9972 118.986 75 119.139V151.856C74.9979 152.009 74.9665 152.16 74.9075 152.3C74.8485 152.44 74.7632 152.567 74.6563 152.673C74.5495 152.78 74.4232 152.863 74.2848 152.919C74.1465 152.975 73.9987 153.003 73.85 153H19.15C19.0013 153.003 18.8535 152.975 18.7152 152.919C18.5768 152.863 18.4505 152.78 18.3437 152.673C18.2368 152.567 18.1515 152.44 18.0925 152.3C18.0335 152.16 18.0021 152.009 18 151.856V119.139Z" fill="#444444"/>
<path d="M18 119.044C18.0138 118.756 18.1422 118.485 18.3574 118.29C18.5727 118.095 18.8574 117.991 19.15 118.001H73.85C74.1426 117.991 74.4273 118.095 74.6426 118.29C74.8578 118.485 74.9862 118.756 75 119.044V121H18V119.044Z" fill="#5E5E5E"/>
<path d="M24 125.41C24.0008 125.355 24.0127 125.3 24.035 125.25C24.0574 125.199 24.0897 125.154 24.1301 125.116C24.1706 125.077 24.2183 125.048 24.2706 125.028C24.3229 125.008 24.3787 124.999 24.4347 125L47.4433 125.146C47.4988 125.145 47.5539 125.155 47.6055 125.175C47.6571 125.195 47.7042 125.225 47.744 125.263C47.7838 125.301 47.8156 125.347 47.8375 125.397C47.8595 125.447 47.8712 125.501 47.872 125.555L48 148.59C47.9992 148.645 47.9875 148.699 47.9656 148.749C47.9436 148.799 47.9118 148.844 47.872 148.882C47.8322 148.92 47.7851 148.95 47.7335 148.97C47.6819 148.991 47.6268 149.001 47.5713 149H24.4347C24.3786 149.001 24.3229 148.992 24.2706 148.972C24.2183 148.952 24.1706 148.923 24.1301 148.884C24.0897 148.846 24.0573 148.801 24.035 148.75C24.0127 148.7 24.0008 148.645 24 148.59L24 125.41Z" fill="#3C3C3C"/>
<path d="M24.8171 125H47.1773C47.3915 124.997 47.5983 125.078 47.7524 125.224C47.9066 125.37 47.9956 125.571 48 125.781V148.224C47.9978 148.328 47.9748 148.431 47.9322 148.526C47.8897 148.621 47.8285 148.707 47.7521 148.78C47.6757 148.852 47.5856 148.908 47.487 148.946C47.3883 148.984 47.2831 149.002 47.1773 149H24.8171C24.7115 149.002 24.6066 148.984 24.5083 148.946C24.41 148.908 24.3203 148.851 24.2443 148.779C24.1684 148.707 24.1077 148.621 24.0657 148.526C24.0238 148.43 24.0015 148.328 24 148.224V125.776C24.0044 125.567 24.0928 125.368 24.2459 125.222C24.399 125.077 24.6043 124.997 24.8171 125ZM24.8171 125.394C24.7104 125.392 24.6075 125.432 24.5305 125.504C24.4535 125.577 24.4087 125.677 24.4057 125.781V148.224C24.4087 148.329 24.4535 148.428 24.5305 148.501C24.6075 148.574 24.7104 148.613 24.8171 148.612H47.1773C47.2839 148.613 47.3869 148.574 47.4639 148.501C47.5409 148.428 47.5857 148.329 47.5886 148.224V125.776C47.5857 125.671 47.5409 125.572 47.4639 125.499C47.3869 125.426 47.2839 125.386 47.1773 125.388L24.8171 125.394Z" fill="#808080"/>
<path d="M27 143.608C27 143.583 27.003 143.557 27.0087 143.534C27.0145 143.51 27.0229 143.489 27.0336 143.471C27.0442 143.454 27.0568 143.44 27.0706 143.43C27.0844 143.421 27.0991 143.417 27.114 143.417H36.8891C36.9185 143.417 36.9467 143.438 36.9675 143.473C36.9883 143.509 37 143.558 37 143.608C37 143.659 36.9883 143.707 36.9675 143.743C36.9467 143.779 36.9185 143.799 36.8891 143.799H27.114C27.0991 143.8 27.0844 143.795 27.0706 143.786C27.0568 143.777 27.0442 143.763 27.0336 143.745C27.0229 143.727 27.0145 143.706 27.0087 143.682C27.003 143.659 27 143.634 27 143.608Z" fill="#8A956A"/>
<path d="M27 141.314C27 141.263 27.0133 141.214 27.0372 141.177C27.061 141.141 27.0935 141.119 27.1277 141.118H36.8723C36.9065 141.119 36.939 141.141 36.9628 141.177C36.9867 141.214 37 141.263 37 141.314C37 141.365 36.9865 141.413 36.9626 141.449C36.9387 141.485 36.9062 141.505 36.8723 141.505H27.1277C27.1109 141.505 27.0943 141.5 27.0788 141.49C27.0633 141.481 27.0492 141.467 27.0374 141.449C27.0255 141.431 27.0161 141.41 27.0097 141.387C27.0033 141.364 27 141.339 27 141.314Z" fill="#A1B7BF"/>
<path d="M27 145.753C27.0009 145.701 27.0148 145.653 27.0388 145.617C27.0627 145.582 27.0948 145.562 27.1282 145.562H36.8753C36.9083 145.562 36.9401 145.582 36.9635 145.618C36.9869 145.653 37 145.702 37 145.753C37 145.803 36.9869 145.852 36.9635 145.887C36.9401 145.923 36.9083 145.943 36.8753 145.943H27.1282C27.0948 145.943 27.0627 145.923 27.0388 145.888C27.0148 145.852 27.0009 145.804 27 145.753Z" fill="#AC5E42"/>
<path d="M41.6368 141.5C41.3331 141.497 41.0408 141.615 40.8237 141.828C40.6066 142.04 40.4824 142.33 40.4785 142.634V143.233H40.2065C40.1796 143.232 40.1529 143.237 40.1279 143.247C40.1028 143.257 40.08 143.271 40.0608 143.29C40.0415 143.309 40.0262 143.331 40.0158 143.356C40.0054 143.381 40 143.408 40 143.434V145.298C40 145.325 40.0054 145.352 40.0158 145.377C40.0262 145.402 40.0415 145.424 40.0608 145.443C40.08 145.462 40.1028 145.476 40.1279 145.486C40.1529 145.496 40.1796 145.501 40.2065 145.5H43.0672C43.0941 145.501 43.1208 145.496 43.1458 145.486C43.1709 145.476 43.1937 145.462 43.2129 145.443C43.2321 145.424 43.2474 145.402 43.2579 145.377C43.2683 145.352 43.2737 145.325 43.2737 145.298V143.434C43.2737 143.408 43.2683 143.381 43.2579 143.356C43.2474 143.331 43.2321 143.309 43.2129 143.29C43.1937 143.271 43.1709 143.257 43.1458 143.247C43.1208 143.237 43.0941 143.232 43.0672 143.233H42.7952V142.634C42.7912 142.33 42.6671 142.04 42.45 141.828C42.2329 141.615 41.9405 141.497 41.6368 141.5ZM42.3873 142.699V143.233H40.8763V142.699C40.8763 142.499 40.9559 142.306 41.0976 142.165C41.2393 142.023 41.4314 141.943 41.6318 141.943C41.8322 141.943 42.0243 142.023 42.166 142.165C42.3077 142.306 42.3873 142.499 42.3873 142.699Z" fill="#FF6F3D"/>
<path d="M49.5378 131.598C49.5419 131.498 49.5854 131.403 49.6587 131.335C49.7321 131.266 49.8295 131.229 49.9298 131.232H63.2942C63.3944 131.229 63.4918 131.266 63.5652 131.335C63.6385 131.403 63.682 131.498 63.6861 131.598V139.9C63.6848 139.95 63.6735 140 63.6531 140.046C63.6326 140.091 63.6034 140.133 63.567 140.167C63.5306 140.201 63.4877 140.228 63.4409 140.246C63.3941 140.264 63.3442 140.273 63.2942 140.271H57.2767C57.2174 140.271 57.1587 140.284 57.1047 140.308C57.0507 140.333 57.0028 140.369 56.9642 140.414L55.1897 142.56C55.1488 142.608 55.0976 142.645 55.04 142.669C54.9824 142.694 54.9199 142.705 54.8574 142.701C54.795 142.697 54.7342 142.679 54.6797 142.649C54.6253 142.618 54.5786 142.575 54.5435 142.523L53.2722 140.79C53.191 140.647 53.0773 140.524 52.9403 140.432C52.8033 140.34 52.6466 140.281 52.4829 140.261H49.9298C49.8797 140.262 49.8298 140.254 49.783 140.236C49.7362 140.218 49.6933 140.191 49.6569 140.156C49.6205 140.122 49.5913 140.081 49.5708 140.035C49.5504 139.989 49.5392 139.94 49.5378 139.89V131.598Z" fill="#3C3C3C"/>
<path d="M63.2074 131.386H49.7927C49.7413 131.385 49.6902 131.395 49.6425 131.413C49.5948 131.432 49.5513 131.46 49.5147 131.495C49.4781 131.531 49.449 131.573 49.4292 131.62C49.4093 131.666 49.3991 131.716 49.3991 131.766V139.892C49.3991 139.994 49.4406 140.092 49.5144 140.165C49.5882 140.237 49.6883 140.278 49.7927 140.278H52.3127C52.5127 140.278 52.7095 140.327 52.8852 140.42C53.0609 140.514 53.2099 140.649 53.3186 140.814L54.3681 142.422C54.402 142.474 54.4481 142.517 54.5024 142.549C54.5568 142.58 54.6179 142.598 54.6809 142.602C54.7438 142.606 54.8067 142.594 54.8645 142.57C54.9223 142.545 54.9732 142.507 55.0132 142.459L56.4508 140.701C56.5631 140.566 56.7047 140.456 56.8655 140.381C57.0262 140.306 57.2021 140.267 57.3801 140.267H63.2074C63.3118 140.267 63.4119 140.226 63.4857 140.154C63.5595 140.082 63.601 139.984 63.601 139.881V131.783C63.6032 131.731 63.5946 131.679 63.5758 131.631C63.5569 131.582 63.5282 131.538 63.4914 131.501C63.4545 131.464 63.4103 131.435 63.3615 131.415C63.3126 131.395 63.2602 131.385 63.2074 131.386ZM49.7927 131C49.688 130.999 49.5841 131.019 49.4872 131.058C49.3904 131.097 49.3025 131.155 49.2286 131.228C49.1548 131.301 49.0966 131.387 49.0573 131.483C49.0181 131.578 48.9986 131.68 49.0001 131.783V139.908C49.0008 140.009 49.0219 140.11 49.0621 140.203C49.1023 140.296 49.1609 140.381 49.2345 140.452C49.3081 140.523 49.3953 140.58 49.4911 140.618C49.5868 140.656 49.6893 140.675 49.7927 140.674H52.3127C52.4465 140.674 52.5782 140.707 52.6957 140.77C52.8132 140.833 52.9127 140.923 52.9851 141.034L54.0292 142.642C54.0981 142.745 54.191 142.832 54.3005 142.894C54.4099 142.956 54.5327 142.992 54.6589 142.999C54.7852 143.006 54.9113 142.983 55.027 142.933C55.1426 142.883 55.2447 142.807 55.3248 142.711L56.7624 140.953C56.8368 140.863 56.9309 140.79 57.0378 140.74C57.1447 140.69 57.2617 140.664 57.3801 140.664H63.2074C63.3107 140.664 63.4132 140.645 63.509 140.607C63.6048 140.569 63.692 140.513 63.7656 140.441C63.8392 140.37 63.8978 140.286 63.938 140.192C63.9782 140.099 63.9993 139.999 64 139.897V131.783C63.9993 131.681 63.9782 131.581 63.938 131.488C63.8978 131.394 63.8392 131.31 63.7656 131.238C63.692 131.167 63.6048 131.111 63.509 131.073C63.4132 131.035 63.3107 131.015 63.2074 131.016L49.7927 131Z" fill="#5E5E5E"/>
<path d="M69.3911 137.652C69.3911 137.617 69.386 137.583 69.3762 137.551C69.3664 137.519 69.3521 137.489 69.334 137.465C69.3159 137.44 69.2944 137.421 69.2707 137.407C69.2471 137.394 69.2218 137.387 69.1962 137.387H60.0832C60.0553 137.381 60.0267 137.383 59.9995 137.393C59.9722 137.403 59.9469 137.422 59.9253 137.446C59.9037 137.471 59.8864 137.502 59.8745 137.537C59.8626 137.572 59.8564 137.61 59.8564 137.649C59.8564 137.687 59.8626 137.725 59.8745 137.76C59.8864 137.795 59.9037 137.826 59.9253 137.851C59.9469 137.876 59.9722 137.894 59.9995 137.904C60.0267 137.914 60.0553 137.916 60.0832 137.91H69.1962C69.2469 137.91 69.2957 137.883 69.3321 137.835C69.3685 137.787 69.3897 137.721 69.3911 137.652Z" fill="#3C3C3C"/>
<path d="M69.3911 139.238C69.3911 139.168 69.3714 139.1 69.3364 139.051C69.3014 139.001 69.2539 138.973 69.2044 138.973H63.2213C63.1718 138.973 63.1243 139.001 63.0893 139.051C63.0543 139.1 63.0346 139.168 63.0346 139.238C63.0346 139.308 63.0543 139.376 63.0893 139.425C63.1243 139.475 63.1718 139.503 63.2213 139.503H69.2044C69.2539 139.503 69.3014 139.475 69.3364 139.425C69.3714 139.376 69.3911 139.308 69.3911 139.238Z" fill="#3C3C3C"/>
<path d="M52 135.265C52.0009 135.194 52.028 135.127 52.0755 135.077C52.1229 135.028 52.1869 135 52.2536 135H61.2846C61.3509 135 61.4145 135.028 61.4614 135.078C61.5083 135.127 61.5346 135.195 61.5346 135.265C61.5346 135.335 61.5083 135.403 61.4614 135.452C61.4145 135.502 61.3509 135.53 61.2846 135.53H52.2536C52.1869 135.53 52.1229 135.502 52.0755 135.452C52.028 135.403 52.0009 135.336 52 135.265Z" fill="#3C3C3C"/>
<path d="M52 137.265C52.0009 137.194 52.028 137.127 52.0755 137.077C52.1229 137.028 52.1869 137 52.2536 137H61.2846C61.3509 137 61.4145 137.028 61.4614 137.078C61.5083 137.127 61.5346 137.195 61.5346 137.265C61.5346 137.335 61.5083 137.403 61.4614 137.452C61.4145 137.502 61.3509 137.53 61.2846 137.53H52.2536C52.1869 137.53 52.1229 137.502 52.0755 137.452C52.028 137.403 52.0009 137.336 52 137.265Z" fill="#3C3C3C"/>
<path d="M71.6121 134.251V134.25H58.3931H58.3821L58.3821 134.25C58.3491 134.249 58.3167 134.26 58.2919 134.282C58.2686 134.303 58.2537 134.332 58.25 134.363V142.362C58.2537 142.393 58.2686 142.422 58.2919 142.443M71.6121 134.251L58.2919 142.443M71.6121 134.251L71.6231 134.25C71.655 134.249 71.6863 134.26 71.7102 134.282C71.7328 134.302 71.7471 134.331 71.75 134.361L71.6121 134.251ZM58.2919 142.443C58.3167 142.465 58.3491 142.476 58.3821 142.475L58.3931 142.474V142.475H64.3417M58.2919 142.443L64.3417 142.475M64.3417 142.475H64.3422V142.725M64.3417 142.475L64.6514 142.861C64.6124 142.818 64.5646 142.783 64.5114 142.76C64.4581 142.736 64.4004 142.724 64.3422 142.725M64.3422 142.725H58.3931C58.2947 142.729 58.1985 142.695 58.1251 142.629L64.3422 142.725Z" fill="url(#paint0_linear_2601_126815)" stroke="#444444" stroke-width="0.5"/>
<path d="M60 137.265C60.0009 137.194 60.028 137.127 60.0755 137.077C60.1229 137.028 60.1869 137 60.2536 137H69.2846C69.3509 137 69.4145 137.028 69.4614 137.078C69.5083 137.127 69.5347 137.195 69.5347 137.265C69.5347 137.335 69.5083 137.403 69.4614 137.452C69.4145 137.502 69.3509 137.53 69.2846 137.53H60.2536C60.1869 137.53 60.1229 137.502 60.0755 137.452C60.028 137.403 60.0009 137.336 60 137.265Z" fill="#3C3C3C"/>
<path d="M60 139.265C60.0009 139.194 60.028 139.127 60.0755 139.077C60.1229 139.028 60.1869 139 60.2536 139H69.2846C69.3509 139 69.4145 139.028 69.4614 139.078C69.5083 139.127 69.5347 139.195 69.5347 139.265C69.5347 139.335 69.5083 139.403 69.4614 139.452C69.4145 139.502 69.3509 139.53 69.2846 139.53H60.2536C60.1869 139.53 60.1229 139.502 60.0755 139.452C60.028 139.403 60.0009 139.336 60 139.265Z" fill="#3C3C3C"/>
<path d="M284.368 56.7268C284.368 56.5262 284.532 56.3635 284.735 56.3635H317.265C317.468 56.3635 317.633 56.5262 317.633 56.7268V75.7268C317.633 75.9274 317.468 76.0901 317.265 76.0901H284.735C284.532 76.0901 284.368 75.9274 284.368 75.7268V56.7268Z" fill="#9ADAF3"/>
<path d="M305.227 65.1449C309.679 66.5037 314.943 66.4076 318 66V57C318 56.4477 317.552 56 317 56H285C284.448 56 284 56.4477 284 57V63.5C285.475 60.1822 287.926 58.8604 290.483 58.5953C295.937 58.0298 299.983 63.5441 305.227 65.1449Z" fill="#C0EAFA"/>
<path d="M277.884 58C278.31 57.9986 278.696 57.9667 279 57.922V56C279 55.4477 278.552 55 278 55H271C270.448 55 270 55.4477 270 56V57.1915C271.124 54.3991 274.874 58.0096 277.884 58Z" fill="#9ADAF3" fill-opacity="0.4"/>
<path d="M294 69C298.4 70.6 298.833 74.5179 298.5 76.1846H285C284.448 76.1846 284 75.7369 284 75.1846V68C287 71 288.5 67 294 69Z" fill="#C0EAFA"/>
<path d="M272.742 58.2444C273.948 58.6353 274.067 59.5927 273.976 60H271C270.448 60 270 59.5523 270 59V58C270.823 58.7331 271.234 57.7556 272.742 58.2444Z" fill="#C0EAFA"/>
<path d="M305 76.2406C305.4 70.2406 313.777 68.1667 317.777 68V76.2406H305Z" fill="#C0EAFA"/>
<path d="M275 60C275.125 58.5438 277.748 58.0404 279 58V59C279 59.5523 278.552 60 278 60H275Z" fill="#C0EAFA"/>
<path fill-rule="evenodd" clip-rule="evenodd" d="M284.735 56H317.265C317.671 56 318 56.3253 318 56.7266V75.7266C318 76.1279 317.671 76.4532 317.265 76.4532H284.735C284.329 76.4532 284 76.1279 284 75.7266V56.7266C284 56.3253 284.329 56 284.735 56ZM284.735 56.3633C284.532 56.3633 284.368 56.526 284.368 56.7266V75.7266C284.368 75.9272 284.532 76.0899 284.735 76.0899H317.265C317.468 76.0899 317.632 75.9272 317.632 75.7266V56.7266C317.632 56.526 317.468 56.3633 317.265 56.3633H284.735Z" fill="#AAAAAA"/>
<path d="M304 73.15C305.74 73.15 307.15 71.7397 307.15 70C307.15 68.2603 305.74 66.85 304 66.85C302.26 66.85 300.85 68.2603 300.85 70C300.85 71.7397 302.26 73.15 304 73.15Z" fill="#FFC5B1" stroke="#FF6F3D" stroke-width="0.3"/>
<path d="M312 73.15C313.74 73.15 315.15 71.7397 315.15 70C315.15 68.2603 313.74 66.85 312 66.85C310.26 66.85 308.85 68.2603 308.85 70C308.85 71.7397 310.26 73.15 312 73.15Z" fill="#E3EEC4" stroke="#8BB825" stroke-width="0.3"/>
<path d="M288.165 69.7738C288.047 69.7738 287.965 69.8506 287.92 69.9239C287.874 69.9996 287.85 70.0947 287.85 70.1919C287.85 70.289 287.874 70.3842 287.92 70.4599C287.965 70.5332 288.047 70.6099 288.165 70.6099H296.728C296.845 70.6099 296.927 70.5332 296.972 70.4599C297.018 70.3842 297.042 70.289 297.042 70.1919C297.042 70.0947 297.018 69.9996 296.972 69.9239C296.927 69.8506 296.845 69.7738 296.728 69.7738H288.165Z" fill="#3C3C3C" stroke="#9ADAF3" stroke-width="0.3" stroke-linecap="round" stroke-linejoin="round"/>
<path d="M288.155 71.7973C288.036 71.7973 287.957 71.8795 287.915 71.9507C287.872 72.0259 287.85 72.1197 287.85 72.2153C287.85 72.3109 287.872 72.4047 287.915 72.4799C287.957 72.5511 288.036 72.6334 288.155 72.6334H296.214C296.333 72.6334 296.413 72.5511 296.454 72.4799C296.497 72.4047 296.519 72.3109 296.519 72.2153C296.519 72.1197 296.497 72.0259 296.454 71.9507C296.413 71.8795 296.333 71.7973 296.214 71.7973H288.155Z" fill="#3C3C3C" stroke="#9ADAF3" stroke-width="0.3" stroke-linecap="round" stroke-linejoin="round"/>
<path d="M288.333 61.85C288.097 61.85 287.85 62.0101 287.85 62.27C287.85 62.5299 288.097 62.69 288.333 62.69H305.667C305.903 62.69 306.15 62.5299 306.15 62.27C306.15 62.0101 305.903 61.85 305.667 61.85H288.333Z" fill="#3C3C3C" stroke="#9ADAF3" stroke-width="0.3" stroke-linecap="round" stroke-linejoin="round"/>
<path d="M288.259 59.85C288.027 59.85 287.85 60.0439 287.85 60.27C287.85 60.4961 288.027 60.69 288.259 60.69H301.741C301.973 60.69 302.15 60.4961 302.15 60.27C302.15 60.0439 301.973 59.85 301.741 59.85H288.259Z" fill="#3C3C3C" stroke="#9ADAF3" stroke-width="0.3" stroke-linecap="round" stroke-linejoin="round"/>
<path d="M288.174 65.7265C288.059 65.7265 287.974 65.7984 287.925 65.8732C287.876 65.9494 287.85 66.0458 287.85 66.1445C287.85 66.2433 287.876 66.3396 287.925 66.4158C287.974 66.4906 288.059 66.5626 288.174 66.5626H297.241C297.357 66.5626 297.442 66.4906 297.49 66.4158C297.54 66.3396 297.565 66.2433 297.565 66.1445C297.565 66.0458 297.54 65.9494 297.49 65.8732C297.442 65.7984 297.357 65.7265 297.241 65.7265H288.174Z" fill="#3C3C3C" stroke="#9ADAF3" stroke-width="0.3" stroke-linecap="round" stroke-linejoin="round"/>
<path d="M288.417 63.85C288.277 63.85 288.144 63.8864 288.041 63.9532C287.939 64.019 287.85 64.1276 287.85 64.27C287.85 64.4124 287.939 64.521 288.041 64.5868C288.144 64.6536 288.277 64.69 288.417 64.69H313.583C313.723 64.69 313.856 64.6536 313.959 64.5868C314.061 64.521 314.15 64.4124 314.15 64.27C314.15 64.1276 314.061 64.019 313.959 63.9532C313.856 63.8864 313.723 63.85 313.583 63.85H288.417Z" fill="#3C3C3C" stroke="#9ADAF3" stroke-width="0.3" stroke-linecap="round" stroke-linejoin="round"/>
<path d="M288.176 67.7499C288.061 67.7499 287.976 67.821 287.926 67.896C287.876 67.9723 287.85 68.0689 287.85 68.168C287.85 68.267 287.876 68.3636 287.926 68.4399C287.976 68.5149 288.061 68.586 288.176 68.586H298.808C298.924 68.586 299.009 68.5149 299.058 68.4399C299.109 68.3636 299.135 68.267 299.135 68.168C299.135 68.0689 299.109 67.9723 299.058 67.896C299.009 67.821 298.924 67.7499 298.808 67.7499H288.176Z" fill="#3C3C3C" stroke="#9ADAF3" stroke-width="0.3" stroke-linecap="round" stroke-linejoin="round"/>
<path d="M27 138.265C27 138.119 27.155 138 27.3462 138H44.6538C44.845 138 45 138.119 45 138.265C45 138.411 44.845 138.53 44.6538 138.53H27.3462C27.155 138.53 27 138.411 27 138.265Z" fill="#828282"/>
<path fill-rule="evenodd" clip-rule="evenodd" d="M19.15 118C19.0017 117.997 18.8544 118.024 18.7164 118.08C18.5783 118.136 18.4523 118.219 18.3455 118.325C18.2388 118.43 18.1533 118.557 18.094 118.696C18.0347 118.836 18.0028 118.986 18 119.139V151.856C18.0021 152.009 18.0335 152.16 18.0925 152.3C18.1515 152.44 18.2368 152.567 18.3437 152.673C18.4505 152.78 18.5768 152.863 18.7152 152.919C18.8535 152.975 19.0013 153.003 19.15 153H73.85C73.9987 153.003 74.1465 152.975 74.2848 152.919C74.4232 152.863 74.5495 152.78 74.6563 152.673C74.7632 152.567 74.8485 152.44 74.9075 152.3C74.9665 152.16 74.9979 152.009 75 151.856V119.139C74.9972 118.986 74.9653 118.836 74.906 118.696C74.8467 118.557 74.7612 118.43 74.6545 118.325C74.5477 118.219 74.4217 118.136 74.2836 118.08C74.1456 118.024 73.9983 117.997 73.85 118H19.15ZM74.5 119.144C74.4979 119.057 74.4794 118.971 74.4458 118.892C74.4116 118.811 74.3628 118.739 74.3027 118.68C74.2426 118.62 74.1725 118.574 74.0967 118.544C74.0209 118.513 73.9404 118.499 73.8598 118.5L73.85 118.5L19.1402 118.5C19.0596 118.499 18.9791 118.513 18.9033 118.544C18.8275 118.574 18.7574 118.62 18.6973 118.68C18.6372 118.739 18.5884 118.811 18.5542 118.892C18.5206 118.971 18.5021 119.057 18.5 119.144V151.852C18.5016 151.94 18.5198 152.026 18.5534 152.106C18.5874 152.187 18.6362 152.259 18.6963 152.319C18.7564 152.379 18.8267 152.425 18.9027 152.456C18.9787 152.487 19.0594 152.501 19.1403 152.5L19.15 152.5L73.8597 152.5C73.9406 152.501 74.0213 152.487 74.0973 152.456C74.1733 152.425 74.2436 152.379 74.3037 152.319C74.3638 152.259 74.4126 152.187 74.4466 152.106C74.4802 152.026 74.4984 151.94 74.5 151.852V119.144Z" fill="#808080"/>
<path d="M221.726 121.266C221.332 120.85 220.668 120.85 220.274 121.266L212 130H230L225.5 125.25L221.726 121.266Z" fill="#804C39"/>
<path d="M225.5 125.25L230 130H245L233.809 116.218C233.398 115.713 232.622 115.728 232.232 116.25L225.5 125.25Z" fill="#AC5E42"/>
<path d="M214.054 114.224C213.481 113.619 212.519 113.619 211.946 114.224C211.415 114.784 211.415 115.661 211.946 116.221C212.519 116.825 213.481 116.825 214.054 116.221C214.585 115.661 214.585 114.784 214.054 114.224Z" fill="#804C39"/>
<path fill-rule="evenodd" clip-rule="evenodd" d="M246 112C246 111.448 245.552 111 245 111H210C209.448 111 209 111.448 209 112V129C209 129.552 209.448 130 210 130H212L220.274 121.266C220.668 120.85 221.332 120.85 221.726 121.266L225.5 125.25L232.232 116.25C232.622 115.728 233.398 115.713 233.809 116.218L245 130C245.552 130 246 129.552 246 129V112ZM211.946 116.221C211.415 115.661 211.415 114.784 211.946 114.224C212.519 113.619 213.481 113.619 214.054 114.224C214.585 114.784 214.585 115.661 214.054 116.221C213.481 116.825 212.519 116.825 211.946 116.221Z" fill="#3C3C3C"/>
<path d="M245.75 129C245.75 129.376 245.473 129.687 245.112 129.742L234.003 116.061C233.49 115.429 232.519 115.448 232.031 116.1L225.477 124.863L221.907 121.094C221.414 120.574 220.586 120.574 220.093 121.094L211.892 129.75H210C209.586 129.75 209.25 129.414 209.25 129V112C209.25 111.586 209.586 111.25 210 111.25H245C245.414 111.25 245.75 111.586 245.75 112V129ZM225.826 125.231L232.432 116.399C232.724 116.008 233.307 115.997 233.615 116.376L244.475 129.75H230.108L225.826 125.231ZM225.523 125.637L229.419 129.75H212.581L220.456 121.438C220.751 121.126 221.249 121.126 221.544 121.438L225.174 125.269L225.319 125.422L225.523 125.637ZM214.236 114.052C213.564 113.343 212.436 113.343 211.764 114.052C211.143 114.708 211.143 115.736 211.764 116.393C212.436 117.101 213.564 117.101 214.236 116.393C214.857 115.736 214.857 114.708 214.236 114.052ZM212.127 114.396C212.602 113.895 213.398 113.895 213.873 114.396C214.312 114.859 214.312 115.585 213.873 116.049C213.398 116.549 212.602 116.549 212.127 116.049C211.688 115.585 211.688 114.859 212.127 114.396Z" stroke="#FF6F3D" stroke-width="0.5"/>
<path d="M214 141.987C214.012 141.715 214.12 141.459 214.301 141.275C214.481 141.09 214.72 140.993 214.965 141.002C215.219 140.984 215.47 141.076 215.663 141.26C215.856 141.444 215.977 141.705 216 141.987V149.963C215.979 150.25 215.86 150.517 215.667 150.709C215.475 150.902 215.224 151.006 214.965 150.999C214.84 151.004 214.715 150.981 214.598 150.931C214.481 150.881 214.375 150.806 214.285 150.709C214.194 150.612 214.123 150.496 214.074 150.368C214.025 150.24 214 150.102 214 149.963V141.987Z" fill="#8A956A"/>
<path d="M218 146.123C218.022 145.812 218.142 145.523 218.335 145.314C218.527 145.106 218.778 144.993 219.037 145C219.288 144.997 219.529 145.113 219.709 145.323C219.889 145.533 219.994 145.82 220 146.123V149.877C220 150.028 219.975 150.177 219.926 150.316C219.877 150.455 219.806 150.58 219.716 150.685C219.626 150.79 219.52 150.871 219.403 150.925C219.287 150.979 219.162 151.005 219.037 150.999C218.778 151.008 218.526 150.896 218.334 150.687C218.141 150.478 218.021 150.189 218 149.877V146.123Z" fill="#A1B7BF"/>
<path d="M228.002 141.17C227.993 141.02 228.012 140.87 228.058 140.729C228.104 140.587 228.176 140.457 228.269 140.348C228.363 140.238 228.476 140.15 228.602 140.091C228.727 140.031 228.863 140 229 140C229.137 140 229.273 140.031 229.398 140.091C229.524 140.15 229.637 140.238 229.731 140.348C229.824 140.457 229.896 140.587 229.942 140.729C229.988 140.87 230.007 141.02 229.998 141.17V149.979C229.98 150.256 229.868 150.516 229.683 150.705C229.497 150.895 229.253 151 229 151C228.747 151 228.503 150.895 228.317 150.705C228.132 150.516 228.02 150.256 228.002 149.979V141.17Z" fill="#A1B7BF"/>
<path d="M224 145.038C224.042 144.747 224.166 144.483 224.349 144.294C224.531 144.104 224.762 144 225 144C225.238 144 225.469 144.104 225.651 144.294C225.834 144.483 225.958 144.747 226 145.038V149.962C225.958 150.254 225.834 150.517 225.651 150.706C225.469 150.896 225.238 151 225 151C224.762 151 224.531 150.896 224.349 150.706C224.166 150.517 224.042 150.254 224 149.962V145.038Z" fill="#8A956A"/>
<path d="M234 137.09C234 136.801 234.105 136.524 234.293 136.319C234.48 136.115 234.735 136 235 136C235.265 136 235.52 136.115 235.707 136.319C235.895 136.524 236 136.801 236 137.09V149.91C236 150.199 235.895 150.476 235.707 150.681C235.52 150.885 235.265 151 235 151C234.735 151 234.48 150.885 234.293 150.681C234.105 150.476 234 150.199 234 149.91V137.09Z" fill="#8A956A"/>
<path d="M238 141.727C238 141.534 238.105 141.349 238.293 141.213C238.48 141.077 238.735 141 239 141C239.265 141 239.52 141.077 239.707 141.213C239.895 141.349 240 141.534 240 141.727V150.273C240 150.466 239.895 150.651 239.707 150.787C239.52 150.923 239.265 151 239 151C238.735 151 238.48 150.923 238.293 150.787C238.105 150.651 238 150.466 238 150.273V141.727Z" fill="#A1B7BF"/>
<rect x="209.25" y="134.25" width="36.5" height="18.5" rx="1.75" stroke="#8A956A" stroke-width="0.5"/>
<rect x="70.25" y="44.25" width="31.5" height="43.5" rx="0.75" fill="#3C3C3C" stroke="#808080" stroke-width="0.5"/>
<path d="M74 54.2677C74.0068 54.1909 74.0421 54.12 74.0982 54.0704C74.1543 54.0208 74.2267 53.9966 74.2997 54.0028H98.7118C98.7476 53.9973 98.784 53.9999 98.8187 54.0106C98.8534 54.0212 98.8855 54.0396 98.9129 54.0644C98.9402 54.0893 98.9621 54.1201 98.9772 54.1547C98.9922 54.1893 99 54.2269 99 54.2649C99 54.303 98.9922 54.3406 98.9772 54.3752C98.9621 54.4098 98.9402 54.4405 98.9129 54.4654C98.8855 54.4903 98.8534 54.5086 98.8187 54.5193C98.784 54.5299 98.7476 54.5325 98.7118 54.527H74.2944C74.2231 54.5318 74.1528 54.5076 74.098 54.4593C74.0432 54.4111 74.0081 54.3425 74 54.2677Z" fill="#AC5E42"/>
<path d="M74 56.2621C74.0028 56.1913 74.0317 56.1245 74.0807 56.0761C74.1296 56.0276 74.1946 56.0013 74.2617 56.0028H87.7125C87.7482 55.9973 87.7846 55.9999 87.8192 56.0106C87.8538 56.0212 87.8858 56.0396 87.9131 56.0644C87.9403 56.0893 87.9622 56.1201 87.9772 56.1547C87.9922 56.1893 88 56.2269 88 56.2649C88 56.303 87.9922 56.3406 87.9772 56.3752C87.9622 56.4098 87.9403 56.4405 87.9131 56.4654C87.8858 56.4903 87.8538 56.5086 87.8192 56.5193C87.7846 56.5299 87.7482 56.5325 87.7125 56.527H74.2617C74.228 56.5278 74.1945 56.5215 74.1632 56.5086C74.1318 56.4957 74.1031 56.4764 74.0788 56.4518C74.0545 56.4272 74.0351 56.3978 74.0215 56.3652C74.008 56.3327 74.0007 56.2976 74 56.2621Z" fill="#CCCCCC"/>
<path d="M74 52.2675C74.0068 52.1902 74.0421 52.1189 74.0981 52.069C74.1542 52.0191 74.2266 51.9947 74.2996 52.001H98.7004C98.7734 51.9947 98.8458 52.0191 98.9019 52.069C98.9579 52.1189 98.9932 52.1902 99 52.2675C98.9967 52.3055 98.9862 52.3425 98.9693 52.3762C98.9524 52.41 98.9294 52.4399 98.9015 52.4641C98.8737 52.4884 98.8415 52.5065 98.807 52.5175C98.7725 52.5286 98.7363 52.5322 98.7004 52.5283H74.2942C74.2227 52.5346 74.1517 52.5108 74.0966 52.462C74.0415 52.4131 74.0068 52.3432 74 52.2675Z" fill="#CCCCCC"/>
<path d="M74 75.2649C74.0068 75.1897 74.0422 75.1203 74.0985 75.0717C74.1548 75.0232 74.2275 74.9994 74.3007 75.0055H98.6899C98.7274 74.9975 98.7662 74.9982 98.8034 75.0076C98.8406 75.0169 98.8753 75.0346 98.905 75.0595C98.9347 75.0843 98.9586 75.1156 98.975 75.1512C98.9915 75.1867 99 75.2256 99 75.2649C99 75.3043 98.9915 75.3431 98.975 75.3787C98.9586 75.4142 98.9347 75.4455 98.905 75.4704C98.8753 75.4952 98.8406 75.5129 98.8034 75.5223C98.7662 75.5316 98.7274 75.5323 98.6899 75.5243H74.2953C74.223 75.5289 74.1517 75.5045 74.0966 75.4561C74.0415 75.4076 74.0068 75.3391 74 75.2649Z" fill="#A1B7BF"/>
<path d="M74 77.2642C74 77.118 74.1913 77 74.425 77H96.3468C96.5859 77 96.7772 77.118 96.7772 77.2642C96.7772 77.4104 96.5859 77.5284 96.3468 77.5284H74.425C74.1913 77.5453 74 77.4104 74 77.2642Z" fill="#CCCCCC"/>
<path d="M74 73.2677C74.0068 73.1909 74.0423 73.12 74.0986 73.0704C74.1549 73.0208 74.2276 72.9966 74.301 73.0028H98.7107C98.7466 72.9973 98.7832 72.9999 98.818 73.0106C98.8528 73.0212 98.8851 73.0396 98.9125 73.0644C98.94 73.0893 98.962 73.1201 98.9771 73.1547C98.9922 73.1893 99 73.2269 99 73.2649C99 73.303 98.9922 73.3406 98.9771 73.3752C98.962 73.4098 98.94 73.4405 98.9125 73.4654C98.8851 73.4903 98.8528 73.5086 98.818 73.5193C98.7832 73.5299 98.7466 73.5325 98.7107 73.527H74.2956C74.224 73.5318 74.1534 73.5076 74.0984 73.4593C74.0434 73.4111 74.0081 73.3425 74 73.2677Z" fill="#CCCCCC"/>
<rect x="74.25" y="59.25" width="24.5" height="11.5" rx="0.75" stroke="#828282" stroke-width="0.5"/>
<circle cx="81" cy="65" r="4" fill="#A1B7BF"/>
<path d="M85 65C85 64.2424 84.7849 63.5004 84.3796 62.8603C83.9744 62.2202 83.3957 61.7084 82.7109 61.3844C82.0261 61.0603 81.2634 60.9374 80.5114 61.0299C79.7595 61.1225 79.0494 61.4266 78.4636 61.907C77.8778 62.3874 77.4404 63.0243 77.2025 63.7435C76.9645 64.4628 76.9357 65.2348 77.1193 65.9698C77.303 66.7048 77.6916 67.3725 78.24 67.8952C78.7883 68.418 79.4739 68.7742 80.2168 68.9226L81 65H85Z" fill="#8A956A"/>
<path d="M85 65C85 64.0795 84.6825 63.1871 84.1011 62.4735C83.5196 61.7598 82.7098 61.2685 81.8083 61.0825C80.9067 60.8965 79.9686 61.0271 79.1522 61.4524C78.3358 61.8776 77.691 62.5714 77.3267 63.4168L81 65H85Z" fill="#AC5E42"/>
<rect x="88" y="63" width="8" height="0.53" rx="0.265" fill="#AC5E42"/>
<rect x="88" y="65" width="8" height="0.53" rx="0.265" fill="#8A956A"/>
<rect x="88" y="67" width="8" height="0.53" rx="0.265" fill="#A1B7BF"/>
<path d="M283.264 96.8517H337.95C338.148 96.8488 338.344 96.885 338.528 96.958C338.711 97.0311 338.879 97.1396 339.02 97.2773C339.162 97.4151 339.275 97.5794 339.353 97.7609C339.431 97.9424 339.473 98.1376 339.476 98.3352V130.173C339.473 130.37 339.431 130.565 339.353 130.747C339.275 130.928 339.162 131.093 339.02 131.23C338.879 131.368 338.711 131.477 338.528 131.55C338.344 131.623 338.148 131.659 337.95 131.656H283.264C283.066 131.659 282.87 131.623 282.687 131.55C282.503 131.477 282.336 131.368 282.194 131.23C282.052 131.093 281.939 130.928 281.861 130.747C281.783 130.565 281.741 130.37 281.738 130.173V98.3352C281.741 98.1376 281.783 97.9424 281.861 97.7609C281.939 97.5794 282.052 97.4151 282.194 97.2773C282.336 97.1396 282.503 97.0311 282.687 96.958C282.87 96.885 283.066 96.8488 283.264 96.8517ZM283.264 97.2225C283.116 97.2204 282.969 97.2475 282.831 97.3023C282.693 97.3571 282.568 97.4385 282.461 97.5418C282.355 97.6451 282.27 97.7684 282.212 97.9045C282.153 98.0406 282.122 98.187 282.12 98.3352V130.173C282.122 130.321 282.153 130.467 282.212 130.603C282.27 130.739 282.355 130.863 282.461 130.966C282.568 131.069 282.693 131.151 282.831 131.206C282.969 131.26 283.116 131.287 283.264 131.285H337.95C338.098 131.287 338.246 131.26 338.383 131.206C338.521 131.151 338.647 131.069 338.753 130.966C338.859 130.863 338.944 130.739 339.003 130.603C339.061 130.467 339.092 130.321 339.094 130.173V98.3352C339.092 98.187 339.061 98.0406 339.003 97.9045C338.944 97.7684 338.859 97.6451 338.753 97.5418C338.647 97.4385 338.521 97.3571 338.383 97.3023C338.246 97.2475 338.098 97.2204 337.95 97.2225H283.264Z" fill="#808080"/>
<path d="M335 118H315V128H335V118Z" fill="#3C3C3C"/>
<path d="M331.41 121.401C331.799 121.294 332.175 121.021 332.55 120.505V126.738H317.663C318.404 126.326 319.043 125.745 319.524 125.038L319.524 125.038L319.526 125.034C319.964 124.339 320.382 123.72 320.915 123.389C321.177 123.226 321.467 123.134 321.803 123.14C322.141 123.146 322.536 123.251 323.006 123.497C323.504 123.759 323.914 123.864 324.283 123.83C324.654 123.795 324.96 123.62 325.254 123.37C325.496 123.164 325.74 122.897 326.01 122.603C326.064 122.544 326.118 122.485 326.174 122.425C326.514 122.056 326.907 121.646 327.409 121.228C327.885 120.832 328.32 120.757 328.737 120.813C329.076 120.858 329.399 120.986 329.737 121.121C329.833 121.159 329.93 121.198 330.029 121.235C330.463 121.399 330.928 121.533 331.41 121.401Z" fill="#AC5E42" stroke="#FF6F3D" stroke-width="0.3"/>
<path fill-rule="evenodd" clip-rule="evenodd" d="M315 118H335V128H315V118ZM315.268 118.279V127.721H334.732V118.279H315.268Z" fill="#FF6F3D"/>
<rect x="289" y="109.5" width="19" height="0.5" rx="0.25" fill="#8BB825"/>
<rect x="289" y="117.5" width="19" height="0.5" rx="0.25" fill="#9ADAF3"/>
<rect x="288" y="113.5" width="5" height="0.5" rx="0.25" fill="#E6E6E6"/>
<rect x="288" y="121.5" width="5" height="0.5" rx="0.25" fill="#E6E6E6"/>
<rect x="288" y="125.5" width="5" height="0.5" rx="0.25" fill="#E6E6E6"/>
<rect x="296" y="113.5" width="5" height="0.5" rx="0.25" fill="#E6E6E6"/>
<rect x="296" y="121.5" width="5" height="0.5" rx="0.25" fill="#E6E6E6"/>
<rect x="296" y="125.5" width="5" height="0.5" rx="0.25" fill="#E6E6E6"/>
<rect x="304" y="113.5" width="5" height="0.5" rx="0.25" fill="#E6E6E6"/>
<rect x="304" y="121.5" width="5" height="0.5" rx="0.25" fill="#E6E6E6"/>
<rect x="304" y="125.5" width="5" height="0.5" rx="0.25" fill="#E6E6E6"/>
<rect x="314.5" y="117.5" width="1.5" height="1.5" fill="#FF6F3D"/>
<rect x="314.5" y="127" width="1.5" height="1.5" fill="#FF6F3D"/>
<rect x="334" y="117.5" width="1.5" height="1.5" fill="#FF6F3D"/>
<rect x="334" y="127" width="1.5" height="1.5" fill="#FF6F3D"/>
<path d="M35 136H35.5L37 134L34.8 131.067C34.4 130.533 33.6 130.533 33.2 131.067L29.5 136H35Z" fill="#8A956A"/>
<path d="M42 136L39.3124 132.928C38.8939 132.45 38.1411 132.478 37.7598 132.987L37 134L35.5 136H42Z" fill="#A1B7BF"/>
<path d="M45 129C45 128.448 44.5523 128 44 128H28C27.4477 128 27 128.448 27 129V135C27 135.552 27.4477 136 28 136H29.5L33.2 131.067C33.6 130.533 34.4 130.533 34.8 131.067L37 134L37.7598 132.987C38.1411 132.478 38.8939 132.45 39.3124 132.928L42 136H44C44.5523 136 45 135.552 45 135V129Z" fill="#3C3C3C"/>
<path d="M35 135.75H30L33.4 131.217C33.7 130.817 34.3 130.817 34.6 131.217L36.6875 134L35.375 135.75H35ZM37.5598 132.837L37 133.583L35 130.917C34.5 130.25 33.5 130.25 33 130.917L29.375 135.75H28C27.5858 135.75 27.25 135.414 27.25 135V129C27.25 128.586 27.5858 128.25 28 128.25H44C44.4142 128.25 44.75 128.586 44.75 129V135C44.75 135.414 44.4142 135.75 44 135.75H42.1134L39.5005 132.764C38.9774 132.166 38.0365 132.201 37.5598 132.837ZM39.1242 133.093L41.4491 135.75H36L37 134.417L37.2 134.15L37.3125 134L37.9598 133.137C38.2458 132.756 38.8103 132.734 39.1242 133.093Z" stroke="#828282" stroke-width="0.5"/>
<path d="M38.25 141C38.25 140.586 38.5858 140.25 39 140.25H44C44.4142 140.25 44.75 140.586 44.75 141V146C44.75 146.414 44.4142 146.75 44 146.75H39C38.5858 146.75 38.25 146.414 38.25 146V141Z" stroke="#828282" stroke-width="0.5"/>
<path d="M270.646 54.7831H278.285C278.484 54.783 278.675 54.8603 278.819 54.9987C278.962 55.1371 279.046 55.3258 279.053 55.5249V59.3556C279.053 59.4562 279.033 59.5559 278.994 59.6488C278.955 59.7417 278.899 59.826 278.827 59.8969C278.756 59.9679 278.671 60.0239 278.578 60.062C278.485 60.1 278.385 60.1192 278.285 60.1185H270.646C270.546 60.1192 270.446 60.1 270.353 60.062C270.26 60.0239 270.175 59.9679 270.104 59.8969C270.032 59.826 269.976 59.7417 269.937 59.6488C269.898 59.5559 269.878 59.4562 269.878 59.3556V55.5249C269.885 55.3258 269.969 55.1371 270.112 54.9987C270.256 54.8603 270.447 54.783 270.646 54.7831ZM270.646 55.1646C270.545 55.1646 270.448 55.2048 270.377 55.2764C270.305 55.3479 270.265 55.4449 270.265 55.5461V59.3768C270.265 59.4779 270.305 59.575 270.377 59.6465C270.448 59.718 270.545 59.7582 270.646 59.7582H278.285C278.386 59.7583 278.484 59.7182 278.556 59.6468C278.629 59.5754 278.67 59.4784 278.671 59.3768V55.5249C278.67 55.4232 278.629 55.3262 278.556 55.2548C278.484 55.1834 278.386 55.1434 278.285 55.1434L270.646 55.1646Z" fill="#808080"/>
<path d="M205.5 53.5C205.5 60.1274 210.873 65.5 217.5 65.5C224.127 65.5 229.5 60.1274 229.5 53.5C229.5 46.8726 224.127 41.5 217.5 41.5C210.873 41.5 205.5 46.8726 205.5 53.5Z" fill="url(#paint1_linear_2601_126815)" stroke="#444444"/>
<path fill-rule="evenodd" clip-rule="evenodd" d="M221.406 52.5768C221.623 52.5768 221.807 52.6544 221.959 52.8098C222.111 52.9651 222.188 53.1538 222.188 53.3757V58.1698C222.188 58.3916 222.111 58.5804 221.96 58.7358C221.808 58.8911 221.623 58.9688 221.406 58.9688H213.594C213.377 58.9688 213.192 58.891 213.04 58.7358C212.888 58.5804 212.812 58.3916 212.812 58.1698V53.3758C212.812 53.1537 212.888 52.965 213.04 52.8098C213.192 52.6544 213.377 52.5768 213.594 52.5768H213.854V50.9787C213.854 49.9577 214.212 49.0811 214.928 48.3487C215.644 47.6162 216.502 47.25 217.5 47.25C218.498 47.25 219.355 47.6162 220.072 48.3487C220.788 49.0811 221.146 49.9577 221.146 50.9787V52.5768H221.406ZM215.417 52.5768H219.583V50.9787C219.583 50.3905 219.38 49.8883 218.973 49.4723C218.566 49.0561 218.075 48.8481 217.5 48.8481C216.925 48.8481 216.434 49.0561 216.027 49.4723C215.62 49.8883 215.417 50.3905 215.417 50.9787V52.5768Z" fill="#3C3C3C"/>
<path d="M100.775 90.2775C104.364 90.2775 107.274 87.3669 107.274 83.7765C107.274 80.1861 104.364 77.2755 100.775 77.2755C97.1853 77.2755 94.2754 80.1861 94.2754 83.7765C94.2754 87.3669 97.1853 90.2775 100.775 90.2775Z" fill="url(#paint2_linear_2601_126815)"/>
<path d="M100.775 90.5425C99.4355 90.5435 98.126 90.1471 97.0119 89.4035C95.8979 88.6599 95.0294 87.6024 94.5163 86.3649C94.0033 85.1274 93.8688 83.7655 94.1298 82.4515C94.3909 81.1375 95.0357 79.9305 95.9828 78.9832C96.9298 78.036 98.1366 77.391 99.4502 77.1299C100.764 76.8688 102.125 77.0033 103.363 77.5164C104.6 78.0296 105.657 78.8983 106.401 80.0126C107.144 81.127 107.54 82.4369 107.539 83.7765C107.536 85.5701 106.823 87.2894 105.555 88.5577C104.287 89.8259 102.568 90.5397 100.775 90.5425ZM100.775 77.5351C99.5405 77.5341 98.3336 77.8992 97.3068 78.5844C96.2799 79.2696 95.4793 80.244 95.0062 81.3844C94.5331 82.5247 94.4088 83.7799 94.649 84.9909C94.8891 86.202 95.483 87.3146 96.3555 88.188C97.2279 89.0614 98.3397 89.6564 99.5503 89.8976C100.761 90.1389 102.016 90.0156 103.156 89.5433C104.297 89.0711 105.272 88.2711 105.958 87.2446C106.643 86.2181 107.01 85.0112 107.01 83.7765C107.008 82.1226 106.351 80.5366 105.182 79.3666C104.013 78.1966 102.428 77.5379 100.775 77.5351Z" fill="#808080"/>
<path d="M104.504 81.2704C104.779 81.53 103.503 83.3474 101.654 85.3342C101.352 85.6521 101.061 85.9541 100.78 86.2349L100.33 86.68L99.8797 86.3038C98.2641 84.9475 97.2047 83.7818 97.4007 83.5275C97.5967 83.2732 98.9898 84.0202 100.701 85.2548L99.8056 85.3236C100.065 85.0269 100.335 84.709 100.643 84.3911C102.512 82.4043 104.223 81.0108 104.504 81.2704Z" fill="#3C3C3C"/>
<path d="M84 89V108H122" stroke="#AAAAAA" stroke-dasharray="2 4"/>
<path d="M81 134.5C80.7239 134.5 80.5 134.724 80.5 135C80.5 135.276 80.7239 135.5 81 135.5L81 134.5ZM81.9286 135.5C82.2047 135.5 82.4286 135.276 82.4286 135C82.4286 134.724 82.2047 134.5 81.9286 134.5L81.9286 135.5ZM85.6429 134.5C85.3667 134.5 85.1429 134.724 85.1429 135C85.1429 135.276 85.3667 135.5 85.6429 135.5L85.6429 134.5ZM87.5 135.5C87.7761 135.5 88 135.276 88 135C88 134.724 87.7761 134.5 87.5 134.5L87.5 135.5ZM91.2143 134.5C90.9381 134.5 90.7143 134.724 90.7143 135C90.7143 135.276 90.9381 135.5 91.2143 135.5L91.2143 134.5ZM93.0714 135.5C93.3476 135.5 93.5714 135.276 93.5714 135C93.5714 134.724 93.3476 134.5 93.0714 134.5L93.0714 135.5ZM96.7857 134.5C96.5096 134.5 96.2857 134.724 96.2857 135C96.2857 135.276 96.5096 135.5 96.7857 135.5L96.7857 134.5ZM98.6429 135.5C98.919 135.5 99.1429 135.276 99.1429 135C99.1429 134.724 98.919 134.5 98.6429 134.5L98.6429 135.5ZM102.357 134.5C102.081 134.5 101.857 134.724 101.857 135C101.857 135.276 102.081 135.5 102.357 135.5L102.357 134.5ZM104.214 135.5C104.49 135.5 104.714 135.276 104.714 135C104.714 134.724 104.49 134.5 104.214 134.5L104.214 135.5ZM107.929 134.5C107.652 134.5 107.429 134.724 107.429 135C107.429 135.276 107.652 135.5 107.929 135.5L107.929 134.5ZM109.786 135.5C110.062 135.5 110.286 135.276 110.286 135C110.286 134.724 110.062 134.5 109.786 134.5L109.786 135.5ZM113.5 134.5C113.224 134.5 113 134.724 113 135C113 135.276 113.224 135.5 113.5 135.5L113.5 134.5ZM115.357 135.5C115.633 135.5 115.857 135.276 115.857 135C115.857 134.724 115.633 134.5 115.357 134.5L115.357 135.5ZM119.071 134.5C118.795 134.5 118.571 134.724 118.571 135C118.571 135.276 118.795 135.5 119.071 135.5L119.071 134.5ZM81 135.5L81.9286 135.5L81.9286 134.5L81 134.5L81 135.5ZM85.6429 135.5L87.5 135.5L87.5 134.5L85.6429 134.5L85.6429 135.5ZM91.2143 135.5L93.0714 135.5L93.0714 134.5L91.2143 134.5L91.2143 135.5ZM96.7857 135.5L98.6429 135.5L98.6429 134.5L96.7857 134.5L96.7857 135.5ZM102.357 135.5L104.214 135.5L104.214 134.5L102.357 134.5L102.357 135.5ZM107.929 135.5L109.786 135.5L109.786 134.5L107.929 134.5L107.929 135.5ZM113.5 135.5L115.357 135.5L115.357 134.5L113.5 134.5L113.5 135.5ZM119.071 135.5L120 135.5L120 134.5L119.071 134.5L119.071 135.5Z" fill="#AAAAAA"/>
<path d="M193.5 57C193.5 56.7239 193.276 56.5 193 56.5C192.724 56.5 192.5 56.7239 192.5 57H193.5ZM192.5 58C192.5 58.2761 192.724 58.5 193 58.5C193.276 58.5 193.5 58.2761 193.5 58H192.5ZM193.5 62C193.5 61.7239 193.276 61.5 193 61.5C192.724 61.5 192.5 61.7239 192.5 62H193.5ZM192.5 64C192.5 64.2761 192.724 64.5 193 64.5C193.276 64.5 193.5 64.2761 193.5 64H192.5ZM193.5 68C193.5 67.7239 193.276 67.5 193 67.5C192.724 67.5 192.5 67.7239 192.5 68H193.5ZM192.5 70C192.5 70.2761 192.724 70.5 193 70.5C193.276 70.5 193.5 70.2761 193.5 70H192.5ZM193.5 74C193.5 73.7239 193.276 73.5 193 73.5C192.724 73.5 192.5 73.7239 192.5 74H193.5ZM192.5 57V58H193.5V57H192.5ZM192.5 62V64H193.5V62H192.5ZM192.5 68V70H193.5V68H192.5ZM192.5 74V75H193.5V74H192.5Z" fill="#AAAAAA"/>
<path d="M311 134V151H260" stroke="#AAAAAA" stroke-dasharray="2 4"/>
<path d="M282.12 100.677H339.095V104.121H282.12V100.677Z" fill="#828282"/>
</g>
<defs>
<linearGradient id="paint0_linear_2601_126815" x1="58" y1="133.57" x2="68.5917" y2="147.577" gradientUnits="userSpaceOnUse">
<stop stop-color="#FF8E3D"/>
<stop offset="1" stop-color="#FF6F3D"/>
</linearGradient>
<linearGradient id="paint1_linear_2601_126815" x1="230" y1="40.0234" x2="205" y2="66" gradientUnits="userSpaceOnUse">
<stop stop-color="#FF8E3D"/>
<stop offset="1" stop-color="#FF6F3D"/>
</linearGradient>
<linearGradient id="paint2_linear_2601_126815" x1="94.2755" y1="76.7676" x2="107.278" y2="90.2744" gradientUnits="userSpaceOnUse">
<stop stop-color="#FF8E3D"/>
<stop offset="1" stop-color="#FF6F3D"/>
</linearGradient>
<clipPath id="clip0_2601_126815">
<rect width="377" height="146" fill="white" transform="translate(0 24)"/>
</clipPath>
</defs>
</svg>
