<svg width="377" height="193" fill="none" xmlns="http://www.w3.org/2000/svg">
<symbol id="welcome-dark" viewBox="0 0 377 193">
<g clip-path="url(#clip0)"><path d="M81 32c0-.5523.4551-1 1.0164-1h28.9676c.561 0 1.016.4477 1.016 1v39c0 .5523-.455 1-1.016 1H82.0164C81.4551 72 81 71.5523 81 71V32z" fill="#555"/><path d="M76 37.0244C76 36.4586 76.4551 36 77.0164 36h28.9676c.561 0 1.016.4586 1.016 1.0244v39.9512c0 .5658-.455 1.0244-1.016 1.0244H77.0164C76.4551 78 76 77.5414 76 76.9756V37.0244z" fill="gray"/><path d="M211.652 36.3821l-.336.0901-.171-.355c-.925-1.8588-2.44-3.3643-4.312-4.2845a9.5899 9.5899 0 00-6.048-.8072l-.337.0901-.171-.2649c-1.938-3.7724-5.644-6.3209-9.943-6.3209-6.232 0-11.37 5.4414-11.37 12.1861-3.791-2.6491-7.839-2.6491-10.451-1.6636-2.611.9854-4.63 3.2531-5.645 5.9817a11.4544 11.4544 0 00.086 8.5197c1.18 2.6492 3.541 4.7685 7.412 5.5314l44.405.1749h.278c2.465-.1523 4.777-1.2405 6.456-3.039 1.678-1.7985 2.595-4.169 2.558-6.6198.064-6.5858-6.515-11.1476-12.411-9.2191z" fill="#96C8FD"/><path fill-rule="evenodd" clip-rule="evenodd" d="M37.397 91.5639a9.304 9.304 0 01-.1059 2.4585l1.8063 1.3934-1.5891 3.428-2.2301-.4821a9.549 9.549 0 01-1.8116 1.6693l.2914 2.262-3.549 1.298-1.2342-1.918a9.3268 9.3268 0 01-2.4632-.106l-1.3931 1.807-3.4219-1.59.4768-2.2302a9.3492 9.3492 0 01-1.6633-1.812l-2.2671.2914-1.2925-3.5499 1.9122-1.2345a9.3305 9.3305 0 01.106-2.4637l-1.8063-1.3935 1.5891-3.428 2.23.4822a9.3458 9.3458 0 011.8116-1.6637l-.286-2.2677 3.5437-1.2927 1.2395 1.9127a9.299 9.299 0 012.4578.1059l1.3931-1.8067 3.4272 1.5895-.482 2.2306a9.534 9.534 0 011.6685 1.812l2.2619-.2914 1.2977 3.5498-1.9175 1.2398zm-5.4029-.392a4.052 4.052 0 00-7.4809-.3179 4.0535 4.0535 0 002.7164 5.6468 4.0522 4.0522 0 004.6328-2.2298 4.0539 4.0539 0 00.1317-3.0991zM23.4393 68.7177a10.6589 10.6589 0 01-.1218 2.8187l2.0712 1.5895-1.8222 3.926-2.5585-.5298a10.5128 10.5128 0 01-2.0764 1.9127l.3337 2.5908-4.0628 1.4888-1.4143-2.1987a10.4266 10.4266 0 01-2.8181-.1219l-1.589 2.0716-3.9252-1.8226.5297-2.5538a10.6315 10.6315 0 01-1.9069-2.0769l-2.5955.3338L0 72.0821l2.193-1.42a10.658 10.658 0 01.1218-2.8187L.2437 66.254l1.8221-3.9473 2.5585.5299a10.5928 10.5928 0 012.0711-1.9074l-.3284-2.5909 4.0628-1.4888 1.4144 2.1988a10.4254 10.4254 0 012.818.1165l1.5891-2.0716 3.9463 1.8385-.5297 2.5591a10.6357 10.6357 0 011.9069 2.0769l2.5955-.3338 1.4832 4.0638-2.193 1.42h-.0212zm-6.1922-.4451a4.6408 4.6408 0 00-4.1614-3.046 4.6393 4.6393 0 00-4.4054 2.6807 4.6424 4.6424 0 00.7911 5.0968 4.6398 4.6398 0 005.0107 1.2185 4.6405 4.6405 0 002.6138-2.4025 4.6422 4.6422 0 00.1512-3.5475z" fill="#555"/><path d="M106.449 137.988c.426-.136.874-.184 1.319-.143.446-.047.897-.002 1.324.132-.425.138-.874.187-1.319.143-.445.05-.897.005-1.324-.132zM111.746 137.988c.426-.136.874-.184 1.319-.143.446-.047.897-.002 1.324.132-.425.138-.874.187-1.319.143-.445.05-.897.005-1.324-.132zM117.043 137.988c.426-.136.874-.184 1.319-.143.446-.047.897-.002 1.324.132-.425.138-.874.187-1.319.143-.445.05-.897.005-1.324-.132zM122.34 137.988c.426-.136.874-.184 1.319-.143.446-.047.897-.002 1.324.132-.425.138-.874.187-1.319.143-.445.05-.897.005-1.324-.132z" fill="#A9A9A9"/><path d="M127.637 137.988c.426-.136.874-.184 1.319-.143.446-.047.897-.002 1.324.132-.425.138-.874.187-1.319.143-.445.05-.897.005-1.324-.132zM132.934 137.988c.426-.136.874-.184 1.319-.143.446-.047.897-.002 1.324.132-.425.138-.874.187-1.319.143-.445.05-.897.005-1.324-.132zM138.231 137.988c.426-.136.874-.184 1.319-.143.446-.047.897-.002 1.324.132-.425.138-.874.187-1.319.143-.445.05-.897.005-1.324-.132zM144.058 137.988c.426-.136.874-.184 1.319-.143.446-.047.896-.002 1.324.132-.425.138-.874.187-1.319.143-.446.05-.897.005-1.324-.132zM149.355 137.988c.426-.136.874-.184 1.319-.143.446-.047.896-.002 1.324.132-.425.138-.874.187-1.319.143-.446.05-.897.005-1.324-.132z" fill="#333"/><path d="M101.152 138.014c.426-.141.877-.191 1.324-.148.446-.044.896.001 1.325.132-.427.141-.878.192-1.325.149-.446.043-.896-.002-1.324-.133zM95.855 138.035a3.3004 3.3004 0 011.3243-.143c.4458-.05.8971-.004 1.3242.133a3.4113 3.4113 0 01-1.3242.143 3.2981 3.2981 0 01-1.3243-.133zM90.558 138.057a6.4228 6.4228 0 012.6485 0c-.4264.14-.8777.189-1.3243.143a3.1956 3.1956 0 01-1.3242-.143zM85.261 138.083a6.4228 6.4228 0 012.6485 0 3.3552 3.3552 0 01-1.3243.143 3.4115 3.4115 0 01-1.3242-.143zM79.9639 138.104a3.412 3.412 0 011.3243-.143 3.2975 3.2975 0 011.3242.133 3.4113 3.4113 0 01-1.3242.143 3.2981 3.2981 0 01-1.3243-.133zM74.6669 138.131a3.2323 3.2323 0 011.3243-.149 3.409 3.409 0 011.3242.133 3.179 3.179 0 01-1.3242.143 3.3512 3.3512 0 01-1.3243-.127z" fill="#A9A9A9"/><path d="M69.3646 138.178a3.3 3.3 0 011.3242-.143c.4476-.05.9008-.005 1.3296.133a6.4571 6.4571 0 01-2.6485 0l-.0053.01zM257.277 152.208c-.874.184-1.776.184-2.649 0a6.4595 6.4595 0 012.649 0z" fill="#333"/><path d="M262.574 152.208c-.874.184-1.776.184-2.649 0a6.4595 6.4595 0 012.649 0zM267.871 152.208c-.874.184-1.776.184-2.649 0a6.4595 6.4595 0 012.649 0zM273.168 152.208c-.874.184-1.776.184-2.649 0a6.4595 6.4595 0 012.649 0zM278.465 152.208c-.874.184-1.775.184-2.649 0a6.4595 6.4595 0 012.649 0zM283.762 152.208c-.874.184-1.775.184-2.649 0a6.4595 6.4595 0 012.649 0zM289.059 152.208c-.873.184-1.775.184-2.649 0a6.4595 6.4595 0 012.649 0zM294.356 152.208c-.874.184-1.775.184-2.649 0a6.4595 6.4595 0 012.649 0zM299.653 152.208c-.873.184-1.775.184-2.649 0a6.4595 6.4595 0 012.649 0zM304.95 152.208c-.873.184-1.775.184-2.649 0a6.4595 6.4595 0 012.649 0zM309.754 151.716c.048 0 .08.19.106.498v.095h-.116c-.223 0-.53.026-.827.026-.446.047-.897 0-1.324-.137.428-.135.878-.181 1.324-.138.318 0 .604 0 .827.032l-.106.106c.037-.292.074-.482.116-.482zM309.813 146.417c.133.428.176.879.127 1.325.039.447-.013.898-.154 1.324-.13-.428-.172-.879-.122-1.324-.04-.447.011-.898.149-1.325zM309.86 141.119c.134.428.177.879.127 1.325.04.447-.012.898-.153 1.324a3.2772 3.2772 0 01-.122-1.324c-.04-.447.01-.898.148-1.325zM309.913 135.821c.131.428.174.879.127 1.324.037.448-.015.898-.153 1.325a3.3364 3.3364 0 01-.127-1.325c-.037-.447.015-.897.153-1.324z" fill="#A9A9A9"/><path d="M246.153 101.874c-.873.184-1.775.184-2.649 0a6.4595 6.4595 0 012.649 0zM251.45 101.874c-.873.184-1.775.184-2.649 0a6.4595 6.4595 0 012.649 0zM256.747 101.874c-.873.184-1.775.184-2.649 0a6.4595 6.4595 0 012.649 0z" fill="#333"/><path d="M262.044 101.874c-.873.184-1.775.184-2.649 0a6.4595 6.4595 0 012.649 0zM267.341 101.874c-.873.184-1.775.184-2.649 0a6.4595 6.4595 0 012.649 0zM272.638 101.874c-.873.184-1.775.184-2.648 0a6.4547 6.4547 0 012.648 0zM277.935 101.874c-.873.184-1.775.184-2.649 0a6.4595 6.4595 0 012.649 0zM283.232 101.874c-.873.184-1.775.184-2.649 0a6.4595 6.4595 0 012.649 0z" fill="#A9A9A9"/><path d="M288.529 101.874c-.873.184-1.775.184-2.648 0a6.4547 6.4547 0 012.648 0zM293.826 101.874c-.873.184-1.775.184-2.648 0a6.4547 6.4547 0 012.648 0zM298.631 101.382c.047 0 .079.19.105.498v.095h-.116c-.223 0-.53.027-.826.027a3.248 3.248 0 01-1.325-.138c.428-.134.878-.181 1.325-.138.317 0 .603 0 .826.032l-.106.106c.037-.292.074-.482.117-.482z" fill="#333"/><path d="M298.689 96.0834c.133.428.177.879.127 1.3246.04.4474-.013.8981-.154 1.3246a3.297 3.297 0 01-.122-1.3246c-.04-.447.011-.8975.149-1.3246zM298.736 90.7851c.134.428.177.879.128 1.3246.039.4474-.013.8981-.154 1.3246a3.297 3.297 0 01-.122-1.3246 3.358 3.358 0 01.148-1.3246zM298.789 85.4868c.131.4286.174.879.128 1.3246a3.416 3.416 0 01-.154 1.3245 3.334 3.334 0 01-.127-1.3245 3.3969 3.3969 0 01.153-1.3246zM118.622 122.713c.873.183 1.775.183 2.648 0a6.4204 6.4204 0 00-2.648 0zM113.325 122.713c.873.183 1.775.183 2.648 0a6.4204 6.4204 0 00-2.648 0zM108.028 122.713c.873.183 1.775.183 2.648 0a6.4204 6.4204 0 00-2.648 0zM102.762 122.686c.874.184 1.776.184 2.649 0a6.4252 6.4252 0 00-2.649 0zM97.4653 122.686a6.4237 6.4237 0 002.6487 0 6.4237 6.4237 0 00-2.6487 0zM92.1365 122.713a6.4571 6.4571 0 002.6485 0 6.4228 6.4228 0 00-2.6485 0zM87.6393 121.913c-.0529 0-.1059.328-.1271.8v.1H88.1743c.4462.044.8966-.003 1.3243-.137a3.3176 3.3176 0 00-1.3243-.138h-.5297l.1272.127c-.0265-.424-.0742-.752-.1325-.752zM87.6393 116.614a3.308 3.308 0 00-.1377 1.32c-.0435.448.0033.9.1377 1.329a3.25 3.25 0 00.1377-1.329 3.1818 3.1818 0 00-.1377-1.32zM87.6393 111.316a3.305 3.305 0 00-.1377 1.319c-.0435.448.0033.901.1377 1.33.1375-.429.1843-.882.1377-1.33a3.1788 3.1788 0 00-.1377-1.319zM87.6393 106.018a3.303 3.303 0 00-.1377 1.319c-.0435.448.0033.9.1377 1.33.1375-.429.1843-.882.1377-1.33a3.1771 3.1771 0 00-.1377-1.319zM87.6393 100.719a3.308 3.308 0 00-.1377 1.32c-.0435.448.0033.9.1377 1.33.1375-.429.1843-.882.1377-1.33a3.1836 3.1836 0 00-.1377-1.32zM87.6393 95.4211a3.3051 3.3051 0 00-.1377 1.3193c-.0435.448.0033.9002.1377 1.3299a3.2542 3.2542 0 00.1377-1.3299 3.1796 3.1796 0 00-.1377-1.3193zM87.6393 90.1228a3.3051 3.3051 0 00-.1377 1.3193c-.0435.448.0033.9002.1377 1.3298a3.2536 3.2536 0 00.1377-1.3298 3.1796 3.1796 0 00-.1377-1.3193z" fill="#A9A9A9"/><path d="M87.6393 84.8245a3.3051 3.3051 0 00-.1377 1.3193c-.0435.448.0033.9002.1377 1.3299a3.2542 3.2542 0 00.1377-1.3299 3.1796 3.1796 0 00-.1377-1.3193zM87.6393 79.5262a3.3051 3.3051 0 00-.1377 1.3193c-.0435.448.0033.9002.1377 1.3299a3.2542 3.2542 0 00.1377-1.3299 3.1796 3.1796 0 00-.1377-1.3193zM87.6393 74.2279a3.3051 3.3051 0 00-.1377 1.3193c-.0435.448.0033.9002.1377 1.3299a3.2542 3.2542 0 00.1377-1.3299 3.1796 3.1796 0 00-.1377-1.3193zM87.6393 68.9296a3.3051 3.3051 0 00-.1377 1.3193c-.0435.448.0033.9002.1377 1.3298a3.2536 3.2536 0 00.1377-1.3298 3.1796 3.1796 0 00-.1377-1.3193zM160.479 122.623c.425-.136.874-.184 1.319-.143.445-.047.896-.002 1.324.132-.425.138-.874.187-1.319.143-.446.05-.897.005-1.324-.132zM155.182 122.649c.426-.141.877-.191 1.324-.148.446-.044.896.001 1.324.132-.426.141-.877.192-1.324.149-.446.043-.896-.002-1.324-.133zM149.885 122.67a3.298 3.298 0 011.324-.143c.446-.05.897-.004 1.324.133-.428.134-.878.183-1.324.143-.446.046-.897.001-1.324-.133zM144.588 122.691a6.4547 6.4547 0 012.648 0c-.426.141-.878.19-1.324.144-.447.046-.898-.003-1.324-.144zM139.291 122.718a6.4204 6.4204 0 012.648 0 3.354 3.354 0 01-1.324.143 3.408 3.408 0 01-1.324-.143zM133.994 122.739a3.408 3.408 0 011.324-.143c.446-.046.896-.001 1.324.133-.428.134-.878.183-1.324.143-.446.046-.897.001-1.324-.133zM128.697 122.766c.426-.141.877-.192 1.324-.149.446-.043.896.002 1.324.133-.426.14-.878.189-1.324.143-.446.046-.896.003-1.324-.127z" fill="#333"/><path d="M123.394 122.813a3.3 3.3 0 011.324-.143c.448-.05.901-.005 1.33.133-.873.183-1.775.183-2.648 0l-.006.01zM193.58 59.3821a3.3556 3.3556 0 01-.138-1.3246 3.3554 3.3554 0 01.138-1.3246c.137.4272.184.8783.138 1.3246.046.4463-.001.8974-.138 1.3246zM193.58 64.6804a3.3556 3.3556 0 01-.138-1.3246 3.3554 3.3554 0 01.138-1.3246c.137.4272.184.8783.138 1.3246.046.4463-.001.8974-.138 1.3246zM193.58 69.9787a3.3556 3.3556 0 01-.138-1.3246 3.3554 3.3554 0 01.138-1.3246c.137.4272.184.8783.138 1.3246.046.4463-.001.8974-.138 1.3246zM193.58 75.2717a3.3556 3.3556 0 01-.138-1.3246 3.3554 3.3554 0 01.138-1.3246c.137.4272.184.8783.138 1.3246.046.4463-.001.8974-.138 1.3246z" fill="#A9A9A9"/><path d="M193.58 80.57a3.3189 3.3189 0 01-.138-1.3246 3.3554 3.3554 0 01.138-1.3246c.137.4272.184.8783.138 1.3246.047.4463 0 .8975-.138 1.3246zM193.58 85.8736a3.3556 3.3556 0 01-.138-1.3246 3.3554 3.3554 0 01.138-1.3246c.137.4272.184.8783.138 1.3246.046.4463-.001.8974-.138 1.3246zM193.58 91.1719a6.4261 6.4261 0 010-2.6492 6.4605 6.4605 0 010 2.6492zM193.58 96.4702a6.4261 6.4261 0 010-2.6492 6.4605 6.4605 0 010 2.6492z" fill="#333"/><path d="M125.827 82.0165a4.4167 4.4167 0 014.416-4.4126h122.918a4.416 4.416 0 013.116 1.2975 4.4187 4.4187 0 011.29 3.1203v81.9003h-131.74V82.0165z" fill="#606060" stroke="#333" stroke-width=".5"/><path d="M252.213 160.41c.152.002.304-.027.445-.085.141-.057.27-.142.378-.249.108-.108.194-.236.253-.376.059-.141.089-.292.089-.445V82.9066c0-.1526-.03-.3037-.089-.4445a1.1656 1.1656 0 00-.253-.376 1.1532 1.1532 0 00-.823-.3346h-122.33a1.1548 1.1548 0 00-.823.3346 1.1345 1.1345 0 00-.253.376 1.1498 1.1498 0 00-.089.4445v76.3484c0 .153.03.304.089.445a1.1512 1.1512 0 00.631.625c.141.058.293.087.445.085h122.33z" fill="gray"/><path d="M253.09 159.532V82.3854a.5914.5914 0 00-.044-.2237.5687.5687 0 00-.127-.1896.578.578 0 00-.189-.1267.585.585 0 00-.224-.0445h-122.62a.5846.5846 0 00-.584.5845v77.1466c0 .155.061.304.171.414.11.109.258.171.413.171h122.673a.5817.5817 0 00.379-.189.5789.5789 0 00.152-.396zm.585 0c0 .154-.031.305-.09.447-.058.142-.144.27-.253.378-.109.108-.237.194-.379.252a1.163 1.163 0 01-.447.087h-122.62a1.163 1.163 0 01-.447-.087c-.141-.058-.27-.144-.379-.252a1.1677 1.1677 0 01-.253-.378 1.1614 1.1614 0 01-.089-.447V82.3854c0-.1533.03-.305.089-.4466.059-.1415.145-.27.253-.3782.109-.1081.238-.1937.379-.2519.142-.0581.294-.0877.447-.087h122.673c.153-.0007.305.0289.447.087.142.0582.271.1438.379.2519.109.1082.195.2367.254.3782.058.1416.089.2933.089.4466l-.053 77.1466z" fill="#333"/><path d="M144.159 169.354h32.237v.121h7.39v-.121h16.823v.153h9.969v-.153h53.68c1.652-.053 3.29-.32 4.873-.795.766-.244 1.513-.541 2.236-.89h-42.859v-.403h-7.866v.371l-10.064-.185v-.133h-9.969v.307l-16.225-.243h-7.988v.275l-30.442-.403-.529.128-9.874.09-25.097-.064a7.1503 7.1503 0 002.261 1.59c1.796.529 4.058.529 5.504.529h17.321l7.639.186.98-.36z" fill="#606060"/><path d="M271.091 167.669l.784-.53H110.194l.53.53h160.367z" fill="#333"/><path d="M110.48 164.172v3.046c1.059 1.06 3.554 2.279 8.523 2.12l144.079.074c1.811-.126 3.606-.422 5.361-.885.784-.191 3.332-1.16 3.363-1.441v-2.919c-53.786.1-107.551.005-161.326.005zm8.523 5.828c-2.77 0-5.663 0-8.618-1.939-.281-.249-.503-.408-.53-.843v-2.649c.024-.267.145-.516.341-.701a1.1 1.1 0 01.718-.3h160.59c.12-.008.24.011.351.054.112.044.213.111.296.197.083.086.146.189.186.302.039.113.053.234.041.353v2.691l-.031.032c-.121.29-.346.524-.631.657-1.08.622-2.246 1.084-3.459 1.372-1.675.444-3.395.697-5.127.753L119.003 170z" fill="#333"/><path opacity=".6" d="M159.419 108.1h-22.655c-.082 0-.16.032-.217.09a.3066.3066 0 00-.09.217.3072.3072 0 00.307.308h22.655c.082 0 .16-.033.218-.09.057-.058.09-.136.09-.218 0-.081-.033-.159-.09-.217a.3072.3072 0 00-.218-.09z" fill="#CCC"/><path d="M248.495 86.9972h-99.99a1.3488 1.3488 0 01-.569-.0866 1.4053 1.4053 0 01-.489-.3182 1.5077 1.5077 0 01-.331-.4974A1.5885 1.5885 0 01147 85.5c0-.2047.04-.4072.116-.595.077-.1879.19-.3572.331-.4974.141-.1403.307-.2486.489-.3182s.376-.0991.569-.0866h99.99c.193-.0125.387.017.569.0866.182.0696.348.1779.489.3182.141.1402.254.3095.331.4974.076.1878.116.3903.116.595s-.04.4072-.116.595c-.077.1879-.19.3572-.331.4974a1.4053 1.4053 0 01-.489.3182 1.3488 1.3488 0 01-.569.0866zm-99.99-2.4389a.8493.8493 0 00-.362.0498.883.883 0 00-.313.199.9324.9324 0 00-.212.3148.9967.9967 0 00-.075.3781c0 .1301.026.2588.075.3781a.9324.9324 0 00.212.3148.883.883 0 00.313.199c.116.0428.24.0597.362.0498h99.99a.8493.8493 0 00.362-.0498.883.883 0 00.313-.199.9324.9324 0 00.212-.3148.9967.9967 0 00.075-.3781.9967.9967 0 00-.075-.3781.9324.9324 0 00-.212-.3148.883.883 0 00-.313-.199.8493.8493 0 00-.362-.0498h-99.99z" fill="#CCC"/><path d="M166.978 164.304h-42.101l-.031.032v-.032h-14.414v2.782h161.364v-2.914c-29.706.063-59.401.097-89.086.101h-.28c-5.128.031-10.292.031-15.452.031z" fill="#606060"/><path d="M133.723 86.9332c.717 0 1.298-.5669 1.298-1.2663 0-.6993-.581-1.2662-1.298-1.2662-.716 0-1.297.5669-1.297 1.2662 0 .6994.581 1.2663 1.297 1.2663zM137.961 86.9332c.717 0 1.298-.5669 1.298-1.2663 0-.6993-.581-1.2662-1.298-1.2662-.717 0-1.298.5669-1.298 1.2662 0 .6994.581 1.2663 1.298 1.2663zM142.199 86.9332c.716 0 1.297-.5669 1.297-1.2663 0-.6993-.581-1.2662-1.297-1.2662-.717 0-1.298.5669-1.298 1.2662 0 .6994.581 1.2663 1.298 1.2663zM181.544 98h-46.355c-.657 0-1.189.593-1.189 1.3246 0 .7314.532 1.3244 1.189 1.3244h46.355c.656 0 1.189-.593 1.189-1.3244 0-.7316-.533-1.3246-1.189-1.3246z" fill="#CCC"/><path opacity=".4" d="M134.383 117h29.957c.048-.001.096.004.142.017.045.012.087.031.122.056.036.024.065.054.085.087.02.033.032.069.034.105a.2283.2283 0 01-.034.105.2924.2924 0 01-.085.087.3786.3786 0 01-.122.056.4849.4849 0 01-.142.017h-29.957a.4769.4769 0 01-.142-.017.3786.3786 0 01-.122-.056.2924.2924 0 01-.085-.087.2283.2283 0 01-.034-.105.2283.2283 0 01.034-.105c.02-.033.049-.063.085-.087a.3786.3786 0 01.122-.056.4769.4769 0 01.142-.017z" fill="#CACACA"/><path opacity=".4" d="M170.383 117h29.957c.048-.001.096.004.142.017.045.012.087.031.122.056.036.024.065.054.085.087.02.033.032.069.034.105a.2283.2283 0 01-.034.105.2924.2924 0 01-.085.087.3786.3786 0 01-.122.056.4849.4849 0 01-.142.017h-29.957a.4769.4769 0 01-.142-.017.3786.3786 0 01-.122-.056.2924.2924 0 01-.085-.087.2283.2283 0 01-.034-.105.2283.2283 0 01.034-.105c.02-.033.049-.063.085-.087a.3786.3786 0 01.122-.056.4769.4769 0 01.142-.017z" fill="#CCC"/><path opacity=".4" d="M134.977 111.001h63.73c.247-.012.488.092.671.29.183.197.293.473.305.766-.011.294-.12.57-.303.769-.183.199-.425.304-.673.292h-63.73c-.249.012-.491-.093-.674-.292-.183-.199-.292-.475-.303-.769.012-.293.122-.569.305-.766.183-.198.424-.302.672-.29z" fill="#E5E5E5"/><path opacity=".4" d="M134.381 120.709h26.782c.048-.002.096.004.141.017a.384.384 0 01.123.056.289.289 0 01.084.087c.02.033.032.068.034.105a.2283.2283 0 01-.034.105.301.301 0 01-.084.087.4325.4325 0 01-.123.056.4737.4737 0 01-.141.016h-26.782a.4737.4737 0 01-.141-.016.4263.4263 0 01-.122-.056.301.301 0 01-.084-.087.2172.2172 0 01-.034-.105.2139.2139 0 01.034-.105.289.289 0 01.084-.087.3786.3786 0 01.122-.056.4437.4437 0 01.141-.017zM170.381 120.709h26.782c.048-.002.096.004.142.017.045.012.086.031.122.056a.289.289 0 01.084.087c.02.033.032.068.034.105a.2283.2283 0 01-.034.105.301.301 0 01-.084.087.4392.4392 0 01-.122.056.4842.4842 0 01-.142.016h-26.782a.4737.4737 0 01-.141-.016.4263.4263 0 01-.122-.056.301.301 0 01-.084-.087.2172.2172 0 01-.034-.105.2139.2139 0 01.034-.105.289.289 0 01.084-.087.3786.3786 0 01.122-.056.4437.4437 0 01.141-.017zM134.383 124.418h29.957c.048-.002.096.004.142.016.045.013.087.032.122.056.036.025.065.055.085.088.02.033.032.068.034.105a.2209.2209 0 01-.034.104.2953.2953 0 01-.085.088.4263.4263 0 01-.122.056.4842.4842 0 01-.142.016h-29.957a.4766.4766 0 01-.142-.016.4263.4263 0 01-.122-.056.2953.2953 0 01-.085-.088.2209.2209 0 01-.034-.104.2246.2246 0 01.034-.105c.02-.033.049-.063.085-.088a.4263.4263 0 01.122-.056.4766.4766 0 01.142-.016zM170.383 124.418h29.957c.048-.002.096.004.142.016.045.013.087.032.122.056.036.025.065.055.085.088.02.033.032.068.034.105a.2209.2209 0 01-.034.104.2953.2953 0 01-.085.088.4263.4263 0 01-.122.056.4842.4842 0 01-.142.016h-29.957a.4766.4766 0 01-.142-.016.4263.4263 0 01-.122-.056.2953.2953 0 01-.085-.088.2209.2209 0 01-.034-.104.2246.2246 0 01.034-.105c.02-.033.049-.063.085-.088a.4263.4263 0 01.122-.056.4766.4766 0 01.142-.016zM134.388 127.597h25.709c.049-.002.098.004.144.016.046.013.088.032.124.056a.312.312 0 01.086.088c.02.033.032.068.034.105a.2209.2209 0 01-.034.104.312.312 0 01-.086.088.4387.4387 0 01-.124.056.4938.4938 0 01-.144.016h-25.709a.4938.4938 0 01-.144-.016.4387.4387 0 01-.124-.056.312.312 0 01-.086-.088.2209.2209 0 01-.034-.104.2246.2246 0 01.034-.105.312.312 0 01.086-.088.4387.4387 0 01.124-.056.4938.4938 0 01.144-.016zM170.388 127.597h25.709c.049-.002.098.004.144.016.046.013.088.032.124.056a.312.312 0 01.086.088c.02.033.032.068.034.105a.2209.2209 0 01-.034.104.312.312 0 01-.086.088.4387.4387 0 01-.124.056.4938.4938 0 01-.144.016h-25.709a.4938.4938 0 01-.144-.016.4387.4387 0 01-.124-.056.312.312 0 01-.086-.088.2209.2209 0 01-.034-.104.2246.2246 0 01.034-.105.312.312 0 01.086-.088.4387.4387 0 01.124-.056.4938.4938 0 01.144-.016zM134.386 135.544h29.956c.048-.001.096.004.141.017.045.012.087.031.122.056a.289.289 0 01.084.087c.02.033.032.069.034.105a.2283.2283 0 01-.034.105.289.289 0 01-.084.087.3786.3786 0 01-.122.056.4742.4742 0 01-.141.017h-29.956c-.097.003-.193-.023-.265-.073-.072-.049-.116-.118-.121-.192.005-.074.049-.143.121-.192.072-.05.168-.076.265-.073zM170.386 135.544h29.956c.048-.001.096.004.141.017.045.012.087.031.122.056a.289.289 0 01.084.087c.02.033.032.069.034.105a.2283.2283 0 01-.034.105.289.289 0 01-.084.087.3786.3786 0 01-.122.056.4742.4742 0 01-.141.017h-29.956c-.097.003-.193-.023-.265-.073-.072-.049-.116-.118-.121-.192.005-.074.049-.143.121-.192.072-.05.168-.076.265-.073zM134.384 139.253h26.776c.097-.003.192.023.264.072.072.05.115.119.121.193-.006.073-.049.143-.121.192-.072.05-.167.076-.264.072h-26.776c-.097.004-.191-.022-.263-.072-.072-.049-.116-.119-.121-.192.005-.074.049-.143.121-.193.072-.049.166-.075.263-.072zM170.384 139.253h26.776c.097-.003.192.023.264.072.072.05.115.119.121.193-.006.073-.049.143-.121.192-.072.05-.167.076-.264.072h-26.776c-.097.004-.191-.022-.263-.072-.072-.049-.116-.119-.121-.192.005-.074.049-.143.121-.193.072-.049.166-.075.263-.072zM134.386 142.962h29.956c.048-.002.096.004.141.016.045.013.087.032.122.056.035.025.064.055.084.088.02.033.032.068.034.105a.2283.2283 0 01-.034.105.301.301 0 01-.084.087.4263.4263 0 01-.122.056.4737.4737 0 01-.141.016h-29.956c-.097.003-.193-.023-.265-.072-.072-.05-.116-.119-.121-.192.005-.074.049-.143.121-.193.072-.049.168-.075.265-.072zM170.386 142.962h29.956c.048-.002.096.004.141.016.045.013.087.032.122.056.035.025.064.055.084.088.02.033.032.068.034.105a.2283.2283 0 01-.034.105.301.301 0 01-.084.087.4263.4263 0 01-.122.056.4737.4737 0 01-.141.016h-29.956c-.097.003-.193-.023-.265-.072-.072-.05-.116-.119-.121-.192.005-.074.049-.143.121-.193.072-.049.168-.075.265-.072zM134.392 146.141h25.749c.049-.002.097.005.143.022.046.017.088.042.124.075a.3802.3802 0 01.12.258.3802.3802 0 01-.12.258.3746.3746 0 01-.124.075.3664.3664 0 01-.143.022h-25.749a.379.379 0 01-.269-.097.3745.3745 0 01-.123-.258c.005-.099.05-.192.123-.258a.379.379 0 01.269-.097zM170.392 146.141h25.749c.049-.002.097.005.143.022.046.017.088.042.124.075a.3802.3802 0 01.12.258.3802.3802 0 01-.12.258.3746.3746 0 01-.124.075.3664.3664 0 01-.143.022h-25.749a.379.379 0 01-.269-.097.3745.3745 0 01-.123-.258c.005-.099.05-.192.123-.258a.379.379 0 01.269-.097z" fill="#CACACA"/><path d="M240.994 116.09c.918 0 1.663-.745 1.663-1.664 0-.919-.745-1.664-1.663-1.664-.919 0-1.664.745-1.664 1.664 0 .919.745 1.664 1.664 1.664z" fill="#fff"/><path d="M220 139.307c.014-.278.137-.54.342-.728.205-.188.476-.288.755-.278.288-.019.573.075.793.263.219.188.357.455.382.743v8.154c-.024.294-.159.567-.377.764-.219.196-.504.303-.798.296a1.0646 1.0646 0 01-.774-.297 1.0707 1.0707 0 01-.239-.348 1.0543 1.0543 0 01-.084-.415v-8.154zM224.238 143.627c.023-.302.15-.582.354-.785.204-.202.47-.311.744-.305.266-.003.522.11.713.314.19.204.301.483.307.776v3.647c.001.147-.026.292-.078.426-.051.135-.127.257-.222.359a.9795.9795 0 01-.332.234.8922.8922 0 01-.388.071c-.274.008-.541-.1-.745-.303-.204-.203-.331-.484-.353-.787v-3.647zM232.715 138.422c-.01-.151.01-.303.059-.446.049-.144.125-.275.224-.386.099-.111.219-.199.352-.26a1.0234 1.0234 0 01.844 0c.134.061.253.149.353.26.099.111.175.242.224.386.048.143.068.295.058.446v8.911c-.018.28-.137.542-.334.734-.196.191-.454.298-.723.298-.268 0-.527-.107-.723-.298-.196-.192-.315-.454-.334-.734v-8.911zM228.475 142.956c.049-.266.189-.507.396-.68a1.1534 1.1534 0 011.481 0c.207.173.347.414.396.68v4.504c-.049.266-.189.507-.396.68-.208.173-.47.268-.741.268-.27 0-.532-.095-.74-.268a1.1602 1.1602 0 01-.396-.68v-4.504zM236.951 134.116c0-.296.111-.58.31-.789.199-.209.468-.327.749-.327.281 0 .55.118.749.327.199.209.31.493.31.789v13.133c0 .296-.111.58-.31.789-.199.209-.468.327-.749.327-.281 0-.55-.118-.749-.327-.199-.209-.31-.493-.31-.789v-13.133z" fill="#A9A9A9"/><path d="M364.711 94.3985l-.334.0901-.169-.355a9.444 9.444 0 00-10.277-5.0916l-.333.09-.17-.2649c-1.923-3.7724-5.599-6.3209-9.863-6.3209-6.181 0-11.277 5.4414-11.277 12.1861-3.761-2.6491-7.776-2.6491-10.366-1.6636-2.591.9854-4.593 3.2478-5.599 5.9658a11.5419 11.5419 0 00.084 8.5195c1.171 2.649 3.512 4.769 7.353 5.532l44.044.174h.276a9.5337 9.5337 0 006.404-3.038 9.5401 9.5401 0 002.537-6.62c.064-6.5702-6.462-11.1321-12.31-9.2035z" fill="#555"/><path d="M282.12 98.3458c.002-.1482.033-.2946.092-.4307.058-.1361.143-.2594.249-.3627.107-.1033.232-.1847.37-.2395a1.126 1.126 0 01.433-.0798h54.686c.148-.0021.296.025.433.0798.138.0548.264.1362.37.2395.106.1033.191.2266.25.3627.058.1361.089.2825.091.4307v31.8162c-.002.148-.033.295-.091.431-.059.136-.144.259-.25.362-.106.104-.232.185-.37.24-.137.055-.285.082-.433.08h-54.686a1.129 1.129 0 01-1.052-.682c-.059-.136-.09-.283-.092-.431V98.3458z" fill="gray"/><path d="M283.264 96.8517h54.686c.198-.0029.394.0333.578.1063.183.0731.351.1816.492.3193.142.1378.255.3021.333.4836.078.1815.12.3767.123.5743v31.8378c-.003.197-.045.392-.123.574-.078.181-.191.346-.333.483-.141.138-.309.247-.492.32-.184.073-.38.109-.578.106h-54.686c-.198.003-.394-.033-.577-.106a1.5025 1.5025 0 01-.493-.32 1.4917 1.4917 0 01-.333-.483c-.078-.182-.12-.377-.123-.574V98.3352c.003-.1976.045-.3928.123-.5743.078-.1815.191-.3458.333-.4836a1.507 1.507 0 01.493-.3193c.183-.073.379-.1092.577-.1063zm0 .3708a1.1294 1.1294 0 00-.803.3193 1.1207 1.1207 0 00-.249.3627c-.059.1361-.09.2825-.092.4307v31.8378c.002.148.033.294.092.43.058.136.143.26.249.363.107.103.232.185.37.24.138.054.285.081.433.079h54.686c.148.002.296-.025.433-.079.138-.055.264-.137.37-.24.106-.103.191-.227.25-.363.058-.136.089-.282.091-.43V98.3352a1.1382 1.1382 0 00-.091-.4307 1.1394 1.1394 0 00-.25-.3627 1.1253 1.1253 0 00-.37-.2395 1.126 1.126 0 00-.433-.0798h-54.686z" fill="#333"/><path d="M282.12 98.3776c0-.3036.12-.5947.335-.8093a1.142 1.142 0 01.809-.3352h54.686c.304 0 .595.1206.809.3352.215.2146.335.5057.335.8093v2.2994H282.12v-2.2994z" fill="#606060"/><path d="M282.12 100.677h56.974v3.444H282.12v-3.444z" fill="#A3A3A3"/><path d="M334.889 105.647v-1.526h.381v1.526h3.824v.381h-3.824v1.532h3.824v.381h-3.824v1.531h3.824v.382h-3.824v1.531h3.824v.381h-3.824v1.51h3.824v.382h-3.824v1.531h3.824v.382h-3.824v1.531h3.824v.413h-3.824v1.531h3.824v.382h-3.824v1.531h3.824v.381h-3.824v1.532h3.824v.381h-3.824v1.531h3.824v.382h-3.824v1.526h3.824v.36h-3.824v1.526h3.824v.387h-3.824v2.326h-.381v-2.295h-4.588v2.295h-.36v-2.295h-4.587v2.295h-.381v-2.295h-4.588v2.295h-.386v-2.295h-4.588v2.295h-.381v-2.295h-4.587v2.295h-.382v-2.295h-4.592v2.295h-.424v-2.295h-4.587v2.295h-.381v-2.295h-4.566v2.295h-.387v-2.295h-4.593v2.295h-.381v-2.295h-4.587v2.295h-.382v-2.295h-3.061v-.386h3.061v-1.558h-3.061v-.387h3.061v-1.526h-3.061v-.381h3.061v-1.531h-3.061v-.382h3.061v-1.515h-3.061v-.382h3.061v-1.531h-3.061v-.381h3.061v-1.521h-3.061v-.381h3.061v-1.532h-3.061v-.381h3.061v-1.531h-3.061v-.414h3.061v-1.531h-3.061v-.381h3.061v-1.532h-3.061v-.381h3.061v-1.531h-3.061v-.382h3.061v-1.531h-3.061v-.381h3.061V104.1h.382v1.526h4.587V104.1h.381v1.526h4.588V104.1h.392v1.526h4.587V104.1h.381v1.526h4.566V104.1h.382v1.526h4.592V104.1h.381v1.526h4.588V104.1h.381v1.526h4.587V104.1h.387v1.526h4.587V104.1h.382v1.526h4.629V104.1h.387v1.526l4.561.021zm0 .381h-4.588v1.532h4.588v-1.532zm0 1.913h-4.588v1.531h4.588v-1.531zm0 1.913h-4.588v1.531h4.588v-1.531zm0 1.912h-4.588v1.51h4.588v-1.51zm0 1.913h-4.588v1.531h4.588v-1.531zm0 1.913h-4.588v1.531h4.588v-1.531zm0 1.912h-4.588v1.532h4.588v-1.532zm0 1.913h-4.588v1.531h4.588v-1.531zm0 1.913h-4.588v1.531h4.588v-1.531zm0 1.912h-4.588v1.532h4.588v-1.532zm0 1.913h-4.588v1.526h4.588v-1.526zm0 1.913h-4.588v1.526h4.588v-1.526zm-4.948 1.526v-1.542h-4.587v1.526l4.587.016zm-4.968 0v-1.542h-4.588v1.526l4.588.016zm-4.974 0v-1.542h-4.588v1.526l4.588.016zm-4.969 0v-1.542h-4.587v1.526l4.587.016zm-4.969 0v-1.542h-4.592v1.526l4.592.016zm-4.973 0v-1.542H300.5v1.526l4.588.016zm-4.969 0v-1.542h-4.608v1.526l4.608.016zm-4.974 0v-1.542h-4.614v1.526l4.614.016zm-4.969 0v-1.542h-4.587v1.526l4.587.016zm-4.587-1.913h4.587v-1.526h-4.587v1.526zm0-1.907h4.587v-1.532h-4.587v1.532zm0-1.913h4.587v-1.531h-4.587v1.531zm0-1.913h4.587v-1.531h-4.587v1.531zm0-1.912h4.587v-1.521h-4.587v1.521zm0-1.913h4.587v-1.531h-4.587v1.531zm0-1.913h4.587v-1.531h-4.587v1.531zm0-1.912h4.587v-1.532h-4.587v1.532zm0-1.913h4.587v-1.531h-4.587v1.531zm0-1.913h4.587v-1.531h-4.587v1.531zm0-1.912h4.587v-1.532h-4.587v1.532zm4.969-1.532v1.532h4.587v-1.532h-4.587zm4.974 0v1.532h4.587v-1.532h-4.587zm4.968 0v1.532h4.545v-1.532H300.5zm4.969 0v1.532h4.592v-1.532h-4.592zm4.974 0v1.532h4.587v-1.532h-4.587zm4.968 0v1.532h4.588v-1.532h-4.588zm4.974 0v1.532h4.588v-1.532h-4.588zm4.969 0v1.532h4.587v-1.532h-4.587zm4.587 1.913h-4.587v1.531h4.587v-1.531zm0 1.913h-4.587v1.531h4.587v-1.531zm0 1.912h-4.587v1.51h4.587v-1.51zm0 1.913h-4.587v1.531h4.587v-1.531zm0 1.913h-4.587v1.531h4.587v-1.531zm0 1.912h-4.587v1.532h4.587v-1.532zm0 1.913h-4.587v1.531h4.587v-1.531zm0 1.913h-4.587v1.531h4.587v-1.531zm0 1.912h-4.587v1.532h4.587v-1.532zm0 1.913h-4.587v1.526h4.587v-1.526zm-4.968 1.526v-1.526h-4.588v1.526h4.588zm-4.974 0v-1.526h-4.588v1.526h4.588zm-4.969 0v-1.526h-4.587v1.526h4.587zm-4.969 0v-1.526h-4.592v1.526h4.592zm-4.973 0v-1.526H300.5v1.526h4.588zm-4.969 0v-1.526h-4.608v1.526h4.608zm-4.974 0v-1.526h-4.614v1.526h4.614zm-4.587-1.907h4.587v-1.532h-4.614l.027 1.532zm0-1.913h4.587v-1.531h-4.614l.027 1.531zm0-1.913h4.587v-1.531h-4.614l.027 1.531zm0-1.912h4.587v-1.521h-4.614l.027 1.521zm0-1.913h4.587v-1.531h-4.614l.027 1.531zm0-1.913h4.587v-1.531h-4.614l.027 1.531zm0-1.912h4.587v-1.532h-4.614l.027 1.532zm0-1.913h4.587v-1.531h-4.614l.027 1.531zm0-1.913h4.587v-1.531h-4.614l.027 1.531zm4.974-1.531v1.531h4.587v-1.531h-4.587zm4.968 0v1.531h4.545v-1.531H300.5zm4.969 0v1.531h4.592v-1.531h-4.592zm4.974 0v1.531h4.587v-1.531h-4.587zm4.968 0v1.531h4.588v-1.531h-4.588zm4.974 0v1.531h4.588v-1.531h-4.588zm4.588 1.913h-4.588v1.531h4.588v-1.531zm0 1.912h-4.588v1.51h4.588v-1.51zm0 1.913h-4.588v1.531h4.588v-1.531zm0 1.913h-4.588v1.531h4.588v-1.531zm0 1.912h-4.588v1.532h4.588v-1.532zm0 1.913h-4.588v1.531h4.588v-1.531zm0 1.913h-4.588v1.531h4.588v-1.531zm0 1.912h-4.588v1.532h4.588v-1.532zm-4.974 1.532v-1.532h-4.588v1.532h4.588zm-4.969 0v-1.532h-4.587v1.532h4.587zm-4.969 0v-1.532h-4.592v1.532h4.592zm-4.973 0v-1.532H300.5v1.532h4.588zm-4.969 0v-1.532h-4.608v1.532h4.608zm-4.608-1.913h4.587v-1.531h-4.587v1.531zm0-1.913h4.587v-1.531h-4.587v1.531zm0-1.912h4.587v-1.521h-4.587v1.521zm0-1.913h4.587v-1.531h-4.587v1.531zm0-1.913h4.587v-1.531h-4.587v1.531zm0-1.912h4.587v-1.532h-4.587v1.532zm0-1.913h4.587v-1.531h-4.587v1.531zm4.968-1.531v1.531h4.566v-1.531h-4.566zm4.969 0v1.531h4.592v-1.531h-4.592zm4.974 0v1.531h4.587v-1.531h-4.587zm4.968 0v1.531h4.587v-1.531h-4.587zm4.587 1.912h-4.587v1.51h4.587v-1.51zm0 1.913h-4.587v1.531h4.587v-1.531zm0 1.913h-4.587v1.531h4.587v-1.531zm0 1.912h-4.587v1.532h4.587v-1.532zm0 1.913h-4.587v1.531h4.587v-1.531zm0 1.913h-4.587v1.531h4.587v-1.531zm-4.968 1.531v-1.531h-4.587v1.531h4.587zm-4.969 0v-1.531h-4.592v1.531h4.592zm-4.974 0v-1.531h-4.587v1.531h4.587zm-4.587-1.913h4.566v-1.531h-4.587l.021 1.531zm0-1.912h4.566v-1.521h-4.587l.021 1.521zm0-1.913h4.566v-1.531h-4.587l.021 1.531zm0-1.913h4.566v-1.531h-4.587l.021 1.531zm0-1.912h4.566v-1.532h-4.587l.021 1.532zm4.969-1.532v1.51h4.592v-1.531l-4.592.021zm4.974 0v1.51h4.587v-1.531l-4.587.021zm4.587 1.913h-4.587v1.531h4.587v-1.531zm0 1.913h-4.587v1.531h4.587v-1.531zm0 1.912h-4.587v1.532h4.587v-1.532zm0 1.913h-4.587v1.531h4.587v-1.531zm-4.969 1.531v-1.531h-4.592v1.531h4.592zm-4.592-1.912h4.592v-1.521h-4.592v1.521zm0-1.913h4.592v-1.531h-4.592v1.531zm0-1.913h4.592v-1.531h-4.592v1.531z" fill="#A9A9A9"/><path d="M334.883 117.515H315.39v9.214h19.493v-9.214z" fill="#A9A9A9"/><path fill-rule="evenodd" clip-rule="evenodd" d="M315.258 117.383h19.758v9.478h-19.758v-9.478zm.265.264v8.949h19.228v-8.949h-19.228z" fill="#ADADAD"/><path d="M317.297 125.537a5.3044 5.3044 0 002.4-1.934c.868-1.378 1.737-2.607 3.676-1.59 1.939 1.018 2.198-.556 4.238-2.251 2.039-1.696 3.549 2.018 5.387-1.113v6.888h-15.701z" fill="url(#paint0_linear)"/><path d="M334.883 106.028H315.39v9.182h19.493v-9.182z" fill="#A9A9A9"/><path fill-rule="evenodd" clip-rule="evenodd" d="M315.258 105.896h19.758v9.447h-19.758v-9.447zm.265.265v8.917h19.228v-8.917h-19.228z" fill="#ADADAD"/><path d="M331.424 108.709c-.099 0-.194.039-.266.108a.3835.3835 0 00-.115.263v4.615a.3807.3807 0 00.381.381c.102 0 .199-.04.27-.111a.3815.3815 0 00.112-.27v-4.615a.3712.3712 0 00-.031-.143.3629.3629 0 00-.083-.121.368.368 0 00-.123-.08.397.397 0 00-.145-.027zm-1.52 1.436a.4018.4018 0 00-.267.121.401.401 0 00-.114.271v3.179c0 .101.04.198.111.27.072.071.169.112.27.112s.198-.041.27-.112a.3857.3857 0 00.112-.27v-3.179a.4104.4104 0 00-.114-.271.4064.4064 0 00-.268-.121zm-3.035 1.96c-.1 0-.195.038-.268.106a.393.393 0 00-.124.26v1.224a.3913.3913 0 00.392.371c.098 0 .193-.039.262-.109.07-.069.109-.164.109-.262v-1.224a.363.363 0 00-.029-.141.3566.3566 0 00-.08-.119.3725.3725 0 00-.262-.106zm1.128.08c.015-.09.062-.172.132-.231.07-.06.158-.092.25-.092.091 0 .18.032.249.092.07.059.117.141.132.231v1.552a.3852.3852 0 01-.132.232.3839.3839 0 01-.249.091.3865.3865 0 01-.382-.323v-1.552zm-3.067-1.648a.389.389 0 01.015-.159.3776.3776 0 01.079-.139c.036-.04.08-.073.129-.095a.38.38 0 01.156-.033.38.38 0 01.156.033c.049.022.093.055.129.095.036.04.063.088.079.139a.389.389 0 01.015.159v3.179a.38.38 0 01-.126.24c-.07.062-.16.097-.253.097a.3806.3806 0 01-.253-.097.38.38 0 01-.126-.24v-3.179zm-4.237.09a.3621.3621 0 00-.139.022.353.353 0 00-.119.075.3663.3663 0 00-.08.115.3658.3658 0 00-.028.138v2.723a.3702.3702 0 00.366.371c.1 0 .197-.038.27-.107a.3982.3982 0 00.122-.264v-2.723a.376.376 0 00-.118-.251.374.374 0 00-.258-.099h-.016zm1.552 1.531c-.101 0-.197.039-.27.108a.389.389 0 00-.122.263v1.166a.3913.3913 0 00.392.371c.048 0 .097-.01.142-.028a.374.374 0 00.2-.201.3633.3633 0 00.028-.142v-1.166a.3657.3657 0 00-.102-.256.3747.3747 0 00-.252-.115h-.016zm1.525-.381a.3821.3821 0 00-.252.092.3816.3816 0 00-.129.236v1.632c.015.091.062.173.131.232.07.059.159.091.25.091.092 0 .18-.032.25-.091s.116-.141.132-.232v-1.632a.3867.3867 0 00-.123-.231.3828.3828 0 00-.243-.097h-.016zm-6.51-.779a.354.354 0 01.03-.136.347.347 0 01.08-.113.3317.3317 0 01.118-.074.3594.3594 0 01.138-.021c.098-.006.194.027.268.091.075.064.121.155.129.253v2.697a.4015.4015 0 01-.125.264.3982.3982 0 01-.272.107.37.37 0 01-.259-.111.3678.3678 0 01-.107-.26v-2.697zm1.918 1.107a.3919.3919 0 00-.392.366v1.224a.3913.3913 0 00.392.371c.097-.002.19-.041.258-.111a.3678.3678 0 00.107-.26v-1.224c0-.094-.036-.185-.101-.253a.37.37 0 00-.248-.113h-.016z" fill="silver"/><path d="M285.563 105.265h24.472v2.676h-24.472v-2.676z" fill="#F9FEEF"/><path d="M310.035 105.647h-24.472v1.918h24.472v-1.918zm-24.854-.382v2.676h25.235v-2.676h-25.235z" fill="#96C8FD"/><path d="M285.563 109.854h24.472v1.912h-24.472v-1.912zM285.563 113.679h24.472v1.913h-24.472v-1.913z" fill="#DDD"/><path d="M286.326 110.813a.1804.1804 0 01.052-.13.1908.1908 0 01.128-.056h2.325c.051 0 .099.02.135.056.036.036.056.084.056.135 0 .051-.02.099-.056.135a.1899.1899 0 01-.135.056h-2.325a.1948.1948 0 01-.072-.017.1835.1835 0 01-.098-.106.1845.1845 0 01-.01-.073zM286.325 108.9a.1876.1876 0 01.049-.131.186.186 0 01.126-.06h3.094c.05 0 .099.02.135.056a.1932.1932 0 010 .27.1916.1916 0 01-.135.056h-3.088a.1888.1888 0 01-.071-.016.2049.2049 0 01-.059-.042.1733.1733 0 01-.038-.062.1902.1902 0 01-.013-.071zM286.326 112.747c0-.026.004-.05.014-.073a.1916.1916 0 01.103-.104.2016.2016 0 01.073-.014h3.062a.1916.1916 0 01.191.191.1916.1916 0 01-.191.19h-3.072a.1875.1875 0 01-.128-.059.186.186 0 01-.052-.131zM286.326 114.638a.1715.1715 0 01.012-.071.1733.1733 0 01.038-.062.2049.2049 0 01.059-.042c.022-.01.046-.015.071-.016h2.325c.051 0 .099.02.135.056.036.036.056.084.056.135 0 .051-.02.099-.056.135a.1899.1899 0 01-.135.056h-2.325a.1888.1888 0 01-.071-.016.2049.2049 0 01-.059-.042.1733.1733 0 01-.038-.062.1715.1715 0 01-.012-.071z" fill="#AAA"/><path d="M285.563 118.654h24.472v2.649h-24.472v-2.649z" fill="#F2F2F2"/><path d="M285.563 123.242h24.472v1.913h-24.472v-1.913zM285.563 127.052h24.472v1.913h-24.472v-1.913z" fill="#DDD"/><path d="M286.326 124.196a.1742.1742 0 01.012-.071.1733.1733 0 01.038-.062.2017.2017 0 01.059-.041c.022-.01.046-.016.071-.017h2.325c.051 0 .099.021.135.056.036.036.056.085.056.135 0 .051-.02.099-.056.135a.1899.1899 0 01-.135.056h-2.325a.1888.1888 0 01-.071-.016.1874.1874 0 01-.059-.042.1783.1783 0 01-.038-.061.1762.1762 0 01-.012-.072z" fill="#AAA"/><path d="M285.563 119.03h24.472v1.918h-24.472v-1.918zm-.382 2.3v-2.649h25.235v2.649h-25.235zm1.351-1.531c-.05 0-.099.02-.135.055a.196.196 0 00-.056.135c0 .051.021.099.056.135.036.036.085.056.135.056h2.649c.05 0 .099-.02.134-.056a.1899.1899 0 00.056-.135c0-.05-.02-.099-.056-.135a.1908.1908 0 00-.134-.055h-2.649zm14.588.196a.2005.2005 0 01.061-.139.2.2 0 01.14-.057h2.649a.2065.2065 0 01.207.196.202.202 0 01-.207.19h-2.649a.1775.1775 0 01-.075-.013.2076.2076 0 01-.065-.04.2162.2162 0 01-.044-.063.2102.2102 0 01-.017-.074zm-9.619-.196c-.051 0-.099.02-.135.055a.1916.1916 0 00-.056.135c0 .051.02.099.056.135.036.036.084.056.135.056h2.648c.051 0 .099-.02.135-.056a.1899.1899 0 00.056-.135c0-.05-.02-.099-.056-.135a.1932.1932 0 00-.135-.055h-2.648zm14.206.196a.2125.2125 0 01.064-.14c.039-.036.09-.056.143-.056h2.648c.053 0 .103.02.141.057.038.036.059.086.061.139a.2102.2102 0 01-.017.074.2162.2162 0 01-.044.063.2076.2076 0 01-.065.04c-.024.01-.05.014-.076.013h-2.648a.1951.1951 0 01-.142-.053.202.202 0 01-.065-.137zm-9.354-.196a.1995.1995 0 00-.201.196c0 .025.006.051.016.074.011.024.026.045.045.063.018.017.04.031.064.04.024.01.05.014.076.013h2.648c.026.001.052-.003.076-.013a.1924.1924 0 00.064-.04.2017.2017 0 00.045-.063c.01-.023.016-.049.017-.074a.2048.2048 0 00-.061-.139.2006.2006 0 00-.141-.057h-2.648z" fill="#444"/><path d="M286.325 122.283a.1836.1836 0 01.049-.13.1817.1817 0 01.126-.06h3.094c.048.002.093.024.126.06.033.035.05.082.049.13a.1843.1843 0 01-.049.131.186.186 0 01-.126.06h-3.088a.1715.1715 0 01-.071-.016.1874.1874 0 01-.059-.042.1694.1694 0 01-.038-.061.1954.1954 0 01-.013-.072zM286.326 126.109c0-.051.02-.099.055-.135a.1916.1916 0 01.135-.056h3.062c.05 0 .099.02.135.056.035.036.056.084.056.135 0 .05-.021.099-.056.135a.1916.1916 0 01-.135.056h-3.072a.1885.1885 0 01-.128-.06.1827.1827 0 01-.052-.131zM286.326 128.022a.1762.1762 0 01.012-.072.1694.1694 0 01.038-.061.1874.1874 0 01.059-.042c.022-.01.046-.015.071-.016h2.325c.051 0 .099.02.135.056.036.035.056.084.056.135 0 .05-.02.099-.056.134a.1899.1899 0 01-.135.056h-2.325a.1715.1715 0 01-.071-.016.1874.1874 0 01-.059-.042.1613.1613 0 01-.038-.061.1742.1742 0 01-.012-.071z" fill="#AAA"/><path d="M269 48.0788a1.08 1.08 0 01.091-.4187 1.096 1.096 0 01.247-.3523c.105-.1002.229-.179.365-.2317.136-.0528.281-.0786.427-.0759h53.74c.146-.0027.291.0231.427.0759.136.0527.26.1315.365.2317.105.1003.189.22.247.3523a1.08 1.08 0 01.091.4187v30.8424a1.08 1.08 0 01-.091.4187 1.096 1.096 0 01-.247.3523 1.111 1.111 0 01-.365.2318 1.1242 1.1242 0 01-.427.0758h-53.74a1.1242 1.1242 0 01-.427-.0758 1.111 1.111 0 01-.365-.2318 1.096 1.096 0 01-.247-.3523 1.08 1.08 0 01-.091-.4187V48.0788z" fill="gray"/><path d="M302.614 63.3876c0-.0497.019-.0974.054-.1331a.1918.1918 0 01.131-.0577h9.572a.1945.1945 0 01.117.0667c.03.0354.047.0803.047.1267a.1966.1966 0 01-.047.1268.1944.1944 0 01-.117.0666h-9.572a.1932.1932 0 01-.131-.061.1945.1945 0 01-.054-.135zM302.995 61.2841c0-.1002.04-.1965.11-.2678a.3805.3805 0 01.266-.1136h9.953c.095.011.181.0563.244.1271a.3867.3867 0 01.098.257.3869.3869 0 01-.342.3841h-9.953a.3792.3792 0 01-.145-.031.3857.3857 0 01-.123-.0844.389.389 0 01-.081-.125.406.406 0 01-.027-.1464zM302.964 66.4977c0-.0251.004-.0499.014-.073a.2087.2087 0 01.041-.0619.1946.1946 0 01.062-.0413.1902.1902 0 01.073-.0146h9.884c.026 0 .05.005.073.0146a.1748.1748 0 01.062.0413.194.194 0 01.042.0619.2016.2016 0 01.014.073c0 .025-.005.0498-.014.073a.1946.1946 0 01-.042.0618.175.175 0 01-.062.0414.1865.1865 0 01-.073.0145h-9.884a.1924.1924 0 01-.135-.0559.1929.1929 0 01-.055-.1348zM302.964 69.5389c0-.025.004-.0499.014-.073a.21.21 0 01.041-.0619.1901.1901 0 01.135-.0558h9.884c.026 0 .05.0049.073.0145a.1761.1761 0 01.062.0413.195.195 0 01.042.0619.202.202 0 01.014.073.202.202 0 01-.014.073.195.195 0 01-.042.0619.1761.1761 0 01-.062.0413.1865.1865 0 01-.073.0145h-9.884a.1927.1927 0 01-.135-.0558.1933.1933 0 01-.055-.1349zM302.964 64.9771a.1884.1884 0 01.053-.1331.1922.1922 0 01.132-.0577h11.431a.188.188 0 01.131.0577.1893.1893 0 01.054.1331.1893.1893 0 01-.054.133.188.188 0 01-.131.0577h-11.431a.1922.1922 0 01-.132-.0577.1883.1883 0 01-.053-.133zM302.964 68.0183a.1882.1882 0 01.053-.133.1914.1914 0 01.132-.0577h11.431c.05.0013.097.022.131.0577a.1891.1891 0 01.054.133.1891.1891 0 01-.054.133.1876.1876 0 01-.131.0577h-11.431a.1918.1918 0 01-.132-.0577.1882.1882 0 01-.053-.133zM302.964 71.0595a.1882.1882 0 01.053-.133.1922.1922 0 01.132-.0577h11.431a.192.192 0 01.114.0649.1913.1913 0 010 .2463.191.191 0 01-.114.0649h-11.431a.1857.1857 0 01-.131-.0543.184.184 0 01-.054-.1311z" fill="#fff"/><path d="M268 49h57v5h-57v-5z" fill="#A3A3A3"/><path d="M268 54h12v25.9998h-10.857c-.297.0054-.584-.1026-.798-.3003-.214-.1978-.338-.4691-.345-.7547V54zM268 47.3919c.014-.3838.142-.745.357-1.0053.216-.2604.5-.399.793-.3857h54.7c.293-.0133.577.1253.793.3857.215.2603.343.6215.357 1.0053V50h-57v-2.6081z" fill="#606060"/><path d="M270.26 55.5249a.3824.3824 0 01.115-.2701.3858.3858 0 01.271-.1114h7.644c.05 0 .1.0099.146.0291a.3894.3894 0 01.124.0827.3829.3829 0 01.111.2697v3.8307a.3848.3848 0 01-.111.2697.3928.3928 0 01-.124.0827.3803.3803 0 01-.146.029h-7.644a.3854.3854 0 01-.271-.1114.3823.3823 0 01-.115-.27v-3.8307z" fill="#96C8FD"/><path d="M270.646 54.7831h7.639a.7698.7698 0 01.534.2156.7702.7702 0 01.234.5262v3.8307c0 .1006-.02.2003-.059.2932a.7592.7592 0 01-.167.2481.7621.7621 0 01-.542.2216h-7.639a.7621.7621 0 01-.709-.4697.7575.7575 0 01-.059-.2932v-3.8307a.7702.7702 0 01.234-.5262.7698.7698 0 01.534-.2156zm0 .3815a.3793.3793 0 00-.269.1117.38.38 0 00-.112.2698v3.8307c0 .1011.04.1982.112.2697a.3793.3793 0 00.269.1117h7.639c.101 0 .199-.04.271-.1114a.3823.3823 0 00.115-.27v-3.8519a.3824.3824 0 00-.115-.2701.3858.3858 0 00-.271-.1114l-7.639.0212z" fill="#333"/><path d="M270.148 68.3521a.404.404 0 01.031-.1456.3846.3846 0 01.21-.2036.3785.3785 0 01.146-.027h7.644a.3736.3736 0 01.145.0271.3746.3746 0 01.124.0812c.036.035.064.0767.083.1227.019.046.029.0954.029.1452v3.8307c0 .0501-.01.0997-.029.146a.3701.3701 0 01-.083.1237.3745.3745 0 01-.123.0827.3841.3841 0 01-.146.0291h-7.644c-.102 0-.199-.04-.272-.1114a.3911.3911 0 01-.115-.2701v-3.8307zM270.26 62.0471c0-.0501.011-.0996.031-.1456a.3665.3665 0 01.084-.1226.3782.3782 0 01.125-.081.3785.3785 0 01.146-.027h7.644a.3801.3801 0 01.146.0271.3704.3704 0 01.123.0812c.036.035.064.0767.083.1227.019.046.029.0953.029.1452v3.8307a.3848.3848 0 01-.111.2697.3928.3928 0 01-.124.0827.3804.3804 0 01-.146.0291h-7.644a.3859.3859 0 01-.271-.1115.3822.3822 0 01-.115-.27v-3.8307zM270.148 74.7101a.4036.4036 0 01.031-.1456.3846.3846 0 01.21-.2036.3785.3785 0 01.146-.027h7.644a.3718.3718 0 01.145.0271.3746.3746 0 01.124.0812c.036.035.064.0767.083.1227.019.046.029.0953.029.1452v3.8307a.384.384 0 01-.029.1459.3706.3706 0 01-.083.1238.3776.3776 0 01-.269.1117h-7.644c-.102 0-.199-.04-.272-.1114a.3909.3909 0 01-.115-.27v-3.8307z" fill="#A9A9A9"/><path d="M19.3871 119.534c.0028-.149.0347-.295.094-.431.0592-.135.1447-.258.2514-.361.1068-.103.2327-.184.3707-.238.138-.054.2852-.08.4334-.078h54.6759a1.146 1.146 0 01.4334.078c.138.054.2639.135.3707.238.1067.103.1922.226.2514.361.0593.136.0912.282.094.431v31.821a1.1315 1.1315 0 01-.3436.796c-.1068.103-.233.184-.3713.239-.1383.054-.286.081-.4346.078H20.5366a1.1328 1.1328 0 01-.4346-.078 1.1429 1.1429 0 01-.3713-.239 1.1315 1.1315 0 01-.3436-.796v-31.821z" fill="gray"/><path d="M20.5313 118.045h54.6865a1.503 1.503 0 011.0681.424c.286.277.4505.656.4574 1.054v31.848a1.506 1.506 0 01-.4574 1.055c-.2859.277-.67.429-1.0681.423H20.5313a1.5025 1.5025 0 01-1.0682-.423 1.5067 1.5067 0 01-.4574-1.055v-31.848c.007-.398.1715-.777.4574-1.054.286-.277.6701-.43 1.0682-.424zm0 .381a1.1144 1.1144 0 00-.431.076 1.1111 1.1111 0 00-.369.235 1.1184 1.1184 0 00-.3442.786v31.848a1.1298 1.1298 0 00.3417.794c.1062.103.2318.184.3695.239.1377.055.2848.082.433.08h54.6865c.2983.004.5862-.11.8006-.318a1.126 1.126 0 00.3435-.79v-31.853a1.178 1.178 0 00-.3793-.799 1.1775 1.1775 0 00-.8284-.308l-54.6229.01z" fill="#333"/><path d="M19.3871 119.502c.0138-.292.1422-.568.3573-.766.2152-.198.4998-.304.7922-.294h54.6759a1.1131 1.1131 0 011.1495 1.06v1.987H19.3871v-1.987z" fill="#606060"/><path d="M25.4052 125.1h22.1937c.0387 0 .0771.007.1131.022l.0378-.093-.0378.093a.2835.2835 0 01.0972.064l.0705-.071-.0705.071a.312.312 0 01.0908.216v23.196a.312.312 0 01-.0908.216.2835.2835 0 01-.0972.064.2932.2932 0 01-.1131.022H25.4081v0h-.0029a.2988.2988 0 01-.1144-.02.3071.3071 0 01-.1659-.164l-.092.039.092-.039a.3118.3118 0 01-.0249-.118v-23.196a.3118.3118 0 01.0923-.217.3071.3071 0 01.0985-.065.2988.2988 0 01.1144-.02z" fill="#A9A9A9" stroke="#333" stroke-width=".2"/><path d="M29 137l4.5155-4.569 2.2525 1.937L39.9227 129 45 137M30 128.995c.0009.198-.057.392-.1663.557a1.0057 1.0057 0 01-.4478.371 1.0038 1.0038 0 01-1.0914-.214 1.0014 1.0014 0 01-.2188-1.091A1.001 1.001 0 0129 128c.2644 0 .5181.105.7055.291.1874.187.2933.44.2945.704zM28 141.191a.1901.1901 0 01.0559-.135.1768.1768 0 01.0618-.041.1842.1842 0 01.073-.015H41.963a.1906.1906 0 01.1348.326.1932.1932 0 01-.1348.055H28.1907a.1929.1929 0 01-.1348-.055.1924.1924 0 01-.0559-.135zM28 144.191c0-.026.0051-.051.015-.074a.189.189 0 01.1064-.104.19.19 0 01.0746-.013h16.8127a.191.191 0 010 .382H28.196a.21.21 0 01-.0746-.013.2175.2175 0 01-.0637-.041.189.189 0 01-.0427-.063.19.19 0 01-.015-.074zM28 142.196c0-.051.0199-.1.0555-.137a.1967.1967 0 01.1352-.059h14.5562a.1967.1967 0 01.1352.059.1976.1976 0 01.0555.137.191.191 0 01-.1907.191H28.1907a.1842.1842 0 01-.073-.015.1768.1768 0 01-.0618-.041.1901.1901 0 01-.0559-.135zM28 145.191a.1946.1946 0 01.0592-.135.1951.1951 0 01.1368-.056h14.9005a.191.191 0 01.1349.326.1933.1933 0 01-.1349.055H28.196a.19.19 0 01-.1368-.055.1965.1965 0 01-.0592-.135zM28 143.191a.1906.1906 0 01.1907-.191h14.5562a.191.191 0 01.1349.326.1933.1933 0 01-.1349.055H28.1907a.1832.1832 0 01-.073-.014.2096.2096 0 01-.0618-.041.1901.1901 0 01-.0559-.135z" fill="#CCC"/><path d="M45.5386 143.286a3.2514 3.2514 0 01-.5475 1.811 3.2542 3.2542 0 01-1.4628 1.201 3.2545 3.2545 0 01-1.8832.183 3.2626 3.2626 0 01-1.6662-.897 3.2531 3.2531 0 01-.8854-1.673 3.2539 3.2539 0 01.195-1.882 3.2514 3.2514 0 011.2095-1.455 3.2504 3.2504 0 011.8147-.536c.857.007 1.6767.352 2.2808.96.6041.609.9437 1.431.9451 2.288z" fill="#A9A9A9"/><path d="M42.7215 141a1.208 1.208 0 00-.8552.344 1.211 1.211 0 00-.3631.848v.631h-.286a.2119.2119 0 00-.0827.014.2145.2145 0 00-.1179.115.212.212 0 00-.0166.083v1.96c0 .028.0056.056.0166.082.011.026.0271.05.0473.07a.217.217 0 00.0706.045.1959.1959 0 00.0827.015h3.0087a.1959.1959 0 00.0827-.015.2166.2166 0 00.0705-.045.2155.2155 0 00.064-.152v-1.96a.2114.2114 0 00-.064-.152.2193.2193 0 00-.0705-.046.2119.2119 0 00-.0827-.014h-.286v-.631a1.211 1.211 0 00-.3631-.848 1.2083 1.2083 0 00-.8553-.344zm.7893 1.261v.562h-1.5891v-.562a.7948.7948 0 01.7945-.795.7949.7949 0 01.7946.795z" fill="url(#paint1_linear)"/><path d="M63.2074 131.386H49.7927a.4047.4047 0 00-.1502.027.3986.3986 0 00-.1278.082.3846.3846 0 00-.0855.125.3687.3687 0 00-.0301.146v8.126c0 .102.0415.2.1153.273a.3991.3991 0 00.2783.113h2.52c.2 0 .3968.049.5725.142a1.19 1.19 0 01.4334.394l1.0495 1.608c.0339.052.08.095.1343.127a.4132.4132 0 00.1785.053.4121.4121 0 00.1836-.032.4002.4002 0 00.1487-.111l1.4376-1.758c.1123-.135.2539-.245.4147-.32.1607-.075.3366-.114.5146-.114h5.8273a.3991.3991 0 00.2783-.113.3807.3807 0 00.1153-.273v-8.098a.3743.3743 0 00-.0252-.152.3757.3757 0 00-.0844-.13.3939.3939 0 00-.284-.115zM49.7927 131a.7985.7985 0 00-.3055.058.7865.7865 0 00-.2586.17.7664.7664 0 00-.2285.555v8.125a.7591.7591 0 00.062.295.7722.7722 0 00.1724.249.7904.7904 0 00.2566.166.7965.7965 0 00.3016.056h2.52c.1338 0 .2655.033.383.096a.789.789 0 01.2894.264l1.0441 1.608c.0689.103.1618.19.2713.252a.815.815 0 00.7265.039.8025.8025 0 00.2978-.222l1.4376-1.758a.7938.7938 0 01.2754-.213.8084.8084 0 01.3423-.076h5.8273a.818.818 0 00.3016-.057.7743.7743 0 00.2566-.166.7615.7615 0 00.1724-.249.7554.7554 0 00.062-.295v-8.114a.7554.7554 0 00-.062-.295.7763.7763 0 00-.1724-.25.7876.7876 0 00-.2566-.165.7982.7982 0 00-.3016-.057L49.7927 131z" fill="#A9A9A9"/><path d="M69.391 137.652c0-.035-.005-.069-.0148-.101a.2806.2806 0 00-.0422-.086.2086.2086 0 00-.0633-.058.1545.1545 0 00-.0746-.02h-9.1129a.15.15 0 00-.0838.006.1908.1908 0 00-.0741.053.2738.2738 0 00-.0509.091.3486.3486 0 00-.018.112c0 .038.0061.076.018.111a.2738.2738 0 00.0509.091.181.181 0 00.0741.053.15.15 0 00.0838.006h9.1129c.0508 0 .0996-.027.136-.075.0364-.048.0576-.114.0589-.183zM69.391 139.238c0-.07-.0196-.138-.0546-.187-.035-.05-.0825-.078-.132-.078h-5.9831c-.0495 0-.097.028-.132.078-.035.049-.0547.117-.0547.187 0 .07.0197.138.0547.187.035.05.0825.078.132.078h5.9831c.0495 0 .097-.028.132-.078.035-.049.0546-.117.0546-.187z" fill="#fff"/><path d="M52 135.265a.2775.2775 0 01.0755-.188.2483.2483 0 01.1781-.077h9.031c.0663 0 .1299.028.1768.078a.2715.2715 0 01.0732.187c0 .07-.0263.138-.0732.187a.2424.2424 0 01-.1768.078h-9.031a.2454.2454 0 01-.1781-.078.2731.2731 0 01-.0755-.187zM52 136.854a.275.275 0 01.0755-.187.2444.2444 0 01.1781-.077h9.031c.0663 0 .1299.027.1768.077.0469.05.0732.117.0732.187a.274.274 0 01-.0732.188.2452.2452 0 01-.1768.077h-9.031a.2444.2444 0 01-.1781-.077.2775.2775 0 01-.0755-.188z" fill="#CCC"/><path d="M72 134.352a.3696.3696 0 00-.1218-.255.3732.3732 0 00-.2661-.097h-13.219a.3774.3774 0 00-.268.096.3793.3793 0 00-.1251.256v8.02a.3795.3795 0 00.1251.257c.0734.066.1696.1.268.096h5.9491a.3954.3954 0 01.1692.035c.0532.023.101.058.14.101l1.7559 2.003a.4126.4126 0 00.1484.104.3922.3922 0 00.1788.031.4115.4115 0 00.1749-.048.4194.4194 0 00.1374-.119l1.2632-1.608a1.058 1.058 0 01.3261-.355c.1346-.091.2886-.149.4496-.171h2.5264a.368.368 0 00.2661-.096.3739.3739 0 00.1218-.256v-7.994z" fill="url(#paint2_linear)"/><path d="M60 138.265a.2775.2775 0 01.0755-.188.2483.2483 0 01.1781-.077h9.031c.0663 0 .1299.028.1768.078a.2716.2716 0 01.0733.187c0 .07-.0264.138-.0733.187a.2424.2424 0 01-.1768.078h-9.031a.2454.2454 0 01-.1781-.078.2731.2731 0 01-.0755-.187zM60 139.854a.275.275 0 01.0755-.187.2454.2454 0 01.1781-.078h9.031c.0663 0 .1299.028.1768.078.0469.05.0733.117.0733.187a.274.274 0 01-.0733.188.2452.2452 0 01-.1768.077h-9.031a.2444.2444 0 01-.1781-.077.2775.2775 0 01-.0755-.188z" fill="#F1F1F1"/><g filter="url(#filter0_d)"><path d="M284.368 57.306c0-.1959.164-.3546.367-.3546h32.53c.203 0 .367.1587.367.3546v18.543c0 .1959-.164.3546-.367.3546h-32.53c-.203 0-.367-.1587-.367-.3546V57.306z" fill="#96C8FD"/></g><path fill-rule="evenodd" clip-rule="evenodd" d="M284.735 56.5966h32.53c.406 0 .735.3175.735.7091v18.5431c0 .3916-.329.7091-.735.7091h-32.53c-.406 0-.735-.3175-.735-.7091V57.3057c0-.3916.329-.7091.735-.7091zm0 .3545c-.203 0-.367.1588-.367.3546v18.5431c0 .1958.164.3546.367.3546h32.53c.203 0 .367-.1588.367-.3546V57.3057c0-.1958-.164-.3546-.367-.3546h-32.53z" fill="#333"/><mask id="mask0" maskUnits="userSpaceOnUse" x="284" y="58" width="30" height="19"><path d="M284.318 58.4151h29.461v17.7884h-29.461V58.4151z" fill="#EFEFEF"/></mask><g mask="url(#mask0)"><path d="M290.992 63.3158l9.615 12.859h-19.482l9.867-12.859z" fill="url(#paint3_linear)"/><path d="M290.993 63.3143l2.202 2.8947-1.26-.4133-.945.8267-.946-.8267-1.271.4008 2.22-2.8822z" fill="#E0E0E0"/><path d="M301.086 66.2246l9.544 12.7989h-19.341l9.797-12.7989z" fill="url(#paint4_linear)"/><path d="M301.072 66.2246l2.362 3.037-1.35-.4338-1.012.8677-1.012-.8677-1.349.4338 2.361-3.037z" fill="#E0E0E0"/></g><path fill-rule="evenodd" clip-rule="evenodd" d="M304.877 69.4947c0-.1445.074-.2616.165-.2616h8.563c.091 0 .164.1171.164.2616 0 .1445-.073.2616-.164.2616h-8.563c-.091 0-.165-.1171-.165-.2616zM306.446 71.0643c0-.1445.07-.2616.155-.2616h8.06c.085 0 .154.1171.154.2616 0 .1445-.069.2616-.154.2616h-8.06c-.085 0-.155-.1171-.155-.2616zM303.308 63.2162c0-.1445.078-.2616.174-.2616h9.067c.096 0 .174.1171.174.2616 0 .1445-.078.2616-.174.2616h-9.067c-.096 0-.174-.1171-.174-.2616zM303.308 61.1234c0-.1445.165-.2616.368-.2616h9.725c.203 0 .368.1171.368.2616 0 .1445-.165.2616-.368.2616h-9.725c-.203 0-.368-.1171-.368-.2616zM303.308 66.3554c0-.1444.078-.2616.174-.2616h9.067c.096 0 .174.1172.174.2616 0 .1445-.078.2616-.174.2616h-9.067c-.096 0-.174-.1171-.174-.2616zM303.308 64.7858c0-.1444.082-.2616.184-.2616h11.139c.102 0 .184.1172.184.2616 0 .1445-.082.2616-.184.2616h-11.139c-.102 0-.184-.1171-.184-.2616zM304.831 67.9251c0-.1445.079-.2616.176-.2616h10.632c.098 0 .176.1171.176.2616 0 .1444-.078.2616-.176.2616h-10.632c-.097 0-.176-.1172-.176-.2616z" fill="#E0E0E0"/><path d="M289.579 60.7439c0 .6088-.494 1.1023-1.103 1.1023s-1.102-.4935-1.102-1.1023c0-.6087.493-1.1022 1.102-1.1022.609 0 1.103.4935 1.103 1.1022z" fill="url(#paint5_linear)"/><g filter="url(#filter1_d)"><path d="M214.348 106.795c0-.186.155-.336.347-.336h30.762c.192 0 .347.15.347.336v17.535c0 .185-.155.335-.347.335h-30.762c-.192 0-.347-.15-.347-.335v-17.535z" fill="#A9A9A9"/></g><path fill-rule="evenodd" clip-rule="evenodd" d="M214.695 106.124h30.762c.384 0 .695.3.695.67v17.535c0 .371-.311.671-.695.671h-30.762c-.384 0-.695-.3-.695-.671v-17.535c0-.37.311-.67.695-.67zm0 .335c-.192 0-.348.15-.348.335v17.535c0 .186.156.336.348.336h30.762c.192 0 .347-.15.347-.336v-17.535c0-.185-.155-.335-.347-.335h-30.762z" fill="#A9A9A9"/><mask id="mask1" maskUnits="userSpaceOnUse" x="214" y="107" width="29" height="18"><path d="M214.3 107.843h27.86v16.822H214.3v-16.822z" fill="#EFEFEF"/></mask><g mask="url(#mask1)"><path d="M220.612 112.478l9.092 12.16h-18.423l9.331-12.16z" fill="url(#paint6_linear)"/><path d="M220.613 112.476l2.082 2.738-1.191-.391-.894.782-.894-.782-1.203.379 2.1-2.726z" fill="#E0E0E0"/><path d="M230.157 115.228l9.026 12.104h-18.29l9.264-12.104z" fill="url(#paint7_linear)"/><path d="M230.144 115.228l2.233 2.872-1.276-.41-.957.821-.957-.821-1.276.41 2.233-2.872z" fill="#E0E0E0"/></g><path d="M244.055 109.794c0 .869-.704 1.573-1.573 1.573-.868 0-1.572-.704-1.572-1.573s.704-1.573 1.572-1.573c.869 0 1.573.704 1.573 1.573z" fill="url(#paint8_linear)"/><path d="M30 138.265c0-.146.1186-.265.2649-.265h13.2425c.1463 0 .2649.119.2649.265 0 .146-.1186.265-.2649.265H30.2649a.2652.2652 0 01-.2649-.265z" fill="gray"/><path d="M214.518 55.7898l-44.41-.1778c-3.696-.7597-6.324-2.7587-7.659-5.7868a12.0379 12.0379 0 01-.091-8.8527 10.2486 10.2486 0 012.227-3.755 10.1428 10.1428 0 013.579-2.4736 11.6122 11.6122 0 015.308-.4872c1.783.2514 3.485.9141 4.973 1.9366C178.691 29.4204 183.818 24 190.078 24c4.235 0 8.134 2.5216 10.185 6.5735l.048.0808.15-.0377a9.7674 9.7674 0 016.228.8417c1.929.9594 3.493 2.5298 4.454 4.471l.075.167.117-.0323a9.533 9.533 0 014.512-.3174 9.5713 9.5713 0 014.157 1.7991 9.8217 9.8217 0 013.024 3.5752 9.9091 9.9091 0 011.035 4.5824c.03 2.5586-.915 5.0313-2.639 6.908-1.724 1.8767-4.097 3.0144-6.628 3.1785h-.278zm-42.792-21.1321a9.7657 9.7657 0 00-3.397.5765 9.6496 9.6496 0 00-3.387 2.3587 9.7457 9.7457 0 00-2.103 3.5682 11.4536 11.4536 0 00.08 8.4593c1.26 2.8557 3.738 4.747 7.221 5.469l44.656.1616c2.393-.1598 4.635-1.2396 6.262-3.0169 1.628-1.7773 2.518-4.1167 2.487-6.5362a9.4082 9.4082 0 00-.983-4.3352 9.3232 9.3232 0 00-2.857-3.386 9.0658 9.0658 0 00-3.93-1.6954 9.0336 9.0336 0 00-4.264.2999l-.571.1509-.262-.5388c-.903-1.8325-2.377-3.3163-4.194-4.225a9.2226 9.2226 0 00-5.874-.8075l-.534.1401-.272-.4365c-1.976-3.9009-5.694-6.3256-9.726-6.3256-6.121 0-11.104 5.4474-11.104 12.1394v.5388l-.422-.2963c-1.99-1.4465-4.374-2.2369-6.826-2.263z" fill="#333"/><path d="M216.972 55.4083h-1.706V45.1614a4.4702 4.4702 0 00-1.36-3.0584 4.466 4.466 0 00-6.206 0 4.4702 4.4702 0 00-1.36 3.0584v10.2469h-1.705V45.1614a6.1716 6.1716 0 016.168-5.9917c1.606 0 3.148.6258 4.299 1.7444a6.1727 6.1727 0 011.87 4.2473v10.2469z" fill="gray"/><path d="M217.236 55.6732h-2.24V45.1614a4.2038 4.2038 0 00-1.281-2.874 4.2003 4.2003 0 00-2.917-1.1784c-1.088 0-2.134.4225-2.917 1.1784a4.2038 4.2038 0 00-1.281 2.874v10.5118h-2.235V45.1614a6.4388 6.4388 0 011.948-4.4321 6.4345 6.4345 0 018.97 0 6.4388 6.4388 0 011.948 4.4321l.005 10.5118zm-1.705-.5298h1.176v-9.982a5.9053 5.9053 0 00-1.791-4.0625 5.9043 5.9043 0 00-8.226 0 5.9086 5.9086 0 00-1.79 4.0625v9.982h1.176v-9.982a4.732 4.732 0 011.439-3.2428 4.7288 4.7288 0 013.288-1.3303c1.227 0 2.406.477 3.289 1.3303a4.732 4.732 0 011.439 3.2428v9.982z" fill="#333"/><path d="M217.438 50.8518h-13.269c-.992 0-1.796.8041-1.796 1.7961v7.2269c0 .992.804 1.7961 1.796 1.7961h13.269c.991 0 1.795-.8041 1.795-1.7961v-7.2269c0-.992-.804-1.7961-1.795-1.7961z" fill="gray"/><path d="M217.438 61.9358h-13.269a2.0668 2.0668 0 01-1.456-.6052 2.0653 2.0653 0 01-.605-1.4558v-7.2269c0-.2706.053-.5387.157-.7887.103-.2501.255-.4773.447-.6687.191-.1913.418-.3432.668-.4467.25-.1036.518-.1569.789-.1569h13.269c.27 0 .538.0533.788.1569.25.1035.477.2554.669.4467.191.1914.343.4186.446.6687.104.25.157.5181.157.7887v7.2269a2.0653 2.0653 0 01-.605 1.4558 2.0644 2.0644 0 01-1.455.6052zm-13.269-10.8191a1.5342 1.5342 0 00-1.081.45 1.5343 1.5343 0 00-.45 1.0812v7.2269c.001.4057.163.7943.45 1.0812.286.2868.675.4486 1.081.45h13.269a1.5377 1.5377 0 001.081-.45c.286-.2869.448-.6755.45-1.0812v-7.2269a1.5428 1.5428 0 00-.45-1.0812 1.5377 1.5377 0 00-1.081-.45h-13.269z" fill="#333"/><path d="M210.8 56.2614a1.4091 1.4091 0 01-.781-.2401 1.4028 1.4028 0 01-.516-.6336 1.408 1.408 0 01-.078-.8139c.054-.273.189-.5236.386-.7202.198-.1966.449-.3303.722-.3842.273-.054.556-.0258.813.0811.257.1068.477.2874.632.5191.154.2316.237.5039.237.7824a1.4177 1.4177 0 01-.416.9969 1.4147 1.4147 0 01-.999.4125z" fill="#333"/><path d="M211.187 55.4083h-.768v2.8982h.768v-2.8982z" fill="#333"/><path d="M70 43c0-.5523.4551-1 1.0164-1h28.9672c.5614 0 1.0164.4477 1.0164 1v39c0 .5523-.455 1-1.0164 1H71.0164C70.4551 83 70 82.5523 70 82V43z" fill="gray"/><path fill-rule="evenodd" clip-rule="evenodd" d="M99.9836 42.5H71.0164c-.2807 0-.5082.2239-.5082.5v39c0 .2761.2275.5.5082.5h28.9672c.2804 0 .5084-.2239.5084-.5V43c0-.2761-.228-.5-.5084-.5zM71.0164 42C70.4551 42 70 42.4477 70 43v39c0 .5523.4551 1 1.0164 1h28.9672c.5614 0 1.0164-.4477 1.0164-1V43c0-.5523-.455-1-1.0164-1H71.0164z" fill="#333"/><path d="M73.1584 52.4681a.2985.2985 0 01.0978-.1973.2675.2675 0 01.2007-.0677h24.3105a.2372.2372 0 01.1065.0078.2459.2459 0 01.0937.0539.2629.2629 0 01.0641.0902.279.279 0 010 .2205.2629.2629 0 01-.0641.0902.2459.2459 0 01-.0937.0539.2372.2372 0 01-.1065.0077H73.4515a.267.267 0 01-.1955-.0676.298.298 0 01-.0976-.1916z" fill="#FF6F3D"/><path d="M73.1584 54.5817a.2795.2795 0 01.0793-.186.2427.2427 0 01.1781-.0732h13.232a.2302.2302 0 01.1049.0077.241.241 0 01.0924.0539.2632.2632 0 01.0632.0902.2823.2823 0 010 .2205.2632.2632 0 01-.0632.0902.241.241 0 01-.0924.0539.2302.2302 0 01-.1049.0078h-13.232a.2378.2378 0 01-.0969-.0185.2503.2503 0 01-.083-.0568.2716.2716 0 01-.0563-.0865.2882.2882 0 01-.0212-.1032zM73.1584 50.3485a.3015.3015 0 01.0977-.1985.2662.2662 0 01.2006-.068h24.2994a.2662.2662 0 01.2006.068.3015.3015 0 01.0977.1985.3027.3027 0 01-.0305.1087.2855.2855 0 01-.0676.0879.2651.2651 0 01-.0941.0534.2545.2545 0 01-.1061.0108H73.4514a.2608.2608 0 01-.1968-.0663.2957.2957 0 01-.0962-.1945zM73.1584 61.4724a.2895.2895 0 01.0981-.1932.2718.2718 0 01.2013-.0662h24.2878a.2493.2493 0 01.2141.0539.2626.2626 0 01.0698.0917.2715.2715 0 010 .2275.2617.2617 0 01-.0698.0917.252.252 0 01-.2141.054H73.4525a.2727.2727 0 01-.1979-.0683.29.29 0 01-.0962-.1911zM73.1584 63.591c0-.1462.1913-.2642.425-.2642h21.9218c.2391 0 .4304.118.4304.2642 0 .1461-.1913.2642-.4304.2642H73.5834c-.2337.0168-.425-.1181-.425-.2642zM73.1584 59.3558a.2979.2979 0 01.0982-.1972.2694.2694 0 01.2015-.0677h24.3082a.239.239 0 01.1069.0078.2493.2493 0 01.0941.0538.2647.2647 0 01.0643.0903.2774.2774 0 010 .2205.2643.2643 0 01-.0643.0902.2482.2482 0 01-.0941.0539.239.239 0 01-.1069.0077H73.4527a.2697.2697 0 01-.1964-.0676.2984.2984 0 01-.0979-.1917zM73.1584 68.89a.29.29 0 01.0981-.1932.2718.2718 0 01.2013-.0662h24.2878a.2493.2493 0 01.2141.0539.2635.2635 0 01.0698.0917.2719.2719 0 010 .2275.2617.2617 0 01-.0698.0917.252.252 0 01-.2141.054H73.4525a.2727.2727 0 01-.1979-.0683.2899.2899 0 01-.0962-.1911zM73.1584 71.0086c0-.1462.1913-.2642.425-.2642h21.9218c.2391 0 .4304.118.4304.2642 0 .1461-.1913.2642-.4304.2642H73.5834c-.2337.0168-.425-.1181-.425-.2642zM73.1584 66.7735a.2983.2983 0 01.0982-.1973.2689.2689 0 01.2015-.0676h24.3082a.239.239 0 01.1069.0077.2482.2482 0 01.0941.0539.2634.2634 0 01.0643.0902.2775.2775 0 010 .2205.2634.2634 0 01-.0643.0902.2482.2482 0 01-.0941.0539.2404.2404 0 01-.1069.0078H73.4527a.2698.2698 0 01-.1964-.0677.2984.2984 0 01-.0979-.1916z" fill="#A9A9A9"/><path d="M100.432 90.5202c3.589 0 6.499-2.9106 6.499-6.501 0-3.5904-2.91-6.501-6.499-6.501-3.5899 0-6.4998 2.9106-6.4998 6.501 0 3.5904 2.9099 6.501 6.4998 6.501z" fill="url(#paint9_linear)"/><path d="M100.432 90.7851a6.7703 6.7703 0 01-6.2589-4.1776 6.7714 6.7714 0 01-.3865-3.9133 6.7711 6.7711 0 011.8529-3.4683 6.7692 6.7692 0 013.4675-1.8534 6.7658 6.7658 0 013.912.3866 6.763 6.763 0 013.038 2.4962 6.7686 6.7686 0 011.139 3.7639 6.7778 6.7778 0 01-1.984 4.7811 6.7747 6.7747 0 01-4.78 1.9848zm0-13.0073a6.2392 6.2392 0 00-5.7691 3.8492 6.2433 6.2433 0 001.3493 6.8036 6.239 6.239 0 009.6018-.9434 6.2414 6.2414 0 001.052-3.468 6.2452 6.2452 0 00-6.234-6.2414z" fill="#333"/><path d="M104.161 81.5131c.275.2596-1.001 2.0769-2.85 4.0638-.302.3179-.593.6199-.874.9007l-.4503.445-.4503-.3762c-1.6156-1.3563-2.675-2.5219-2.479-2.7763.196-.2543 1.5891.4928 3.2996 1.7273l-.8947.0689c.2595-.2967.5297-.6146.8367-.9325 1.87-1.9869 3.581-3.3804 3.862-3.1207z" fill="#E7E7E7"/><path d="M269.511 46.0002h53.978c.195-.0034.389.0314.571.1025.182.071.348.1769.488.3115.141.1347.253.2954.33.4731.078.1776.119.3687.122.5621v31.1012a1.4532 1.4532 0 01-.122.5621 1.453 1.453 0 01-.33.4731c-.14.1346-.306.2405-.488.3116-.182.071-.376.1058-.571.1024h-53.978a1.4994 1.4994 0 01-.571-.1024 1.4822 1.4822 0 01-.488-.3116 1.453 1.453 0 01-.33-.4731 1.4532 1.4532 0 01-.122-.5621V47.4494c.003-.1934.044-.3845.122-.5621a1.453 1.453 0 01.33-.4731c.14-.1346.306-.2405.488-.3115.182-.0711.376-.1059.571-.1025zm0 .3727a1.1169 1.1169 0 00-.427.074 1.1078 1.1078 0 00-.615.583c-.058.1324-.09.275-.092.4195v31.1012a1.0953 1.0953 0 00.339.7768c.105.101.23.1804.366.2336.137.0532.283.0792.429.0765h53.978c.146.0027.292-.0233.429-.0765.136-.0532.261-.1326.366-.2336.106-.101.19-.2216.248-.3549a1.115 1.115 0 00.092-.4219V47.4494a1.1034 1.1034 0 00-.093-.4195 1.1078 1.1078 0 00-.615-.583 1.1169 1.1169 0 00-.427-.074h-53.978z" fill="#333"/></g><defs><linearGradient id="paint0_linear" x1="10050.5" y1="-618.52" x2="10050.5" y2="-529.047" gradientUnits="userSpaceOnUse"><stop stop-color="#FF8E3D"/><stop offset="1" stop-color="#FF6F3D"/></linearGradient><linearGradient id="paint1_linear" x1="321.61" y1="-188.5" x2="352.981" y2="-166.685" gradientUnits="userSpaceOnUse"><stop stop-color="#CCC"/><stop offset=".59" stop-color="#FF7541"/><stop offset="1" stop-color="#FF6F3D"/></linearGradient><linearGradient id="paint2_linear" x1="1986.78" y1="-770.583" x2="1784.55" y2="-429.526" gradientUnits="userSpaceOnUse"><stop stop-color="#FF8E3D"/><stop offset="1" stop-color="#FF6F3D"/></linearGradient><linearGradient id="paint3_linear" x1="281.125" y1="62.8135" x2="292.773" y2="81.151" gradientUnits="userSpaceOnUse"><stop stop-color="#FFC671"/><stop offset=".5938" stop-color="#FF7541"/><stop offset="1" stop-color="#FF6F3D"/></linearGradient><linearGradient id="paint4_linear" x1="291.289" y1="65.7246" x2="302.896" y2="83.9492" gradientUnits="userSpaceOnUse"><stop stop-color="#FFC671"/><stop offset=".5938" stop-color="#FF7541"/><stop offset="1" stop-color="#FF6F3D"/></linearGradient><linearGradient id="paint5_linear" x1="288.476" y1="59.6417" x2="288.476" y2="61.8462" gradientUnits="userSpaceOnUse"><stop stop-color="#FF8E3D"/><stop offset="1" stop-color="#FF6F3D"/></linearGradient><linearGradient id="paint6_linear" x1="211.281" y1="112.003" x2="222.296" y2="129.343" gradientUnits="userSpaceOnUse"><stop stop-color="#FFC671"/><stop offset=".5938" stop-color="#FF7541"/><stop offset="1" stop-color="#FF6F3D"/></linearGradient><linearGradient id="paint7_linear" x1="220.893" y1="114.756" x2="231.869" y2="131.99" gradientUnits="userSpaceOnUse"><stop stop-color="#FFC671"/><stop offset=".5938" stop-color="#FF7541"/><stop offset="1" stop-color="#FF6F3D"/></linearGradient><linearGradient id="paint8_linear" x1="242.482" y1="108.221" x2="242.482" y2="111.367" gradientUnits="userSpaceOnUse"><stop stop-color="#E0E0E0"/><stop offset="1" stop-color="#fff"/></linearGradient><linearGradient id="paint9_linear" x1="93.9322" y1="84.0192" x2="106.931" y2="84.0192" gradientUnits="userSpaceOnUse"><stop stop-color="#FF8E3D"/><stop offset="1" stop-color="#FF6F3D"/></linearGradient><filter id="filter0_d" x="284.368" y="56.9514" width="33.2649" height="23.2522" filterUnits="userSpaceOnUse" color-interpolation-filters="sRGB"><feFlood flood-opacity="0" result="BackgroundImageFix"/><feColorMatrix in="SourceAlpha" values="0 0 0 0 0 0 0 0 0 0 0 0 0 0 0 0 0 0 127 0"/><feOffset dy="4"/><feColorMatrix values="0 0 0 0 0.333333 0 0 0 0 0.333333 0 0 0 0 0.333333 0 0 0 0.18 0"/><feBlend in2="BackgroundImageFix" result="effect1_dropShadow"/><feBlend in="SourceGraphic" in2="effect1_dropShadow" result="shape"/></filter><filter id="filter1_d" x="214.348" y="106.459" width="31.4567" height="22.2057" filterUnits="userSpaceOnUse" color-interpolation-filters="sRGB"><feFlood flood-opacity="0" result="BackgroundImageFix"/><feColorMatrix in="SourceAlpha" values="0 0 0 0 0 0 0 0 0 0 0 0 0 0 0 0 0 0 127 0"/><feOffset dy="4"/><feColorMatrix values="0 0 0 0 0.333333 0 0 0 0 0.333333 0 0 0 0 0.333333 0 0 0 0.18 0"/><feBlend in2="BackgroundImageFix" result="effect1_dropShadow"/><feBlend in="SourceGraphic" in2="effect1_dropShadow" result="shape"/></filter><clipPath id="clip0"><path fill="#fff" transform="translate(0 24)" d="M0 0h377v146H0z"/></clipPath></defs>
</symbol>
</svg>