<svg width="377" height="193" fill="none" xmlns="http://www.w3.org/2000/svg"><g clip-path="url(#a)"><path fill-rule="evenodd" clip-rule="evenodd" d="M298.5 77.944V77h-1v.944a.5.5 0 0 0 1 0zm-.5 3.278a.5.5 0 0 0-.5.5v1.89a.5.5 0 0 0 1 0v-1.89a.5.5 0 0 0-.5-.5zm0 5.667a.5.5 0 0 0-.5.5v1.889a.5.5 0 0 0 1 0v-1.89a.5.5 0 0 0-.5-.5zm0 5.667a.5.5 0 0 0-.5.5v.444h-.444a.5.5 0 1 0 0 1h1.444v-1.444a.5.5 0 0 0-.5-.5zM293.778 94a.5.5 0 0 0-.5-.5h-1.889a.5.5 0 0 0 0 1h1.889a.5.5 0 0 0 .5-.5zm-5.667 0a.5.5 0 0 0-.5-.5h-1.889a.5.5 0 0 0 0 1h1.889a.5.5 0 0 0 .5-.5zm-5.667 0a.5.5 0 0 0-.5-.5h-1.888a.5.5 0 1 0 0 1h1.888a.5.5 0 0 0 .5-.5zm-5.666 0a.5.5 0 0 0-.5-.5h-1.889a.5.5 0 0 0 0 1h1.889a.5.5 0 0 0 .5-.5zm-5.667 0a.5.5 0 0 0-.5-.5h-1.889a.5.5 0 0 0 0 1h1.889a.5.5 0 0 0 .5-.5zm-5.667 0a.5.5 0 0 0-.5-.5h-1.888a.5.5 0 1 0 0 1h1.888a.5.5 0 0 0 .5-.5zm-5.666 0a.5.5 0 0 0-.5-.5h-1.889a.5.5 0 0 0 0 1h1.889a.5.5 0 0 0 .5-.5zm-5.667 0a.5.5 0 0 0-.5-.5h-1.889a.5.5 0 0 0 0 1h1.889a.5.5 0 0 0 .5-.5zm-5.667 0a.5.5 0 0 0-.5-.5H247v1h.944a.5.5 0 0 0 .5-.5z" fill="#AAA"/><rect x="76.5" y="38.5" width="31" height="45" rx="1.5" fill="#444" stroke="#666"/><path d="m211.583 36.852-.336.09-.171-.355a9.486 9.486 0 0 0-4.314-4.284 9.598 9.598 0 0 0-6.051-.807l-.336.09-.171-.265c-1.94-3.773-5.647-6.321-9.948-6.321-6.235 0-11.374 5.441-11.374 12.186-3.793-2.65-7.843-2.65-10.455-1.664-2.613.986-4.632 3.254-5.647 5.982a11.45 11.45 0 0 0 .085 8.52c1.181 2.649 3.542 4.768 7.416 5.531l44.422.175h.278a9.649 9.649 0 0 0 6.459-3.039 9.495 9.495 0 0 0 2.559-6.62c.064-6.585-6.518-11.147-12.416-9.219z" fill="#9ADAF3"/><path fill-rule="evenodd" clip-rule="evenodd" d="m211.726 37.332-.75.2-.348-.722-.002-.003a8.986 8.986 0 0 0-4.085-4.055 9.096 9.096 0 0 0-5.718-.769l-.671.18-.382-.592-.011-.022c-1.864-3.625-5.411-6.049-9.503-6.049-5.928 0-10.874 5.186-10.874 11.686v.96l-.786-.55c-3.652-2.55-7.527-2.536-9.993-1.606-2.454.926-4.381 3.07-5.355 5.688l-.002.008a10.949 10.949 0 0 0 .079 8.14c1.108 2.482 3.316 4.49 7.006 5.23l44.372.174h.262a9.149 9.149 0 0 0 6.109-2.88 8.992 8.992 0 0 0 2.425-6.271v-.013c.061-6.238-6.183-10.562-11.761-8.739l-.012.005zm3.255 18.398h-.278l-44.422-.175c-3.874-.763-6.235-2.882-7.416-5.531a11.45 11.45 0 0 1-.085-8.52c1.015-2.728 3.034-4.996 5.647-5.982 2.499-.942 6.312-.983 9.959 1.334.166.105.331.215.496.33 0-.2.004-.398.013-.596.292-6.466 5.311-11.59 11.361-11.59 4.301 0 8.008 2.549 9.948 6.32l.171.266.336-.09a9.598 9.598 0 0 1 6.051.807 9.486 9.486 0 0 1 4.314 4.284l.171.355.336-.09c5.898-1.928 12.48 2.634 12.416 9.22a9.495 9.495 0 0 1-2.559 6.62 9.649 9.649 0 0 1-6.459 3.038z" fill="gray"/><path fill-rule="evenodd" clip-rule="evenodd" d="M38.114 91.171a9.15 9.15 0 0 1-.104 2.418l1.776 1.37-1.563 3.372-2.194-.474a9.377 9.377 0 0 1-1.782 1.641l.287 2.225L31.043 103l-1.215-1.886a9.194 9.194 0 0 1-2.422-.105l-1.37 1.777-3.367-1.563.469-2.194a9.195 9.195 0 0 1-1.636-1.782l-2.23.287L18 94.043l1.881-1.215a9.176 9.176 0 0 1 .104-2.422l-1.777-1.37 1.564-3.372 2.193.474a9.192 9.192 0 0 1 1.782-1.636l-.28-2.23L26.951 81l1.22 1.881a9.15 9.15 0 0 1 2.417.104l1.37-1.777 3.372 1.564-.474 2.193a9.377 9.377 0 0 1 1.641 1.782l2.225-.286L40 89.952l-1.886 1.22zm-5.315-.385a3.987 3.987 0 1 0-7.49 2.736 3.987 3.987 0 0 0 7.49-2.736z" fill="#3C3C3C"/><path fill-rule="evenodd" clip-rule="evenodd" d="M23.756 69.023c.085.953.044 1.913-.123 2.856l2.099 1.61-1.847 3.977-2.593-.537c-.611.738-1.32 1.39-2.105 1.938l.338 2.625L15.409 83l-1.434-2.228c-.953.089-1.914.047-2.856-.123l-1.61 2.099L5.53 80.9l.536-2.587a10.775 10.775 0 0 1-1.932-2.104l-2.63.338L0 72.431l2.223-1.438a10.791 10.791 0 0 1 .123-2.855l-2.099-1.61 1.847-4 2.593.537a10.737 10.737 0 0 1 2.099-1.932l-.333-2.625L10.571 57l1.433 2.227c.953-.09 1.914-.05 2.856.119l1.61-2.1 4 1.863-.537 2.593c.735.612 1.385 1.32 1.933 2.104l2.63-.338L26 67.585l-2.223 1.438h-.021zm-6.276-.45a4.702 4.702 0 1 0-8.834 3.224 4.702 4.702 0 0 0 8.834-3.225z" fill="#444"/><path d="M127.637 137.988a3.33 3.33 0 0 1 1.319-.143 3.277 3.277 0 0 1 1.324.132 3.239 3.239 0 0 1-1.319.143c-.445.05-.897.005-1.324-.132zM132.934 137.988a3.33 3.33 0 0 1 1.319-.143 3.277 3.277 0 0 1 1.324.132 3.239 3.239 0 0 1-1.319.143c-.445.05-.897.005-1.324-.132zM138.231 137.988a3.33 3.33 0 0 1 1.319-.143 3.277 3.277 0 0 1 1.324.132 3.239 3.239 0 0 1-1.319.143c-.445.05-.897.005-1.324-.132zM144.058 137.988a3.33 3.33 0 0 1 1.319-.143 3.279 3.279 0 0 1 1.324.132 3.239 3.239 0 0 1-1.319.143c-.446.05-.897.005-1.324-.132zM149.355 137.988a3.33 3.33 0 0 1 1.319-.143 3.279 3.279 0 0 1 1.324.132 3.239 3.239 0 0 1-1.319.143c-.446.05-.897.005-1.324-.132zM69.365 138.178a3.3 3.3 0 0 1 1.324-.143c.447-.05.9-.005 1.33.133a6.457 6.457 0 0 1-2.65 0l-.004.01zM257.277 152.208a6.425 6.425 0 0 1-2.649 0 6.46 6.46 0 0 1 2.649 0zM246.153 101.874a6.425 6.425 0 0 1-2.649 0 6.46 6.46 0 0 1 2.649 0zM251.45 101.874a6.425 6.425 0 0 1-2.649 0 6.46 6.46 0 0 1 2.649 0zM256.747 101.874a6.425 6.425 0 0 1-2.649 0 6.46 6.46 0 0 1 2.649 0zM288.529 101.874a6.42 6.42 0 0 1-2.648 0 6.455 6.455 0 0 1 2.648 0zM293.826 101.874a6.42 6.42 0 0 1-2.648 0 6.455 6.455 0 0 1 2.648 0zM298.63 101.382c.048 0 .08.19.106.498v.095h-.116c-.223 0-.53.027-.827.027a3.245 3.245 0 0 1-1.324-.138 3.353 3.353 0 0 1 1.324-.138c.318 0 .604 0 .827.032l-.106.106c.037-.292.074-.482.116-.482zM160.479 122.623a3.327 3.327 0 0 1 1.319-.143 3.279 3.279 0 0 1 1.324.132 3.256 3.256 0 0 1-1.319.143c-.446.05-.897.005-1.324-.132zM155.182 122.649a3.23 3.23 0 0 1 1.324-.148c.446-.044.896.001 1.324.132a3.23 3.23 0 0 1-1.324.149 3.407 3.407 0 0 1-1.324-.133zM149.885 122.67a3.298 3.298 0 0 1 1.324-.143c.446-.05.897-.004 1.324.133a3.412 3.412 0 0 1-1.324.143 3.295 3.295 0 0 1-1.324-.133zM144.588 122.691a6.455 6.455 0 0 1 2.648 0c-.426.141-.878.19-1.324.144a3.177 3.177 0 0 1-1.324-.144zM139.291 122.718a6.42 6.42 0 0 1 2.648 0 3.354 3.354 0 0 1-1.324.143 3.408 3.408 0 0 1-1.324-.143zM133.994 122.739a3.408 3.408 0 0 1 1.324-.143 3.297 3.297 0 0 1 1.324.133 3.412 3.412 0 0 1-1.324.143 3.295 3.295 0 0 1-1.324-.133zM128.697 122.766a3.23 3.23 0 0 1 1.324-.149c.446-.043.896.002 1.324.133-.426.14-.878.189-1.324.143a3.366 3.366 0 0 1-1.324-.127zM193.58 80.57a3.319 3.319 0 0 1-.138-1.325 3.356 3.356 0 0 1 .138-1.324c.137.427.184.878.138 1.324.047.447 0 .898-.138 1.325zM193.58 85.874a3.355 3.355 0 0 1-.138-1.325 3.355 3.355 0 0 1 .138-1.325c.137.428.184.879.138 1.325.046.446-.001.897-.138 1.325zM193.58 91.172a6.426 6.426 0 0 1 0-2.65 6.46 6.46 0 0 1 0 2.65zM193.58 96.47a6.426 6.426 0 0 1 0-2.649 6.46 6.46 0 0 1 0 2.65z" fill="gray"/><path d="M125.25 82.663a4.417 4.417 0 0 1 4.417-4.413h122.917a4.416 4.416 0 0 1 4.406 4.418v81.9H125.25V82.663z" fill="#646464" stroke="gray" stroke-width=".5"/><path d="M251.841 160a1.16 1.16 0 0 0 .443-.085 1.159 1.159 0 0 0 .716-1.075V82.16a1.177 1.177 0 0 0-.34-.824 1.155 1.155 0 0 0-.819-.336H130.159a1.14 1.14 0 0 0-.819.336 1.168 1.168 0 0 0-.34.824v76.68a1.174 1.174 0 0 0 .34.824c.108.108.236.193.376.251.141.057.291.086.443.085h121.682z" fill="#3C3C3C"/><path d="M253.363 159.311V82.164a.58.58 0 0 0-.584-.585H130.168a.585.585 0 0 0-.584.585v77.147a.587.587 0 0 0 .584.584h122.664a.588.588 0 0 0 .531-.584zm.584 0a1.156 1.156 0 0 1-.343.825 1.15 1.15 0 0 1-.379.251 1.155 1.155 0 0 1-.446.088H130.168a1.165 1.165 0 0 1-1.079-.718 1.156 1.156 0 0 1-.089-.446V82.164a1.16 1.16 0 0 1 .722-1.077c.141-.058.293-.088.446-.087h122.664a1.156 1.156 0 0 1 .825.339 1.16 1.16 0 0 1 .343.825l-.053 77.147z" fill="gray"/><path d="m144.159 169.354 32.237.121h7.39l16.823.032h9.969l53.922-.007c1.652-.053 3.048-.466 4.631-.941a16.9 16.9 0 0 0 2.236-.89h-42.859v-.403h-7.866v.371l-10.064-.185v-.133h-9.969v.307l-16.225-.243h-7.988v.275l-30.442-.403-.529.128-9.874.09-25.097-.064a7.15 7.15 0 0 0 2.261 1.59c1.796.529 4.058.529 5.504.529h17.321l7.639.186.98-.36z" fill="#AAA"/><path d="m271.091 167.669.784-.53H110.194l.53.53h160.367z" fill="gray"/><path d="M110.48 164.172v3.046c1.059 1.06 3.554 2.279 8.523 2.12l144.079.074a28.789 28.789 0 0 0 5.361-.885c.784-.191 3.331-1.16 3.363-1.441v-2.919c-53.786.1-107.551.005-161.326.005zm8.523 5.828c-2.77 0-5.663 0-8.618-1.939-.281-.249-.504-.408-.53-.843v-2.649a1.102 1.102 0 0 1 1.059-1.001h160.59a.824.824 0 0 1 .874.906v2.691l-.031.032a1.26 1.26 0 0 1-.631.657 12.92 12.92 0 0 1-3.459 1.372 22.898 22.898 0 0 1-5.127.753L119.003 170z" fill="gray"/><path opacity=".6" d="M159.419 108.1h-22.655a.305.305 0 0 0-.307.307.307.307 0 0 0 .307.308h22.655c.082 0 .16-.033.218-.09a.311.311 0 0 0 .09-.218.307.307 0 0 0-.308-.307z" fill="#3C3C3C"/><path d="M248.509 86.998h-99.018a1.94 1.94 0 0 1-.564-.058 1.588 1.588 0 0 1-.485-.212 1.088 1.088 0 0 1-.327-.331A.761.761 0 0 1 148 86c0-.136.039-.271.115-.397.076-.125.188-.238.327-.331.14-.094.305-.166.485-.212a1.94 1.94 0 0 1 .564-.058h99.018a1.94 1.94 0 0 1 .564.058c.18.046.345.118.485.212.139.093.251.206.327.331.076.126.115.26.115.397a.761.761 0 0 1-.115.397 1.088 1.088 0 0 1-.327.331c-.14.094-.305.166-.485.212a1.94 1.94 0 0 1-.564.058zm-99.018-1.626a1.224 1.224 0 0 0-.359.033 1 1 0 0 0-.31.133.683.683 0 0 0-.21.21.478.478 0 0 0-.074.252c0 .087.025.173.074.252.049.08.12.151.21.21a1 1 0 0 0 .31.133c.115.028.237.04.359.033h99.018c.122.006.244-.005.359-.033a1 1 0 0 0 .31-.133.683.683 0 0 0 .21-.21.478.478 0 0 0 .074-.252.478.478 0 0 0-.074-.252.683.683 0 0 0-.21-.21 1 1 0 0 0-.31-.133 1.224 1.224 0 0 0-.359-.033h-99.018z" fill="#666"/><path d="M166.978 164.304h-42.101l-.031.032v-.032h-14.414v2.782h161.364v-2.914c-29.706.063-59.401.097-89.086.101h-.28c-5.128.031-10.292.031-15.452.031z" fill="#2A2A2A"/><path d="M133.298 87.533c.717 0 1.298-.567 1.298-1.267S134.015 85 133.298 85c-.717 0-1.298.567-1.298 1.266 0 .7.581 1.267 1.298 1.267zM138.298 87.533c.716 0 1.298-.567 1.298-1.267S139.014 85 138.298 85c-.717 0-1.298.567-1.298 1.266 0 .7.581 1.267 1.298 1.267zM143.298 87.533c.717 0 1.298-.567 1.298-1.267S144.015 85 143.298 85c-.717 0-1.298.567-1.298 1.266 0 .7.581 1.267 1.298 1.267z" fill="#666"/><path d="M180.829 98h-45.658c-.647 0-1.171.448-1.171 1s.524 1 1.171 1h45.658c.647 0 1.171-.448 1.171-1s-.524-1-1.171-1z" fill="#B2B2B2"/><path d="M134.383 117h29.957a.485.485 0 0 1 .142.017.379.379 0 0 1 .122.056.281.281 0 0 1 .085.087c.02.033.032.069.034.105a.228.228 0 0 1-.034.105.292.292 0 0 1-.085.087.379.379 0 0 1-.122.056.485.485 0 0 1-.142.017h-29.957a.477.477 0 0 1-.142-.017.379.379 0 0 1-.122-.056.292.292 0 0 1-.085-.087.228.228 0 0 1-.034-.105.228.228 0 0 1 .034-.105.281.281 0 0 1 .085-.087.379.379 0 0 1 .122-.056.477.477 0 0 1 .142-.017zM170.383 117h29.957a.485.485 0 0 1 .142.017.379.379 0 0 1 .122.056.281.281 0 0 1 .085.087c.02.033.032.069.034.105a.228.228 0 0 1-.034.105.292.292 0 0 1-.085.087.379.379 0 0 1-.122.056.485.485 0 0 1-.142.017h-29.957a.477.477 0 0 1-.142-.017.379.379 0 0 1-.122-.056.292.292 0 0 1-.085-.087.228.228 0 0 1-.034-.105.228.228 0 0 1 .034-.105.281.281 0 0 1 .085-.087.379.379 0 0 1 .122-.056.477.477 0 0 1 .142-.017zM134.981 111.001h64.038a.894.894 0 0 1 .675.273c.183.187.293.447.306.723a1.104 1.104 0 0 1-.305.727.891.891 0 0 1-.676.275h-64.038a.891.891 0 0 1-.676-.275 1.104 1.104 0 0 1-.305-.727 1.11 1.11 0 0 1 .306-.723.894.894 0 0 1 .675-.273zM134.381 121h26.782a.474.474 0 0 1 .264.073.29.29 0 0 1 .084.087c.02.033.032.069.034.105a.228.228 0 0 1-.034.105.301.301 0 0 1-.084.087.474.474 0 0 1-.264.073h-26.782a.474.474 0 0 1-.141-.017.379.379 0 0 1-.122-.056.301.301 0 0 1-.084-.087.217.217 0 0 1-.034-.105.217.217 0 0 1 .034-.105.29.29 0 0 1 .084-.087.379.379 0 0 1 .122-.056.474.474 0 0 1 .141-.017zM170.381 121h26.782a.485.485 0 0 1 .142.017.389.389 0 0 1 .122.056.29.29 0 0 1 .084.087c.02.033.032.069.034.105a.228.228 0 0 1-.034.105.301.301 0 0 1-.084.087.389.389 0 0 1-.122.056.485.485 0 0 1-.142.017h-26.782a.474.474 0 0 1-.141-.017.379.379 0 0 1-.122-.056.301.301 0 0 1-.084-.087.217.217 0 0 1-.034-.105.217.217 0 0 1 .034-.105.29.29 0 0 1 .084-.087.379.379 0 0 1 .122-.056.474.474 0 0 1 .141-.017zM134.383 125h29.957a.485.485 0 0 1 .142.017.379.379 0 0 1 .122.056.281.281 0 0 1 .085.087c.02.033.032.069.034.105a.228.228 0 0 1-.034.105.292.292 0 0 1-.085.087.379.379 0 0 1-.122.056.485.485 0 0 1-.142.017h-29.957a.477.477 0 0 1-.142-.017.379.379 0 0 1-.122-.056.292.292 0 0 1-.085-.087.228.228 0 0 1-.034-.105.228.228 0 0 1 .034-.105.281.281 0 0 1 .085-.087.379.379 0 0 1 .122-.056.477.477 0 0 1 .142-.017zM170.383 125h29.957a.485.485 0 0 1 .142.017.379.379 0 0 1 .122.056.281.281 0 0 1 .085.087c.02.033.032.069.034.105a.228.228 0 0 1-.034.105.292.292 0 0 1-.085.087.379.379 0 0 1-.122.056.485.485 0 0 1-.142.017h-29.957a.477.477 0 0 1-.142-.017.379.379 0 0 1-.122-.056.292.292 0 0 1-.085-.087.228.228 0 0 1-.034-.105.228.228 0 0 1 .034-.105.281.281 0 0 1 .085-.087.379.379 0 0 1 .122-.056.477.477 0 0 1 .142-.017zM134.388 129h25.709a.494.494 0 0 1 .144.017.39.39 0 0 1 .124.056.297.297 0 0 1 .086.087c.02.033.032.069.034.105a.228.228 0 0 1-.034.105.309.309 0 0 1-.086.087.39.39 0 0 1-.124.056.494.494 0 0 1-.144.017h-25.709a.494.494 0 0 1-.144-.017.39.39 0 0 1-.124-.056.309.309 0 0 1-.086-.087.228.228 0 0 1-.034-.105.228.228 0 0 1 .034-.105.297.297 0 0 1 .086-.087.39.39 0 0 1 .124-.056.494.494 0 0 1 .144-.017zM170.388 129h25.709a.494.494 0 0 1 .144.017.39.39 0 0 1 .124.056.297.297 0 0 1 .086.087c.02.033.032.069.034.105a.228.228 0 0 1-.034.105.309.309 0 0 1-.086.087.39.39 0 0 1-.124.056.494.494 0 0 1-.144.017h-25.709a.494.494 0 0 1-.144-.017.39.39 0 0 1-.124-.056.309.309 0 0 1-.086-.087.228.228 0 0 1-.034-.105.228.228 0 0 1 .034-.105.297.297 0 0 1 .086-.087.39.39 0 0 1 .124-.056.494.494 0 0 1 .144-.017zM134.386 139h29.956a.474.474 0 0 1 .141.017.379.379 0 0 1 .122.056.29.29 0 0 1 .084.087c.02.033.032.069.034.105a.228.228 0 0 1-.034.105.301.301 0 0 1-.084.087.379.379 0 0 1-.122.056.474.474 0 0 1-.141.017h-29.956a.447.447 0 0 1-.265-.073.258.258 0 0 1-.121-.192.258.258 0 0 1 .121-.192.447.447 0 0 1 .265-.073zM170.386 139h29.956a.474.474 0 0 1 .141.017.379.379 0 0 1 .122.056.29.29 0 0 1 .084.087c.02.033.032.069.034.105a.228.228 0 0 1-.034.105.301.301 0 0 1-.084.087.379.379 0 0 1-.122.056.474.474 0 0 1-.141.017h-29.956a.447.447 0 0 1-.265-.073.258.258 0 0 1-.121-.192.258.258 0 0 1 .121-.192.447.447 0 0 1 .265-.073zM134.384 143h26.776a.444.444 0 0 1 .264.073.26.26 0 0 1 .121.192.26.26 0 0 1-.121.192.444.444 0 0 1-.264.073h-26.776a.44.44 0 0 1-.263-.073.258.258 0 0 1-.121-.192.258.258 0 0 1 .121-.192.44.44 0 0 1 .263-.073zM170.384 143h26.776a.444.444 0 0 1 .264.073.26.26 0 0 1 .121.192.26.26 0 0 1-.121.192.444.444 0 0 1-.264.073h-26.776a.44.44 0 0 1-.263-.073.258.258 0 0 1-.121-.192.258.258 0 0 1 .121-.192.44.44 0 0 1 .263-.073zM134.386 147h29.956a.474.474 0 0 1 .141.017.379.379 0 0 1 .122.056.29.29 0 0 1 .084.087c.02.033.032.069.034.105a.228.228 0 0 1-.034.105.301.301 0 0 1-.084.087.379.379 0 0 1-.122.056.474.474 0 0 1-.141.017h-29.956a.447.447 0 0 1-.265-.073.258.258 0 0 1-.121-.192.258.258 0 0 1 .121-.192.447.447 0 0 1 .265-.073zM170.386 147h29.956a.474.474 0 0 1 .141.017.379.379 0 0 1 .122.056.29.29 0 0 1 .084.087c.02.033.032.069.034.105a.228.228 0 0 1-.034.105.301.301 0 0 1-.084.087.379.379 0 0 1-.122.056.474.474 0 0 1-.141.017h-29.956a.447.447 0 0 1-.265-.073.258.258 0 0 1-.121-.192.258.258 0 0 1 .121-.192.447.447 0 0 1 .265-.073zM134.392 151h25.749a.488.488 0 0 1 .267.073.281.281 0 0 1 .085.087.23.23 0 0 1 .035.105.23.23 0 0 1-.035.105.281.281 0 0 1-.085.087.488.488 0 0 1-.267.073h-25.749a.457.457 0 0 1-.269-.073.258.258 0 0 1-.123-.192.258.258 0 0 1 .123-.192.457.457 0 0 1 .269-.073zM170.392 151h25.749a.488.488 0 0 1 .267.073.281.281 0 0 1 .085.087.23.23 0 0 1 .035.105.23.23 0 0 1-.035.105.281.281 0 0 1-.085.087.488.488 0 0 1-.267.073h-25.749a.457.457 0 0 1-.269-.073.258.258 0 0 1-.123-.192.258.258 0 0 1 .123-.192.457.457 0 0 1 .269-.073z" fill="#666"/><path d="M240.994 116.09a1.664 1.664 0 1 0-.002-3.328 1.664 1.664 0 0 0 .002 3.328z" fill="#3C3C3C"/><path d="m364.711 94.399-.334.09-.169-.355a9.445 9.445 0 0 0-10.276-5.092l-.334.09-.17-.265c-1.922-3.772-5.599-6.32-9.863-6.32-6.181 0-11.277 5.44-11.277 12.185-3.761-2.649-7.776-2.649-10.366-1.663-2.591.985-4.593 3.248-5.599 5.966a11.542 11.542 0 0 0 .084 8.519c1.171 2.649 3.512 4.769 7.353 5.532l44.044.175h.276a9.54 9.54 0 0 0 8.941-9.659c.064-6.57-6.462-11.132-12.31-9.203z" fill="#444"/><path d="M282.12 98.346a1.12 1.12 0 0 1 .341-.794 1.136 1.136 0 0 1 .803-.319h54.686a1.128 1.128 0 0 1 1.144 1.113v31.816a1.134 1.134 0 0 1-1.144 1.113h-54.686a1.124 1.124 0 0 1-1.052-.682 1.122 1.122 0 0 1-.092-.431V98.346z" fill="#3C3C3C"/><path d="M282.12 98.378a1.143 1.143 0 0 1 1.144-1.145h54.686a1.142 1.142 0 0 1 1.144 1.145v2.299H282.12v-2.3z" fill="#5E5E5E"/><path d="M315.004 117.123h20.266v9.929h-20.266v-9.929zM315 106h20v9h-20v-9z" fill="#3C3C3C"/><path stroke="#444" stroke-width=".5" d="M282 107.75h57M282 111.75h57M282 115.75h57M282 119.75h57M282 123.75h57M282 127.75h57M286.25 104v27.5M294.25 104v27.5M302.25 104v27.5M310.25 104v27.5M315.25 104v27.5M326.25 104v27.5M334.25 104v27.5"/><path d="M334 106h-19v10h19v-10z" fill="#3C3C3C"/><path fill-rule="evenodd" clip-rule="evenodd" d="M315 106h19v10h-19v-10zm.255.28v9.44h18.49v-9.44h-18.49z" fill="#CCC"/><path d="M331.664 109a.383.383 0 0 0-.381.371v4.615c0 .101.04.198.112.269a.377.377 0 0 0 .539 0 .377.377 0 0 0 .112-.269v-4.615a.38.38 0 0 0-.237-.344.36.36 0 0 0-.145-.027zm-1.52 1.436a.402.402 0 0 0-.381.392v3.179c0 .101.04.198.111.27a.385.385 0 0 0 .54 0 .385.385 0 0 0 .111-.27v-3.179a.405.405 0 0 0-.113-.271.406.406 0 0 0-.268-.121zm-3.035 1.96a.39.39 0 0 0-.392.366v1.224a.393.393 0 0 0 .392.371.37.37 0 0 0 .371-.371v-1.224a.356.356 0 0 0-.029-.141.36.36 0 0 0-.342-.225zm1.128.08a.385.385 0 0 1 .631-.232c.07.059.117.141.132.232v1.552a.385.385 0 0 1-.631.232.39.39 0 0 1-.132-.232v-1.552zm-3.067-1.648a.387.387 0 0 1 .094-.298.38.38 0 0 1 .57 0 .387.387 0 0 1 .094.298v3.179a.382.382 0 0 1-.379.337.379.379 0 0 1-.253-.097.38.38 0 0 1-.126-.24v-3.179zm-4.238.09a.342.342 0 0 0-.257.097.355.355 0 0 0-.108.253v2.723c0 .097.038.191.107.26.068.07.161.11.258.111a.39.39 0 0 0 .392-.371v-2.723a.368.368 0 0 0-.376-.35h-.016zm1.553 1.531a.392.392 0 0 0-.392.371v1.166a.393.393 0 0 0 .392.371.375.375 0 0 0 .342-.229.367.367 0 0 0 .028-.142v-1.166a.37.37 0 0 0-.355-.371h-.015zm1.525-.381a.38.38 0 0 0-.381.328v1.632a.39.39 0 0 0 .131.232.388.388 0 0 0 .631-.232v-1.632a.378.378 0 0 0-.365-.328h-.016zm-6.51-.779a.354.354 0 0 1 .228-.323.34.34 0 0 1 .137-.021.371.371 0 0 1 .269.091.372.372 0 0 1 .129.253v2.697a.4.4 0 0 1-.398.371.37.37 0 0 1-.365-.371v-2.697zm1.918 1.107a.395.395 0 0 0-.392.366v1.224a.393.393 0 0 0 .392.371.37.37 0 0 0 .365-.371v-1.224a.366.366 0 0 0-.35-.366h-.015z" fill="#DDD"/><path d="M310.122 108.499h-23.744v2.509h23.744v-2.509zM286 108v3.5h24.5V108H286z" fill="#8A956A"/><path d="M286.37 116.462h23.76v2.534h-23.76v-2.534zM286 119.5V116h24.5v3.5H286zm1.311-2.023a.163.163 0 0 0-.13.074.301.301 0 0 0-.055.178c0 .067.02.131.055.178a.163.163 0 0 0 .13.074h2.572a.166.166 0 0 0 .131-.074.308.308 0 0 0 .054-.178.308.308 0 0 0-.054-.178.166.166 0 0 0-.131-.074h-2.572zm14.164.259a.315.315 0 0 1 .059-.184.172.172 0 0 1 .136-.075h2.571c.052 0 .101.027.139.075a.327.327 0 0 1 .062.184.317.317 0 0 1-.063.182.169.169 0 0 1-.138.07h-2.571a.145.145 0 0 1-.073-.017.179.179 0 0 1-.063-.054.266.266 0 0 1-.043-.082.326.326 0 0 1-.016-.099zm-9.34-.259a.166.166 0 0 0-.131.074.308.308 0 0 0-.054.178c0 .067.02.131.054.178a.166.166 0 0 0 .131.074h2.572a.166.166 0 0 0 .131-.074.308.308 0 0 0 .054-.178.308.308 0 0 0-.054-.178.166.166 0 0 0-.131-.074h-2.572zm13.793.259a.327.327 0 0 1 .062-.184.179.179 0 0 1 .139-.075h2.571c.051 0 .1.027.136.075a.315.315 0 0 1 0 .365.179.179 0 0 1-.063.054.145.145 0 0 1-.073.017h-2.571a.169.169 0 0 1-.138-.07.317.317 0 0 1-.063-.182zm-9.082-.259c-.051 0-.1.027-.136.075a.315.315 0 0 0 0 .365.179.179 0 0 0 .063.054.145.145 0 0 0 .073.017h2.571a.151.151 0 0 0 .074-.017.247.247 0 0 0 .105-.136.326.326 0 0 0 .017-.099.33.33 0 0 0-.059-.184.175.175 0 0 0-.137-.075h-2.571z" fill="#A1B7BF"/><path d="M268.347 47.482a1.127 1.127 0 0 1 1.15-1.113h54.676a1.125 1.125 0 0 1 1.057.681c.059.137.09.283.092.432v31.816a1.126 1.126 0 0 1-1.149 1.113h-54.676a1.13 1.13 0 0 1-1.15-1.113V47.482z" fill="#3C3C3C"/><path d="M269.531 46h54.676a1.508 1.508 0 0 1 1.531 1.484V79.32a1.5 1.5 0 0 1-.458 1.06 1.502 1.502 0 0 1-1.073.424h-54.676A1.502 1.502 0 0 1 268 79.32V47.484a1.519 1.519 0 0 1 .457-1.06 1.517 1.517 0 0 1 1.074-.424zm0 .382a1.124 1.124 0 0 0-1.15 1.102V79.32a1.127 1.127 0 0 0 1.15 1.113h54.676a1.125 1.125 0 0 0 1.057-.68c.059-.137.09-.284.092-.433V47.484a1.135 1.135 0 0 0-.346-.79 1.112 1.112 0 0 0-.803-.312h-54.676z" fill="gray"/><path d="M302.614 63.388a.19.19 0 0 1 .185-.191h9.572a.196.196 0 0 1 .164.193.197.197 0 0 1-.164.194h-9.572a.193.193 0 0 1-.131-.061.195.195 0 0 1-.054-.135zM302.995 61.284a.384.384 0 0 1 .376-.381h9.953a.385.385 0 0 1 .244.64.385.385 0 0 1-.244.128h-9.953a.377.377 0 0 1-.268-.116.387.387 0 0 1-.108-.27zM302.964 66.498c0-.025.004-.05.014-.073a.21.21 0 0 1 .041-.062.196.196 0 0 1 .135-.056h9.884a.187.187 0 0 1 .135.056.195.195 0 0 1 .042.062.202.202 0 0 1 0 .146.196.196 0 0 1-.104.103.186.186 0 0 1-.073.014h-9.884a.193.193 0 0 1-.135-.055.193.193 0 0 1-.055-.135zM302.964 69.539c0-.025.004-.05.014-.073a.21.21 0 0 1 .041-.062.195.195 0 0 1 .135-.056h9.884a.187.187 0 0 1 .135.056.195.195 0 0 1 .042.062.202.202 0 0 1 0 .146.196.196 0 0 1-.104.103.186.186 0 0 1-.073.015h-9.884a.193.193 0 0 1-.135-.056.193.193 0 0 1-.055-.135zM302.964 64.977a.188.188 0 0 1 .185-.19h11.431a.19.19 0 0 1 .131.324.188.188 0 0 1-.131.057h-11.431a.188.188 0 0 1-.185-.19zM302.964 68.018a.188.188 0 0 1 .185-.19h11.431a.19.19 0 0 1 .185.19.19.19 0 0 1-.054.133.188.188 0 0 1-.131.058h-11.431a.188.188 0 0 1-.185-.19zM302.964 71.06a.188.188 0 0 1 .185-.191h11.431a.192.192 0 0 1 .159.188.191.191 0 0 1-.159.188h-11.431a.186.186 0 0 1-.185-.186z" fill="#3C3C3C"/><path d="M268.347 49.432h56.975v3.444h-56.975v-3.444z" fill="#757575"/><path d="M268.348 53h12.236v27.41h-11.071a1.141 1.141 0 0 1-1.165-1.117V53z" fill="#646464"/><path d="M268.348 47.429c.013-.288.142-.559.357-.754.215-.196.5-.3.792-.29h54.665c.292-.01.613.094.828.29.216.195.344.466.358.754v1.956h-57v-1.956z" fill="#5E5E5E"/><path d="M325.348 53.258h-57v-.382h57v.382z" fill="#828282"/><path d="M270.26 55.382a.386.386 0 0 1 .386-.382h7.644a.382.382 0 0 1 .381.382v4.236a.384.384 0 0 1-.235.352.382.382 0 0 1-.146.03h-7.644a.386.386 0 0 1-.386-.382v-4.236z" fill="#9ADAF3"/><path d="M270.148 68.376a.385.385 0 0 1 .387-.376h7.644a.372.372 0 0 1 .269.108.365.365 0 0 1 .112.268v3.83a.385.385 0 0 1-.235.353.384.384 0 0 1-.146.03h-7.644a.388.388 0 0 1-.387-.381v-3.832zM270.26 62.376a.382.382 0 0 1 .386-.376h7.644a.38.38 0 0 1 .269.108.365.365 0 0 1 .112.268v3.83a.383.383 0 0 1-.381.381h-7.644a.386.386 0 0 1-.386-.38v-3.83zM270.148 74.376a.385.385 0 0 1 .387-.376h7.644a.372.372 0 0 1 .269.108.365.365 0 0 1 .112.268v3.83a.385.385 0 0 1-.235.353.384.384 0 0 1-.146.03h-7.644a.388.388 0 0 1-.387-.381v-3.832z" fill="#3C3C3C"/><path d="M18 119.139a1.16 1.16 0 0 1 .716-1.059c.138-.056.286-.083.434-.08h54.7c.148-.003.296.024.434.08s.264.139.37.245a1.158 1.158 0 0 1 .346.814v32.717a1.186 1.186 0 0 1-.344.817 1.115 1.115 0 0 1-.806.327h-54.7a1.115 1.115 0 0 1-.806-.327 1.159 1.159 0 0 1-.344-.817v-32.717z" fill="#444"/><path d="M18 119.044c.014-.288.142-.559.357-.754.216-.195.5-.299.793-.289h54.7c.293-.01.577.094.793.289.215.195.343.466.357.754V121H18v-1.956z" fill="#5E5E5E"/><path d="M24 125.41a.41.41 0 0 1 .13-.294.437.437 0 0 1 .305-.116l23.008.146a.428.428 0 0 1 .301.117.417.417 0 0 1 .128.292L48 148.59a.411.411 0 0 1-.267.38.41.41 0 0 1-.162.03H24.435a.437.437 0 0 1-.305-.116.408.408 0 0 1-.13-.294v-23.18z" fill="#3C3C3C"/><path d="M24.817 125h22.36a.82.82 0 0 1 .575.224.79.79 0 0 1 .248.557v22.443a.78.78 0 0 1-.248.556.81.81 0 0 1-.575.22h-22.36a.813.813 0 0 1-.573-.221.788.788 0 0 1-.244-.555v-22.448a.789.789 0 0 1 .246-.554.814.814 0 0 1 .571-.222zm0 .394a.399.399 0 0 0-.411.387v22.443a.397.397 0 0 0 .125.277.41.41 0 0 0 .286.111h22.36a.41.41 0 0 0 .287-.111.396.396 0 0 0 .125-.277v-22.448a.406.406 0 0 0-.411-.388l-22.36.006z" fill="gray"/><path d="M27 143.608c0-.025.003-.051.009-.074a.227.227 0 0 1 .025-.063.145.145 0 0 1 .037-.041.078.078 0 0 1 .043-.013h9.775c.03 0 .058.021.078.056.021.036.033.085.033.135a.275.275 0 0 1-.032.135c-.021.036-.05.056-.079.056h-9.775a.07.07 0 0 1-.043-.013.122.122 0 0 1-.037-.041.227.227 0 0 1-.025-.063.309.309 0 0 1-.009-.074z" fill="#8A956A"/><path d="M27 141.314c0-.051.013-.1.037-.137.024-.036.056-.058.09-.059h9.745c.035.001.067.023.09.059a.256.256 0 0 1 .038.137.247.247 0 0 1-.037.135c-.024.036-.057.056-.09.056h-9.745a.09.09 0 0 1-.05-.015.127.127 0 0 1-.04-.041.219.219 0 0 1-.028-.062.275.275 0 0 1-.01-.073z" fill="#A1B7BF"/><path d="M27 145.753c0-.052.015-.1.039-.136.024-.035.056-.055.09-.055h9.746c.033 0 .065.02.089.056a.248.248 0 0 1 .036.135c0 .05-.013.099-.036.134-.024.036-.056.056-.089.056h-9.747c-.033 0-.065-.02-.09-.055a.254.254 0 0 1-.038-.135z" fill="#AC5E42"/><path d="M41.637 141.5a1.147 1.147 0 0 0-1.158 1.134v.599h-.273a.199.199 0 0 0-.206.201v1.864a.206.206 0 0 0 .06.145.199.199 0 0 0 .146.057h2.861a.199.199 0 0 0 .206-.202v-1.864a.205.205 0 0 0-.06-.144.199.199 0 0 0-.146-.057h-.272v-.599a1.148 1.148 0 0 0-1.158-1.134zm.75 1.199v.534h-1.51v-.534a.754.754 0 1 1 1.51 0z" fill="#FF6F3D"/><path d="M49.538 131.598a.38.38 0 0 1 .392-.366h13.364a.38.38 0 0 1 .392.366v8.302a.388.388 0 0 1-.119.267.39.39 0 0 1-.273.104h-6.017a.413.413 0 0 0-.313.143l-1.774 2.146a.397.397 0 0 1-.15.109.395.395 0 0 1-.182.032.408.408 0 0 1-.314-.178l-1.272-1.733a1.065 1.065 0 0 0-.789-.529H49.93a.387.387 0 0 1-.273-.105.371.371 0 0 1-.12-.266v-8.292z" fill="#3C3C3C"/><path d="M63.207 131.386H49.793a.399.399 0 0 0-.278.109.385.385 0 0 0-.116.271v8.126c0 .102.042.2.115.273a.4.4 0 0 0 .279.113h2.52c.2 0 .396.049.572.142.176.094.325.229.434.394l1.05 1.608a.404.404 0 0 0 .644.037l1.438-1.758a1.2 1.2 0 0 1 .93-.434h5.826a.4.4 0 0 0 .279-.113.38.38 0 0 0 .115-.273v-8.098a.374.374 0 0 0-.11-.282.394.394 0 0 0-.284-.115zM49.793 131a.799.799 0 0 0-.564.228.766.766 0 0 0-.229.555v8.125a.76.76 0 0 0 .234.544.79.79 0 0 0 .559.222h2.52a.81.81 0 0 1 .672.36l1.044 1.608a.803.803 0 0 0 .63.357.815.815 0 0 0 .666-.288l1.437-1.758a.794.794 0 0 1 .618-.289h5.827a.818.818 0 0 0 .302-.057.774.774 0 0 0 .491-.71v-8.114a.755.755 0 0 0-.234-.545.788.788 0 0 0-.559-.222L49.793 131z" fill="#5E5E5E"/><path d="M69.391 137.652a.345.345 0 0 0-.015-.101.28.28 0 0 0-.042-.086.21.21 0 0 0-.063-.058.155.155 0 0 0-.075-.02h-9.113a.15.15 0 0 0-.084.006.191.191 0 0 0-.074.053.274.274 0 0 0-.05.091.349.349 0 0 0 0 .223c.011.035.029.066.05.091a.181.181 0 0 0 .075.053.15.15 0 0 0 .083.006h9.113c.051 0 .1-.027.136-.075a.317.317 0 0 0 .06-.183zM69.391 139.238c0-.07-.02-.138-.055-.187-.035-.05-.082-.078-.132-.078h-5.983c-.05 0-.097.028-.132.078a.327.327 0 0 0-.054.187c0 .07.02.138.054.187.035.05.083.078.132.078h5.983c.05 0 .097-.028.132-.078a.327.327 0 0 0 .055-.187zM52 135.265c0-.071.028-.138.075-.188a.248.248 0 0 1 .179-.077h9.03c.067 0 .13.028.177.078a.271.271 0 0 1 .074.187c0 .07-.027.138-.074.187a.242.242 0 0 1-.176.078h-9.031a.245.245 0 0 1-.178-.078.273.273 0 0 1-.076-.187z" fill="#3C3C3C"/><path d="M52 137.265c0-.071.028-.138.075-.188a.248.248 0 0 1 .179-.077h9.03c.067 0 .13.028.177.078a.271.271 0 0 1 .074.187c0 .07-.027.138-.074.187a.242.242 0 0 1-.176.078h-9.031a.245.245 0 0 1-.178-.078.273.273 0 0 1-.076-.187z" fill="#3C3C3C"/><path d="M72 134.352a.373.373 0 0 0-.388-.352H58.393a.377.377 0 0 0-.393.352v8.02a.38.38 0 0 0 .393.353h5.95a.41.41 0 0 1 .31.136l1.754 2.003a.413.413 0 0 0 .502.087.42.42 0 0 0 .138-.119l1.263-1.608a1.058 1.058 0 0 1 .776-.526h2.526a.374.374 0 0 0 .388-.352v-7.994z" fill="url(#b)"/><path d="M60 137.265c0-.071.028-.138.075-.188a.248.248 0 0 1 .179-.077h9.03c.067 0 .13.028.177.078a.272.272 0 0 1 .074.187c0 .07-.027.138-.074.187a.242.242 0 0 1-.176.078h-9.031a.245.245 0 0 1-.178-.078.273.273 0 0 1-.076-.187zM60 139.265c0-.071.028-.138.075-.188a.248.248 0 0 1 .179-.077h9.03c.067 0 .13.028.177.078a.272.272 0 0 1 .074.187c0 .07-.027.138-.074.187a.242.242 0 0 1-.176.078h-9.031a.245.245 0 0 1-.178-.078.273.273 0 0 1-.076-.187z" fill="#3C3C3C"/><path d="M284.368 56.727c0-.2.164-.363.367-.363h32.53c.203 0 .368.162.368.363v19c0 .2-.165.363-.368.363h-32.53a.365.365 0 0 1-.367-.363v-19z" fill="#9ADAF3"/><path d="M305.227 65.145c4.452 1.359 9.716 1.263 12.773.855v-9a1 1 0 0 0-1-1h-32a1 1 0 0 0-1 1v6.5c1.475-3.318 3.926-4.64 6.483-4.905 5.454-.565 9.5 4.95 14.744 6.55z" fill="#C0EAFA"/><path d="M277.884 58a8.028 8.028 0 0 0 1.116-.078V56a1 1 0 0 0-1-1h-7a1 1 0 0 0-1 1v1.191c1.124-2.792 4.874.819 7.884.809z" fill="#9ADAF3" fill-opacity=".4"/><path d="M294 69c4.4 1.6 4.833 5.518 4.5 7.185H285a1 1 0 0 1-1-1V68c3 3 4.5-1 10 1zM272.742 58.244c1.206.391 1.325 1.349 1.234 1.756H271a1 1 0 0 1-1-1v-1c.823.733 1.234-.244 2.742.244zM305 76.24c.4-6 8.777-8.073 12.777-8.24v8.24H305zM275 60c.125-1.456 2.748-1.96 4-2v1a1 1 0 0 1-1 1h-3z" fill="#C0EAFA"/><path fill-rule="evenodd" clip-rule="evenodd" d="M284.735 56h32.53a.73.73 0 0 1 .735.727v19a.73.73 0 0 1-.735.726h-32.53a.73.73 0 0 1-.735-.726v-19a.73.73 0 0 1 .735-.727zm0 .363a.365.365 0 0 0-.367.364v19c0 .2.164.363.367.363h32.53a.365.365 0 0 0 .367-.363v-19c0-.201-.164-.364-.367-.364h-32.53z" fill="#AAA"/><path d="M304 73.15a3.15 3.15 0 1 0 0-6.3 3.15 3.15 0 0 0 0 6.3z" fill="#FFC5B1" stroke="#FF6F3D" stroke-width=".3"/><path d="M312 73.15a3.15 3.15 0 1 0 0-6.3 3.15 3.15 0 0 0 0 6.3z" fill="#E3EEC4" stroke="#8BB825" stroke-width=".3"/><path d="M288.165 69.774c-.118 0-.2.077-.245.15a.521.521 0 0 0-.07.268c0 .097.024.192.07.268.045.073.127.15.245.15h8.563c.117 0 .199-.077.244-.15a.521.521 0 0 0 .07-.268.521.521 0 0 0-.07-.268c-.045-.073-.127-.15-.244-.15h-8.563zM288.155 71.797c-.119 0-.198.082-.24.154a.54.54 0 0 0-.065.264c0 .096.022.19.065.265.042.071.121.153.24.153h8.059c.119 0 .199-.082.24-.153a.54.54 0 0 0 .065-.265.54.54 0 0 0-.065-.264c-.041-.072-.121-.154-.24-.154h-8.059zM288.333 61.85c-.236 0-.483.16-.483.42s.247.42.483.42h17.334c.236 0 .483-.16.483-.42s-.247-.42-.483-.42h-17.334zM288.259 59.85a.414.414 0 0 0-.409.42c0 .226.177.42.409.42h13.482a.414.414 0 0 0 .409-.42.414.414 0 0 0-.409-.42h-13.482zM288.174 65.727c-.115 0-.2.071-.249.146a.506.506 0 0 0-.075.271c0 .1.026.196.075.272a.302.302 0 0 0 .249.147h9.067a.3.3 0 0 0 .249-.147.497.497 0 0 0 .075-.272.497.497 0 0 0-.075-.27.3.3 0 0 0-.249-.147h-9.067zM288.417 63.85a.696.696 0 0 0-.376.103.383.383 0 0 0-.191.317c0 .142.089.251.191.317a.696.696 0 0 0 .376.103h25.166c.14 0 .273-.036.376-.103a.383.383 0 0 0 .191-.317.383.383 0 0 0-.191-.317.696.696 0 0 0-.376-.103h-25.166zM288.176 67.75c-.115 0-.2.071-.25.146a.5.5 0 0 0-.076.272.5.5 0 0 0 .076.272c.05.075.135.146.25.146h10.632a.301.301 0 0 0 .25-.146.492.492 0 0 0 .077-.272c0-.1-.026-.196-.077-.272a.301.301 0 0 0-.25-.146h-10.632z" fill="#3C3C3C" stroke="#9ADAF3" stroke-width=".3" stroke-linecap="round" stroke-linejoin="round"/><path d="M27 138.265c0-.146.155-.265.346-.265h17.308c.191 0 .346.119.346.265 0 .146-.155.265-.346.265H27.346c-.191 0-.346-.119-.346-.265z" fill="#828282"/><path fill-rule="evenodd" clip-rule="evenodd" d="M19.15 118a1.093 1.093 0 0 0-.434.08 1.16 1.16 0 0 0-.716 1.059v32.717a1.186 1.186 0 0 0 .344.817 1.115 1.115 0 0 0 .806.327h54.7a1.115 1.115 0 0 0 .806-.327 1.159 1.159 0 0 0 .344-.817v-32.717a1.16 1.16 0 0 0-.716-1.059 1.093 1.093 0 0 0-.434-.08h-54.7zm55.35 1.144a.688.688 0 0 0-.197-.464.61.61 0 0 0-.443-.18H19.14a.604.604 0 0 0-.443.18.688.688 0 0 0-.197.464v32.708a.687.687 0 0 0 .196.467.627.627 0 0 0 .444.181h54.72a.608.608 0 0 0 .444-.181.663.663 0 0 0 .196-.467v-32.708z" fill="gray"/><path d="M221.726 121.266a1 1 0 0 0-1.452 0L212 130h18l-4.5-4.75-3.774-3.984z" fill="#804C39"/><path d="M225.5 125.25 230 130h15l-11.191-13.782a1 1 0 0 0-1.577.032l-6.732 9z" fill="#AC5E42"/><path fill-rule="evenodd" clip-rule="evenodd" d="M245 130a1 1 0 0 0 1-1v-17a1 1 0 0 0-1-1h-35a1 1 0 0 0-1 1v17a1 1 0 0 0 1 1h35zm-.084-.5H245a.5.5 0 0 0 .5-.5v-17a.5.5 0 0 0-.5-.5h-35a.5.5 0 0 0-.5.5v17a.5.5 0 0 0 .5.5h2.129l7.964-8.406a1.25 1.25 0 0 1 1.814 0l3.57 3.769 6.554-8.763a1.25 1.25 0 0 1 1.972-.039l10.913 13.439zm-19.09-4.269 4.045 4.269h14.401l-10.657-13.124a.75.75 0 0 0-1.183.023l-6.606 8.832zm3.356 4.269-7.638-8.062a.75.75 0 0 0-1.088 0l-7.638 8.062h16.364zm-15.309-15.104a1.202 1.202 0 1 0-1.746 1.653 1.202 1.202 0 0 0 1.746-1.653zm-2.109-.344a1.702 1.702 0 1 1 2.472 2.341 1.702 1.702 0 0 1-2.472-2.341z" fill="#FF6F3D"/><path d="M214 141.987c.012-.272.12-.528.301-.712a.88.88 0 0 1 .664-.273.916.916 0 0 1 .698.258c.193.184.314.445.337.727v7.976c-.021.287-.14.554-.333.746a.953.953 0 0 1-.702.29.847.847 0 0 1-.367-.068.92.92 0 0 1-.313-.222 1.04 1.04 0 0 1-.211-.341 1.135 1.135 0 0 1-.074-.405v-7.976z" fill="#8A956A"/><path d="M218 146.123c.022-.311.142-.6.335-.809a.923.923 0 0 1 .702-.314.873.873 0 0 1 .672.323c.18.21.285.497.291.8v3.754c0 .151-.025.3-.074.439-.049.139-.12.264-.21.369a.922.922 0 0 1-.313.24.778.778 0 0 1-.366.074.913.913 0 0 1-.703-.312 1.327 1.327 0 0 1-.334-.81v-3.754zM228.002 141.17c-.009-.15.01-.3.056-.441.046-.142.118-.272.211-.381a.995.995 0 0 1 .333-.257.92.92 0 0 1 .796 0 .995.995 0 0 1 .333.257c.093.109.165.239.211.381.046.141.065.291.056.441v8.809c-.018.277-.13.537-.315.726A.955.955 0 0 1 229 151a.955.955 0 0 1-.683-.295 1.144 1.144 0 0 1-.315-.726v-8.809z" fill="#A1B7BF"/><path d="M224 145.038c.042-.291.166-.555.349-.744A.903.903 0 0 1 225 144c.238 0 .469.104.651.294.183.189.307.453.349.744v4.924a1.344 1.344 0 0 1-.349.744.903.903 0 0 1-.651.294.903.903 0 0 1-.651-.294 1.344 1.344 0 0 1-.349-.744v-4.924zM234 137.09c0-.289.105-.566.293-.771A.96.96 0 0 1 235 136a.96.96 0 0 1 .707.319c.188.205.293.482.293.771v12.82c0 .289-.105.566-.293.771A.96.96 0 0 1 235 151a.96.96 0 0 1-.707-.319 1.141 1.141 0 0 1-.293-.771v-12.82z" fill="#8A956A"/><path d="M238 141.727c0-.193.105-.378.293-.514.187-.136.442-.213.707-.213.265 0 .52.077.707.213.188.136.293.321.293.514v8.546c0 .193-.105.378-.293.514A1.217 1.217 0 0 1 239 151c-.265 0-.52-.077-.707-.213-.188-.136-.293-.321-.293-.514v-8.546z" fill="#A1B7BF"/><path fill-rule="evenodd" clip-rule="evenodd" d="M244 134.5h-33a1.5 1.5 0 0 0-1.5 1.5v15a1.5 1.5 0 0 0 1.5 1.5h33a1.5 1.5 0 0 0 1.5-1.5v-15a1.5 1.5 0 0 0-1.5-1.5zm-33-.5a2 2 0 0 0-2 2v15a2 2 0 0 0 2 2h33a2 2 0 0 0 2-2v-15a2 2 0 0 0-2-2h-33z" fill="#8A956A"/><rect x="70.25" y="44.25" width="31.5" height="43.5" rx=".75" fill="#3C3C3C" stroke="gray" stroke-width=".5"/><path d="M74 54.268a.298.298 0 0 1 .098-.198.27.27 0 0 1 .202-.067h24.412a.239.239 0 0 1 .2.061.266.266 0 0 1 .088.2.278.278 0 0 1-.087.201.25.25 0 0 1-.201.062H74.294a.27.27 0 0 1-.196-.068.298.298 0 0 1-.098-.191z" fill="#AC5E42"/><path d="M74 56.262a.277.277 0 0 1 .08-.186.249.249 0 0 1 .182-.073h13.45a.238.238 0 0 1 .201.061.266.266 0 0 1 .087.2.278.278 0 0 1-.087.201.248.248 0 0 1-.2.062H74.262a.243.243 0 0 1-.183-.075.272.272 0 0 1-.079-.19zM74 52.267a.301.301 0 0 1 .098-.198.268.268 0 0 1 .202-.068h24.4a.268.268 0 0 1 .202.068c.056.05.091.121.098.198a.301.301 0 0 1-.099.197.267.267 0 0 1-.2.064H74.293a.263.263 0 0 1-.197-.066.295.295 0 0 1-.097-.195z" fill="#CCC"/><path d="M74 75.265a.29.29 0 0 1 .099-.193.275.275 0 0 1 .202-.067H98.69a.25.25 0 0 1 .215.055.262.262 0 0 1 .095.205.27.27 0 0 1-.095.205.257.257 0 0 1-.215.054H74.295a.274.274 0 0 1-.198-.068.29.29 0 0 1-.097-.191z" fill="#A1B7BF"/><path d="M74 77.264c0-.146.191-.264.425-.264h21.922c.239 0 .43.118.43.264 0 .146-.191.264-.43.264H74.425c-.234.017-.425-.118-.425-.264zM74 73.268a.298.298 0 0 1 .099-.198.271.271 0 0 1 .202-.067h24.41a.24.24 0 0 1 .201.061.264.264 0 0 1 .088.2.276.276 0 0 1-.088.201.25.25 0 0 1-.201.062H74.296a.271.271 0 0 1-.198-.068.297.297 0 0 1-.098-.191z" fill="#CCC"/><path fill-rule="evenodd" clip-rule="evenodd" d="M98 59.5H75a.5.5 0 0 0-.5.5v10a.5.5 0 0 0 .5.5h23a.5.5 0 0 0 .5-.5V60a.5.5 0 0 0-.5-.5zM75 59a1 1 0 0 0-1 1v10a1 1 0 0 0 1 1h23a1 1 0 0 0 1-1V60a1 1 0 0 0-1-1H75z" fill="#828282"/><circle cx="81" cy="65" r="4" fill="#A1B7BF"/><path d="M85 65a4 4 0 1 0-4.783 3.923L81 65h4z" fill="#8A956A"/><path d="M85 65a4 4 0 0 0-7.673-1.583L81 65h4z" fill="#AC5E42"/><rect x="88" y="63" width="8" height=".53" rx=".265" fill="#AC5E42"/><rect x="88" y="65" width="8" height=".53" rx=".265" fill="#8A956A"/><rect x="88" y="67" width="8" height=".53" rx=".265" fill="#A1B7BF"/><path d="M283.264 96.852h54.686a1.506 1.506 0 0 1 1.526 1.483v31.838a1.516 1.516 0 0 1-.456 1.057 1.498 1.498 0 0 1-1.07.426h-54.686a1.496 1.496 0 0 1-1.07-.426 1.492 1.492 0 0 1-.456-1.057V98.335a1.513 1.513 0 0 1 .456-1.058 1.507 1.507 0 0 1 1.07-.425zm0 .37a1.13 1.13 0 0 0-1.144 1.113v31.838a1.12 1.12 0 0 0 1.144 1.112h54.686a1.135 1.135 0 0 0 1.053-.682c.058-.136.089-.282.091-.43V98.335a1.138 1.138 0 0 0-.091-.43 1.14 1.14 0 0 0-.62-.603 1.126 1.126 0 0 0-.433-.08h-54.686z" fill="gray"/><path d="M335 118h-20v10h20v-10z" fill="#3C3C3C"/><path d="M331.41 121.401c.389-.107.765-.38 1.14-.896v6.233h-14.887a5.46 5.46 0 0 0 1.861-1.7l.002-.004c.438-.695.856-1.314 1.389-1.645.262-.163.552-.255.888-.249.338.006.733.111 1.203.357.498.262.908.367 1.277.333.371-.035.677-.21.971-.46.242-.206.486-.473.756-.767l.164-.178c.34-.369.733-.779 1.235-1.197.476-.396.911-.471 1.328-.415.339.045.662.173 1 .308.096.038.193.077.292.114.434.164.899.298 1.381.166z" fill="#AC5E42" stroke="#FF6F3D" stroke-width=".3"/><path fill-rule="evenodd" clip-rule="evenodd" d="M315 118h20v10h-20v-10zm.268.279v9.442h19.464v-9.442h-19.464z" fill="#FF6F3D"/><rect x="289" y="109.5" width="19" height=".5" rx=".25" fill="#8BB825"/><rect x="289" y="117.5" width="19" height=".5" rx=".25" fill="#9ADAF3"/><rect x="288" y="113.5" width="5" height=".5" rx=".25" fill="#E6E6E6"/><rect x="288" y="121.5" width="5" height=".5" rx=".25" fill="#E6E6E6"/><rect x="288" y="125.5" width="5" height=".5" rx=".25" fill="#E6E6E6"/><rect x="296" y="113.5" width="5" height=".5" rx=".25" fill="#E6E6E6"/><rect x="296" y="121.5" width="5" height=".5" rx=".25" fill="#E6E6E6"/><rect x="296" y="125.5" width="5" height=".5" rx=".25" fill="#E6E6E6"/><rect x="304" y="113.5" width="5" height=".5" rx=".25" fill="#E6E6E6"/><rect x="304" y="121.5" width="5" height=".5" rx=".25" fill="#E6E6E6"/><rect x="304" y="125.5" width="5" height=".5" rx=".25" fill="#E6E6E6"/><path fill="#FF6F3D" d="M314.5 117.5h1.5v1.5h-1.5zM314.5 127h1.5v1.5h-1.5zM334 117.5h1.5v1.5H334zM334 127h1.5v1.5H334z"/><path d="M35 136h.5l1.5-2-2.2-2.933a1 1 0 0 0-1.6 0L29.5 136H35z" fill="#8A956A"/><path d="m42 136-2.688-3.072a1 1 0 0 0-1.552.059L37 134l-1.5 2H42z" fill="#A1B7BF"/><path d="M45 129a1 1 0 0 0-1-1H28a1 1 0 0 0-1 1v6a1 1 0 0 0 1 1h1.5l3.7-4.933a1 1 0 0 1 1.6 0L37 134l.76-1.013a1 1 0 0 1 1.552-.059L42 136h2a1 1 0 0 0 1-1v-6z" fill="#3C3C3C"/><path fill-rule="evenodd" clip-rule="evenodd" d="M28 136a1 1 0 0 1-1-1v-6a1 1 0 0 1 1-1h16a1 1 0 0 1 1 1v6a1 1 0 0 1-1 1H28zm11.5-3.236 2.395 2.736H44a.5.5 0 0 0 .5-.5v-6a.5.5 0 0 0-.5-.5H28a.5.5 0 0 0-.5.5v6a.5.5 0 0 0 .5.5h1.563L33 130.917a1.25 1.25 0 0 1 2 0l2 2.666.56-.746a1.25 1.25 0 0 1 1.94-.073zM36.688 134l-2.087-2.783c-.3-.4-.9-.4-1.2 0l-3.212 4.283h5.375l1.124-1.5zm-.5 1.5 1.773-2.363a.75.75 0 0 1 1.164-.044l2.106 2.407h-5.042zM44 140.5h-5a.5.5 0 0 0-.5.5v5a.5.5 0 0 0 .5.5h5a.5.5 0 0 0 .5-.5v-5a.5.5 0 0 0-.5-.5zm-5-.5a1 1 0 0 0-1 1v5a1 1 0 0 0 1 1h5a1 1 0 0 0 1-1v-5a1 1 0 0 0-1-1h-5z" fill="#828282"/><path d="M270.646 54.783h7.639a.77.77 0 0 1 .768.742v3.83a.757.757 0 0 1-.226.542.76.76 0 0 1-.542.221h-7.639a.762.762 0 0 1-.768-.762v-3.831a.77.77 0 0 1 .768-.742zm0 .382a.379.379 0 0 0-.381.381v3.83a.38.38 0 0 0 .381.382h7.639a.385.385 0 0 0 .386-.381v-3.852a.386.386 0 0 0-.386-.382l-7.639.022z" fill="gray"/><path d="M205.5 53.5c0 6.627 5.373 12 12 12s12-5.373 12-12-5.373-12-12-12-12 5.373-12 12z" fill="url(#c)" stroke="#444"/><path fill-rule="evenodd" clip-rule="evenodd" d="M221.406 52.577c.217 0 .401.077.553.233a.78.78 0 0 1 .229.566v4.794c0 .222-.077.41-.228.566a.747.747 0 0 1-.554.233h-7.812a.747.747 0 0 1-.554-.233.78.78 0 0 1-.228-.566v-4.794c0-.222.076-.411.228-.566a.746.746 0 0 1 .554-.233h.26v-1.598a3.63 3.63 0 0 1 1.074-2.63c.716-.733 1.574-1.099 2.572-1.099s1.855.366 2.572 1.099a3.63 3.63 0 0 1 1.074 2.63v1.598h.26zm-5.989 0h4.166v-1.598c0-.588-.203-1.09-.61-1.507a1.985 1.985 0 0 0-1.473-.624c-.575 0-1.066.208-1.473.624-.407.416-.61.919-.61 1.507v1.598z" fill="#3C3C3C"/><path d="M100.775 90.278a6.5 6.5 0 0 0 6.499-6.502 6.5 6.5 0 1 0-12.999 0 6.5 6.5 0 0 0 6.5 6.502z" fill="url(#d)"/><path d="M100.775 90.543a6.77 6.77 0 0 1-6.645-8.092 6.772 6.772 0 0 1 9.233-4.935 6.775 6.775 0 0 1 4.176 6.26 6.778 6.778 0 0 1-6.764 6.767zm0-13.008a6.239 6.239 0 0 0-6.126 7.456 6.24 6.24 0 0 0 12.361-1.215 6.25 6.25 0 0 0-6.235-6.24z" fill="gray"/><path d="M104.504 81.27c.275.26-1.001 2.077-2.85 4.064-.302.318-.593.62-.874.9l-.45.446-.45-.376c-1.616-1.356-2.675-2.522-2.48-2.776.197-.255 1.59.492 3.301 1.727l-.895.069c.259-.297.529-.615.837-.933 1.869-1.987 3.58-3.38 3.861-3.12z" fill="#3C3C3C"/><path fill-rule="evenodd" clip-rule="evenodd" d="M83.5 90.056V89h1v1.056a.5.5 0 0 1-1 0zm.5 3.722a.5.5 0 0 1 .5.5v2.11a.5.5 0 0 1-1 0v-2.11a.5.5 0 0 1 .5-.5zm0 6.333a.5.5 0 0 1 .5.5v2.111a.5.5 0 0 1-1 0v-2.111a.5.5 0 0 1 .5-.5zm0 6.333a.5.5 0 0 1 .5.5v.556h.556a.5.5 0 0 1 0 1H83.5v-1.556a.5.5 0 0 1 .5-.5zM88.778 108a.5.5 0 0 1 .5-.5h2.11a.5.5 0 0 1 0 1h-2.11a.5.5 0 0 1-.5-.5zm6.333 0a.5.5 0 0 1 .5-.5h2.111a.5.5 0 0 1 0 1h-2.11a.5.5 0 0 1-.5-.5zm6.333 0a.5.5 0 0 1 .5-.5h2.112a.5.5 0 0 1 0 1h-2.112a.5.5 0 0 1-.5-.5zm6.334 0a.5.5 0 0 1 .5-.5h2.111a.5.5 0 0 1 0 1h-2.111a.5.5 0 0 1-.5-.5zm6.333 0a.5.5 0 0 1 .5-.5h2.111a.5.5 0 0 1 0 1h-2.111a.5.5 0 0 1-.5-.5zm6.333 0a.5.5 0 0 1 .5-.5H122v1h-1.056a.5.5 0 0 1-.5-.5zM80.5 135a.5.5 0 0 1 .5-.5h.929a.5.5 0 0 1 0 1H81a.5.5 0 0 1-.5-.5zm4.643 0a.5.5 0 0 1 .5-.5H87.5a.5.5 0 0 1 0 1h-1.857a.5.5 0 0 1-.5-.5zm5.571 0a.5.5 0 0 1 .5-.5h1.857a.5.5 0 0 1 0 1h-1.857a.5.5 0 0 1-.5-.5zm5.572 0a.5.5 0 0 1 .5-.5h1.857a.5.5 0 0 1 0 1h-1.857a.5.5 0 0 1-.5-.5zm5.571 0a.5.5 0 0 1 .5-.5h1.857a.5.5 0 0 1 0 1h-1.857a.5.5 0 0 1-.5-.5zm5.572 0a.5.5 0 0 1 .5-.5h1.857a.5.5 0 0 1 0 1h-1.857a.5.5 0 0 1-.5-.5zm5.571 0a.5.5 0 0 1 .5-.5h1.857a.5.5 0 0 1 0 1H113.5a.5.5 0 0 1-.5-.5zm5.571 0a.5.5 0 0 1 .5-.5H120v1h-.929a.5.5 0 0 1-.5-.5zM193 56.5a.5.5 0 0 1 .5.5v1a.5.5 0 0 1-1 0v-1a.5.5 0 0 1 .5-.5zm0 5a.5.5 0 0 1 .5.5v2a.5.5 0 0 1-1 0v-2a.5.5 0 0 1 .5-.5zm0 6a.5.5 0 0 1 .5.5v2a.5.5 0 0 1-1 0v-2a.5.5 0 0 1 .5-.5zm0 6a.5.5 0 0 1 .5.5v1h-1v-1a.5.5 0 0 1 .5-.5zM311.5 134.944V134h-1v.944a.5.5 0 1 0 1 0zm-.5 3.278a.5.5 0 0 0-.5.5v1.889a.5.5 0 0 0 1 0v-1.889a.5.5 0 0 0-.5-.5zm0 5.667a.5.5 0 0 0-.5.5v1.889a.5.5 0 0 0 1 0v-1.889a.5.5 0 0 0-.5-.5zm0 5.667a.5.5 0 0 0-.5.5v.444h-.444a.5.5 0 1 0 0 1h1.444v-1.444a.5.5 0 0 0-.5-.5zM306.778 151a.5.5 0 0 0-.5-.5h-1.889a.5.5 0 0 0 0 1h1.889a.5.5 0 0 0 .5-.5zm-5.667 0a.5.5 0 0 0-.5-.5h-1.889a.5.5 0 0 0 0 1h1.889a.5.5 0 0 0 .5-.5zm-5.667 0a.5.5 0 0 0-.5-.5h-1.888a.5.5 0 1 0 0 1h1.888a.5.5 0 0 0 .5-.5zm-5.666 0a.5.5 0 0 0-.5-.5h-1.889a.5.5 0 0 0 0 1h1.889a.5.5 0 0 0 .5-.5zm-5.667 0a.5.5 0 0 0-.5-.5h-1.889a.5.5 0 0 0 0 1h1.889a.5.5 0 0 0 .5-.5zm-5.667 0a.5.5 0 0 0-.5-.5h-1.888a.5.5 0 1 0 0 1h1.888a.5.5 0 0 0 .5-.5zm-5.666 0a.5.5 0 0 0-.5-.5h-1.889a.5.5 0 0 0 0 1h1.889a.5.5 0 0 0 .5-.5zm-5.667 0a.5.5 0 0 0-.5-.5h-1.889a.5.5 0 0 0 0 1h1.889a.5.5 0 0 0 .5-.5zm-5.667 0a.5.5 0 0 0-.5-.5H260v1h.944a.5.5 0 0 0 .5-.5z" fill="#AAA"/><path d="M282.12 100.677h56.974v3.444H282.12v-3.444z" fill="#828282"/></g><defs><linearGradient id="b" x1="58" y1="133.57" x2="68.592" y2="147.577" gradientUnits="userSpaceOnUse"><stop stop-color="#FF8E3D"/><stop offset="1" stop-color="#FF6F3D"/></linearGradient><linearGradient id="c" x1="230" y1="40.023" x2="205" y2="66" gradientUnits="userSpaceOnUse"><stop stop-color="#FF8E3D"/><stop offset="1" stop-color="#FF6F3D"/></linearGradient><linearGradient id="d" x1="94.275" y1="76.768" x2="107.278" y2="90.274" gradientUnits="userSpaceOnUse"><stop stop-color="#FF8E3D"/><stop offset="1" stop-color="#FF6F3D"/></linearGradient><clipPath id="a"><path fill="#fff" transform="translate(0 24)" d="M0 0h377v146H0z"/></clipPath></defs></svg>