<svg xmlns="http://www.w3.org/2000/svg" fill="none" viewBox="0 0 377 193">
    <path fill="#666" d="m136.7 114.8 101.2-8.3-.7 68.2a4 4 0 0 1-3.7 4l-97.6 8.1.8-72Z"/>
    <path fill="#444" stroke="#AAA" stroke-width="2" d="M166.7 19.8 199.2 95a1 1 0 0 1-.5 1.3l-62.3 27.9a1 1 0 0 1-1.3-.5L99.6 39.4a1 1 0 0 1 .5-1.3l53-24 13.6 5.7Z"/>
    <path stroke="#AAA" stroke-linecap="round" stroke-width="2" d="M113 71c1 5 1 14-4.5 17a13.7 13.7 0 0 1-9 1M95 90.5c.5.5 1 1.4 2.5 1 1.5-.4 1.5-1.5 2-2.5M177 43.5c1.5 2.4 6.2 7.7 12.5 8 4 .2 7.5-2 8-4m3.5 0c-1.5.6-2.5.5-3.5 0"/>
    <rect width="52" height="2" x="127" y="82" fill="gray" rx="1" transform="rotate(-23.8 127 82)"/>
    <rect width="28" height="2" x="151.4" y="77.8" fill="gray" rx="1" transform="rotate(-23.8 151.4 77.8)"/>
    <rect width="28" height="2" x="153.8" y="83.3" fill="gray" rx="1" transform="rotate(-23.8 153.8 83.3)"/>
    <rect width="52" height="2" x="134.3" y="98.4" fill="gray" rx="1" transform="rotate(-23.8 134.3 98.4)"/>
    <rect width="52" height="2" x="136.7" y="103.9" fill="#9ADAF3" rx="1" transform="rotate(-23.8 136.7 104)"/>
    <path fill="#9ADAF3" d="m136.6 86.5-3 7.9 18.3-8.1-10-5.4-1.7 6.2-3.6-.6Z"/>
    <path stroke="#AAA" stroke-linecap="round" stroke-width="2" d="M133.8 48c-.8-2-3.4-3-5.7-2-2.3 1-3.4 3.5-2.5 5.6m24.7-11c-.9-2-3.4-2.8-5.7-1.8-2.3 1-3.4 3.5-2.5 5.5"/>
    <path fill="#AAA" d="M136 60.5c3 1.8 6.5 2.2 9.7.8 3.3-1.5 5.4-4.4 6.1-7.7.2-.8-.6-1.3-1.3-1l-14.4 6.3c-.7.3-.8 1.3-.1 1.6ZM153 13l14.5 6-1.5 1.5-9.5 4.5-3.5-9.5V13Z"/>
    <path fill="#333" stroke="#666" stroke-width="2" d="M228.2 172.6a9 9 0 0 0 3.1 5.1l-104 9.2a3 3 0 0 1-3.2-2.3l-15.8-66.8a3 3 0 0 1 2.5-3.6l33.1-4.6a1 1 0 0 1 .8.2l6.8 6a5 5 0 0 0 3.9 1.1l56.8-7a3 3 0 0 1 3.3 2.4l12.7 60.3Z"/>
    <path fill="#4A4A4A" stroke="#AAA" stroke-width="2" d="m274.4 81-33.7 75.7a1 1 0 0 1-1.3.5l-62.2-27.5a1 1 0 0 1-.5-1.3L214 44.2a1 1 0 0 1 1.4-.5l53.4 24 5.7 13.3Z"/>
    <path fill="#FF6F3D" d="m202.9 119-9.6 4.4 22.9 10-3.9-13.6-7 3.5-2.4-4.4Z"/>
    <rect width="54" height="32" x="199.6" y="96.7" stroke="gray" stroke-width="2" rx="3" transform="rotate(23.7 199.6 96.7)"/>
    <circle cx="206" cy="113.2" r="2.5" fill="#FF6F3D" transform="rotate(23.7 206 113.2)"/>
    <rect width="25" height="2" x="202.1" y="103.3" fill="#FF6F3D" rx="1" transform="rotate(23.7 202.1 103.3)"/>
    <rect width="16" height="2" x="225.7" y="119.1" fill="gray" rx="1" transform="rotate(23.7 225.7 119.1)"/>
    <rect width="16" height="2" x="223.7" y="123.7" fill="gray" rx="1" transform="rotate(23.7 223.7 123.7)"/>
    <rect width="16" height="2" x="221.7" y="128.3" fill="gray" rx="1" transform="rotate(23.7 221.7 128.3)"/>
    <rect width="16" height="2" x="219.7" y="132.8" fill="gray" rx="1" transform="rotate(23.7 219.7 132.8)"/>
    <path fill="#AAA" d="M223.7 85.6c.6 3.4 2.7 6.3 6 7.8 3.1 1.5 6.7 1.2 9.7-.5.7-.4.6-1.3-.1-1.6L225 84.7c-.7-.3-1.4.2-1.3 1ZM269.5 67l6 14-2.3.6-9.8-3.8 4.6-9.3 1.5-1.5Z"/>
    <circle cx="228.1" cy="73" r="3" fill="#AAA" transform="rotate(24.5 228.1 73)"/>
    <circle cx="245" cy="80.7" r="3" fill="#AAA" transform="rotate(24.5 245 80.7)"/>
    <path stroke="#AAA" stroke-linecap="round" stroke-width="2" d="M199 77c-4.6 1.3-13.3 5.1-10.5 9.5 2.8 4.4 11.2 5.5 15 5.5m.5 0c.5.8 2 2.4 3.5 1.8m56.6 11.5c2.2 4.3 5.2 13.2.1 14.2-5.1.9-11.6-4.5-14.2-7.3m-4-2.2c.5.8 2.5 2.6 4 2"/>
    <path fill="#F36700" d="M270.6 46a1 1 0 0 1-1.4 1l-7.6-3.3a1 1 0 0 1-.2-1.8l7-4.9a1 1 0 0 1 1.5.8l.7 8.2Zm-190 29a1 1 0 0 1-1.4 1l-7.6-3.3a1 1 0 0 1-.2-1.8l7-4.9a1 1 0 0 1 1.5.8l.7 8.2Z"/>
    <path fill="#95C03D" d="M263.6 175.9a1 1 0 0 1-1.5-1l.1-8.1a1 1 0 0 1 1.5-.9l7.2 4.4a1 1 0 0 1 0 1.8l-7.3 3.8Zm-53-162a1 1 0 0 1-1.4 1l-7.6-3.2a1 1 0 0 1-.2-1.8l7-4.9a1 1 0 0 1 1.5.8l.7 8.2Z"/>
    <path fill="#5FC1E8" d="M246.5 11a1 1 0 0 1-1.4-1l.3-8.2a1 1 0 0 1 1.5-.8l7.1 4.6a1 1 0 0 1 0 1.7l-7.5 3.6Zm-157 138.9a1 1 0 0 1-1.5.6l-6.6-5a1 1 0 0 1 .2-1.7l7.9-3.1a1 1 0 0 1 1.4 1l-1.3 8.2Z"/>
    <path fill="#444" d="M50 105a2 2 0 0 1 2-2h28a2 2 0 0 1 2 2v14a2 2 0 0 1-2 2h-6v4l-8-4H52a2 2 0 0 1-2-2v-14Z"/>
    <circle cx="58" cy="112" r="2" fill="#333"/>
    <circle cx="66" cy="112" r="2" fill="#333"/>
    <circle cx="74" cy="112" r="2" fill="#333"/>
    <path fill="#444" d="M315 130a2 2 0 0 0-2-2h-28a2 2 0 0 0-2 2v14a2 2 0 0 0 2 2h6v4l8-4h14a2 2 0 0 0 2-2v-14Z"/>
    <circle cx="2" cy="2" r="2" fill="#333" transform="matrix(-1 0 0 1 309 135)"/>
    <circle cx="2" cy="2" r="2" fill="#333" transform="matrix(-1 0 0 1 301 135)"/>
    <circle cx="2" cy="2" r="2" fill="#333" transform="matrix(-1 0 0 1 293 135)"/>
</svg>
