<svg width="377" height="193" fill="none" xmlns="http://www.w3.org/2000/svg">
<symbol id="welcome-light" viewBox="0 0 377 193">
<g><rect x="84" y="32" width="32" height="46" rx="1" fill="#F5F5F5"/><rect x="76" y="38" width="32" height="46" rx="1" fill="#E0E0E0"/><path d="M211.652 36.3821l-.336.0901-.171-.355c-.925-1.8588-2.44-3.3643-4.312-4.2845a9.5899 9.5899 0 00-6.048-.8072l-.337.0901-.171-.2649c-1.938-3.7724-5.644-6.3209-9.943-6.3209-6.232 0-11.37 5.4414-11.37 12.1861-3.792-2.6491-7.839-2.6491-10.451-1.6636-2.611.9854-4.63 3.2531-5.645 5.9817a11.4544 11.4544 0 00.086 8.5197c1.18 2.6492 3.54 4.7685 7.412 5.5314l44.405.1749h.278c2.465-.1523 4.777-1.2405 6.456-3.039 1.678-1.7985 2.595-4.169 2.558-6.6198.064-6.5858-6.515-11.1476-12.411-9.2191z" fill="#BDECFF"/><path fill-rule="evenodd" clip-rule="evenodd" d="M38.397 91.5639a9.3083 9.3083 0 01-.106 2.4585l1.8063 1.3934-1.5891 3.428-2.23-.4821a9.552 9.552 0 01-1.8116 1.6693l.2913 2.262-3.549 1.298-1.2342-1.918a9.326 9.326 0 01-2.4631-.106l-1.3931 1.807-3.4219-1.59.4767-2.2302a9.3492 9.3492 0 01-1.6633-1.812l-2.2671.2914-1.2925-3.5499 1.9123-1.2345a9.3305 9.3305 0 01.1059-2.4637l-1.8063-1.3935 1.5891-3.428 2.2301.4822a9.343 9.343 0 011.8116-1.6637l-.2861-2.2677 3.5437-1.2927 1.2395 1.9127a9.2996 9.2996 0 012.4579.1059l1.3931-1.8067 3.4272 1.5895-.4821 2.2306a9.5345 9.5345 0 011.6686 1.812l2.2618-.2914 1.2978 3.5498-1.9175 1.2398zm-5.403-.392a4.052 4.052 0 00-7.4809-.3179 4.0544 4.0544 0 00.6904 4.4505 4.0523 4.0523 0 004.3751 1.065 4.0539 4.0539 0 002.4154-5.1976z" fill="#F5F5F5"/><path fill-rule="evenodd" clip-rule="evenodd" d="M23.4393 68.7177a10.6589 10.6589 0 01-.1218 2.8187l2.0712 1.5895-1.8222 3.926-2.5585-.5298a10.5128 10.5128 0 01-2.0764 1.9127l.3337 2.5908-4.0628 1.4888-1.4143-2.1987a10.4266 10.4266 0 01-2.8181-.1219l-1.589 2.0716-3.9252-1.8226.5297-2.5538a10.6315 10.6315 0 01-1.9069-2.0769l-2.5955.3338L0 72.0821l2.193-1.42a10.658 10.658 0 01.1218-2.8187L.2437 66.254l1.8221-3.9473 2.5585.5299a10.5928 10.5928 0 012.0711-1.9074l-.3284-2.5909 4.0628-1.4888 1.4144 2.1988a10.4254 10.4254 0 012.818.1165l1.5891-2.0716 3.9463 1.8385-.5297 2.5591a10.6357 10.6357 0 011.9069 2.0769l2.5955-.3338 1.4832 4.0638-2.193 1.42h-.0212zm-6.1922-.4451a4.6408 4.6408 0 00-4.1614-3.046 4.6393 4.6393 0 00-4.4054 2.6807 4.6424 4.6424 0 00.7911 5.0968 4.6398 4.6398 0 005.0107 1.2185 4.6405 4.6405 0 002.6138-2.4025 4.6422 4.6422 0 00.1512-3.5475z" fill="#ECECEC"/><path d="M106.449 137.988c.426-.136.874-.184 1.319-.143.446-.047.897-.002 1.324.132-.425.138-.874.187-1.319.143-.445.05-.897.005-1.324-.132zM111.746 137.988c.426-.136.874-.184 1.319-.143.446-.047.897-.002 1.324.132-.425.138-.874.187-1.319.143-.445.05-.897.005-1.324-.132zM117.043 137.988c.426-.136.874-.184 1.319-.143.446-.047.897-.002 1.324.132-.425.138-.874.187-1.319.143-.445.05-.897.005-1.324-.132zM122.34 137.988c.426-.136.874-.184 1.319-.143.446-.047.897-.002 1.324.132-.425.138-.874.187-1.319.143-.445.05-.897.005-1.324-.132zM127.637 137.988c.426-.136.874-.184 1.319-.143.446-.047.897-.002 1.324.132-.425.138-.874.187-1.319.143-.445.05-.897.005-1.324-.132zM132.934 137.988c.426-.136.874-.184 1.319-.143.446-.047.897-.002 1.324.132-.425.138-.874.187-1.319.143-.445.05-.897.005-1.324-.132zM138.231 137.988c.426-.136.874-.184 1.319-.143.446-.047.897-.002 1.324.132-.425.138-.874.187-1.319.143-.445.05-.897.005-1.324-.132zM144.058 137.988c.426-.136.874-.184 1.319-.143.446-.047.896-.002 1.324.132-.425.138-.874.187-1.319.143-.446.05-.897.005-1.324-.132zM149.355 137.988c.426-.136.874-.184 1.319-.143.446-.047.896-.002 1.324.132-.425.138-.874.187-1.319.143-.446.05-.897.005-1.324-.132zM101.152 138.014c.426-.141.877-.191 1.324-.148.446-.044.896.001 1.325.132-.427.141-.878.192-1.325.149-.445.043-.895-.002-1.324-.133zM95.855 138.035a3.3 3.3 0 011.3242-.143 3.177 3.177 0 011.3243.133 3.4118 3.4118 0 01-1.3243.143 3.2976 3.2976 0 01-1.3242-.133zM90.558 138.057a6.4228 6.4228 0 012.6485 0c-.4264.14-.8777.189-1.3243.143a3.1956 3.1956 0 01-1.3242-.143zM85.261 138.083a6.4228 6.4228 0 012.6485 0 3.3552 3.3552 0 01-1.3243.143 3.4115 3.4115 0 01-1.3242-.143zM79.964 138.104a3.4115 3.4115 0 011.3242-.143 3.298 3.298 0 011.3243.133 3.4118 3.4118 0 01-1.3243.143 3.2976 3.2976 0 01-1.3242-.133zM74.6669 138.131a3.2316 3.2316 0 011.3242-.149c.4459-.043.8959.002 1.3243.133a3.1796 3.1796 0 01-1.3243.143 3.3505 3.3505 0 01-1.3242-.127zM69.3646 138.178a3.3004 3.3004 0 011.3243-.143c.4475-.05.9007-.005 1.3295.133a6.4571 6.4571 0 01-2.6485 0l-.0053.01zM257.277 152.208c-.874.184-1.776.184-2.649 0a6.4595 6.4595 0 012.649 0zM262.574 152.208c-.874.184-1.776.184-2.649 0a6.4595 6.4595 0 012.649 0zM267.871 152.208c-.874.184-1.776.184-2.649 0a6.4595 6.4595 0 012.649 0zM273.168 152.208c-.874.184-1.776.184-2.649 0a6.4595 6.4595 0 012.649 0zM278.465 152.208c-.874.184-1.776.184-2.649 0a6.4595 6.4595 0 012.649 0zM283.762 152.208c-.873.184-1.775.184-2.649 0a6.4595 6.4595 0 012.649 0zM289.059 152.208c-.873.184-1.775.184-2.649 0a6.4595 6.4595 0 012.649 0zM294.356 152.208c-.874.184-1.775.184-2.649 0a6.4595 6.4595 0 012.649 0zM299.653 152.208c-.873.184-1.775.184-2.649 0a6.4595 6.4595 0 012.649 0zM304.95 152.208c-.873.184-1.775.184-2.649 0a6.4595 6.4595 0 012.649 0zM309.754 151.716c.048 0 .08.19.106.498v.095h-.116c-.223 0-.53.026-.827.026-.446.047-.897 0-1.324-.137.428-.135.878-.181 1.324-.138.318 0 .604 0 .827.032l-.106.106c.037-.292.074-.482.116-.482zM309.813 146.417c.133.428.176.879.127 1.325.039.447-.013.898-.154 1.324-.13-.428-.172-.879-.122-1.324-.04-.447.011-.898.149-1.325zM309.86 141.119c.134.428.177.879.127 1.325.04.447-.012.898-.153 1.324a3.2772 3.2772 0 01-.122-1.324c-.04-.447.01-.898.148-1.325zM309.913 135.821c.131.428.174.879.127 1.324.037.448-.015.898-.153 1.325a3.3364 3.3364 0 01-.127-1.325c-.037-.447.015-.897.153-1.324zM246.153 101.874c-.873.184-1.775.184-2.649 0a6.4595 6.4595 0 012.649 0zM251.45 101.874c-.873.184-1.775.184-2.649 0a6.4595 6.4595 0 012.649 0zM256.747 101.874c-.873.184-1.775.184-2.649 0a6.4595 6.4595 0 012.649 0zM262.044 101.874c-.873.184-1.775.184-2.649 0a6.4595 6.4595 0 012.649 0zM267.341 101.874c-.873.184-1.775.184-2.649 0a6.4595 6.4595 0 012.649 0zM272.638 101.874c-.873.184-1.775.184-2.648 0a6.4547 6.4547 0 012.648 0zM277.935 101.874c-.873.184-1.775.184-2.649 0a6.4595 6.4595 0 012.649 0zM283.232 101.874c-.873.184-1.775.184-2.649 0a6.4595 6.4595 0 012.649 0zM288.529 101.874c-.873.184-1.775.184-2.648 0a6.4547 6.4547 0 012.648 0zM293.826 101.874c-.873.184-1.775.184-2.648 0a6.4547 6.4547 0 012.648 0zM298.63 101.382c.048 0 .08.19.106.498v.095h-.116c-.223 0-.53.027-.827.027a3.245 3.245 0 01-1.324-.138c.428-.134.878-.181 1.324-.138.318 0 .604 0 .827.032l-.106.106c.037-.292.074-.482.116-.482zM298.689 96.0834c.133.428.177.879.127 1.3246.04.4474-.013.8981-.154 1.3246a3.297 3.297 0 01-.122-1.3246c-.04-.447.011-.8975.149-1.3246zM298.737 90.7851c.133.428.176.879.127 1.3246.039.4474-.013.8981-.154 1.3246a3.297 3.297 0 01-.122-1.3246c-.04-.447.011-.8975.149-1.3246zM298.789 85.4868c.131.4286.174.879.128 1.3246a3.416 3.416 0 01-.154 1.3245 3.334 3.334 0 01-.127-1.3245 3.3969 3.3969 0 01.153-1.3246zM118.622 122.713c.873.183 1.775.183 2.648 0a6.4204 6.4204 0 00-2.648 0zM113.325 122.713c.873.183 1.775.183 2.648 0a6.4204 6.4204 0 00-2.648 0zM108.028 122.713c.873.183 1.775.183 2.648 0a6.4204 6.4204 0 00-2.648 0zM102.731 122.713c.873.183 1.775.183 2.648 0a6.4204 6.4204 0 00-2.648 0zM97.4336 122.713a6.4566 6.4566 0 002.6484 0 6.4223 6.4223 0 00-2.6484 0zM92.1365 122.713a6.4571 6.4571 0 002.6485 0 6.4228 6.4228 0 00-2.6485 0zM87.6393 121.913c-.0529 0-.1059.328-.1271.8v.1H88.1743c.4462.044.8966-.003 1.3243-.137a3.3176 3.3176 0 00-1.3243-.138h-.5297l.1272.127c-.0265-.424-.0742-.752-.1325-.752zM87.6393 116.614a3.308 3.308 0 00-.1377 1.32c-.0435.448.0033.9.1377 1.329a3.25 3.25 0 00.1377-1.329 3.1818 3.1818 0 00-.1377-1.32zM87.6393 111.316a3.305 3.305 0 00-.1377 1.319c-.0435.448.0033.901.1377 1.33.1375-.429.1843-.882.1377-1.33a3.1788 3.1788 0 00-.1377-1.319zM87.6393 106.018a3.303 3.303 0 00-.1377 1.319c-.0435.448.0033.9.1377 1.33.1375-.429.1843-.882.1377-1.33a3.1771 3.1771 0 00-.1377-1.319zM87.6393 100.719a3.308 3.308 0 00-.1377 1.32c-.0435.448.0033.9.1377 1.33.1375-.429.1843-.882.1377-1.33a3.1836 3.1836 0 00-.1377-1.32zM87.6393 95.4211a3.3051 3.3051 0 00-.1377 1.3193c-.0435.448.0033.9002.1377 1.3299a3.2542 3.2542 0 00.1377-1.3299 3.1796 3.1796 0 00-.1377-1.3193zM87.6393 90.1228a3.3051 3.3051 0 00-.1377 1.3193c-.0435.448.0033.9002.1377 1.3298a3.2536 3.2536 0 00.1377-1.3298 3.1796 3.1796 0 00-.1377-1.3193zM87.6393 84.8245a3.3051 3.3051 0 00-.1377 1.3193c-.0435.448.0033.9002.1377 1.3299a3.2542 3.2542 0 00.1377-1.3299 3.1796 3.1796 0 00-.1377-1.3193zM87.6393 79.5262a3.3051 3.3051 0 00-.1377 1.3193c-.0435.448.0033.9002.1377 1.3299a3.2542 3.2542 0 00.1377-1.3299 3.1796 3.1796 0 00-.1377-1.3193zM87.6393 74.2279a3.3051 3.3051 0 00-.1377 1.3193c-.0435.448.0033.9002.1377 1.3299a3.2542 3.2542 0 00.1377-1.3299 3.1796 3.1796 0 00-.1377-1.3193zM87.6393 68.9296a3.3051 3.3051 0 00-.1377 1.3193c-.0435.448.0033.9002.1377 1.3298a3.2536 3.2536 0 00.1377-1.3298 3.1796 3.1796 0 00-.1377-1.3193zM160.479 122.623c.425-.136.874-.184 1.319-.143.446-.047.896-.002 1.324.132-.425.138-.874.187-1.319.143-.446.05-.897.005-1.324-.132zM155.182 122.649c.426-.141.877-.191 1.324-.148.446-.044.896.001 1.324.132-.426.141-.877.192-1.324.149-.446.043-.896-.002-1.324-.133zM149.885 122.67a3.298 3.298 0 011.324-.143c.446-.05.897-.004 1.324.133-.428.134-.878.183-1.324.143-.446.046-.897.001-1.324-.133zM144.588 122.691a6.4547 6.4547 0 012.648 0c-.426.141-.878.19-1.324.144-.447.046-.898-.003-1.324-.144zM139.291 122.718a6.4204 6.4204 0 012.648 0 3.354 3.354 0 01-1.324.143 3.408 3.408 0 01-1.324-.143zM133.994 122.739a3.408 3.408 0 011.324-.143c.446-.046.896-.001 1.324.133-.428.134-.878.183-1.324.143-.446.046-.897.001-1.324-.133zM128.697 122.766c.426-.141.877-.192 1.324-.149.446-.043.896.002 1.324.133-.426.14-.878.189-1.324.143-.446.046-.896.003-1.324-.127zM123.394 122.813c.427-.137.878-.186 1.325-.143.447-.05.9-.005 1.329.133-.873.183-1.775.183-2.648 0l-.006.01zM193.58 59.3821a3.3556 3.3556 0 01-.138-1.3246 3.3554 3.3554 0 01.138-1.3246c.137.4272.184.8783.138 1.3246.046.4463-.001.8974-.138 1.3246zM193.58 64.6804a3.3556 3.3556 0 01-.138-1.3246 3.3554 3.3554 0 01.138-1.3246c.137.4272.184.8783.138 1.3246.046.4463-.001.8974-.138 1.3246zM193.58 69.9787a3.3556 3.3556 0 01-.138-1.3246 3.3554 3.3554 0 01.138-1.3246c.137.4272.184.8783.138 1.3246.046.4463-.001.8974-.138 1.3246zM193.58 75.2717a3.3556 3.3556 0 01-.138-1.3246 3.3554 3.3554 0 01.138-1.3246c.137.4272.184.8783.138 1.3246.046.4463-.001.8974-.138 1.3246zM193.58 80.57a3.3189 3.3189 0 01-.138-1.3246 3.3554 3.3554 0 01.138-1.3246c.137.4272.184.8783.138 1.3246.047.4463 0 .8975-.138 1.3246zM193.58 85.8736a3.3556 3.3556 0 01-.138-1.3246 3.3554 3.3554 0 01.138-1.3246c.137.4272.184.8783.138 1.3246.046.4463-.001.8974-.138 1.3246zM193.58 91.1719a6.4261 6.4261 0 010-2.6492 6.4605 6.4605 0 010 2.6492zM193.58 96.4702a6.4261 6.4261 0 010-2.6492 6.4605 6.4605 0 010 2.6492z" fill="#333"/><path d="M125.827 82.0165a4.4167 4.4167 0 014.416-4.4126H253.16a4.4165 4.4165 0 013.117 1.2975 4.4187 4.4187 0 011.29 3.1203v81.9003h-131.74V82.0165z" fill="#F5F5F5" stroke="#333" stroke-width=".5"/><path d="M252.213 160.41c.152.002.304-.027.445-.085.141-.057.27-.142.378-.249.108-.108.194-.236.253-.376.059-.141.089-.292.089-.445V82.9066c0-.1526-.03-.3037-.089-.4445a1.1656 1.1656 0 00-.253-.376 1.1532 1.1532 0 00-.823-.3346h-122.33a1.1548 1.1548 0 00-.823.3346 1.1345 1.1345 0 00-.253.376 1.1498 1.1498 0 00-.089.4445v76.3484c0 .153.03.304.089.445a1.1512 1.1512 0 00.631.625c.141.058.293.087.445.085h122.33z" fill="#fff"/><path d="M253.09 159.532V82.3854a.5914.5914 0 00-.044-.2237.5687.5687 0 00-.127-.1896.578.578 0 00-.189-.1267.585.585 0 00-.224-.0445h-122.62a.5846.5846 0 00-.584.5845v77.1466c0 .155.061.304.171.414.11.109.258.171.413.171h122.673a.5817.5817 0 00.379-.189.5789.5789 0 00.152-.396zm.585 0c0 .154-.031.305-.09.447-.058.142-.144.27-.253.378-.109.108-.237.194-.379.252a1.163 1.163 0 01-.447.087h-122.62a1.163 1.163 0 01-.447-.087c-.141-.058-.27-.144-.379-.252a1.1677 1.1677 0 01-.253-.378 1.1614 1.1614 0 01-.089-.447V82.3854c0-.1533.03-.305.089-.4466.059-.1415.145-.27.253-.3782.109-.1081.238-.1937.379-.2519.142-.0581.294-.0877.447-.087h122.673c.153-.0007.305.0289.447.087.142.0582.271.1438.379.2519.109.1082.195.2367.254.3782.058.1416.089.2933.089.4466l-.053 77.1466z" fill="#333"/><path d="M144.159 169.354h32.237v.121h7.39v-.121h16.823v.153h9.969v-.153h53.68c1.652-.053 3.29-.32 4.873-.795.766-.244 1.513-.541 2.236-.89h-42.859v-.403h-7.866v.371l-10.064-.185v-.133h-9.969v.307l-16.225-.243h-7.988v.275l-30.442-.403-.529.128-9.874.09-25.097-.064a7.1503 7.1503 0 002.261 1.59c1.796.529 4.058.529 5.504.529h17.321l7.639.186.98-.36z" fill="#AAA"/><path d="M271.091 167.669l.784-.53H110.194l.53.53h160.367z" fill="#333"/><path d="M110.48 164.172v3.046c1.059 1.06 3.554 2.279 8.523 2.12l144.079.074c1.811-.126 3.606-.422 5.361-.885.784-.191 3.331-1.16 3.363-1.441v-2.919c-53.786.1-107.551.005-161.326.005zm8.523 5.828c-2.77 0-5.663 0-8.618-1.939-.281-.249-.504-.408-.53-.843v-2.649c.024-.267.145-.516.34-.701.196-.184.451-.291.719-.3h160.59a.824.824 0 01.351.054c.112.044.213.111.296.197.083.086.146.189.185.302.04.113.054.234.042.353v2.691l-.031.032c-.121.29-.346.524-.631.657a12.9195 12.9195 0 01-3.459 1.372c-1.675.444-3.395.697-5.127.753L119.003 170z" fill="#333"/><path opacity=".6" d="M159.419 108.1h-22.655c-.081 0-.16.032-.217.09a.3066.3066 0 00-.09.217.3072.3072 0 00.307.308h22.655c.082 0 .16-.033.218-.09.057-.058.09-.136.09-.218 0-.081-.033-.159-.09-.217a.3072.3072 0 00-.218-.09z" fill="#fff"/><path d="M248.509 86.9981h-99.018a1.9396 1.9396 0 01-.564-.0577c-.18-.0464-.345-.1186-.485-.2121-.139-.0935-.251-.2064-.327-.3316-.076-.1253-.115-.2603-.115-.3967 0-.1364.039-.2714.115-.3967.076-.1252.188-.2381.327-.3316.14-.0935.305-.1657.485-.2121.181-.0464.372-.066.564-.0577h99.018c.192-.0083.383.0113.564.0577.18.0464.345.1186.485.2121.139.0935.251.2064.327.3316.076.1253.115.2603.115.3967 0 .1364-.039.2714-.115.3967-.076.1252-.188.2381-.327.3316-.14.0935-.305.1657-.485.2121-.181.0464-.372.066-.564.0577zm-99.018-1.6259a1.2238 1.2238 0 00-.359.0332c-.115.0285-.221.0737-.31.1326-.09.059-.161.1304-.21.2099-.049.0795-.074.1653-.074.2521 0 .0868.025.1726.074.2521.049.0795.12.1509.21.2099.089.0589.195.1041.31.1326.115.0285.237.0398.359.0332h99.018c.122.0066.244-.0047.359-.0332.115-.0285.221-.0737.31-.1326.09-.059.161-.1304.21-.2099.049-.0795.074-.1653.074-.2521 0-.0868-.025-.1726-.074-.2521-.049-.0795-.12-.1509-.21-.2099-.089-.0589-.195-.1041-.31-.1326a1.2238 1.2238 0 00-.359-.0332h-99.018z" fill="#CCC"/><path d="M166.978 164.304h-42.101l-.031.032v-.032h-14.414v2.782h161.364v-2.914c-29.706.063-59.401.097-89.086.101h-.28c-5.128.031-10.292.031-15.452.031z" fill="#F2F2F2"/><path d="M133.298 87.5326c.717 0 1.298-.567 1.298-1.2663 0-.6994-.581-1.2663-1.298-1.2663-.717 0-1.298.5669-1.298 1.2663 0 .6993.581 1.2663 1.298 1.2663zM137.535 87.5326c.717 0 1.298-.567 1.298-1.2663 0-.6994-.581-1.2663-1.298-1.2663-.716 0-1.297.5669-1.297 1.2663 0 .6993.581 1.2663 1.297 1.2663zM141.773 87.5326c.717 0 1.298-.567 1.298-1.2663 0-.6994-.581-1.2663-1.298-1.2663-.717 0-1.298.5669-1.298 1.2663 0 .6993.581 1.2663 1.298 1.2663z" fill="#CCC"/><path d="M180.829 98h-45.658c-.647 0-1.171.4477-1.171 1s.524 1 1.171 1h45.658c.647 0 1.171-.4477 1.171-1s-.524-1-1.171-1z" fill="#B2B2B2"/><path opacity=".4" d="M134.383 117h29.957c.048-.001.096.004.142.017.045.012.087.031.122.056.036.024.065.054.085.087.02.033.032.069.034.105a.2283.2283 0 01-.034.105.2924.2924 0 01-.085.087.3786.3786 0 01-.122.056.4849.4849 0 01-.142.017h-29.957a.4769.4769 0 01-.142-.017.3786.3786 0 01-.122-.056.2924.2924 0 01-.085-.087.2283.2283 0 01-.034-.105.2283.2283 0 01.034-.105c.02-.033.049-.063.085-.087a.3786.3786 0 01.122-.056.4769.4769 0 01.142-.017zM170.383 117h29.957c.048-.001.096.004.142.017.045.012.087.031.122.056.036.024.065.054.085.087.02.033.032.069.034.105a.2283.2283 0 01-.034.105.2924.2924 0 01-.085.087.3786.3786 0 01-.122.056.4849.4849 0 01-.142.017h-29.957a.4769.4769 0 01-.142-.017.3786.3786 0 01-.122-.056.2924.2924 0 01-.085-.087.2283.2283 0 01-.034-.105.2283.2283 0 01.034-.105c.02-.033.049-.063.085-.087a.3786.3786 0 01.122-.056.4769.4769 0 01.142-.017zM134.981 111.001h64.038c.248-.011.491.087.675.273.183.187.293.447.306.723-.011.277-.121.539-.305.727-.183.187-.427.286-.676.275h-64.038c-.249.011-.493-.088-.676-.275-.184-.188-.294-.45-.305-.727.013-.276.123-.536.306-.723.184-.186.427-.284.675-.273zM134.381 120.709h26.782c.048-.002.096.004.141.017a.384.384 0 01.123.056.289.289 0 01.084.087c.02.033.032.068.034.105a.2283.2283 0 01-.034.105.301.301 0 01-.084.087.4325.4325 0 01-.123.056.4737.4737 0 01-.141.016h-26.782a.4737.4737 0 01-.141-.016.4263.4263 0 01-.122-.056.301.301 0 01-.084-.087.2172.2172 0 01-.034-.105.2139.2139 0 01.034-.105.289.289 0 01.084-.087.3786.3786 0 01.122-.056.4437.4437 0 01.141-.017zM170.381 120.709h26.782c.048-.002.096.004.142.017.045.012.086.031.122.056a.289.289 0 01.084.087c.02.033.032.068.034.105a.2283.2283 0 01-.034.105.301.301 0 01-.084.087.4392.4392 0 01-.122.056.4842.4842 0 01-.142.016h-26.782a.4737.4737 0 01-.141-.016.4263.4263 0 01-.122-.056.301.301 0 01-.084-.087.2172.2172 0 01-.034-.105.2139.2139 0 01.034-.105.289.289 0 01.084-.087.3786.3786 0 01.122-.056.4437.4437 0 01.141-.017zM134.383 124.418h29.957c.048-.002.096.004.142.016.045.013.087.032.122.056.036.025.065.055.085.088.02.033.032.068.034.105a.2209.2209 0 01-.034.104.2953.2953 0 01-.085.088.4263.4263 0 01-.122.056.4842.4842 0 01-.142.016h-29.957a.4766.4766 0 01-.142-.016.4263.4263 0 01-.122-.056.2953.2953 0 01-.085-.088.2209.2209 0 01-.034-.104.2246.2246 0 01.034-.105c.02-.033.049-.063.085-.088a.4263.4263 0 01.122-.056.4766.4766 0 01.142-.016zM170.383 124.418h29.957c.048-.002.096.004.142.016.045.013.087.032.122.056.036.025.065.055.085.088.02.033.032.068.034.105a.2209.2209 0 01-.034.104.2953.2953 0 01-.085.088.4263.4263 0 01-.122.056.4842.4842 0 01-.142.016h-29.957a.4766.4766 0 01-.142-.016.4263.4263 0 01-.122-.056.2953.2953 0 01-.085-.088.2209.2209 0 01-.034-.104.2246.2246 0 01.034-.105c.02-.033.049-.063.085-.088a.4263.4263 0 01.122-.056.4766.4766 0 01.142-.016zM134.388 127.597h25.709c.049-.002.098.004.144.016.046.013.088.032.124.056a.312.312 0 01.086.088c.02.033.032.068.034.105a.2209.2209 0 01-.034.104.312.312 0 01-.086.088.4387.4387 0 01-.124.056.4938.4938 0 01-.144.016h-25.709a.4938.4938 0 01-.144-.016.4387.4387 0 01-.124-.056.312.312 0 01-.086-.088.2209.2209 0 01-.034-.104.2246.2246 0 01.034-.105.312.312 0 01.086-.088.4387.4387 0 01.124-.056.4938.4938 0 01.144-.016zM170.388 127.597h25.709c.049-.002.098.004.144.016.046.013.088.032.124.056a.312.312 0 01.086.088c.02.033.032.068.034.105a.2209.2209 0 01-.034.104.312.312 0 01-.086.088.4387.4387 0 01-.124.056.4938.4938 0 01-.144.016h-25.709a.4938.4938 0 01-.144-.016.4387.4387 0 01-.124-.056.312.312 0 01-.086-.088.2209.2209 0 01-.034-.104.2246.2246 0 01.034-.105.312.312 0 01.086-.088.4387.4387 0 01.124-.056.4938.4938 0 01.144-.016zM134.386 135.544h29.956c.048-.001.096.004.141.017.045.012.087.031.122.056a.289.289 0 01.084.087c.02.033.032.069.034.105a.2283.2283 0 01-.034.105.289.289 0 01-.084.087.3786.3786 0 01-.122.056.4742.4742 0 01-.141.017h-29.956c-.097.003-.193-.023-.265-.073-.072-.049-.116-.118-.121-.192.005-.074.049-.143.121-.192.072-.05.168-.076.265-.073zM170.386 135.544h29.956c.048-.001.096.004.141.017.045.012.087.031.122.056a.289.289 0 01.084.087c.02.033.032.069.034.105a.2283.2283 0 01-.034.105.289.289 0 01-.084.087.3786.3786 0 01-.122.056.4742.4742 0 01-.141.017h-29.956c-.097.003-.193-.023-.265-.073-.072-.049-.116-.118-.121-.192.005-.074.049-.143.121-.192.072-.05.168-.076.265-.073zM134.384 139.253h26.776c.097-.003.192.023.264.072.072.05.115.119.121.193-.006.073-.049.143-.121.192-.072.05-.167.076-.264.072h-26.776c-.097.004-.191-.022-.263-.072-.072-.049-.116-.119-.121-.192.005-.074.049-.143.121-.193.072-.049.166-.075.263-.072zM170.384 139.253h26.776c.097-.003.192.023.264.072.072.05.115.119.121.193-.006.073-.049.143-.121.192-.072.05-.167.076-.264.072h-26.776c-.097.004-.191-.022-.263-.072-.072-.049-.116-.119-.121-.192.005-.074.049-.143.121-.193.072-.049.166-.075.263-.072zM134.386 142.962h29.956c.048-.002.096.004.141.016.045.013.087.032.122.056.035.025.064.055.084.088.02.033.032.068.034.105a.2283.2283 0 01-.034.105.301.301 0 01-.084.087.4263.4263 0 01-.122.056.4737.4737 0 01-.141.016h-29.956c-.097.003-.193-.023-.265-.072-.072-.05-.116-.119-.121-.192.005-.074.049-.143.121-.193.072-.049.168-.075.265-.072zM170.386 142.962h29.956c.048-.002.096.004.141.016.045.013.087.032.122.056.035.025.064.055.084.088.02.033.032.068.034.105a.2283.2283 0 01-.034.105.301.301 0 01-.084.087.4263.4263 0 01-.122.056.4737.4737 0 01-.141.016h-29.956c-.097.003-.193-.023-.265-.072-.072-.05-.116-.119-.121-.192.005-.074.049-.143.121-.193.072-.049.168-.075.265-.072zM134.392 146.141h25.749c.049-.002.097.005.143.022.046.017.088.042.124.075a.3802.3802 0 01.12.258.3802.3802 0 01-.12.258.3746.3746 0 01-.124.075.3664.3664 0 01-.143.022h-25.749a.379.379 0 01-.269-.097.3745.3745 0 01-.123-.258c.005-.099.05-.192.123-.258a.379.379 0 01.269-.097zM170.392 146.141h25.749c.049-.002.097.005.143.022.046.017.088.042.124.075a.3802.3802 0 01.12.258.3802.3802 0 01-.12.258.3746.3746 0 01-.124.075.3664.3664 0 01-.143.022h-25.749a.379.379 0 01-.269-.097.3745.3745 0 01-.123-.258c.005-.099.05-.192.123-.258a.379.379 0 01.269-.097z" fill="#CCC"/><path d="M240.994 116.09c.918 0 1.663-.745 1.663-1.664 0-.919-.745-1.664-1.663-1.664-.919 0-1.664.745-1.664 1.664 0 .919.745 1.664 1.664 1.664z" fill="#fff"/><path d="M220 139.307c.014-.278.137-.54.342-.728.205-.188.476-.288.755-.278.288-.019.573.075.793.263.219.188.357.455.382.743v8.154c-.024.294-.159.567-.377.764-.219.196-.504.303-.798.296a1.0646 1.0646 0 01-.774-.297 1.0707 1.0707 0 01-.239-.348 1.0543 1.0543 0 01-.084-.415v-8.154zM224.238 143.627c.023-.302.15-.582.354-.785.204-.202.47-.311.744-.305.266-.003.522.11.713.314.19.204.301.483.307.776v3.647c.001.147-.026.292-.078.426-.051.135-.127.257-.222.359a.9795.9795 0 01-.332.234.8922.8922 0 01-.388.071c-.274.008-.541-.1-.745-.303-.204-.203-.331-.484-.353-.787v-3.647zM232.715 138.422c-.01-.151.01-.303.059-.446.049-.144.125-.275.224-.386.099-.111.219-.199.352-.26a1.0234 1.0234 0 01.844 0c.134.061.253.149.353.26.099.111.175.242.224.386.048.143.068.295.058.446v8.911c-.018.28-.137.542-.334.734-.196.191-.454.298-.723.298-.268 0-.527-.107-.723-.298-.196-.192-.315-.454-.334-.734v-8.911zM228.475 142.956c.049-.266.189-.507.396-.68a1.154 1.154 0 011.481 0c.207.173.348.414.396.68v4.504a1.155 1.155 0 01-.396.68c-.208.173-.47.268-.74.268-.271 0-.533-.095-.741-.268a1.1602 1.1602 0 01-.396-.68v-4.504zM236.951 134.116c0-.296.111-.58.31-.789.199-.209.468-.327.749-.327.281 0 .55.118.749.327.199.209.31.493.31.789v13.133c0 .296-.111.58-.31.789-.199.209-.468.327-.749.327-.281 0-.55-.118-.749-.327-.199-.209-.31-.493-.31-.789v-13.133z" fill="#ECECEC"/><path d="M364.711 94.3985l-.334.0901-.169-.355a9.4457 9.4457 0 00-4.277-4.2845 9.442 9.442 0 00-5.999-.8071l-.334.09-.17-.2649c-1.922-3.7724-5.599-6.3209-9.863-6.3209-6.181 0-11.277 5.4414-11.277 12.1861-3.761-2.6491-7.776-2.6491-10.366-1.6636-2.591.9854-4.593 3.2478-5.599 5.9658a11.5419 11.5419 0 00.084 8.5195c1.171 2.649 3.512 4.769 7.353 5.532l44.044.174h.276a9.5337 9.5337 0 006.404-3.038 9.5401 9.5401 0 002.537-6.62c.064-6.5702-6.462-11.1321-12.31-9.2035z" fill="#F5F5F5"/><path d="M282.12 98.3458c.002-.1482.033-.2946.092-.4307.058-.1361.143-.2594.249-.3627.107-.1033.232-.1847.37-.2395a1.126 1.126 0 01.433-.0798h54.686c.148-.0021.296.025.433.0798.138.0548.264.1362.37.2395.106.1033.191.2266.25.3627.058.1361.089.2825.091.4307v31.8162c-.002.148-.033.295-.091.431-.059.136-.144.259-.25.362-.106.104-.232.185-.37.24-.137.055-.285.082-.433.08h-54.686a1.129 1.129 0 01-1.052-.682c-.059-.136-.09-.283-.092-.431V98.3458z" fill="#fff"/><path d="M283.264 96.8517h54.686c.198-.0029.394.0333.578.1063.183.0731.351.1816.492.3193.142.1378.255.3021.333.4836.078.1815.12.3767.123.5743v31.8378c-.003.197-.045.392-.123.574-.078.181-.191.346-.333.483-.141.138-.309.247-.492.32-.184.073-.38.109-.578.106h-54.686c-.198.003-.394-.033-.577-.106a1.5025 1.5025 0 01-.493-.32 1.4917 1.4917 0 01-.333-.483c-.078-.182-.12-.377-.123-.574V98.3352c.003-.1976.045-.3928.123-.5743.078-.1815.191-.3458.333-.4836a1.507 1.507 0 01.493-.3193c.183-.073.379-.1092.577-.1063zm0 .3708a1.1294 1.1294 0 00-.803.3193 1.1207 1.1207 0 00-.249.3627c-.059.1361-.09.2825-.092.4307v31.8378c.002.148.033.294.092.43.058.136.143.26.249.363.107.103.232.185.37.24.138.054.285.081.433.079h54.686c.148.002.296-.025.433-.079.138-.055.264-.137.37-.24.106-.103.191-.227.25-.363.058-.136.089-.282.091-.43V98.3352a1.1382 1.1382 0 00-.091-.4307 1.1394 1.1394 0 00-.25-.3627 1.1253 1.1253 0 00-.37-.2395 1.126 1.126 0 00-.433-.0798h-54.686z" fill="#333"/><path d="M282.12 98.3776c0-.3036.12-.5947.335-.8093a1.142 1.142 0 01.809-.3352h54.686c.304 0 .595.1206.809.3352.215.2146.335.5057.335.8093v2.2994H282.12v-2.2994z" fill="#D6D6D6"/><path d="M282.12 100.677h56.974v3.444H282.12v-3.444z" fill="#F2F2F2"/><path d="M334.889 105.647v-1.526h.381v1.526h3.824v.381h-3.824v1.532h3.824v.381h-3.824v1.531h3.824v.382h-3.824v1.531h3.824v.381h-3.824v1.51h3.824v.382h-3.824v1.531h3.824v.382h-3.824v1.531h3.824v.413h-3.824v1.531h3.824v.382h-3.824v1.531h3.824v.381h-3.824v1.532h3.824v.381h-3.824v1.531h3.824v.382h-3.824v1.526h3.824v.36h-3.824v1.526h3.824v.387h-3.824v2.326h-.381v-2.295h-4.588v2.295h-.36v-2.295h-4.587v2.295h-.381v-2.295h-4.588v2.295h-.386v-2.295h-4.588v2.295h-.381v-2.295h-4.587v2.295h-.382v-2.295h-4.592v2.295h-.424v-2.295h-4.587v2.295h-.381v-2.295h-4.566v2.295h-.387v-2.295h-4.593v2.295h-.381v-2.295h-4.587v2.295h-.382v-2.295h-3.061v-.386h3.061v-1.558h-3.061v-.387h3.061v-1.526h-3.061v-.381h3.061v-1.531h-3.061v-.382h3.061v-1.515h-3.061v-.382h3.061v-1.531h-3.061v-.381h3.061v-1.521h-3.061v-.381h3.061v-1.532h-3.061v-.381h3.061v-1.531h-3.061v-.414h3.061v-1.531h-3.061v-.381h3.061v-1.532h-3.061v-.381h3.061v-1.531h-3.061v-.382h3.061v-1.531h-3.061v-.381h3.061V104.1h.382v1.526h4.587V104.1h.381v1.526h4.588V104.1h.392v1.526h4.587V104.1h.381v1.526h4.566V104.1h.382v1.526h4.592V104.1h.381v1.526h4.588V104.1h.381v1.526h4.587V104.1h.387v1.526h4.587V104.1h.382v1.526h4.629V104.1h.387v1.526l4.561.021zm0 .381h-4.588v1.532h4.588v-1.532zm0 1.913h-4.588v1.531h4.588v-1.531zm0 1.913h-4.588v1.531h4.588v-1.531zm0 1.912h-4.588v1.51h4.588v-1.51zm0 1.913h-4.588v1.531h4.588v-1.531zm0 1.913h-4.588v1.531h4.588v-1.531zm0 1.912h-4.588v1.532h4.588v-1.532zm0 1.913h-4.588v1.531h4.588v-1.531zm0 1.913h-4.588v1.531h4.588v-1.531zm0 1.912h-4.588v1.532h4.588v-1.532zm0 1.913h-4.588v1.526h4.588v-1.526zm0 1.913h-4.588v1.526h4.588v-1.526zm-4.948 1.526v-1.542h-4.587v1.526l4.587.016zm-4.968 0v-1.542h-4.588v1.526l4.588.016zm-4.974 0v-1.542h-4.588v1.526l4.588.016zm-4.969 0v-1.542h-4.587v1.526l4.587.016zm-4.969 0v-1.542h-4.592v1.526l4.592.016zm-4.973 0v-1.542H300.5v1.526l4.588.016zm-4.969 0v-1.542h-4.608v1.526l4.608.016zm-4.974 0v-1.542h-4.614v1.526l4.614.016zm-4.969 0v-1.542h-4.587v1.526l4.587.016zm-4.587-1.913h4.587v-1.526h-4.587v1.526zm0-1.907h4.587v-1.532h-4.587v1.532zm0-1.913h4.587v-1.531h-4.587v1.531zm0-1.913h4.587v-1.531h-4.587v1.531zm0-1.912h4.587v-1.521h-4.587v1.521zm0-1.913h4.587v-1.531h-4.587v1.531zm0-1.913h4.587v-1.531h-4.587v1.531zm0-1.912h4.587v-1.532h-4.587v1.532zm0-1.913h4.587v-1.531h-4.587v1.531zm0-1.913h4.587v-1.531h-4.587v1.531zm0-1.912h4.587v-1.532h-4.587v1.532zm4.969-1.532v1.532h4.587v-1.532h-4.587zm4.974 0v1.532h4.587v-1.532h-4.587zm4.968 0v1.532h4.545v-1.532H300.5zm4.969 0v1.532h4.592v-1.532h-4.592zm4.974 0v1.532h4.587v-1.532h-4.587zm4.968 0v1.532h4.588v-1.532h-4.588zm4.974 0v1.532h4.588v-1.532h-4.588zm4.969 0v1.532h4.587v-1.532h-4.587zm4.587 1.913h-4.587v1.531h4.587v-1.531zm0 1.913h-4.587v1.531h4.587v-1.531zm0 1.912h-4.587v1.51h4.587v-1.51zm0 1.913h-4.587v1.531h4.587v-1.531zm0 1.913h-4.587v1.531h4.587v-1.531zm0 1.912h-4.587v1.532h4.587v-1.532zm0 1.913h-4.587v1.531h4.587v-1.531zm0 1.913h-4.587v1.531h4.587v-1.531zm0 1.912h-4.587v1.532h4.587v-1.532zm0 1.913h-4.587v1.526h4.587v-1.526zm-4.968 1.526v-1.526h-4.588v1.526h4.588zm-4.974 0v-1.526h-4.588v1.526h4.588zm-4.969 0v-1.526h-4.587v1.526h4.587zm-4.969 0v-1.526h-4.592v1.526h4.592zm-4.973 0v-1.526H300.5v1.526h4.588zm-4.969 0v-1.526h-4.608v1.526h4.608zm-4.974 0v-1.526h-4.614v1.526h4.614zm-4.587-1.907h4.587v-1.532h-4.614l.027 1.532zm0-1.913h4.587v-1.531h-4.614l.027 1.531zm0-1.913h4.587v-1.531h-4.614l.027 1.531zm0-1.912h4.587v-1.521h-4.614l.027 1.521zm0-1.913h4.587v-1.531h-4.614l.027 1.531zm0-1.913h4.587v-1.531h-4.614l.027 1.531zm0-1.912h4.587v-1.532h-4.614l.027 1.532zm0-1.913h4.587v-1.531h-4.614l.027 1.531zm0-1.913h4.587v-1.531h-4.614l.027 1.531zm4.974-1.531v1.531h4.587v-1.531h-4.587zm4.968 0v1.531h4.545v-1.531H300.5zm4.969 0v1.531h4.592v-1.531h-4.592zm4.974 0v1.531h4.587v-1.531h-4.587zm4.968 0v1.531h4.588v-1.531h-4.588zm4.974 0v1.531h4.588v-1.531h-4.588zm4.588 1.913h-4.588v1.531h4.588v-1.531zm0 1.912h-4.588v1.51h4.588v-1.51zm0 1.913h-4.588v1.531h4.588v-1.531zm0 1.913h-4.588v1.531h4.588v-1.531zm0 1.912h-4.588v1.532h4.588v-1.532zm0 1.913h-4.588v1.531h4.588v-1.531zm0 1.913h-4.588v1.531h4.588v-1.531zm0 1.912h-4.588v1.532h4.588v-1.532zm-4.974 1.532v-1.532h-4.588v1.532h4.588zm-4.969 0v-1.532h-4.587v1.532h4.587zm-4.969 0v-1.532h-4.592v1.532h4.592zm-4.973 0v-1.532H300.5v1.532h4.588zm-4.969 0v-1.532h-4.608v1.532h4.608zm-4.608-1.913h4.587v-1.531h-4.587v1.531zm0-1.913h4.587v-1.531h-4.587v1.531zm0-1.912h4.587v-1.521h-4.587v1.521zm0-1.913h4.587v-1.531h-4.587v1.531zm0-1.913h4.587v-1.531h-4.587v1.531zm0-1.912h4.587v-1.532h-4.587v1.532zm0-1.913h4.587v-1.531h-4.587v1.531zm4.968-1.531v1.531h4.566v-1.531h-4.566zm4.969 0v1.531h4.592v-1.531h-4.592zm4.974 0v1.531h4.587v-1.531h-4.587zm4.968 0v1.531h4.588v-1.531h-4.588zm4.588 1.912h-4.588v1.51h4.588v-1.51zm0 1.913h-4.588v1.531h4.588v-1.531zm0 1.913h-4.588v1.531h4.588v-1.531zm0 1.912h-4.588v1.532h4.588v-1.532zm0 1.913h-4.588v1.531h4.588v-1.531zm0 1.913h-4.588v1.531h4.588v-1.531zm-4.969 1.531v-1.531h-4.587v1.531h4.587zm-4.969 0v-1.531h-4.592v1.531h4.592zm-4.974 0v-1.531h-4.587v1.531h4.587zm-4.587-1.913h4.566v-1.531h-4.587l.021 1.531zm0-1.912h4.566v-1.521h-4.587l.021 1.521zm0-1.913h4.566v-1.531h-4.587l.021 1.531zm0-1.913h4.566v-1.531h-4.587l.021 1.531zm0-1.912h4.566v-1.532h-4.587l.021 1.532zm4.969-1.532v1.51h4.592v-1.531l-4.592.021zm4.974 0v1.51h4.587v-1.531l-4.587.021zm4.587 1.913h-4.587v1.531h4.587v-1.531zm0 1.913h-4.587v1.531h4.587v-1.531zm0 1.912h-4.587v1.532h4.587v-1.532zm0 1.913h-4.587v1.531h4.587v-1.531zm-4.969 1.531v-1.531h-4.592v1.531h4.592zm-4.592-1.912h4.592v-1.521h-4.592v1.521zm0-1.913h4.592v-1.531h-4.592v1.531zm0-1.913h4.592v-1.531h-4.592v1.531z" fill="#EFEFEF"/><path d="M315.004 117.123h20.266v9.929h-20.266v-9.929z" fill="#fff"/><path d="M334.883 117.515H315.39v9.214h19.493v-9.214z" fill="#fff"/><path fill-rule="evenodd" clip-rule="evenodd" d="M315 117h20v10h-20v-10zm.268.279v9.442h19.464v-9.442h-19.464z" fill="#ADADAD"/><path d="M317.297 125.537a5.3044 5.3044 0 002.4-1.934c.868-1.378 1.737-2.607 3.676-1.59 1.939 1.018 2.198-.556 4.238-2.251 2.039-1.696 3.549 2.018 5.387-1.113v6.888h-15.701z" fill="url(#paint0_linear)"/><path d="M315.004 105.647h19.885v9.563h-19.885v-9.563z" fill="#fff"/><path d="M334.883 106.028H315.39v9.182h19.493v-9.182z" fill="#fff"/><path fill-rule="evenodd" clip-rule="evenodd" d="M315 106h20v9h-20v-9zm.268.252v8.496h19.464v-8.496h-19.464z" fill="#ADADAD"/><path d="M332.164 108c-.099 0-.194.039-.266.108a.3835.3835 0 00-.115.263v4.615c0 .101.04.198.112.269.071.072.168.112.269.112s.198-.04.27-.112a.3775.3775 0 00.112-.269v-4.615a.3802.3802 0 00-.031-.144.4015.4015 0 00-.083-.121.3811.3811 0 00-.123-.079.3594.3594 0 00-.145-.027zm-1.52 1.436a.4018.4018 0 00-.267.121.401.401 0 00-.114.271v3.179c0 .101.04.198.111.27.072.071.169.111.27.111s.198-.04.27-.111a.3848.3848 0 00.111-.27v-3.179a.4046.4046 0 00-.113-.271.4064.4064 0 00-.268-.121zm-3.035 1.96c-.1 0-.196.038-.268.106a.3887.3887 0 00-.124.26v1.224c.005.1.049.194.122.263s.169.108.27.108c.098 0 .192-.039.262-.109s.109-.164.109-.262v-1.224c0-.049-.01-.097-.029-.141a.3608.3608 0 00-.08-.12.3697.3697 0 00-.121-.078.361.361 0 00-.141-.027zm1.128.08a.3852.3852 0 01.132-.232.3839.3839 0 01.249-.091c.092 0 .181.032.25.091.07.059.117.141.132.232v1.552a.3909.3909 0 01-.132.232.3845.3845 0 01-.25.091c-.091 0-.18-.032-.249-.091a.3909.3909 0 01-.132-.232v-1.552zm-3.067-1.648a.3874.3874 0 01.015-.159.3698.3698 0 01.079-.139.367.367 0 01.129-.095.38.38 0 01.156-.033.38.38 0 01.156.033c.049.022.093.054.129.095.036.04.063.087.079.139.016.051.021.105.015.159v3.179a.38.38 0 01-.126.24c-.07.062-.16.097-.253.097a.3787.3787 0 01-.253-.097.38.38 0 01-.126-.24v-3.179zm-4.238.09a.342.342 0 00-.138.022.353.353 0 00-.199.19.344.344 0 00-.028.138v2.723c0 .097.038.191.107.26.068.07.161.11.258.111.101 0 .198-.038.27-.107a.3913.3913 0 00.122-.264v-2.723a.3685.3685 0 00-.117-.251.37.37 0 00-.259-.099h-.016zm1.553 1.531a.3916.3916 0 00-.392.371v1.166c.005.1.049.194.122.263s.169.108.27.108c.048 0 .096-.01.141-.029a.3754.3754 0 00.121-.08.3766.3766 0 00.08-.12.3669.3669 0 00.028-.142v-1.166c0-.096-.036-.188-.103-.257a.3696.3696 0 00-.252-.114h-.015zm1.525-.381a.3802.3802 0 00-.252.092.3816.3816 0 00-.129.236v1.632c.015.09.061.172.131.232.07.059.159.091.25.091.092 0 .18-.032.25-.091.07-.06.116-.142.131-.232v-1.632a.3775.3775 0 00-.122-.231.3828.3828 0 00-.243-.097h-.016zm-6.51-.779a.354.354 0 01.03-.136.3366.3366 0 01.08-.114.3437.3437 0 01.118-.073.3391.3391 0 01.137-.021c.099-.006.195.026.269.091.075.064.121.155.129.253v2.697c-.007.1-.052.195-.126.264a.3964.3964 0 01-.272.107.3696.3696 0 01-.258-.111.3678.3678 0 01-.107-.26v-2.697zm1.918 1.107c-.1 0-.196.038-.269.106a.3876.3876 0 00-.123.26v1.224c.005.1.049.194.122.263s.169.108.27.108c.097-.002.19-.041.258-.111a.3678.3678 0 00.107-.26v-1.224a.3659.3659 0 00-.35-.366h-.015z" fill="#DDD"/><path d="M285.563 105.265h24.472v2.676h-24.472v-2.676z" fill="#F9FEEF"/><path d="M310.035 105.647h-24.472v1.918h24.472v-1.918zm-24.854-.382v2.676h25.235v-2.676h-25.235z" fill="#8BB825"/><path d="M285.563 109.854h24.472v1.912h-24.472v-1.912zM285.563 113.679h24.472v1.913h-24.472v-1.913z" fill="#EFEFEF"/><path d="M286.326 110.813a.1804.1804 0 01.052-.13.1908.1908 0 01.128-.056h2.325c.051 0 .099.02.135.056.036.036.056.084.056.135 0 .051-.02.099-.056.135a.1899.1899 0 01-.135.056h-2.325a.1948.1948 0 01-.072-.017.1835.1835 0 01-.098-.106.1845.1845 0 01-.01-.073z" fill="#AAA"/><path d="M286.325 106.606a.2014.2014 0 01.063-.139c.02-.018.042-.032.067-.041a.2027.2027 0 01.077-.011h2.649c.05 0 .099.02.134.056.036.036.056.084.056.135a.1916.1916 0 01-.19.191h-2.649a.2036.2036 0 01-.144-.052.2017.2017 0 01-.063-.139zM301.12 106.606a.2156.2156 0 01.017-.075.2116.2116 0 01.044-.062.1934.1934 0 01.065-.041c.024-.009.05-.014.075-.013h2.649a.1835.1835 0 01.084.005.1925.1925 0 01.126.106.1968.1968 0 010 .165.1925.1925 0 01-.126.106.1835.1835 0 01-.084.005h-2.649a.1801.1801 0 01-.076-.014.1772.1772 0 01-.066-.042.2003.2003 0 01-.043-.064.182.182 0 01-.016-.076zM291.299 106.606a.2156.2156 0 01.017-.075.1975.1975 0 01.045-.062.18.18 0 01.064-.041c.024-.009.05-.014.076-.013h2.648c.051 0 .099.02.135.056.036.036.056.084.056.135 0 .05-.02.099-.056.135a.1941.1941 0 01-.135.056h-2.648a.217.217 0 01-.076-.013.195.195 0 01-.064-.041.2017.2017 0 01-.045-.063.2053.2053 0 01-.017-.074zM305.707 106.606a.2023.2023 0 01.065-.138.2038.2038 0 01.142-.053h2.648a.1886.1886 0 01.085.005c.027.007.053.021.074.039a.1956.1956 0 01.069.149c0 .029-.006.057-.018.083a.187.187 0 01-.051.067.1885.1885 0 01-.074.039.1886.1886 0 01-.085.005h-2.648a.2064.2064 0 01-.078-.013.218.218 0 01-.066-.042.1947.1947 0 01-.045-.065.2014.2014 0 01-.018-.076zM296.151 106.606a.2156.2156 0 01.017-.075.1975.1975 0 01.045-.062.18.18 0 01.064-.041c.024-.009.05-.014.076-.013h2.648a.1886.1886 0 01.085.005.1956.1956 0 01.125.106.1968.1968 0 010 .165.1956.1956 0 01-.125.106.1886.1886 0 01-.085.005h-2.648a.1876.1876 0 01-.077-.014.1817.1817 0 01-.065-.042.199.199 0 01-.06-.14z" fill="#8BB825"/><path d="M286.326 108.9a.1867.1867 0 01.048-.131.186.186 0 01.126-.06h3.094c.05 0 .099.02.135.056a.1932.1932 0 010 .27.1916.1916 0 01-.135.056h-3.088a.1888.1888 0 01-.071-.016.2049.2049 0 01-.059-.042.1733.1733 0 01-.038-.062.1715.1715 0 01-.012-.071zM286.325 112.747a.18.18 0 01.015-.073.1916.1916 0 01.103-.104.2016.2016 0 01.073-.014h3.062c.05 0 .099.02.135.056.035.035.055.084.055.135 0 .05-.02.099-.055.134a.1916.1916 0 01-.135.056h-3.072a.1875.1875 0 01-.128-.059.1916.1916 0 01-.053-.131zM286.326 114.638a.1715.1715 0 01.012-.071.1733.1733 0 01.038-.062.2049.2049 0 01.059-.042c.022-.01.046-.015.071-.016h2.325c.051 0 .099.02.135.056.036.036.056.084.056.135 0 .051-.02.099-.056.135a.1899.1899 0 01-.135.056h-2.325a.1888.1888 0 01-.071-.016.2049.2049 0 01-.059-.042.1733.1733 0 01-.038-.062.1715.1715 0 01-.012-.071z" fill="#AAA"/><path d="M285.563 118.654h24.472v2.649h-24.472v-2.649z" fill="#F2F2F2"/><path d="M285.563 123.242h24.472v1.913h-24.472v-1.913zM285.563 127.052h24.472v1.913h-24.472v-1.913z" fill="#EFEFEF"/><path d="M286.326 124.196a.1742.1742 0 01.012-.071.1733.1733 0 01.038-.062.2017.2017 0 01.059-.041c.022-.01.046-.016.071-.017h2.325c.051 0 .099.021.135.056.036.036.056.085.056.135 0 .051-.02.099-.056.135a.1899.1899 0 01-.135.056h-2.325a.1888.1888 0 01-.071-.016.1874.1874 0 01-.059-.042.1783.1783 0 01-.038-.061.1762.1762 0 01-.012-.072z" fill="#AAA"/><path d="M285.563 119.03h24.472v1.918h-24.472v-1.918zm-.382 2.3v-2.649h25.235v2.649h-25.235zm1.351-1.531c-.05 0-.099.02-.135.055a.196.196 0 00-.056.135c0 .051.021.099.056.135.036.036.085.056.135.056h2.649c.05 0 .099-.02.134-.056a.1899.1899 0 00.056-.135c0-.05-.02-.099-.056-.135a.1908.1908 0 00-.134-.055h-2.649zm14.588.196a.2005.2005 0 01.061-.139.2.2 0 01.14-.057h2.649a.2065.2065 0 01.207.196.202.202 0 01-.207.19h-2.649a.1775.1775 0 01-.075-.013.2076.2076 0 01-.065-.04.2162.2162 0 01-.044-.063.2102.2102 0 01-.017-.074zm-9.619-.196c-.051 0-.099.02-.135.055a.1916.1916 0 00-.056.135c0 .051.02.099.056.135.036.036.084.056.135.056h2.648c.051 0 .099-.02.135-.056a.1899.1899 0 00.056-.135c0-.05-.02-.099-.056-.135a.1932.1932 0 00-.135-.055h-2.648zm14.206.196a.2125.2125 0 01.064-.14c.039-.036.09-.056.143-.056h2.648c.053 0 .103.02.141.057.038.036.059.086.061.139a.2102.2102 0 01-.017.074.2162.2162 0 01-.044.063.2076.2076 0 01-.065.04c-.024.01-.05.014-.076.013h-2.648a.1951.1951 0 01-.142-.053.202.202 0 01-.065-.137zm-9.354-.196a.1995.1995 0 00-.201.196c0 .025.006.051.016.074.011.024.026.045.045.063.018.017.04.031.064.04.024.01.05.014.076.013h2.648c.026.001.052-.003.076-.013a.1924.1924 0 00.064-.04.2017.2017 0 00.045-.063c.01-.023.016-.049.017-.074a.2048.2048 0 00-.061-.139.2006.2006 0 00-.141-.057h-2.648z" fill="#444"/><path d="M286.326 122.283a.1827.1827 0 01.048-.13.1817.1817 0 01.126-.06h3.094c.048.002.093.024.126.06.033.035.05.082.049.13a.1843.1843 0 01-.049.131.186.186 0 01-.126.06h-3.088a.1715.1715 0 01-.071-.016.1874.1874 0 01-.059-.042.1694.1694 0 01-.038-.061.1762.1762 0 01-.012-.072zM286.325 126.109c0-.051.021-.099.056-.135a.1916.1916 0 01.135-.056h3.062c.05 0 .099.02.135.056a.1932.1932 0 010 .27.1916.1916 0 01-.135.056h-3.072a.1885.1885 0 01-.128-.06.188.188 0 01-.053-.131zM286.326 128.022a.1762.1762 0 01.012-.072.1694.1694 0 01.038-.061.1874.1874 0 01.059-.042c.022-.01.046-.015.071-.016h2.325c.051 0 .099.02.135.056.036.035.056.084.056.135 0 .05-.02.099-.056.134a.1899.1899 0 01-.135.056h-2.325a.1715.1715 0 01-.071-.016.1874.1874 0 01-.059-.042.1613.1613 0 01-.038-.061.1742.1742 0 01-.012-.071z" fill="#AAA"/><path d="M268.347 47.4821c.002-.1487.034-.2955.093-.4319.059-.1365.144-.26.251-.3634.107-.1034.233-.1847.371-.2391.139-.0545.286-.0811.435-.0783h54.676c.148-.0028.296.0238.434.0783a1.1248 1.1248 0 01.623.6025c.059.1364.09.2832.092.4319v31.8163a1.1264 1.1264 0 01-.715 1.0344c-.138.0544-.286.081-.434.0782h-54.676a1.1322 1.1322 0 01-.435-.0782 1.134 1.134 0 01-.371-.2391 1.126 1.126 0 01-.251-.3634 1.1275 1.1275 0 01-.093-.4319V47.4821z" fill="#fff"/><path d="M269.497 45.988h54.676a1.5023 1.5023 0 011.073.4237c.142.1379.256.3024.335.4843.078.1818.12.3774.123.5755V79.309c-.003.198-.045.3936-.123.5755a1.5182 1.5182 0 01-.335.4842 1.502 1.502 0 01-1.073.4238h-54.676a1.5024 1.5024 0 01-.579-.1049 1.5167 1.5167 0 01-.495-.3189 1.5153 1.5153 0 01-.334-.4842 1.5193 1.5193 0 01-.123-.5755V47.4715c.003-.1981.045-.3937.123-.5755.079-.1819.192-.3464.334-.4843.143-.1378.311-.2462.495-.3189.184-.0727.381-.1084.579-.1048zm0 .3814a1.1239 1.1239 0 00-1.15 1.1021V79.309c.003.1486.034.2954.093.4319s.144.26.251.3633c.107.1034.233.1847.371.2392.139.0544.286.081.435.0782h54.676c.148.0028.296-.0238.434-.0782a1.1267 1.1267 0 00.715-1.0344V47.4715a1.0972 1.0972 0 00-.094-.4295 1.1286 1.1286 0 00-.251-.3605 1.1239 1.1239 0 00-.804-.3121h-54.676z" fill="#333"/><path d="M302.614 63.3876c0-.0497.019-.0974.054-.1331a.1918.1918 0 01.131-.0577h9.572a.1945.1945 0 01.117.0667c.03.0354.047.0803.047.1267a.1966.1966 0 01-.047.1268.1944.1944 0 01-.117.0666h-9.572a.1932.1932 0 01-.131-.061.1945.1945 0 01-.054-.135zM302.995 61.2841c0-.1002.04-.1965.11-.2678a.3805.3805 0 01.266-.1136h9.953c.095.011.181.0563.244.1271a.3867.3867 0 01.098.257.3869.3869 0 01-.342.3841h-9.953a.3792.3792 0 01-.145-.031.3857.3857 0 01-.123-.0844.389.389 0 01-.081-.125.406.406 0 01-.027-.1464zM302.964 66.4977c0-.0251.004-.0499.014-.073a.2087.2087 0 01.041-.0619.1946.1946 0 01.062-.0413.1902.1902 0 01.073-.0146h9.884c.026 0 .05.005.073.0146a.1748.1748 0 01.062.0413.194.194 0 01.042.0619.2016.2016 0 01.014.073c0 .025-.005.0498-.014.073a.1962.1962 0 01-.042.0619.1761.1761 0 01-.062.0413.1865.1865 0 01-.073.0145h-9.884a.1927.1927 0 01-.135-.0558.1933.1933 0 01-.055-.1349zM302.964 69.5389c0-.025.004-.0499.014-.073a.21.21 0 01.041-.0619.1901.1901 0 01.135-.0558h9.884c.026 0 .05.0049.073.0145a.1761.1761 0 01.062.0413.195.195 0 01.042.0619.202.202 0 01.014.073.202.202 0 01-.014.073.195.195 0 01-.042.0619.1761.1761 0 01-.062.0413.1865.1865 0 01-.073.0145h-9.884a.1927.1927 0 01-.135-.0558.1933.1933 0 01-.055-.1349zM302.964 64.9771a.1886.1886 0 01.053-.1331.1922.1922 0 01.132-.0577h11.431a.188.188 0 01.131.0577.1895.1895 0 01.054.1331.1893.1893 0 01-.054.133.188.188 0 01-.131.0577h-11.431a.1922.1922 0 01-.132-.0577.1883.1883 0 01-.053-.133zM302.964 68.0183a.1882.1882 0 01.053-.133.1914.1914 0 01.132-.0577h11.431c.05.0013.097.022.131.0577a.1891.1891 0 01.054.133.1891.1891 0 01-.054.133.1876.1876 0 01-.131.0577h-11.431a.1918.1918 0 01-.132-.0577.1882.1882 0 01-.053-.133zM302.964 71.0595a.1882.1882 0 01.053-.133.1922.1922 0 01.132-.0577h11.431a.192.192 0 01.114.0649.1913.1913 0 010 .2463.1917.1917 0 01-.114.065h-11.431a.1858.1858 0 01-.131-.0544.184.184 0 01-.054-.1311z" fill="#fff"/><path d="M268.347 49.4318h56.975v3.4439h-56.975v-3.4439z" fill="#F9F9F9"/><path d="M268.347 52.8757h12.237v27.5512h-11.071a1.1452 1.1452 0 01-.814-.3183 1.1464 1.1464 0 01-.352-.7996V52.8757z" fill="#F5F5F5"/><path d="M268.347 47.445a1.115 1.115 0 01.358-.7658c.215-.1984.499-.304.792-.2939h54.676a1.112 1.112 0 011.149 1.0597v1.9868h-56.975V47.445z" fill="#D6D6D6"/><path d="M325.322 53.2572h-56.975v-.3815h56.975v.3815z" fill="#E5E5E5"/><path d="M270.26 55.5249a.3824.3824 0 01.115-.2701.3858.3858 0 01.271-.1114h7.644c.05 0 .1.0099.146.0291a.3894.3894 0 01.124.0827.3829.3829 0 01.111.2697v3.8307a.3848.3848 0 01-.111.2697.3928.3928 0 01-.124.0827.3803.3803 0 01-.146.029h-7.644a.3854.3854 0 01-.271-.1114.3823.3823 0 01-.115-.27v-3.8307z" fill="#BDECFF"/><path d="M270.646 54.7831h7.639a.7698.7698 0 01.534.2156.7702.7702 0 01.234.5262v3.8307c0 .1006-.02.2003-.059.2932a.7592.7592 0 01-.167.2481.7621.7621 0 01-.542.2216h-7.639a.7621.7621 0 01-.709-.4697.7575.7575 0 01-.059-.2932v-3.8307a.7702.7702 0 01.234-.5262.7698.7698 0 01.534-.2156zm0 .3815a.3793.3793 0 00-.269.1117.38.38 0 00-.112.2698v3.8307c0 .1011.04.1982.112.2697a.3793.3793 0 00.269.1117h7.639c.101 0 .199-.04.271-.1114a.3823.3823 0 00.115-.27v-3.8519a.3824.3824 0 00-.115-.2701.3858.3858 0 00-.271-.1114l-7.639.0212z" fill="#333"/><path d="M270.148 68.3521a.404.404 0 01.031-.1456.3846.3846 0 01.21-.2036.3785.3785 0 01.146-.027h7.644a.3736.3736 0 01.145.0271.3646.3646 0 01.124.0812c.036.035.064.0767.083.1227.019.046.029.0954.029.1452v3.8307c0 .0501-.01.0997-.029.146a.3701.3701 0 01-.083.1237.3745.3745 0 01-.123.0827.3841.3841 0 01-.146.0291h-7.644a.384.384 0 01-.271-.1114.3878.3878 0 01-.116-.2701v-3.8307zM270.26 62.0471c0-.0501.011-.0996.031-.1456a.3665.3665 0 01.084-.1226.3782.3782 0 01.125-.081.3785.3785 0 01.146-.027h7.644a.3801.3801 0 01.146.0271.3704.3704 0 01.123.0812c.036.035.064.0767.083.1227.019.046.029.0953.029.1452v3.8307a.3848.3848 0 01-.111.2697.3928.3928 0 01-.124.0827.3804.3804 0 01-.146.0291h-7.644a.3859.3859 0 01-.271-.1115.3822.3822 0 01-.115-.27v-3.8307zM270.148 74.7101a.4036.4036 0 01.031-.1456.3846.3846 0 01.21-.2036.3785.3785 0 01.146-.027h7.644a.3718.3718 0 01.145.0271.3646.3646 0 01.124.0812c.036.035.064.0767.083.1227.019.046.029.0953.029.1452v3.8307a.384.384 0 01-.029.1459.3706.3706 0 01-.083.1238.3776.3776 0 01-.269.1117h-7.644a.384.384 0 01-.271-.1114.3875.3875 0 01-.116-.27v-3.8307z" fill="#fff"/><path d="M18.3813 119.489a1.1303 1.1303 0 01.3454-.792c.1068-.103.2327-.183.3707-.238.138-.054.2852-.08.4334-.077h54.6759a1.126 1.126 0 01.4334.077c.138.055.2639.135.3707.238a1.1303 1.1303 0 01.3454.792v31.822a1.1315 1.1315 0 01-.3436.795c-.1068.103-.233.184-.3713.239-.1383.054-.286.081-.4346.078H19.5308a1.1328 1.1328 0 01-.4346-.078 1.1429 1.1429 0 01-.3713-.239 1.1315 1.1315 0 01-.3436-.795v-31.822z" fill="#F9F9F9"/><path d="M19.5255 118h54.6866c.398-.006.7821.147 1.0681.424.2859.277.4504.656.4574 1.054v31.848a1.505 1.505 0 01-.4574 1.055c-.286.277-.6701.429-1.0681.424H19.5255A1.5045 1.5045 0 0118 151.326v-31.848a1.504 1.504 0 01.4574-1.054c.286-.277.6701-.43 1.0681-.424zm0 .382a1.113 1.113 0 00-.4309.075 1.1126 1.1126 0 00-.3691.235 1.12 1.12 0 00-.3441.786v31.848c.0021.149.0333.295.0919.431a1.1267 1.1267 0 00.6192.602c.1377.055.2849.082.433.08h54.6866c.2983.004.5862-.11.8006-.317.2144-.208.3379-.492.3435-.79v-31.854a1.1741 1.1741 0 00-.3793-.798 1.1741 1.1741 0 00-.8284-.309l-54.623.011z" fill="#333"/><path d="M18.3813 119.457c.0138-.292.1422-.567.3573-.766.2152-.198.4998-.304.7922-.293h54.6759a1.109 1.109 0 01.7922.293c.2152.199.3435.474.3573.766v1.987H18.3813v-1.987z" fill="#D6D6D6"/><path d="M24.5297 125.911a.3822.3822 0 01.0325-.149.393.393 0 01.0884-.125.3941.3941 0 01.1307-.081.3967.3967 0 01.1525-.026h21.9745a.4082.4082 0 01.1508.027c.048.019.0917.047.1287.082a.3995.3995 0 01.0871.124.384.384 0 01.032.148v22.02a.384.384 0 01-.032.148.3882.3882 0 01-.0871.124.4037.4037 0 01-.1287.082.3888.3888 0 01-.1508.027H24.9338a.3959.3959 0 01-.1525-.025.4138.4138 0 01-.1307-.082.3823.3823 0 01-.1209-.274v-22.02z" fill="#fff"/><path d="M24.7935 125h21.7144a.7835.7835 0 01.5586.223.7927.7927 0 01.2404.553v22.295a.7847.7847 0 01-.2407.552.7843.7843 0 01-.2575.166.7922.7922 0 01-.3008.053H24.7935a.7877.7877 0 01-.2999-.053.7833.7833 0 01-.4936-.718v-22.3a.7888.7888 0 01.2388-.55.7818.7818 0 01.5547-.221zm0 .391a.3906.3906 0 00-.2783.11.3973.3973 0 00-.1212.275v22.295a.3996.3996 0 00.1212.276.395.395 0 00.2783.11h21.7144a.3953.3953 0 00.2784-.11.3995.3995 0 00.1211-.276v-22.3a.3963.3963 0 00-.3995-.386l-21.7144.006z" fill="#333"/><path d="M28 136.418l4.6342-4.237 2.3118 1.797L39.2099 129l5.2109 7.418" fill="url(#paint1_linear)"/><path d="M29.8593 128.753a1.1495 1.1495 0 01-.7059 1.066 1.1455 1.1455 0 01-.6645.067 1.1475 1.1475 0 01-.5899-.313 1.1508 1.1508 0 01-.2516-1.254c.0869-.21.2342-.39.4233-.517.1892-.126.4116-.194.6392-.194.3039 0 .5955.121.8109.335.2154.215.3371.506.3385.81z" fill="url(#paint2_linear)"/><path d="M27 141.191a.1901.1901 0 01.0559-.135.1768.1768 0 01.0618-.041.1842.1842 0 01.073-.015H40.963a.1906.1906 0 01.1348.326.1932.1932 0 01-.1348.055H27.1907a.1929.1929 0 01-.1348-.055.1924.1924 0 01-.0559-.135zM27 144.608a.19.19 0 01.015-.074.189.189 0 01.0427-.063.2175.2175 0 01.0637-.041.21.21 0 01.0746-.013h16.8127a.19.19 0 01.1349.056.1923.1923 0 01.0558.135.1905.1905 0 01-.1907.191H27.196a.19.19 0 01-.181-.117.1864.1864 0 01-.015-.074zM27 142.314c0-.051.0199-.1.0555-.137a.1967.1967 0 01.1352-.059h14.5562a.1967.1967 0 01.1352.059.1976.1976 0 01.0555.137.191.191 0 01-.1907.191H27.1907a.1842.1842 0 01-.073-.015.1768.1768 0 01-.0618-.041.1901.1901 0 01-.0559-.135zM27 145.753a.1988.1988 0 01.0592-.136.1986.1986 0 01.1368-.055h14.9005a.19.19 0 01.1349.056.1892.1892 0 01.0558.135c0 .05-.0201.099-.0558.134a.19.19 0 01-.1349.056H27.196a.1986.1986 0 01-.1368-.055.1965.1965 0 01-.0592-.135z" fill="#CCC"/><path d="M27 143.458c0-.05.0201-.099.0559-.134a.1896.1896 0 01.1348-.056h14.5562a.19.19 0 01.1349.056.1886.1886 0 01.0558.134c0 .051-.0201.1-.0558.135a.19.19 0 01-.1349.056H27.1907a.2024.2024 0 01-.073-.014.1946.1946 0 01-.0618-.042.175.175 0 01-.0414-.062.1901.1901 0 01-.0145-.073z" fill="#666"/><path d="M45.5386 143.286a3.2514 3.2514 0 01-.5475 1.811 3.2542 3.2542 0 01-1.4628 1.201 3.2545 3.2545 0 01-1.8832.183 3.2626 3.2626 0 01-1.6662-.897 3.2531 3.2531 0 01-.8854-1.673 3.2539 3.2539 0 01.195-1.882 3.2514 3.2514 0 011.2095-1.455 3.2504 3.2504 0 011.8147-.536c.857.007 1.6767.352 2.2808.96.6041.609.9437 1.431.9451 2.288z" fill="#fff"/><path d="M42.7215 141a1.208 1.208 0 00-.8552.344 1.211 1.211 0 00-.3631.848v.631h-.286a.2119.2119 0 00-.0827.014.2145.2145 0 00-.1179.115.212.212 0 00-.0166.083v1.96c0 .028.0056.056.0166.082.011.026.0271.05.0473.07a.217.217 0 00.0706.045.1959.1959 0 00.0827.015h3.0087a.1959.1959 0 00.0827-.015.2166.2166 0 00.0705-.045.2155.2155 0 00.064-.152v-1.96a.2114.2114 0 00-.064-.152.2193.2193 0 00-.0705-.046.2119.2119 0 00-.0827-.014h-.286v-.631a1.211 1.211 0 00-.3631-.848 1.2083 1.2083 0 00-.8553-.344zm.7893 1.261v.562h-1.5891v-.562a.7948.7948 0 01.7945-.795.7949.7949 0 01.7946.795z" fill="url(#paint3_linear)"/><path d="M49.5378 131.598a.3807.3807 0 01.121-.263.379.379 0 01.271-.103h13.3644a.3788.3788 0 01.271.103.3803.3803 0 01.121.263v8.302a.3883.3883 0 01-.033.146.3842.3842 0 01-.0862.121.39.39 0 01-.126.079.3685.3685 0 01-.1468.025h-6.0174a.4245.4245 0 00-.1721.037.4134.4134 0 00-.1404.106l-1.7745 2.146a.3965.3965 0 01-.1497.109.3952.3952 0 01-.1826.032.4248.4248 0 01-.1777-.052.408.408 0 01-.1363-.126l-1.2713-1.733a1.0648 1.0648 0 00-.3318-.358 1.05 1.05 0 00-.4574-.171h-2.5532a.3872.3872 0 01-.1468-.025.3764.3764 0 01-.126-.08.3714.3714 0 01-.0861-.121.3816.3816 0 01-.0331-.145v-8.292z" fill="#fff"/><path d="M63.2074 131.386H49.7927a.4047.4047 0 00-.1502.027.3986.3986 0 00-.1278.082.3846.3846 0 00-.0855.125.3687.3687 0 00-.0301.146v8.126c0 .102.0415.2.1153.273a.3991.3991 0 00.2783.113h2.52c.2 0 .3968.049.5725.142a1.19 1.19 0 01.4334.394l1.0495 1.608c.0339.052.08.095.1343.127a.4132.4132 0 00.1785.053.4121.4121 0 00.1836-.032.4002.4002 0 00.1487-.111l1.4376-1.758c.1123-.135.2539-.245.4147-.32.1607-.075.3366-.114.5146-.114h5.8273a.3991.3991 0 00.2783-.113.3807.3807 0 00.1153-.273v-8.098a.3743.3743 0 00-.0252-.152.3757.3757 0 00-.0844-.13.3939.3939 0 00-.284-.115zM49.7927 131a.7985.7985 0 00-.3055.058.7865.7865 0 00-.2586.17.7664.7664 0 00-.2285.555v8.125a.7591.7591 0 00.062.295.7722.7722 0 00.1724.249.7904.7904 0 00.2566.166.7965.7965 0 00.3016.056h2.52c.1338 0 .2655.033.383.096a.789.789 0 01.2894.264l1.0441 1.608c.0689.103.1618.19.2713.252a.815.815 0 00.7265.039.8025.8025 0 00.2978-.222l1.4376-1.758a.7938.7938 0 01.2754-.213.8084.8084 0 01.3423-.076h5.8273a.818.818 0 00.3016-.057.7743.7743 0 00.2566-.166.7615.7615 0 00.1724-.249.7554.7554 0 00.062-.295v-8.114a.7554.7554 0 00-.062-.295.7763.7763 0 00-.1724-.25.7876.7876 0 00-.2566-.165.7982.7982 0 00-.3016-.057L49.7927 131z" fill="#D6D6D6"/><path d="M69.3911 137.652c0-.035-.005-.069-.0148-.101a.2807.2807 0 00-.0423-.086.2095.2095 0 00-.0632-.058.1548.1548 0 00-.0746-.02h-9.1129a.15.15 0 00-.0838.006.191.191 0 00-.0742.053.2736.2736 0 00-.0508.091.3487.3487 0 00-.0181.112c0 .038.0062.076.0181.111a.2736.2736 0 00.0508.091.1813.1813 0 00.0742.053.15.15 0 00.0838.006h9.1129c.0508 0 .0996-.027.136-.075.0364-.048.0575-.114.0589-.183zM69.3911 139.238c0-.07-.0197-.138-.0547-.187-.035-.05-.0824-.078-.1319-.078h-5.9832c-.0495 0-.097.028-.132.078-.035.049-.0546.117-.0546.187 0 .07.0196.138.0546.187.035.05.0825.078.132.078h5.9832c.0495 0 .0969-.028.1319-.078.035-.049.0547-.117.0547-.187zM52 135.265a.2775.2775 0 01.0755-.188.2483.2483 0 01.1781-.077h9.031c.0663 0 .1299.028.1768.078a.2715.2715 0 01.0732.187c0 .07-.0263.138-.0732.187a.2424.2424 0 01-.1768.078h-9.031a.2454.2454 0 01-.1781-.078.2731.2731 0 01-.0755-.187z" fill="#fff"/><path d="M52 137.265a.2775.2775 0 01.0755-.188.2483.2483 0 01.1781-.077h9.031c.0663 0 .1299.028.1768.078a.2715.2715 0 01.0732.187c0 .07-.0263.138-.0732.187a.2424.2424 0 01-.1768.078h-9.031a.2454.2454 0 01-.1781-.078.2731.2731 0 01-.0755-.187z" fill="#fff"/><path d="M72 134.352a.3696.3696 0 00-.1218-.255.3732.3732 0 00-.2661-.097h-13.219a.3774.3774 0 00-.268.096.3793.3793 0 00-.1251.256v8.02a.3795.3795 0 00.1251.257c.0734.066.1696.1.268.096h5.9491a.3954.3954 0 01.1692.035c.0532.023.101.058.14.101l1.7559 2.003a.4126.4126 0 00.1484.104.3922.3922 0 00.1788.031.4115.4115 0 00.1749-.048.4194.4194 0 00.1374-.119l1.2632-1.608a1.058 1.058 0 01.3261-.355c.1346-.091.2886-.149.4496-.171h2.5264a.368.368 0 00.2661-.096.3739.3739 0 00.1218-.256v-7.994z" fill="url(#paint4_linear)"/><path d="M60 137.265a.2775.2775 0 01.0755-.188.2483.2483 0 01.1781-.077h9.031c.0663 0 .1299.028.1768.078a.2716.2716 0 01.0733.187c0 .07-.0264.138-.0733.187a.2424.2424 0 01-.1768.078h-9.031a.2454.2454 0 01-.1781-.078.2731.2731 0 01-.0755-.187zM60 138.854a.275.275 0 01.0755-.187.2454.2454 0 01.1781-.078h9.031c.0663 0 .1299.028.1768.078.0469.05.0733.117.0733.187a.274.274 0 01-.0733.188.2452.2452 0 01-.1768.077h-9.031a.2444.2444 0 01-.1781-.077.2775.2775 0 01-.0755-.188z" fill="#fff"/><g filter="url(#filter0_d)"><path d="M284.368 56.7269c0-.2007.164-.3633.367-.3633h32.53c.203 0 .367.1626.367.3633v18.9999c0 .2007-.164.3634-.367.3634h-32.53c-.203 0-.367-.1627-.367-.3634V56.7269z" fill="#BDECFF"/></g><path fill-rule="evenodd" clip-rule="evenodd" d="M284.735 56h32.53c.406 0 .735.3253.735.7266v19c0 .4013-.329.7266-.735.7266h-32.53c-.406 0-.735-.3253-.735-.7266v-19c0-.4013.329-.7266.735-.7266zm0 .3633c-.203 0-.367.1627-.367.3633v19c0 .2006.164.3633.367.3633h32.53c.203 0 .367-.1627.367-.3633v-19c0-.2006-.164-.3633-.367-.3633h-32.53z" fill="#333"/><mask id="mask0" maskUnits="userSpaceOnUse" x="284" y="57" width="30" height="20"><path d="M284.318 57.8634h29.461V76.09h-29.461V57.8634z" fill="#EFEFEF"/></mask><g mask="url(#mask0)"><path d="M290.992 62.8848l9.615 13.1758h-19.483l9.868-13.1758z" fill="url(#paint5_linear)"/><path d="M290.994 62.8833l2.201 2.966-1.26-.4235-.945.847-.946-.847-1.271.4106 2.221-2.9531z" fill="#fff"/><path d="M301.085 65.8653l9.545 13.1143h-19.341l9.796-13.1143z" fill="url(#paint6_linear)"/><path d="M301.072 65.8653l2.362 3.1118-1.35-.4445-1.012.8891-1.012-.8891-1.349.4445 2.361-3.1118z" fill="#fff"/></g><path fill-rule="evenodd" clip-rule="evenodd" d="M305.339 70.1917c0-.148.073-.268.164-.268h8.564c.09 0 .164.12.164.268 0 .1481-.074.2681-.164.2681h-8.564c-.091 0-.164-.12-.164-.2681zM307.314 72.2154c0-.148.069-.2681.155-.2681h8.059c.086 0 .155.1201.155.2681 0 .148-.069.268-.155.268h-8.059c-.086 0-.155-.12-.155-.268zM302.376 62.0971c0-.148.078-.268.175-.268h9.066c.097 0 .175.12.175.268 0 .1481-.078.2681-.175.2681h-9.066c-.097 0-.175-.12-.175-.2681zM302.376 60.0735c0-.148.165-.268.369-.268h9.724c.204 0 .369.12.369.268 0 .148-.165.268-.369.268h-9.724c-.204 0-.369-.12-.369-.268zM302.376 66.1445c0-.1481.078-.2681.175-.2681h9.066c.097 0 .175.12.175.2681 0 .148-.078.268-.175.268h-9.066c-.097 0-.175-.12-.175-.268zM302.376 64.1208c0-.148.083-.268.185-.268h11.138c.102 0 .185.12.185.268 0 .148-.083.268-.185.268h-11.138c-.102 0-.185-.12-.185-.268zM303.364 68.1681c0-.148.079-.2681.176-.2681h10.632c.097 0 .176.1201.176.2681 0 .148-.079.268-.176.268H303.54c-.097 0-.176-.12-.176-.268z" fill="#fff"/><path d="M288.782 59.923c0 .6237-.494 1.1293-1.103 1.1293s-1.103-.5056-1.103-1.1293c0-.6237.494-1.1294 1.103-1.1294s1.103.5057 1.103 1.1294z" fill="url(#paint7_linear)"/><g filter="url(#filter1_d)"><path d="M214.348 106.795c0-.186.155-.336.347-.336h30.762c.192 0 .347.15.347.336v17.535c0 .185-.155.335-.347.335h-30.762c-.192 0-.347-.15-.347-.335v-17.535z" fill="#EFEFEF"/></g><path fill-rule="evenodd" clip-rule="evenodd" d="M214.695 106.124h30.762c.384 0 .695.3.695.67v17.535c0 .371-.311.671-.695.671h-30.762c-.384 0-.695-.3-.695-.671v-17.535c0-.37.311-.67.695-.67zm0 .335c-.192 0-.348.15-.348.335v17.535c0 .186.156.336.348.336h30.762c.192 0 .347-.15.347-.336v-17.535c0-.185-.155-.335-.347-.335h-30.762z" fill="#D8D8D8"/><mask id="mask1" maskUnits="userSpaceOnUse" x="214" y="107" width="29" height="18"><path d="M214.3 107.843h27.86v16.822H214.3v-16.822z" fill="#EFEFEF"/></mask><g mask="url(#mask1)"><path d="M220.612 112.478l9.092 12.16h-18.423l9.331-12.16z" fill="url(#paint8_linear)"/><path d="M220.613 112.476l2.082 2.738-1.192-.391-.893.782-.894-.782-1.203.379 2.1-2.726z" fill="#fff"/><path d="M230.157 115.228l9.026 12.104h-18.29l9.264-12.104z" fill="url(#paint9_linear)"/><path d="M230.144 115.228l2.233 2.872-1.276-.41-.957.821-.957-.821-1.276.41 2.233-2.872z" fill="#fff"/></g><path d="M244.055 109.794c0 .869-.704 1.573-1.573 1.573-.868 0-1.572-.704-1.572-1.573s.704-1.573 1.572-1.573c.869 0 1.573.704 1.573 1.573z" fill="url(#paint10_linear)"/><path d="M30 138.265c0-.146.1186-.265.2649-.265h13.2425c.1463 0 .2649.119.2649.265 0 .146-.1186.265-.2649.265H30.2649a.2652.2652 0 01-.2649-.265z" fill="gray"/><path d="M214.518 55.7898l-44.41-.1778c-3.696-.7597-6.324-2.7587-7.659-5.7868a12.0379 12.0379 0 01-.091-8.8527 10.2486 10.2486 0 012.227-3.755 10.1428 10.1428 0 013.579-2.4736 11.6122 11.6122 0 015.308-.4872c1.783.2514 3.485.9141 4.973 1.9366C178.691 29.4204 183.818 24 190.078 24c4.235 0 8.134 2.5216 10.185 6.5735l.048.0808.15-.0377a9.7674 9.7674 0 016.228.8417c1.929.9594 3.493 2.5298 4.454 4.471l.075.167.117-.0323a9.533 9.533 0 014.512-.3174 9.5713 9.5713 0 014.157 1.7991 9.8217 9.8217 0 013.024 3.5752 9.9091 9.9091 0 011.035 4.5824c.03 2.5586-.915 5.0313-2.639 6.908-1.724 1.8767-4.097 3.0144-6.628 3.1785h-.278zm-42.792-21.1321a9.7657 9.7657 0 00-3.397.5765 9.6496 9.6496 0 00-3.387 2.3587 9.7457 9.7457 0 00-2.103 3.5682 11.4536 11.4536 0 00.08 8.4593c1.26 2.8557 3.738 4.747 7.221 5.469l44.656.1616c2.393-.1598 4.635-1.2396 6.262-3.0169 1.628-1.7773 2.518-4.1167 2.487-6.5362a9.4082 9.4082 0 00-.983-4.3352 9.3232 9.3232 0 00-2.857-3.386 9.0658 9.0658 0 00-3.93-1.6954 9.0336 9.0336 0 00-4.264.2999l-.571.1509-.262-.5388c-.903-1.8325-2.377-3.3163-4.194-4.225a9.2226 9.2226 0 00-5.874-.8075l-.534.1401-.272-.4365c-1.976-3.9009-5.694-6.3256-9.726-6.3256-6.121 0-11.104 5.4474-11.104 12.1394v.5388l-.422-.2963c-1.99-1.4465-4.374-2.2369-6.826-2.263z" fill="#333"/><path d="M216.864 55.4997h-1.706V45.2528a4.47 4.47 0 00-1.36-3.0584 4.4657 4.4657 0 00-6.206 0 4.47 4.47 0 00-1.36 3.0584v10.2469h-1.705V45.2528a6.1714 6.1714 0 016.168-5.9917c1.605 0 3.148.6257 4.299 1.7444a6.1768 6.1768 0 011.87 4.2473v10.2469z" fill="#E0E0E0"/><path d="M217.128 55.7646h-2.24V45.2528a4.204 4.204 0 00-1.281-2.8741 4.2002 4.2002 0 00-5.834 0 4.204 4.204 0 00-1.281 2.8741v10.5118h-2.235V45.2528a6.4386 6.4386 0 011.948-4.4321 6.434 6.434 0 018.97 0 6.4386 6.4386 0 011.948 4.4321l.005 10.5118zm-1.705-.5298h1.176v-9.982a5.9051 5.9051 0 00-1.791-4.0625 5.904 5.904 0 00-4.113-1.6682 5.904 5.904 0 00-4.113 1.6682 5.9084 5.9084 0 00-1.79 4.0625v9.982h1.176v-9.982a4.7318 4.7318 0 011.439-3.2428 4.7288 4.7288 0 016.576 0 4.7285 4.7285 0 011.44 3.2428v9.982z" fill="#333"/><path d="M217.33 50.9431h-13.27c-.991 0-1.795.8042-1.795 1.7962v7.2268c0 .992.804 1.7962 1.795 1.7962h13.27c.991 0 1.795-.8042 1.795-1.7962v-7.2268c0-.992-.804-1.7962-1.795-1.7962z" fill="#E0E0E0"/><path d="M217.33 62.0272h-13.269a2.065 2.065 0 01-1.456-.6052 2.0654 2.0654 0 01-.605-1.4558v-7.2269c0-.2707.053-.5387.157-.7888.103-.25.255-.4772.447-.6686a2.055 2.055 0 01.668-.4468c.25-.1036.518-.1569.789-.1569h13.269c.27 0 .538.0533.788.1569.25.1036.477.2554.669.4468.191.1914.343.4186.446.6686.104.2501.157.5181.157.7888v7.2269a2.0654 2.0654 0 01-.605 1.4558 2.0644 2.0644 0 01-1.455.6052zm-13.269-10.8191a1.5338 1.5338 0 00-1.081.45 1.534 1.534 0 00-.45 1.0812v7.2269c.001.4056.163.7943.45 1.0811.286.2869.675.4487 1.081.4501h13.269a1.5374 1.5374 0 001.081-.4501c.286-.2868.448-.6755.449-1.0811v-7.2269a1.5374 1.5374 0 00-.449-1.0812 1.5373 1.5373 0 00-1.081-.45h-13.269z" fill="#333"/><rect x="70.25" y="44.25" width="31.5" height="43.5" rx=".75" fill="#fff" stroke="#333" stroke-width=".5"/><path d="M210.692 56.3527a1.4083 1.4083 0 01-.781-.2401 1.4109 1.4109 0 01-.517-.6336 1.4161 1.4161 0 01-.078-.8138 1.412 1.412 0 01.387-.7203c.198-.1965.449-.3302.722-.3842.273-.0539.556-.0257.813.0811.257.1068.477.2875.632.5191.154.2317.237.5039.237.7825a1.4174 1.4174 0 01-.416.9968 1.4143 1.4143 0 01-.999.4125z" fill="#333"/><path d="M211.079 55.4997h-.768v2.8982h.768v-2.8982z" fill="#333"/><path d="M74.1584 54.4681a.299.299 0 01.0978-.1973.2677.2677 0 01.2007-.0677h24.3106a.2367.2367 0 01.1064.0078.2455.2455 0 01.0938.0539.2626.2626 0 01.064.0902.2774.2774 0 010 .2205.2626.2626 0 01-.064.0902.2455.2455 0 01-.0938.0539.2367.2367 0 01-.1064.0077H74.4516a.2674.2674 0 01-.1956-.0676.2985.2985 0 01-.0976-.1916z" fill="#FF6F3D"/><path d="M74.1584 56.5817a.28.28 0 01.0794-.186.2423.2423 0 01.178-.0732h13.2321a.2302.2302 0 01.1049.0077.241.241 0 01.0924.0539.263.263 0 01.0631.0902.2806.2806 0 01.0224.1103.2805.2805 0 01-.0224.1102.263.263 0 01-.0631.0902.241.241 0 01-.0924.0539.2302.2302 0 01-.1049.0078H74.4158a.2381.2381 0 01-.0969-.0185.251.251 0 01-.0829-.0568.2719.2719 0 01-.0564-.0865.2882.2882 0 01-.0212-.1032zM74.1584 52.3485a.3012.3012 0 01.0978-.1985.266.266 0 01.2006-.068h24.2993a.266.266 0 01.2006.068.3012.3012 0 01.0978.1985.3049.3049 0 01-.0306.1087.2852.2852 0 01-.0675.0879.266.266 0 01-.0941.0534.2551.2551 0 01-.1062.0108H74.4515a.2612.2612 0 01-.1969-.0663.2961.2961 0 01-.0962-.1945zM74.1584 63.4724a.29.29 0 01.0981-.1932.2722.2722 0 01.2014-.0662h24.2878a.2489.2489 0 01.1129.002.2524.2524 0 01.1012.0519.2638.2638 0 01.0698.0917.2715.2715 0 010 .2275.263.263 0 01-.0698.0917.2524.2524 0 01-.1012.0519.2489.2489 0 01-.1129.0021H74.4526a.273.273 0 01-.198-.0683.29.29 0 01-.0962-.1911zM74.1584 65.591c0-.1462.1913-.2642.4251-.2642h21.9218c.2391 0 .4304.118.4304.2642 0 .1461-.1913.2642-.4304.2642H74.5835c-.2338.0168-.4251-.1181-.4251-.2642zM74.1584 61.3558a.2979.2979 0 01.0982-.1972.2695.2695 0 01.2016-.0677h24.3081a.2389.2389 0 01.1069.0078.2478.2478 0 01.0941.0538.2634.2634 0 01.0643.0903.2758.2758 0 010 .2205.263.263 0 01-.0643.0902.2467.2467 0 01-.0941.0539.2389.2389 0 01-.1069.0077H74.4528a.2696.2696 0 01-.1964-.0676.298.298 0 01-.098-.1917zM74.1584 70.89a.2904.2904 0 01.0981-.1932.2722.2722 0 01.2014-.0662h24.2878a.2489.2489 0 01.1129.002.2537.2537 0 01.1012.0519.2648.2648 0 01.0698.0917.2719.2719 0 010 .2275.263.263 0 01-.0698.0917.2524.2524 0 01-.1012.0519.2475.2475 0 01-.1129.0021H74.4526a.273.273 0 01-.198-.0683.2899.2899 0 01-.0962-.1911zM74.1584 73.0086c0-.1462.1913-.2642.4251-.2642h21.9218c.2391 0 .4304.118.4304.2642 0 .1461-.1913.2642-.4304.2642H74.5835c-.2338.0168-.4251-.1181-.4251-.2642zM74.1584 68.7735a.2983.2983 0 01.0982-.1973.269.269 0 01.2016-.0676h24.3081a.2389.2389 0 01.1069.0077.2467.2467 0 01.0941.0539.262.262 0 01.0643.0902.2759.2759 0 010 .2205.262.262 0 01-.0643.0902.2467.2467 0 01-.0941.0539.2403.2403 0 01-.1069.0078H74.4528a.2697.2697 0 01-.1964-.0677.298.298 0 01-.098-.1916z" fill="#CCC"/><path d="M100.432 90.5202c3.589 0 6.499-2.9106 6.499-6.501 0-3.5904-2.91-6.501-6.499-6.501-3.59 0-6.4999 2.9106-6.4999 6.501 0 3.5904 2.9099 6.501 6.4999 6.501z" fill="url(#paint11_linear)"/><path d="M100.432 90.7851a6.7703 6.7703 0 01-6.2589-4.1776 6.7714 6.7714 0 01-.3865-3.9133 6.7711 6.7711 0 011.8529-3.4683 6.7692 6.7692 0 013.4675-1.8534 6.7658 6.7658 0 013.912.3866 6.763 6.763 0 013.038 2.4962 6.7686 6.7686 0 011.139 3.7639 6.7778 6.7778 0 01-1.984 4.7811 6.7747 6.7747 0 01-4.78 1.9848zm0-13.0073a6.2392 6.2392 0 00-5.7691 3.8492 6.2433 6.2433 0 001.3493 6.8036 6.239 6.239 0 009.6018-.9434 6.2414 6.2414 0 001.052-3.468 6.2452 6.2452 0 00-6.234-6.2414z" fill="#333"/><path d="M104.161 81.5131c.275.2596-1.001 2.0769-2.85 4.0638-.302.3179-.593.6199-.874.9007l-.4503.445-.4502-.3762c-1.6156-1.3563-2.675-2.5219-2.479-2.7763.196-.2543 1.5891.4928 3.3005 1.7273l-.8957.0689c.2596-.2967.5297-.6146.8367-.9325 1.87-1.9869 3.581-3.3804 3.862-3.1207z" fill="#fff"/></g><defs><linearGradient id="paint0_linear" x1="10050.5" y1="-618.52" x2="10050.5" y2="-529.047" gradientUnits="userSpaceOnUse"><stop stop-color="#FF8E3D"/><stop offset="1" stop-color="#FF6F3D"/></linearGradient><linearGradient id="paint1_linear" x1="1138.21" y1="-561.87" x2="1175.95" y2="-365.456" gradientUnits="userSpaceOnUse"><stop stop-color="#FFC671"/><stop offset=".59" stop-color="#FF7541"/><stop offset="1" stop-color="#FF6F3D"/></linearGradient><linearGradient id="paint2_linear" x1="166.231" y1="-125.886" x2="166.231" y2="-115.929" gradientUnits="userSpaceOnUse"><stop stop-color="#FF8E3D"/><stop offset="1" stop-color="#FF6F3D"/></linearGradient><linearGradient id="paint3_linear" x1="321.61" y1="-188.5" x2="352.981" y2="-166.685" gradientUnits="userSpaceOnUse"><stop stop-color="#FFC671"/><stop offset=".59" stop-color="#FF7541"/><stop offset="1" stop-color="#FF6F3D"/></linearGradient><linearGradient id="paint4_linear" x1="1986.78" y1="-770.583" x2="1784.55" y2="-429.526" gradientUnits="userSpaceOnUse"><stop stop-color="#FF8E3D"/><stop offset="1" stop-color="#FF6F3D"/></linearGradient><linearGradient id="paint5_linear" x1="281.124" y1="62.3701" x2="293.181" y2="80.8937" gradientUnits="userSpaceOnUse"><stop stop-color="#FFC671"/><stop offset=".5938" stop-color="#FF7541"/><stop offset="1" stop-color="#FF6F3D"/></linearGradient><linearGradient id="paint6_linear" x1="291.289" y1="65.353" x2="303.302" y2="83.7616" gradientUnits="userSpaceOnUse"><stop stop-color="#FFC671"/><stop offset=".5938" stop-color="#FF7541"/><stop offset="1" stop-color="#FF6F3D"/></linearGradient><linearGradient id="paint7_linear" x1="287.679" y1="58.7936" x2="287.679" y2="61.0523" gradientUnits="userSpaceOnUse"><stop stop-color="#FF8E3D"/><stop offset="1" stop-color="#FF6F3D"/></linearGradient><linearGradient id="paint8_linear" x1="211.281" y1="112.003" x2="222.296" y2="129.343" gradientUnits="userSpaceOnUse"><stop stop-color="#FFC671"/><stop offset=".5938" stop-color="#FF7541"/><stop offset="1" stop-color="#FF6F3D"/></linearGradient><linearGradient id="paint9_linear" x1="220.893" y1="114.756" x2="231.869" y2="131.99" gradientUnits="userSpaceOnUse"><stop stop-color="#FFC671"/><stop offset=".5938" stop-color="#FF7541"/><stop offset="1" stop-color="#FF6F3D"/></linearGradient><linearGradient id="paint10_linear" x1="242.482" y1="108.221" x2="242.482" y2="111.367" gradientUnits="userSpaceOnUse"><stop stop-color="#fff"/><stop offset="1" stop-color="#fff"/></linearGradient><linearGradient id="paint11_linear" x1="93.9321" y1="84.0192" x2="106.931" y2="84.0192" gradientUnits="userSpaceOnUse"><stop stop-color="#FF8E3D"/><stop offset="1" stop-color="#FF6F3D"/></linearGradient><filter id="filter0_d" x="284.368" y="56.3636" width="33.2649" height="23.7266" filterUnits="userSpaceOnUse" color-interpolation-filters="sRGB"><feFlood flood-opacity="0" result="BackgroundImageFix"/><feColorMatrix in="SourceAlpha" values="0 0 0 0 0 0 0 0 0 0 0 0 0 0 0 0 0 0 127 0"/><feOffset dy="4"/><feColorMatrix values="0 0 0 0 0.333333 0 0 0 0 0.333333 0 0 0 0 0.333333 0 0 0 0.18 0"/><feBlend in2="BackgroundImageFix" result="effect1_dropShadow"/><feBlend in="SourceGraphic" in2="effect1_dropShadow" result="shape"/></filter><filter id="filter1_d" x="214.348" y="106.459" width="31.4567" height="22.2057" filterUnits="userSpaceOnUse" color-interpolation-filters="sRGB"><feFlood flood-opacity="0" result="BackgroundImageFix"/><feColorMatrix in="SourceAlpha" values="0 0 0 0 0 0 0 0 0 0 0 0 0 0 0 0 0 0 127 0"/><feOffset dy="4"/><feColorMatrix values="0 0 0 0 0.333333 0 0 0 0 0.333333 0 0 0 0 0.333333 0 0 0 0.18 0"/><feBlend in2="BackgroundImageFix" result="effect1_dropShadow"/><feBlend in="SourceGraphic" in2="effect1_dropShadow" result="shape"/></filter><clipPath id="clip0"><path fill="#fff" transform="translate(0 24)" d="M0 0h377v146H0z"/></clipPath></defs>
</symbol>
</svg>