<svg width="377" height="193" viewBox="0 0 377 193" fill="none" xmlns="http://www.w3.org/2000/svg">
    <path d="M220.499 113.5c-2 6.333-3.5 18 2 25.5 4.877 6.65 12.333 5.167 14.5 4.5" stroke="#CCC" stroke-width="2"/>
    <ellipse cx="204.516" cy="179.92" rx="67" ry="6.5" fill="#EFEFEF"/>
    <path fill-rule="evenodd" clip-rule="evenodd" d="M245.66 135.148c2.342-.609 4.779-.963 6.846-.549 4.706.941 7.827 4.277 8.007 8.597.174 4.156-2.407 8.391-7.139 11.453-4.514 2.921-12.312 5.624-20.242 7.59-7.981 1.979-16.501 3.311-22.616 3.311v-5c5.551 0 13.634-1.235 21.412-3.164 7.831-1.942 14.949-4.488 18.729-6.935 3.768-2.438 4.938-5.203 4.861-7.047-.07-1.68-1.199-3.344-3.993-3.902-.933-.187-2.474-.07-4.607.485-2.064.537-4.418 1.411-6.841 2.467-4.843 2.112-9.735 4.85-12.742 6.719l-2.639-4.246c3.16-1.964 8.268-4.826 13.383-7.056 2.556-1.114 5.171-2.097 7.581-2.723Z" fill="#E2E2E2" stroke="#CCC" stroke-width="2"/>
    <path d="M244.805 139.39c.08.42.16.85.38 1.21s.63.65 1.05.6c.43-.04.77-.42.91-.83s.2-1.93-.24-2.82" stroke="#CCC" stroke-width="2" stroke-miterlimit="10" stroke-linecap="round"/>
    <path d="M243.164 139.84c-.07.28-.14.58-.1.87.05.29.24.58.53.64.3.06.59-.13.8-.36.47-.5.74-1.2.7-1.89-.04-.69-.39-1.36-.93-1.78" stroke="#CCC" stroke-width="2" stroke-miterlimit="10" stroke-linecap="round"/>
    <path d="M232.426 171.66c2.45.08 4.9-.32 7.19-1.3 5.64-2.42 9.8-7.86 15.77-9.29l-71.62 9.15c-5.97 1.43-10.13 6.87-15.77 9.29-2.18.93-4.92 2.22-7.25 2.19l71.68-10.04Z" fill="#E2E2E2" stroke="#CCC" stroke-width="2" stroke-miterlimit="10" stroke-linecap="round"/>
    <path d="M277.654 172.78c-.61-7.93-9.25-14.22-16.98-12.36-6.45 1.55-10.94 7.43-17.04 10.04-8.29 3.55-18.53.12-24.31-6.8-5.411-6.478-14.87-33.67 19.852-85.66l-3.677-10.17-70.955 5.16c-43.77 59.18-28.4 93.64-22.61 100.56 5.79 6.92 16.02 10.35 24.31 6.8 6.09-2.61 10.59-8.49 17.04-10.04 7.74-1.86 16.37 4.43 16.98 12.36l77.39-9.89Z" fill="#F5F5F5" stroke="#CCC" stroke-width="2" stroke-miterlimit="10" stroke-linecap="round"/>
    <path d="m232 80 2.692-12L239 78.91 232 80Z" fill="#CCC"/>
    <path d="M277.655 172.78c-.61-7.93-9.25-14.22-16.98-12.36l-77.39 9.89c7.74-1.86 16.37 4.43 16.98 12.36l77.39-9.89Z" fill="#fff" stroke="#CCC" stroke-width="2" stroke-miterlimit="10" stroke-linecap="round"/>
    <path fill-rule="evenodd" clip-rule="evenodd" d="M176.709 105.427c1.582-.059 2.995-.661 3.968-1.589.724.703.92 1.926.406 3.025-.626 1.341-2.071 1.99-3.227 1.45-1.009-.471-1.464-1.692-1.147-2.886Zm19.245-2.696c.251 1.398 1.255 2.601 2.665 3.312-.02.048-.041.096-.063.143-.627 1.341-2.072 1.99-3.228 1.45-1.155-.54-1.584-2.065-.958-3.406.343-.734.932-1.261 1.584-1.499Zm-8.063 16.241c-1.603-.805-3.693-.694-5.595.104h-.001c-2.766 1.157-4.981 3.617-5.842 6.496a1.499 1.499 0 1 1-2.874-.86c1.119-3.74 3.963-6.9 7.557-8.403 2.438-1.022 5.487-1.332 8.103-.017l.003.001c1.407.711 2.539 2.045 3.321 3.38.788 1.346 1.348 2.909 1.449 4.279a1.5 1.5 0 0 1-2.992.221c-.059-.8-.424-1.922-1.046-2.984-.628-1.072-1.39-1.867-2.083-2.217Z" fill="#AAA"/>
    <path fill-rule="evenodd" clip-rule="evenodd" d="M177.805 82.634a1.5 1.5 0 0 1-.359 2.09 13.54 13.54 0 0 1-7.97 2.476 1.5 1.5 0 0 1 .048-3 10.543 10.543 0 0 0 6.19-1.925 1.5 1.5 0 0 1 2.091.359Zm33.34-1.984a1.5 1.5 0 0 1 2.109.232c.728.907 2.064 1.333 3.179 1.011a1.5 1.5 0 0 1 .83 2.883c-2.282.658-4.867-.17-6.349-2.017a1.5 1.5 0 0 1 .231-2.108Z" fill="#CCC"/>
    <path d="M202.219 148.196c1.234 1.212.67 3.786-1.259 5.748-1.929 1.963-4.493 2.571-5.726 1.358-.702-.689-3.115-2.595-2.734-3.802.289-.916 3.16-1.1 3.993-1.946.998-1.016.941-4.328 2.007-4.554.994-.21 3.124 2.611 3.719 3.196Z" fill="#F5F5F5" stroke="#CCC" stroke-width="2"/>
    <ellipse cx="195.726" cy="148.749" rx="4.982" ry="3.132" transform="rotate(-45.493 195.726 148.749)" fill="#F5F5F5" stroke="#CCC" stroke-width="2"/>
    <path d="M166.113 148.28c.7.49 1.41.99 2.21 1.27s1.74.3 2.48-.13c.82-.48 1.24-1.43 1.53-2.33.31-.98.54-2.05.19-3.02" stroke="#CCC" stroke-width="2" stroke-miterlimit="10" stroke-linecap="round"/>
    <path fill-rule="evenodd" clip-rule="evenodd" d="M167.24 144.269c11.971-7.094 23.787-2.215 28.275 1.151 0 0 .751 1.13 0 2.5-.752 1.37-3 1.5-3 1.5-3.513-2.634-13.097-6.556-22.726-.849-5.628 3.335-11.075 8.234-16.938 13.506-.89.801-1.789 1.61-2.701 2.423-6.797 6.068-14.168 12.304-22.588 16.19-6.935 3.201-15.883 4.631-24.22 3.844-8.291-.784-16.463-3.819-21.306-10.085-3.184-4.121-2.79-10.902 2.293-15.719 5.087-4.82 14.547-7.534 29.556-5.283 10.143 1.522 17.439 3.373 21.63 4.945l1.5 5.528c-3.81-1.429-14.014-4.049-23.871-5.528-14.315-2.147-21.898.672-25.376 3.968-3.483 3.3-3.177 7.217-1.775 9.031 3.658 4.734 10.236 7.448 17.819 8.165 7.538.712 15.591-.607 21.655-3.406 7.669-3.54 14.548-9.305 21.354-15.38.882-.788 1.765-1.583 2.649-2.378 5.817-5.236 11.679-10.513 17.77-14.123Z" fill="#E2E2E2" stroke="#CCC" stroke-width="2"/>
    <path d="M168.766 146.52c.61.87 1.52 1.56 2.56 1.75 1.04.19 2.21-.17 2.84-1.02.63-.85.59-2.18-.19-2.9" stroke="#CCC" stroke-width="2" stroke-miterlimit="10" stroke-linecap="round"/>
    <ellipse cx="224.768" cy="147.729" rx="4.982" ry="4.873" transform="rotate(-30.552 224.768 147.729)" fill="#F5F5F5" stroke="#CCC" stroke-width="2"/>
    <ellipse cx="222.295" cy="148.86" rx="3.272" ry="4.873" transform="rotate(-30.552 222.295 148.86)" fill="#F5F5F5" stroke="#CCC" stroke-width="2"/>
    <path d="M217.609 151.194a1 1 0 0 1-1.174-1.619l1.174 1.619Zm3.978-2.884-3.978 2.884-1.174-1.619 3.978-2.885 1.174 1.62Zm-2.015 5.914a1 1 0 0 1-1.085-1.68l1.085 1.68Zm4.469-2.884-4.469 2.884-1.085-1.68 4.47-2.884 1.084 1.68Z" fill="#CCC"/>
    <circle cx="189" cy="43.346" r="3.654" fill="#E2E2E2"/>
    <path fill-rule="evenodd" clip-rule="evenodd" d="M189.001 33.846c-3.118 0-5.532 1.208-7.553 2.555a2.193 2.193 0 0 1-2.432-3.648c2.363-1.576 5.638-3.292 9.985-3.292 4.347 0 7.622 1.716 9.985 3.292a2.191 2.191 0 1 1-2.432 3.648c-2.021-1.348-4.435-2.555-7.553-2.555Zm-.002-10.23c-5.595 0-10.546 1.82-13.955 4.617a2.192 2.192 0 1 1-2.781-3.39c4.265-3.499 10.225-5.612 16.736-5.612 6.512 0 12.472 2.113 16.737 5.613a2.192 2.192 0 0 1-2.781 3.39c-3.409-2.798-8.361-4.618-13.956-4.618Z" fill="#E2E2E2"/>
    <path fill-rule="evenodd" clip-rule="evenodd" d="M189.3 13.385c-7.847 0-14.923 2.618-20.113 6.82a2.192 2.192 0 0 1-2.759-3.41C172.428 11.94 180.487 9 189.3 9c8.503 0 16.302 2.736 22.228 7.287a2.193 2.193 0 0 1-2.671 3.478c-5.135-3.944-11.987-6.38-19.557-6.38Z" fill="#E2E2E2"/>
    <path d="m196 46 13-13m-13 0 13 13" stroke="#FF6F3D" stroke-width="3" stroke-linecap="round"/>
    <path d="M136.999 127.5c-2 6.333-1.684 13.5 3.816 21 4.877 6.65 13.018 4.667 15.185 4" stroke="#CCC" stroke-width="2"/>
</svg>
