<svg xmlns="http://www.w3.org/2000/svg" width="149" height="28" fill="none" fill-rule="evenodd">
<path d="M39.363 8.588c-1.397 1.17-2.072 2.97-2.072 5.355s.676 4.185 2.072 5.4a7.05 7.05 0 0 0 4.82 1.8c1.802 0 3.424-.585 4.776-1.8 1.352-1.17 2.027-2.97 2.027-5.355 0-2.43-.676-4.185-2.027-5.4s-2.928-1.8-4.776-1.8-3.469.585-4.82 1.8zm1.802 8.955c-.586-.765-.901-1.935-.901-3.6 0-1.62.315-2.835.901-3.51.631-.765 1.306-1.26 2.027-1.44.18-.045.36-.09.495-.09.135-.045.27-.045.45-.045a1.69 1.69 0 0 1 .248.023c.079.011.158.022.248.022.135 0 .315.045.496.09.721.18 1.397.675 1.982 1.44s.901 1.935.901 3.555c0 1.575-.315 2.79-.901 3.555s-1.261 1.26-1.982 1.44l-.089.023c-.139.036-.257.067-.406.067-.18.045-.315.045-.496.045-.068 0-.146-.011-.225-.023h0 0l-.225-.023c-.149 0-.268-.031-.406-.067h0l-.089-.023c-.721-.18-1.397-.675-2.027-1.44zm15.002-10.62h-3.694v14.041h2.838v-8.28l-.045-2.475h.045l.721 1.575 4.866 9.18h3.694V6.923h-2.838v8.235l.045 2.52h-.045l-.721-1.935-4.866-8.82zm11.353 0h2.838v11.656h5.586v2.385h-8.425V6.923zm9.956 0h-3.289l5.181 8.28v5.76h2.838v-5.715l5.091-8.325H84.28l-2.928 4.905-.45.99h-.09l-.45-.99-2.883-4.905zm9.461 7.02c0-2.385.676-4.185 2.072-5.355 1.352-1.215 2.973-1.8 4.82-1.8s3.424.585 4.776 1.8 2.027 2.97 2.027 5.4c0 2.385-.675 4.185-2.027 5.355-1.352 1.215-2.974 1.8-4.776 1.8a7.05 7.05 0 0 1-4.82-1.8c-1.352-1.215-2.072-3.015-2.072-5.4zm2.973 0c0 1.665.315 2.835.901 3.6.631.765 1.261 1.26 2.027 1.44l.089.023c.139.036.257.067.406.067.068 0 .146.011.225.023l.225.023c.18 0 .315 0 .496-.045.149 0 .268-.031.406-.067l.089-.023c.721-.18 1.397-.675 1.982-1.44s.901-1.98.901-3.555c0-1.62-.315-2.79-.901-3.555s-1.261-1.26-1.982-1.44c-.18-.045-.36-.09-.496-.09-.09 0-.169-.011-.248-.022a1.69 1.69 0 0 0-.248-.023c-.18 0-.315 0-.451.045-.135 0-.315.045-.496.09-.721.18-1.397.675-2.027 1.44-.586.675-.901 1.89-.901 3.51zm20.544-7.02h-7.839v14.041h2.838v-5.895h4.775v-2.385h-4.775v-3.42h5.001v-2.34zm2.117 0h7.839v2.34h-5.001v3.42h4.776v2.385h-4.776v5.895h-2.838V6.923zm9.506 0v14.041h2.838V6.923h-2.838zm15.344.315v2.43a8.49 8.49 0 0 0-1.532-.405c-.54-.09-1.171-.135-1.802-.135-1.486 0-2.613.45-3.424 1.395-.81.9-1.216 2.07-1.216 3.465 0 1.35.36 2.475 1.126 3.375s1.847 1.395 3.244 1.395c.428 0 .857-.034 1.343-.072l.234-.018c.586-.09 1.171-.225 1.802-.495l.18 2.385c-.09.045-.225.09-.36.135l-.586.135c-.233.058-.503.098-.811.142h0l-.541.083-1.666.09h-.226-.225c-1.622-.09-3.108-.72-4.46-1.8-1.352-1.125-2.027-2.88-2.027-5.22 0-2.295.675-4.095 1.982-5.355s3.108-1.89 5.316-1.89l1.577.045c.429.039.824.112 1.244.189l.197.036c.046.022.102.034.158.045s.113.022.158.045c.057-.029.115-.021.184-.011a.92.92 0 0 0 .131.011zm10.677-.315h-8.424v14.041h8.424v-2.205h-5.541v-3.96h5.001v-2.16h-5.001v-3.51h5.541V6.923z" fill="#333"/><path d="M13.039 27.657L.783 21.89c-1.044-.504-1.044-1.282 0-1.739l4.267-2.014 7.944 3.753c1.044.503 2.723.503 3.722 0l7.944-3.753 4.267 2.014c1.044.503 1.044 1.281 0 1.739l-12.256 5.767c-.953.458-2.633.458-3.631 0z" fill="#ff6f3d"/><path d="M13.039 20.563L.783 14.796c-1.044-.504-1.044-1.282 0-1.739l4.176-1.968 8.08 3.799c1.044.503 2.724.503 3.722 0l8.08-3.799 4.176 1.968c1.044.503 1.044 1.282 0 1.739l-12.256 5.767c-1.044.503-2.723.503-3.722 0z" fill="#95c038"/><path d="M13.039 13.651L.783 7.884c-1.044-.503-1.044-1.282 0-1.739L13.039.378c1.044-.503 2.723-.503 3.722 0l12.256 5.767c1.044.503 1.044 1.282 0 1.739l-12.256 5.767c-1.044.458-2.723.458-3.722 0z" fill="#5dc0e8"/>
</svg>