<svg width="149" height="28" viewBox="0 0 149 28" fill="none" xmlns="http://www.w3.org/2000/svg">
<path fill-rule="evenodd" clip-rule="evenodd" d="M39.3633 8.58806C37.9667 9.75812 37.2909 11.5582 37.2909 13.9434C37.2909 16.3285 37.9667 18.1286 39.3633 19.3436C40.7599 20.5587 42.3367 21.1437 44.1838 21.1437C45.9859 21.1437 47.6077 20.5587 48.9593 19.3436C50.3108 18.1736 50.9866 16.3735 50.9866 13.9884C50.9866 11.5582 50.3108 9.80313 48.9593 8.58806C47.6077 7.373 46.0309 6.78796 44.1838 6.78796C42.3367 6.78796 40.7148 7.373 39.3633 8.58806ZM41.1653 17.5435C40.5797 16.7785 40.2643 15.6084 40.2643 13.9434C40.2643 12.3233 40.5797 11.1082 41.1653 10.4332C41.7961 9.66812 42.4718 9.17309 43.1927 8.99308C43.3729 8.94808 43.5531 8.90308 43.6882 8.90308C43.8234 8.85808 43.9585 8.85808 44.1387 8.85808C44.2288 8.85808 44.3077 8.86933 44.3865 8.88058C44.4654 8.89183 44.5442 8.90308 44.6343 8.90308C44.7695 8.90308 44.9497 8.94808 45.1299 8.99308C45.8507 9.17309 46.5265 9.66812 47.1121 10.4332C47.6978 11.1982 48.0132 12.3683 48.0132 13.9884C48.0132 15.5634 47.6978 16.7785 47.1121 17.5435C46.5265 18.3086 45.8507 18.8036 45.1299 18.9836C45.099 18.9913 45.0694 18.9991 45.0407 19.0066C44.902 19.0427 44.7836 19.0736 44.6343 19.0736C44.4541 19.1186 44.3189 19.1186 44.1387 19.1186C44.0712 19.1186 43.9923 19.1074 43.9135 19.0961L43.9135 19.0961L43.9135 19.0961C43.8346 19.0849 43.7558 19.0736 43.6882 19.0736C43.5389 19.0736 43.4206 19.0427 43.2819 19.0066L43.2818 19.0065C43.2531 18.999 43.2235 18.9913 43.1927 18.9836C42.4718 18.8036 41.7961 18.3086 41.1653 17.5435ZM56.1675 6.92301H52.4733V20.9638H55.3116V12.6833L55.2665 10.2082H55.3116L56.0324 11.7833L60.898 20.9638H64.5922V6.92301H61.7539V15.1585L61.799 17.6786H61.7539L61.0331 15.7435L56.1675 6.92301ZM67.5205 6.92301H70.3587V18.5786H75.9451V20.9638H67.5205V6.92301ZM77.4769 6.92301H74.1881L79.3691 15.2035V20.9638H82.2073V15.2485L87.2982 6.92301H84.2797L81.3513 11.8283L80.9008 12.8183H80.8107L80.3602 11.8283L77.4769 6.92301ZM86.9378 13.9434C86.9378 11.5582 87.6136 9.75812 89.0102 8.58806C90.3617 7.373 91.9836 6.78796 93.8307 6.78796C95.6778 6.78796 97.2546 7.373 98.6062 8.58806C99.9577 9.80313 100.633 11.5582 100.633 13.9884C100.633 16.3735 99.9577 18.1736 98.6062 19.3436C97.2546 20.5587 95.6327 21.1437 93.8307 21.1437C91.9836 21.1437 90.4068 20.5587 89.0102 19.3436C87.6586 18.1286 86.9378 16.3285 86.9378 13.9434ZM89.9112 13.9434C89.9112 15.6084 90.2266 16.7785 90.8122 17.5435C91.4429 18.3086 92.0737 18.8036 92.8395 18.9836C92.8705 18.9913 92.9 18.9991 92.9288 19.0066C93.0674 19.0427 93.1858 19.0736 93.3351 19.0736C93.4027 19.0736 93.4815 19.0849 93.5604 19.0961C93.6392 19.1074 93.7181 19.1186 93.7856 19.1186C93.9658 19.1186 94.101 19.1186 94.2812 19.0736C94.4305 19.0736 94.5489 19.0427 94.6875 19.0066C94.7163 18.9991 94.7459 18.9913 94.7768 18.9836C95.4976 18.8036 96.1734 18.3086 96.759 17.5435C97.3447 16.7785 97.6601 15.5634 97.6601 13.9884C97.6601 12.3683 97.3447 11.1982 96.759 10.4332C96.1734 9.66812 95.4976 9.17309 94.7768 8.99308C94.5966 8.94808 94.4164 8.90308 94.2812 8.90308C94.1911 8.90308 94.1123 8.89183 94.0334 8.88058C93.9546 8.86933 93.8757 8.85808 93.7856 8.85808C93.6054 8.85808 93.4703 8.85808 93.3351 8.90308C93.2 8.90308 93.0198 8.94808 92.8395 8.99308C92.1187 9.17309 91.4429 9.66812 90.8122 10.4332C90.2266 11.1082 89.9112 12.3233 89.9112 13.9434ZM110.455 6.92301H102.616V20.9638H105.454V15.0685H110.229V12.6833H105.454V9.26314H110.455V6.92301ZM112.572 6.92301H120.411V9.26314H115.41V12.6833H120.186V15.0685H115.41V20.9638H112.572V6.92301ZM122.078 6.92301V20.9638H124.916V6.92301H122.078ZM137.422 7.23791V9.66805C136.927 9.48804 136.431 9.35303 135.89 9.26302C135.35 9.17302 134.719 9.12802 134.088 9.12802C132.602 9.12802 131.475 9.57804 130.664 10.5231C129.854 11.4231 129.448 12.5932 129.448 13.9883C129.448 15.3384 129.808 16.4634 130.574 17.3635C131.34 18.2635 132.421 18.7585 133.818 18.7585C134.246 18.7585 134.675 18.7249 135.161 18.6868L135.395 18.6685C135.981 18.5785 136.566 18.4435 137.197 18.1735L137.377 20.5586C137.287 20.6036 137.152 20.6486 137.017 20.6936C136.837 20.7386 136.656 20.7836 136.431 20.8286C136.198 20.8868 135.928 20.9261 135.62 20.9709L135.62 20.971C135.451 20.9955 135.271 21.0218 135.079 21.0537C134.539 21.0987 133.998 21.1437 133.413 21.1437H133.187H132.962C131.34 21.0537 129.854 20.4236 128.502 19.3436C127.15 18.2185 126.475 16.4634 126.475 14.1233C126.475 11.8282 127.15 10.0281 128.457 8.768C129.763 7.50793 131.565 6.87789 133.773 6.87789C134.359 6.87789 134.899 6.87789 135.35 6.9229C135.779 6.96185 136.174 7.0345 136.594 7.11169L136.791 7.14791C136.837 7.17041 136.893 7.18166 136.949 7.19291C137.005 7.20416 137.062 7.21541 137.107 7.23791C137.164 7.20923 137.222 7.21711 137.291 7.2266C137.33 7.232 137.373 7.23791 137.422 7.23791ZM148.099 6.92301H139.675V20.9638H148.099V18.7587H142.558V14.7984H147.559V12.6383H142.558V9.12813H148.099V6.92301Z" fill="#333333"/>
<path fill-rule="evenodd" clip-rule="evenodd" d="M13.0391 27.6566L0.783403 21.8897C-0.260605 21.3862 -0.260605 20.6081 0.783403 20.1505L5.05022 18.1366L12.9938 21.8897C14.0378 22.3932 15.7173 22.3932 16.7159 21.8897L24.6594 18.1366L28.9262 20.1505C29.9702 20.6539 29.9702 21.432 28.9262 21.8897L16.6705 27.6566C15.7173 28.1143 14.0378 28.1143 13.0391 27.6566Z" fill="#FF6F3D"/>
<path fill-rule="evenodd" clip-rule="evenodd" d="M13.0391 20.5625L0.783402 14.7956C-0.260605 14.2921 -0.260605 13.514 0.783402 13.0563L4.95943 11.0883L13.0391 14.8871C14.0831 15.3906 15.7626 15.3906 16.7613 14.8871L24.841 11.0883L29.017 13.0563C30.061 13.5598 30.061 14.3379 29.017 14.7956L16.7613 20.5625C15.7172 21.066 14.0378 21.066 13.0391 20.5625Z" fill="#95C038"/>
<path fill-rule="evenodd" clip-rule="evenodd" d="M13.0388 13.6507L0.783006 7.88378C-0.261002 7.38032 -0.261002 6.60224 0.783006 6.14454L13.0388 0.377598C14.0828 -0.125866 15.7623 -0.125866 16.7609 0.377598L29.0166 6.14454C30.0606 6.64801 30.0606 7.42609 29.0166 7.88378L16.7609 13.6507C15.7169 14.1084 14.0374 14.1084 13.0388 13.6507Z" fill="#5DC0E8"/>
</svg>
