<svg xmlns="http://www.w3.org/2000/svg" width="196" height="36" fill="none" fill-rule="evenodd" xmlns:v="https://vecta.io/nano"><path d="M51.78 11.042c-1.837 1.504-2.726 3.819-2.726 6.885s.889 5.381 2.726 6.943 3.911 2.314 6.341 2.314c2.371 0 4.504-.752 6.282-2.314 1.778-1.504 2.667-3.819 2.667-6.885 0-3.124-.889-5.381-2.667-6.943s-3.852-2.314-6.282-2.314-4.563.752-6.341 2.314zm2.371 11.514c-.77-.984-1.185-2.488-1.185-4.629 0-2.083.415-3.645 1.185-4.513.83-.984 1.719-1.62 2.667-1.851h0c.237-.058.474-.116.652-.116.178-.058.356-.058.593-.058.118 0 .222.014.326.029s.207.029.326.029c.178 0 .415.058.652.116.948.231 1.837.868 2.608 1.851s1.185 2.488 1.185 4.571c0 2.025-.415 3.587-1.185 4.571s-1.659 1.62-2.608 1.852l-.117.029c-.182.047-.338.086-.535.086a2.49 2.49 0 0 1-.652.058c-.089 0-.193-.014-.296-.029l-.296-.029c-.196 0-.352-.04-.534-.086l-.117-.03c-.948-.232-1.837-.868-2.667-1.852zM73.885 8.901h-4.859v18.052h3.734V16.307l-.059-3.182h.059l.948 2.025 6.4 11.803h4.859V8.901h-3.733v10.588l.059 3.24h-.059l-.948-2.488-6.4-11.341zm14.934 0h3.734v14.986h7.348v3.067H88.819V8.901zm13.097 0H97.59l6.815 10.646v7.406h3.733v-7.348l6.697-10.704h-3.97l-3.853 6.307-.592 1.273h-.119l-.592-1.273-3.793-6.307zm12.445 9.026c0-3.067.889-5.381 2.726-6.885 1.778-1.562 3.911-2.314 6.341-2.314s4.504.752 6.282 2.314 2.667 3.819 2.667 6.943c0 3.067-.889 5.381-2.667 6.885-1.778 1.562-3.911 2.314-6.282 2.314-2.43 0-4.504-.752-6.341-2.314-1.778-1.562-2.726-3.877-2.726-6.943zm3.911 0c0 2.141.415 3.645 1.186 4.629.829.984 1.659 1.62 2.666 1.852l.116.029h.001.001 0c.182.046.338.086.534.086.089 0 .193.015.297.029l.296.029c.237 0 .415 0 .652-.058.196 0 .352-.04.534-.086l.118-.03c.948-.232 1.837-.868 2.607-1.852s1.186-2.546 1.186-4.571c0-2.083-.415-3.587-1.186-4.571s-1.659-1.62-2.607-1.851c-.237-.058-.474-.116-.652-.116-.119 0-.222-.014-.326-.029l-.326-.029c-.237 0-.415 0-.593.058-.177 0-.414.058-.652.116-.948.231-1.837.868-2.666 1.851-.771.868-1.186 2.43-1.186 4.513zm27.024-9.026h-10.312v18.052h3.734v-7.58H145v-3.067h-6.282V11.91h6.578V8.901zm2.785 0h10.312v3.009h-6.578v4.397h6.282v3.067h-6.282v7.58h-3.734V8.901zm12.505 0v18.052h3.733V8.901h-3.733zm20.184.405v3.124a11.41 11.41 0 0 0-2.015-.521c-.711-.116-1.541-.174-2.37-.174-1.956 0-3.438.579-4.504 1.794-1.067 1.157-1.6 2.662-1.6 4.455 0 1.736.474 3.182 1.481 4.34s2.43 1.794 4.267 1.794c.563 0 1.127-.043 1.767-.092h0l.307-.023c.771-.116 1.541-.289 2.371-.636l.237 3.067c-.119.058-.297.116-.474.174l-.771.173c-.306.075-.662.125-1.067.183l-.711.106-2.192.116h-.297-.296c-2.133-.116-4.089-.926-5.867-2.314-1.778-1.447-2.667-3.703-2.667-6.712 0-2.951.889-5.265 2.608-6.885s4.089-2.43 6.993-2.43l2.074.058c.564.05 1.084.143 1.636.243h0l.26.047c.06.029.134.043.208.058a.86.86 0 0 1 .207.058c.076-.037.151-.027.242-.015l.173.015zm14.045-.405h-11.082v18.052h11.082v-2.835h-7.289v-5.092h6.578v-2.777h-6.578v-4.513h7.289V8.901z" fill="#333"/><path d="M17.152 35.559L1.031 28.144c-1.373-.647-1.373-1.648 0-2.236l5.613-2.589 10.449 4.825c1.373.647 3.583.647 4.896 0l10.449-4.825 5.613 2.589c1.373.647 1.373 1.648 0 2.236l-16.122 7.415c-1.254.588-3.463.588-4.777 0z" fill="#ff6f3d"/><path d="M17.152 26.438L1.031 19.023c-1.373-.647-1.373-1.648 0-2.236l5.493-2.53 10.628 4.884c1.373.647 3.583.647 4.896 0l10.628-4.884 5.493 2.53c1.373.647 1.373 1.648 0 2.236l-16.122 7.415c-1.373.647-3.583.647-4.896 0z" fill="#95c038"/><path d="M17.152 17.551L1.03 10.136c-1.373-.647-1.373-1.648 0-2.236L17.152.485c1.373-.647 3.582-.647 4.896 0L38.17 7.9c1.373.647 1.373 1.648 0 2.236l-16.122 7.415c-1.373.588-3.583.588-4.896 0z" fill="#5dc0e8"/></svg>