<svg width="325" height="60" viewBox="0 0 325 60" fill="none" xmlns="http://www.w3.org/2000/svg">
<g clip-path="url(#clip0)">
<path d="M76.8999 29.6994C76.8999 24.4327 78.3999 20.4327 81.3999 17.6994C84.3675 15.1311 88.1756 13.7431 92.0999 13.7994C95.9963 13.7297 99.7777 15.121 102.7 17.6994C105.8 20.3994 107.3 24.3994 107.3 29.6994C107.3 34.9994 105.8 38.9994 102.7 41.5994C99.8141 44.2489 96.0167 45.6819 92.0999 45.5994C88.1558 45.6668 84.3326 44.2376 81.3999 41.5994C78.3999 38.9994 76.8999 34.9994 76.8999 29.6994V29.6994ZM83.4999 29.6994C83.4999 33.2994 84.1999 35.9994 85.4999 37.6994C86.6177 39.2212 88.1954 40.3431 89.9999 40.8994L91.0999 41.0994H93.1999L94.2999 40.8994C96.0918 40.3174 97.6395 39.1566 98.6999 37.5994C99.9999 35.8994 100.7 33.2994 100.7 29.6994C100.7 26.0994 99.9999 23.4994 98.6999 21.6994C97.6081 20.1947 96.0678 19.0745 94.2999 18.4994L93.1999 18.2994H91.0999L89.9999 18.4994C88.1954 19.0556 86.6177 20.1775 85.4999 21.6994C84.1999 23.3994 83.4999 26.0994 83.4999 29.6994V29.6994ZM110.6 14.0994H118.8L129.6 33.6994L131.2 37.8994H131.3L131.2 32.3994V14.0994H137.5V45.1994H129.3L118.5 24.7994L116.9 21.3994H116.8L116.9 26.8994V45.1994H110.6V14.0994V14.0994ZM144 14.0994H150.3V39.9994H162.7V45.1994H144V14.0994ZM158.8 14.0994H166.1L172.5 24.9994L173.5 27.1994H173.7L174.7 24.9994L181.2 14.0994H187.9L176.6 32.5994V45.1994H170.3V32.4994L158.8 14.0994V14.0994Z" fill="white"/>
<path d="M187.1 29.6998C187.1 24.3998 188.7 20.3998 191.7 17.6998C194.678 15.1832 198.451 13.8025 202.35 13.8025C206.249 13.8025 210.022 15.1832 213 17.6998C216 20.3998 217.6 24.3998 217.6 29.6998C217.6 34.9998 216 38.9998 213 41.5998C210.049 44.1741 206.266 45.5925 202.35 45.5925C198.434 45.5925 194.651 44.1741 191.7 41.5998C188.7 38.9998 187.1 34.9998 187.1 29.6998V29.6998ZM193.7 29.6998C193.7 33.2998 194.4 35.9998 195.8 37.6998C196.86 39.2361 198.412 40.365 200.2 40.8998L201.3 41.0998H203.4L204.6 40.8998C206.378 40.2919 207.919 39.1368 209 37.5998C210.3 35.8998 211 33.2998 211 29.6998C211 26.0998 210.3 23.4998 209 21.6998C207.89 20.2139 206.356 19.0985 204.6 18.4998L203.4 18.2998H201.3L200.2 18.4998C198.412 19.0347 196.86 20.1635 195.8 21.6998C194.4 23.3998 193.7 26.0998 193.7 29.6998V29.6998ZM221.9 14.0998H239.3V19.2998H228.2V26.8998H238.8V32.0998H228.2V45.1998H221.9V14.0998ZM244 14.0998H261.4V19.2998H250.3V26.8998H260.9V32.0998H250.3V45.1998H244V14.0998ZM265.1 45.1998V14.0998H271.4V45.1998H265.1ZM301 14.7998V20.1998C299.863 19.7948 298.692 19.4936 297.5 19.2998C296.211 19.093 294.906 18.9926 293.6 18.9998C290.3 18.9998 287.8 19.9998 286 22.0998C284.191 24.2455 283.262 26.9967 283.4 29.7998C283.285 32.5219 284.175 35.1913 285.9 37.2998C287.5 39.3998 289.9 40.3998 293.1 40.3998L296.6 40.0998C297.985 39.9549 299.336 39.5832 300.6 38.9998L301 44.2998L300.1 44.4998C299.693 44.7064 299.253 44.8417 298.8 44.8998L295.8 45.3998L292.1 45.5998H291.1C287.449 45.3153 283.983 43.8798 281.2 41.4998C278.2 38.9998 276.7 35.1998 276.7 29.8998C276.7 24.5998 278.2 20.7998 281.1 17.9998C284 15.1998 288 13.7998 292.9 13.7998H296.4L299.6 14.2998L300.3 14.4998L301 14.6998V14.7998ZM306 14.0998H324.7V18.9998H312.4V26.7998H323.5V31.5998H312.4V40.2998H324.7V45.1998H306V14.0998Z" fill="white"/>
<path fill-rule="evenodd" clip-rule="evenodd" d="M28.7001 59.1994L1.7001 46.5994C-0.599902 45.5994 -0.599902 43.7994 1.7001 42.7994L11.1001 38.3994L28.7001 46.5994C31.3423 47.5977 34.2579 47.5977 36.9001 46.5994L54.4001 38.3994L63.9001 42.7994C66.1001 43.7994 66.1001 45.5994 63.9001 46.5994L36.9001 59.1994C35.6018 59.744 34.208 60.0244 32.8001 60.0244C31.3922 60.0244 29.9984 59.744 28.7001 59.1994V59.1994Z" fill="white" fill-opacity="0.5"/>
<path fill-rule="evenodd" clip-rule="evenodd" d="M28.7001 44.2L1.7001 31.6C-0.599902 30.6 -0.599902 28.8 1.7001 27.8L10.9001 23.5L28.7001 31.8C29.9984 32.3446 31.3922 32.625 32.8001 32.625C34.208 32.625 35.6018 32.3446 36.9001 31.8L54.7001 23.5L63.9001 27.8C66.1001 28.8 66.1001 30.6 63.9001 31.6L36.9001 44.2C35.6018 44.7446 34.208 45.025 32.8001 45.025C31.3922 45.025 29.9984 44.7446 28.7001 44.2V44.2Z" fill="white" fill-opacity="0.75"/>
<path fill-rule="evenodd" clip-rule="evenodd" d="M28.7001 29.7996L1.7001 17.1996C-0.599902 16.1996 -0.599902 14.3996 1.7001 13.3996L28.7001 0.799641C29.9984 0.255078 31.3922 -0.0253906 32.8001 -0.0253906C34.208 -0.0253906 35.6018 0.255078 36.9001 0.799641L63.9001 13.3996C66.1001 14.3996 66.1001 16.1996 63.9001 17.1996L36.9001 29.7996C34.2579 30.798 31.3423 30.798 28.7001 29.7996V29.7996Z" fill="white"/>
</g>
<defs>
<clipPath id="clip0">
<rect width="324.7" height="60" fill="white"/>
</clipPath>
</defs>
</svg>
