<svg xmlns="http://www.w3.org/2000/svg" width="36" height="37" fill="none" fill-rule="evenodd" xmlns:v="https://vecta.io/nano"><path d="M16.501 29.648l-9.87-4.54c-.841-.396-.841-1.009 0-1.369l3.436-1.585 6.398 2.954c.841.396 2.193.396 2.998 0l6.398-2.954 3.436 1.585c.841.396.841 1.009 0 1.369l-9.87 4.54c-.768.36-2.12.36-2.924 0z" fill="#ff6f3d"/><path d="M16.501 24.064l-9.87-4.54c-.841-.396-.841-1.009 0-1.369l3.363-1.549 6.507 2.99c.841.396 2.193.396 2.998 0l6.507-2.99 3.363 1.549c.841.396.841 1.009 0 1.369l-9.87 4.54c-.841.396-2.193.396-2.998 0z" fill="#95c038"/><path d="M16.501 18.623l-9.87-4.54c-.841-.396-.841-1.009 0-1.369l9.87-4.54c.841-.396 2.193-.396 2.998 0l9.87 4.54c.841.396.841 1.009 0 1.369l-9.87 4.54c-.841.36-2.193.36-2.998 0z" fill="#5dc0e8"/></svg>