<svg width="36" height="36" viewBox="0 0 36 36" fill="none" xmlns="http://www.w3.org/2000/svg">
<path fill-rule="evenodd" clip-rule="evenodd" d="M16.37 29.8311L5.67062 24.943C4.77646 24.5315 4.77646 23.8625 5.67062 23.4511L9.42928 21.7266L16.3691 24.8913C17.4162 25.3031 18.5819 25.3031 19.6291 24.8913L26.5689 21.7266L30.3284 23.4538C31.2226 23.8653 31.2226 24.5342 30.3284 24.9457L19.6291 29.8357C18.5816 30.2458 17.4163 30.2441 16.37 29.8311Z" fill="white" fill-opacity="0.5"/>
<path fill-rule="evenodd" clip-rule="evenodd" d="M16.37 23.6798L5.67062 18.7916C4.77646 18.3801 4.77646 17.7112 5.67062 17.2997L9.29836 15.627L16.37 18.8433C17.4172 19.2551 18.5828 19.2551 19.63 18.8433L26.7016 15.627L30.3294 17.2997C31.2235 17.7112 31.2235 18.3801 30.3294 18.7916L19.63 23.6816C18.5826 24.0928 17.4169 24.0921 16.37 23.6798Z" fill="white" fill-opacity="0.75"/>
<path fill-rule="evenodd" clip-rule="evenodd" d="M16.37 17.577L5.67062 12.6889C4.77646 12.2774 4.77646 11.6085 5.67062 11.197L16.37 6.30882C17.4172 5.89706 18.5828 5.89706 19.63 6.30882L30.3294 11.1988C31.2235 11.6103 31.2235 12.2792 30.3294 12.6907L19.63 17.5807C18.5824 17.9913 17.4167 17.99 16.37 17.577Z" fill="white"/>
</svg>
