<svg width="36" height="36" fill="none" xmlns="http://www.w3.org/2000/svg">
  <g>
    <path fill-rule="evenodd" clip-rule="evenodd" d="M16.37 29.8306L5.67062 24.9425C4.77646 24.531 4.77646 23.862 5.67062 23.4506L9.42928 21.7261L16.3691 24.8908C17.4162 25.3026 18.5819 25.3026 19.6291 24.8908L26.5689 21.7261L30.3284 23.4533C31.2226 23.8648 31.2226 24.5337 30.3284 24.9452L19.6291 29.8352C18.5816 30.2453 17.4163 30.2436 16.37 29.8306V29.8306Z" fill="#E36539"/>
    <path fill-rule="evenodd" clip-rule="evenodd" d="M16.37 23.6794L5.67062 18.7912C4.77646 18.3797 4.77646 17.7108 5.67062 17.2993L9.29836 15.6266L16.37 18.8429C17.4172 19.2547 18.5828 19.2547 19.63 18.8429L26.7016 15.6266L30.3294 17.2993C31.2235 17.7108 31.2235 18.3797 30.3294 18.7912L19.63 23.6812C18.5826 24.0924 17.4169 24.0917 16.37 23.6794V23.6794Z" fill="#8BB725"/>
    <path fill-rule="evenodd" clip-rule="evenodd" d="M16.37 17.577L5.67062 12.6889C4.77646 12.2774 4.77646 11.6085 5.67062 11.197L16.37 6.30882C17.4172 5.89706 18.5828 5.89706 19.63 6.30882L30.3294 11.1988C31.2235 11.6103 31.2235 12.2792 30.3294 12.6907L19.63 17.5807C18.5824 17.9913 17.4167 17.99 16.37 17.577V17.577Z" fill="#60C2E8"/>
  </g>
</svg>
