<svg width="134" height="95" viewBox="0 0 134 95" fill="none" xmlns="http://www.w3.org/2000/svg">
<path d="M67.033 10C55.228 10 45.222 18.003 42.12 28.847C39.425 23.095 33.585 19.066 26.857 19.066C17.605 19.066 10 26.67 10 35.923C10 45.175 17.605 52.783 26.857 52.783C33.585 52.783 39.425 48.751 42.12 42.999C45.222 53.843 55.228 61.849 67.033 61.849C78.751 61.849 88.706 53.964 91.886 43.242C94.631 48.864 100.4 52.783 107.031 52.783C116.283 52.783 123.892 45.175 123.892 35.923C123.892 26.671 116.283 19.066 107.032 19.066C100.4 19.066 94.632 22.983 91.886 28.604C88.706 17.882 78.751 10 67.033 10ZM67.033 19.895C75.944 19.895 83.063 27.011 83.063 35.923C83.063 44.834 75.944 51.953 67.033 51.953C64.9253 51.9627 62.8367 51.5546 60.8876 50.7524C58.9386 49.9502 57.1678 48.7698 55.6776 47.2793C54.1874 45.7888 53.0073 44.0178 52.2054 42.0686C51.4036 40.1194 50.9959 38.0307 51.006 35.923C50.9958 33.8154 51.4034 31.7267 52.2052 29.7775C53.007 27.8284 54.1871 26.0575 55.6774 24.5671C57.1677 23.0768 58.9385 21.8965 60.8876 21.0946C62.8367 20.2926 64.9254 19.8849 67.033 19.895V19.895ZM26.857 28.961C30.761 28.961 33.822 32.018 33.822 35.923C33.822 39.827 30.762 42.888 26.857 42.888C22.953 42.888 19.896 39.828 19.896 35.923C19.896 32.018 22.953 28.961 26.857 28.961V28.961ZM107.031 28.961C110.936 28.961 113.997 32.018 113.997 35.923C113.997 39.827 110.936 42.888 107.031 42.888C103.127 42.888 100.07 39.828 100.07 35.923C100.07 32.018 103.127 28.961 107.031 28.961V28.961Z" fill="white"/>
<path d="M39.1082 73.7609C41.8842 73.7609 43.4362 75.7369 43.4362 78.7009C43.4349 78.8377 43.38 78.9684 43.2833 79.0651C43.1866 79.1618 43.0559 79.2166 42.9192 79.2179H35.4392C35.4862 81.8519 37.3212 83.3579 39.4382 83.3579C40.4276 83.3611 41.3891 83.0295 42.1662 82.4169C42.4482 82.2279 42.6832 82.2749 42.8242 82.5569L42.9662 82.7929C43.1062 83.0279 43.0602 83.2629 42.8242 83.4509C41.8284 84.1818 40.6263 84.5775 39.3912 84.5809C36.3332 84.5809 33.9812 82.3689 33.9812 79.1709C34.0282 75.7839 36.2862 73.7609 39.1082 73.7609ZM41.9782 78.1829C41.8842 76.0189 40.5672 74.9369 39.0612 74.9369C37.3212 74.9369 35.8162 76.0669 35.4862 78.1829H41.9782V78.1829ZM57.5622 75.2669V71.6449C57.5622 71.3149 57.7502 71.1269 58.0792 71.1269H58.4562C58.7852 71.1269 58.9262 71.3149 58.9262 71.6449V74.091H61.0432C61.3722 74.091 61.5602 74.2789 61.5602 74.6079V74.7489C61.5602 75.0789 61.3722 75.2189 61.0432 75.2189H58.9262V80.3939C58.9262 82.7929 60.3842 83.0749 61.1842 83.1219C61.6072 83.1689 61.7482 83.2629 61.7482 83.6399V83.9219C61.7482 84.2509 61.6082 84.3919 61.1842 84.3919C58.9262 84.3919 57.5622 83.0279 57.5622 80.5819V75.2669V75.2669ZM68.3342 73.7609C70.1212 73.7609 71.2502 74.5139 71.7672 74.9369C72.0032 75.1259 72.0502 75.3609 71.8142 75.6429L71.6742 75.8779C71.4852 76.1599 71.2502 76.1599 70.9682 75.9719C70.4982 75.6429 69.6042 75.0319 68.3812 75.0319C66.1232 75.0319 64.3352 76.7249 64.3352 79.2179C64.3352 81.6639 66.1232 83.3579 68.3812 83.3579C69.8392 83.3579 70.8272 82.6979 71.2972 82.2749C71.5792 82.0869 71.7672 82.1349 71.9562 82.4169L72.0962 82.6049C72.2382 82.8869 72.1912 83.0749 71.9562 83.3099C70.922 84.1602 69.625 84.6256 68.2862 84.6269C65.2292 84.6269 62.8772 82.4169 62.8772 79.2169C62.9242 76.0189 65.2772 73.7609 68.3342 73.7609V73.7609ZM74.5902 70.4219C74.5902 70.0919 74.4022 69.9039 74.7302 69.9039H75.1072C75.4372 69.9039 75.9542 70.0919 75.9542 70.4219V81.6639C75.9542 82.9809 76.5652 83.1219 77.0362 83.1689C77.2712 83.1689 77.4592 83.3099 77.4592 83.6389V83.9689C77.4592 84.2989 77.3182 84.4859 76.9422 84.4859C76.0952 84.4859 74.5902 84.2039 74.5902 81.9459V70.4219V70.4219ZM84.2332 73.7609C87.2432 73.7609 89.6892 76.0659 89.6892 79.1239C89.6892 82.2279 87.2432 84.5799 84.2332 84.5799C81.2232 84.5799 78.7762 82.2279 78.7762 79.1239C78.7762 76.0659 81.2222 73.7609 84.2332 73.7609ZM84.2332 83.3569C86.4432 83.3569 88.2312 81.5699 88.2312 79.1239C88.2312 76.7719 86.4432 75.0309 84.2332 75.0309C82.0222 75.0309 80.1872 76.8189 80.1872 79.1239C80.2342 81.5229 82.0222 83.3569 84.2332 83.3569ZM107.705 73.7609C110.198 73.7609 111.092 75.8309 111.092 75.8309H111.139C111.139 75.8309 111.092 75.5009 111.092 75.0309V70.3749C111.092 70.0449 110.951 69.8569 111.28 69.8569H111.656C111.986 69.8569 112.503 70.0449 112.503 70.3749V83.7799C112.503 84.1089 112.362 84.2969 112.033 84.2969H111.703C111.373 84.2969 111.186 84.156 111.186 83.827V83.0269C111.186 82.6509 111.28 82.3679 111.28 82.3679H111.233C111.233 82.3679 110.339 84.5319 107.658 84.5319C104.883 84.5319 103.142 82.3219 103.142 79.1219C103.048 75.9239 104.977 73.7599 107.705 73.7599V73.7609ZM107.752 83.3569C109.492 83.3569 111.092 82.1339 111.092 79.1709C111.092 77.0539 110.01 75.0309 107.799 75.0309C105.964 75.0309 104.459 76.5369 104.459 79.1709C104.506 81.7109 105.823 83.3569 107.752 83.3569ZM21.8602 84.3449H22.2362C22.5662 84.3449 22.7532 84.1569 22.7532 83.8279V73.7279C22.7532 72.1279 24.4932 70.9859 26.4692 70.9859C28.4452 70.9859 30.1852 72.1279 30.1852 73.7269V83.827C30.1852 84.157 30.3742 84.3449 30.7032 84.3449H31.0792C31.4092 84.3449 31.5492 84.1569 31.5492 83.8279V73.6679C31.5492 70.9859 28.8692 69.6689 26.4222 69.6689C24.0702 69.6689 21.3892 70.9859 21.3892 73.6669V83.827C21.3892 84.157 21.5302 84.3449 21.8592 84.3449H21.8602ZM100.367 73.9969H99.9912C99.6612 73.9969 99.4732 74.1849 99.4732 74.5139V80.2059C99.4732 81.8049 98.4382 83.2629 96.4162 83.2629C94.4402 83.2629 93.3582 81.8049 93.3582 80.2059V74.5139C93.3582 74.1839 93.1702 73.9969 92.8412 73.9969H92.4642C92.1352 73.9969 91.9942 74.1849 91.9942 74.5139V80.5819C91.9942 83.2629 93.9702 84.5799 96.4162 84.5799C98.8622 84.5799 100.837 83.2629 100.837 80.5819V74.5139C100.884 74.1839 100.697 73.9969 100.367 73.9969V73.9969ZM53.8032 73.9199C53.6872 73.9379 53.5772 74.0149 53.4712 74.1399L51.5672 76.41L50.1422 78.1079L47.9852 75.5359L46.8152 74.1409C46.7735 74.085 46.7211 74.0379 46.661 74.0025C46.6009 73.9671 46.5343 73.9442 46.4652 73.9349C46.3955 73.9321 46.3261 73.9431 46.2608 73.9675C46.1955 73.9919 46.1358 74.0291 46.0852 74.077L45.7972 74.3189C45.5452 74.5309 45.5572 74.7649 45.7692 75.0169L47.6742 77.2869L49.2542 79.1679L46.9412 81.9229L46.9362 81.9299L45.7692 83.3199C45.5582 83.5719 45.5812 83.8379 45.8342 84.0499L46.1222 84.2899C46.3742 84.5019 46.6032 84.4479 46.8152 84.1959L48.7182 81.9269L50.1432 80.2289L52.3002 82.8009L52.3052 82.8049L53.4722 84.1959C53.6842 84.4489 53.9482 84.4709 54.2002 84.2599L54.4892 84.0179C54.7412 83.8059 54.7292 83.5719 54.5162 83.3199L52.6122 81.0499L51.0322 79.1689L53.3452 76.4139L53.3502 76.4069L54.5162 75.0169C54.7282 74.7649 54.7042 74.4999 54.4522 74.2869L54.1642 74.0469C54.0382 73.9399 53.9182 73.9009 53.8032 73.9189V73.9199Z" fill="white"/>
</svg>
