<svg xmlns="http://www.w3.org/2000/svg" width="64" height="40" fill="none" xmlns:v="https://vecta.io/nano"><g fill="#fff"><path d="M2.038 35h-.239c-.209 0-.299-.128-.299-.352v-6.924C1.5 25.898 3.204 25 4.699 25c1.555 0 3.259.898 3.259 2.725v6.923c0 .225-.089.353-.299.353H7.42c-.209 0-.329-.128-.329-.353v-6.882c0-1.089-1.107-1.868-2.363-1.868s-2.362.779-2.362 1.868v6.882c0 .225-.12.353-.329.353zm35.371-9.645a1.2 1.2 0 0 0-.017-.182c-.017-.111-.026-.173.086-.173h.185c.162 0 .416.129.416.355v7.71c0 .903.3 1 .531 1.032.115 0 .208.097.208.323v.226c0 .226-.069.355-.254.355-.416 0-1.155-.194-1.155-1.742l.001-7.903zM25.9 26.763c0-.213.129-.334.355-.334h.258c.226 0 .323.122.323.334v1.581h1.452c.226 0 .355.122.355.334v.091c0 .213-.129.304-.355.304h-1.452v3.343c0 1.551 1 1.733 1.548 1.763.29.03.387.092.387.334v.182c0 .213-.097.304-.387.304-1.548 0-2.483-.881-2.483-2.463l-.001-5.774z"/><path fill-rule="evenodd" d="M13.614 27.857c1.896 0 2.956 1.305 2.956 3.261 0 .187-.16.342-.354.342h-5.109c.032 1.739 1.286 2.733 2.731 2.733.9 0 1.542-.372 1.863-.621.193-.124.353-.093.45.093l.096.155c.096.155.064.31-.096.435-.386.279-1.221.745-2.346.745-2.088 0-3.695-1.459-3.695-3.571.032-2.236 1.575-3.572 3.503-3.572zm1.96 2.919c-.064-1.429-.964-2.143-1.993-2.143-1.189 0-2.217.745-2.442 2.143h4.435z"/><path d="M34.976 28.63c-.319-.278-1.017-.773-2.12-.773-1.888 0-3.34 1.485-3.368 3.587 0 2.102 1.452 3.556 3.34 3.556 1.161 0 1.946-.588 2.265-.866.145-.154.174-.278.087-.464l-.087-.124c-.117-.185-.233-.216-.407-.093a2.6 2.6 0 0 1-1.801.712c-1.394 0-2.497-1.113-2.497-2.721 0-1.639 1.103-2.752 2.497-2.752.755 0 1.307.401 1.597.618.174.124.319.124.436-.062l.087-.154c.146-.186.117-.34-.029-.464z"/><path d="M47.429 31.398c0-2.019-1.608-3.54-3.588-3.54s-3.588 1.522-3.588 3.54c0 2.05 1.609 3.602 3.588 3.602s3.588-1.553 3.588-3.602zm-.959.001c0 1.614-1.175 2.795-2.629 2.795s-2.629-1.211-2.66-2.795c0-1.522 1.206-2.702 2.66-2.702s2.629 1.149 2.629 2.702zm12.721-3.739c1.719 0 2.336 1.41 2.336 1.41h.032s-.032-.224-.032-.544v-3.173c0-.059-.007-.111-.012-.156-.016-.127-.025-.196.142-.196h.259c.228 0 .584.128.584.353v9.135c0 .224-.097.352-.325.352h-.227c-.228 0-.357-.096-.357-.321v-.544c0-.257.065-.449.065-.449h-.032S61.008 35 59.159 35c-1.914 0-3.115-1.506-3.115-3.686-.064-2.18 1.266-3.654 3.148-3.654zm.033 6.539c1.2 0 2.304-.834 2.304-2.853 0-1.443-.747-2.82-2.271-2.82-1.265 0-2.304 1.026-2.304 2.82.032 1.731.941 2.853 2.271 2.853z" fill-rule="evenodd"/><path d="M54.296 27.857h-.244c-.214 0-.336.127-.336.349v3.842c0 1.079-.672 2.063-1.983 2.063-1.281 0-1.983-.984-1.983-2.063v-3.842c0-.222-.122-.349-.336-.349h-.244c-.214 0-.305.127-.305.349v4.095c0 1.81 1.281 2.699 2.868 2.699s2.868-.888 2.868-2.699v-4.095c.031-.221-.091-.349-.305-.349zm-31.313.154c.068-.086.137-.138.21-.151s.149.014.229.087l.183.164c.16.145.175.325.041.496l-.739.945-1.467 1.878 2.206 2.821c.134.172.142.331-.017.474l-.182.164c-.16.145-.328.129-.462-.043l-.739-.945-1.369-1.751-2.107 2.697c-.134.172-.279.208-.439.063l-.183-.164c-.16-.144-.175-.325-.041-.496l.739-.945 1.467-1.878-2.206-2.821c-.133-.171-.142-.33.018-.474l.183-.164c.08-.072.162-.104.24-.097s.154.054.221.14l2.107 2.697 2.108-2.697z"/></g><path d="M31.533 4c-4.354 0-8.044 2.933-9.188 6.907-.995-2.108-3.147-3.585-5.628-3.585-3.412 0-6.216 2.787-6.216 6.178s2.805 6.178 6.216 6.178c2.481 0 4.635-1.478 5.628-3.585C23.489 20.067 27.178 23 31.533 23c4.32 0 7.992-2.888 9.165-6.818 1.012 2.059 3.14 3.496 5.585 3.496 3.412 0 6.218-2.787 6.218-6.178s-2.807-6.178-6.218-6.178c-2.445 0-4.572 1.435-5.585 3.496C39.525 6.889 35.852 4 31.533 4zm0 3.626c3.286 0 5.912 2.607 5.912 5.874s-2.626 5.875-5.912 5.875-5.911-2.609-5.911-5.875 2.623-5.874 5.911-5.874zm-14.816 3.322c1.44 0 2.568 1.121 2.568 2.552s-1.13 2.552-2.568 2.552-2.568-1.122-2.568-2.552a2.53 2.53 0 0 1 2.568-2.552zm29.566 0c1.441 0 2.569 1.121 2.569 2.552s-1.128 2.552-2.569 2.552a2.53 2.53 0 0 1-2.566-2.552 2.53 2.53 0 0 1 2.566-2.552z" fill="#0082c9"/></svg>