<svg xmlns="http://www.w3.org/2000/svg" width="133.892" height="94.627">
  <g>
    <path style="line-height:normal;text-indent:0;text-align:start;text-decoration-line:none;text-decoration-style:solid;text-decoration-color:#000;text-transform:none;block-progression:tb;isolation:auto;mix-blend-mode:normal" d="M67.033 10c-11.805 0-21.811 8.003-24.913 18.847-2.695-5.752-8.535-9.781-15.263-9.781C17.605 19.066 10 26.67 10 35.923c0 9.252 7.605 16.86 16.857 16.86 6.728 0 12.568-4.032 15.263-9.784 3.102 10.844 13.108 18.85 24.913 18.85 11.718 0 21.673-7.885 24.853-18.607 2.745 5.622 8.514 9.541 15.145 9.541 9.252 0 16.861-7.608 16.861-16.86 0-9.252-7.609-16.857-16.86-16.857-6.632 0-12.4 3.917-15.146 9.538C88.706 17.882 78.751 10 67.033 10zm0 9.895c8.911 0 16.03 7.116 16.03 16.028 0 8.911-7.119 16.03-16.03 16.03a15.954 15.954 0 0 1-16.027-16.03 15.951 15.951 0 0 1 16.027-16.028zm-40.176 9.066c3.904 0 6.965 3.057 6.965 6.962 0 3.904-3.06 6.965-6.965 6.965-3.904 0-6.961-3.06-6.961-6.965s3.057-6.962 6.961-6.962zm80.174 0c3.905 0 6.966 3.057 6.966 6.962 0 3.904-3.061 6.965-6.966 6.965-3.904 0-6.961-3.06-6.961-6.965s3.057-6.962 6.961-6.962z" color="#000" font-weight="400" font-family="sans-serif" white-space="normal" overflow="visible" fill="#0082c9"/><g fill="#0082c9"><path d="M39.108 73.761c2.776 0 4.328 1.976 4.328 4.94a.522.522 0 0 1-.517.517h-7.48c.047 2.634 1.882 4.14 3.999 4.14a4.384 4.384 0 0 0 2.728-.941c.282-.189.517-.142.658.14l.142.236c.14.235.094.47-.142.658a5.83 5.83 0 0 1-3.433 1.13c-3.058 0-5.41-2.212-5.41-5.41.047-3.387 2.305-5.41 5.127-5.41zm2.87 4.422c-.094-2.164-1.411-3.246-2.917-3.246-1.74 0-3.245 1.13-3.575 3.246h6.492zM57.562 75.267v-3.622c0-.33.188-.518.517-.518h.377c.329 0 .47.188.47.518v2.446h2.117c.329 0 .517.188.517.517v.141c0 .33-.188.47-.517.47h-2.117v5.175c0 2.399 1.458 2.681 2.258 2.728.423.047.564.141.564.518v.282c0 .329-.14.47-.564.47-2.258 0-3.622-1.364-3.622-3.81v-5.315zM68.334 73.761c1.787 0 2.916.753 3.433 1.176.236.189.283.424.047.706l-.14.235c-.189.282-.424.282-.706.094-.47-.329-1.364-.94-2.587-.94-2.258 0-4.046 1.693-4.046 4.186 0 2.446 1.788 4.14 4.046 4.14 1.458 0 2.446-.66 2.916-1.083.282-.188.47-.14.659.142l.14.188c.142.282.095.47-.14.705a5.788 5.788 0 0 1-3.67 1.317c-3.057 0-5.409-2.21-5.409-5.41.047-3.198 2.4-5.456 5.457-5.456zM74.59 70.422c0-.33-.188-.518.14-.518h.377c.33 0 .847.188.847.518v11.242c0 1.317.611 1.458 1.082 1.505.235 0 .423.141.423.47v.33c0 .33-.141.517-.517.517-.847 0-2.352-.282-2.352-2.54V70.422zM84.233 73.761c3.01 0 5.456 2.305 5.456 5.363 0 3.104-2.446 5.456-5.456 5.456-3.01 0-5.457-2.352-5.457-5.456 0-3.058 2.446-5.363 5.457-5.363zm0 9.596c2.21 0 3.998-1.787 3.998-4.233 0-2.352-1.788-4.093-3.998-4.093-2.211 0-4.046 1.788-4.046 4.093.047 2.399 1.835 4.233 4.046 4.233zM107.705 73.761c2.493 0 3.387 2.07 3.387 2.07h.047s-.047-.33-.047-.8v-4.656c0-.33-.141-.518.188-.518h.376c.33 0 .847.188.847.518V83.78c0 .329-.141.517-.47.517h-.33c-.33 0-.517-.141-.517-.47v-.8c0-.376.094-.659.094-.659h-.047s-.894 2.164-3.575 2.164c-2.775 0-4.516-2.21-4.516-5.41-.094-3.198 1.835-5.362 4.563-5.362zm.047 9.596c1.74 0 3.34-1.223 3.34-4.186 0-2.117-1.082-4.14-3.293-4.14-1.835 0-3.34 1.506-3.34 4.14.047 2.54 1.364 4.186 3.293 4.186zM21.86 84.345h.376c.33 0 .517-.188.517-.517v-10.1c0-1.6 1.74-2.742 3.716-2.742 1.976 0 3.716 1.142 3.716 2.741v10.1c0 .33.189.518.518.518h.376c.33 0 .47-.188.47-.517v-10.16c0-2.682-2.68-3.999-5.127-3.999-2.352 0-5.033 1.317-5.033 3.998v10.16c0 .33.141.518.47.518zM100.367 73.997h-.376c-.33 0-.518.188-.518.517v5.692c0 1.599-1.035 3.057-3.057 3.057-1.976 0-3.058-1.458-3.058-3.057v-5.692c0-.33-.188-.517-.517-.517h-.377c-.329 0-.47.188-.47.517v6.068c0 2.681 1.976 3.998 4.422 3.998 2.446 0 4.421-1.317 4.421-3.998v-6.068c.047-.33-.14-.517-.47-.517zM53.803 73.92c-.116.018-.226.095-.332.22l-1.904 2.27-1.425 1.698-2.157-2.572-1.17-1.395a.522.522 0 0 0-.35-.206.522.522 0 0 0-.38.142l-.288.242c-.252.212-.24.446-.028.698l1.905 2.27 1.58 1.881-2.313 2.755-.005.007-1.167 1.39c-.211.252-.188.518.065.73l.288.24c.252.212.481.158.693-.094l1.903-2.269 1.425-1.698 2.157 2.572.005.004 1.167 1.391c.212.253.476.275.728.064l.289-.242c.252-.212.24-.446.027-.698l-1.904-2.27-1.58-1.881 2.313-2.755.005-.007 1.166-1.39c.212-.252.188-.517-.064-.73l-.288-.24c-.126-.107-.246-.146-.361-.128z"/></g>
  </g>
</svg>