<svg xmlns="http://www.w3.org/2000/svg" width="36" height="36" fill="none" xmlns:v="https://vecta.io/nano"><path d="M18.027 9c-3.732 0-6.894 2.529-7.874 5.957-.852-1.818-2.698-3.091-4.825-3.091C2.404 11.865 0 14.269 0 17.193s2.404 5.329 5.328 5.329c2.126 0 3.973-1.274 4.825-3.092.98 3.427 4.143 5.958 7.874 5.958 3.704 0 6.851-2.492 7.856-5.881.868 1.777 2.691 3.016 4.787 3.016 2.924 0 5.329-2.405 5.329-5.329s-2.405-5.328-5.329-5.328c-2.096 0-3.92 1.238-4.787 3.015C24.878 11.491 21.731 9 18.027 9zm0 3.127a5.04 5.04 0 0 1 5.067 5.066c0 2.816-2.25 5.066-5.067 5.066a5.04 5.04 0 0 1-5.066-5.066 5.04 5.04 0 0 1 5.066-5.066zM5.328 14.993c1.234 0 2.202.966 2.202 2.2s-.967 2.201-2.202 2.201-2.2-.967-2.2-2.201.966-2.2 2.2-2.2zm25.342 0c1.234 0 2.202.966 2.202 2.2s-.967 2.201-2.202 2.201-2.201-.967-2.201-2.201.966-2.2 2.201-2.2z" fill="#0082c9"/></svg>