<svg width="80" height="48" viewBox="0 0 80 48" fill="none" xmlns="http://www.w3.org/2000/svg">
    <path d="M9.444 14.501a1.714 1.714 0 0 1 1.212-2.1l14.903-3.993 8.398 4.85 5.768 21.526a1.714 1.714 0 0 1-1.212 2.1l-19.87 5.323a1.714 1.714 0 0 1-2.1-1.212z" fill="#fff"/>
    <path d="M18.531 41.793a1.286 1.286 0 0 1-1.574-.909l-7.1-26.494a1.286 1.286 0 0 1 .91-1.574l14.731-3.948 8.09 4.672 5.723 21.354a1.286 1.286 0 0 1-.91 1.575zM25.56 8.408l-14.903 3.994a1.714 1.714 0 0 0-1.212 2.1l7.099 26.493a1.714 1.714 0 0 0 2.1 1.212l19.87-5.324a1.714 1.714 0 0 0 1.212-2.1l-5.768-21.526z" fill="#D4D4D4"/>
    <path d="M17.458 21.228a.857.857 0 0 0-.606 1.05l.665 2.484 3.312-.888-.887-3.312zm3.815 4.302-3.312.887.887 3.312 3.312-.887zm.325-5.411 3.311-.888.888 3.312-3.312.887zm4.642 4.08-3.311.887.887 3.312 3.312-.887zm1.656-.444 3.312-.887.888 3.312-3.312.887zm1.154-5.633-2.485.666.888 3.311 3.312-.887-.666-2.484a.857.857 0 0 0-1.05-.606m-9.757 13.263 3.312-.887.887 3.311-2.484.666a.857.857 0 0 1-1.05-.606zm8.28-2.218-3.312.887.887 3.312 3.312-.888z" opacity=".66" fill="#D2D2D2"/>
    <path d="M26.076 5.927c0-1.065.864-1.928 1.929-1.928h17.357l7.714 7.714v25.071a1.93 1.93 0 0 1-1.928 1.929H28.005a1.93 1.93 0 0 1-1.929-1.929z" fill="#fff"/>
    <path d="M28.005 38.23a1.446 1.446 0 0 1-1.447-1.446V5.927c0-.799.648-1.446 1.447-1.446h17.157l7.432 7.432v24.871c0 .8-.648 1.447-1.446 1.447zM45.362 4H28.005a1.93 1.93 0 0 0-1.929 1.928v30.857a1.93 1.93 0 0 0 1.929 1.929h23.143a1.93 1.93 0 0 0 1.928-1.929V11.713z" fill="#D4D4D4"/>
    <path d="M31.868 16.535c0-.533.432-.964.964-.964h13.5c.533 0 .965.431.965.964v1.928H31.868zm-.008 4.819h15.43v2.893H31.86zm7.715 5.788H31.86v1.928c0 .533.432.965.965.965h6.75z" opacity=".66" fill="#D2D2D2"/>
    <path d="M47.375 10.034a1.714 1.714 0 0 1 2.078-1.25l14.97 3.733 4.995 8.313-5.391 21.623a1.714 1.714 0 0 1-2.078 1.25l-19.96-4.978a1.714 1.714 0 0 1-1.25-2.078z" fill="#fff"/>
    <path d="M42.092 38.31a1.286 1.286 0 0 1-.936-1.559l6.635-26.614a1.286 1.286 0 0 1 1.559-.936l14.798 3.69 4.812 8.007-5.35 21.452a1.286 1.286 0 0 1-1.559.936zm22.332-25.793-14.97-3.732a1.714 1.714 0 0 0-2.079 1.249L40.74 36.647a1.714 1.714 0 0 0 1.248 2.078l19.96 4.977a1.714 1.714 0 0 0 2.079-1.249l5.391-21.623z" fill="#D4D4D4"/>
    <path d="M49.763 23.083q1.368.34 1.867 1.101.512.753.248 1.811-.12.48-.369.883-.247.394-.66.652-.405.26-.983.328-.57.07-1.337-.122l-.6-.15-.611 2.456-1.697-.423 1.777-7.126zm-.406 1.372-.608-.152-.473 1.896.449.112q.35.088.633.052a.87.87 0 0 0 .5-.214q.204-.183.29-.532.11-.44-.082-.73-.19-.303-.709-.432m9.434 4.547q-.303 1.217-.966 1.921-.664.704-1.624.9-.96.195-2.148-.102l-2.146-.535 1.777-7.126 2.346.585q1.127.282 1.836.882.72.603.956 1.479.25.867-.03 1.996m-1.771-.378q.181-.73.089-1.25-.083-.52-.435-.85-.342-.33-.94-.48l-.7-.173-1.082 4.341.55.137q1.007.252 1.623-.178.618-.44.895-1.547m3.922 4.815-1.677-.418 1.777-7.126 4.141 1.033-.343 1.377-2.465-.615-.403 1.617 2.285.57-.343 1.377-2.286-.57z" fill="#D2D2D2"/>
</svg>
