<svg width="80" height="48" viewBox="0 0 80 48" fill="none" xmlns="http://www.w3.org/2000/svg">
    <path d="M6.36 15.37a1.736 1.736 0 0 1 1.037-2.225l13.95-5.078 9.806 4.573 7.533 20.512c.33.901-.133 1.9-1.036 2.23l-19.568 7.121a1.736 1.736 0 0 1-2.224-1.037z" fill="#fff"/>
    <path d="M27.928 21.238a5.69 5.69 0 0 0-5.752-2.682c-.605.094-.901.741-.692 1.316l1.19 3.27c.21.576.845.872 1.42.663l3.27-1.19c.575-.21.88-.854.564-1.377" fill="#D4D4D4"/>
    <path d="M18.973 21.742a5.695 5.695 0 1 0 8.573 3.998c-.094-.605-.741-.902-1.316-.692l-3.271 1.19a1.11 1.11 0 0 1-1.42-.662l-1.19-3.27c-.21-.576-.853-.88-1.376-.564" fill="#D4D4D4"/>
    <path d="M38.686 33.151 31.152 12.64l-9.805-4.573-13.95 5.078a1.736 1.736 0 0 0-1.038 2.225l9.498 26.096a1.736 1.736 0 0 0 2.225 1.038L37.65 35.38a1.736 1.736 0 0 0 1.035-2.23M7.737 14.084 21.22 9.177l1.607 4.415a2.453 2.453 0 0 0 3.144 1.466l4.415-1.607 7.362 20.045a.736.736 0 0 1-.44.945L17.74 41.563a.736.736 0 0 1-.943-.44L7.3 15.027a.736.736 0 0 1 .44-.943m14.734-4.39 6.71 3.13-3.554 1.294a1.453 1.453 0 0 1-1.862-.868z" fill="#D4D4D4"/>
    <path d="M26.084 5.929c0-1.066.863-1.929 1.929-1.929h16.495l8.5 8.501.07 24.28a1.93 1.93 0 0 1-1.928 1.933H28.013a1.93 1.93 0 0 1-1.929-1.928z" fill="#fff"/>
    <path d="M44.008 5H28.013a.93.93 0 0 0-.929.929v30.857c0 .512.416.928.929.928H51.15c.514 0 .93-.417.928-.931l-.069-23.782h-5.331a2.67 2.67 0 0 1-2.67-2.67zm9 7.501.07 24.28a1.93 1.93 0 0 1-1.928 1.933H28.013a1.93 1.93 0 0 1-1.929-1.928V5.929c0-1.066.863-1.929 1.929-1.929h16.495zm-1.914-.5-6.086-6.087v4.417c0 .923.747 1.67 1.67 1.67z" fill="#D4D4D4"/>
    <path d="M31 17.501a1.5 1.5 0 0 1 1.5-1.5h13a1.5 1.5 0 1 1 0 3h-13a1.5 1.5 0 0 1-1.5-1.5m0 10a1.5 1.5 0 0 1 1.5-1.5h6a1.5 1.5 0 1 1 0 3h-6a1.5 1.5 0 0 1-1.5-1.5m0-5a1.5 1.5 0 0 1 1.5-1.5h13a1.5 1.5 0 1 1 0 3h-13a1.5 1.5 0 0 1-1.5-1.5" fill="#D4D4D4"/>
    <path d="M51.834 8.139A1.736 1.736 0 0 1 54.06 7.1l13.95 5.078 4.603 9.723-7.414 20.555a1.736 1.736 0 0 1-2.227 1.042l-19.568-7.122a1.736 1.736 0 0 1-1.037-2.225z" fill="#fff"/>
    <path d="M67.196 12.948 53.716 8.04a.736.736 0 0 0-.943.44l-9.468 26.013a.736.736 0 0 0 .44.943l19.567 7.122a.736.736 0 0 0 .944-.442L71.5 22.03l-4.415-1.607a2.453 2.453 0 0 1-1.466-3.144zm5.415 8.953-7.415 20.556a1.736 1.736 0 0 1-2.226 1.042l-19.568-7.123a1.736 1.736 0 0 1-1.037-2.224l9.468-26.013A1.736 1.736 0 0 1 54.058 7.1l13.95 5.078zm-1.642-1.129-3.14-6.636-1.27 3.485a1.453 1.453 0 0 0 .869 1.862z" fill="#D4D4D4"/>
    <path d="M52.871 20.95q1.416.516 1.863 1.38.46.859.061 1.955-.18.495-.49.898a2.2 2.2 0 0 1-.776.619q-.46.23-1.082.238-.613.012-1.409-.278l-.62-.226-.925 2.543-1.758-.64 2.687-7.38zm-.585 1.415-.63-.23-.715 1.964.465.17q.362.131.668.126a.94.94 0 0 0 .555-.173q.237-.171.37-.533.165-.455-.007-.786-.168-.343-.706-.538m9.319 5.815q-.459 1.26-1.243 1.935a3.2 3.2 0 0 1-1.827.775q-1.043.1-2.273-.347l-2.223-.81 2.687-7.38 2.429.885q1.168.425 1.855 1.143.696.722.852 1.68.169.95-.257 2.119m-1.842-.6q.276-.755.235-1.32a1.54 1.54 0 0 0-.367-.953q-.327-.388-.947-.614l-.724-.263-1.637 4.496.569.207q1.044.38 1.747-.008.707-.397 1.124-1.545m3.427 5.485-1.736-.633 2.686-7.38 4.29 1.561-.52 1.427-2.552-.93-.61 1.675 2.367.862-.519 1.426-2.367-.861z" fill="#D4D4D4"/>
</svg>
