<svg xmlns="http://www.w3.org/2000/svg" width="172" height="128" fill="none" viewBox="0 0 172 128">
    <path fill="#2D2D2D" d="M46 26a4 4 0 0 1 4-4h72a4 4 0 0 1 4 4v92a4 4 0 0 1-4 4H50a4 4 0 0 1-4-4z"/>
    <path fill="#2A404B" d="M56 33a1 1 0 0 1 1-1h58a1 1 0 0 1 1 1v6a1 1 0 0 1-1 1H57a1 1 0 0 1-1-1zm0 12a1 1 0 0 1 1-1h58a1 1 0 0 1 1 1v6a1 1 0 0 1-1 1H57a1 1 0 0 1-1-1zm0 12a1 1 0 0 1 1-1h58a1 1 0 0 1 1 1v6a1 1 0 0 1-1 1H57a1 1 0 0 1-1-1zm0 12a1 1 0 0 1 1-1h58a1 1 0 0 1 1 1v6a1 1 0 0 1-1 1H57a1 1 0 0 1-1-1zm0 12a1 1 0 0 1 1-1h58a1 1 0 0 1 1 1v6a1 1 0 0 1-1 1H57a1 1 0 0 1-1-1zm0 12a1 1 0 0 1 1-1h58a1 1 0 0 1 1 1v6a1 1 0 0 1-1 1H57a1 1 0 0 1-1-1zm0 12a1 1 0 0 1 1-1h58a1 1 0 0 1 1 1v6a1 1 0 0 1-1 1H57a1 1 0 0 1-1-1z"/>
    <path fill="#2E84B2" d="M0 6a6 6 0 0 1 6-6h45a6 6 0 0 1 6 6v14a6 6 0 0 1-6 6H6a6 6 0 0 1-6-6z"/>
    <path fill="#fff" d="M7.578 19V7.797h3.969q5.969 0 5.969 5.46 0 2.619-1.633 4.18-1.625 1.564-4.336 1.563zm2.524-9.148v7.101h1.25q1.64 0 2.57-.984.937-.985.937-2.68 0-1.601-.93-2.516-.922-.921-2.593-.921zm14.007 9.343q-2.406 0-3.922-1.562-1.515-1.57-1.515-4.086 0-2.656 1.539-4.297t4.078-1.64q2.398 0 3.875 1.57 1.485 1.57 1.484 4.14 0 2.64-1.539 4.258-1.53 1.617-4 1.617m.11-9.414q-1.329 0-2.11 1-.78.993-.78 2.633 0 1.665.78 2.633.781.969 2.047.969 1.305 0 2.07-.938.766-.945.766-2.617 0-1.742-.742-2.711t-2.031-.969m15.328 8.82q-1.227.594-3.203.594-2.578 0-4.055-1.515t-1.477-4.04q0-2.687 1.657-4.359 1.665-1.672 4.312-1.672 1.641 0 2.766.414v2.43q-1.125-.672-2.563-.672-1.577 0-2.547.992-.968.993-.968 2.688 0 1.625.914 2.594.915.96 2.46.96a5.25 5.25 0 0 0 2.704-.718v2.305ZM50.648 19h-2.992l-1.93-3.648q-.108-.204-.226-.75h-.031a6 6 0 0 1-.258.78L43.273 19h-3.007l3.57-5.602-3.266-5.601h3.07l1.602 3.36q.188.398.336.945h.031q.094-.33.352-.977l1.781-3.328h2.813l-3.36 5.555z"/>
</svg>
