<svg width="58" height="78" fill="none" xmlns="http://www.w3.org/2000/svg"><path d="M23 10h33.571A1.42 1.42 0 0 1 58 11.41V35l-4.996 2.008L53 76.5a1.5 1.5 0 0 1-1.5 1.5H23V10z" fill="#CCCCC7"/><path d="M23 1.66C23 .748 22.27.007 21.368 0c-.01 0-.177.055-.264.099L.733 10.263A1.33 1.33 0 0 0 0 11.455V76.67C0 77.405.588 78 1.314 78h20.372c.726 0 1.314-.595 1.314-1.329V1.661z" fill="#D4D4D2"/><path d="M23 76a29.3 29.3 0 0 0 .002-.355V18c2.846.918 3.996 1.599 3.996 3.178V76H27v2h-5.314c.726 0 1.314-.595 1.314-1.329V76z" fill="#B7B7B3"/><path d="M1 77.962V10.13l-.267.133A1.33 1.33 0 0 0 0 11.455V76.67c0 .625.426 1.148 1 1.29z" fill="#D0D0CE"/></svg>