<svg width="36" height="48" viewBox="0 0 36 48" fill="none" xmlns="http://www.w3.org/2000/svg">
    <path d="M0 3a3 3 0 0 1 3-3h22l11 11v34a3 3 0 0 1-3 3H3a3 3 0 0 1-3-3z" fill="#E54D39"/>
    <path d="m25 0 11 11h-9a2 2 0 0 1-2-2z" fill="#000" fill-opacity=".25"/>
    <path d="M21 20a1 1 0 0 1 1-1h5a1 1 0 1 1 0 2h-5a1 1 0 0 1-1-1m1 6a1 1 0 1 0 0 2h5a1 1 0 1 0 0-2zM9 33a1 1 0 1 0 0 2h18a1 1 0 1 0 0-2zM8 20a1 1 0 0 1 1-1h7a1 1 0 0 1 1 1v7a1 1 0 0 1-1 1H9a1 1 0 0 1-1-1zm2 6h5v-5h-5z" fill="#fff"/>
</svg>
