<svg xmlns="http://www.w3.org/2000/svg" width="172" height="128" fill="none" viewBox="0 0 172 128">
    <path fill="#fff" d="M46 26a4 4 0 0 1 4-4h72a4 4 0 0 1 4 4v92a4 4 0 0 1-4 4H50a4 4 0 0 1-4-4z"/>
    <path fill="#F7CAC4" d="M94 33a1 1 0 0 1 1-1h20a1 1 0 0 1 1 1v6a1 1 0 0 1-1 1H95a1 1 0 0 1-1-1zm0 12a1 1 0 0 1 1-1h20a1 1 0 0 1 1 1v6a1 1 0 0 1-1 1H95a1 1 0 0 1-1-1zm0 12a1 1 0 0 1 1-1h20a1 1 0 0 1 1 1v6a1 1 0 0 1-1 1H95a1 1 0 0 1-1-1zM56 69a1 1 0 0 1 1-1h58a1 1 0 0 1 1 1v6a1 1 0 0 1-1 1H57a1 1 0 0 1-1-1zm0 12a1 1 0 0 1 1-1h58a1 1 0 0 1 1 1v6a1 1 0 0 1-1 1H57a1 1 0 0 1-1-1zm0 12a1 1 0 0 1 1-1h58a1 1 0 0 1 1 1v6a1 1 0 0 1-1 1H57a1 1 0 0 1-1-1zm0 12a1 1 0 0 1 1-1h58a1 1 0 0 1 1 1v6a1 1 0 0 1-1 1H57a1 1 0 0 1-1-1zm1-41a1 1 0 0 1-1-1V33a1 1 0 0 1 1-1h30a1 1 0 0 1 1 1v30a1 1 0 0 1-1 1z"/>
    <path fill="#D2412E" d="M0 6a6 6 0 0 1 6-6h30a6 6 0 0 1 6 6v14a6 6 0 0 1-6 6H6a6 6 0 0 1-6-6z"/>
    <path fill="#fff" d="M9.828 15.14V19H7.305V7.797h3.953q4.234 0 4.234 3.57 0 1.688-1.219 2.735-1.21 1.039-3.242 1.039zm0-5.406v3.493h.992q2.016 0 2.016-1.766 0-1.727-2.016-1.727zM17.133 19V7.797h3.969q5.968 0 5.968 5.46 0 2.619-1.633 4.18-1.623 1.564-4.335 1.563zm2.523-9.148v7.101h1.25q1.64 0 2.57-.984.938-.985.938-2.68 0-1.601-.93-2.516-.921-.921-2.593-.921zm15.75 0h-3.953v2.75h3.633v2.046h-3.633V19H28.93V7.797h6.476z"/>
</svg>
