<svg xmlns="http://www.w3.org/2000/svg" width="108" height="100" fill="none" viewBox="0 0 108 100">
  <path fill="#fff" d="M14 4a4 4 0 0 1 4-4h72a4 4 0 0 1 4 4v92a4 4 0 0 1-4 4H18a4 4 0 0 1-4-4V4Z"/>
  <path fill="#F7CAC4" d="M62 11a1 1 0 0 1 1-1h20a1 1 0 0 1 1 1v6a1 1 0 0 1-1 1H63a1 1 0 0 1-1-1v-6Zm0 12a1 1 0 0 1 1-1h20a1 1 0 0 1 1 1v6a1 1 0 0 1-1 1H63a1 1 0 0 1-1-1v-6Zm0 12a1 1 0 0 1 1-1h20a1 1 0 0 1 1 1v6a1 1 0 0 1-1 1H63a1 1 0 0 1-1-1v-6ZM24 47a1 1 0 0 1 1-1h58a1 1 0 0 1 1 1v6a1 1 0 0 1-1 1H25a1 1 0 0 1-1-1v-6Zm0 12a1 1 0 0 1 1-1h58a1 1 0 0 1 1 1v6a1 1 0 0 1-1 1H25a1 1 0 0 1-1-1v-6Zm0 12a1 1 0 0 1 1-1h58a1 1 0 0 1 1 1v6a1 1 0 0 1-1 1H25a1 1 0 0 1-1-1v-6Zm0 12a1 1 0 0 1 1-1h58a1 1 0 0 1 1 1v6a1 1 0 0 1-1 1H25a1 1 0 0 1-1-1v-6Zm1-41a1 1 0 0 1-1-1V11a1 1 0 0 1 1-1h30a1 1 0 0 1 1 1v30a1 1 0 0 1-1 1H25Z"/>
</svg>
