<svg xmlns="http://www.w3.org/2000/svg" width="172" height="128" fill="none" viewBox="0 0 172 128">
    <path fill="#2D2D2D" d="M36 112a4 4 0 0 1-4-4V36a4 4 0 0 1 4-4h100a4 4 0 0 1 4 4v72a4 4 0 0 1-4 4z"/>
    <path fill="#5F3E2F" d="M40 102V90h20v12zm0-16V74h20v12zm0-16V58h20v12zm0-16V42h20v12zm24 48V42h68v60z"/>
    <path fill="#DE7442" d="M0 6a6 6 0 0 1 6-6h40a6 6 0 0 1 6 6v14a6 6 0 0 1-6 6H6a6 6 0 0 1-6-6z"/>
    <path fill="#fff" d="M10.063 15.14V19H7.538V7.797h3.953q4.235 0 4.235 3.57 0 1.688-1.22 2.735-1.21 1.039-3.241 1.039h-1.204Zm0-5.406v3.493h.992q2.015 0 2.015-1.766 0-1.727-2.015-1.727zm9.828 5.407V19h-2.524V7.797h3.953q4.235 0 4.235 3.57 0 1.688-1.22 2.735-1.21 1.039-3.241 1.039zm0-5.407v3.493h.992q2.016 0 2.015-1.766 0-1.727-2.015-1.727zm15.172.118h-3.196V19h-2.531V9.852h-3.18V7.797h8.907zM45.687 19h-2.992l-1.93-3.648q-.109-.204-.226-.75h-.031a6 6 0 0 1-.258.78L38.312 19h-3.007l3.57-5.602-3.266-5.601h3.07l1.602 3.36q.188.398.336.945h.031q.094-.33.352-.977l1.781-3.328h2.813l-3.36 5.555z"/>
</svg>
