<svg width="16" height="16" fill="none" xmlns="http://www.w3.org/2000/svg"><g clip-path="url(#a)"><path d="M7.667 0h.666c.008.004 1.712.909 2.932 1.295C12.652 1.735 15 2 15 2s1.356 8.246-2.875 11.852c-1.062.905-1.886 1.337-2.646 1.646-.756.309-1.471.5-1.479.502 0 0-.719-.192-1.479-.502-.76-.31-1.584-.741-2.646-1.646C-.356 10.246 1 2 1 2s2.348-.266 3.735-.705C5.958.908 7.667 0 7.667 0z" fill="#fff"/><path d="M7.708 1h.584c.006.004 1.498.795 2.565 1.133 1.214.385 3.268.617 3.268.617s1.187 7.216-2.516 10.37c-.929.792-1.65 1.17-2.315 1.441-.662.27-1.287.437-1.294.439 0 0-.629-.168-1.294-.439s-1.386-.649-2.315-1.44C.688 9.965 1.875 2.75 1.875 2.75s2.054-.232 3.268-.617C6.213 1.795 7.708 1 7.708 1z" fill="#666"/><path d="m12.02 6.551-4.512 4.5L4.49 8.072l1.053-1.067 1.96 1.933L10.96 5.49l1.058 1.061z" fill="#fff"/></g><defs><clipPath id="a"><path fill="#fff" d="M0 0h16v16H0z"/></clipPath></defs></svg>