<svg xmlns="http://www.w3.org/2000/svg" width="172" height="128" fill="none" viewBox="0 0 172 128">
    <path fill="#2D2D2D" d="M36 112a4 4 0 0 1-4-4V36a4 4 0 0 1 4-4h100a4 4 0 0 1 4 4v72a4 4 0 0 1-4 4z"/>
    <path fill="#2E4B2E" d="M40 102V90h12v12zm16 0V90h12v12zm16 0V90h12v12zm16 0V90h12v12zm16 0V90h12v12zm16 0V90h12v12zM40 86V74h12v12zm16 0V74h12v12zm16 0V74h12v12zm16 0V74h12v12zm16 0V74h12v12zm16 0V74h12v12zM40 70V58h12v12zm16 0V58h12v12zm16 0V58h12v12zm16 0V58h12v12zm16 0V58h12v12zm16 0V58h12v12zM40 54V42h12v12zm16 0V42h12v12zm16 0V42h12v12zm16 0V42h12v12zm16 0V42h12v12zm16 0V42h12v12z"/>
    <path fill="#338D2B" d="M0 6a6 6 0 0 1 6-6h39a6 6 0 0 1 6 6v14a6 6 0 0 1-6 6H6a6 6 0 0 1-6-6z"/>
    <path fill="#fff" d="M16.867 19h-2.992l-1.93-3.648q-.11-.204-.226-.75h-.031a6 6 0 0 1-.258.78L9.492 19H6.484l3.57-5.602L6.79 7.797h3.07l1.602 3.36q.188.398.336.945h.031q.094-.33.352-.977l1.78-3.328h2.813l-3.359 5.555zm8.008 0h-6.672V7.797h2.524v9.156h4.148zm1-.43v-2.5q.68.57 1.477.86a4.8 4.8 0 0 0 1.609.28q.477 0 .828-.085a2 2 0 0 0 .594-.234q.242-.156.36-.36a.97.97 0 0 0-.07-1.039 2 2 0 0 0-.517-.476 5 5 0 0 0-.765-.422 26 26 0 0 0-.961-.414q-1.313-.547-1.961-1.336-.64-.79-.64-1.906 0-.876.35-1.5a3 3 0 0 1 .954-1.04q.61-.405 1.406-.593a7 7 0 0 1 1.688-.196q.875 0 1.546.11.68.1 1.25.32v2.336a4.4 4.4 0 0 0-1.297-.586 5 5 0 0 0-.703-.148 5 5 0 0 0-.656-.047q-.43 0-.781.086a2 2 0 0 0-.594.226 1.1 1.1 0 0 0-.375.36.8.8 0 0 0-.133.46q0 .282.149.508.149.22.422.422.273.195.664.39.39.189.883.392a9 9 0 0 1 1.203.601q.539.312.922.711.382.399.586.914.203.508.203 1.188 0 .937-.36 1.578a2.9 2.9 0 0 1-.96 1.03 4.2 4.2 0 0 1-1.423.563 8 8 0 0 1-1.703.172 9.6 9.6 0 0 1-1.758-.156 5.3 5.3 0 0 1-1.437-.469m18.633.43h-2.992l-1.93-3.648q-.109-.204-.227-.75h-.03a6 6 0 0 1-.259.78L37.133 19h-3.008l3.57-5.602-3.265-5.601h3.07l1.602 3.36q.188.398.336.945h.03q.094-.33.352-.977l1.782-3.328h2.812l-3.36 5.555z"/>
</svg>
