<svg xmlns="http://www.w3.org/2000/svg" width="172" height="128" fill="none" viewBox="0 0 172 128">
  <path fill="#fff" d="M36 112a4 4 0 0 1-4-4V36a4 4 0 0 1 4-4h100a4 4 0 0 1 4 4v72a4 4 0 0 1-4 4H36Z"/>
  <path fill="#C4E3C2" d="M40 102V90h12v12H40Zm16 0V90h12v12H56Zm16 0V90h12v12H72Zm16 0V90h12v12H88Zm16 0V90h12v12h-12Zm16 0V90h12v12h-12ZM40 86V74h12v12H40Zm16 0V74h12v12H56Zm16 0V74h12v12H72Zm16 0V74h12v12H88Zm16 0V74h12v12h-12Zm16 0V74h12v12h-12ZM40 70V58h12v12H40Zm16 0V58h12v12H56Zm16 0V58h12v12H72Zm16 0V58h12v12H88Zm16 0V58h12v12h-12Zm16 0V58h12v12h-12ZM40 54V42h12v12H40Zm16 0V42h12v12H56Zm16 0V42h12v12H72Zm16 0V42h12v12H88Zm16 0V42h12v12h-12Zm16 0V42h12v12h-12Z"/>
  <path fill="#338D2B" d="M0 6a6 6 0 0 1 6-6h39a6 6 0 0 1 6 6v14a6 6 0 0 1-6 6H6a6 6 0 0 1-6-6V6Z"/>
  <path fill="#fff" d="M16.867 19h-2.992l-1.93-3.648c-.073-.136-.148-.386-.226-.75h-.031a5.686 5.686 0 0 1-.258.78L9.492 19H6.484l3.57-5.602L6.79 7.797h3.07l1.602 3.36c.125.265.237.58.336.945h.031c.063-.22.18-.545.352-.977l1.78-3.328h2.813l-3.359 5.555L16.867 19Zm8.008 0h-6.672V7.797h2.524v9.156h4.148V19Zm1-.43v-2.5c.453.38.945.667 1.477.86a4.805 4.805 0 0 0 1.609.28c.318 0 .594-.028.828-.085a1.96 1.96 0 0 0 .594-.234c.161-.104.281-.224.36-.36a.971.971 0 0 0-.07-1.039 1.996 1.996 0 0 0-.517-.476 5.152 5.152 0 0 0-.765-.422 26.272 26.272 0 0 0-.961-.414c-.875-.365-1.529-.81-1.961-1.336-.427-.526-.64-1.162-.64-1.906 0-.584.116-1.084.35-1.5a3 3 0 0 1 .954-1.04c.406-.27.875-.468 1.406-.593a7.067 7.067 0 0 1 1.688-.196c.583 0 1.099.037 1.546.11.454.067.87.174 1.25.32v2.336a4.396 4.396 0 0 0-1.297-.586 4.834 4.834 0 0 0-.703-.148 4.863 4.863 0 0 0-.656-.047c-.286 0-.547.028-.781.086a1.935 1.935 0 0 0-.594.226 1.13 1.13 0 0 0-.375.36.823.823 0 0 0-.133.46c0 .188.05.357.149.508.099.146.24.287.422.422.182.13.403.26.664.39.26.126.554.256.883.392a9.24 9.24 0 0 1 1.203.601c.36.208.666.445.922.711.255.266.45.57.586.914.135.339.203.734.203 1.188 0 .625-.12 1.15-.36 1.578a2.893 2.893 0 0 1-.96 1.03 4.21 4.21 0 0 1-1.423.563 8.137 8.137 0 0 1-1.703.172 9.56 9.56 0 0 1-1.758-.156 5.297 5.297 0 0 1-1.437-.469Zm18.633.43h-2.992l-1.93-3.648c-.073-.136-.148-.386-.227-.75h-.03a5.672 5.672 0 0 1-.259.78L37.133 19h-3.008l3.57-5.602-3.265-5.601h3.07l1.602 3.36c.125.265.237.58.336.945h.03c.063-.22.18-.545.352-.977l1.782-3.328h2.812l-3.36 5.555L44.509 19Z"/>
</svg>
