<svg xmlns="http://www.w3.org/2000/svg" width="108" height="100" fill="none" viewBox="0 0 108 100">
  <path fill="#2D2D2D" d="M4 90a4 4 0 0 1-4-4V14a4 4 0 0 1 4-4h100a4 4 0 0 1 4 4v72a4 4 0 0 1-4 4H4Z"/>
  <path fill="#2E4B2E" d="M8 80V68h12v12H8Zm16 0V68h12v12H24Zm16 0V68h12v12H40Zm16 0V68h12v12H56Zm16 0V68h12v12H72Zm16 0V68h12v12H88ZM8 64V52h12v12H8Zm16 0V52h12v12H24Zm16 0V52h12v12H40Zm16 0V52h12v12H56Zm16 0V52h12v12H72Zm16 0V52h12v12H88ZM8 48V36h12v12H8Zm16 0V36h12v12H24Zm16 0V36h12v12H40Zm16 0V36h12v12H56Zm16 0V36h12v12H72Zm16 0V36h12v12H88ZM8 32V20h12v12H8Zm16 0V20h12v12H24Zm16 0V20h12v12H40Zm16 0V20h12v12H56Zm16 0V20h12v12H72Zm16 0V20h12v12H88Z"/>
</svg>
