<svg width="110" height="40" viewBox="0 0 110 40" fill="none" xmlns="http://www.w3.org/2000/svg">
<path d="M52.74 21.8601C53.94 22.2601 54.84 22.9201 54.84 24.1401C54.84 25.2601 53.8 26.1001 52.48 26.1401C51.5 26.1601 50.36 25.7401 49.32 24.6601L48.02 26.2001C49.34 27.5601 50.98 28.1601 52.48 28.1801C54.88 28.1801 56.94 26.6201 56.94 24.1401C56.94 21.8801 55.34 20.6001 53.74 20.1201L52.64 19.7601C51.28 19.3201 50.56 18.8001 50.56 17.7601C50.56 16.6801 51.42 15.9401 52.5 15.9001C53.2 15.8601 54.02 16.1401 54.76 16.8001L56.06 15.3401C55.04 14.3201 53.74 13.8601 52.5 13.8201C50.3 13.7801 48.32 15.2601 48.32 17.8401C48.32 19.9201 50 20.9601 51.7 21.4801L52.74 21.8601Z" fill="white"/>
<path d="M67.0765 25.5404C66.4565 26.0204 65.5965 26.2004 64.8165 26.2004C63.2765 26.2004 61.8765 25.3004 61.8765 23.7604H67.4565C70.9365 23.7604 69.3965 17.8604 64.6165 17.8604C61.7565 17.8604 59.4565 20.1604 59.4565 23.0204C59.4565 26.4004 62.1565 28.1604 64.8965 28.1804C66.2365 28.1804 67.5965 27.8404 68.5765 27.0004L67.0765 25.5404ZM61.8965 21.8404C61.9365 20.8404 63.0165 19.7604 64.6165 19.7604C65.6565 19.7604 66.3965 20.2204 66.7565 20.7004C67.1965 21.2404 67.0965 21.8404 66.3365 21.8404H61.8965Z" fill="white"/>
<path d="M72.9998 20.5003C73.5998 20.1003 74.6198 19.8003 75.8198 19.8003C77.4998 19.8003 78.4398 20.7003 78.4598 22.0403C77.4998 21.6603 76.6598 21.5003 75.8198 21.4803C73.2198 21.4403 71.8198 22.8203 71.8198 24.7203C71.8198 27.0603 73.3798 28.1803 75.5398 28.1603C76.8598 28.1603 78.2198 27.6803 78.7198 27.1603V28.0003H80.5998V22.1403C80.5798 19.7603 79.0598 17.8203 76.0798 17.8203C74.5598 17.8203 73.2598 18.1403 72.2398 18.8603L72.9998 20.5003ZM78.4598 25.4403C77.4998 25.8803 76.4998 26.1203 75.7798 26.1203C74.4798 26.1203 73.9198 25.6003 73.9198 24.8003C73.9198 24.0803 74.4398 23.4003 75.8198 23.3803C76.5398 23.3803 77.4598 23.5203 78.4598 23.9003V25.4403Z" fill="white"/>
<path d="M87.2965 13.8398C85.7365 13.8398 84.5365 14.7398 84.5365 16.1998V17.9998H82.9165V19.1998H84.5365V27.9998H85.7965V19.1998H88.1765V17.9998H85.7965V16.1998C85.7965 15.3998 86.5365 14.9598 87.2965 14.9598H88.3765V13.8398H87.2965ZM90.0565 16.4798C90.4965 16.4798 90.8365 16.1198 90.8365 15.6798C90.8365 15.2398 90.4965 14.8998 90.0565 14.8998C89.6165 14.8998 89.2565 15.2398 89.2565 15.6798C89.2565 16.1198 89.6165 16.4798 90.0565 16.4798ZM89.4565 27.9998H90.6765V17.9998H89.4565V27.9998Z" fill="white"/>
<path d="M94.4443 28H95.6643V14H94.4443V28Z" fill="white"/>
<path d="M106.467 26.0604C105.627 26.8404 104.547 26.9804 103.627 26.9804C101.527 26.9804 99.7467 25.4804 99.7467 23.4004H106.327C109.687 23.3804 108.147 17.8604 103.487 17.8604C100.627 17.8604 98.3267 20.1604 98.3267 23.0204C98.3267 26.1404 100.867 28.1604 103.667 28.1604C104.927 28.1604 106.307 27.9204 107.367 26.9204L106.467 26.0604ZM99.7467 22.2404C99.8867 20.5004 101.427 19.0204 103.487 19.0204C105.047 19.0204 106.067 19.8004 106.507 20.5804C106.987 21.4004 106.787 22.2404 105.827 22.2404H99.7467Z" fill="white"/>
<path d="M15 15C11.5835 15 9.35059 17.093 8 20H2.5C1.67163 20 1 19.3284 1 18.5C1 17.6716 1.67163 17 2.5 17C2.74084 17 2.96838 17.0568 3.17004 17.1577C3.05945 16.7912 3 16.4025 3 16C3 13.7909 4.79089 12 7 12C7.73462 12 8.42297 12.198 9.01465 12.5436C9.24976 8.89035 12.2874 6 16 6C19.4714 6 22.4481 8.68515 23 12C21.475 13.017 19.8594 14.3702 19 16C17.8655 15.4389 16.3513 15 15 15Z" fill="white"/>
<path d="M11.8307 34H11.5C11.5 34 11.6315 34.0067 11.8307 34Z" fill="white"/>
<path d="M15 32C14.0364 32.9636 12.9495 34 11.5 34H10C7.79089 34 6 32.2091 6 30C6 27.9565 7.53235 26.271 9.51062 26.0296C9.18176 25.2521 9 24.3973 9 23.5C9 19.9102 11.9102 17 15.5 17C17.3571 17 18.8156 17.7512 20 19C20.8992 14.9781 24.707 12 29 12C33.9706 12 38 16.0294 38 21C38 21.713 37.5692 23.1091 37.2666 24.0898L37.1783 24.3763C37.1562 24.4485 37.1354 24.5171 37.1161 24.5817C37.0645 24.7543 37.0238 24.8976 37 25C37.2401 24.968 39 23 39 23C39 23 44 23.8116 44 28.5C44 31.5376 41.5376 34 38.5 34H30.5C28.0148 34 26 31.9853 26 29.5C26 26.5344 28.4254 25.0568 31 25C29.7162 25.3237 29 26.7681 29 28C29 29.6569 30 31 32 31C37 31 36 22 28 22C26.059 22 24.3024 22.79 23.0344 24.0661C23.0344 24.0661 23.2355 23.7728 15 32Z" fill="white"/>
</svg>
