<svg fill="none" xmlns="http://www.w3.org/2000/svg" width="110" height="40">
    <defs>
        <linearGradient id="paint0_linear" x1="1" y1="6" x2="0.999999" y2="34" gradientUnits="userSpaceOnUse">
            <stop offset="0.0151138" stop-color="#FADD68"/><stop offset="0.0527693" stop-color="#FAD754"/><stop offset="0.0910525" stop-color="#FAD652"/><stop offset="0.12557" stop-color="#FAD450"/><stop offset="0.160088" stop-color="#FAD34E"/><stop offset="0.194605" stop-color="#FBD04B"/><stop offset="0.232261" stop-color="#FBCF49"/><stop offset="0.268661" stop-color="#FBCC46"/><stop offset="0.303806" stop-color="#FBCB45"/>
            <stop offset="0.337069" stop-color="#FBC840"/><stop offset="0.373469" stop-color="#FCC741"/><stop offset="0.407987" stop-color="#FCC33A"/><stop offset="0.445015" stop-color="#FCC138"/><stop offset="0.48016" stop-color="#FCBE34"/><stop offset="0.519071" stop-color="#FDBB30"/><stop offset="0.551078" stop-color="#FDB92D"/><stop offset="0.586851" stop-color="#FDB629"/><stop offset="0.620741" stop-color="#FDB527"/>
            <stop offset="0.660279" stop-color="#FDB224"/><stop offset="0.697307" stop-color="#FEB021"/><stop offset="0.733707" stop-color="#FEAD1D"/><stop offset="0.767597" stop-color="#FEAB1B"/><stop offset="0.801487" stop-color="#FEA919"/><stop offset="0.836632" stop-color="#FEA716"/><stop offset="0.875543" stop-color="#FFA614"/><stop offset="0.911943" stop-color="#FEA412"/><stop offset="0.947334" stop-color="#FFA310"/>
            <stop offset="0.979724" stop-color="#FFA519"/>
        </linearGradient>
        <linearGradient id="paint1_linear" x1="1" y1="6" x2="0.999999" y2="34" gradientUnits="userSpaceOnUse">
            <stop offset="0.0151138" stop-color="#FADD68"/><stop offset="0.0527693" stop-color="#FAD754"/><stop offset="0.0910525" stop-color="#FAD652"/><stop offset="0.12557" stop-color="#FAD450"/><stop offset="0.160088" stop-color="#FAD34E"/><stop offset="0.194605" stop-color="#FBD04B"/><stop offset="0.232261" stop-color="#FBCF49"/><stop offset="0.268661" stop-color="#FBCC46"/><stop offset="0.303806" stop-color="#FBCB45"/>
            <stop offset="0.337069" stop-color="#FBC840"/><stop offset="0.373469" stop-color="#FCC741"/><stop offset="0.407987" stop-color="#FCC33A"/><stop offset="0.445015" stop-color="#FCC138"/><stop offset="0.48016" stop-color="#FCBE34"/><stop offset="0.519071" stop-color="#FDBB30"/><stop offset="0.551078" stop-color="#FDB92D"/><stop offset="0.586851" stop-color="#FDB629"/><stop offset="0.620741" stop-color="#FDB527"/>
            <stop offset="0.660279" stop-color="#FDB224"/><stop offset="0.697307" stop-color="#FEB021"/><stop offset="0.733707" stop-color="#FEAD1D"/><stop offset="0.767597" stop-color="#FEAB1B"/><stop offset="0.801487" stop-color="#FEA919"/><stop offset="0.836632" stop-color="#FEA716"/><stop offset="0.875543" stop-color="#FFA614"/><stop offset="0.911943" stop-color="#FEA412"/><stop offset="0.947334" stop-color="#FFA310"/>
            <stop offset="0.979724" stop-color="#FFA519"/>
        </linearGradient>
        <linearGradient id="paint2_linear" x1="1" y1="6" x2="0.999999" y2="34" gradientUnits="userSpaceOnUse">
            <stop offset="0.0151138" stop-color="#FADD68"/><stop offset="0.0527693" stop-color="#FAD754"/><stop offset="0.0910525" stop-color="#FAD652"/><stop offset="0.12557" stop-color="#FAD450"/><stop offset="0.160088" stop-color="#FAD34E"/><stop offset="0.194605" stop-color="#FBD04B"/><stop offset="0.232261" stop-color="#FBCF49"/><stop offset="0.268661" stop-color="#FBCC46"/><stop offset="0.303806" stop-color="#FBCB45"/>
            <stop offset="0.337069" stop-color="#FBC840"/><stop offset="0.373469" stop-color="#FCC741"/><stop offset="0.407987" stop-color="#FCC33A"/><stop offset="0.445015" stop-color="#FCC138"/><stop offset="0.48016" stop-color="#FCBE34"/><stop offset="0.519071" stop-color="#FDBB30"/><stop offset="0.551078" stop-color="#FDB92D"/><stop offset="0.586851" stop-color="#FDB629"/><stop offset="0.620741" stop-color="#FDB527"/>
            <stop offset="0.660279" stop-color="#FDB224"/><stop offset="0.697307" stop-color="#FEB021"/><stop offset="0.733707" stop-color="#FEAD1D"/><stop offset="0.767597" stop-color="#FEAB1B"/><stop offset="0.801487" stop-color="#FEA919"/><stop offset="0.836632" stop-color="#FEA716"/><stop offset="0.875543" stop-color="#FFA614"/><stop offset="0.911943" stop-color="#FEA412"/><stop offset="0.947334" stop-color="#FFA310"/>
            <stop offset="0.979724" stop-color="#FFA519"/>
        </linearGradient>
    </defs>
    <g id="text">
        <path d="M52.74 21.86C53.94 22.26 54.84 22.92 54.84 24.14C54.84 25.26 53.8 26.1 52.48 26.14C51.5 26.16 50.36 25.74 49.32 24.66L48.02 26.2C49.34 27.56 50.98 28.16 52.48 28.18C54.88 28.18 56.94 26.62 56.94 24.14C56.94 21.88 55.34 20.6 53.74 20.12L52.64 19.76C51.28 19.32 50.56 18.8 50.56 17.76C50.56 16.68 51.42 15.94 52.5 15.9C53.2 15.86 54.02 16.14 54.76 16.8L56.06 15.34C55.04 14.32 53.74 13.86 52.5 13.82C50.3 13.78 48.32 15.26 48.32 17.84C48.32 19.92 50 20.96 51.7 21.48L52.74 21.86Z" fill="#4A4A4A"/>
        <path d="M67.0766 25.54C66.4566 26.02 65.5966 26.2 64.8166 26.2C63.2766 26.2 61.8766 25.3 61.8766 23.76H67.4566C70.9366 23.76 69.3966 17.86 64.6166 17.86C61.7566 17.86 59.4566 20.16 59.4566 23.02C59.4566 26.4 62.1566 28.16 64.8966 28.18C66.2366 28.18 67.5966 27.84 68.5766 27L67.0766 25.54ZM61.8966 21.84C61.9366 20.84 63.0166 19.76 64.6166 19.76C65.6566 19.76 66.3966 20.22 66.7566 20.7C67.1966 21.24 67.0966 21.84 66.3366 21.84H61.8966Z" fill="#4A4A4A"/>
        <path d="M72.9999 20.5C73.5999 20.1 74.6199 19.8 75.8199 19.8C77.4999 19.8 78.4399 20.7 78.4599 22.04C77.4999 21.66 76.6599 21.5 75.8199 21.48C73.2199 21.44 71.8199 22.82 71.8199 24.72C71.8199 27.06 73.3799 28.18 75.5399 28.16C76.8599 28.16 78.2199 27.68 78.7199 27.16V28H80.5999V22.14C80.5799 19.76 79.0599 17.82 76.0799 17.82C74.5599 17.82 73.2599 18.14 72.2399 18.86L72.9999 20.5ZM78.4599 25.44C77.4999 25.88 76.4999 26.12 75.7799 26.12C74.4799 26.12 73.9199 25.6 73.9199 24.8C73.9199 24.08 74.4399 23.4 75.8199 23.38C76.5399 23.38 77.4599 23.52 78.4599 23.9V25.44Z" fill="#4A4A4A"/>
        <path d="M87.2964 13.84C85.7364 13.84 84.5364 14.74 84.5364 16.2V18H82.9164V19.2H84.5364V28H85.7964V19.2H88.1764V18H85.7964V16.2C85.7964 15.4 86.5364 14.96 87.2964 14.96H88.3764V13.84H87.2964ZM90.0564 16.48C90.4964 16.48 90.8364 16.12 90.8364 15.68C90.8364 15.24 90.4964 14.9 90.0564 14.9C89.6164 14.9 89.2564 15.24 89.2564 15.68C89.2564 16.12 89.6164 16.48 90.0564 16.48ZM89.4564 28H90.6764V18H89.4564V28Z" fill="#4A4A4A"/>
        <path d="M94.4442 28H95.6642V14H94.4442V28Z" fill="#4A4A4A"/>
        <path d="M106.467 26.06C105.627 26.84 104.547 26.98 103.627 26.98C101.527 26.98 99.7467 25.48 99.7467 23.4H106.327C109.687 23.38 108.147 17.86 103.487 17.86C100.627 17.86 98.3267 20.16 98.3267 23.02C98.3267 26.14 100.867 28.16 103.667 28.16C104.927 28.16 106.307 27.92 107.367 26.92L106.467 26.06ZM99.7467 22.24C99.8867 20.5 101.427 19.02 103.487 19.02C105.047 19.02 106.067 19.8 106.507 20.58C106.987 21.4 106.787 22.24 105.827 22.24H99.7467Z" fill="#4A4A4A"/>
    </g>
    <g id="icon">
        <path d="M15 15C11.5835 15 9.35059 17.093 8 20H2.5C1.67163 20 1 19.3284 1 18.5C1 17.6716 1.67163 17 2.5 17C2.74084 17 2.96838 17.0568 3.17004 17.1577C3.05945 16.7912 3 16.4025 3 16C3 13.7909 4.79089 12 7 12C7.73462 12 8.42297 12.198 9.01465 12.5436C9.24976 8.89035 12.2874 6 16 6C19.4714 6 22.4481 8.68515 23 12C21.475 13.017 19.8594 14.3702 19 16C17.8655 15.4389 16.3513 15 15 15Z" fill="url(#paint0_linear)"/>
        <path d="M11.8307 34H11.5C11.5 34 11.6315 34.0067 11.8307 34Z" fill="url(#paint1_linear)"/>
        <path d="M15 32C14.0364 32.9636 12.9495 34 11.5 34H10C7.79089 34 6 32.2091 6 30C6 27.9565 7.53235 26.271 9.51062 26.0296C9.18176 25.2521 9 24.3973 9 23.5C9 19.9102 11.9102 17 15.5 17C17.3571 17 18.8156 17.7512 20 19C20.8992 14.9781 24.707 12 29 12C33.9706 12 38 16.0294 38 21C38 21.713 37.5692 23.1091 37.2666 24.0898L37.1783 24.3763C37.1562 24.4485 37.1354 24.5171 37.1161 24.5817C37.0645 24.7543 37.0238 24.8976 37 25C37.2401 24.968 39 23 39 23C39 23 44 23.8116 44 28.5C44 31.5376 41.5376 34 38.5 34H30.5C28.0148 34 26 31.9853 26 29.5C26 26.5344 28.4254 25.0568 31 25C29.7162 25.3237 29 26.7681 29 28C29 29.6569 30 31 32 31C37 31 36 22 28 22C26.059 22 24.3024 22.79 23.0344 24.0661C23.0344 24.0661 23.2355 23.7728 15 32Z" fill="url(#paint2_linear)"/>
    </g>
</svg>
