<svg xmlns="http://www.w3.org/2000/svg" width="100" height="32" fill="none" xmlns:v="https://vecta.io/nano"><path d="M21.2 8.4l-.004.229c-1.173 1.011-2.087 2.313-2.632 3.794A6.37 6.37 0 0 0 14.8 11.2c-2.686 0-4.985 1.655-5.935 4H2.8a1.6 1.6 0 0 1 0-3.2c.294 0 .569.079.806.217l-.002-.054-.003-.123V12a4 4 0 0 1 4-4c.569 0 1.11.119 1.6.333a6 6 0 0 1 12 .067z" fill="url(#A)"/><path d="M28.595 27.995L28.4 28a4 4 0 1 1 0-8c.153 0 .303.009.451.025A2.4 2.4 0 0 0 29.2 24.8c1.585 0 2.435-1.362 2.393-2.8-.083-2.827-2.289-5.2-5.193-5.2-1.438 0-2.74.584-3.681 1.527L20.182 20.8l-.001.001-4.999 5.064c-1.165 1.165-2.348 2.128-4.107 2.128h1.979l-.008.008H9.6a3.6 3.6 0 0 1 0-7.2c.135 0 .269.008.4.022l-.249-.727c-.302-.858-.551-1.567-.551-2.495a5.6 5.6 0 0 1 5.6-5.6c1.661 0 3.153.723 4.178 1.871.797-3.81 4.175-6.671 8.222-6.671 5.29 0 8.8 4.8 8.4 9.6l-.8 2.4s.4-1.2 2.4-1.2 4 2.442 4 4.8A5.2 5.2 0 0 1 36 28h-7.2a4.4 4.4 0 0 1-.131-.002l-.073-.003z" fill="url(#A)"/><path d="M48.881 16.998c1.104.368 1.932.975 1.932 2.098 0 1.03-.957 1.803-2.171 1.84-.902.018-1.95-.368-2.907-1.362l-1.196 1.417c1.214 1.251 2.723 1.803 4.103 1.822 2.208 0 4.103-1.435 4.103-3.717 0-2.079-1.472-3.257-2.944-3.698l-1.012-.331c-1.251-.405-1.914-.883-1.914-1.84 0-.994.791-1.674 1.785-1.711.644-.037 1.398.221 2.079.828l1.196-1.343c-.938-.938-2.134-1.362-3.275-1.398-2.024-.037-3.846 1.325-3.846 3.698 0 1.914 1.546 2.87 3.11 3.349l.957.35zm13.006 3.385c-.57.442-1.362.607-2.079.607-1.417 0-2.705-.828-2.705-2.245h5.134c3.202 0 1.785-5.428-2.613-5.428-2.631 0-4.747 2.116-4.747 4.747 0 3.11 2.484 4.729 5.005 4.747 1.233 0 2.484-.313 3.386-1.086l-1.38-1.343zm-4.766-3.404c.037-.92 1.03-1.914 2.502-1.914.957 0 1.638.423 1.969.865.405.497.313 1.049-.386 1.049h-4.085zm10.031-1.233c.552-.368 1.49-.644 2.594-.644 1.546 0 2.41.828 2.429 2.061-.883-.35-1.656-.497-2.429-.515-2.392-.037-3.68 1.233-3.68 2.981 0 2.153 1.435 3.183 3.422 3.165 1.214 0 2.466-.442 2.926-.92v.773h1.73v-5.391c-.018-2.19-1.417-3.974-4.158-3.974-1.398 0-2.594.294-3.533.957l.699 1.509zm5.023 4.545c-.883.405-1.803.626-2.466.626-1.196 0-1.711-.478-1.711-1.214 0-.662.478-1.288 1.748-1.306.662 0 1.509.129 2.429.478v1.417zm7.946-10.672c-1.435 0-2.539.828-2.539 2.171v1.656h-1.49v1.104h1.49v8.096h1.159V14.55h2.19v-1.104h-2.19V11.79c0-.736.681-1.141 1.38-1.141h.994v-1.03h-.994zm2.539 2.429c.405 0 .718-.331.718-.736s-.313-.718-.718-.718-.736.313-.736.718a.74.74 0 0 0 .736.736zm-.552 10.598h1.122v-9.2h-1.122v9.2zm4.405 0h1.122V9.766h-1.122v12.88zm10.876-1.784c-.773.718-1.766.846-2.613.846-1.932 0-3.57-1.38-3.57-3.294h6.054c3.091-.018 1.674-5.097-2.613-5.097-2.631 0-4.747 2.116-4.747 4.747 0 2.87 2.337 4.729 4.913 4.729 1.159 0 2.429-.221 3.404-1.141l-.828-.791zm-6.182-3.514c.129-1.601 1.546-2.962 3.441-2.962 1.435 0 2.374.718 2.778 1.435.442.754.258 1.527-.626 1.527h-5.594z" fill="#4a4a4a"/><defs><linearGradient id="A" x1="1.6" y1="2.4" x2="1.6" y2="28" gradientUnits="userSpaceOnUse"><stop offset=".016" stop-color="#fcda56"/><stop offset=".046" stop-color="#fad855"/><stop offset=".08" stop-color="#fad653"/><stop offset=".109" stop-color="#fad551"/><stop offset=".141" stop-color="#fad44f"/><stop offset=".17" stop-color="#fbd24d"/><stop offset=".203" stop-color="#fbcf4a"/><stop offset=".234" stop-color="#fbce49"/><stop offset=".267" stop-color="#facc46"/><stop offset=".297" stop-color="#faca43"/><stop offset=".329" stop-color="#fbc840"/><stop offset=".357" stop-color="#fcc73f"/><stop offset=".389" stop-color="#fcc43c"/><stop offset=".423" stop-color="#fcc23a"/><stop offset=".451" stop-color="#fcc035"/><stop offset=".484" stop-color="#fcbd32"/><stop offset=".514" stop-color="#fdbb30"/><stop offset=".546" stop-color="#fdba2e"/><stop offset=".58" stop-color="#fdb72a"/><stop offset=".608" stop-color="#fdb629"/><stop offset=".64" stop-color="#fdb326"/><stop offset=".672" stop-color="#feb022"/><stop offset=".703" stop-color="#feb021"/><stop offset=".735" stop-color="#fead1d"/><stop offset=".764" stop-color="#feac1c"/><stop offset=".796" stop-color="#feaa1a"/><stop offset=".828" stop-color="#fea716"/><stop offset=".859" stop-color="#fea715"/><stop offset=".892" stop-color="#fea513"/><stop offset=".921" stop-color="#fea412"/><stop offset=".951" stop-color="#ffa311"/><stop offset=".987" stop-color="#ffa519"/></linearGradient></defs></svg>