<svg fill="none" xmlns="http://www.w3.org/2000/svg" width="40" height="40">
    <defs>
        <linearGradient id="paint0_linear" x1="1" y1="6" x2="0.999999" y2="34" gradientUnits="userSpaceOnUse">
            <stop offset="0.0151138" stop-color="#FADD68"/><stop offset="0.0527693" stop-color="#FAD754"/><stop offset="0.0910525" stop-color="#FAD652"/><stop offset="0.12557" stop-color="#FAD450"/><stop offset="0.160088" stop-color="#FAD34E"/><stop offset="0.194605" stop-color="#FBD04B"/><stop offset="0.232261" stop-color="#FBCF49"/><stop offset="0.268661" stop-color="#FBCC46"/><stop offset="0.303806" stop-color="#FBCB45"/>
            <stop offset="0.337069" stop-color="#FBC840"/><stop offset="0.373469" stop-color="#FCC741"/><stop offset="0.407987" stop-color="#FCC33A"/><stop offset="0.445015" stop-color="#FCC138"/><stop offset="0.48016" stop-color="#FCBE34"/><stop offset="0.519071" stop-color="#FDBB30"/><stop offset="0.551078" stop-color="#FDB92D"/><stop offset="0.586851" stop-color="#FDB629"/><stop offset="0.620741" stop-color="#FDB527"/>
            <stop offset="0.660279" stop-color="#FDB224"/><stop offset="0.697307" stop-color="#FEB021"/><stop offset="0.733707" stop-color="#FEAD1D"/><stop offset="0.767597" stop-color="#FEAB1B"/><stop offset="0.801487" stop-color="#FEA919"/><stop offset="0.836632" stop-color="#FEA716"/><stop offset="0.875543" stop-color="#FFA614"/><stop offset="0.911943" stop-color="#FEA412"/><stop offset="0.947334" stop-color="#FFA310"/>
            <stop offset="0.979724" stop-color="#FFA519"/>
        </linearGradient>
        <linearGradient id="paint1_linear" x1="1" y1="6" x2="0.999999" y2="34" gradientUnits="userSpaceOnUse">
            <stop offset="0.0151138" stop-color="#FADD68"/><stop offset="0.0527693" stop-color="#FAD754"/><stop offset="0.0910525" stop-color="#FAD652"/><stop offset="0.12557" stop-color="#FAD450"/><stop offset="0.160088" stop-color="#FAD34E"/><stop offset="0.194605" stop-color="#FBD04B"/><stop offset="0.232261" stop-color="#FBCF49"/><stop offset="0.268661" stop-color="#FBCC46"/><stop offset="0.303806" stop-color="#FBCB45"/>
            <stop offset="0.337069" stop-color="#FBC840"/><stop offset="0.373469" stop-color="#FCC741"/><stop offset="0.407987" stop-color="#FCC33A"/><stop offset="0.445015" stop-color="#FCC138"/><stop offset="0.48016" stop-color="#FCBE34"/><stop offset="0.519071" stop-color="#FDBB30"/><stop offset="0.551078" stop-color="#FDB92D"/><stop offset="0.586851" stop-color="#FDB629"/><stop offset="0.620741" stop-color="#FDB527"/>
            <stop offset="0.660279" stop-color="#FDB224"/><stop offset="0.697307" stop-color="#FEB021"/><stop offset="0.733707" stop-color="#FEAD1D"/><stop offset="0.767597" stop-color="#FEAB1B"/><stop offset="0.801487" stop-color="#FEA919"/><stop offset="0.836632" stop-color="#FEA716"/><stop offset="0.875543" stop-color="#FFA614"/><stop offset="0.911943" stop-color="#FEA412"/><stop offset="0.947334" stop-color="#FFA310"/>
            <stop offset="0.979724" stop-color="#FFA519"/>
        </linearGradient>
        <linearGradient id="paint2_linear" x1="1" y1="6" x2="0.999999" y2="34" gradientUnits="userSpaceOnUse">
            <stop offset="0.0151138" stop-color="#FADD68"/><stop offset="0.0527693" stop-color="#FAD754"/><stop offset="0.0910525" stop-color="#FAD652"/><stop offset="0.12557" stop-color="#FAD450"/><stop offset="0.160088" stop-color="#FAD34E"/><stop offset="0.194605" stop-color="#FBD04B"/><stop offset="0.232261" stop-color="#FBCF49"/><stop offset="0.268661" stop-color="#FBCC46"/><stop offset="0.303806" stop-color="#FBCB45"/>
            <stop offset="0.337069" stop-color="#FBC840"/><stop offset="0.373469" stop-color="#FCC741"/><stop offset="0.407987" stop-color="#FCC33A"/><stop offset="0.445015" stop-color="#FCC138"/><stop offset="0.48016" stop-color="#FCBE34"/><stop offset="0.519071" stop-color="#FDBB30"/><stop offset="0.551078" stop-color="#FDB92D"/><stop offset="0.586851" stop-color="#FDB629"/><stop offset="0.620741" stop-color="#FDB527"/>
            <stop offset="0.660279" stop-color="#FDB224"/><stop offset="0.697307" stop-color="#FEB021"/><stop offset="0.733707" stop-color="#FEAD1D"/><stop offset="0.767597" stop-color="#FEAB1B"/><stop offset="0.801487" stop-color="#FEA919"/><stop offset="0.836632" stop-color="#FEA716"/><stop offset="0.875543" stop-color="#FFA614"/><stop offset="0.911943" stop-color="#FEA412"/><stop offset="0.947334" stop-color="#FFA310"/>
            <stop offset="0.979724" stop-color="#FFA519"/>
        </linearGradient>
    </defs>
    <g id="icon">
        <path d="M15 15C11.5835 15 9.35059 17.093 8 20H2.5C1.67163 20 1 19.3284 1 18.5C1 17.6716 1.67163 17 2.5 17C2.74084 17 2.96838 17.0568 3.17004 17.1577C3.05945 16.7912 3 16.4025 3 16C3 13.7909 4.79089 12 7 12C7.73462 12 8.42297 12.198 9.01465 12.5436C9.24976 8.89035 12.2874 6 16 6C19.4714 6 22.4481 8.68515 23 12C21.475 13.017 19.8594 14.3702 19 16C17.8655 15.4389 16.3513 15 15 15Z" fill="url(#paint0_linear)"/>
        <path d="M11.8307 34H11.5C11.5 34 11.6315 34.0067 11.8307 34Z" fill="url(#paint1_linear)"/>
        <path d="M15 32C14.0364 32.9636 12.9495 34 11.5 34H10C7.79089 34 6 32.2091 6 30C6 27.9565 7.53235 26.271 9.51062 26.0296C9.18176 25.2521 9 24.3973 9 23.5C9 19.9102 11.9102 17 15.5 17C17.3571 17 18.8156 17.7512 20 19C20.8992 14.9781 24.707 12 29 12C33.9706 12 38 16.0294 38 21C38 21.713 37.5692 23.1091 37.2666 24.0898L37.1783 24.3763C37.1562 24.4485 37.1354 24.5171 37.1161 24.5817C37.0645 24.7543 37.0238 24.8976 37 25C37.2401 24.968 39 23 39 23C39 23 44 23.8116 44 28.5C44 31.5376 41.5376 34 38.5 34H30.5C28.0148 34 26 31.9853 26 29.5C26 26.5344 28.4254 25.0568 31 25C29.7162 25.3237 29 26.7681 29 28C29 29.6569 30 31 32 31C37 31 36 22 28 22C26.059 22 24.3024 22.79 23.0344 24.0661C23.0344 24.0661 23.2355 23.7728 15 32Z" fill="url(#paint2_linear)"/>
    </g>
</svg>
