<svg xmlns="http://www.w3.org/2000/svg" width="36" height="36" fill="none" xmlns:v="https://vecta.io/nano"><path d="M9.255 15.312A6.03 6.03 0 0 0 7.803 17H3a1 1 0 1 1 0-2c.552 0 1 .453 1.035 1A3.53 3.53 0 0 1 4 15.5 3.5 3.5 0 0 1 7.5 12c.17 0 .337.012.5.036V12a5 5 0 0 1 5-5c2.451 0 4.49 1.763 4.917 4.09.054.295.083.599.083.91l-.017.42c-.694.754-1.142 1.59-1.483 2.58-.967-.668-2.235-1-3.5-1-1.417 0-2.719.491-3.745 1.312z" fill="url(#A)"/><path d="M24.5 28a3.5 3.5 0 0 1-3.5-3.5 3.54 3.54 0 0 1 3.785-3.489A2 2 0 0 0 25 25c.972 0 2-.853 2-2 0-3.128-2-4-5-4h-.019c-.981 0-1.881.33-3.231 1.575-2.967 2.79-4.767 5.152-7.363 6.873-.565.375-1.213.536-1.883.552C7.71 28 6 27.016 6 25a3 3 0 0 1 2.439-2.948A4.98 4.98 0 0 1 8 20a5 5 0 0 1 5-5c1.646 0 3.106.795 4.017 2.023A6.5 6.5 0 0 1 30 17.5c0 1.011-.26 2.024-.5 3 .224-.034 1-1.5 1-1.5a4.5 4.5 0 1 1 .013 9H30.5h-6z" fill="url(#A)"/><defs><linearGradient id="A" x1="18" y1="-14" x2="18" y2="28" gradientUnits="userSpaceOnUse"><stop offset=".012" stop-color="#009abc"/><stop offset=".038" stop-color="#009abc" stop-opacity=".112"/><stop offset=".061" stop-color="#009abc" stop-opacity="0"/><stop offset=".465" stop-color="#009abc" stop-opacity="0"/><stop offset=".49" stop-color="#fad855"/><stop offset=".513" stop-color="#fad855"/><stop offset=".536" stop-color="#fad653"/><stop offset=".56" stop-color="#fad450"/><stop offset=".586" stop-color="#fbd24d"/><stop offset=".61" stop-color="#fbcd47"/><stop offset=".631" stop-color="#fbcd47"/><stop offset=".656" stop-color="#fac942"/><stop offset=".677" stop-color="#fcc73f"/><stop offset=".703" stop-color="#fcc33a"/><stop offset=".728" stop-color="#fcc037"/><stop offset=".75" stop-color="#fcbd32"/><stop offset=".774" stop-color="#fdba2e"/><stop offset=".797" stop-color="#fdb72a"/><stop offset=".822" stop-color="#fdb326"/><stop offset=".845" stop-color="#feb021"/><stop offset=".87" stop-color="#fead1d"/><stop offset=".891" stop-color="#feaa1a"/><stop offset=".918" stop-color="#fea818"/><stop offset=".941" stop-color="#ffa614"/><stop offset=".965" stop-color="#fea412"/><stop offset=".986" stop-color="#ffa40f"/></linearGradient></defs></svg>