<svg width="40" height="40" viewBox="0 0 40 40" fill="none" xmlns="http://www.w3.org/2000/svg">
<path d="M11.2545 17.3124C10.672 17.7784 10.1783 18.3507 9.80269 19H5C4.44772 19 4 18.5523 4 18C4 17.4477 4.44772 17 5 17C5.55228 17 6.00031 17.4532 6.03544 18C6.01209 17.8367 6 17.6698 6 17.5C6 15.567 7.567 14 9.5 14C9.6698 14 9.83678 14.0121 10.0001 14.0355L10 14C10 11.2386 12.2386 9 15 9C17.4507 9 19.4896 10.7631 19.9174 13.0901C19.9717 13.3852 20 13.6893 20 14C20 14.1414 19.9941 14.2813 19.9826 14.4197C19.2883 15.1734 18.8405 16.01 18.5 17C17.5325 16.3317 16.2649 16 15 16C13.5832 16 12.281 16.4911 11.2545 17.3124Z" fill="url(#paint0_linear)"/>
<path d="M26.5 30C24.567 30 23 28.433 23 26.5C23 24.4811 24.7796 22.8499 26.7849 23.0114C25.7815 23.1187 25 23.9681 25 25C25 26.1046 25.8954 27 27 27C27.9724 27 29 26.1469 29 25C29 21.8716 27 21 24 21L23.9812 21C23 21 22.1001 21.3299 20.7507 22.575C17.7835 25.3645 15.9839 27.7266 13.3872 29.448C12.8221 29.8225 12.1746 29.9837 11.5041 30C9.71004 30 8 29.0156 8 27C8 25.5348 9.0504 24.3149 10.4393 24.0523C10.157 23.4261 10 22.7314 10 22C10 19.2386 12.2386 17 15 17C16.646 17 18.1062 17.7953 19.0173 19.0226C19.2617 15.6557 22.0707 13 25.5 13C29.0899 13 32 15.9101 32 19.5C32 20.511 31.7396 21.5239 31.5 22.5C31.7238 22.4657 32.5 21 32.5 21C34.9853 21 37 23.0147 37 25.5C37 27.9809 34.9924 29.9929 32.5132 30L32.5 30C30.495 30 28.4581 30 26.5 30Z" fill="url(#paint1_linear)"/>
<defs>
<linearGradient id="paint0_linear" x1="20" y1="-12" x2="20" y2="30" gradientUnits="userSpaceOnUse">
<stop offset="0.0120011" stop-color="#009ABC"/>
<stop offset="0.0381971" stop-color="#009ABC" stop-opacity="0.111943"/>
<stop offset="0.0611185" stop-color="#009ABC" stop-opacity="0"/>
<stop offset="0.0849755" stop-color="#009ABC" stop-opacity="0"/>
<stop offset="0.106961" stop-color="#009ABC" stop-opacity="0"/>
<stop offset="0.131754" stop-color="#009ABC" stop-opacity="0"/>
<stop offset="0.154675" stop-color="#009ABC" stop-opacity="0"/>
<stop offset="0.178532" stop-color="#009ABC" stop-opacity="0"/>
<stop offset="0.203793" stop-color="#009ABC" stop-opacity="0"/>
<stop offset="0.225779" stop-color="#009ABC" stop-opacity="0"/>
<stop offset="0.251975" stop-color="#009ABC" stop-opacity="0"/>
<stop offset="0.272557" stop-color="#009ABC" stop-opacity="0"/>
<stop offset="0.299689" stop-color="#009ABC" stop-opacity="0"/>
<stop offset="0.323078" stop-color="#009ABC" stop-opacity="0"/>
<stop offset="0.346935" stop-color="#009ABC" stop-opacity="0"/>
<stop offset="0.369856" stop-color="#009ABC" stop-opacity="0"/>
<stop offset="0.395117" stop-color="#009ABC" stop-opacity="0"/>
<stop offset="0.41757" stop-color="#009ABC" stop-opacity="0"/>
<stop offset="0.443299" stop-color="#009ABC" stop-opacity="0"/>
<stop offset="0.465284" stop-color="#009ABC" stop-opacity="0"/>
<stop offset="0.489609" stop-color="#FAD855"/>
<stop offset="0.513466" stop-color="#FAD855"/>
<stop offset="0.53592" stop-color="#FAD653"/>
<stop offset="0.559777" stop-color="#FAD450"/>
<stop offset="0.585973" stop-color="#FBD24D"/>
<stop offset="0.60983" stop-color="#FBCD47"/>
<stop offset="0.63088" stop-color="#FBCD47"/>
<stop offset="0.655673" stop-color="#FAC942"/>
<stop offset="0.677191" stop-color="#FCC73F"/>
<stop offset="0.703387" stop-color="#FCC33A"/>
<stop offset="0.727712" stop-color="#FCC037"/>
<stop offset="0.750165" stop-color="#FCBD32"/>
<stop offset="0.77449" stop-color="#FDBA2E"/>
<stop offset="0.797412" stop-color="#FDB72A"/>
<stop offset="0.822204" stop-color="#FDB326"/>
<stop offset="0.844658" stop-color="#FEB021"/>
<stop offset="0.869918" stop-color="#FEAD1D"/>
<stop offset="0.891436" stop-color="#FEAA1A"/>
<stop offset="0.9181" stop-color="#FEA818"/>
<stop offset="0.940554" stop-color="#FFA614"/>
<stop offset="0.965346" stop-color="#FEA412"/>
<stop offset="0.985929" stop-color="#FFA40F"/>
</linearGradient>
<linearGradient id="paint1_linear" x1="20" y1="-12" x2="20" y2="30" gradientUnits="userSpaceOnUse">
<stop offset="0.0120011" stop-color="#009ABC"/>
<stop offset="0.0381971" stop-color="#009ABC" stop-opacity="0.111943"/>
<stop offset="0.0611185" stop-color="#009ABC" stop-opacity="0"/>
<stop offset="0.0849755" stop-color="#009ABC" stop-opacity="0"/>
<stop offset="0.106961" stop-color="#009ABC" stop-opacity="0"/>
<stop offset="0.131754" stop-color="#009ABC" stop-opacity="0"/>
<stop offset="0.154675" stop-color="#009ABC" stop-opacity="0"/>
<stop offset="0.178532" stop-color="#009ABC" stop-opacity="0"/>
<stop offset="0.203793" stop-color="#009ABC" stop-opacity="0"/>
<stop offset="0.225779" stop-color="#009ABC" stop-opacity="0"/>
<stop offset="0.251975" stop-color="#009ABC" stop-opacity="0"/>
<stop offset="0.272557" stop-color="#009ABC" stop-opacity="0"/>
<stop offset="0.299689" stop-color="#009ABC" stop-opacity="0"/>
<stop offset="0.323078" stop-color="#009ABC" stop-opacity="0"/>
<stop offset="0.346935" stop-color="#009ABC" stop-opacity="0"/>
<stop offset="0.369856" stop-color="#009ABC" stop-opacity="0"/>
<stop offset="0.395117" stop-color="#009ABC" stop-opacity="0"/>
<stop offset="0.41757" stop-color="#009ABC" stop-opacity="0"/>
<stop offset="0.443299" stop-color="#009ABC" stop-opacity="0"/>
<stop offset="0.465284" stop-color="#009ABC" stop-opacity="0"/>
<stop offset="0.489609" stop-color="#FAD855"/>
<stop offset="0.513466" stop-color="#FAD855"/>
<stop offset="0.53592" stop-color="#FAD653"/>
<stop offset="0.559777" stop-color="#FAD450"/>
<stop offset="0.585973" stop-color="#FBD24D"/>
<stop offset="0.60983" stop-color="#FBCD47"/>
<stop offset="0.63088" stop-color="#FBCD47"/>
<stop offset="0.655673" stop-color="#FAC942"/>
<stop offset="0.677191" stop-color="#FCC73F"/>
<stop offset="0.703387" stop-color="#FCC33A"/>
<stop offset="0.727712" stop-color="#FCC037"/>
<stop offset="0.750165" stop-color="#FCBD32"/>
<stop offset="0.77449" stop-color="#FDBA2E"/>
<stop offset="0.797412" stop-color="#FDB72A"/>
<stop offset="0.822204" stop-color="#FDB326"/>
<stop offset="0.844658" stop-color="#FEB021"/>
<stop offset="0.869918" stop-color="#FEAD1D"/>
<stop offset="0.891436" stop-color="#FEAA1A"/>
<stop offset="0.9181" stop-color="#FEA818"/>
<stop offset="0.940554" stop-color="#FFA614"/>
<stop offset="0.965346" stop-color="#FEA412"/>
<stop offset="0.985929" stop-color="#FFA40F"/>
</linearGradient>
</defs>
</svg>
