<svg width="24" height="24" viewBox="0 0 24 24" xmlns="http://www.w3.org/2000/svg">
<path d="M20 12C20 16.4183 16.4182 20 12 20C10.6907 20 9.45489 19.6855 8.36398 19.1279C8.12767 19.0071 7.85592 18.9683 7.59956 19.0369L4.81363 19.7823C4.447 19.8804 4.10904 19.5503 4.19847 19.1815L4.90796 16.2555C4.96713 16.0115 4.92988 15.7554 4.81895 15.5301C4.29455 14.4654 3.99997 13.2671 3.99997 12C3.99997 7.58175 7.58169 4.00002 12 4.00002M14.2183 6.80914L12.2673 7.5311C11.8319 7.69218 11.8319 8.30787 12.2673 8.46895L14.2183 9.19091C14.492 9.29219 14.7078 9.508 14.8091 9.78172L15.5311 11.7328C15.6922 12.1681 16.3078 12.1681 16.4689 11.7328L17.1909 9.78172C17.2922 9.508 17.508 9.29219 17.7817 9.19091L19.7327 8.46895C20.1681 8.30787 20.1681 7.69218 19.7327 7.5311L17.7817 6.80914C17.508 6.70786 17.2922 6.49205 17.1909 6.21833L16.4689 4.26728C16.3078 3.83197 15.6922 3.83197 15.5311 4.26728L14.8091 6.21833C14.7078 6.49205 14.492 6.70786 14.2183 6.80914ZM10.0286 12.6194L9.5069 12.8125C9.33278 12.8769 9.33278 13.1232 9.5069 13.1876L10.0286 13.3806C10.3023 13.4819 10.5181 13.6977 10.6194 13.9714L10.8124 14.4931C10.8769 14.6672 11.1231 14.6672 11.1876 14.4931L11.3806 13.9714C11.4819 13.6977 11.6977 13.4819 11.9714 13.3806L12.4931 13.1876C12.6672 13.1232 12.6672 12.8769 12.4931 12.8125L11.9714 12.6194C11.6977 12.5181 11.4819 12.3023 11.3806 12.0286L11.1876 11.5069C11.1231 11.3328 10.8769 11.3328 10.8124 11.5069L10.6194 12.0286C10.5181 12.3023 10.3023 12.5181 10.0286 12.6194Z" stroke-linecap="round" stroke-linejoin="round"/>
</svg>
