<svg width="24" height="24" viewBox="0 0 24 24" xmlns="http://www.w3.org/2000/svg">
    <path d="M13.97 2.97a.75.75 0 0 1 1.06 0l6 6a.75.75 0 1 1-1.06 1.06l-.47-.47-3.344 3.345-1.444 4.332a.75.75 0 0 1-.182.293l-1.5 1.5a.75.75 0 0 1-1.06 0L9 16.06l-3.97 3.97a.75.75 0 0 1-1.06-1.06L7.94 15l-2.97-2.97a.75.75 0 0 1 0-1.06l1.5-1.5a.75.75 0 0 1 .348-.198l3.799-.95L14.439 4.5l-.47-.47a.75.75 0 0 1 0-1.06m1.53 2.59-3.97 3.97a.75.75 0 0 1-.348.198l-3.799.95-.822.822 5.939 5.94.845-.845 1.444-4.332a.75.75 0 0 1 .18-.293l3.47-3.47z"/>
</svg>
