<svg width="24" height="24" viewBox="0 0 24 24" xmlns="http://www.w3.org/2000/svg">
<path d="M19.5 5.5L19.5 10.5L18.5 10.5C17.9696 10.5 17.4609 10.7107 17.0858 11.0858C16.7107 11.4609 16.5 11.9696 16.5 12.5C16.5 13.0304 16.7107 13.5391 17.0858 13.9142C17.4609 14.2893 17.9696 14.5 18.5 14.5L19.5 14.5L19.5 19.5L14.5 19.5L14.5 18.5C14.5 17.9696 14.2893 17.4609 13.9142 17.0858C13.5391 16.7107 13.0304 16.5 12.5 16.5C11.9696 16.5 11.4609 16.7107 11.0858 17.0858C10.7107 17.4609 10.5 17.9696 10.5 18.5L10.5 19.5L5.5 19.5L5.5 14.5L4.5 14.5C3.96957 14.5 3.46086 14.2893 3.08579 13.9142C2.71071 13.5391 2.5 13.0304 2.5 12.5C2.5 11.9696 2.71071 11.4609 3.08579 11.0858C3.46086 10.7107 3.96957 10.5 4.5 10.5L5.5 10.5L5.5 5.5L10.5 5.5L10.5 4.5C10.5 3.96957 10.7107 3.46086 11.0858 3.08579C11.4609 2.71072 11.9696 2.5 12.5 2.5C13.0304 2.5 13.5391 2.71071 13.9142 3.08579C14.2893 3.46086 14.5 3.96957 14.5 4.5L14.5 5.5L19.5 5.5Z" stroke-linecap="round" stroke-linejoin="round"/>
</svg>
