<svg width="24" height="24" viewBox="0 0 24 24" xmlns="http://www.w3.org/2000/svg">
<path d="M5.5 8.5H12.5M12.5 8.5C12.5 9.60457 13.3954 10.5 14.5 10.5C15.6046 10.5 16.5 9.60457 16.5 8.5M12.5 8.5C12.5 7.39543 13.3954 6.5 14.5 6.5C15.6046 6.5 16.5 7.39543 16.5 8.5M18.5 15.5H11.5M11.5 15.5C11.5 16.6046 10.6046 17.5 9.5 17.5C8.39543 17.5 7.5 16.6046 7.5 15.5M11.5 15.5C11.5 14.3954 10.6046 13.5 9.5 13.5C8.39543 13.5 7.5 14.3954 7.5 15.5M16.5 8.5H18.5M7.5 15.5H5.5" stroke-linecap="round" stroke-linejoin="round"/>
</svg>
