<svg width="24" height="24" xmlns="http://www.w3.org/2000/svg"><path fill-rule="evenodd" clip-rule="evenodd" d="m14.213 18.909 1.257-1.258a1 1 0 0 0 .285-.582l.244-1.95 3.97 3.972 1.061-1.06-4.72-4.72-1.06-1.061-3.44-3.44-1.06-1.06-4.72-4.72-1.06 1.06L8.94 8.063l-1.949.244a1 1 0 0 0-.583.285L5.152 9.848a1 1 0 0 0 .006 1.42l3.344 3.292-3 3-1.5 2.5 2.5-1.5 3-3 3.291 3.343a1 1 0 0 0 1.42.006ZM7.348 9.773l-.787.787 6.94 6.94.787-.788.367-2.936-4.37-4.37-2.937.367Z" fill="#000"/><path d="m15 5.621 3.44 3.44-1.644 1.643 1.06 1.061 1.644-1.644.5.5 1.06-1.06L14.5 3l-1.06 1.06.5.5-1.644 1.644 1.06 1.061L15 5.621Z"/></svg>