<svg width="104" height="40" viewBox="0 0 104 40" fill="none" xmlns="http://www.w3.org/2000/svg">
<g clip-path="url(#clip0_10_2369)">
<path d="M38.8905 23.2763L37.5583 24.6455V29H34.5607V10.0526H37.5583V20.9819L38.4958 19.81L42.1841 15.6529H45.7861L40.8272 21.2163L46.3165 29H42.8502L38.8905 23.2763Z" fill="white"/>
<path d="M48.0435 29V11.0395H53.3477C54.9349 11.0395 56.3412 11.3931 57.5665 12.1003C58.8 12.8075 59.754 13.8108 60.4283 15.1102C61.1027 16.4095 61.4398 17.898 61.4398 19.5756V20.4761C61.4398 22.1784 61.0986 23.6751 60.416 24.9663C59.7417 26.2574 58.7754 27.2524 57.5172 27.9515C56.2672 28.6505 54.8321 29 53.2121 29H48.0435ZM51.1644 13.5559V26.5082H53.1997C54.8362 26.5082 56.0903 25.9983 56.9621 24.9786C57.842 23.9506 58.2902 22.4786 58.3066 20.5625V19.5633C58.3066 17.6143 57.8831 16.1258 57.0361 15.0978C56.189 14.0699 54.9596 13.5559 53.3477 13.5559H51.1644Z" fill="white"/>
<path d="M71.2466 18.3914C70.8519 18.3256 70.4448 18.2927 70.0254 18.2927C68.652 18.2927 67.7269 18.8191 67.2499 19.8717V29H64.2523V15.6529H67.1142L67.1882 17.1455C67.9119 15.986 68.9152 15.4062 70.1981 15.4062C70.6257 15.4062 70.9793 15.4638 71.2589 15.5789L71.2466 18.3914Z" fill="white"/>
<path d="M76.3287 29H73.3312V15.6529H76.3287V29ZM73.1462 12.1867C73.1462 11.7261 73.2901 11.3437 73.5779 11.0395C73.874 10.7352 74.2934 10.583 74.8361 10.583C75.3789 10.583 75.7983 10.7352 76.0944 11.0395C76.3904 11.3437 76.5384 11.7261 76.5384 12.1867C76.5384 12.639 76.3904 13.0173 76.0944 13.3215C75.7983 13.6176 75.3789 13.7656 74.8361 13.7656C74.2934 13.7656 73.874 13.6176 73.5779 13.3215C73.2901 13.0173 73.1462 12.639 73.1462 12.1867Z" fill="white"/>
<path d="M84.3099 25.2006L87.1347 15.6529H90.231L85.6051 29H83.0023L78.3395 15.6529H81.4481L84.3099 25.2006Z" fill="white"/>
<path d="M97.8173 29.2467C95.9176 29.2467 94.3757 28.6505 93.1915 27.458C92.0155 26.2574 91.4275 24.662 91.4275 22.6719V22.3018C91.4275 20.9696 91.6824 19.7812 92.1923 18.7368C92.7104 17.6842 93.4341 16.8659 94.3634 16.2821C95.2926 15.6982 96.3288 15.4062 97.4719 15.4062C99.2894 15.4062 100.691 15.986 101.678 17.1455C102.673 18.3051 103.171 19.9457 103.171 22.0674V23.2763H94.4497C94.5402 24.3783 94.9061 25.25 95.5476 25.8914C96.1972 26.5329 97.0114 26.8536 97.99 26.8536C99.3634 26.8536 100.482 26.2985 101.345 25.1883L102.961 26.7302C102.427 27.5279 101.711 28.1488 100.815 28.5929C99.9267 29.0288 98.9275 29.2467 97.8173 29.2467ZM97.4596 17.8117C96.6372 17.8117 95.9711 18.0995 95.4612 18.6751C94.9596 19.2508 94.6389 20.0526 94.4991 21.0806H100.21V20.8585C100.145 19.8552 99.8773 19.0987 99.4086 18.5888C98.9398 18.0707 98.2902 17.8117 97.4596 17.8117Z" fill="white"/>
<path fill-rule="evenodd" clip-rule="evenodd" d="M13.4328 8.30246L15.6448 9.22715C15.9833 9.36867 16.245 9.64838 16.3638 9.99555L17.2433 12.5662C17.3848 12.9801 17.7275 13.2933 18.1523 13.3972L27.3554 15.648C27.9296 15.7885 28.3335 16.3031 28.3335 16.8943V27.6325C28.3335 28.3411 27.7591 28.9155 27.0506 28.9155C26.9227 28.9155 26.7955 28.8964 26.6733 28.8588L12.5607 24.5164C12.0224 24.3508 11.655 23.8534 11.655 23.2902V9.48615C11.655 8.77759 12.2294 8.20319 12.938 8.20319C13.1079 8.20319 13.2761 8.23693 13.4328 8.30246Z" fill="#C2C5C7"/>
<path fill-rule="evenodd" clip-rule="evenodd" d="M10.2252 10.8684L12.4371 11.7931C12.7757 11.9347 13.0374 12.2144 13.1562 12.5615L14.0356 15.1322C14.1772 15.546 14.5198 15.8592 14.9447 15.9632L24.1477 18.214C24.722 18.3545 25.1259 18.8691 25.1259 19.4602V30.1985C25.1259 30.9071 24.5515 31.4815 23.8429 31.4815C23.715 31.4815 23.5879 31.4623 23.4656 31.4247L9.35305 27.0824C8.81473 26.9168 8.44739 26.4194 8.44739 25.8562V12.0521C8.44739 11.3436 9.02179 10.7692 9.73035 10.7692C9.90024 10.7692 10.0684 10.8029 10.2252 10.8684Z" fill="#9CA0A4"/>
<path fill-rule="evenodd" clip-rule="evenodd" d="M7.01791 13.0493L9.22984 13.974C9.56838 14.1156 9.83012 14.3953 9.94889 14.7424L10.8283 17.3131C10.9699 17.727 11.3126 18.0402 11.7374 18.1441L20.9405 20.3949C21.5147 20.5354 21.9186 21.05 21.9186 21.6412V32.3794C21.9186 33.088 21.3442 33.6624 20.6357 33.6624C20.5078 33.6624 20.3806 33.6433 20.2584 33.6056L6.14577 29.2633C5.60745 29.0977 5.24011 28.6003 5.24011 28.0371V14.233C5.24011 13.5245 5.81451 12.9501 6.52307 12.9501C6.69297 12.9501 6.86117 12.9838 7.01791 13.0493Z" fill="#83888D"/>
<path fill-rule="evenodd" clip-rule="evenodd" d="M7.01791 13.0493L9.22984 13.974C9.56838 14.1156 9.83012 14.3953 9.94889 14.7424L10.8283 17.3131C10.9699 17.727 11.3126 18.0402 11.7374 18.1441L20.9405 20.3949C21.5147 20.5354 21.9186 21.05 21.9186 21.6412V32.3794C21.9186 33.088 21.3442 33.6624 20.6357 33.6624C20.5078 33.6624 20.3806 33.6433 20.2584 33.6056L6.14577 29.2633C5.60745 29.0977 5.24011 28.6003 5.24011 28.0371V14.233C5.24011 13.5245 5.81451 12.9501 6.52307 12.9501C6.69297 12.9501 6.86117 12.9838 7.01791 13.0493Z" fill="black" fill-opacity="0.15"/>
<path fill-rule="evenodd" clip-rule="evenodd" d="M3.76402 18.7384L18.0185 22.698C18.4488 22.8175 18.786 23.1522 18.9087 23.5817L21.5937 32.9792C21.691 33.3198 21.4938 33.6749 21.1531 33.7722C21.0337 33.8063 20.9069 33.805 20.7882 33.7685L5.85758 29.1745C5.46915 29.0549 5.16032 28.7585 5.02506 28.3752L2.21082 20.4015C1.975 19.7334 2.32548 19.0006 2.99365 18.7647C3.24167 18.6772 3.5106 18.668 3.76402 18.7384Z" fill="#83888D"/>
</g>
<defs>
<clipPath id="clip0_10_2369">
<rect width="104" height="40" fill="white"/>
</clipPath>
</defs>
</svg>
