<svg xmlns="http://www.w3.org/2000/svg" width="84" height="32" fill="none" xmlns:v="https://vecta.io/nano"><path d="M31.335 18.621l-1.066 1.095V23.2h-2.398V8.042h2.398v8.743l.75-.937 2.951-3.326h2.882l-3.967 4.451 4.392 6.227h-2.773l-3.168-4.579zm7.322 4.579V8.832h4.244c1.27 0 2.395.283 3.375.849a5.77 5.77 0 0 1 2.289 2.408c.539 1.04.809 2.23.809 3.572v.72c0 1.362-.273 2.559-.819 3.592-.54 1.033-1.312 1.829-2.319 2.388-1 .559-2.148.839-3.444.839h-4.135zm2.497-12.355v10.362h1.628c1.309 0 2.313-.408 3.01-1.224.704-.822 1.063-2 1.076-3.533v-.799c0-1.559-.339-2.75-1.017-3.572s-1.661-1.234-2.951-1.234h-1.747zm16.066 3.868a5.89 5.89 0 0 0-.977-.079c-1.099 0-1.839.421-2.22 1.263V23.2h-2.398V12.522h2.29l.059 1.194c.579-.928 1.382-1.391 2.408-1.391.342 0 .625.046.849.138l-.01 2.25zm4.065 8.487h-2.398V12.522h2.398V23.2zM58.739 9.749c0-.368.115-.674.345-.918.237-.243.572-.365 1.007-.365s.77.122 1.007.365a1.26 1.26 0 0 1 .355.918 1.25 1.25 0 0 1-.355.908c-.237.237-.572.355-1.007.355s-.77-.118-1.007-.355a1.27 1.27 0 0 1-.345-.908zm8.931 10.412l2.26-7.638h2.477L68.706 23.2h-2.082l-3.73-10.678h2.487l2.289 7.638zm10.806 3.236c-1.52 0-2.753-.477-3.701-1.431-.941-.96-1.411-2.237-1.411-3.829v-.296c0-1.066.204-2.016.612-2.852.415-.842.993-1.497 1.737-1.964a4.58 4.58 0 0 1 2.487-.701c1.454 0 2.576.464 3.365 1.391.796.928 1.194 2.24 1.194 3.938v.967h-6.977c.072.882.365 1.579.878 2.092.52.513 1.171.77 1.954.77 1.099 0 1.993-.444 2.684-1.332l1.293 1.234c-.428.638-1 1.135-1.717 1.49-.71.349-1.51.523-2.398.523zm-.286-9.148c-.658 0-1.191.23-1.599.691-.401.461-.658 1.102-.77 1.924h4.569v-.178c-.053-.803-.267-1.408-.642-1.816-.375-.414-.895-.622-1.559-.622z" fill="#fff"/><g fill-rule="evenodd"><path opacity=".504" d="M11.073 5.358l1.857.773c.284.118.504.352.604.643l.739 2.15c.119.346.407.608.763.695l7.728 1.882c.482.117.821.548.821 1.042v8.979c0 .593-.482 1.073-1.077 1.073-.107 0-.214-.016-.317-.047l-11.851-3.631c-.452-.139-.761-.554-.761-1.025V6.347c0-.592.482-1.073 1.077-1.073a1.08 1.08 0 0 1 .416.083z" fill="#d0dfff"/><path opacity=".8" d="M8.38 7.503l1.857.773c.284.118.504.352.604.643l.739 2.149c.119.346.407.608.763.695l7.728 1.882c.482.117.821.548.821 1.042v8.979c0 .592-.482 1.073-1.077 1.073-.107 0-.214-.016-.317-.047L7.647 21.061c-.452-.139-.761-.554-.761-1.025V8.493c0-.592.482-1.073 1.077-1.073a1.08 1.08 0 0 1 .416.083z" fill="#b3caff"/><path opacity=".8" d="M18.199 21.323l2.693.825v-7.461c0-.494-.339-.925-.821-1.042l-7.728-1.882c-.357-.087-.645-.349-.763-.695l-.738-2.149c-.1-.29-.32-.524-.604-.643l-.657-.273v5.565l.069.019 7.728 1.882c.482.117.821.548.821 1.042v4.812z" fill="#aac4ff"/><path d="M5.686 9.327l1.857.773c.284.118.504.352.604.643l.739 2.149c.119.346.407.608.763.695l7.728 1.882c.482.117.821.548.821 1.042v8.979c0 .593-.482 1.073-1.077 1.073a1.08 1.08 0 0 1-.317-.047L4.954 22.884c-.452-.139-.761-.554-.761-1.025V10.317c0-.592.482-1.073 1.077-1.073a1.08 1.08 0 0 1 .416.083z" fill="#1a47ff"/><path d="M2.954 14.084l11.97 3.311c.361.1.645.38.748.739l2.255 7.858c.082.285-.084.582-.37.663a.54.54 0 0 1-.306-.003L4.712 22.81c-.326-.1-.586-.348-.699-.668L1.65 15.474a1.07 1.07 0 0 1 .657-1.369 1.08 1.08 0 0 1 .647-.022z" fill="#5287ff"/></g></svg>