<svg width="36" height="36" viewBox="0 0 36 36" fill="none" xmlns="http://www.w3.org/2000/svg">
<path fill-rule="evenodd" clip-rule="evenodd" d="M16.5895 6.57219L18.5803 7.40441C18.8849 7.53179 19.1205 7.78352 19.2274 8.09598L20.0189 10.4096C20.1463 10.782 20.4547 11.0639 20.8371 11.1574L29.1198 13.1832C29.6366 13.3096 30.0002 13.7728 30.0002 14.3048V23.9693C30.0002 24.607 29.4832 25.1239 28.8455 25.1239C28.7304 25.1239 28.6159 25.1067 28.5059 25.0729L15.8046 21.1648C15.3201 21.0157 14.9895 20.5681 14.9895 20.0612V7.63751C14.9895 6.99981 15.5065 6.48285 16.1442 6.48285C16.2971 6.48285 16.4485 6.51322 16.5895 6.57219Z" fill="#C2C5C7"/>
<path fill-rule="evenodd" clip-rule="evenodd" d="M13.7027 8.88158L15.6934 9.7138C15.9981 9.84117 16.2337 10.0929 16.3406 10.4054L17.1321 12.719C17.2595 13.0914 17.5679 13.3733 17.9502 13.4668L26.233 15.4926C26.7498 15.619 27.1133 16.0822 27.1133 16.6142V26.2786C27.1133 26.9163 26.5964 27.4333 25.9587 27.4333C25.8436 27.4333 25.7291 27.4161 25.6191 27.3822L12.9178 23.4741C12.4333 23.3251 12.1027 22.8774 12.1027 22.3705V9.9469C12.1027 9.3092 12.6196 8.79224 13.2573 8.79224C13.4102 8.79224 13.5616 8.82261 13.7027 8.88158Z" fill="#9CA0A4"/>
<path fill-rule="evenodd" clip-rule="evenodd" d="M10.8161 10.8444L12.8068 11.6766C13.1115 11.804 13.3471 12.0557 13.454 12.3682L14.2455 14.6818C14.3729 15.0543 14.6813 15.3361 15.0637 15.4297L23.3464 17.4554C23.8632 17.5818 24.2267 18.045 24.2267 18.577V28.2415C24.2267 28.8792 23.7098 29.3961 23.0721 29.3961C22.957 29.3961 22.8425 29.3789 22.7325 29.3451L10.0312 25.437C9.54667 25.2879 9.21606 24.8403 9.21606 24.3334V11.9097C9.21606 11.272 9.73303 10.7551 10.3707 10.7551C10.5236 10.7551 10.675 10.7854 10.8161 10.8444Z" fill="#83888D"/>
<path fill-rule="evenodd" clip-rule="evenodd" d="M10.8161 10.8444L12.8068 11.6766C13.1115 11.804 13.3471 12.0557 13.454 12.3682L14.2455 14.6818C14.3729 15.0543 14.6813 15.3361 15.0637 15.4297L23.3464 17.4554C23.8632 17.5818 24.2267 18.045 24.2267 18.577V28.2415C24.2267 28.8792 23.7098 29.3961 23.0721 29.3961C22.957 29.3961 22.8425 29.3789 22.7325 29.3451L10.0312 25.437C9.54667 25.2879 9.21606 24.8403 9.21606 24.3334V11.9097C9.21606 11.272 9.73303 10.7551 10.3707 10.7551C10.5236 10.7551 10.675 10.7854 10.8161 10.8444Z" fill="black" fill-opacity="0.15"/>
<path fill-rule="evenodd" clip-rule="evenodd" d="M7.8876 15.9645L20.7166 19.5282C21.1039 19.6357 21.4074 19.937 21.5178 20.3235L23.9343 28.7812C24.0219 29.0878 23.8444 29.4074 23.5378 29.495C23.4303 29.5257 23.3162 29.5245 23.2094 29.4917L9.77181 25.357C9.42222 25.2494 9.14427 24.9826 9.02254 24.6377L6.48973 17.4614C6.27748 16.86 6.59292 16.2005 7.19427 15.9883C7.41749 15.9095 7.65953 15.9012 7.8876 15.9645Z" fill="#83888D"/>
</svg>
