<svg xmlns="http://www.w3.org/2000/svg" width="36" height="36" fill="none" fill-rule="evenodd" xmlns:v="https://vecta.io/nano"><path opacity=".504" d="M16.416 4.605l2.334.975c.357.149.633.444.758.811l.928 2.712c.149.437.511.767.959.877l9.709 2.375c.606.148 1.032.691 1.032 1.315v11.328c0 .747-.606 1.354-1.353 1.354a1.35 1.35 0 0 1-.398-.06L15.496 21.71c-.568-.175-.956-.699-.956-1.294V5.853c0-.748.606-1.353 1.354-1.353.179 0 .357.036.522.105z" fill="#d0dfff"/><path opacity=".8" d="M13.032 7.312l2.334.976c.357.149.633.444.758.811l.928 2.712c.149.437.511.767.959.877l9.709 2.375c.606.148 1.032.691 1.032 1.315v11.328c0 .747-.606 1.353-1.354 1.353a1.35 1.35 0 0 1-.398-.06l-14.888-4.581c-.568-.175-.955-.7-.955-1.294V8.56c0-.747.606-1.353 1.353-1.353.179 0 .357.036.522.105z" fill="#b3caff"/><path opacity=".8" d="M25.368 24.747l3.383 1.041v-9.413c0-.624-.426-1.166-1.032-1.315l-9.709-2.375c-.448-.11-.81-.44-.959-.877l-.928-2.712c-.125-.366-.401-.661-.759-.811l-.825-.345v7.021l.087.024 9.709 2.375c.606.148 1.032.691 1.032 1.315v6.071z" fill="#aac4ff"/><path d="M9.649 9.613l2.333.975c.357.149.633.444.759.811l.928 2.712c.149.437.511.767.959.877l9.709 2.374c.606.148 1.032.691 1.032 1.315v11.328c0 .747-.606 1.354-1.353 1.354-.135 0-.269-.02-.398-.06L8.729 26.717c-.568-.175-.955-.699-.955-1.294V10.861c0-.748.606-1.353 1.353-1.353.179 0 .357.036.522.105z" fill="#1a47ff"/><path d="M6.216 15.614l15.038 4.177c.454.126.81.479.939.932l2.832 9.914c.103.359-.105.734-.465.837-.126.036-.26.035-.385-.004L8.425 26.624c-.41-.126-.736-.439-.878-.843l-2.969-8.412c-.249-.705.121-1.478.826-1.727.262-.092.545-.102.813-.028z" fill="#5287ff"/></svg>