<svg width="148" height="40" viewBox="0 0 148 40" fill="none" xmlns="http://www.w3.org/2000/svg">
    <path d="M49.075 31.557v-8.233c0-1.721-.711-2.582-2.133-2.582-1.422 0-2.133.86-2.134 2.582v8.233h-4.19v-8.233c0-1.721-.7-2.582-2.096-2.582-1.423 0-2.133.86-2.133 2.582v8.233H32.2v-8.719c0-1.796.623-3.156 1.87-4.078 1.098-.824 2.582-1.236 4.453-1.236 1.897 0 3.294.486 4.191 1.46.773-.974 2.183-1.46 4.23-1.46 1.87 0 3.354.412 4.452 1.236 1.247.922 1.87 2.281 1.87 4.078v8.719h-4.19Zm51.367-.038V8h4.196v23.519h-4.196Zm-5.346 0v-1.386c-.375.5-1.012.899-1.91 1.198-.8.274-1.561.411-2.285.412-1.997 0-3.601-.686-4.812-2.06-1.21-1.373-1.816-3.07-1.817-5.093 0-1.996.59-3.672 1.78-5.018 1.053-1.19 2.765-2.022 4.737-2.022 2.221 0 3.52.834 4.307 1.797V8h4.083v23.519h-4.083Zm0-7.827c0-.75-.356-1.467-1.068-2.154-.712-.687-1.442-1.03-2.19-1.03-1.074 0-1.923.437-2.547 1.31-.55.776-.824 1.724-.824 2.847 0 1.099.275 2.035.824 2.808.624.9 1.473 1.35 2.547 1.348.649 0 1.354-.305 2.115-.917.762-.611 1.143-1.242 1.143-1.891v-2.321Zm-18.724 8.201c-2.123 0-3.876-.674-5.262-2.023-1.385-1.348-2.078-3.084-2.079-5.206 0-2.121.693-3.856 2.08-5.205 1.385-1.349 3.14-2.023 5.261-2.023 2.122 0 3.882.675 5.28 2.023 1.4 1.348 2.098 3.083 2.098 5.205 0 2.123-.7 3.859-2.098 5.206-1.398 1.348-3.158 2.022-5.28 2.023Zm0-11.085c-1.011 0-1.788.382-2.332 1.148-.543.765-.814 1.675-.813 2.728 0 1.054.253 1.944.758 2.672.58.828 1.377 1.242 2.388 1.241 1.01 0 1.806-.415 2.387-1.24.53-.728.795-1.619.795-2.673s-.252-1.944-.757-2.672c-.582-.803-1.39-1.204-2.426-1.204ZM61.205 31.893c-2.123 0-3.877-.674-5.262-2.023-1.386-1.348-2.079-3.084-2.079-5.206 0-2.121.693-3.856 2.079-5.205 1.385-1.35 3.14-2.023 5.262-2.022 2.12 0 3.881.674 5.28 2.022 1.4 1.349 2.098 3.084 2.097 5.206 0 2.123-.699 3.858-2.097 5.206-1.398 1.348-3.158 2.021-5.28 2.022Zm0-11.085c-1.011 0-1.788.382-2.332 1.148-.544.765-.815 1.675-.814 2.728 0 1.053.252 1.944.757 2.672.581.828 1.377 1.242 2.389 1.24 1.01 0 1.806-.414 2.387-1.24.53-.727.795-1.618.796-2.672 0-1.054-.253-1.944-.758-2.672-.581-.803-1.39-1.204-2.425-1.204Zm48.399 5.131c.09.998 1.388 3.145 3.521 3.145 2.077 0 3.06-1.199 3.108-1.685l4.419-.038c-.482 1.475-2.441 4.607-7.604 4.607-2.147 0-4.112-.668-5.523-2.003-1.412-1.336-2.116-3.077-2.116-5.225 0-2.222.705-3.988 2.116-5.298 1.41-1.311 3.239-1.967 5.487-1.966 2.446 0 4.356.811 5.729 2.434 1.274 1.498 1.911 3.507 1.911 6.03l-11.048-.002Zm6.854-2.585c-.175-.899-.55-1.636-1.124-2.21-.65-.623-1.399-.935-2.246-.936-.875 0-1.605.3-2.192.899-.586.6-.979 1.348-1.179 2.247h6.741Z" fill="#F27F22"/>
    <path d="m40.339 16.89 4.163-3.04-.054-.185c-7.51.918-10.927 1.57-17.397 5.321l.06.17.514.005c-.047.519-.13 1.799-.024 3.723-.718 2.078-.018 3.49.639 5.024.103-1.598.093-3.346-.398-5.086-.102-1.912-.018-3.17.028-3.658l4.29.04s-.029 1.297.127 2.516c3.833 1.346 7.687-.005 9.732-3.325-.566-.637-1.68-1.505-1.68-1.505Z" fill="#fff"/>
</svg>
