<svg width="94" height="24" fill="none" xmlns="http://www.w3.org/2000/svg"><g clip-path="url(#a)"><path d="M22.075 23.557v-8.233c0-1.721-.71-2.582-2.132-2.582-1.422 0-2.133.86-2.134 2.582v8.233h-4.19v-8.233c0-1.721-.7-2.582-2.096-2.582-1.423 0-2.133.86-2.133 2.582v8.233H5.2v-8.719c0-1.796.623-3.156 1.87-4.078 1.098-.824 2.582-1.236 4.453-1.236 1.897 0 3.294.487 4.191 1.46.773-.973 2.183-1.46 4.23-1.46 1.87 0 3.354.412 4.452 1.236 1.247.922 1.87 2.281 1.87 4.078v8.719h-4.19zM73.441 23.519V0h4.196v23.519H73.44zM68.097 23.519v-1.386c-.375.5-1.012.899-1.91 1.198-.8.274-1.561.411-2.285.412-1.997 0-3.601-.686-4.812-2.06-1.21-1.373-1.816-3.07-1.817-5.093 0-1.996.59-3.672 1.78-5.018 1.053-1.19 2.765-2.022 4.737-2.022 2.221 0 3.52.834 4.307 1.797V0h4.083v23.519h-4.083zm0-7.827c0-.75-.356-1.467-1.068-2.154-.712-.687-1.442-1.03-2.19-1.03-1.074 0-1.923.437-2.547 1.31-.55.776-.824 1.724-.824 2.847 0 1.099.275 2.035.824 2.808.624.9 1.473 1.35 2.547 1.348.648 0 1.354-.305 2.115-.917.762-.611 1.143-1.242 1.143-1.891v-2.321zM49.372 23.893c-2.123 0-3.877-.674-5.262-2.023-1.385-1.348-2.078-3.084-2.079-5.206 0-2.121.693-3.856 2.08-5.205 1.385-1.349 3.14-2.023 5.261-2.022 2.122 0 3.882.674 5.28 2.022 1.4 1.348 2.098 3.083 2.098 5.205 0 2.123-.7 3.859-2.098 5.206-1.398 1.348-3.158 2.022-5.28 2.023zm0-11.085c-1.011 0-1.788.383-2.331 1.148-.544.765-.815 1.675-.814 2.728 0 1.054.253 1.944.758 2.672.58.828 1.377 1.242 2.388 1.241 1.01 0 1.806-.414 2.387-1.24.53-.728.795-1.619.795-2.673s-.252-1.944-.757-2.671c-.582-.804-1.39-1.205-2.426-1.205zM34.206 23.893c-2.123 0-3.877-.674-5.262-2.023-1.386-1.348-2.079-3.084-2.079-5.206 0-2.121.693-3.856 2.079-5.205 1.385-1.349 3.14-2.023 5.262-2.022 2.12 0 3.881.674 5.28 2.023 1.4 1.348 2.098 3.083 2.097 5.205 0 2.123-.699 3.858-2.097 5.206-1.398 1.348-3.158 2.022-5.28 2.022zm0-11.085c-1.011 0-1.788.383-2.332 1.148-.544.765-.815 1.675-.815 2.728 0 1.054.253 1.944.758 2.672.581.828 1.377 1.242 2.389 1.241 1.01 0 1.806-.414 2.387-1.24.53-.728.795-1.619.796-2.673 0-1.054-.253-1.944-.758-2.672-.581-.803-1.39-1.204-2.425-1.204zM82.605 17.939c.09.998 1.388 3.145 3.521 3.145 2.077 0 3.06-1.199 3.108-1.685l4.42-.037c-.483 1.474-2.442 4.607-7.605 4.607-2.147 0-4.112-.669-5.523-2.004-1.412-1.335-2.116-3.077-2.116-5.225 0-2.221.705-3.988 2.116-5.298 1.41-1.311 3.24-1.966 5.487-1.966 2.446 0 4.356.811 5.73 2.434 1.273 1.498 1.91 3.508 1.91 6.03l-11.048-.001zm6.854-2.585c-.175-.899-.55-1.635-1.124-2.21-.65-.623-1.399-.935-2.246-.935-.875 0-1.605.299-2.192.898-.586.6-.979 1.348-1.179 2.247h6.74z" fill="#F27F22"/><path d="m13.338 8.89 4.164-3.04-.054-.185c-7.51.918-10.927 1.57-17.397 5.321l.06.17.514.005c-.048.519-.13 1.799-.024 3.723-.718 2.078-.018 3.49.639 5.024.103-1.598.092-3.346-.398-5.086C.74 12.91.824 11.653.87 11.164l4.29.041s-.029 1.296.127 2.515c3.833 1.346 7.687-.005 9.732-3.325-.566-.637-1.68-1.505-1.68-1.505z" fill="#333"/></g><defs><clipPath id="a"><path fill="#fff" d="M0 0h94v24H0z"/></clipPath></defs></svg>