<svg width="36" height="36" fill="none" xmlns="http://www.w3.org/2000/svg"><path d="M27.025 26.892V18.66c0-1.72-.711-2.581-2.133-2.582-1.422 0-2.133.861-2.134 2.582v8.233h-4.19V18.66c0-1.72-.7-2.581-2.096-2.582-1.422 0-2.133.861-2.133 2.582v8.233h-4.19v-8.718c0-1.797.623-3.156 1.87-4.079 1.098-.823 2.583-1.235 4.454-1.236 1.896 0 3.293.487 4.19 1.46.773-.973 2.183-1.46 4.23-1.46 1.87 0 3.355.412 4.452 1.236 1.247.922 1.87 2.281 1.871 4.079v8.718h-4.191z" fill="#F27F22"/><path d="m18.288 12.225 4.163-3.04L22.398 9C14.888 9.919 11.47 10.571 5 14.322l.06.17.514.005c-.047.518-.13 1.798-.024 3.723-.718 2.078-.018 3.489.639 5.024.104-1.599.093-3.347-.398-5.087-.102-1.911-.017-3.169.029-3.658l4.289.041s-.028 1.296.127 2.515c3.833 1.347 7.687-.005 9.732-3.325-.566-.636-1.68-1.505-1.68-1.505z" fill="#333"/></svg>