<svg width="16" height="16" viewBox="0 0 16 16" fill="none" xmlns="http://www.w3.org/2000/svg">
    <path d="M0 2.4C0 1.56 0 1.14.163.819A1.5 1.5 0 0 1 .82.163C1.139 0 1.559 0 2.4 0h11.2c.84 0 1.26 0 1.581.163a1.5 1.5 0 0 1 .656.656c.163.32.163.74.163 1.581v11.2c0 .84 0 1.26-.164 1.581a1.5 1.5 0 0 1-.655.656c-.32.163-.74.163-1.581.163H2.4c-.84 0-1.26 0-1.581-.164a1.5 1.5 0 0 1-.656-.655C0 14.861 0 14.441 0 13.6z" fill="#6AAA1E"/>
    <path d="M13 3H3v10h10zm-1 9h-2v-2h2zm-3 0H7v-2h2zm-3 0H4v-2h2zm0-3H4V7h2zm3 0H7V7h2zm3 0h-2V7h2zm0-3h-2V4h2zM9 6H7V4h2zM6 6H4V4h2z" fill="#fff"/>
</svg>
