<svg width="16" height="16" viewBox="0 0 16 16" fill="none" xmlns="http://www.w3.org/2000/svg">
    <path d="M0 2.4C0 1.56 0 1.14.163.819A1.5 1.5 0 0 1 .82.163C1.139 0 1.559 0 2.4 0h11.2c.84 0 1.26 0 1.581.163a1.5 1.5 0 0 1 .656.656c.163.32.163.74.163 1.581v11.2c0 .84 0 1.26-.164 1.581a1.5 1.5 0 0 1-.655.656c-.32.163-.74.163-1.581.163H2.4c-.84 0-1.26 0-1.581-.164a1.5 1.5 0 0 1-.656-.655C0 14.861 0 14.441 0 13.6z" fill="#1E7AAA"/>
    <path d="M13 3H3v1h10zm0 3H3v1h10zM3 9h10v1H3zm10 3H3v1h10z" fill="#fff"/>
</svg>
