<?xml version="1.0" encoding="UTF-8"?>
<svg id="Layer_1" data-name="Layer 1" xmlns="http://www.w3.org/2000/svg" width="148.07" height="38" viewBox="0 0 148.07 38">
  <defs>
    <style>
      .cls-1 {
        fill: #fff;
      }

      .cls-2 {
        fill: #162745;
      }

      .cls-3 {
        fill: #2b4d8a;
      }
    </style>
  </defs>
  <g>
    <polygon class="cls-2" points="7.96 19.79 7.96 10.63 16.78 6.06 25.6 10.63 25.6 19.79 16.78 24.36 7.96 19.79"/>
    <path class="cls-3" d="m25.09,10.93v7.95c-.51-1.63-2-2.83-3.81-2.94-.09,0-.18,0-.28,0-.03,0-.07,0-.1,0-1.56.04-2.9.89-3.62,2.13.59-1.44,2.01-2.47,3.69-2.52.04,0,.08,0,.12,0,.07,0,.14,0,.2,0-.01-.77-.25-1.49-.65-2.09h0c-.73-1.11-2-1.84-3.45-1.84-.14,0-.28,0-.41.02v-5l8.3,4.3Z"/>
    <path class="cls-1" d="m21.28,15.94c-.09,0-.18,0-.28,0-.03,0-.07,0-.1,0-1.56.04-2.9.89-3.62,2.13.59-1.44,2.01-2.47,3.69-2.52.04,0,.08,0,.12,0,.07,0,.14,0,.2,0-.01-.77-.25-1.49-.65-2.09h0c-.73-1.11-2-1.84-3.45-1.84-.14,0-.28,0-.41.02-1.5.15-2.76,1.08-3.34,2.37-.22.49-.34,1.03-.34,1.61,0,.48.09.93.24,1.36-.31-.56-.49-1.21-.49-1.9,0-.41.06-.8.18-1.17-.25-.05-.52-.07-.79-.07-1.68,0-3.13.99-3.76,2.4v3.26l.04.02h0l4.37,2.27,3.89,2.01,1.3-.67.63-.33,6.38-3.3v-.61c-.51-1.62-2-2.83-3.81-2.94Z"/>
    <path class="cls-2" d="m16.78,6.63v5c-1.5.15-2.76,1.08-3.34,2.37-.22.49-.34,1.03-.34,1.61,0,.48.09.93.24,1.36-.31-.56-.49-1.21-.49-1.9,0-.41.06-.8.18-1.17-.25-.05-.52-.07-.79-.07-1.68,0-3.13.99-3.76,2.4v-5.29l8.31-4.3Z"/>
  </g>
  <g>
    <path d="m32.34,24.03h-3.52V6.07h3.52v17.97Z"/>
    <path d="m41.88,24.26c-2.08,0-3.7-.57-4.87-1.72-1.17-1.15-1.75-2.77-1.75-4.87s.54-3.84,1.62-5.02c1.08-1.18,2.58-1.77,4.49-1.77s3.24.52,4.26,1.56,1.52,2.48,1.52,4.31v1.71h-8.33c.04,1,.33,1.78.89,2.34.55.56,1.33.84,2.33.84.78,0,1.51-.08,2.21-.24s1.42-.42,2.17-.77v2.73c-.62.31-1.27.54-1.97.69-.7.15-1.56.23-2.56.23Zm-.5-10.88c-.75,0-1.33.24-1.76.71-.42.47-.67,1.15-.73,2.01h4.94c-.02-.87-.24-1.54-.68-2.01-.44-.47-1.03-.71-1.78-.71Z"/>
    <path d="m49.86,7.79c0-1.15.64-1.72,1.92-1.72s1.92.57,1.92,1.72c0,.55-.16.97-.48,1.28s-.8.46-1.44.46c-1.28,0-1.92-.58-1.92-1.73Zm3.67,16.25h-3.52v-12.91h3.52v12.91Z"/>
    <path d="m62.66,21.46c.62,0,1.35-.13,2.22-.4v2.62c-.88.39-1.96.59-3.23.59-1.41,0-2.43-.36-3.08-1.07-.64-.71-.96-1.78-.96-3.2v-6.22h-1.69v-1.49l1.94-1.18,1.02-2.73h2.25v2.75h3.61v2.64h-3.61v6.22c0,.5.14.87.42,1.11.28.24.65.36,1.11.36Z"/>
    <path d="m76.47,24.03h-10.2v-2.08l5.98-8.14h-5.62v-2.69h9.63v2.29l-5.82,7.93h6.03v2.69Z"/>
    <path d="m84.27,24.26c-4.02,0-6.03-2.21-6.03-6.62,0-2.19.55-3.87,1.64-5.03,1.09-1.16,2.66-1.74,4.7-1.74,1.49,0,2.83.29,4.02.88l-1.04,2.73c-.55-.22-1.07-.41-1.55-.55-.48-.14-.95-.21-1.43-.21-1.83,0-2.75,1.3-2.75,3.9s.92,3.79,2.75,3.79c.68,0,1.3-.09,1.88-.27.58-.18,1.15-.46,1.73-.85v3.01c-.57.36-1.15.61-1.73.75-.58.14-1.31.21-2.2.21Z"/>
    <path d="m94.71,24.03h-3.52V6.07h3.52v17.97Z"/>
    <path d="m110.13,17.56c0,2.1-.55,3.75-1.66,4.93s-2.65,1.78-4.63,1.78c-1.24,0-2.33-.27-3.28-.81-.95-.54-1.67-1.32-2.18-2.34-.51-1.02-.76-2.2-.76-3.56,0-2.11.55-3.75,1.65-4.92,1.1-1.17,2.65-1.76,4.64-1.76,1.24,0,2.33.27,3.28.81.95.54,1.67,1.31,2.18,2.32.51,1.01.76,2.19.76,3.54Zm-8.93,0c0,1.28.21,2.24.63,2.9s1.1.98,2.05.98,1.61-.33,2.03-.98c.41-.65.62-1.62.62-2.9s-.21-2.24-.62-2.88c-.42-.64-1.1-.96-2.04-.96s-1.62.32-2.03.95c-.42.64-.62,1.6-.62,2.88Z"/>
    <path d="m122.19,24.03l-.47-1.65h-.19c-.38.6-.91,1.06-1.6,1.39s-1.48.49-2.37.49c-1.52,0-2.66-.41-3.43-1.22-.77-.81-1.15-1.98-1.15-3.5v-8.42h3.52v7.54c0,.93.17,1.63.5,2.1.33.47.86.7,1.58.7.99,0,1.7-.33,2.14-.99.44-.66.66-1.75.66-3.27v-6.07h3.52v12.91h-2.7Z"/>
    <path d="m132.67,24.26c-1.52,0-2.71-.59-3.57-1.77s-1.3-2.81-1.3-4.9.44-3.77,1.32-4.95c.88-1.18,2.1-1.77,3.64-1.77,1.62,0,2.86.63,3.72,1.89h.12c-.18-.96-.27-1.82-.27-2.58v-4.13h3.53v17.97h-2.7l-.68-1.67h-.15c-.8,1.27-2.02,1.91-3.66,1.91Zm1.24-2.81c.9,0,1.56-.26,1.98-.79.42-.52.65-1.41.69-2.67v-.38c0-1.39-.21-2.38-.64-2.98s-1.12-.9-2.08-.9c-.79,0-1.4.33-1.83,1s-.65,1.63-.65,2.9.22,2.22.66,2.86c.44.64,1.07.95,1.88.95Z"/>
  </g>
  <g>
    <path d="m68.53,26.82c.44,0,.78.16,1.04.48.25.32.38.77.38,1.34s-.1,1.12-.31,1.65c-.2.53-.48.95-.84,1.26-.36.31-.75.47-1.18.47-.58,0-.99-.24-1.24-.73h-.04l-.26.64h-1.04l1.48-6.99h1.35l-.28,1.29c-.12.54-.25.99-.38,1.34h.04c.23-.29.45-.49.64-.6.19-.11.4-.16.63-.16Zm-.54,1.1c-.2,0-.4.1-.58.29-.19.19-.34.46-.46.81-.12.35-.18.72-.18,1.12,0,.24.06.43.17.57.11.14.26.22.46.22s.39-.1.57-.31.33-.49.44-.85.17-.72.17-1.07c0-.53-.2-.79-.59-.79Z"/>
    <path d="m70.81,26.92h1.32l.25,2.33c.04.37.06.8.06,1.32h.03c.06-.15.13-.33.2-.54.07-.21.17-.44.29-.69l1.17-2.42h1.47l-3.05,5.74c-.53.99-1.25,1.49-2.17,1.49-.27,0-.49-.03-.66-.09v-1.08c.2.04.38.06.52.06.25,0,.47-.07.66-.22.19-.14.37-.37.53-.67l.12-.22-.74-5.02Z"/>
    <path d="m79.56,30.59c.17-.46.3-.79.41-1l1.33-2.67h1.45l-2.71,5.02h-1.45l-.62-5.02h1.32l.2,2.63c.02.4.03.74.03,1.04h.03Z"/>
    <path d="m85.77,25.37c.69,0,1.2.12,1.55.37s.53.61.53,1.09c0,.45-.12.82-.37,1.11-.25.29-.6.49-1.06.58v.03c.3.08.54.22.72.43s.27.48.27.81c0,.69-.23,1.21-.69,1.59-.46.37-1.09.56-1.9.56h-2.34l1.39-6.56h1.91Zm-1.69,5.42h.81c.35,0,.62-.09.82-.26.2-.17.3-.41.3-.72,0-.49-.27-.73-.82-.73h-.74l-.37,1.71Zm.6-2.82h.67c.36,0,.63-.07.82-.22.18-.15.27-.35.27-.63,0-.41-.25-.62-.76-.62h-.68l-.31,1.46Z"/>
    <path d="m92.91,28.81c0,.63-.11,1.19-.32,1.68-.21.49-.52.87-.91,1.13-.4.27-.87.4-1.42.4-.58,0-1.05-.18-1.4-.53-.35-.35-.52-.82-.52-1.4,0-.64.11-1.21.32-1.7.21-.5.52-.88.93-1.16.4-.27.88-.41,1.42-.41.59,0,1.05.18,1.39.53.34.35.51.84.51,1.46Zm-1.36,0c0-.59-.21-.88-.64-.88-.22,0-.43.09-.6.27-.18.18-.32.45-.44.8-.11.35-.17.72-.17,1.09,0,.55.22.83.67.83.22,0,.43-.09.61-.28s.32-.44.42-.77c.1-.33.15-.69.15-1.07Z"/>
    <path d="m95.01,29.37l-1.01-2.45h1.44l.52,1.5,1.1-1.5h1.59l-2.1,2.52,1.1,2.5h-1.46l-.56-1.54-1.19,1.54h-1.57l2.15-2.57Z"/>
    <path d="m99.89,29.37l-1.01-2.45h1.44l.52,1.5,1.1-1.5h1.59l-2.1,2.52,1.1,2.5h-1.46l-.56-1.54-1.19,1.54h-1.57l2.15-2.57Z"/>
  </g>
</svg>