<?xml version="1.0" encoding="UTF-8"?>
<svg id="Layer_1" data-name="Layer 1" xmlns="http://www.w3.org/2000/svg" width="36" height="36" viewBox="0 0 36 36">
  <defs>
    <style>
      .cls-1 {
        fill: #fff;
      }

      .cls-2 {
        fill: #162745;
      }

      .cls-3 {
        fill: #2b4d8a;
      }
    </style>
  </defs>
  <polygon class="cls-2" points="1.95 26.04 1.95 9.96 18 1.95 34.05 9.96 34.05 26.04 18 34.05 1.95 26.04"/>
  <path class="cls-3" d="m33.11,10.5v13.94c-.92-2.85-3.65-4.96-6.93-5.16-.17,0-.33-.01-.5-.01-.06,0-.13,0-.19,0-2.83.06-5.29,1.55-6.59,3.73,1.07-2.53,3.66-4.33,6.71-4.41.07,0,.15,0,.22,0,.12,0,.25,0,.37,0-.02-1.35-.45-2.61-1.17-3.67,0,0,0,0,0,0-1.33-1.95-3.64-3.23-6.28-3.23-.25,0-.51.01-.75.04V2.95l15.11,7.55Z"/>
  <path class="cls-1" d="m26.19,19.28c-.17,0-.33-.01-.5-.01-.06,0-.13,0-.19,0-2.83.06-5.29,1.55-6.59,3.73,1.07-2.53,3.66-4.33,6.71-4.41.07,0,.15,0,.22,0,.12,0,.25,0,.37,0-.02-1.35-.45-2.61-1.17-3.67,0,0,0,0,0,0-1.33-1.95-3.64-3.23-6.28-3.23-.25,0-.51.01-.75.04-2.73.26-5.02,1.9-6.08,4.16-.4.86-.63,1.82-.63,2.82,0,.84.16,1.64.44,2.38-.57-.99-.9-2.13-.9-3.33,0-.71.11-1.4.32-2.05-.46-.09-.94-.13-1.43-.13-3.06,0-5.69,1.73-6.84,4.22v5.71l.07.04h0l7.96,3.97,7.08,3.54,2.36-1.18,1.14-.57,11.61-5.8v-1.07c-.92-2.85-3.65-4.96-6.93-5.16Z"/>
  <path class="cls-2" d="m18,2.95v8.77c-2.73.26-5.02,1.9-6.08,4.16-.4.86-.63,1.82-.63,2.82,0,.84.16,1.64.44,2.38-.57-.99-.9-2.13-.9-3.33,0-.71.11-1.4.32-2.05-.46-.09-.94-.13-1.43-.13-3.06,0-5.69,1.73-6.84,4.22v-9.29l15.11-7.55Z"/>
</svg>