<svg width="266" height="90" viewBox="0 0 266 90" fill="none" xmlns="http://www.w3.org/2000/svg">
<path fill-rule="evenodd" clip-rule="evenodd" d="M0 22C0 19.7909 1.79086 18 4 18H50C52.2091 18 54 19.7909 54 22V68C54 70.2091 52.2091 72 50 72H4C1.79086 72 0 70.2091 0 68V22ZM8 27C8 26.4477 8.44771 26 9 26H15C15.5523 26 16 26.4477 16 27V33C16 33.5523 15.5523 34 15 34H9C8.44771 34 8 33.5523 8 33V27ZM19 26C18.4477 26 18 26.4477 18 27V33C18 33.5523 18.4477 34 19 34H25C25.5523 34 26 33.5523 26 33V27C26 26.4477 25.5523 26 25 26H19ZM28 27C28 26.4477 28.4477 26 29 26H35C35.5523 26 36 26.4477 36 27V33C36 33.5523 35.5523 34 35 34H29C28.4477 34 28 33.5523 28 33V27ZM9 36C8.44771 36 8 36.4477 8 37V43C8 43.5523 8.44771 44 9 44H15C15.5523 44 16 43.5523 16 43V37C16 36.4477 15.5523 36 15 36H9ZM18 37C18 36.4477 18.4477 36 19 36H25C25.5523 36 26 36.4477 26 37V43C26 43.5523 25.5523 44 25 44H19C18.4477 44 18 43.5523 18 43V37ZM39 36C38.4477 36 38 36.4477 38 37V43C38 43.5523 38.4477 44 39 44H45C45.5523 44 46 43.5523 46 43V37C46 36.4477 45.5523 36 45 36H39ZM8 47C8 46.4477 8.44771 46 9 46H15C15.5523 46 16 46.4477 16 47V53C16 53.5523 15.5523 54 15 54H9C8.44771 54 8 53.5523 8 53V47ZM29 46C28.4477 46 28 46.4477 28 47V53C28 53.5523 28.4477 54 29 54H35C35.5523 54 36 53.5523 36 53V47C36 46.4477 35.5523 46 35 46H29ZM38 47C38 46.4477 38.4477 46 39 46H45C45.5523 46 46 46.4477 46 47V53C46 53.5523 45.5523 54 45 54H39C38.4477 54 38 53.5523 38 53V47ZM19 56C18.4477 56 18 56.4477 18 57V63C18 63.5523 18.4477 64 19 64H25C25.5523 64 26 63.5523 26 63V57C26 56.4477 25.5523 56 25 56H19ZM28 57C28 56.4477 28.4477 56 29 56H35C35.5523 56 36 56.4477 36 57V63C36 63.5523 35.5523 64 35 64H29C28.4477 64 28 63.5523 28 63V57ZM39 56C38.4477 56 38 56.4477 38 57V63C38 63.5523 38.4477 64 39 64H45C45.5523 64 46 63.5523 46 63V57C46 56.4477 45.5523 56 45 56H39Z" fill="#0B63CE"/>
<path d="M98.3814 67.7965H74.6969V18.7997C74.6969 18.4997 74.4971 18.2997 74.1972 18.2997H70.4997C70.1999 18.2997 70 18.4997 70 18.7997V71.3962C70 71.6962 70.1999 71.8962 70.4997 71.8962H98.3814C98.6812 71.8962 98.8811 71.6962 98.8811 71.3962V68.1964C98.8811 67.9965 98.6812 67.7965 98.3814 67.7965Z" fill="#101820"/>
<path d="M133.458 32.5987H125.064V24.7992C125.064 19.2996 126.863 16.5997 130.56 16.5997C132.059 16.5997 133.558 16.9997 134.957 17.5997C135.057 17.6997 135.257 17.6997 135.357 17.5997C135.457 17.4997 135.557 17.3997 135.657 17.2997L136.656 14.3999C136.756 14.1999 136.656 13.8999 136.357 13.7999C134.458 13 132.359 12.5 130.56 12.5C124.165 12.5 120.567 16.7997 120.567 24.4992V32.5987L115.77 32.8987C115.47 32.8987 115.27 33.0987 115.27 33.3986V36.0985C115.27 36.3984 115.47 36.5984 115.77 36.5984H120.567V71.3962C120.567 71.6962 120.767 71.8961 121.067 71.8961H124.564C124.864 71.8961 125.064 71.6962 125.064 71.3962V36.5984H133.458C133.758 36.5984 133.958 36.3984 133.958 36.0985V32.9987C133.958 32.7987 133.758 32.5987 133.458 32.5987Z" fill="#101820"/>
<path d="M151.646 31.5988C143.352 31.5988 134.458 38.8983 134.458 52.2974C134.458 64.3966 141.953 72.8961 152.646 72.8961C158.342 72.8961 161.84 70.9962 165.038 69.0963C165.238 68.9963 165.338 68.6964 165.238 68.3964L163.739 65.6965C163.639 65.5966 163.539 65.4966 163.439 65.4966C163.339 65.4966 163.139 65.4966 163.039 65.5965C159.841 67.8964 156.643 68.8963 153.046 68.8963C144.951 68.8963 139.454 62.5967 139.155 53.2973H166.237C166.437 53.2973 166.637 53.0974 166.737 52.8974C166.936 51.8974 166.936 50.7975 166.936 49.8976C166.737 38.3983 161.14 31.5988 151.646 31.5988ZM139.055 49.2976C139.954 41.1981 145.051 35.5985 151.646 35.5985C158.542 35.5985 162.339 40.4982 162.439 49.2976H139.055Z" fill="#101820"/>
<path d="M192.32 32.4987C191.121 31.8987 189.921 31.6987 188.322 31.6987C184.325 31.6987 180.528 34.1986 177.629 38.8983L177.33 33.0986C177.33 32.7987 177.13 32.5987 176.83 32.5987H173.832C173.532 32.5987 173.332 32.7987 173.332 33.0986V71.4961C173.332 71.7961 173.532 71.9961 173.832 71.9961H177.33C177.629 71.9961 177.829 71.7961 177.829 71.4961V45.4978C180.228 39.4982 183.925 35.9985 187.823 35.9985C189.222 35.9985 189.821 36.1984 191.121 36.5984C191.221 36.5984 191.42 36.5984 191.52 36.5984C191.62 36.4984 191.72 36.3984 191.72 36.2984L192.52 33.0986C192.62 32.7987 192.52 32.5987 192.32 32.4987Z" fill="#101820"/>
<path d="M223.899 32.5987H220.801C220.501 32.5987 220.302 32.7987 220.302 33.0986L220.102 35.9985C216.804 33.3986 213.606 31.6987 209.009 31.6987C198.816 31.6987 191.52 40.3982 191.52 52.3974C191.52 65.2965 197.616 72.996 207.91 72.996C212.107 72.996 216.304 71.0962 220.202 67.4964L220.501 71.5961C220.501 71.8961 220.701 72.0961 221.001 72.0961H223.999C224.299 72.0961 224.499 71.8961 224.499 71.5961V33.0986C224.399 32.7987 224.199 32.5987 223.899 32.5987ZM219.902 40.3982V62.6967C215.804 66.8964 212.207 68.6963 208.409 68.6963C200.814 68.6963 196.217 62.4967 196.217 52.1974C196.217 42.898 201.914 35.5985 209.209 35.5985C213.006 35.6985 216.204 37.0984 219.902 40.3982Z" fill="#101820"/>
<path d="M262.074 32.7986C261.974 32.6986 261.874 32.5987 261.674 32.5987H258.077C257.877 32.5987 257.677 32.6986 257.577 32.8986L249.382 56.9971C248.983 58.297 248.483 59.6969 248.083 61.0968C247.484 63.0967 246.784 65.0965 246.185 66.8964C245.385 64.8966 244.586 62.6967 243.786 60.5968C243.286 59.2969 242.787 58.097 242.387 56.8971L233.193 32.7986C233.093 32.5986 232.893 32.4987 232.693 32.4987H228.896C228.696 32.4987 228.596 32.5987 228.496 32.6986C228.396 32.7986 228.396 32.9986 228.496 33.1986L244.186 72.0961L243.186 75.2959C241.687 79.7956 238.889 85.0952 233.793 85.0952C232.793 85.0952 231.594 84.7953 230.795 84.4953C230.695 84.4953 230.495 84.4953 230.395 84.4953C230.295 84.5953 230.195 84.6953 230.095 84.7953L229.296 87.8951C229.196 88.095 229.396 88.395 229.595 88.495C230.695 88.995 232.294 89.295 233.693 89.295C239.589 89.295 244.186 84.7953 247.084 76.2958L262.174 33.0986C262.274 33.0986 262.174 32.8986 262.074 32.7986Z" fill="#101820"/>
<path d="M108.375 23.8992C108.974 23.8992 109.474 23.3993 109.474 22.7993V19.1995C109.474 18.5996 108.974 18.0996 108.375 18.0996H104.777C104.178 18.0996 103.678 18.5996 103.678 19.1995V22.7993C103.678 23.3993 104.178 23.8992 104.777 23.8992H108.375Z" fill="#101820"/>
<path d="M104.777 32.5987H108.275C108.575 32.5987 108.775 32.7987 108.775 33.0986V71.4962C108.775 71.7961 108.575 71.9961 108.275 71.9961H104.777C104.477 71.9961 104.278 71.7961 104.278 71.4962V33.0986C104.278 32.7987 104.477 32.5987 104.777 32.5987Z" fill="#101820"/>
</svg>
