<svg xmlns="http://www.w3.org/2000/svg" width="106" height="33" fill="none" xmlns:v="https://vecta.io/nano"><path fill="#fff" d="M9.4 6.9h15.2v16H9.4z"/><path fill-rule="evenodd" d="M7.8 6.722c0-.377.144-.739.399-1.006s.602-.417.964-.417h15.674c.361 0 .708.15.964.417s.399.628.399 1.006v16.356c0 .377-.143.739-.399 1.006s-.602.417-.964.417H9.163c-.361 0-.708-.15-.964-.417s-.399-.628-.399-1.006V6.722zM10.526 8.5c0-.094.036-.185.1-.251s.151-.104.241-.104h2.044c.09 0 .177.037.241.104s.1.157.1.251v2.133c0 .094-.036.185-.1.252s-.151.104-.241.104h-2.044c-.09 0-.177-.037-.241-.104s-.1-.157-.1-.252V8.5zm3.748-.356c-.09 0-.177.037-.241.104s-.1.157-.1.251v2.133c0 .094.036.185.1.252s.151.104.241.104h2.044c.09 0 .177-.037.241-.104s.1-.157.1-.252V8.5c0-.094-.036-.185-.1-.251s-.151-.104-.241-.104h-2.044zm3.067.356c0-.094.036-.185.1-.251s.151-.104.241-.104h2.044c.09 0 .177.037.241.104s.1.157.1.251v2.133c0 .094-.036.185-.1.252s-.151.104-.241.104h-2.044c-.09 0-.177-.037-.241-.104s-.1-.157-.1-.252V8.5zm-6.474 3.2c-.09 0-.177.038-.241.104s-.1.157-.1.252v2.133c0 .094.036.185.1.251s.151.104.241.104h2.044c.09 0 .177-.037.241-.104s.1-.157.1-.251v-2.133c0-.094-.036-.185-.1-.252s-.151-.104-.241-.104h-2.044zm3.067.356c0-.094.036-.185.1-.252s.151-.104.241-.104h2.044c.09 0 .177.038.241.104s.1.157.1.252v2.133c0 .094-.036.185-.1.251s-.151.104-.241.104h-2.044c-.09 0-.177-.037-.241-.104s-.1-.157-.1-.251v-2.133zm7.155-.356c-.09 0-.177.038-.241.104s-.1.157-.1.252v2.133c0 .094.036.185.1.251s.151.104.241.104h2.045c.09 0 .177-.037.241-.104s.1-.157.1-.251v-2.133c0-.094-.036-.185-.1-.252s-.151-.104-.241-.104h-2.045zm-10.563 3.911c0-.094.036-.185.1-.251s.151-.104.241-.104h2.044c.09 0 .177.037.241.104s.1.157.1.251v2.133c0 .094-.036.185-.1.252s-.151.104-.241.104h-2.044c-.09 0-.177-.038-.241-.104s-.1-.157-.1-.252v-2.133zm7.156-.356c-.09 0-.177.037-.241.104s-.1.157-.1.251v2.133c0 .094.036.185.1.252s.151.104.241.104h2.044c.09 0 .177-.038.241-.104s.1-.157.1-.252v-2.133c0-.094-.036-.185-.1-.251s-.151-.104-.241-.104h-2.044zm3.067.356c0-.094.036-.185.1-.251s.151-.104.241-.104h2.045c.09 0 .177.037.241.104s.1.157.1.251v2.133c0 .094-.036.185-.1.252s-.151.104-.241.104h-2.045c-.09 0-.177-.038-.241-.104s-.1-.157-.1-.252v-2.133zm-6.474 3.2c-.09 0-.177.038-.241.104s-.1.157-.1.251V21.3c0 .094.036.185.1.251s.151.104.241.104h2.044c.09 0 .177-.038.241-.104s.1-.157.1-.251v-2.133c0-.094-.036-.185-.1-.251s-.151-.104-.241-.104h-2.044zm3.067.356c0-.094.036-.185.1-.251s.151-.104.241-.104h2.044c.09 0 .177.038.241.104s.1.157.1.251V21.3c0 .094-.036.185-.1.251s-.151.104-.241.104h-2.044c-.09 0-.177-.038-.241-.104s-.1-.157-.1-.251v-2.133zm3.748-.356c-.09 0-.177.038-.241.104s-.1.157-.1.251V21.3c0 .094.036.185.1.251s.151.104.241.104h2.045c.09 0 .177-.038.241-.104s.1-.157.1-.251v-2.133c0-.094-.036-.185-.1-.251s-.151-.104-.241-.104h-2.045z" fill="#0b63ce"/><path d="M41.604 22.485h-8.182V5.131c0-.106-.069-.177-.173-.177h-1.277c-.104 0-.173.071-.173.177V23.76c0 .106.069.177.173.177h9.632c.103 0 .173-.071.173-.177v-1.133c0-.071-.069-.142-.173-.142zm12.117-12.467h-2.9V7.256c0-1.948.621-2.904 1.899-2.904.518 0 1.036.142 1.519.354.035.035.104.035.138 0l.104-.106.345-1.027c.035-.071 0-.177-.104-.212-.656-.283-1.381-.46-2.002-.46-2.209 0-3.452 1.523-3.452 4.25v2.869l-1.657.106c-.104 0-.173.071-.173.177v.956c0 .106.069.177.173.177h1.657V23.76c0 .106.069.177.173.177h1.208c.104 0 .173-.071.173-.177V11.435h2.9c.104 0 .173-.071.173-.177V10.16c0-.071-.069-.142-.173-.142zm6.283-.354c-2.865 0-5.938 2.585-5.938 7.331 0 4.285 2.589 7.296 6.283 7.296 1.968 0 3.176-.673 4.281-1.346.069-.035.104-.142.069-.248l-.518-.956c-.035-.036-.069-.071-.103-.071s-.104 0-.138.035c-1.105.815-2.209 1.169-3.452 1.169-2.796 0-4.695-2.231-4.799-5.525h9.356c.069 0 .138-.071.173-.142.069-.354.069-.744.069-1.062-.069-4.073-2.002-6.481-5.282-6.481zm-4.35 6.269c.311-2.869 2.071-4.852 4.35-4.852 2.382 0 3.694 1.736 3.728 4.852h-8.078zm18.4-5.95c-.414-.213-.829-.283-1.381-.283-1.381 0-2.693.885-3.694 2.55l-.104-2.054c0-.106-.069-.177-.173-.177h-1.036c-.104 0-.173.071-.173.177v13.6c0 .106.069.177.173.177h1.208c.104 0 .173-.071.173-.177v-9.208c.829-2.125 2.106-3.365 3.452-3.365.483 0 .691.071 1.139.213h.138c.035-.035.069-.071.069-.106l.276-1.133c.035-.106 0-.177-.069-.212zm10.909.035h-1.07c-.104 0-.173.071-.173.177l-.069 1.027C82.513 10.302 81.408 9.7 79.82 9.7c-3.521 0-6.041 3.081-6.041 7.331 0 4.569 2.106 7.296 5.662 7.296 1.45 0 2.9-.673 4.246-1.948l.104 1.452c0 .106.069.177.173.177h1.036c.103 0 .173-.071.173-.177V10.196c-.035-.106-.104-.177-.207-.177zm-1.381 2.762v7.898c-1.415 1.487-2.658 2.125-3.97 2.125-2.624 0-4.212-2.196-4.212-5.844 0-3.294 1.968-5.879 4.488-5.879 1.312.035 2.417.531 3.694 1.7zm14.568-2.692c-.035-.035-.069-.071-.138-.071H96.77a.19.19 0 0 0-.173.106l-2.831 8.535-.449 1.452-.656 2.054-.829-2.231-.483-1.31-3.176-8.535c-.035-.071-.104-.106-.173-.106H86.69c-.069 0-.103.035-.138.071s-.035.106 0 .177l5.42 13.777-.345 1.133c-.518 1.594-1.484 3.471-3.245 3.471-.345 0-.76-.106-1.036-.213h-.138l-.104.106-.276 1.098c-.035.071.035.177.104.213.38.177.932.283 1.415.283 2.037 0 3.625-1.594 4.626-4.604l5.213-15.3c.035 0 0-.071-.034-.106zM45.057 6.937c.207 0 .38-.177.38-.39V5.273c0-.213-.173-.39-.38-.39h-1.243c-.207 0-.38.177-.38.39v1.275c0 .213.173.39.38.39h1.243zm-1.243 3.081h1.208c.104 0 .173.071.173.177v13.6c0 .106-.069.177-.173.177h-1.208c-.104 0-.173-.071-.173-.177v-13.6c0-.106.069-.177.173-.177z" fill="#fff"/></svg>