<svg width="266" height="90" viewBox="0 0 266 90" fill="none" xmlns="http://www.w3.org/2000/svg">
<path fill-rule="evenodd" clip-rule="evenodd" d="M0 22C0 19.7909 1.79086 18 4 18H50C52.2091 18 54 19.7909 54 22V68C54 70.2091 52.2091 72 50 72H4C1.79086 72 0 70.2091 0 68V22ZM8 27C8 26.4477 8.44771 26 9 26H15C15.5523 26 16 26.4477 16 27V33C16 33.5523 15.5523 34 15 34H9C8.44771 34 8 33.5523 8 33V27ZM19 26C18.4477 26 18 26.4477 18 27V33C18 33.5523 18.4477 34 19 34H25C25.5523 34 26 33.5523 26 33V27C26 26.4477 25.5523 26 25 26H19ZM28 27C28 26.4477 28.4477 26 29 26H35C35.5523 26 36 26.4477 36 27V33C36 33.5523 35.5523 34 35 34H29C28.4477 34 28 33.5523 28 33V27ZM9 36C8.44771 36 8 36.4477 8 37V43C8 43.5523 8.44771 44 9 44H15C15.5523 44 16 43.5523 16 43V37C16 36.4477 15.5523 36 15 36H9ZM18 37C18 36.4477 18.4477 36 19 36H25C25.5523 36 26 36.4477 26 37V43C26 43.5523 25.5523 44 25 44H19C18.4477 44 18 43.5523 18 43V37ZM39 36C38.4477 36 38 36.4477 38 37V43C38 43.5523 38.4477 44 39 44H45C45.5523 44 46 43.5523 46 43V37C46 36.4477 45.5523 36 45 36H39ZM8 47C8 46.4477 8.44771 46 9 46H15C15.5523 46 16 46.4477 16 47V53C16 53.5523 15.5523 54 15 54H9C8.44771 54 8 53.5523 8 53V47ZM29 46C28.4477 46 28 46.4477 28 47V53C28 53.5523 28.4477 54 29 54H35C35.5523 54 36 53.5523 36 53V47C36 46.4477 35.5523 46 35 46H29ZM38 47C38 46.4477 38.4477 46 39 46H45C45.5523 46 46 46.4477 46 47V53C46 53.5523 45.5523 54 45 54H39C38.4477 54 38 53.5523 38 53V47ZM19 56C18.4477 56 18 56.4477 18 57V63C18 63.5523 18.4477 64 19 64H25C25.5523 64 26 63.5523 26 63V57C26 56.4477 25.5523 56 25 56H19ZM28 57C28 56.4477 28.4477 56 29 56H35C35.5523 56 36 56.4477 36 57V63C36 63.5523 35.5523 64 35 64H29C28.4477 64 28 63.5523 28 63V57ZM39 56C38.4477 56 38 56.4477 38 57V63C38 63.5523 38.4477 64 39 64H45C45.5523 64 46 63.5523 46 63V57C46 56.4477 45.5523 56 45 56H39Z" fill="white"/>
<path d="M98.4 67.3H74.7V18.3C74.7 18 74.5 17.8 74.2 17.8H70.5C70.2 17.8 70 18 70 18.3V70.9001C70 71.2001 70.2 71.4001 70.5 71.4001H98.4C98.7 71.4001 98.9 71.2001 98.9 70.9001V67.7001C98.9 67.5001 98.7 67.3 98.4 67.3Z" fill="white"/>
<path d="M133.5 32.1H125.1V24.3C125.1 18.8 126.9 16.1 130.6 16.1C132.1 16.1 133.6 16.5 135 17.1C135.1 17.2 135.3 17.2 135.4 17.1C135.5 17 135.6 16.9 135.7 16.8L136.7 13.9C136.8 13.7 136.7 13.4 136.4 13.3C134.5 12.5 132.4 12 130.6 12C124.2 12 120.6 16.3 120.6 24V32.1L115.8 32.4C115.5 32.4 115.3 32.6 115.3 32.9V35.6C115.3 35.9 115.5 36.1 115.8 36.1H120.6V70.9C120.6 71.2 120.8 71.4 121.1 71.4H124.6C124.9 71.4 125.1 71.2 125.1 70.9V36.1H133.5C133.8 36.1 134 35.9 134 35.6V32.5C134 32.3 133.8 32.1 133.5 32.1Z" fill="white"/>
<path d="M151.7 31.1C143.4 31.1 134.5 38.4 134.5 51.8C134.5 63.9 142 72.4 152.7 72.4C158.4 72.4 161.9 70.5 165.1 68.6C165.3 68.5 165.4 68.2 165.3 67.9L163.8 65.2C163.7 65.1 163.6 65 163.5 65C163.4 65 163.2 65 163.1 65.1C159.9 67.4 156.7 68.4 153.1 68.4C145 68.4 139.5 62.1 139.2 52.8H166.3C166.5 52.8 166.7 52.6 166.8 52.4C167 51.4 167 50.3 167 49.4C166.8 37.9 161.2 31.1 151.7 31.1ZM139.1 48.8C140 40.7 145.1 35.1 151.7 35.1C158.6 35.1 162.4 40 162.5 48.8H139.1Z" fill="white"/>
<path d="M192.4 32C191.2 31.4 190 31.2 188.4 31.2C184.4 31.2 180.6 33.7 177.7 38.4L177.4 32.6C177.4 32.3 177.2 32.1 176.9 32.1H173.9C173.6 32.1 173.4 32.3 173.4 32.6V71C173.4 71.3 173.6 71.5 173.9 71.5H177.4C177.7 71.5 177.9 71.3 177.9 71V45C180.3 39 184 35.5 187.9 35.5C189.3 35.5 189.9 35.7 191.2 36.1C191.3 36.1 191.5 36.1 191.6 36.1C191.7 36 191.8 35.9 191.8 35.8L192.6 32.6C192.7 32.3 192.6 32.1 192.4 32Z" fill="white"/>
<path d="M224 32.1H220.9C220.6 32.1 220.4 32.3 220.4 32.6L220.2 35.5C216.9 32.9 213.7 31.2 209.1 31.2C198.9 31.2 191.6 39.9 191.6 51.9C191.6 64.8 197.7 72.5 208 72.5C212.2 72.5 216.4 70.6 220.3 67L220.6 71.0999C220.6 71.3999 220.8 71.5999 221.1 71.5999H224.1C224.4 71.5999 224.6 71.3999 224.6 71.0999V32.6C224.5 32.3 224.3 32.1 224 32.1ZM220 39.9V62.2C215.9 66.4 212.3 68.2 208.5 68.2C200.9 68.2 196.3 62 196.3 51.7C196.3 42.4 202 35.1 209.3 35.1C213.1 35.2 216.3 36.6 220 39.9Z" fill="white"/>
<path d="M262.2 32.3C262.1 32.2 262 32.1 261.8 32.1H258.2C258 32.1 257.8 32.2 257.7 32.4L249.5 56.5C249.1 57.8 248.6 59.2 248.2 60.6C247.6 62.6 246.9 64.6 246.3 66.4C245.5 64.4 244.7 62.2 243.9 60.1C243.4 58.8 242.9 57.6 242.5 56.4L233.3 32.3C233.2 32.1 233 32 232.8 32H229C228.8 32 228.7 32.1 228.6 32.2C228.5 32.3 228.5 32.5 228.6 32.7L244.3 71.6L243.3 74.8C241.8 79.3 239 84.6 233.9 84.6C232.9 84.6 231.7 84.3 230.9 84C230.8 84 230.6 84 230.5 84C230.4 84.1 230.3 84.2 230.2 84.3L229.4 87.4C229.3 87.6 229.5 87.9 229.7 88C230.8 88.5 232.4 88.8 233.8 88.8C239.7 88.8 244.3 84.3 247.2 75.8L262.3 32.6C262.4 32.6 262.3 32.4 262.2 32.3Z" fill="white"/>
<path d="M108.4 23.4C109 23.4 109.5 22.9 109.5 22.3V18.7C109.5 18.1 109 17.6 108.4 17.6H104.8C104.2 17.6 103.7 18.1 103.7 18.7V22.3C103.7 22.9 104.2 23.4 104.8 23.4H108.4Z" fill="white"/>
<path d="M104.8 32.1H108.3C108.6 32.1 108.8 32.3 108.8 32.6V71C108.8 71.3 108.6 71.5 108.3 71.5H104.8C104.5 71.5 104.3 71.3 104.3 71V32.6C104.3 32.3 104.5 32.1 104.8 32.1Z" fill="white"/>
</svg>
