<svg xmlns="http://www.w3.org/2000/svg" width="106" height="40" fill="#fff"><path fill-rule="evenodd" d="M4 9.556c0-.413.156-.808.434-1.1S5.089 8 5.481 8h17.037c.393 0 .77.164 1.048.456s.434.687.434 1.1v17.889c0 .413-.156.808-.434 1.1s-.655.456-1.048.456H5.481c-.393 0-.77-.164-1.048-.456S4 27.857 4 27.444V9.556zM6.963 11.5a.4.4 0 0 1 .108-.275c.069-.073.164-.114.262-.114h2.222c.098 0 .192.041.262.114a.4.4 0 0 1 .108.275v2.333a.4.4 0 0 1-.108.275.36.36 0 0 1-.262.114H7.333a.36.36 0 0 1-.262-.114.4.4 0 0 1-.108-.275V11.5zm4.074-.389c-.098 0-.192.041-.262.114a.4.4 0 0 0-.108.275v2.333a.4.4 0 0 0 .108.275.36.36 0 0 0 .262.114h2.222a.36.36 0 0 0 .262-.114.4.4 0 0 0 .108-.275V11.5a.4.4 0 0 0-.108-.275c-.069-.073-.164-.114-.262-.114h-2.222zm3.333.389a.4.4 0 0 1 .108-.275c.069-.073.164-.114.262-.114h2.222c.098 0 .192.041.262.114a.4.4 0 0 1 .108.275v2.333a.4.4 0 0 1-.108.275.36.36 0 0 1-.262.114h-2.222a.36.36 0 0 1-.262-.114.4.4 0 0 1-.108-.275V11.5zM7.333 15c-.098 0-.192.041-.262.114a.4.4 0 0 0-.108.275v2.333a.4.4 0 0 0 .108.275c.069.073.164.114.262.114h2.222c.098 0 .192-.041.262-.114a.4.4 0 0 0 .108-.275v-2.333a.4.4 0 0 0-.108-.275c-.069-.073-.164-.114-.262-.114H7.333zm3.333.389a.4.4 0 0 1 .108-.275c.069-.073.164-.114.262-.114h2.222c.098 0 .192.041.262.114a.4.4 0 0 1 .108.275v2.333a.4.4 0 0 1-.108.275c-.069.073-.164.114-.262.114h-2.222c-.098 0-.192-.041-.262-.114a.4.4 0 0 1-.108-.275v-2.333zM18.444 15a.36.36 0 0 0-.262.114.4.4 0 0 0-.108.275v2.333a.4.4 0 0 0 .108.275.36.36 0 0 0 .262.114h2.222c.098 0 .192-.041.262-.114a.4.4 0 0 0 .108-.275v-2.333a.4.4 0 0 0-.108-.275c-.069-.073-.164-.114-.262-.114h-2.222zM6.963 19.278a.4.4 0 0 1 .108-.275c.069-.073.164-.114.262-.114h2.222c.098 0 .192.041.262.114a.4.4 0 0 1 .108.275v2.333a.4.4 0 0 1-.108.275c-.069.073-.164.114-.262.114H7.333c-.098 0-.192-.041-.262-.114a.4.4 0 0 1-.108-.275v-2.333zm7.778-.389c-.098 0-.192.041-.262.114a.4.4 0 0 0-.108.275v2.333a.4.4 0 0 0 .108.275c.069.073.164.114.262.114h2.222c.098 0 .192-.041.262-.114a.4.4 0 0 0 .108-.275v-2.333a.4.4 0 0 0-.108-.275c-.07-.073-.164-.114-.262-.114h-2.222zm3.333.389a.4.4 0 0 1 .108-.275.36.36 0 0 1 .262-.114h2.222c.098 0 .192.041.262.114a.4.4 0 0 1 .108.275v2.333a.4.4 0 0 1-.108.275c-.069.073-.164.114-.262.114h-2.222a.36.36 0 0 1-.262-.114.4.4 0 0 1-.108-.275v-2.333zm-7.037 3.5a.36.36 0 0 0-.262.114.4.4 0 0 0-.108.275V25.5a.4.4 0 0 0 .108.275c.069.073.164.114.262.114h2.222c.098 0 .192-.041.262-.114a.4.4 0 0 0 .108-.275v-2.333a.4.4 0 0 0-.108-.275.36.36 0 0 0-.262-.114h-2.222zm3.333.389a.4.4 0 0 1 .108-.275.36.36 0 0 1 .262-.114h2.222a.36.36 0 0 1 .262.114.4.4 0 0 1 .108.275V25.5a.4.4 0 0 1-.108.275c-.07.073-.164.114-.262.114h-2.222c-.098 0-.192-.041-.262-.114a.4.4 0 0 1-.108-.275v-2.333zm4.074-.389a.36.36 0 0 0-.262.114.4.4 0 0 0-.108.275V25.5a.4.4 0 0 0 .108.275.36.36 0 0 0 .262.114h2.222c.098 0 .192-.041.262-.114a.4.4 0 0 0 .108-.275v-2.333a.4.4 0 0 0-.108-.275.36.36 0 0 0-.262-.114h-2.222z"/><path d="M40.779 26.602h-8.995V7.461c0-.117-.076-.195-.19-.195H30.19c-.114 0-.19.078-.19.195v20.547c0 .117.076.195.19.195h10.589c.114 0 .19-.078.19-.195v-1.25c0-.078-.076-.156-.19-.156zM54.1 12.852h-3.188V9.805c0-2.148.683-3.203 2.087-3.203.569 0 1.139.156 1.67.391.038.039.114.039.152 0l.114-.117.38-1.133c.038-.078 0-.195-.114-.234C54.48 5.195 53.683 5 53 5c-2.429 0-3.795 1.68-3.795 4.688v3.164l-1.822.117c-.114 0-.19.078-.19.195v1.055c0 .117.076.195.19.195h1.822v13.594c0 .117.076.195.19.195h1.328c.114 0 .19-.078.19-.195V14.414H54.1c.114 0 .19-.078.19-.195v-1.211c0-.078-.076-.156-.19-.156zm6.907-.391c-3.15 0-6.528 2.852-6.528 8.086 0 4.726 2.846 8.047 6.907 8.047 2.163 0 3.492-.742 4.706-1.484.076-.039.114-.156.076-.274l-.569-1.055c-.038-.039-.076-.078-.114-.078s-.114 0-.152.039c-1.215.898-2.429 1.289-3.795 1.289-3.074 0-5.162-2.461-5.276-6.094h10.285c.076 0 .152-.078.19-.156.076-.391.076-.82.076-1.172-.076-4.492-2.201-7.148-5.807-7.148h0zm-4.782 6.914c.342-3.164 2.277-5.352 4.782-5.352 2.619 0 4.061 1.914 4.099 5.352h-8.881zm20.229-6.562c-.455-.234-.911-.312-1.518-.312-1.518 0-2.96.977-4.061 2.813l-.114-2.266c0-.117-.076-.195-.19-.195h-1.139c-.114 0-.19.078-.19.195v15c0 .117.076.195.19.195h1.328c.114 0 .19-.078.19-.195V17.891c.911-2.344 2.315-3.711 3.795-3.711.531 0 .759.078 1.252.234h.152c.038-.039.076-.078.076-.117l.304-1.25c.038-.117 0-.195-.076-.234h0zm11.993.039h-1.176c-.114 0-.19.078-.19.195l-.076 1.133c-1.252-1.016-2.467-1.68-4.213-1.68-3.871 0-6.642 3.398-6.642 8.086 0 5.039 2.315 8.047 6.224 8.047 1.594 0 3.188-.742 4.668-2.148l.114 1.601c0 .117.076.195.19.195h1.139c.114 0 .19-.078.19-.195V13.047c-.038-.117-.114-.195-.228-.195h0zm-1.518 3.047v8.711c-1.556 1.641-2.922 2.344-4.365 2.344-2.885 0-4.63-2.422-4.63-6.445 0-3.633 2.163-6.484 4.934-6.484 1.442.039 2.657.586 4.061 1.875zm16.016-2.969c-.038-.039-.076-.078-.151-.078h-1.367c-.076 0-.152.039-.19.117l-3.112 9.414-.493 1.602c-.228.781-.493 1.563-.721 2.266-.304-.781-.607-1.641-.911-2.461-.19-.508-.38-.977-.531-1.445l-3.492-9.414c-.038-.078-.114-.117-.19-.117h-1.442c-.076 0-.114.039-.152.078s-.038.117 0 .195l5.959 15.195-.38 1.25c-.569 1.758-1.632 3.828-3.568 3.828-.38 0-.835-.117-1.139-.234h-.152l-.114.117-.304 1.211c-.038.078.038.195.114.234.417.195 1.025.313 1.556.313 2.239 0 3.985-1.758 5.086-5.078l5.731-16.875c.038 0 0-.078-.038-.117zM44.574 9.453c.228 0 .417-.195.417-.43V7.617c0-.234-.19-.43-.417-.43h-1.366c-.228 0-.417.195-.417.43v1.406c0 .234.19.43.417.43h1.366zm-1.366 3.398h1.328c.114 0 .19.078.19.195v15c0 .117-.076.195-.19.195h-1.328c-.114 0-.19-.078-.19-.195v-15c0-.117.076-.195.19-.195z"/></svg>