<svg xmlns="http://www.w3.org/2000/svg" width="36" height="36" fill="none" xmlns:v="https://vecta.io/nano"><path fill="#fff" d="M7.261 7.257h21.478v22.574H7.261z"/><path fill-rule="evenodd" d="M5 7.007a2.05 2.05 0 0 1 .564-1.419C5.925 5.211 6.415 5 6.926 5h22.148c.511 0 1.001.211 1.362.588A2.05 2.05 0 0 1 31 7.007v23.076a2.05 2.05 0 0 1-.564 1.419c-.361.376-.851.588-1.362.588H6.926c-.511 0-1.001-.211-1.362-.588A2.05 2.05 0 0 1 5 30.083V7.007zm3.852 2.508c0-.133.051-.261.141-.355a.47.47 0 0 1 .34-.147h2.889a.47.47 0 0 1 .34.147c.09.094.141.222.141.355v3.01c0 .133-.051.261-.141.355s-.213.147-.34.147H9.333a.47.47 0 0 1-.34-.147c-.09-.094-.141-.222-.141-.355v-3.01zm5.296-.502a.47.47 0 0 0-.34.147c-.09.094-.141.222-.141.355v3.01c0 .133.051.261.141.355s.213.147.34.147h2.889c.128 0 .25-.053.341-.147s.141-.222.141-.355v-3.01c0-.133-.051-.261-.141-.355a.47.47 0 0 0-.341-.147h-2.889zm4.333.502c0-.133.051-.261.141-.355a.47.47 0 0 1 .341-.147h2.889a.47.47 0 0 1 .34.147c.09.094.141.222.141.355v3.01c0 .133-.051.261-.141.355s-.213.147-.34.147h-2.889c-.128 0-.25-.053-.341-.147s-.141-.222-.141-.355v-3.01zM9.333 14.03a.47.47 0 0 0-.34.147c-.09.094-.141.222-.141.355v3.01c0 .133.051.261.141.355a.47.47 0 0 0 .34.147h2.889c.128 0 .25-.053.34-.147s.141-.222.141-.355v-3.01c0-.133-.051-.261-.141-.355a.47.47 0 0 0-.34-.147H9.333zm4.333.502c0-.133.051-.261.141-.355a.47.47 0 0 1 .34-.147h2.889a.47.47 0 0 1 .341.147c.09.094.141.222.141.355v3.01c0 .133-.051.261-.141.355s-.213.147-.341.147h-2.889c-.128 0-.25-.053-.34-.147s-.141-.222-.141-.355v-3.01zm10.111-.502a.47.47 0 0 0-.34.147c-.09.094-.141.222-.141.355v3.01c0 .133.051.261.141.355s.213.147.34.147h2.889a.47.47 0 0 0 .34-.147c.09-.094.141-.222.141-.355v-3.01c0-.133-.051-.261-.141-.355a.47.47 0 0 0-.34-.147h-2.889zM8.852 19.548c0-.133.051-.261.141-.355a.47.47 0 0 1 .34-.147h2.889a.47.47 0 0 1 .34.147c.09.094.141.222.141.355v3.01c0 .133-.051.261-.141.355s-.213.147-.34.147H9.333a.47.47 0 0 1-.34-.147c-.09-.094-.141-.222-.141-.355v-3.01zm10.111-.502a.47.47 0 0 0-.341.147c-.09.094-.141.222-.141.355v3.01c0 .133.051.261.141.355s.213.147.341.147h2.889c.128 0 .25-.053.34-.147s.141-.222.141-.355v-3.01c0-.133-.051-.261-.141-.355a.47.47 0 0 0-.34-.147h-2.889zm4.333.502c0-.133.051-.261.141-.355a.47.47 0 0 1 .34-.147h2.889a.47.47 0 0 1 .34.147c.09.094.141.222.141.355v3.01c0 .133-.051.261-.141.355a.47.47 0 0 1-.34.147h-2.889c-.128 0-.25-.053-.34-.147s-.141-.222-.141-.355v-3.01zm-9.148 4.515a.47.47 0 0 0-.34.147c-.09.094-.141.222-.141.355v3.01c0 .133.051.261.141.355s.213.147.34.147h2.889c.128 0 .25-.053.341-.147s.141-.222.141-.355v-3.01c0-.133-.051-.261-.141-.355a.47.47 0 0 0-.341-.147h-2.889zm4.333.502c0-.133.051-.261.141-.355a.47.47 0 0 1 .341-.147h2.889a.47.47 0 0 1 .34.147c.09.094.141.222.141.355v3.01c0 .133-.051.261-.141.355s-.213.147-.34.147h-2.889c-.128 0-.25-.053-.341-.147s-.141-.222-.141-.355v-3.01zm5.296-.502a.47.47 0 0 0-.34.147c-.09.094-.141.222-.141.355v3.01c0 .133.051.261.141.355s.213.147.34.147h2.889a.47.47 0 0 0 .34-.147c.09-.094.141-.222.141-.355v-3.01c0-.133-.051-.261-.141-.355a.47.47 0 0 0-.34-.147h-2.889z" fill="#0b63ce"/></svg>