<svg xmlns="http://www.w3.org/2000/svg" width="36" height="36" fill="none"><path fill-rule="evenodd" d="M7 7.778c0-.471.172-.924.477-1.257S8.197 6 8.63 6H27.37c.432 0 .847.187 1.152.521S29 7.306 29 7.778v20.444c0 .471-.172.924-.477 1.257s-.72.521-1.152.521H8.63c-.432 0-.847-.187-1.152-.521S7 28.694 7 28.222V7.778zM10.259 10c0-.118.043-.231.119-.314a.39.39 0 0 1 .288-.13h2.444a.39.39 0 0 1 .288.13c.076.083.119.196.119.314v2.667c0 .118-.043.231-.119.314a.39.39 0 0 1-.288.13h-2.444a.39.39 0 0 1-.288-.13c-.076-.083-.119-.196-.119-.314V10zm4.481-.444a.39.39 0 0 0-.288.13c-.076.083-.119.196-.119.314v2.667c0 .118.043.231.119.314a.39.39 0 0 0 .288.13h2.444a.39.39 0 0 0 .288-.13c.076-.083.119-.196.119-.314V10c0-.118-.043-.231-.119-.314a.39.39 0 0 0-.288-.13h-2.444zm3.667.444c0-.118.043-.231.119-.314a.39.39 0 0 1 .288-.13h2.444a.39.39 0 0 1 .288.13c.076.083.119.196.119.314v2.667c0 .118-.043.231-.119.314a.39.39 0 0 1-.288.13h-2.444a.39.39 0 0 1-.288-.13c-.076-.083-.119-.196-.119-.314V10zm-7.741 4a.39.39 0 0 0-.288.13c-.076.083-.119.196-.119.314v2.667c0 .118.043.231.119.314a.39.39 0 0 0 .288.13h2.444a.39.39 0 0 0 .288-.13c.076-.083.119-.196.119-.314v-2.667c0-.118-.043-.231-.119-.314a.39.39 0 0 0-.288-.13h-2.444zm3.667.444c0-.118.043-.231.119-.314a.39.39 0 0 1 .288-.13h2.444a.39.39 0 0 1 .288.13c.076.083.119.196.119.314v2.667c0 .118-.043.231-.119.314a.39.39 0 0 1-.288.13h-2.444a.39.39 0 0 1-.288-.13c-.076-.083-.119-.196-.119-.314v-2.667zM22.889 14a.39.39 0 0 0-.288.13c-.076.083-.119.196-.119.314v2.667c0 .118.043.231.119.314a.39.39 0 0 0 .288.13h2.444a.39.39 0 0 0 .288-.13c.076-.083.119-.196.119-.314v-2.667c0-.118-.043-.231-.119-.314a.39.39 0 0 0-.288-.13h-2.444zm-12.63 4.889c0-.118.043-.231.119-.314a.39.39 0 0 1 .288-.13h2.444a.39.39 0 0 1 .288.13c.076.083.119.196.119.314v2.667c0 .118-.043.231-.119.314a.39.39 0 0 1-.288.13h-2.444a.39.39 0 0 1-.288-.13c-.076-.083-.119-.196-.119-.314v-2.667zm8.556-.444a.39.39 0 0 0-.288.13c-.076.083-.119.196-.119.314v2.667c0 .118.043.231.119.314a.39.39 0 0 0 .288.13h2.444a.39.39 0 0 0 .288-.13c.076-.083.119-.196.119-.314v-2.667c0-.118-.043-.231-.119-.314a.39.39 0 0 0-.288-.13h-2.444zm3.667.444c0-.118.043-.231.119-.314a.39.39 0 0 1 .288-.13h2.444a.39.39 0 0 1 .288.13c.076.083.119.196.119.314v2.667c0 .118-.043.231-.119.314a.39.39 0 0 1-.288.13h-2.444a.39.39 0 0 1-.288-.13c-.076-.083-.119-.196-.119-.314v-2.667zm-7.741 4a.39.39 0 0 0-.288.13c-.076.083-.119.196-.119.314V26c0 .118.043.231.119.314a.39.39 0 0 0 .288.13h2.444a.39.39 0 0 0 .288-.13c.076-.083.119-.196.119-.314v-2.667c0-.118-.043-.231-.119-.314a.39.39 0 0 0-.288-.13h-2.444zm3.667.444c0-.118.043-.231.119-.314a.39.39 0 0 1 .288-.13h2.444a.39.39 0 0 1 .288.13c.076.083.119.196.119.314V26c0 .118-.043.231-.119.314a.39.39 0 0 1-.288.13h-2.444a.39.39 0 0 1-.288-.13c-.076-.083-.119-.196-.119-.314v-2.667zm4.482-.444a.39.39 0 0 0-.288.13c-.076.083-.119.196-.119.314V26c0 .118.043.231.119.314a.39.39 0 0 0 .288.13h2.444a.39.39 0 0 0 .288-.13c.076-.083.119-.196.119-.314v-2.667c0-.118-.043-.231-.119-.314a.39.39 0 0 0-.288-.13h-2.444z" fill="#fff"/></svg>