<svg width="36" height="36" viewBox="0 0 36 36" fill="none" xmlns="http://www.w3.org/2000/svg">
<path fill-rule="evenodd" clip-rule="evenodd" d="M6 7.77778C6 6.79594 6.79594 6 7.77778 6H28.2222C29.2041 6 30 6.79594 30 7.77778V28.2222C30 29.2041 29.2041 30 28.2222 30H7.77778C6.79594 30 6 29.2041 6 28.2222V7.77778ZM9.55556 10C9.55556 9.75454 9.75454 9.55556 10 9.55556H12.6667C12.9121 9.55556 13.1111 9.75454 13.1111 10V12.6667C13.1111 12.9121 12.9121 13.1111 12.6667 13.1111H10C9.75454 13.1111 9.55556 12.9121 9.55556 12.6667V10ZM14.4444 9.55556C14.199 9.55556 14 9.75454 14 10V12.6667C14 12.9121 14.199 13.1111 14.4444 13.1111H17.1111C17.3566 13.1111 17.5556 12.9121 17.5556 12.6667V10C17.5556 9.75454 17.3566 9.55556 17.1111 9.55556H14.4444ZM18.4444 10C18.4444 9.75454 18.6434 9.55556 18.8889 9.55556H21.5556C21.801 9.55556 22 9.75454 22 10V12.6667C22 12.9121 21.801 13.1111 21.5556 13.1111H18.8889C18.6434 13.1111 18.4444 12.9121 18.4444 12.6667V10ZM10 14C9.75454 14 9.55556 14.199 9.55556 14.4444V17.1111C9.55556 17.3566 9.75454 17.5556 10 17.5556H12.6667C12.9121 17.5556 13.1111 17.3566 13.1111 17.1111V14.4444C13.1111 14.199 12.9121 14 12.6667 14H10ZM14 14.4444C14 14.199 14.199 14 14.4444 14H17.1111C17.3566 14 17.5556 14.199 17.5556 14.4444V17.1111C17.5556 17.3566 17.3566 17.5556 17.1111 17.5556H14.4444C14.199 17.5556 14 17.3566 14 17.1111V14.4444ZM23.3333 14C23.0879 14 22.8889 14.199 22.8889 14.4444V17.1111C22.8889 17.3566 23.0879 17.5556 23.3333 17.5556H26C26.2455 17.5556 26.4444 17.3566 26.4444 17.1111V14.4444C26.4444 14.199 26.2455 14 26 14H23.3333ZM9.55556 18.8889C9.55556 18.6434 9.75454 18.4444 10 18.4444H12.6667C12.9121 18.4444 13.1111 18.6434 13.1111 18.8889V21.5556C13.1111 21.801 12.9121 22 12.6667 22H10C9.75454 22 9.55556 21.801 9.55556 21.5556V18.8889ZM18.8889 18.4444C18.6434 18.4444 18.4444 18.6434 18.4444 18.8889V21.5556C18.4444 21.801 18.6434 22 18.8889 22H21.5556C21.801 22 22 21.801 22 21.5556V18.8889C22 18.6434 21.801 18.4444 21.5556 18.4444H18.8889ZM22.8889 18.8889C22.8889 18.6434 23.0879 18.4444 23.3333 18.4444H26C26.2455 18.4444 26.4444 18.6434 26.4444 18.8889V21.5556C26.4444 21.801 26.2455 22 26 22H23.3333C23.0879 22 22.8889 21.801 22.8889 21.5556V18.8889ZM14.4444 22.8889C14.199 22.8889 14 23.0879 14 23.3333V26C14 26.2455 14.199 26.4444 14.4444 26.4444H17.1111C17.3566 26.4444 17.5556 26.2455 17.5556 26V23.3333C17.5556 23.0879 17.3566 22.8889 17.1111 22.8889H14.4444ZM18.4444 23.3333C18.4444 23.0879 18.6434 22.8889 18.8889 22.8889H21.5556C21.801 22.8889 22 23.0879 22 23.3333V26C22 26.2455 21.801 26.4444 21.5556 26.4444H18.8889C18.6434 26.4444 18.4444 26.2455 18.4444 26V23.3333ZM23.3333 22.8889C23.0879 22.8889 22.8889 23.0879 22.8889 23.3333V26C22.8889 26.2455 23.0879 26.4444 23.3333 26.4444H26C26.2455 26.4444 26.4444 26.2455 26.4444 26V23.3333C26.4444 23.0879 26.2455 22.8889 26 22.8889H23.3333Z" fill="#0B63CE"/>
</svg>
