<svg width="36" height="36" fill="none" xmlns="http://www.w3.org/2000/svg">
<g>
        <path opacity="0.504232" fill-rule="evenodd" clip-rule="evenodd" d="M13.5058 6.6969L15.8177 7.66338C16.1715 7.81131 16.4451 8.10365 16.5692 8.46652L17.4884 11.1534C17.6364 11.5859 17.9946 11.9133 18.4386 12.0219L28.0576 14.3745C28.6578 14.5213 29.08 15.0592 29.08 15.6771V26.9007C29.08 27.6413 28.4796 28.2416 27.7391 28.2416C27.6054 28.2416 27.4725 28.2217 27.3447 28.1823L12.5942 23.6437C12.0316 23.4706 11.6476 22.9508 11.6476 22.3621V7.93409C11.6476 7.1935 12.248 6.59314 12.9886 6.59314C13.1661 6.59314 13.3419 6.62841 13.5058 6.6969Z" fill="#D0DFFF"/>
        <path opacity="0.8" fill-rule="evenodd" clip-rule="evenodd" d="M10.1534 9.37878L12.4653 10.3453C12.8191 10.4932 13.0927 10.7855 13.2169 11.1484L14.1361 13.8353C14.284 14.2678 14.6422 14.5952 15.0862 14.7038L24.7052 17.0564C25.3054 17.2032 25.7276 17.7411 25.7276 18.3589V29.5826C25.7276 30.3232 25.1273 30.9235 24.3867 30.9235C24.253 30.9235 24.1201 30.9035 23.9923 30.8642L9.24183 26.3256C8.67918 26.1525 8.29523 25.6327 8.29523 25.044V10.616C8.29523 9.87539 8.8956 9.27502 9.63619 9.27502C9.81376 9.27502 9.98956 9.31029 10.1534 9.37878Z" fill="#B3CAFF"/>
        <path opacity="0.8" fill-rule="evenodd" clip-rule="evenodd" d="M22.3752 26.6533L25.7276 27.6848V18.3589C25.7276 17.7411 25.3054 17.2032 24.7052 17.0564L15.0862 14.7038C14.6422 14.5952 14.284 14.2678 14.1361 13.8353L13.2169 11.1484C13.0927 10.7855 12.8191 10.4932 12.4653 10.3452L11.6476 10.0034V16.9593C11.676 16.9683 11.7047 16.9763 11.7339 16.9834L21.3529 19.3361C21.9531 19.4828 22.3752 20.0207 22.3752 20.6386V26.6533Z" fill="#AAC4FF"/>
        <path fill-rule="evenodd" clip-rule="evenodd" d="M6.80101 11.6584L9.11292 12.6249C9.46676 12.7729 9.74033 13.0652 9.86447 13.4281L10.7837 16.1149C10.9317 16.5475 11.2898 16.8748 11.7339 16.9834L21.3529 19.3361C21.953 19.4828 22.3752 20.0207 22.3752 20.6386V31.8622C22.3752 32.6028 21.7749 33.2032 21.0343 33.2032C20.9006 33.2032 20.7677 33.1832 20.6399 33.1439L5.88945 28.6053C5.3268 28.4322 4.94286 27.9123 4.94286 27.3236V12.8956C4.94286 12.1551 5.54322 11.5547 6.28381 11.5547C6.46138 11.5547 6.63718 11.59 6.80101 11.6584Z" fill="#1A47FF"/>
        <path fill-rule="evenodd" clip-rule="evenodd" d="M3.40008 17.6046L18.2988 21.7431C18.7486 21.8681 19.1011 22.2179 19.2293 22.6668L22.0357 32.489C22.1374 32.8451 21.9312 33.2162 21.5752 33.3179C21.4504 33.3536 21.3179 33.3522 21.1938 33.3141L5.58827 28.5124C5.18228 28.3874 4.85949 28.0776 4.71812 27.677L1.77667 19.3429C1.53019 18.6445 1.89651 17.8786 2.59488 17.6321C2.85411 17.5406 3.1352 17.531 3.40008 17.6046Z" fill="#5287FF"/>
</g>
</svg>
