<?xml version="1.0" ?><svg enable-background="new 0 0 504 504" id="Layer_1" version="1.1" viewBox="0 0 504 504" xml:space="preserve" xmlns="http://www.w3.org/2000/svg" xmlns:xlink="http://www.w3.org/1999/xlink"><path d="M454.6,256.6c-9.2,58.5-27.1,75.6-58.8,114.9c-31.7,33.3-77.3,88.9-141.9,85.8  c-58.5-9.2-75.6-27.1-114.9-58.8c-33.3-31.7-88.9-77.3-85.8-141.9c9.2-58.5,27.1-75.6,58.8-114.9c31.7-33.3,77.3-88.9,141.9-85.8  c58.5,9.2,75.6,27.1,114.9,58.8C402.1,146.4,457.7,192,454.6,256.6z" fill="#3765AF"/><g><path d="M252.6,160.6c0,13.3,0,26.6,0,40c0,2.2,0,2.2-2.3,2.2c-12.8,0-25.6,0-38.4,0c-1.3,0-2-0.2-2-1.7   c0-13.2,0-26.3,0-39.5c0-0.3,0.1-0.7,0.1-1C224.2,160.6,238.4,160.6,252.6,160.6z" fill="#FFFFFF"/><path d="M354.8,305.1c-13.4,0-26.7,0-40.1,0c-1.7,0-2.2-0.5-2.2-2.2c0.1-12.7,0.1-25.5,0-38.2   c0-1.7,0.5-2.2,2.2-2.2c13.4,0.1,26.7,0.1,40.1,0.1C354.8,276.7,354.8,290.9,354.8,305.1z" fill="#FFFFFF"/><path d="M201.4,160.6c0,13.3,0,26.5,0,39.8c0,2.4,0,2.4-2.4,2.4c-12.5,0-25,0-37.5,0c-2.2,0-2.2,0-2.2-2.3   c0-13.3,0-26.6,0-39.9C173.3,160.6,187.4,160.6,201.4,160.6z" fill="#FFFFFF"/><path d="M354.8,253.6c-0.5,0-1,0.1-1.5,0.1c-12.9,0-25.7,0-38.6,0c-1.6,0-2.1-0.5-2.1-2.1c0.1-12.7,0-25.4,0-38.1   c0-1.4,0.2-2.2,1.9-2.2c13.4,0.1,26.9,0,40.3,0.1C354.8,225.5,354.8,239.5,354.8,253.6z" fill="#FFFFFF"/><path d="M354.8,355.5c-13.4,0-26.9,0-40.3,0c-1.8,0-2.2-0.5-2.2-2.2c0.1-12.5,0.1-25,0-37.5c0-1.7,0.4-2.3,2.2-2.2   c13.4,0.1,26.8,0.1,40.3,0.1C354.8,327.6,354.8,341.5,354.8,355.5z" fill="#FFFFFF"/><path d="M303.7,160.6c0,13.4,0,26.7,0,40.1c0,1.4-0.5,1.9-1.9,1.9c-12.9,0-25.7,0-38.6,0c-1.1,0-1.9-0.1-1.9-1.5   c0-13.4,0.1-26.9,0.1-40.3c0-0.1,0-0.1,0-0.2C275.5,160.6,289.6,160.6,303.7,160.6z" fill="#FFFFFF"/><path d="M159.2,232.6c0-6.5,0-12.9,0-19.4c0-1.5,0.4-2,1.9-2c12.8,0.1,25.6,0,38.4,0c1.4,0,1.9,0.5,1.9,1.9   c0,13,0,26,0,38.9c0,1.4-0.4,1.9-1.8,1.9c-12.9,0-25.7,0-38.6,0c-1.4,0-1.8-0.4-1.8-1.8C159.3,245.7,159.2,239.2,159.2,232.6z" fill="#FFFFFF"/><path d="M252.3,232.6c0,6.3,0,12.7,0,19c0,1.5-0.4,2.1-2,2.1c-12.8-0.1-25.6-0.1-38.4,0c-1.5,0-2-0.4-2-2   c0.1-12.8,0-25.6,0-38.4c0-1.4,0.4-2,1.9-2c12.9,0,25.7,0,38.6,0c1.4,0,1.9,0.5,1.9,1.9C252.3,219.7,252.3,226.1,252.3,232.6z" fill="#FFFFFF"/><path d="M282.4,355.5c-6.5,0-12.9,0-19.4,0c-1.5,0-2-0.4-2-1.9c0.1-12.7,0.1-25.4,0-38c0-1.6,0.5-2,2.1-2   c12.9,0,25.7,0.1,38.6,0c1.7,0,2.1,0.6,2.1,2.2c-0.1,12.6,0,25.1,0,37.7c0,1.5-0.4,2.1-2,2.1C295.3,355.5,288.9,355.5,282.4,355.5z   " fill="#FFFFFF"/><path d="M282.6,262.8c6.3,0,12.7,0,19,0c1.5,0,2.1,0.4,2.1,2c-0.1,12.7-0.1,25.4,0,38.1c0,1.6-0.5,2-2.1,2   c-12.7,0-25.5,0-38.2,0c-1.5,0-2.1-0.4-2.1-2c0.1-12.7,0.1-25.4,0-38.1c0-1.6,0.6-2,2.1-2C269.8,262.8,276.2,262.8,282.6,262.8z" fill="#FFFFFF"/><path d="M180.2,262.8c6.3,0,12.6,0,18.9,0c1.5,0,2.1,0.4,2.1,2c-0.1,12.7-0.1,25.4,0,38.1c0,1.6-0.6,2-2.1,2   c-12.6,0-25.3,0-37.9,0c-1.5,0-2-0.4-2-1.9c0.1-12.7,0.1-25.5,0-38.2c0-1.5,0.5-1.9,2-1.9C167.5,262.8,173.9,262.8,180.2,262.8z" fill="#FFFFFF"/><path d="M230.9,355.5c-6.3,0-12.7,0-19,0c-1.5,0-2-0.4-1.9-1.9c0.1-12.6,0.1-25.1,0-37.7c0-1.6,0.6-2,2.1-2   c12.7,0,25.5,0,38.2,0c1.6,0,2.1,0.5,2.1,2.1c0,12.5,0,25,0,37.6c0,1.5-0.4,2.1-2,2.1C243.8,355.5,237.4,355.5,230.9,355.5z" fill="#FFFFFF"/></g></svg>