<svg xmlns="http://www.w3.org/2000/svg" width="64" height="36" fill="none" xmlns:v="https://vecta.io/nano"><g clip-path="url(#A)" fill-rule="evenodd" fill="#fff"><path d="M4.511 30.577c-1.458 0-2.644-1.194-2.644-2.662s1.186-2.662 2.644-2.662 2.644 1.194 2.644 2.662-1.186 2.662-2.644 2.662zm0-6.248c-1.963 0-3.561 1.608-3.561 3.585S2.547 31.5 4.511 31.5s3.561-1.608 3.561-3.585-1.597-3.585-3.561-3.585zm12.869.255v4.448a1.54 1.54 0 0 1-1.534 1.544 1.54 1.54 0 0 1-1.534-1.544v-4.448h-.917v4.448a1.54 1.54 0 0 1-1.534 1.544 1.54 1.54 0 0 1-1.533-1.544v-4.448h-.917v4.448c0 1.36 1.099 2.467 2.45 2.467.821 0 1.547-.41 1.992-1.036.445.626 1.171 1.036 1.992 1.036 1.351 0 2.451-1.107 2.451-2.467v-4.448h-.917zm5.889-.284c-1.964 0-3.561 1.608-3.561 3.585v3.33h.917v-3.33c0-1.468 1.186-2.663 2.644-2.663s2.645 1.194 2.645 2.663v3.33h.917v-3.33c0-1.977-1.598-3.585-3.561-3.585zm18.97 6.277c-1.458 0-2.645-1.195-2.645-2.663s1.186-2.663 2.645-2.663 2.645 1.195 2.645 2.663-1.186 2.663-2.645 2.663zm0-6.248c-1.964 0-3.561 1.608-3.561 3.586s1.597 3.586 3.561 3.586 3.561-1.608 3.561-3.586-1.598-3.586-3.561-3.586zm10.895.255v3.331c0 1.468-1.186 2.662-2.645 2.662s-2.644-1.194-2.644-2.662v-3.331h-.917v3.331c0 1.977 1.597 3.585 3.561 3.585s3.561-1.608 3.561-3.585v-3.331h-.917zm8.986 4.439c-.015.8-.9 1.554-1.575 1.554h-1.113c-1.466 0-2.659-1.195-2.659-2.663s1.193-2.664 2.66-2.664l2.691-.003-.003 3.776zm.922-4.223v-5.9h-.922v5.423l-2.689.003a3.59 3.59 0 0 0-3.581 3.587 3.59 3.59 0 0 0 3.581 3.587h1.113c1.111 0 2.472-1.098 2.497-2.46V24.8zm-26.329 4.272v-6.949a7.63 7.63 0 0 1-.916-.542v7.491c0 1.338 1.099 2.427 2.449 2.427h.176v-.908h-.176c-.845 0-1.533-.681-1.533-1.519zm-7.274-2.939c0-1.354.613-2.568 1.578-3.387a3.28 3.28 0 0 1-.838-.47c-1.02.977-1.656 2.344-1.656 3.857 0 2.959 2.429 5.366 5.416 5.366h.176v-.908h-.176c-2.481 0-4.499-2-4.499-4.458zm17.582-10.13l.018-.356.005-.177a6.8 6.8 0 0 0-.593-2.78l-.121-.258-.128-.247a6.97 6.97 0 0 0-2.646-2.686l-.25-.137-.255-.127a6.96 6.96 0 0 0-2.801-.654l-.161-.004-.199.005-.357.019a6.95 6.95 0 0 0-3.017.957l-.246.155-.241.166c-.464.332-.885.718-1.253 1.15l-.18.221-.169.225a6.81 6.81 0 0 0-1.292 3.994c0 .393.035.777.099 1.152l.063.321.086.344a6.81 6.81 0 0 0 .769 1.765l.157.243.169.237.414.508.245.26.236.227a6.96 6.96 0 0 0 9.296.122l.208-.188.205-.201c1.018-1.041 1.708-2.397 1.904-3.906l.037-.352zm-13.283 3.445l-.155-.254c-.382-.653-.667-1.368-.835-2.126a2.74 2.74 0 0 0-.554-.056l-.06.003a2.74 2.74 0 0 0-.281.02 2.82 2.82 0 0 0-.279.05c-.801.186-1.466.723-1.821 1.439-.042.085-.079.171-.112.261a2.59 2.59 0 0 0-.084.272c-.052.209-.083.427-.083.651a2.66 2.66 0 0 0 .408 1.412 2.37 2.37 0 0 0 .163.233l.182.21c.496.516 1.194.84 1.969.84a2.72 2.72 0 0 0 2.533-1.72 7.51 7.51 0 0 1-.823-.987l-.165-.248zm21.099-2.535l-.02-.291-.035-.286c-.379-2.509-2.524-4.453-5.138-4.546l-.196-.005-.086.002-.282.012a5.39 5.39 0 0 0-2.142.602 7.34 7.34 0 0 1 .662 2.773l.008.295-.002.086-.014.375c-.115 1.854-.916 3.526-2.155 4.77a5.4 5.4 0 0 0 7.593.423l.212-.196.202-.209c.868-.949 1.397-2.207 1.397-3.586l-.005-.217zm.993-.189a2.77 2.77 0 0 0-.436.038l.013.368a5.85 5.85 0 0 1-1.631 4.052c.499.571 1.234.934 2.055.934 1.5 0 2.721-1.21 2.721-2.696s-1.221-2.696-2.721-2.696zM33.453 8.399l.057.294a4.88 4.88 0 0 0 .195.652l.115.276.128.263a4.93 4.93 0 0 0 .458.716 7.56 7.56 0 0 1 1.157-1.075l.243-.174.249-.164a7.52 7.52 0 0 1 3.937-1.166l.098-.003.281.007.383.024a7.51 7.51 0 0 1 2.453.643 4.87 4.87 0 0 0 .119-1.069 4.93 4.93 0 0 0-.067-.802l-.054-.275-.07-.271A4.97 4.97 0 0 0 38.358 2.7a4.98 4.98 0 0 0-4.351 2.549l-.135.258-.122.278a4.86 4.86 0 0 0-.36 1.838 4.91 4.91 0 0 0 .024.488l.038.289zm13.235 3.502a5.95 5.95 0 0 1 2.376-.661c-.22-2.514-2.355-4.494-4.948-4.494l-.295.009a5.46 5.46 0 0 1 .07.867 5.42 5.42 0 0 1-.165 1.328c1.247.686 2.278 1.711 2.963 2.951zm-17.406 6.304a3.29 3.29 0 0 1 2.223-1.68l.278-.046.282-.023.13-.003a3.33 3.33 0 0 1 .449.031 7.39 7.39 0 0 1-.072-1.015c0-1.655.548-3.184 1.472-4.422a5.49 5.49 0 0 1-.556-.829l-.128-.251-.115-.258a5.4 5.4 0 0 1-.323-1.088l-.379-.015a5.4 5.4 0 0 0-2.579.652l-.25.145-.238.155a5.38 5.38 0 0 0-1.956 2.448l-.097.266-.083.271a5.29 5.29 0 0 0-.192 1.409 5.32 5.32 0 0 0 2.134 4.255zm-.223.531c-1.498-1.073-2.476-2.818-2.476-4.786 0-.503.064-.991.184-1.457l-.149-.004c-2.74 0-4.968 2.209-4.968 4.924s2.229 4.923 4.968 4.923a4.97 4.97 0 0 0 2.814-.869c-.33-.507-.523-1.111-.523-1.758 0-.338.052-.665.15-.972zm.57-9.934a2.51 2.51 0 0 1-.339-1.262c0-1.412 1.159-2.561 2.584-2.561.527 0 1.018.158 1.427.428-.304.678-.474 1.428-.474 2.216l.019.431-.304-.008a5.96 5.96 0 0 0-2.913.756z"/></g><defs><clipPath id="A"><path fill="#fff" transform="translate(.05)" d="M0 0h63.9v36H0z"/></clipPath></defs></svg>