<svg width="444" height="219" viewBox="0 0 444 219" fill="none" xmlns="http://www.w3.org/2000/svg">
<path d="M28.999 211.907C41.1487 211.907 50.998 202.058 50.998 189.908C50.998 177.758 41.1487 167.909 28.999 167.909C16.8493 167.909 7 177.758 7 189.908C7 202.058 16.8493 211.907 28.999 211.907Z" stroke="white" stroke-width="4"/>
<path d="M296.512 211.909C308.663 211.909 318.513 202.059 318.513 189.908C318.513 177.757 308.663 167.907 296.512 167.907C284.361 167.907 274.511 177.757 274.511 189.908C274.511 202.059 284.361 211.909 296.512 211.909Z" stroke="white" stroke-width="4"/>
<path d="M67 167.703V197.777C67 205.578 73.324 211.9 81.123 211.9C88.926 211.9 95.248 205.578 95.248 197.777V167.703H67ZM95.248 167.703V197.777C95.248 205.578 101.572 211.9 109.373 211.9C117.174 211.9 123.498 205.578 123.498 197.777V167.703H95.248ZM251.265 127.699V197.777C251.265 205.578 257.587 211.9 265.388 211.9L251.265 127.699ZM140.004 211.906V189.705C140.004 177.555 149.854 167.705 162.004 167.705C174.156 167.705 184.006 177.555 184.006 189.705V211.906H140.004ZM333.009 167.703V189.908C333.009 202.056 342.859 211.906 355.009 211.906C367.159 211.906 377.011 202.056 377.011 189.908V167.703H333.009ZM234.833 141.576C215.412 141.576 199.666 157.32 199.666 176.742C199.666 196.164 215.412 211.906 234.833 211.906V141.576ZM436.283 127.699V167.871V166.892V127.699ZM421.923 211.894H414.075C401.925 211.894 392.075 202.044 392.075 189.896C392.075 177.746 401.925 167.896 414.075 167.896L436.282 167.871C436.282 167.871 436.419 190.213 436.282 197.766C436.144 205.318 428.314 211.894 421.923 211.894Z" stroke="white" stroke-width="4"/>
<path d="M220.181 63.9804C231.41 63.9804 240.513 54.8775 240.513 43.6484C240.513 32.4194 231.41 23.3164 220.181 23.3164C208.952 23.3164 199.849 32.4194 199.849 43.6484C199.849 54.8775 208.952 63.9804 220.181 63.9804Z" fill="white" stroke="#333333" stroke-width="4"/>
<path d="M182.898 151.556C203.466 151.556 220.14 134.882 220.14 114.314C220.14 93.7461 203.466 77.0723 182.898 77.0723C162.33 77.0723 145.656 93.7461 145.656 114.314C145.656 134.882 162.33 151.556 182.898 151.556Z" fill="white" stroke="#333333" stroke-width="4"/>
<path d="M224.912 129.794C247.147 129.794 265.173 111.769 265.173 89.5335C265.173 67.2979 247.147 49.2725 224.912 49.2725C202.676 49.2725 184.651 67.2979 184.651 89.5335C184.651 111.769 202.676 129.794 224.912 129.794Z" fill="white" stroke="#333333" stroke-width="4"/>
<path d="M307.021 110.451C327.589 110.451 344.263 93.777 344.263 73.2088C344.263 52.6406 327.589 35.9668 307.021 35.9668C286.453 35.9668 269.779 52.6406 269.779 73.2088C269.779 93.777 286.453 110.451 307.021 110.451Z" fill="white" stroke="#333333" stroke-width="4"/>
<path d="M266.18 81.482C286.748 81.482 303.421 64.8086 303.421 44.241C303.421 23.6734 286.748 7 266.18 7C245.612 7 228.939 23.6734 228.939 44.241C228.939 64.8086 245.612 81.482 266.18 81.482Z" fill="white" stroke="#333333" stroke-width="4"/>
<path d="M390.114 149.995C401.878 149.995 411.414 140.458 411.414 128.695C411.414 116.931 401.878 107.395 390.114 107.395C378.35 107.395 368.814 116.931 368.814 128.695C368.814 140.458 378.35 149.995 390.114 149.995Z" fill="white" stroke="#333333" stroke-width="4"/>
<path d="M344.85 152.561C367.085 152.561 385.111 134.536 385.111 112.3C385.111 90.0645 367.085 72.0391 344.85 72.0391C322.614 72.0391 304.589 90.0645 304.589 112.3C304.589 134.536 322.614 152.561 344.85 152.561Z" fill="white" stroke="#333333" stroke-width="4"/>
<path d="M222.449 152.047C234.212 152.047 243.748 142.511 243.748 130.748C243.748 118.985 234.212 109.449 222.449 109.449C210.686 109.449 201.15 118.985 201.15 130.748C201.15 142.511 210.686 152.047 222.449 152.047Z" fill="white" stroke="#333333" stroke-width="4"/>
<path d="M329.794 100.406C329.794 128.754 306.81 151.734 278.46 151.734C250.11 151.734 227.127 128.754 227.127 100.406C227.127 72.0552 250.111 49.0732 278.46 49.0732C306.809 49.0732 329.794 72.0552 329.794 100.406Z" fill="white" stroke="#333333" stroke-width="4"/>
</svg>
