<svg xmlns="http://www.w3.org/2000/svg" width="36" height="36" fill="none" xmlns:v="https://vecta.io/nano"><path fill-rule="evenodd" d="M24.19 19.608l.016-.324.004-.161a6.28 6.28 0 0 0-.53-2.53l-.108-.235-.115-.225c-.55-1.018-1.372-1.865-2.366-2.445l-.224-.124-.228-.115a6.14 6.14 0 0 0-2.505-.595l-.144-.004-.178.005-.319.017a6.14 6.14 0 0 0-2.698.871l-.22.141-.216.151c-.415.302-.791.654-1.121 1.047l-.161.201-.151.205c-.726 1.027-1.156 2.281-1.156 3.635a6.33 6.33 0 0 0 .089 1.049l.056.292.077.313a6.26 6.26 0 0 0 .688 1.607l.141.221.151.216.37.462.219.237.211.207c1.11 1.035 2.592 1.669 4.219 1.669a6.16 6.16 0 0 0 4.095-1.557l.186-.171.183-.183c.91-.947 1.527-2.182 1.703-3.555l.033-.321zm-11.879 3.136l-.139-.231a6.77 6.77 0 0 1-.747-1.935c-.16-.034-.325-.051-.495-.051l-.053.003a2.42 2.42 0 0 0-.251.019c-.085.011-.168.026-.249.045-.717.169-1.311.658-1.629 1.31a2.46 2.46 0 0 0-.1.237 2.48 2.48 0 0 0-.075.247c-.047.19-.075.388-.075.593a2.45 2.45 0 0 0 .364 1.286 2.44 2.44 0 0 0 .145.212l.163.191c.444.47 1.068.765 1.761.765 1.031 0 1.912-.651 2.266-1.566a6.83 6.83 0 0 1-.736-.899l-.148-.226zm18.869-2.307l-.018-.265-.031-.26c-.339-2.284-2.258-4.053-4.595-4.138l-.175-.004-.077.002-.252.011c-.688.047-1.336.24-1.916.548a6.78 6.78 0 0 1 .592 2.524l.007.268-.002.078-.012.341c-.103 1.687-.819 3.209-1.927 4.341.884.992 2.164 1.617 3.587 1.617a4.78 4.78 0 0 0 3.203-1.232l.189-.179.181-.19a4.87 4.87 0 0 0 1.25-3.264l-.005-.198zm.888-.172c-.133 0-.263.014-.39.034l.011.335c0 1.427-.555 2.725-1.459 3.688.446.52 1.104.85 1.837.85 1.341 0 2.433-1.101 2.433-2.454s-1.092-2.454-2.433-2.454zm-20.012-7.578l.051.268a4.5 4.5 0 0 0 .174.593l.103.251.115.239a4.49 4.49 0 0 0 .409.652 6.81 6.81 0 0 1 1.035-.979l.218-.158.223-.149a6.64 6.64 0 0 1 3.52-1.061l.088-.002.251.006.343.022a6.62 6.62 0 0 1 2.194.585 4.51 4.51 0 0 0 .107-.973c0-.248-.021-.492-.06-.73l-.048-.25-.062-.247c-.53-1.876-2.244-3.255-4.272-3.255-1.673 0-3.133.938-3.891 2.32l-.12.235-.11.253A4.49 4.49 0 0 0 12 11.981l.022.444.034.263zm11.837 3.188a5.25 5.25 0 0 1 2.125-.601c-.197-2.288-2.106-4.09-4.425-4.09l-.264.009c.041.257.062.521.062.789a5.02 5.02 0 0 1-.148 1.208 6.8 6.8 0 0 1 2.65 2.686zM8.325 21.613a2.95 2.95 0 0 1 1.988-1.529l.249-.042.252-.021.116-.003a2.94 2.94 0 0 1 .402.028 6.85 6.85 0 0 1-.064-.924c0-1.506.49-2.898 1.316-4.025-.187-.235-.354-.487-.497-.755l-.115-.229-.103-.235a4.98 4.98 0 0 1-.289-.99l-.339-.013c-.835 0-1.621.215-2.306.593l-.223.132-.213.141c-.782.547-1.396 1.322-1.749 2.228l-.087.242-.074.247a4.89 4.89 0 0 0-.171 1.282c0 1.579.75 2.984 1.909 3.873zm-.199.483c-1.34-.977-2.214-2.565-2.214-4.356 0-.458.057-.902.165-1.327l-.134-.004c-2.45 0-4.443 2.01-4.443 4.481s1.993 4.481 4.443 4.481a4.39 4.39 0 0 0 2.516-.791 2.96 2.96 0 0 1-.468-1.601c0-.308.047-.605.134-.884zm.509-9.041a2.33 2.33 0 0 1-.303-1.149c0-1.285 1.037-2.331 2.311-2.331.471 0 .91.144 1.276.389-.272.617-.424 1.3-.424 2.017l.017.392-.272-.007a5.26 5.26 0 0 0-2.605.689z" fill="#fff"/></svg>