<svg width="60" height="32" viewBox="0 0 60 32" fill="none" xmlns="http://www.w3.org/2000/svg">
    <path d="M54.339 23.682c.621.863.497 1.973-.249 2.59-.87.617-2.112.493-2.734-.247l-4.35-5.55-4.225 5.427c-.621.863-1.864.863-2.734.246-.87-.616-.994-1.726-.373-2.59l4.971-6.413-4.971-6.414c-.621-.864-.373-2.097.373-2.714.87-.616 2.113-.37 2.734.37l4.225 5.55 4.35-5.303c.622-.864 1.74-.987 2.734-.37.87.617.87 1.85.249 2.713l-4.847 6.29zm-22.619-.74c-3.231 0-5.841-2.467-5.841-5.674 0-3.084 2.61-5.674 5.841-5.674s5.841 2.59 5.841 5.674c-.124 3.207-2.734 5.674-5.84 5.674m-17.15 0c-3.232 0-5.842-2.467-5.842-5.674 0-3.084 2.61-5.674 5.842-5.674 3.23 0 5.84 2.59 5.84 5.674 0 3.207-2.61 5.674-5.84 5.674M31.72 7.894c-3.604 0-6.835 1.973-8.45 4.934-1.617-2.96-4.848-4.934-8.576-4.934-2.237 0-4.226.74-5.841 1.85V1.85C8.853.863 7.983 0 6.988 0 5.87 0 5 .863 5 1.85v15.541c.124 5.18 4.35 9.25 9.57 9.25a9.79 9.79 0 0 0 8.575-5.056c1.615 2.96 4.847 5.057 8.45 5.057 5.345 0 9.695-4.194 9.695-9.497.124-5.057-4.226-9.251-9.57-9.251" fill="#ffffff"/>
</svg>
