<svg width="67" height="36" viewBox="0 0 67 36" fill="none" xmlns="http://www.w3.org/2000/svg">
<path d="M61.5063 29.6418C62.2053 30.6131 62.0655 31.862 61.2266 32.5558C60.2479 33.2496 58.8498 33.1108 58.1507 32.2783L53.2572 26.0341L48.5035 32.1395C47.8045 33.1108 46.4063 33.1108 45.4276 32.417C44.4489 31.7232 44.3091 30.4744 45.0082 29.5031L50.6007 22.2876L45.0082 15.0721C44.3091 14.1008 44.5887 12.7132 45.4276 12.0194C46.4063 11.3256 47.8045 11.6031 48.5035 12.4356L53.2572 18.6798L58.1507 12.7132C58.8498 11.7418 60.1081 11.6031 61.2266 12.2969C62.2053 12.9907 62.2053 14.3783 61.5063 15.3496L56.0535 22.4263L61.5063 29.6418V29.6418ZM36.0601 28.8093C32.4249 28.8093 29.4888 26.0341 29.4888 22.4263C29.4888 18.9573 32.4249 16.0434 36.0601 16.0434C39.6952 16.0434 42.6313 18.9573 42.6313 22.4263C42.4915 26.0341 39.5554 28.8093 36.0601 28.8093ZM16.7657 28.8093C13.1305 28.8093 10.1944 26.0341 10.1944 22.4263C10.1944 18.9573 13.1305 16.0434 16.7657 16.0434C20.4009 16.0434 23.337 18.9573 23.337 22.4263C23.337 26.0341 20.4009 28.8093 16.7657 28.8093V28.8093ZM36.0601 11.8806C32.0055 11.8806 28.3703 14.1008 26.5527 17.431C24.7351 14.1008 21.0999 11.8806 16.9055 11.8806C14.3889 11.8806 12.1518 12.7132 10.3342 13.962V5.08139C10.3342 3.97132 9.35554 3 8.23703 3C6.9787 3 6 3.97132 6 5.08139V22.5651C6.13981 28.393 10.8935 32.9721 16.7657 32.9721C20.9601 32.9721 24.5953 30.6131 26.4129 27.2829C28.2305 30.6131 31.8656 32.9721 35.9203 32.9721C41.9323 32.9721 46.8258 28.2542 46.8258 22.2876C46.9656 16.5984 42.0721 11.8806 36.0601 11.8806V11.8806Z" fill="#0071F7"/>
</svg>
