<svg width="36" height="36" viewBox="0 0 36 36" fill="none" xmlns="http://www.w3.org/2000/svg">
<path d="M32.7355 24.209C33.11 24.727 33.0351 25.3931 32.5857 25.7631C32.0614 26.1331 31.3124 26.0591 30.9379 25.6151L28.3164 22.2848L25.7698 25.5411C25.3952 26.0591 24.6462 26.0591 24.1219 25.6891C23.5976 25.3191 23.5227 24.653 23.8972 24.135L26.8933 20.2867L23.8972 16.4384C23.5227 15.9204 23.6725 15.1804 24.1219 14.8103C24.6462 14.4403 25.3952 14.5883 25.7698 15.0323L28.3164 18.3626L30.9379 15.1804C31.3124 14.6623 31.9865 14.5883 32.5857 14.9583C33.11 15.3284 33.11 16.0684 32.7355 16.5865L29.8144 20.3607L32.7355 24.209V24.209ZM19.1036 23.7649C17.1562 23.7649 15.5833 22.2848 15.5833 20.3607C15.5833 18.5106 17.1562 16.9565 19.1036 16.9565C21.051 16.9565 22.6239 18.5106 22.6239 20.3607C22.549 22.2848 20.9761 23.7649 19.1036 23.7649ZM8.76734 23.7649C6.81993 23.7649 5.24701 22.2848 5.24701 20.3607C5.24701 18.5106 6.81993 16.9565 8.76734 16.9565C10.7148 16.9565 12.2877 18.5106 12.2877 20.3607C12.2877 22.2848 10.7148 23.7649 8.76734 23.7649V23.7649ZM19.1036 14.7363C16.9315 14.7363 14.9841 15.9204 14.0104 17.6965C13.0367 15.9204 11.0893 14.7363 8.84224 14.7363C7.49403 14.7363 6.29562 15.1804 5.32192 15.8464V11.1101C5.32192 10.518 4.79761 10 4.19841 10C3.5243 10 3 10.518 3 11.1101V20.4347C3.0749 23.5429 5.62152 25.9851 8.76734 25.9851C11.0144 25.9851 12.9618 24.727 13.9355 22.9509C14.9092 24.727 16.8566 25.9851 19.0287 25.9851C22.2494 25.9851 24.8709 23.4689 24.8709 20.2867C24.9458 17.2525 22.3243 14.7363 19.1036 14.7363V14.7363Z" fill="white"/>
</svg>
