<svg width="134" height="32" viewBox="0 0 134 32" fill="none" xmlns="http://www.w3.org/2000/svg">
    <path d="m18.992 8.198-7.371 4.698 7.37 4.697-7.37 4.698-7.371-4.723 7.37-4.698-7.37-4.672L11.62 3.5zm-7.41 15.604 7.372-4.698 7.37 4.698-7.37 4.698zm7.41-6.234 7.37-4.698-7.37-4.672L26.324 3.5l7.371 4.698-7.37 4.698 7.37 4.697-7.37 4.698z" fill="#f7f5f2"/>
    <path d="M39.478 8.198h5.96c3.8 0 6.938 2.196 6.938 7.211v1.054c0 5.054-2.935 7.326-6.824 7.326h-6.074zm3.33 2.831v9.916h2.553c2.161 0 3.61-1.409 3.61-4.545v-.825c0-3.136-1.525-4.546-3.724-4.546zm11.335.153h2.669l.432 2.932c.508-1.993 1.804-3.06 4.156-3.06h.825v3.365h-1.372c-2.707 0-3.368.94-3.368 3.606v5.803h-3.291V11.182zm8.743 6.577v-.356c0-4.228 2.707-6.539 6.393-6.539 3.761 0 6.392 2.31 6.392 6.539v.356c0 4.151-2.555 6.386-6.392 6.386-4.08-.038-6.393-2.222-6.393-6.386m9.417-.039v-.317c0-2.349-1.182-3.758-3.062-3.758-1.843 0-3.063 1.295-3.063 3.758v.317c0 2.273 1.182 3.568 3.063 3.568 1.88-.038 3.062-1.295 3.062-3.568m5.096-6.538h2.745l.318 2.387c.66-1.6 2.071-2.705 4.156-2.705 3.215 0 5.337 2.31 5.337 6.59v.355c0 4.152-2.35 6.349-5.337 6.349-1.995 0-3.368-.902-4.041-2.35v6.387H77.36zm9.213 6.538v-.279c0-2.514-1.295-3.758-3.024-3.758-1.842 0-3.062 1.41-3.062 3.758v.241c0 2.235 1.181 3.644 3.024 3.644 1.893-.038 3.063-1.244 3.063-3.606m8.21 3.771-.28 2.311h-2.82V6.953h3.215v6.463c.711-1.65 2.122-2.552 4.117-2.552 3.025.038 5.262 2.12 5.262 6.31v.394c0 4.19-2.123 6.59-5.338 6.59-2.122-.051-3.495-1.029-4.155-2.667m6.113-3.923v-.317c0-2.311-1.258-3.606-3.024-3.606-1.805 0-3.064 1.447-3.064 3.644v.28c0 2.348 1.22 3.72 3.026 3.72 1.931 0 3.062-1.207 3.062-3.72m4.791.19v-.355c0-4.228 2.707-6.539 6.392-6.539 3.762 0 6.393 2.31 6.393 6.539v.356c0 4.151-2.593 6.386-6.393 6.386-4.079-.038-6.392-2.222-6.392-6.386m9.442-.038v-.317c0-2.349-1.181-3.758-3.062-3.758-1.843 0-3.063 1.295-3.063 3.758v.317c0 2.273 1.182 3.568 3.063 3.568 1.893-.038 3.062-1.295 3.062-3.568m7.651-.47-4.436-6.068h3.8l2.555 3.796 2.592-3.796h3.762l-4.499 6.03 4.74 6.59h-3.723l-2.897-4.19-2.822 4.19h-3.888z" fill="#f7f5f2"/>
</svg>
