<svg width="183" height="36" viewBox="0 0 183 36" fill="none" xmlns="http://www.w3.org/2000/svg">
<path d="M32.69 8.63738L23.845 14.2748L32.69 19.9121L23.845 25.5495L15 19.8817L23.845 14.2443L15 8.63738L23.845 3L32.69 8.63738ZM23.7993 27.3626L32.6443 21.7252L41.4893 27.3626L32.6443 33L23.7993 27.3626ZM32.69 19.8817L41.535 14.2443L32.69 8.63738L41.4893 3L50.3343 8.63738L41.4893 14.2748L50.3343 19.9121L41.4893 25.5495L32.69 19.8817Z" fill="#0061FF"/>
<path d="M57.273 8.63737H64.4253C68.985 8.63737 72.7518 11.2732 72.7518 17.2915V18.5561C72.7518 24.6201 69.229 27.3474 64.5625 27.3474H57.273V8.63737ZM61.2685 12.035V23.9345H64.3338C66.9263 23.9345 68.6648 22.2433 68.6648 18.4799V17.4896C68.6648 13.7262 66.8348 12.035 64.1965 12.035H61.2685V12.035ZM74.8715 12.2179H78.074L78.5925 15.7374C79.2025 13.3453 80.758 12.0655 83.5793 12.0655H84.5705V16.1031H82.9235C79.6753 16.1031 78.8823 17.2306 78.8823 20.4302V27.3931H74.9325V12.2179H74.8715ZM85.3635 20.1102V19.6836C85.3635 14.6099 88.6118 11.837 93.0343 11.837C97.5483 11.837 100.705 14.6099 100.705 19.6836V20.1102C100.705 25.0924 97.6398 27.774 93.0343 27.774C88.139 27.7283 85.3635 25.1077 85.3635 20.1102ZM96.6638 20.0645V19.6836C96.6638 16.8649 95.2455 15.1737 92.9885 15.1737C90.7773 15.1737 89.3133 16.7278 89.3133 19.6836V20.0645C89.3133 22.7918 90.7315 24.3459 92.9885 24.3459C95.2455 24.3001 96.6638 22.7918 96.6638 20.0645ZM102.779 12.2179H106.073L106.454 15.0823C107.247 13.1625 108.94 11.837 111.441 11.837C115.299 11.837 117.846 14.6099 117.846 19.7445V20.1711C117.846 25.1534 115.025 27.7892 111.441 27.7892C109.047 27.7892 107.4 26.7075 106.592 24.9705V32.6343H102.733L102.779 12.2179ZM113.835 20.0645V19.7293C113.835 16.7125 112.28 15.2194 110.206 15.2194C107.995 15.2194 106.531 16.9106 106.531 19.7293V20.0188C106.531 22.7003 107.949 24.3916 110.16 24.3916C112.432 24.3459 113.835 22.8984 113.835 20.0645ZM123.687 24.5896L123.351 27.3626H119.966V7.14423H123.824V14.8994C124.678 12.9187 126.371 11.837 128.765 11.837C132.395 11.8827 135.079 14.3814 135.079 19.4093V19.8817C135.079 24.9096 132.532 27.7892 128.674 27.7892C126.127 27.7283 124.48 26.5551 123.687 24.5896ZM131.022 19.8817V19.5008C131.022 16.7278 129.512 15.1737 127.393 15.1737C125.227 15.1737 123.717 16.9106 123.717 19.5465V19.8817C123.717 22.7003 125.181 24.3459 127.347 24.3459C129.665 24.3459 131.022 22.8984 131.022 19.8817ZM136.771 20.1102V19.6836C136.771 14.6099 140.02 11.837 144.442 11.837C148.956 11.837 152.113 14.6099 152.113 19.6836V20.1102C152.113 25.0924 149.002 27.774 144.442 27.774C139.547 27.7283 136.771 25.1077 136.771 20.1102ZM148.102 20.0645V19.6836C148.102 16.8649 146.684 15.1737 144.427 15.1737C142.216 15.1737 140.752 16.7278 140.752 19.6836V20.0645C140.752 22.7918 142.17 24.3459 144.427 24.3459C146.699 24.3001 148.102 22.7918 148.102 20.0645ZM157.283 19.5008L151.96 12.2179H156.52L159.585 16.7735L162.696 12.2179H167.21L161.812 19.455L167.5 27.3626H163.032L159.555 22.3347L156.169 27.3626H151.503L157.283 19.5008Z" fill="black"/>
</svg>
