<?xml version="1.0" encoding="UTF-8" standalone="no"?>
<svg
   width="15px"
   height="15px"
   viewBox="0 0 100 100"
   preserveAspectRatio="xMidYMid"
   class="lds-rolling"
   version="1.1"
   id="svg4"
   sodipodi:docname="message_quest.svg"
   inkscape:version="1.2.2 (b0a8486541, 2022-12-01)"
   xml:space="preserve"
   style="animation-play-state: running; animation-delay: 0s; background: none;"
   xmlns:inkscape="http://www.inkscape.org/namespaces/inkscape"
   xmlns:sodipodi="http://sodipodi.sourceforge.net/DTD/sodipodi-0.dtd"
   xmlns="http://www.w3.org/2000/svg"
   xmlns:svg="http://www.w3.org/2000/svg"><defs
     id="defs8">
	
	
</defs><sodipodi:namedview
     id="namedview6"
     pagecolor="#ffffff"
     bordercolor="#666666"
     borderopacity="1.0"
     inkscape:showpageshadow="2"
     inkscape:pageopacity="0.0"
     inkscape:pagecheckerboard="0"
     inkscape:deskcolor="#d1d1d1"
     showgrid="false"
     inkscape:zoom="22.627417"
     inkscape:cx="-4.4636115"
     inkscape:cy="11.114835"
     inkscape:window-width="3840"
     inkscape:window-height="2035"
     inkscape:window-x="0"
     inkscape:window-y="0"
     inkscape:window-maximized="1"
     inkscape:current-layer="svg4"
     showguides="true" /><g
     id="g2665"><path
       style="fill:#4b82be;fill-opacity:1;fill-rule:evenodd;stroke:none;stroke-width:5.83333;stroke-linecap:round;stroke-linejoin:round;stroke-miterlimit:0;stroke-opacity:1;paint-order:markers stroke fill"
       id="path2883"
       sodipodi:type="arc"
       sodipodi:cx="50.01897"
       sodipodi:cy="49.873596"
       sodipodi:rx="49.376106"
       sodipodi:ry="49.376106"
       sodipodi:start="0.0096952571"
       sodipodi:end="6.2803127"
       sodipodi:open="true"
       sodipodi:arc-type="arc"
       d="M 99.392756,50.352303 A 49.376106,49.376106 0 0 1 49.695397,99.248642 49.376106,49.376106 0 0 1 0.64315153,49.705159 49.376106,49.376106 0 0 1 50.03227,0.49749172 49.376106,49.376106 0 0 1 99.394873,49.731758" /><path
       style="fill:#ffffff;fill-opacity:1;stroke-width:0.164269"
       d="m 60.853348,64.218813 c -1.472946,-1.029728 -3.312993,1.401348 -4.601846,2.809309 -1.034724,1.130347 -2.003247,2.094909 -3.314752,3.10286 -0.796881,0.612439 -1.617207,1.190595 -2.299157,0.758975 -0.629582,-0.398475 -0.620766,-1.006198 -0.275134,-2.218266 1.099156,-3.854532 3.322907,-9.357286 5.138831,-13.977183 1.502538,-3.822614 3.237111,-6.942144 3.534524,-10.145202 0.160835,-1.732151 0.03286,-3.796344 -1.081384,-5.15189 -0.995032,-1.210519 -2.76538,-1.705758 -4.326782,-1.837923 -2.961966,-0.250717 -6.028022,0.70882 -8.677123,2.057287 -2.842487,1.446905 -5.174808,3.881975 -7.263411,6.229145 -1.011001,1.136161 -2.858652,3.771457 -1.620989,5.020962 0.673996,0.680444 1.988255,0.04361 2.742552,-0.856669 1.352897,-1.614731 2.368932,-2.783516 3.878417,-4.176338 1.065631,-0.983272 1.28718,-1.349439 2.144397,-1.453259 0.425816,-0.05157 0.971641,0.08798 1.206748,0.446732 0.41523,0.633606 0.17207,1.421059 -0.127198,2.269069 -0.79158,2.243029 -1.425162,3.471328 -2.103556,5.220508 -2.360772,6.087039 -6.168112,14.218642 -6.843175,18.352072 -0.281254,1.722126 -0.225342,4.726526 1.194027,6.343669 1.189651,1.355416 3.772039,1.653827 5.142242,1.682009 1.460203,0.03003 4.272875,-0.454779 6.49416,-1.66437 2.149499,-1.17032 4.868178,-3.052275 6.8956,-5.055392 1.415707,-1.398736 1.550764,-1.574038 3.391345,-3.900371 0.801608,-1.013163 1.845914,-3.104732 0.771664,-3.855734 z"
       id="path4"
       sodipodi:nodetypes="assasssaaasassaasasascssa" /><path
       style="fill:#ffffff;fill-opacity:1;stroke-width:0.202244"
       d="m 62.76555,23.615861 c -1.018763,-0.998456 -2.33789,-1.521223 -3.920327,-1.553769 -1.970138,-0.04053 -3.700814,0.639606 -5.143313,2.021604 -1.419456,1.359204 -2.15985,3.047671 -2.200382,5.018321 -0.03202,1.557027 0.460969,2.858029 1.465173,3.866655 1.017608,1.023832 2.318542,1.559023 3.866177,1.590854 1.88956,0.03887 3.611779,-0.681576 5.118557,-2.141369 1.480502,-1.434156 2.251438,-3.140221 2.291143,-5.070751 0.03068,-1.483558 -0.466167,-2.738875 -1.477028,-3.731545 z"
       id="path6" /></g></svg>
