<?xml version="1.0" encoding="UTF-8" standalone="no"?>
<svg
   width="15px"
   height="15px"
   viewBox="0 0 100 100"
   preserveAspectRatio="xMidYMid"
   class="lds-rolling"
   version="1.1"
   id="svg4"
   sodipodi:docname="message_warn.svg"
   inkscape:version="1.2.2 (b0a8486541, 2022-12-01)"
   xml:space="preserve"
   style="animation-play-state: running; animation-delay: 0s; background: none;"
   xmlns:inkscape="http://www.inkscape.org/namespaces/inkscape"
   xmlns:sodipodi="http://sodipodi.sourceforge.net/DTD/sodipodi-0.dtd"
   xmlns="http://www.w3.org/2000/svg"
   xmlns:svg="http://www.w3.org/2000/svg"><defs
     id="defs8" /><sodipodi:namedview
     id="namedview6"
     pagecolor="#ffffff"
     bordercolor="#666666"
     borderopacity="1.0"
     inkscape:showpageshadow="2"
     inkscape:pageopacity="0.0"
     inkscape:pagecheckerboard="0"
     inkscape:deskcolor="#d1d1d1"
     showgrid="false"
     inkscape:zoom="45.254834"
     inkscape:cx="-1.6793786"
     inkscape:cy="6.0214562"
     inkscape:window-width="3840"
     inkscape:window-height="2035"
     inkscape:window-x="0"
     inkscape:window-y="0"
     inkscape:window-maximized="1"
     inkscape:current-layer="svg4"
     showguides="true" /><path
     d="M 50.275487,0.77211644 C 45.647186,0.60940081 42.217073,4.1322918 40.731316,7.8800112 28.489102,30.671639 16.255814,53.449271 4.0215865,76.225146 c -2.90291,5.716936 2.726235,12.76797 9.3975705,12.028747 12.2643,-0.01309 24.592033,-0.0044 36.85633,0 12.263832,-0.0044 24.593448,-0.01309 36.857275,0 6.67228,0.739223 12.30142,-6.311811 9.39757,-12.028747 C 84.294702,53.449271 72.063757,30.673389 59.818724,7.8800112 58.333909,4.1322918 54.903789,0.60940081 50.275487,0.77211644 Z"
     fill="#f1c40f"
     id="path4"
     style="stroke-width:4.53354" /><path
     style="stroke-width:5.44401;stroke:none;stroke-opacity:1;fill:#ffffff;fill-opacity:1"
     d="m 50.168925,70.427295 c -3.114625,0 -5.642435,2.353133 -5.642435,5.252536 0,2.899401 2.52781,5.252535 5.642435,5.252535 3.11463,0 5.642441,-2.353134 5.642441,-5.252535 0,-2.899403 -2.527811,-5.252536 -5.642441,-5.252536 z"
     id="path511" /><path
     style="stroke-width:5.31152;stroke:none;stroke-opacity:1;fill:#ffffff;fill-opacity:1"
     d="m 50.163052,20.788463 c -2.899068,0 -5.251934,2.40495 -5.251934,5.371784 l 2.625962,37.602489 h 5.251945 l 2.625968,-37.602489 c 0,-2.966834 -2.352866,-5.371784 -5.251941,-5.371784 z"
     id="path6" /></svg>
