<svg width="500" height="250" viewBox="0 0 500 250" fill="none" xmlns="http://www.w3.org/2000/svg">
    <g clip-path="url(#a)">
        <path d="M0 0h500v250H0V0Z" fill="#fff"/>
        <path d="M499 1v248H1V1h498ZM0 0v250h500V0H0Z" fill="#ACACAC"/>
        <path fill-rule="evenodd" clip-rule="evenodd" d="M347.777 206.804h-.052c-.45.652-1.121.978-2.016.978-.84 0-1.494-.287-1.963-.861-.465-.574-.697-1.391-.697-2.449 0-1.059.234-1.881.703-2.467.469-.586 1.121-.879 1.957-.879.871 0 1.539.317 2.004.949h.076l-.041-.463-.023-.451v-2.613h.972v9.117h-.791l-.129-.861Zm-1.945.164c.664 0 1.145-.18 1.441-.539.301-.363.452-.947.452-1.752v-.205c0-.91-.153-1.559-.457-1.946-.301-.39-.784-.585-1.448-.585-.57 0-1.008.222-1.312.668-.301.441-.451 1.066-.451 1.875 0 .82.15 1.439.451 1.857.301.418.742.627 1.324.627Zm-39.937-3.369c.593-.469.89-1.137.89-2.004 0-1.664-1.07-2.496-3.211-2.496h-2.22v8.566h.996v-3.369h1.007c1.102 0 1.948-.232 2.538-.697Zm-2.649-.158h-.896v-3.481h1.113c.785 0 1.363.139 1.734.416.371.277.557.699.557 1.266 0 .629-.197 1.086-.592 1.371-.394.285-1.033.428-1.916.428Zm9.943 3.462c.528-.589.791-1.408.791-2.455 0-1.019-.265-1.828-.796-2.425-.528-.598-1.241-.897-2.139-.897-.93 0-1.656.293-2.18.879-.523.582-.785 1.396-.785 2.443 0 .676.121 1.266.363 1.77.243.504.586.891 1.032 1.16.445.27.955.404 1.529.404.93 0 1.658-.293 2.185-.879Zm-3.609-.58c-.328-.429-.492-1.054-.492-1.875 0-.828.162-1.451.486-1.869.324-.418.805-.627 1.442-.627.644 0 1.13.213 1.459.639.332.422.498 1.041.498 1.857 0 .825-.166 1.452-.498 1.881-.329.426-.811.639-1.448.639-.636 0-1.119-.215-1.447-.645Z" fill="#787878"/>
        <path d="m320.936 207.665-1.178-3.767a32.138 32.138 0 0 1-.416-1.571h-.047a21.394 21.394 0 0 1-.41 1.582l-1.213 3.756h-1.125l-1.752-6.422h1.019c.415 1.614.729 2.842.944 3.686.219.844.344 1.412.375 1.705h.047c.043-.223.111-.51.205-.861.097-.356.181-.637.252-.844l1.177-3.686h1.055l1.149 3.686c.218.672.367 1.236.445 1.693h.047c.015-.14.056-.357.123-.65.07-.293.478-1.869 1.224-4.729h1.008l-1.775 6.422h-1.154Z" fill="#787878"/>
        <path fill-rule="evenodd" clip-rule="evenodd" d="M325.494 206.915c.551.578 1.301.867 2.25.867a5.32 5.32 0 0 0 1.108-.099c.308-.063.634-.168.978-.317v-.867a5.174 5.174 0 0 1-2.051.434c-.656 0-1.166-.196-1.529-.586-.359-.391-.549-.963-.568-1.717h4.423v-.615c0-.867-.234-1.565-.703-2.092-.468-.531-1.105-.797-1.91-.797-.859 0-1.545.305-2.056.914-.508.61-.762 1.432-.762 2.467 0 1.027.273 1.83.82 2.408Zm.75-4.471c.309-.335.721-.503 1.236-.503.508 0 .899.164 1.172.492.274.324.41.793.41 1.406h-3.357c.055-.594.234-1.059.539-1.395Z" fill="#787878"/>
        <path d="M334.699 201.126c.285 0 .541.024.768.07l-.135.903a3.29 3.29 0 0 0-.703-.088c-.52 0-.965.211-1.336.633-.367.422-.551.947-.551 1.576v3.445h-.972v-6.422h.802l.112 1.19h.046c.239-.418.526-.74.862-.967.336-.227.705-.34 1.107-.34Z" fill="#787878"/>
        <path fill-rule="evenodd" clip-rule="evenodd" d="M337.131 206.915c.551.578 1.301.867 2.25.867a5.31 5.31 0 0 0 1.107-.099c.309-.063.635-.168.979-.317v-.867a5.177 5.177 0 0 1-2.051.434c-.656 0-1.166-.196-1.529-.586-.36-.391-.549-.963-.569-1.717h4.424v-.615c0-.867-.234-1.565-.703-2.092-.469-.531-1.105-.797-1.91-.797-.859 0-1.545.305-2.057.914-.508.61-.761 1.432-.761 2.467 0 1.027.273 1.83.82 2.408Zm.75-4.471c.308-.335.721-.503 1.236-.503.508 0 .899.164 1.172.492.273.324.41.793.41 1.406h-3.357c.054-.594.234-1.059.539-1.395Zm20.953-.439c-.465-.578-1.119-.867-1.963-.867-.891 0-1.562.32-2.016.961h-.046c.031-.395.046-.84.046-1.336v-2.215h-.972v9.117h.697l.205-.826h.07c.235.32.524.559.868.715.347.152.73.228 1.148.228.836 0 1.488-.291 1.957-.873.473-.586.709-1.406.709-2.461 0-1.054-.234-1.869-.703-2.443Zm-3.539.521c.293-.382.771-.574 1.435-.574.614 0 1.067.205 1.36.616.293.41.439 1.033.439 1.869 0 .816-.146 1.443-.439 1.881-.293.433-.738.65-1.336.65-.664 0-1.147-.193-1.447-.58-.301-.391-.452-1.037-.452-1.94 0-.902.147-1.543.44-1.922Z" fill="#787878"/>
        <path d="M360.223 201.243h1.043l1.406 3.662c.308.836.5 1.44.574 1.811h.047c.051-.199.156-.539.316-1.02.164-.484.696-1.968 1.594-4.453h1.043l-2.76 7.313c-.273.722-.593 1.234-.961 1.535-.363.305-.81.457-1.341.457-.297 0-.59-.033-.879-.1v-.779c.215.047.455.07.72.07.668 0 1.145-.375 1.43-1.125l.357-.914-2.589-6.457Z" fill="#787878"/>
        <path fill-rule="evenodd" clip-rule="evenodd" d="m374.871 204.941 1.067 2.724h1.031l-3.369-8.601h-.838l-3.387 8.601h1.008l1.055-2.724h3.433Zm-1.307-3.551.997 2.654h-2.772l1.008-2.654c.16-.449.283-.862.369-1.237.137.489.27.901.398 1.237Z" fill="#787878"/>
        <path d="M382.143 205.913c0 .598-.223 1.059-.668 1.383-.446.324-1.071.486-1.875.486-.852 0-1.516-.134-1.993-.404v-.902c.309.156.639.279.991.369.355.09.697.135 1.025.135.508 0 .898-.08 1.172-.241.273-.164.41-.412.41-.744 0-.25-.109-.463-.328-.638-.215-.18-.637-.391-1.266-.633-.597-.223-1.023-.416-1.277-.58a1.81 1.81 0 0 1-.563-.569 1.495 1.495 0 0 1-.181-.756c0-.523.213-.935.639-1.236.425-.305 1.009-.457 1.751-.457.692 0 1.368.141 2.028.422l-.346.791c-.644-.266-1.228-.398-1.752-.398-.461 0-.808.072-1.043.216-.234.145-.351.344-.351.598 0 .172.043.318.129.439.089.122.232.237.427.346.196.11.571.268 1.125.475.762.277 1.276.556 1.541.838.27.281.405.634.405 1.06Zm1.992 1.014c.511.57 1.232.855 2.162.855.652 0 1.193-.111 1.623-.334v-.861a4.318 4.318 0 0 1-1.647.346c-.625 0-1.097-.211-1.418-.633-.316-.422-.474-1.027-.474-1.816 0-1.665.652-2.497 1.957-2.497.195 0 .42.03.674.088.254.055.488.125.703.211l.299-.826a3.028 3.028 0 0 0-.727-.234 4.346 4.346 0 0 0-.926-.1c-.957 0-1.695.293-2.215.879-.515.586-.773 1.416-.773 2.49 0 1.047.254 1.858.762 2.432Z" fill="#787878"/>
        <path fill-rule="evenodd" clip-rule="evenodd" d="M392.162 207.782c-.949 0-1.699-.289-2.25-.867-.547-.578-.82-1.381-.82-2.408 0-1.035.254-1.857.762-2.467.511-.609 1.197-.914 2.056-.914.805 0 1.442.266 1.91.797.469.527.703 1.225.703 2.092v.615H390.1c.019.754.209 1.326.568 1.717.363.39.873.586 1.529.586.692 0 1.375-.145 2.051-.434v.867c-.344.149-.67.254-.978.317a5.32 5.32 0 0 1-1.108.099Zm-.264-5.841c-.515 0-.927.168-1.236.503-.305.336-.484.801-.539 1.395h3.357c0-.613-.136-1.082-.41-1.406-.273-.328-.664-.492-1.172-.492Z" fill="#787878"/>
        <path d="M400.582 203.511v4.154h.973v-4.189c0-.821-.196-1.416-.586-1.787-.391-.375-.973-.563-1.746-.563-.442 0-.843.088-1.202.264-.36.172-.638.416-.837.732h-.047l-.158-.879h-.791v6.422h.972v-3.369c0-.836.156-1.436.469-1.799.312-.363.805-.545 1.476-.545.508 0 .881.129 1.12.387.238.258.357.648.357 1.172Zm7.119 2.402c0 .598-.222 1.059-.668 1.383-.445.324-1.07.486-1.875.486-.851 0-1.515-.134-1.992-.404v-.902c.309.156.639.279.99.369.356.09.698.135 1.026.135.507 0 .898-.08 1.172-.241.273-.164.41-.412.41-.744 0-.25-.11-.463-.328-.638-.215-.18-.637-.391-1.266-.633-.598-.223-1.024-.416-1.277-.58a1.81 1.81 0 0 1-.563-.569 1.495 1.495 0 0 1-.182-.756c0-.523.213-.935.639-1.236.426-.305 1.01-.457 1.752-.457a5.13 5.13 0 0 1 2.027.422l-.345.791c-.645-.266-1.229-.398-1.752-.398-.461 0-.809.072-1.043.216-.235.145-.352.344-.352.598 0 .172.043.318.129.439.09.122.233.237.428.346.195.11.57.268 1.125.475.762.277 1.275.556 1.541.838.269.281.404.634.404 1.06Zm1.588 1.752h.973v-6.422h-.973v6.422Zm.082-8.648c-.109.101-.164.263-.164.486 0 .219.055.383.164.492a.564.564 0 0 0 .41.158.572.572 0 0 0 .405-.158c.113-.109.169-.273.169-.492 0-.219-.056-.381-.169-.486a.572.572 0 0 0-.405-.158.564.564 0 0 0-.41.158Z" fill="#787878"/>
        <path fill-rule="evenodd" clip-rule="evenodd" d="M417.867 204.448c0 1.047-.263 1.866-.791 2.455-.527.586-1.256.879-2.185.879-.575 0-1.084-.134-1.53-.404a2.665 2.665 0 0 1-1.031-1.16c-.242-.504-.363-1.094-.363-1.77 0-1.047.262-1.861.785-2.443.523-.586 1.25-.879 2.18-.879.898 0 1.611.299 2.138.897.532.597.797 1.406.797 2.425Zm-4.892 0c0 .821.164 1.446.492 1.875.328.43.81.645 1.447.645s1.119-.213 1.447-.639c.332-.429.498-1.056.498-1.881 0-.816-.166-1.435-.498-1.857-.328-.426-.814-.639-1.459-.639-.636 0-1.117.209-1.441.627-.324.418-.486 1.041-.486 1.869Z" fill="#787878"/>
        <path d="M426.855 207.15c.547-.422.821-1.01.821-1.764 0-.586-.17-1.063-.51-1.43-.336-.367-.953-.711-1.852-1.031-.535-.191-.933-.365-1.195-.522-.258-.16-.441-.334-.551-.521-.109-.191-.164-.436-.164-.732 0-.403.149-.717.446-.944.296-.226.709-.34 1.236-.34.668 0 1.355.149 2.062.446l.311-.868a5.811 5.811 0 0 0-2.35-.468c-.816 0-1.472.195-1.968.586-.496.39-.745.916-.745 1.576 0 .629.17 1.138.51 1.529.344.391.914.729 1.711 1.014.571.203.994.385 1.272.545.281.16.48.336.597.527.121.188.182.43.182.727 0 .449-.168.8-.504 1.054-.336.25-.836.375-1.5.375-.406 0-.816-.043-1.23-.129a6.226 6.226 0 0 1-1.149-.351v.961c.547.261 1.328.392 2.344.392.937 0 1.68-.211 2.226-.632Zm1.407-5.907h1.043l1.406 3.662c.309.836.5 1.44.574 1.811h.047c.051-.199.156-.539.316-1.02.164-.484.696-1.968 1.594-4.453h1.043l-2.76 7.313c-.273.722-.593 1.234-.961 1.535-.363.305-.81.457-1.341.457-.297 0-.59-.033-.879-.1v-.779c.215.047.455.07.72.07.668 0 1.145-.375 1.43-1.125l.358-.914-2.59-6.457Zm10.541 6.053c.445-.324.668-.785.668-1.383 0-.426-.135-.779-.405-1.06-.265-.282-.779-.561-1.541-.838-.554-.207-.929-.365-1.125-.475a1.312 1.312 0 0 1-.427-.346.737.737 0 0 1-.129-.439c0-.254.117-.453.351-.598.235-.144.582-.216 1.043-.216.524 0 1.108.132 1.752.398l.346-.791a5.13 5.13 0 0 0-2.027-.422c-.743 0-1.327.152-1.752.457a1.433 1.433 0 0 0-.639 1.236c0 .293.061.545.182.756.125.211.312.401.562.569.254.164.68.357 1.277.58.629.242 1.051.453 1.266.633.219.175.328.388.328.638 0 .332-.137.58-.41.744-.273.161-.664.241-1.172.241a4.17 4.17 0 0 1-1.025-.135 4.833 4.833 0 0 1-.99-.369v.902c.476.27 1.14.404 1.992.404.804 0 1.429-.162 1.875-.486Zm4.33-.316c.172 0 .338-.012.498-.036.16-.027.287-.054.381-.082v.745c-.106.05-.262.091-.469.123a3.27 3.27 0 0 1-.551.052c-1.242 0-1.863-.654-1.863-1.963v-3.82h-.92v-.469l.92-.404.41-1.371h.563v1.488h1.863v.756h-1.863v3.779c0 .387.091.684.275.891.184.207.435.311.756.311Z" fill="#787878"/>
        <path fill-rule="evenodd" clip-rule="evenodd" d="M445.764 206.915c.55.578 1.3.867 2.25.867.433 0 .802-.033 1.107-.099.309-.063.635-.168.979-.317v-.867a5.177 5.177 0 0 1-2.051.434c-.656 0-1.166-.196-1.529-.586-.36-.391-.549-.963-.569-1.717h4.424v-.615c0-.867-.234-1.565-.703-2.092-.469-.531-1.106-.797-1.91-.797-.86 0-1.545.305-2.057.914-.508.61-.762 1.432-.762 2.467 0 1.027.274 1.83.821 2.408Zm.75-4.471c.308-.335.72-.503 1.236-.503.508 0 .898.164 1.172.492.273.324.41.793.41 1.406h-3.357c.054-.594.234-1.059.539-1.395Z" fill="#787878"/>
        <path d="M460.225 207.665v-4.178c0-.511-.11-.894-.329-1.148-.218-.258-.558-.387-1.019-.387-.606 0-1.053.174-1.342.522-.289.347-.433.883-.433 1.605v3.586h-.973v-4.178c0-.511-.109-.894-.328-1.148-.219-.258-.561-.387-1.026-.387-.609 0-1.056.184-1.341.551-.282.363-.422.961-.422 1.793v3.369h-.973v-6.422h.791l.158.879h.047c.184-.312.442-.556.774-.732a2.387 2.387 0 0 1 1.125-.264c1.004 0 1.66.363 1.968 1.09h.047c.192-.336.469-.602.832-.797a2.589 2.589 0 0 1 1.242-.293c.727 0 1.27.188 1.629.563.364.371.545.966.545 1.787v4.189h-.972Zm10.259-.515c.547-.422.821-1.01.821-1.764 0-.586-.17-1.063-.51-1.43-.336-.367-.953-.711-1.852-1.031-.535-.191-.933-.365-1.195-.522-.258-.16-.441-.334-.551-.521-.109-.191-.164-.436-.164-.732 0-.403.149-.717.446-.944.296-.226.709-.34 1.236-.34.668 0 1.355.149 2.062.446l.311-.868a5.811 5.811 0 0 0-2.35-.468c-.816 0-1.472.195-1.968.586-.497.39-.745.916-.745 1.576 0 .629.17 1.138.51 1.529.344.391.914.729 1.711 1.014.57.203.994.385 1.272.545.281.16.48.336.597.527.121.188.182.43.182.727 0 .449-.168.8-.504 1.054-.336.25-.836.375-1.5.375-.406 0-.816-.043-1.231-.129a6.215 6.215 0 0 1-1.148-.351v.961c.547.261 1.328.392 2.344.392.937 0 1.68-.211 2.226-.632Zm2.573.515v-8.566h.996v8.566h-.996Z" fill="#787878"/>
        <path fill-rule="evenodd" clip-rule="evenodd" d="m480.727 204.941 1.066 2.724h1.031l-3.369-8.601h-.838l-3.387 8.601h1.008l1.055-2.724h3.434Zm-1.307-3.551.996 2.654h-2.771l1.007-2.654c.16-.449.284-.862.369-1.237.137.489.27.901.399 1.237Z" fill="#787878"/>
        <path d="m375.941 232.165-1.177-3.767a30.958 30.958 0 0 1-.416-1.571h-.047a21.394 21.394 0 0 1-.41 1.582l-1.213 3.756h-1.125l-1.752-6.422h1.019l.007.029c.411 1.6.723 2.818.937 3.657.218.844.343 1.412.375 1.705h.047c.043-.223.111-.51.205-.861.097-.356.181-.637.252-.844l1.177-3.686h1.055l1.148 3.686c.219.672.368 1.236.446 1.693h.047c.015-.14.056-.357.123-.65.07-.293.478-1.869 1.224-4.729h1.008l-1.775 6.422h-1.155Zm8.163-3.767 1.177 3.767h1.155l1.775-6.422h-1.008a591.28 591.28 0 0 0-1.224 4.729c-.067.293-.108.51-.124.65h-.046a12.552 12.552 0 0 0-.446-1.693l-1.148-3.686h-1.055l-1.178 3.686a16.102 16.102 0 0 0-.457 1.705h-.046c-.032-.293-.157-.861-.375-1.705l-.937-3.657-.007-.029h-1.019l1.752 6.422h1.125l1.212-3.756c.118-.371.254-.898.411-1.582h.047c.203.817.341 1.34.416 1.571Zm10.517 3.767-1.178-3.767a32.138 32.138 0 0 1-.416-1.571h-.047a20.899 20.899 0 0 1-.41 1.582l-1.213 3.756h-1.125l-1.752-6.422h1.02l.005.017.011.045c.407 1.583.716 2.791.927 3.624.219.844.344 1.412.375 1.705h.047a16.102 16.102 0 0 1 .457-1.705l1.178-3.686h1.055l1.148 3.686c.219.672.367 1.236.445 1.693h.047c.016-.14.057-.357.123-.65.071-.293.479-1.869 1.225-4.729h1.008l-1.776 6.422h-1.154Zm4.131-1.213c-.117.133-.176.33-.176.592 0 .281.065.484.194.609a.705.705 0 0 0 .498.182c.222 0 .398-.068.527-.205.129-.137.193-.332.193-.586 0-.262-.064-.459-.193-.592-.125-.136-.301-.205-.527-.205-.223 0-.395.069-.516.205Z" fill="#787878"/>
        <path fill-rule="evenodd" clip-rule="evenodd" d="M407.459 228.948c0 1.047-.264 1.866-.791 2.455-.527.586-1.256.879-2.186.879-.574 0-1.084-.134-1.529-.404a2.665 2.665 0 0 1-1.031-1.16c-.242-.504-.363-1.094-.363-1.77 0-1.047.261-1.861.785-2.443.523-.586 1.25-.879 2.179-.879.899 0 1.612.299 2.139.897.531.597.797 1.406.797 2.425Zm-4.893 0c0 .821.164 1.446.493 1.875.328.43.81.645 1.447.645s1.119-.213 1.447-.639c.332-.429.498-1.056.498-1.881 0-.816-.166-1.435-.498-1.857-.328-.426-.814-.639-1.459-.639-.637 0-1.117.209-1.441.627-.324.418-.487 1.041-.487 1.869Z" fill="#787878"/>
        <path d="M413.564 228.011v4.154h.973v-4.189c0-.821-.195-1.416-.586-1.787-.39-.375-.972-.563-1.746-.563-.441 0-.842.088-1.201.264a1.97 1.97 0 0 0-.838.732h-.047l-.158-.879h-.791v6.422h.973v-3.369c0-.836.156-1.436.468-1.799.313-.363.805-.545 1.477-.545.508 0 .881.129 1.119.387s.357.648.357 1.172Zm3.95 4.154h-.973v-9.117h.973v9.117Zm2.086-6.422h-1.043l2.589 6.457-.357.914c-.285.75-.762 1.125-1.43 1.125-.265 0-.505-.023-.72-.07v.779c.289.067.582.1.879.1.531 0 .978-.152 1.341-.457.368-.301.688-.813.961-1.535l2.76-7.313h-1.043a395.902 395.902 0 0 0-1.594 4.453c-.16.481-.265.821-.316 1.02h-.047c-.074-.371-.266-.975-.574-1.811l-1.406-3.662Z" fill="#787878"/>
        <path fill-rule="evenodd" clip-rule="evenodd" d="M431.166 228.948c0 1.047-.264 1.866-.791 2.455-.527.586-1.256.879-2.186.879-.574 0-1.084-.134-1.529-.404a2.665 2.665 0 0 1-1.031-1.16c-.242-.504-.363-1.094-.363-1.77 0-1.047.261-1.861.785-2.443.523-.586 1.25-.879 2.179-.879.899 0 1.612.299 2.139.897.531.597.797 1.406.797 2.425Zm-4.893 0c0 .821.165 1.446.493 1.875.328.43.81.645 1.447.645s1.119-.213 1.447-.639c.332-.429.498-1.056.498-1.881 0-.816-.166-1.435-.498-1.857-.328-.426-.814-.639-1.459-.639-.637 0-1.117.209-1.441.627-.324.418-.487 1.041-.487 1.869Z" fill="#787878"/>
        <path d="M438.168 226.499h1.635v-.756h-1.635v-.416c0-.539.088-.929.264-1.172.175-.246.447-.369.814-.369.266 0 .586.061.961.182l.252-.779c-.457-.137-.855-.205-1.195-.205-1.379 0-2.069.789-2.069 2.367v.357l-1.148.352v.439h1.148v5.666h.973v-5.666Zm-4.031 0h1.634v-.756h-1.634v-.416c0-.539.088-.929.263-1.172.176-.246.448-.369.815-.369.265 0 .586.061.961.182l.252-.779c-.457-.137-.856-.205-1.196-.205-1.378 0-2.068.789-2.068 2.367v.357l-1.148.352v.439h1.148v5.666h.973v-5.666Zm6.879 5.666h.972v-6.422h-.972v6.422Zm.082-8.648c-.11.101-.164.263-.164.486 0 .219.054.383.164.492a.564.564 0 0 0 .41.158.57.57 0 0 0 .404-.158c.113-.109.17-.273.17-.492 0-.219-.057-.381-.17-.486a.57.57 0 0 0-.404-.158.564.564 0 0 0-.41.158Zm5.537 8.765c-.93 0-1.651-.285-2.162-.855-.508-.574-.762-1.385-.762-2.432 0-1.074.258-1.904.773-2.49.52-.586 1.258-.879 2.215-.879.309 0 .617.033.926.1.309.066.551.144.727.234l-.299.826a4.394 4.394 0 0 0-.703-.211 3.081 3.081 0 0 0-.674-.088c-1.305 0-1.957.832-1.957 2.497 0 .789.158 1.394.474 1.816.321.422.793.633 1.418.633.535 0 1.084-.115 1.647-.346v.861c-.43.223-.971.334-1.623.334Z" fill="#787878"/>
        <path fill-rule="evenodd" clip-rule="evenodd" d="M450.25 231.415c.551.578 1.301.867 2.25.867.434 0 .803-.033 1.107-.099.309-.063.635-.168.979-.317v-.867a5.174 5.174 0 0 1-2.051.434c-.656 0-1.166-.196-1.529-.586-.36-.391-.549-.963-.568-1.717h4.423v-.615c0-.867-.234-1.565-.703-2.092-.469-.531-1.105-.797-1.91-.797-.859 0-1.545.305-2.057.914-.507.61-.761 1.432-.761 2.467 0 1.027.273 1.83.82 2.408Zm.75-4.471c.309-.335.721-.503 1.236-.503.508 0 .899.164 1.172.492.274.324.41.793.41 1.406h-3.357c.055-.594.234-1.059.539-1.395Z" fill="#787878"/>
        <path d="M456.385 231.544c0-.262.058-.459.176-.592.121-.136.293-.205.515-.205.227 0 .403.069.528.205.128.133.193.33.193.592 0 .254-.065.449-.193.586-.129.137-.305.205-.528.205a.708.708 0 0 1-.498-.182c-.129-.125-.193-.328-.193-.609Zm3.744-.117c.512.57 1.232.855 2.162.855.652 0 1.193-.111 1.623-.334v-.861a4.313 4.313 0 0 1-1.646.346c-.625 0-1.098-.211-1.418-.633-.317-.422-.475-1.027-.475-1.816 0-1.665.652-2.497 1.957-2.497.195 0 .42.03.674.088.254.055.488.125.703.211l.299-.826a3.028 3.028 0 0 0-.727-.234 4.346 4.346 0 0 0-.926-.1c-.957 0-1.695.293-2.214.879-.516.586-.774 1.416-.774 2.49 0 1.047.254 1.858.762 2.432Z" fill="#787878"/>
        <path fill-rule="evenodd" clip-rule="evenodd" d="M470.986 228.948c0 1.047-.263 1.866-.791 2.455-.527.586-1.256.879-2.185.879-.574 0-1.084-.134-1.53-.404a2.665 2.665 0 0 1-1.031-1.16c-.242-.504-.363-1.094-.363-1.77 0-1.047.262-1.861.785-2.443.524-.586 1.25-.879 2.18-.879.898 0 1.611.299 2.138.897.532.597.797 1.406.797 2.425Zm-4.892 0c0 .821.164 1.446.492 1.875.328.43.81.645 1.447.645s1.119-.213 1.447-.639c.332-.429.499-1.056.499-1.881 0-.816-.167-1.435-.499-1.857-.328-.426-.814-.639-1.459-.639-.636 0-1.117.209-1.441.627-.324.418-.486 1.041-.486 1.869Z" fill="#787878"/>
        <path d="M480.883 227.987v4.178h.972v-4.189c0-.821-.181-1.416-.544-1.787-.36-.375-.903-.563-1.629-.563a2.59 2.59 0 0 0-1.243.293c-.363.195-.64.461-.832.797h-.046c-.309-.727-.965-1.09-1.969-1.09-.414 0-.789.088-1.125.264-.332.176-.59.42-.774.732h-.047l-.158-.879h-.791v6.422h.973v-3.369c0-.832.141-1.43.422-1.793.285-.367.732-.551 1.342-.551.464 0 .806.129 1.025.387.219.254.328.637.328 1.148v4.178h.973v-3.586c0-.722.144-1.258.433-1.605.289-.348.737-.522 1.342-.522.461 0 .801.129 1.02.387.218.254.328.637.328 1.148Z" fill="#787878"/>
        <path d="m387.676 126.352-5.149 5.659h-.046l.065-2.774V122h-.919v14.436h.919v-3.59l1.651-1.503 3.832 5.093h1.104l-4.314-5.78 3.971-4.304h-1.114Zm-147.402 8.27c1.117-1.209 1.675-2.939 1.675-5.191 0-2.257-.555-3.987-1.665-5.19-1.104-1.203-2.701-1.805-4.791-1.805-2.09 0-3.696.598-4.819 1.795-1.116 1.191-1.674 2.918-1.674 5.182 0 2.263.558 4 1.674 5.209 1.117 1.209 2.717 1.814 4.8 1.814 2.084 0 3.684-.605 4.8-1.814Zm-7.386-1.758c-.576-.769-.865-1.913-.865-3.433 0-1.519.292-2.663.875-3.432.583-.775 1.448-1.163 2.595-1.163 2.288 0 3.433 1.532 3.433 4.595 0 3.058-1.151 4.586-3.452 4.586-1.147 0-2.009-.384-2.586-1.153Zm19.708 3.386h3.665v-13.6h-2.595v6.437c0 .732.046 1.982.139 3.749h-.065l-5.907-10.186h-3.637v13.6h2.577v-6.4c0-.775-.059-2.071-.177-3.888h.084l5.916 10.288Zm6.526 0v-13.6h2.884v11.219h5.516v2.381h-8.4Zm17.269-13.6-2.837 5.6-2.818-5.6h-3.126l4.512 8.4v5.2h2.865v-5.293l4.511-8.307h-3.107Zm16.592 6.781c0 2.252-.559 3.982-1.675 5.191-1.115 1.209-2.715 1.814-4.799 1.814-2.084 0-3.684-.605-4.8-1.814-1.116-1.209-1.674-2.946-1.674-5.209 0-2.264.558-3.991 1.674-5.182 1.123-1.197 2.729-1.795 4.819-1.795s3.687.602 4.791 1.805c1.109 1.203 1.664 2.933 1.664 5.19Zm-9.925 0c0 1.52.288 2.664.865 3.433.577.769 1.439 1.153 2.586 1.153 2.301 0 3.451-1.528 3.451-4.586 0-3.063-1.144-4.595-3.432-4.595-1.147 0-2.013.388-2.596 1.163-.582.769-.874 1.913-.874 3.432Zm12.172 6.819h2.837v-5.377h4.614v-2.353h-4.614v-3.507h4.958v-2.363h-7.795v13.6Zm12.721 0h-2.837v-13.6h7.795v2.363h-4.958v3.507h4.614v2.353h-4.614v5.377Zm7.047-13.6v13.6h2.884v-13.6h-2.884Zm11.512 2.205c-1.085 0-1.925.409-2.52 1.228-.596.812-.894 1.947-.894 3.404 0 3.033 1.138 4.549 3.414 4.549.955 0 2.112-.239 3.47-.716v2.418c-1.116.465-2.363.698-3.739.698-1.979 0-3.492-.598-4.54-1.795-1.048-1.203-1.572-2.927-1.572-5.172 0-1.414.257-2.652.772-3.712.515-1.067 1.253-1.882 2.214-2.447.968-.57 2.099-.855 3.395-.855 1.321 0 2.649.319 3.982.958l-.93 2.344a15.527 15.527 0 0 0-1.535-.633 4.6 4.6 0 0 0-1.517-.269Zm5.801 11.395h7.833v-2.381h-4.949v-3.507h4.604v-2.363h-4.604v-2.986h4.949v-2.363h-7.833v13.6Zm27.154-6.726c0 2.276-.597 3.999-1.791 5.168-1.193 1.163-2.947 1.744-5.26 1.744h-3.247v-13.563h3.665c2.164 0 3.809.565 4.935 1.697 1.132 1.132 1.698 2.783 1.698 4.954Zm-1.03.037c0-1.942-.495-3.401-1.484-4.378-.984-.984-2.431-1.476-4.342-1.476h-2.496v11.894h2.245c4.051 0 6.077-2.013 6.077-6.04Zm4.554 5.706c.823.903 1.967 1.355 3.433 1.355.581 0 1.113-.047 1.596-.14a7.126 7.126 0 0 0 1.577-.501v-.835c-.668.266-1.222.44-1.661.52a8.4 8.4 0 0 1-1.512.121c-1.181 0-2.091-.365-2.728-1.095-.631-.73-.952-1.788-.965-3.173h7.265v-.742c0-1.423-.344-2.548-1.03-3.377-.687-.829-1.624-1.243-2.811-1.243-1.342 0-2.409.485-3.201 1.456-.792.965-1.187 2.252-1.187 3.86 0 1.626.408 2.891 1.224 3.794Zm.826-7.329c.587-.643 1.367-.965 2.338-.965.897 0 1.599.331 2.106.993.507.655.76 1.568.76 2.737h-6.234c.099-1.206.442-2.128 1.03-2.765Zm15.216 5.873c0 .903-.344 1.598-1.03 2.087-.687.482-1.661.724-2.922.724-1.349 0-2.419-.208-3.21-.622v-.993a7.085 7.085 0 0 0 3.21.761c.995 0 1.75-.164 2.263-.492.52-.334.78-.776.78-1.326 0-.507-.208-.934-.622-1.281-.408-.346-1.082-.686-2.022-1.02-1.009-.365-1.717-.677-2.125-.937-.408-.266-.717-.563-.928-.891-.204-.334-.306-.739-.306-1.215 0-.755.316-1.351.946-1.791.637-.439 1.525-.658 2.663-.658 1.089 0 2.121.204 3.099.612l-.344.835c-.989-.408-1.908-.612-2.755-.612-.823 0-1.475.136-1.958.408-.482.272-.723.649-.723 1.132 0 .525.185.946.556 1.261.378.316 1.111.668 2.199 1.058.909.328 1.571.625 1.986.891.414.259.723.556.927.89.211.334.316.727.316 1.179Zm14.462 1.994c.581 0 1.089-.049 1.522-.148v.742c-.446.148-.959.223-1.54.223-.891 0-1.55-.239-1.977-.715-.42-.476-.63-1.224-.63-2.245v-6.513h-1.494v-.538l1.494-.417.463-2.282h.474v2.44h2.959v.797h-2.959v6.383c0 .773.136 1.345.408 1.716.272.372.699.557 1.28.557Zm10.845-.566c.798-.928 1.197-2.214 1.197-3.859 0-1.621-.396-2.895-1.187-3.822-.786-.934-1.871-1.401-3.257-1.401-1.39 0-2.485.46-3.283 1.382-.798.915-1.197 2.196-1.197 3.841 0 1.045.18 1.967.538 2.764.359.798.876 1.411 1.55 1.837.674.427 1.452.641 2.337.641 1.404 0 2.504-.461 3.302-1.383Zm-5.853-.612c-.606-.779-.909-1.862-.909-3.247 0-1.398.3-2.477.9-3.238.605-.767 1.466-1.15 2.579-1.15 1.112 0 1.975.383 2.588 1.15.618.767.927 1.846.927 3.238 0 1.385-.306 2.468-.918 3.247-.606.773-1.465 1.16-2.578 1.16-1.114 0-1.976-.387-2.589-1.16Zm14.157 1.995c-1.553 0-2.685-.582-3.396-1.745h-.065l.028.78c.025.457.037.958.037 1.503V141h-.918v-14.648h.779l.176 1.438h.056c.693-1.089 1.8-1.633 3.321-1.633 1.361 0 2.397.448 3.108 1.345.717.891 1.076 2.189 1.076 3.896 0 1.658-.377 2.944-1.132 3.86-.748.909-1.772 1.364-3.07 1.364Zm-.019-.817c1.033 0 1.831-.383 2.394-1.15.569-.767.853-1.84.853-3.219 0-2.963-1.07-4.444-3.21-4.444-1.175 0-2.038.324-2.588.974-.551.643-.826 1.694-.826 3.154v.297c0 1.577.263 2.703.789 3.377.532.674 1.394 1.011 2.588 1.011Zm12.19.631h7.413v-.872h-6.466v-5.817h6.104v-.872h-6.104v-5.13h6.466v-.872h-7.413v13.563Zm13.944-10.279c.73 0 1.361.133 1.893.399s1.008.72 1.429 1.363h.055a48.3 48.3 0 0 1-.055-2.291V122h.909v14.436h-.603l-.232-1.54h-.074c-.767 1.15-1.868 1.726-3.303 1.726-1.392 0-2.456-.433-3.192-1.299-.736-.866-1.104-2.128-1.104-3.785 0-1.745.365-3.077 1.095-3.999.73-.922 1.791-1.382 3.182-1.382Zm0 .835c-1.101 0-1.929.386-2.486 1.159-.551.773-.826 1.896-.826 3.368 0 2.857 1.11 4.286 3.331 4.286 1.138 0 1.973-.331 2.505-.993.532-.661.798-1.753.798-3.274v-.158c0-1.559-.263-2.678-.789-3.359-.52-.686-1.364-1.029-2.533-1.029Zm7.626 9.444h.919v-10.084h-.919v10.084Zm.455-13.777c-.39 0-.585.297-.585.891 0 .6.195.9.585.9.192 0 .34-.081.445-.242.111-.16.167-.38.167-.658 0-.285-.056-.504-.167-.659a.506.506 0 0 0-.445-.232Zm6.513 13.146c.581 0 1.088-.049 1.521-.148v.742c-.445.148-.959.223-1.54.223-.891 0-1.549-.239-1.976-.715-.421-.476-.631-1.224-.631-2.245v-6.513h-1.494v-.538l1.494-.417.464-2.282h.473v2.44h2.96v.797h-2.96v6.383c0 .773.136 1.345.408 1.716.272.372.699.557 1.281.557Zm10.844-.566c.798-.928 1.197-2.214 1.197-3.859 0-1.621-.396-2.895-1.188-3.822-.785-.934-1.871-1.401-3.256-1.401-1.392 0-2.487.46-3.284 1.382-.798.915-1.197 2.196-1.197 3.841 0 1.045.179 1.967.538 2.764.359.798.875 1.411 1.549 1.837.674.427 1.454.641 2.338.641 1.404 0 2.505-.461 3.303-1.383Zm-5.854-.612c-.606-.779-.909-1.862-.909-3.247 0-1.398.3-2.477.899-3.238.607-.767 1.466-1.15 2.58-1.15 1.113 0 1.976.383 2.588 1.15.618.767.928 1.846.928 3.238 0 1.385-.306 2.468-.919 3.247-.606.773-1.466 1.16-2.579 1.16-1.113 0-1.976-.387-2.588-1.16Zm13.815-8.47c.426 0 .884.043 1.373.13l-.177.881a5.373 5.373 0 0 0-1.308-.158c-.859 0-1.564.365-2.115 1.095-.55.73-.826 1.651-.826 2.765v5.566h-.918v-10.084h.779l.093 1.818h.065c.414-.742.857-1.262 1.327-1.559.47-.303 1.039-.454 1.707-.454Zm8.654 9.741c.687-.489 1.03-1.184 1.03-2.087 0-.452-.105-.845-.315-1.179-.204-.334-.514-.631-.928-.89-.414-.266-1.076-.563-1.985-.891-1.089-.39-1.822-.742-2.199-1.058-.371-.315-.557-.736-.557-1.261 0-.483.242-.86.724-1.132.482-.272 1.135-.408 1.958-.408.847 0 1.765.204 2.755.612l.343-.835a7.96 7.96 0 0 0-3.098-.612c-1.138 0-2.026.219-2.663.658-.631.44-.946 1.036-.946 1.791 0 .476.102.881.306 1.215.21.328.519.625.928.891.408.26 1.116.572 2.124.937.94.334 1.614.674 2.022 1.02.415.347.622.774.622 1.281 0 .55-.26.992-.779 1.326-.514.328-1.268.492-2.264.492a7.085 7.085 0 0 1-3.21-.761V136c.792.414 1.862.622 3.21.622 1.262 0 2.236-.242 2.922-.724Z" fill="#333"/>
        <path d="M115.112 250H0v-45.945l21.642 10.16c11.14 5.338 29.06 5.338 39.716 0l84.759-39.792 45.528 21.352c5.56 2.664 8.345 6.054 8.355 9.384v.036c-.01 3.33-2.795 6.598-8.355 9.02L115.112 250Z" fill="#FF6F3D"/>
        <path d="M0 189.506v-60.237l21.703 10.183c11.106 5.344 28.971 5.344 39.594 0l85.95-40.325 44.424 20.891c11.105 5.344 11.105 13.603 0 18.462L61.297 199.696c-11.105 5.344-28.971 5.344-39.594 0L0 189.506Z" fill="#95C038"/>
        <path d="m0 114.773 21.703 10.044c10.623 4.789 28.489 4.789 39.594 0l130.374-60.335c11.105-4.788 11.105-12.929 0-18.196L91.656 0H0v114.773Z" fill="#5DC0E8"/>
    </g>
    <defs>
        <clipPath id="a">
            <path fill="#fff" d="M0 0h500v250H0z"/>
        </clipPath>
    </defs>
</svg>
