<svg width="300" height="300" viewBox="0 0 300 300" fill="none" xmlns="http://www.w3.org/2000/svg">
    <symbol id="connection_error" viewBox="0 0 300 300">
        <path opacity=".2" d="M238.37 222.689c-.61-7.93-9.25-14.22-16.98-12.36l-77.39 9.89c7.74-1.86 16.37 4.43 16.98 12.36l77.39-9.89Z" fill="gray"/>
        <path opacity=".3" d="M206.659 185.148c2.342-.609 4.779-.963 6.846-.549 4.706.941 7.827 4.277 8.007 8.597.174 4.156-2.407 8.391-7.139 11.453-4.514 2.921-12.312 5.624-20.242 7.59C186.15 214.218 187.115 215 181 215l-3-5c5.551 0 7.149-.685 14.928-2.614 7.83-1.942 14.948-4.488 18.729-6.935 3.767-2.438 4.937-5.203 4.86-7.047-.07-1.68-1.199-3.344-3.993-3.902-.933-.187-2.474-.07-4.607.485-2.064.537-4.418 1.411-6.841 2.467-4.843 2.112-7.069 3.677-10.076 5.546l-2.5-4.596c3.16-1.964 5.463-3.303 10.578-5.533 2.556-1.114 5.171-2.097 7.581-2.723Zm-78.419 9.122c11.971-7.094 23.787-2.215 28.275 1.15a2.5 2.5 0 0 0 0 2.5c-.752 1.37-3 1.5-3 1.5-3.513-2.634-13.097-6.555-22.726-.849-5.628 3.335-11.075 8.234-16.938 13.507-.89.8-1.789 1.609-2.701 2.423-6.797 6.068-14.168 12.303-22.588 16.189-6.936 3.201-15.883 4.632-24.22 3.844-8.291-.783-16.463-3.819-21.306-10.085-3.184-4.12-2.79-10.902 2.293-15.718 5.087-4.82 14.547-7.534 29.556-5.283 10.143 1.521 17.44 3.373 21.63 4.944l1.5 5.528c-3.81-1.428-14.014-4.049-23.871-5.527-14.315-2.147-21.898.671-25.376 3.967-3.483 3.3-3.177 7.218-1.776 9.032 3.659 4.733 10.237 7.448 17.82 8.164 7.538.713 15.59-.607 21.655-3.406 7.67-3.539 14.548-9.304 21.354-15.379.882-.788 1.765-1.583 2.649-2.379 5.817-5.236 11.679-10.513 17.77-14.122Z" fill="#AAA"/>
        <path d="M137.707 155.428c1.583-.058 2.997-.66 3.971-1.589.723.703.917 1.925.404 3.024-.627 1.341-2.072 1.99-3.227 1.45-1.008-.471-1.463-1.691-1.148-2.885Zm19.247-2.697c.252 1.397 1.256 2.6 2.664 3.31a2.676 2.676 0 0 1-.063.146c-.627 1.341-2.072 1.99-3.228 1.45-1.156-.54-1.585-2.065-.958-3.406.344-.735.933-1.262 1.585-1.5Zm-8.063 16.242c-1.603-.805-3.693-.694-5.595.103l-.001.001c-2.766 1.156-4.981 3.616-5.842 6.496a1.5 1.5 0 0 1-2.874-.86c1.119-3.74 3.963-6.9 7.557-8.404 2.438-1.022 5.487-1.331 8.103-.016l.003.001c1.407.71 2.539 2.045 3.321 3.38.788 1.346 1.348 2.909 1.449 4.279a1.5 1.5 0 1 1-2.992.22c-.059-.8-.424-1.922-1.046-2.983-.628-1.072-1.39-1.867-2.083-2.217Zm-10.086-36.338a1.499 1.499 0 0 1-.359 2.09 13.537 13.537 0 0 1-7.97 2.476 1.501 1.501 0 0 1 .048-3 10.54 10.54 0 0 0 6.19-1.925 1.5 1.5 0 0 1 2.091.359Zm33.34-1.985a1.501 1.501 0 0 1 2.109.232c.728.907 2.064 1.332 3.179 1.011a1.5 1.5 0 0 1 .83 2.883c-2.282.657-4.867-.17-6.349-2.017a1.5 1.5 0 0 1 .231-2.109Z" fill="gray"/>
        <g opacity=".3" fill="gray">
            <path d="M130.189 70.204c5.19-4.2 12.266-6.82 20.113-6.82 7.57 0 14.422 2.437 19.557 6.38a2.192 2.192 0 0 0 2.671-3.477C166.604 61.736 158.805 59 150.302 59c-8.813 0-16.872 2.94-22.872 7.796a2.193 2.193 0 0 0 2.759 3.408Z"/>
            <path d="M149.999 73.615c-5.595 0-10.546 1.821-13.955 4.618a2.192 2.192 0 1 1-2.781-3.39c4.265-3.5 10.225-5.612 16.736-5.612 6.512 0 12.472 2.113 16.737 5.612a2.192 2.192 0 0 1-2.781 3.39c-3.409-2.797-8.361-4.618-13.956-4.618ZM142.448 86.4c2.021-1.347 4.435-2.554 7.553-2.554 3.118 0 5.532 1.207 7.553 2.554a2.192 2.192 0 1 0 2.432-3.648c-2.363-1.575-5.638-3.291-9.985-3.291-4.347 0-7.622 1.716-9.985 3.291a2.193 2.193 0 1 0 2.432 3.648Zm7.554 10.6a3.654 3.654 0 1 0-.001-7.308 3.654 3.654 0 0 0 .001 7.307Z"/>
        </g>
        <path d="M171.061 81.94a1.502 1.502 0 0 1 0 2.12l-5.44 5.44 5.44 5.44a1.501 1.501 0 0 1-2.122 2.121l-5.439-5.44-5.439 5.44a1.501 1.501 0 0 1-2.122-2.122l5.44-5.439-5.44-5.44a1.501 1.501 0 0 1 2.122-2.121l5.439 5.44 5.439-5.44a1.501 1.501 0 0 1 2.122 0Z" fill="#FF6F3D"/>
        <path opacity=".2" d="m160.75 233.01 54.855-7.01c10.213 1.141 16.395 2.63 16.395 4.26 0 3.59-29.997 6.5-67 6.5s-67-2.91-67-6.5c0-1.105 2.843-2.146 7.858-3.057 4.378 3.415 9.997 5.294 15.397 4.837.751.007 1.544-.122 2.347-.332l34.904-4.889c1.256 1.834 2.071 3.947 2.244 6.191Z" fill="gray"/>
        <path fill-rule="evenodd" clip-rule="evenodd" d="m201.291 128.136-4.107-11.357-72.169 5.248-.273.369c-16.034 21.679-24.195 40.105-27.794 55.126a25.214 25.214 0 0 0-.881 4.062c-1.97 10.176-1.813 18.642-.697 25.343-4.412-1.476-11.257-3.106-20.335-4.468-15.148-2.272-24.984.421-30.393 5.546-5.4 5.117-5.938 12.472-2.396 17.056 5.08 6.573 13.57 9.672 22.003 10.469 8.497.803 17.624-.65 24.734-3.931 4.549-2.1 8.788-4.869 12.782-7.913.138.181.273.35.404.507 4.732 5.655 12.353 9.118 19.661 8.508.82 0 1.66-.139 2.484-.35l34.218-4.793c.085.139.168.279.248.42.802 1.444 1.311 3.028 1.438 4.679l.08 1.048.051.091 79.377-10.144-.073-.948c-.154-1.997-.774-3.886-1.734-5.584-1.113-2.003-2.697-3.744-4.546-5.09-3.372-2.529-7.872-3.529-11.928-2.685l-24.014 3.069c6.877-1.882 13.425-4.297 17.486-6.925 4.924-3.185 7.788-7.714 7.596-12.334-.202-4.851-3.726-8.519-8.811-9.536-2.293-.459-4.909-.058-7.294.562-2.478.644-5.146 1.648-7.728 2.774-3.708 1.616-7.406 3.558-10.378 5.259-1.364-.832-2.715-2.06-3.994-3.805-2.595-3.537-3.688-7.988-3.87-12.387-.169-4.069.445-8.022 1.306-11.019 3.851-10.385 9.955-22.505 19.266-36.447l.281-.42Zm-67.313 96.781c.35-.261.702-.525 1.058-.788 5.465-3.628 7.965-4.628 8.965-4.881.9-.217 1.809-.331 2.715-.353l33.147-4.236a26.064 26.064 0 0 1-.305-.357c-4.257-5.097-10.304-21.237.261-49.844.075-.259.151-.512.229-.758l.048.015c3.762-9.989 9.538-21.477 18.095-34.523l-3.739.583a1 1 0 0 1-1.129-1.207l2.167-9.66-69.413 5.047c-10.156 13.786-24.104 36.814-28.185 59.715-.187 4.477 1.084 9.265 4.731 14.239 2.227 3.037 5.183 4.105 7.889 4.339 2.732.236 5.168-.387 6.195-.703l.001.002c3.598-3.062 7.264-5.909 11.023-8.137 11.799-6.992 23.438-2.79 28.601.657a6.236 6.236 0 0 1 1.055-.355c1.2-.285 2.517-.168 3.462.703l.069.045.033.022.04.028c.426.298.856.702 1.236 1.094.386.397.755.815 1.055 1.16l.129.148c.248.286.414.476.51.571.95.933 1.103 2.285.832 3.521-.274 1.251-1.003 2.548-2.079 3.642-1.075 1.094-2.36 1.846-3.606 2.142-1.231.292-2.585.161-3.534-.772-.067-.066-.183-.171-.33-.305-.393-.357-1.007-.915-1.484-1.445a7.648 7.648 0 0 1-.666-.839 3.039 3.039 0 0 1-.52-.411c-.95-.933-1.103-2.284-.832-3.52l.006-.028.009-.041c-3.179-1.881-9.027-3.853-15.429-2.118-.089.19-.195.37-.319.537-.629.849-1.595 1.321-2.58 1.442a3.576 3.576 0 0 1-1.078.996l-.003.001c-.924.537-1.994.559-2.903.332-4.869 3.202-9.676 7.52-14.884 12.205l-.002.001-.011.01c-.886.797-1.782 1.603-2.69 2.414-2.581 2.303-5.258 4.645-8.056 6.879l.239.375c4.373 5.227 11.049 8.739 17.624 8.207l2.064-.289.01-.005c.199-.04.396-.084.594-.132.264-.078.533-.166.806-.261.976-.34 1.938-.755 2.861-1.153l.001-.001.469-.202c.666-.36 1.315-.756 1.958-1.177l1.146-.781c.813-.573 1.622-1.177 2.444-1.79Zm59.914-13.648a129.48 129.48 0 0 1-12.212 2.424c-.2-.221-.396-.445-.587-.673a13.882 13.882 0 0 1-1.404-2.08c4.234-.552 8.917-1.451 13.48-2.582 7.85-1.947 15.105-4.525 19.032-7.066 3.964-2.565 5.412-5.625 5.316-7.929a4.68 4.68 0 0 0-1.238-3.007c-.811-.882-1.998-1.522-3.557-1.834-.845-.169-1.985-.128-3.381.125a4.158 4.158 0 0 0-.343-1.089 1 1 0 0 0-1.793.886c.079.16.142.386.183.65l-.289.08a1.085 1.085 0 0 0-.004-.107l-.001-.024a3.476 3.476 0 0 0-1.314-2.512.94.94 0 0 0-.101-.068c.417-.126.828-.241 1.233-.347 2.299-.598 4.558-.904 6.398-.536 4.328.866 7.047 3.87 7.205 7.659.153 3.691-2.143 7.633-6.684 10.571-4.367 2.826-12.03 5.498-19.939 7.459Zm-1.204-4.853c-4.768 1.183-9.635 2.098-13.94 2.627-2.594-5.919-4.602-16.917-.327-33.515.004.192.011.384.019.577.192 4.643 1.349 9.525 4.255 13.487a18.57 18.57 0 0 0 2.027 2.345 6.05 6.05 0 0 0-1.938.735c-.415.245-.831.408-1.246.57-.411.161-.821.322-1.227.561-1.153.68-1.683 1.932-1.757 3.208a6.318 6.318 0 0 0 .152 1.745l-1.224.788a1 1 0 0 0 1.083 1.682l.853-.55a8.153 8.153 0 0 0 .884 1.344l-.813.525a1 1 0 1 0 1.085 1.68l1.232-.795c.266.184.539.343.818.477a4.78 4.78 0 0 0 1.409.432c.023.014.063.018.119.015.725.078 1.461-.041 2.13-.435.21-.125.4-.268.57-.427l.374-.14.383-.145.007-.003.003-.001c.546-.207.98-.371 1.135-.415a6.021 6.021 0 0 0 2.927-4.443c2.802-1.607 6.315-3.455 9.796-4.973.915-.399 1.817-.77 2.692-1.105.071.025.145.047.224.063l.006.001c.601.12 1.092-.121 1.421-.376.392.419.992.772 1.717.691.963-.096 1.541-.887 1.751-1.502.045-.132.079-.293.105-.471 1.412-.281 2.379-.302 2.936-.19 1.235.247 2.01.718 2.478 1.227.467.507.686 1.112.712 1.737.058 1.385-.833 3.855-4.404 6.165-3.635 2.352-10.617 4.868-18.427 6.804Zm-92.23 9.379c-3.247-7.699-4.188-16.051-3.538-24.564.815 2.572 2.14 5.2 4.091 7.861 2.649 3.613 6.202 4.878 9.329 5.149 1.184.102 2.313.063 3.32-.044-1.278 1.13-2.547 2.273-3.81 3.41l-.002.001-.046.041c-.884.796-1.765 1.59-2.646 2.376-2.227 1.988-4.45 3.932-6.698 5.77Zm-3.165-1.074c.333.99.683 1.914 1.04 2.771-3.949 3.077-7.996 5.772-12.284 7.751-5.89 2.718-13.763 4.015-21.141 3.318-7.442-.703-13.702-3.353-17.123-7.78-1.05-1.358-1.486-4.702 1.672-7.694 3.157-2.992 10.365-5.831 24.54-3.705 9.505 1.426 19.305 3.916 23.296 5.339Zm47.655 6.485 1.67-.214c2.893-.12 5.823.874 8.243 2.636a14.348 14.348 0 0 1 2.311 2.101l-25.572 3.582c1.698-.984 3.276-2.164 4.793-3.298.322-.241.642-.48.959-.714 2.474-1.829 4.849-3.423 7.596-4.093Zm-9.294-27.59c.467.431.753.982.877 1.566 7.476-1.733 14.154 1.026 17.255 3.199.18-.029.41-.076.651-.152.581-.18 1.017-.452 1.202-.789.241-.439.235-.814.179-1.08a1.47 1.47 0 0 0-.083-.273c-4.425-3.213-15.641-7.679-26.984-.957-5.989 3.55-11.776 8.753-17.611 14.006l-.002.002c-.883.795-1.767 1.59-2.65 2.379-6.804 6.074-13.781 11.933-21.6 15.542-6.24 2.879-14.47 4.221-22.169 3.493-7.725-.73-14.622-3.509-18.516-8.549-1.755-2.27-1.93-6.76 1.878-10.368 3.8-3.601 11.758-6.399 26.212-4.231 8.624 1.294 17.536 3.46 22.265 4.962l-.872-3.213c-4.17-1.5-11.223-3.257-20.948-4.716-14.871-2.23-23.955.505-28.72 5.02-4.766 4.516-5.015 10.725-2.19 14.381 4.606 5.959 12.459 8.931 20.61 9.701 8.177.773 16.945-.636 23.706-3.756 8.27-3.817 15.543-9.958 22.342-16.028.909-.812 1.807-1.62 2.698-2.42l.051-.047c5.824-5.237 11.332-10.191 17.045-13.577a23.49 23.49 0 0 1 2.167-1.135c.257-.867.349-1.582.138-2.166a1 1 0 0 1 1.793-.861 1 1 0 0 1 1.276.067Zm22.062 2.076c.023.089.043.178.061.262a3.534 3.534 0 0 1-.384 2.448c-.567 1.032-1.631 1.51-2.362 1.737-.389.121-.745.19-1.003.229a5.995 5.995 0 0 1-.443.048c-.034.568.126.953.351 1.174.284.279.829.451 1.67.251.826-.195 1.788-.729 2.642-1.597.853-.868 1.37-1.839 1.551-2.669.186-.844.004-1.386-.28-1.666-.284-.279-.829-.451-1.671-.251-.043.01-.087.021-.132.034Zm1.958 5.954c1.064-1.082 1.789-2.363 2.07-3.602l.029.033.121.14c.236.272.467.537.625.693.284.279.466.821.281 1.666-.182.829-.699 1.8-1.552 2.668-.854.868-1.816 1.402-2.642 1.598-.841.199-1.386.027-1.67-.252-.156-.154-.335-.315-.528-.49l-.342-.312.002-.001c1.246-.295 2.53-1.047 3.606-2.141Zm44.497-11.515c.458-.337.89-.669.912-.686l.001-.002c.002-.019.018-.195.013-.284a1.474 1.474 0 0 0-.545-1.049 1 1 0 0 1-.304-1.188c-1.56.53-3.171 1.17-4.769 1.866-3.334 1.454-6.669 3.181-9.452 4.747a5.789 5.789 0 0 1 1.501 2.597c2.701-1.518 5.933-3.191 9.15-4.594a63.325 63.325 0 0 1 3.493-1.407Zm-19.712 3.949c.971.585 1.855 1.489 2.516 2.609.772 1.307 1.138 2.737 1.064 4.021l-.002.026-.003.047-.008.096c1.685-1.191 2.193-3.444 1.172-5.173-.956-1.62-2.962-2.287-4.739-1.626Zm-3.908 3.488a3.804 3.804 0 0 1-.001-.44c.05-.845.374-1.364.777-1.603.404-.238 1.016-.271 1.779.094.756.362 1.55 1.076 2.147 2.087.597 1.011.838 2.051.789 2.888-.049.845-.373 1.364-.777 1.602-.363.215-.895.263-1.553.004l1.331-.859-1.084-1.681-1.964 1.268a6.109 6.109 0 0 1-.887-1.341l1.935-1.246-1.083-1.681-1.409.908Zm41.45 13.433c7.5-1 14.5 4 15.5 11l-75.5 9.5c-.506-6.344-5.677-10.478-10.677-11.478l.177-.022 70.5-9Z" fill="#AAA"/>
    </symbol>
    <symbol id="something_wrong" viewBox="0 0 300 300">
        <path opacity=".3" d="M186.82 185.61 260.85 162s-5.26 6.47-18.64 13.22C229.43 181.67 160 208.3 160 208.3s12.46-2.31 26.82-22.69Z" fill="#AAA"/>
        <path opacity=".2" d="M89 241v-.094c10.66-1.007 19-9.983 19-20.906 0-11.598-9.402-21-21-21-2.786 0-5.446.543-7.878 1.528C74.872 189.123 63.885 181 51 181c-15.56 0-28.354 11.847-29.853 27.012-.215-.008-.43-.012-.647-.012-9.113 0-16.5 7.387-16.5 16.5 0 8.607 6.59 15.675 15 16.433V241h70Z" fill="gray"/>
        <path d="M73 83.5a1 1 0 1 0-2 0v29.02a1 1 0 0 0 2 0V83.5ZM92 96a1 1 0 1 0-2 0v10.52a1 1 0 0 0 2 0V96Zm131 47a1 1 0 0 1 1 1v12a1 1 0 0 1-2 0v-12a1 1 0 0 1 1-1Zm10-15a1 1 0 0 0-2 0v21a1 1 0 0 0 2 0v-21Z" opacity=".3" fill="gray"/>
        <path opacity=".2" d="M274 122v-.306c12.46-1.924 22-12.695 22-25.694 0-14.36-11.641-26-26-26-4.068 0-7.917.934-11.345 2.6C253.443 58.807 240.117 49 224.5 49c-15.091 0-28.044 9.159-33.601 22.221A25.989 25.989 0 0 0 183 70c-10.649 0-19.803 6.402-23.822 15.567A19.411 19.411 0 0 0 149.5 83c-10.77 0-19.5 8.73-19.5 19.5 0 .956.069 1.896.202 2.816l.798-.359 12 5.188a175.372 175.372 0 0 0 5.287 11.818c.236.014.474.025.713.031V122h125Z" fill="gray"/>
        <path d="M111.969 149.824c1.203-.426 1.776-1.903 1.281-3.298-.495-1.395-1.87-2.18-3.073-1.753-1.202.426-1.776 1.903-1.281 3.298.495 1.395 1.871 2.18 3.073 1.753Zm15.876-7.068c1.073-.691 1.292-2.26.49-3.504-.801-1.244-2.321-1.692-3.393-1.001-1.073.691-1.292 2.26-.49 3.504.802 1.244 2.321 1.692 3.393 1.001Zm3.633 11.182c-2.97-1.96-6.57-.49-9.37 1.14a20.376 20.376 0 0 0-6.97 6.78c-.86 1.38-1.55 3.12-.85 4.59.69 1.44 2.57 2.02 4.13 1.62 1.55-.4 2.8-1.55 3.79-2.8.99-1.25 1.8-2.66 2.88-3.84 1.39-1.53 3.22-2.66 5.22-3.22.91-.25 1.96-.48 2.41-1.31.55-1.04-.26-2.32-1.24-2.96ZM95.53 130.903a1.5 1.5 0 0 1 .135 2.118c-1.504 1.708-2.076 4.214-1.47 6.409a1.5 1.5 0 1 1-2.892.799c-.874-3.166-.066-6.719 2.11-9.191a1.5 1.5 0 0 1 2.117-.135Zm27.929-9.705a6.54 6.54 0 0 0-4.049-.811 1.5 1.5 0 0 1-.382-2.976 9.54 9.54 0 0 1 5.931 1.189 1.5 1.5 0 0 1-1.5 2.598Z" fill="gray"/>
        <path d="M119.879 188a1 1 0 0 1 .447-1.341l44-22a1 1 0 0 1 .895 1.788l-44 22a1 1 0 0 1-1.342-.447Zm9 7a1 1 0 0 1 .447-1.341l44-22a1 1 0 0 1 .895 1.788l-44 22a1 1 0 0 1-1.342-.447Zm36.58-7.113a1 1 0 0 0-.922-1.775l-22.224 11.553a1 1 0 0 0 .923 1.775l22.223-11.553Z" fill="#AAA"/>
        <path d="M130.591 104.045a1 1 0 0 1 .806-.006l12 5.188c.242.105.432.3.531.544 3.217 7.976 8.834 20.122 17.076 31.896 4.918-3.044 8.629-7.577 10.359-12.632 1.703-4.971 1.494-10.457-.565-15.333a8.084 8.084 0 0 1-3.254.678 1 1 0 1 1 .01-2c.441.002.883-.047 1.315-.143a1.02 1.02 0 0 1 .074-.073 3.002 3.002 0 0 0 .979-1.994 3.045 3.045 0 0 0-.691-2.12 1.001 1.001 0 0 1 1.537-1.281c.358.431.641.923.838 1.448a5.459 5.459 0 0 0-.454-1.577 1 1 0 1 1 1.814-.841c.245.527.425 1.083.539 1.653a5.81 5.81 0 0 0 .095-1.38 1 1 0 0 1 1.997-.105c.115 2.18-.718 4.378-2.215 5.944a7.97 7.97 0 0 1-.848.764c2.347 5.385 2.614 11.481.722 17.008-1.879 5.488-5.864 10.349-11.09 13.616l.336.462c9.069 12.417 21.047 24.033 36.182 29.58 4.081 1.495 7.959 2.561 11.632 3.268l49.61-15.822a1.003 1.003 0 0 1 1.204.516.998.998 0 0 1-.106 1.044v.001l-.002.002-.004.006-.015.019-.052.066a26.538 26.538 0 0 1-.964 1.123 41.516 41.516 0 0 1-3.014 2.984 51.394 51.394 0 0 1-11.934 7.976 52.28 52.28 0 0 1-3.04 1.35c-6.49 3.266-27.052 11.537-45.94 18.975a4845.528 4845.528 0 0 1-31.548 12.287 29.05 29.05 0 0 1-2.601 1.158 19.043 19.043 0 0 1-1.916.629l-.077.019c-9.378 3.502-21.172 4.441-35.351-.753-15.767-5.777-28.105-17.867-37.331-30.577-7.066.607-14.451-.774-20.204-3.83-5.68-3.016-9.775-7.669-11.084-12.818a9.279 9.279 0 0 1-1.019-.155l-.002-.001a13.35 13.35 0 0 1-7.17-4.121 1 1 0 1 1 1.489-1.335 11.285 11.285 0 0 0 3.77 2.743 8.086 8.086 0 0 1-1.417-3.608 1 1 0 1 1 1.984-.255c.167 1.3.786 2.532 1.7 3.474a6.926 6.926 0 0 1-.2-2.947 1 1 0 0 1 1.977.301c-.19 1.246.137 2.576.87 3.613.47-.292.716-.769.677-1.112a1 1 0 1 1 1.988-.223c.175 1.559-.982 2.836-2.167 3.318-.15.06-.3.111-.45.154 1.23 4.345 4.806 8.452 9.992 11.206 5.064 2.69 11.557 4.02 17.905 3.686a145.363 145.363 0 0 1-6.48-10.173c-4.809-8.268-8.33-16.062-10.651-21.788a151.269 151.269 0 0 1-2.592-6.849 99.33 99.33 0 0 1-.802-2.394l-.033-.104-.008-.025-.01-.034-.004-.012.953-.292-.953.291a1 1 0 0 1 .547-1.205l64.75-29.072ZM88.94 176.556c9.072 12.466 21.091 24.177 36.314 29.755 13.464 4.932 24.637 4.138 33.551.91.067-.046.139-.085.218-.115l.781-.3 1.53-.589a47.892 47.892 0 0 0 8.489-4.776c4.397-3.308 9.816-8.515 15.56-16.667a1 1 0 0 1 .513-.377l20.612-6.574a79.646 79.646 0 0 1-8.512-2.604c-15.652-5.736-27.919-17.695-37.109-30.278-9.061-12.405-15.188-25.494-18.66-34.041l-.044-.019-5.821 2.717a1.001 1.001 0 0 1-1.307-.439l-3.679-6.95-.368-.159-63.532 28.526c.136.412.323.969.563 1.656a148.962 148.962 0 0 0 2.558 6.758c2.294 5.663 5.776 13.367 10.525 21.533a141.996 141.996 0 0 0 7.118 11.062 1.001 1.001 0 0 1 .7.971Zm70.095 30.582-.012-.032.012.032Zm36.291-14.15c18.981-7.474 39.476-15.723 45.814-18.921 6.621-3.341 11.22-6.605 14.152-9.02.469-.387.895-.751 1.28-1.091l-69.749 22.245c-5.184 7.308-10.131 12.307-14.356 15.715 6.396-2.48 14.471-5.625 22.859-8.928Z" fill="#AAA"/>
    </symbol>
</svg>
