<svg width="300" height="300" viewBox="0 0 300 300" fill="none" xmlns="http://www.w3.org/2000/svg">
    <symbol id="something_wrong" viewBox="0 0 300 300">
        <path opacity=".3" d="M186.82 185.61 260.85 162s-5.26 6.47-18.64 13.22C229.43 181.67 160 208.3 160 208.3s12.46-2.31 26.82-22.69Z" fill="#AAA"/>
        <path opacity=".2" d="M89 241v-.094c10.66-1.007 19-9.983 19-20.906 0-11.598-9.402-21-21-21-2.786 0-5.446.543-7.878 1.528C74.872 189.123 63.885 181 51 181c-15.56 0-28.354 11.847-29.853 27.012-.215-.008-.43-.012-.647-.012-9.113 0-16.5 7.387-16.5 16.5 0 8.607 6.59 15.675 15 16.433V241h70Z" fill="gray"/>
        <path d="M73 83.5a1 1 0 1 0-2 0v29.02a1 1 0 0 0 2 0V83.5ZM92 96a1 1 0 1 0-2 0v10.52a1 1 0 0 0 2 0V96Zm131 47a1 1 0 0 1 1 1v12a1 1 0 0 1-2 0v-12a1 1 0 0 1 1-1Zm10-15a1 1 0 0 0-2 0v21a1 1 0 0 0 2 0v-21Z" opacity=".3" fill="gray"/>
        <path opacity=".2" d="M274 122v-.306c12.46-1.924 22-12.695 22-25.694 0-14.36-11.641-26-26-26-4.068 0-7.917.934-11.345 2.6C253.443 58.807 240.117 49 224.5 49c-15.091 0-28.044 9.159-33.601 22.221A25.989 25.989 0 0 0 183 70c-10.649 0-19.803 6.402-23.822 15.567A19.411 19.411 0 0 0 149.5 83c-10.77 0-19.5 8.73-19.5 19.5 0 .956.069 1.896.202 2.816l.798-.359 12 5.188a175.372 175.372 0 0 0 5.287 11.818c.236.014.474.025.713.031V122h125Z" fill="gray"/>
        <path d="M111.969 149.824c1.203-.426 1.776-1.903 1.281-3.298-.495-1.395-1.87-2.18-3.073-1.753-1.202.426-1.776 1.903-1.281 3.298.495 1.395 1.871 2.18 3.073 1.753Zm15.876-7.068c1.073-.691 1.292-2.26.49-3.504-.801-1.244-2.321-1.692-3.393-1.001-1.073.691-1.292 2.26-.49 3.504.802 1.244 2.321 1.692 3.393 1.001Zm3.633 11.182c-2.97-1.96-6.57-.49-9.37 1.14a20.376 20.376 0 0 0-6.97 6.78c-.86 1.38-1.55 3.12-.85 4.59.69 1.44 2.57 2.02 4.13 1.62 1.55-.4 2.8-1.55 3.79-2.8.99-1.25 1.8-2.66 2.88-3.84 1.39-1.53 3.22-2.66 5.22-3.22.91-.25 1.96-.48 2.41-1.31.55-1.04-.26-2.32-1.24-2.96ZM95.53 130.903a1.5 1.5 0 0 1 .135 2.118c-1.504 1.708-2.076 4.214-1.47 6.409a1.5 1.5 0 1 1-2.892.799c-.874-3.166-.066-6.719 2.11-9.191a1.5 1.5 0 0 1 2.117-.135Zm27.929-9.705a6.54 6.54 0 0 0-4.049-.811 1.5 1.5 0 0 1-.382-2.976 9.54 9.54 0 0 1 5.931 1.189 1.5 1.5 0 0 1-1.5 2.598Z" fill="gray"/>
        <path d="M119.879 188a1 1 0 0 1 .447-1.341l44-22a1 1 0 0 1 .895 1.788l-44 22a1 1 0 0 1-1.342-.447Zm9 7a1 1 0 0 1 .447-1.341l44-22a1 1 0 0 1 .895 1.788l-44 22a1 1 0 0 1-1.342-.447Zm36.58-7.113a1 1 0 0 0-.922-1.775l-22.224 11.553a1 1 0 0 0 .923 1.775l22.223-11.553Z" fill="#AAA"/>
        <path d="M130.591 104.045a1 1 0 0 1 .806-.006l12 5.188c.242.105.432.3.531.544 3.217 7.976 8.834 20.122 17.076 31.896 4.918-3.044 8.629-7.577 10.359-12.632 1.703-4.971 1.494-10.457-.565-15.333a8.084 8.084 0 0 1-3.254.678 1 1 0 1 1 .01-2c.441.002.883-.047 1.315-.143a1.02 1.02 0 0 1 .074-.073 3.002 3.002 0 0 0 .979-1.994 3.045 3.045 0 0 0-.691-2.12 1.001 1.001 0 0 1 1.537-1.281c.358.431.641.923.838 1.448a5.459 5.459 0 0 0-.454-1.577 1 1 0 1 1 1.814-.841c.245.527.425 1.083.539 1.653a5.81 5.81 0 0 0 .095-1.38 1 1 0 0 1 1.997-.105c.115 2.18-.718 4.378-2.215 5.944a7.97 7.97 0 0 1-.848.764c2.347 5.385 2.614 11.481.722 17.008-1.879 5.488-5.864 10.349-11.09 13.616l.336.462c9.069 12.417 21.047 24.033 36.182 29.58 4.081 1.495 7.959 2.561 11.632 3.268l49.61-15.822a1.003 1.003 0 0 1 1.204.516.998.998 0 0 1-.106 1.044v.001l-.002.002-.004.006-.015.019-.052.066a26.538 26.538 0 0 1-.964 1.123 41.516 41.516 0 0 1-3.014 2.984 51.394 51.394 0 0 1-11.934 7.976 52.28 52.28 0 0 1-3.04 1.35c-6.49 3.266-27.052 11.537-45.94 18.975a4845.528 4845.528 0 0 1-31.548 12.287 29.05 29.05 0 0 1-2.601 1.158 19.043 19.043 0 0 1-1.916.629l-.077.019c-9.378 3.502-21.172 4.441-35.351-.753-15.767-5.777-28.105-17.867-37.331-30.577-7.066.607-14.451-.774-20.204-3.83-5.68-3.016-9.775-7.669-11.084-12.818a9.279 9.279 0 0 1-1.019-.155l-.002-.001a13.35 13.35 0 0 1-7.17-4.121 1 1 0 1 1 1.489-1.335 11.285 11.285 0 0 0 3.77 2.743 8.086 8.086 0 0 1-1.417-3.608 1 1 0 1 1 1.984-.255c.167 1.3.786 2.532 1.7 3.474a6.926 6.926 0 0 1-.2-2.947 1 1 0 0 1 1.977.301c-.19 1.246.137 2.576.87 3.613.47-.292.716-.769.677-1.112a1 1 0 1 1 1.988-.223c.175 1.559-.982 2.836-2.167 3.318-.15.06-.3.111-.45.154 1.23 4.345 4.806 8.452 9.992 11.206 5.064 2.69 11.557 4.02 17.905 3.686a145.363 145.363 0 0 1-6.48-10.173c-4.809-8.268-8.33-16.062-10.651-21.788a151.269 151.269 0 0 1-2.592-6.849 99.33 99.33 0 0 1-.802-2.394l-.033-.104-.008-.025-.01-.034-.004-.012.953-.292-.953.291a1 1 0 0 1 .547-1.205l64.75-29.072ZM88.94 176.556c9.072 12.466 21.091 24.177 36.314 29.755 13.464 4.932 24.637 4.138 33.551.91.067-.046.139-.085.218-.115l.781-.3 1.53-.589a47.892 47.892 0 0 0 8.489-4.776c4.397-3.308 9.816-8.515 15.56-16.667a1 1 0 0 1 .513-.377l20.612-6.574a79.646 79.646 0 0 1-8.512-2.604c-15.652-5.736-27.919-17.695-37.109-30.278-9.061-12.405-15.188-25.494-18.66-34.041l-.044-.019-5.821 2.717a1.001 1.001 0 0 1-1.307-.439l-3.679-6.95-.368-.159-63.532 28.526c.136.412.323.969.563 1.656a148.962 148.962 0 0 0 2.558 6.758c2.294 5.663 5.776 13.367 10.525 21.533a141.996 141.996 0 0 0 7.118 11.062 1.001 1.001 0 0 1 .7.971Zm70.095 30.582-.012-.032.012.032Zm36.291-14.15c18.981-7.474 39.476-15.723 45.814-18.921 6.621-3.341 11.22-6.605 14.152-9.02.469-.387.895-.751 1.28-1.091l-69.749 22.245c-5.184 7.308-10.131 12.307-14.356 15.715 6.396-2.48 14.471-5.625 22.859-8.928Z" fill="#AAA"/>
    </symbol>
</svg>
