<svg viewBox="0 0 20 20">
    <svg id="svg-btn-print" fill="#fff" width="20px" height="20px">
        <rect x="4" y="8" width="1" height="1"/>
        <path fill-rule="evenodd" clip-rule="evenodd" d="M14 4H6V6H14V4ZM5 4V6H3C2.44772 6 2 6.44772 2 7V12V13H3H5V15C5 15.5523 5.44772 16 6 16H14C14.5523 16 15 15.5523 15 15V13H17H18V12V7C18 6.44772 17.5523 6 17 6H15V4C15 3.44772 14.5523 3 14 3H6C5.44772 3 5 3.44772 5 4ZM15 12H17V7H14H6H3V12H5V11C5 10.4477 5.44772 10 6 10H14C14.5523 10 15 10.4477 15 11V12ZM6 11H14V15H6V11Z"/>
    </svg>
    <svg id="svg-btn-save" width="20px" height="20px" fill="#fff">
        <path fill-rule="evenodd" clip-rule="evenodd" d="M15 15H4V4H6V7H12V4H12.5858L15 6.41421V15ZM11 4H10V6H11V4ZM4 3H13L16 6V15C16 15.5523 15.5523 16 15 16H4C3.44772 16 3 15.5523 3 15V4C3 3.44772 3.44772 3 4 3Z"/>
        <rect x="6" y="10" width="7" height="1"/>
        <rect x="6" y="12" width="7" height="1"/>
    </svg>
    <svg id="svg-btn-coauth" width="20px" height="20px">
        <rect x="6" y="10" width="3" height="1" fill="#fff"/>
        <rect x="6" y="12" width="2" height="1" fill="#fff"/>
        <path fill-rule="evenodd" clip-rule="evenodd" d="M16 12.9996C16 11.3427 14.6569 9.99957 13 9.99957C11.3431 9.99957 10 11.3427 10 12.9996C10 14.3058 10.8348 15.417 12 15.8289V16.8736C10.2748 16.4295 9 14.8634 9 12.9996C9 10.7904 10.7909 8.99957 13 8.99957C15.2091 8.99957 17 10.7904 17 12.9996C17 14.1945 16.476 15.2671 15.6453 16H17V17H14L14 16.8736V15.8289L14 14H15V15.2357C15.6137 14.6864 16 13.8881 16 12.9996Z" fill="#fff"/>
        <path fill-rule="evenodd" clip-rule="evenodd" d="M8 15H4V4H6V7H12V4H12.5858L15 6.41421V8H16V6L13 3H4C3.44772 3 3 3.44772 3 4V15C3 15.5523 3.44772 16 4 16H8V15ZM10 4H11V6H10V4Z" fill="#fff"/>
    </svg>
    <svg id="svg-btn-sync" width="20px" height="20px">
        <rect x="6" y="10" width="3" height="1" fill="#fff"/>
        <rect x="6" y="12" width="3" height="1" fill="#fff"/>
        <rect x="10" y="10" width="9" height="7" rx="1" fill="#FFD114"/>
        <rect x="12" y="12" width="5" height="1" fill="#444"/>
        <rect x="12" y="14" width="5" height="1" fill="#444"/>
        <path fill-rule="evenodd" clip-rule="evenodd" d="M4 15H9V16H4C3.44772 16 3 15.5523 3 15V4C3 3.44772 3.44772 3 4 3H13L16 6V9H15V6.41421L12.5858 4H12V7H6V4H4V15ZM10 4H11V6H10V4Z" fill="#fff"/>
    </svg>
    <svg id="svg-btn-undo" fill="#fff" width="20px" height="20px">
        <path d="M11.355,7.625c-1.965,0-3.864,0.777-5.151,2.033L4,7.625V14h6.407l-2.091-2.219 c0.845-1.277,2.313-2.215,3.99-2.215c2.461,0,5.405,1.78,5.694,4.119C17.601,10.291,14.966,7.625,11.355,7.625z"/>
    </svg>
    <svg id="svg-btn-redo" fill="#fff" width="20px" height="20px">
        <path d="M10.645,7.625c1.965,0,3.863,0.777,5.15,2.033L18,7.625V14h-6.406l2.09-2.219 c-0.845-1.277-2.313-2.215-3.989-2.215c-2.461,0-5.405,1.78-5.694,4.119C4.399,10.291,7.034,7.625,10.645,7.625z"/>
    </svg>
    <svg id="svg-btn-home" width="20" height="20" fill="none">
       <path fill-rule="evenodd" clip-rule="evenodd" d="M7 11H7.5H11.5H12V11.5V16H11V12H8V16H7V11.5V11Z" fill="#fff"/>
<path fill-rule="evenodd" clip-rule="evenodd" d="M9.50319 2.38794L9.79153 2.59147L18.2915 8.59147L17.7148 9.40844L16.0003 8.19815V15.4998V15.9998H15.5003H12.0004V14.9998H15.0003V7.49227L9.50319 3.61198L4.00026 7.49639V14.9998H7.00041V15.9998H3.50026H3.00026V15.4998V8.20228L1.29153 9.40844L0.714844 8.59147L9.21484 2.59147L9.50319 2.38794Z" fill="black"/>
    </svg>
</svg>
