<svg width="16" height="16" version="1.1" viewBox="0 0 16 16" xmlns="http://www.w3.org/2000/svg">
 <path d="m16 8c0.06551 3.5421-2.5426 6.9068-5.9811 7.7488-3.0966 0.8279-6.623-0.40534-8.4847-3.0262-1.9282-2.6035-2.0593-6.392-0.24384-9.0895 1.6534-2.5632 4.8371-4.0352 7.8604-3.5572 3.1136 0.43476 5.8491 2.8496 6.5946 5.9148 0.1675 0.64794 0.25373 1.3169 0.25463 1.9862" fill="#ff98a2" fill-rule="evenodd"/>
 <path d="m8 7.4569c1.1519-1.1523 2.3039-2.3046 3.4558-3.4569 0.18114 0.18142 0.36229 0.36283 0.54343 0.54425-1.1519 1.152-2.3039 2.3041-3.4558 3.4561 1.1522 1.152 2.3044 2.3041 3.4566 3.4561l-0.5442 0.54348c-1.1519-1.152-2.3039-2.3041-3.4558-3.4561-1.1522 1.152-2.3044 2.3041-3.4566 3.4561-0.18114-0.18116-0.36229-0.36232-0.54343-0.54348 1.1522-1.152 2.3044-2.3041 3.4566-3.4561-1.1522-1.152-2.3044-2.3041-3.4566-3.4561 0.18114-0.18142 0.36229-0.36283 0.54343-0.54425 1.1522 1.1523 2.3044 2.3046 3.4566 3.4569z" fill="#444"/>
</svg>
