<svg width="16" height="16" version="1.1" viewBox="0 0 16 16" xmlns="http://www.w3.org/2000/svg">
 <path d="m16 8a8 8 0 0 1-7.9943 8 8 8 0 0 1-8.0057-7.9885 8 8 0 0 1 7.9828-8.0115 8 8 0 0 1 8.0172 7.977" fill="#232629" fill-rule="evenodd" style="paint-order:markers stroke fill"/>
 <path d="m8 3.113c-0.56525 0.56506-0.15147 0.15387-0.66337 0.6656l-3.5603 3.5594-0.66337 0.66082 0.66337 0.6656 3.5603 3.5594c0.51652 0.51634 0.12031 0.12033 0.66337 0.66321 0.56525-0.56506 0.15147-0.15148 0.66337-0.66321l3.5603-3.5594 0.66337-0.6656-0.66337-0.66082-3.5603-3.5594c-0.51652-0.51634-0.12031-0.12271-0.66337-0.6656zm0 1.3288 3.5603 3.5594-3.5603 3.5594-3.5603-3.5594z" fill="#eff0f1" stroke-width=".93906"/>
</svg>
