<?xml version="1.0" encoding="UTF-8"?>
<svg id="Layer_1" data-name="Layer 1" xmlns="http://www.w3.org/2000/svg" width="148" height="38" viewBox="0 0 148 38">
  <defs>
    <style>
      .cls-1 {
        fill: #fff;
      }

      .cls-2 {
        fill: #a8a9b0;
      }

      .cls-3 {
        fill: #ea9a24;
      }
    </style>
  </defs>
  <g id="vboxxcloud">
    <path class="cls-1" d="m138.43,20.9c-.26,0-.49-.04-.75-.04-.23,0-.49,0-.75.04-.26,0-.49.04-.75.08v4.07c-.26-.08-.53-.11-.79-.11-.26-.04-.57-.04-.79-.04-.87,0-1.66.15-2.34.41-.72.26-1.28.64-1.81,1.13-.49.49-.87,1.02-1.13,1.66s-.41,1.32-.41,2.07c0,.9.15,1.7.45,2.34.3.64.72,1.17,1.24,1.55.53.41,1.13.68,1.85.87.68.19,1.43.26,2.19.26.98,0,1.85-.04,2.53-.15.68-.11,1.39-.23,2.04-.41v-13.65c-.23-.04-.49-.04-.75-.08Zm-2.26,11.95c-.23.08-.45.11-.68.11-.19.04-.41.04-.68.04-.41,0-.79-.04-1.13-.15s-.64-.26-.9-.45c-.26-.23-.45-.49-.6-.87s-.23-.79-.23-1.32c0-.41.04-.83.15-1.21s.26-.72.49-1.02c.23-.3.53-.53.87-.68.34-.19.75-.26,1.24-.26.26,0,.49,0,.68.04s.41.08.72.11l.08,5.65h0Z"/>
    <path class="cls-1" d="m124.93,35.03c-.75.15-1.55.19-2.34.19-.72,0-1.43-.04-2.11-.15-.68-.11-1.28-.3-1.77-.64-.53-.34-.9-.83-1.21-1.47-.3-.64-.45-1.47-.45-2.56v-5.32c.53-.08,1.02-.11,1.51-.11s1.02.04,1.51.11v5.28c0,.53.04.94.15,1.28.08.34.23.6.41.79s.41.34.72.41.64.11,1.02.11c.53,0,.98-.04,1.32-.15v-7.73c.53-.08,1.02-.11,1.51-.11s1.02.04,1.51.11v9.54c-.41.15-1.02.26-1.77.41h0Z"/>
    <path class="cls-1" d="m114.49,28.02c-.23-.64-.53-1.21-.98-1.66s-1.02-.83-1.66-1.09c-.68-.26-1.47-.41-2.38-.41s-1.7.15-2.34.41c-.68.26-1.21.64-1.66,1.09-.45.45-.75,1.02-.98,1.66-.23.64-.34,1.32-.34,2.04s.11,1.39.34,2.04c.23.64.57,1.17.98,1.62.45.45.98.83,1.66,1.09.68.26,1.43.38,2.34.38s1.7-.11,2.38-.38,1.24-.64,1.66-1.09c.45-.45.79-1.02.98-1.62.23-.64.34-1.32.34-2.04,0-.72-.11-1.39-.34-2.04Zm-3.32,4.34c-.34.53-.94.79-1.73.79s-1.36-.26-1.7-.79-.53-1.28-.53-2.3.19-1.77.53-2.3.9-.79,1.7-.79,1.39.26,1.73.79.53,1.28.53,2.3-.15,1.77-.53,2.3Z"/>
    <path class="cls-1" d="m103.07,34.96c-.23.08-.49.11-.83.15s-.6.04-.9.04c-1.09,0-2-.26-2.64-.83-.68-.53-1.02-1.43-1.02-2.64v-10.71c.53-.08,1.02-.11,1.51-.11s.98.04,1.51.11v10.07c0,.41.04.72.08.94.04.23.11.41.23.57s.26.23.41.26c.19.04.38.08.64.08.11,0,.23,0,.38-.04.15,0,.26-.04.41-.08.15.53.23,1.02.23,1.55v.26c0,.08.04.26,0,.38h0Z"/>
    <path class="cls-1" d="m94.51,23.8c-.49-.15-.94-.26-1.32-.34s-.83-.11-1.36-.11c-1.36,0-2.45.41-3.17,1.21-.75.79-1.09,2-1.09,3.54,0,3.13,1.47,4.67,4.45,4.67.53,0,.98-.04,1.39-.11.41-.08.87-.19,1.36-.34.19.34.34.72.45,1.09s.23.75.26,1.13c-.75.23-1.43.41-2,.49-.6.08-1.24.11-1.92.11-1.21,0-2.3-.19-3.2-.53s-1.7-.83-2.3-1.47c-.64-.64-1.09-1.39-1.39-2.26s-.49-1.81-.49-2.83.15-1.96.49-2.87c.34-.87.79-1.62,1.43-2.26s1.39-1.13,2.3-1.51c.9-.34,1.96-.53,3.09-.53.68,0,1.32.04,1.88.11s1.21.23,1.88.49c-.04.38-.11.75-.26,1.13-.15.45-.34.79-.49,1.17h0Z"/>
    <path class="cls-1" d="m71.21,35c-.57.08-1.09.11-1.58.11s-1.02-.04-1.51-.11l-2.22-5.05,1.73-4.86c.53-.08,1.09-.11,1.66-.11.53,0,1.06.04,1.58.11l-2.15,4.79,2.49,5.13h0Z"/>
    <path class="cls-1" d="m61.97,35.11c-.49,0-1.02-.04-1.58-.11l2.53-5.13-2.11-4.79c.49-.08.98-.11,1.58-.11.53,0,1.09.04,1.66.11l1.7,4.86-2.26,5.05c-.49.08-1.02.11-1.51.11h0Z"/>
    <path class="cls-1" d="m82.67,35c-.57.08-1.09.11-1.58.11s-1.02-.04-1.51-.11l-2.22-5.05,1.73-4.86c.53-.08,1.09-.11,1.66-.11.53,0,1.06.04,1.58.11l-2.15,4.79,2.49,5.13h0Z"/>
    <path class="cls-1" d="m73.43,35.11c-.49,0-1.02-.04-1.58-.11l2.53-5.13-2.11-4.79c.49-.08.98-.11,1.58-.11.53,0,1.09.04,1.66.11l1.7,4.86-2.22,5.05c-.53.08-1.02.11-1.55.11h0Z"/>
    <path class="cls-1" d="m59.15,28.02c-.23-.64-.53-1.21-.98-1.66-.45-.45-1.02-.83-1.66-1.09-.68-.26-1.47-.41-2.38-.41s-1.7.15-2.34.41-1.21.64-1.66,1.09c-.45.45-.75,1.02-.98,1.66-.23.64-.34,1.32-.34,2.04s.11,1.39.34,2.04c.23.64.57,1.17.98,1.62.45.45.98.83,1.66,1.09.68.26,1.43.38,2.34.38s1.7-.11,2.38-.38c.68-.26,1.24-.64,1.66-1.09.45-.45.79-1.02.98-1.62.23-.64.34-1.32.34-2.04s-.11-1.39-.34-2.04Zm-3.28,4.34c-.34.53-.94.79-1.73.79s-1.36-.26-1.7-.79-.53-1.28-.53-2.3.19-1.77.53-2.3.9-.79,1.7-.79,1.39.26,1.73.79.53,1.28.53,2.3c0,1.02-.19,1.77-.53,2.3Z"/>
    <path class="cls-1" d="m46.74,29.57c-.23-.45-.53-.79-.87-1.06-.34-.26-.72-.49-1.13-.64-.41-.15-.75-.23-1.09-.26.3-.04.6-.15.87-.3.3-.19.53-.38.79-.64s.41-.57.57-.9.19-.72.19-1.13c0-.68-.15-1.28-.45-1.73-.3-.45-.72-.83-1.24-1.09s-1.13-.45-1.85-.6-1.43-.19-2.22-.19c-.9,0-1.66.04-2.26.08-.6.04-1.13.08-1.58.15v13.8c.83.08,1.55.15,2.19.19.64.04,1.28.04,1.96.04.87,0,1.7-.08,2.45-.19.79-.11,1.47-.34,2.07-.64.6-.3,1.06-.72,1.43-1.24.34-.53.53-1.21.53-2.04,0-.64-.11-1.17-.34-1.58Zm-7.16-6.45c.26-.04.6-.08,1.02-.08.3,0,.57.04.87.08s.57.15.79.26c.23.15.41.3.57.57.15.23.23.53.23.9s-.08.72-.19.94c-.11.26-.3.45-.53.6-.23.15-.49.26-.79.3-.3.08-.64.08-1.02.08h-.94v-3.66h0Zm4,8.86c-.19.26-.41.45-.72.6s-.6.26-.94.3c-.34.04-.64.08-.94.08-.23,0-.45,0-.72-.04-.26,0-.49-.04-.72-.08v-3.96h1.32c.45,0,.87.04,1.21.11s.68.19.94.34.45.38.6.64.23.6.23.98c0,.41-.08.75-.26,1.02Z"/>
    <path class="cls-3" d="m30.61,35c-.26.04-.57.08-.87.08s-.57.04-.75.04c-.23,0-.45,0-.72-.04-.26,0-.53-.04-.79-.11l-4.15-9.88c.34-.08.68-.11.94-.11.3,0,.57-.04.75-.04.3,0,.57,0,.87.04.3,0,.57.04.79.11l2.41,7.39,2.41-7.39c.23-.04.49-.08.79-.08.26-.04.53-.04.83-.04.23,0,.45,0,.75.04.26,0,.6.04.94.11l-4.22,9.88h0Z"/>
  </g>
  <g id="Triangles_-_vector" data-name="Triangles - vector">
    <polygon class="cls-2" points="22.73 18.94 8.82 10.91 22.73 2.84 22.73 18.94"/>
    <polygon class="cls-1" points="22.77 18.94 36.68 10.94 22.77 2.88 22.77 18.94"/>
    <polygon class="cls-2" points="8.85 27 22.77 35.03 22.77 18.94 8.85 27"/>
    <polygon class="cls-1" points="8.82 27 8.82 10.91 22.77 18.94 8.82 27"/>
  </g>
</svg>