<?xml version="1.0" encoding="UTF-8"?>
<svg id="Layer_1" data-name="Layer 1" xmlns="http://www.w3.org/2000/svg" width="36" height="36" viewBox="0 0 36 36">
  <defs>
    <style>
      .cls-1 {
        fill: #a8a9b0;
      }

      .cls-2 {
        fill: #ea9a24;
      }
    </style>
  </defs>
  <g id="Triangles_-_vector" data-name="Triangles - vector">
    <polygon class="cls-1" points="17.98 18 2.06 9.55 17.98 1.05 17.98 18"/>
    <polygon points="18.02 18 33.94 9.59 18.02 1.09 18.02 18"/>
    <polygon class="cls-1" points="2.1 26.49 18.02 34.95 18.02 18 2.1 26.49"/>
    <polygon points="2.06 26.49 2.06 9.55 18.02 18 2.06 26.49"/>
  </g>
  <g id="V">
    <path class="cls-2" d="m26.95,34.67c-.3.04-.65.08-.99.08s-.65.04-.86.04c-.26,0-.52,0-.82-.04-.3,0-.6-.04-.9-.12l-4.74-10.33c.39-.08.78-.12,1.08-.12.34,0,.65-.04.86-.04.34,0,.65,0,.99.04.34,0,.65.04.9.12l2.76,7.72,2.76-7.72c.26-.04.56-.08.9-.08.3-.04.6-.04.95-.04.26,0,.52,0,.86.04.3,0,.69.04,1.08.12l-4.82,10.33h0Z"/>
  </g>
</svg>