<svg width="24" height="24" viewBox="0 0 24 24" fill="none" xmlns="http://www.w3.org/2000/svg">
    <path d="M2 4a2 2 0 0 1 2-2h16a2 2 0 0 1 2 2v16a2 2 0 0 1-2 2H4a2 2 0 0 1-2-2z" fill="#F37C24"/>
    <path d="M17.688 9.115q.197.476.296.98c.108.546-.353 1.001-.909 1.001h-3.164c-.556 0-1.007-.45-1.007-1.007V6.925c0-.556.455-1.017 1-.91a5.18 5.18 0 0 1 3.784 3.1" fill="#fff"/>
    <path d="M8.301 8.517a5.2 5.2 0 0 1 1.876-.775c.546-.108 1 .353 1 .909l.001 3.164c0 .556.45 1.007 1.007 1.007h3.164c.556 0 1.017.455.91 1A5.179 5.179 0 1 1 8.3 8.518" fill="#fff"/>
</svg>
