<svg width="132" height="132" viewBox="0 0 132 132" fill="none" xmlns="http://www.w3.org/2000/svg">
    <path d="M119 110a6 6 0 0 0 6-6V35l-13-13H13a6 6 0 0 0-6 6v76a6 6 0 0 0 6 6z" fill="#fff"/>
    <path d="m125 35-13-13H13a6 6 0 0 0-6 6v76a6 6 0 0 0 6 6h106a6 6 0 0 0 6-6zm-1 1v68a5 5 0 0 1-5 5H13a5 5 0 0 1-5-5V28a5 5 0 0 1 5-5h98v9a4 4 0 0 0 4 4zm-.414-1H115a3 3 0 0 1-3-3v-8.586z" fill="#CCC"/>
    <path d="M111 31H48a3 3 0 0 0-3 3v8a3 3 0 0 0 3 3h66a3 3 0 0 0 3-3v-6h-2a4 4 0 0 1-4-4zm-94 3a3 3 0 0 1 3-3h17a3 3 0 0 1 3 3v8a3 3 0 0 1-3 3H20a3 3 0 0 1-3-3zm0 19a3 3 0 0 1 3-3h17a3 3 0 0 1 3 3v7a3 3 0 0 1-3 3H20a3 3 0 0 1-3-3zm28 0a3 3 0 0 1 3-3h66a3 3 0 0 1 3 3v7a3 3 0 0 1-3 3H48a3 3 0 0 1-3-3zM17 72a3 3 0 0 1 3-3h17a3 3 0 0 1 3 3v7a3 3 0 0 1-3 3H20a3 3 0 0 1-3-3zm28 0a3 3 0 0 1 3-3h66a3 3 0 0 1 3 3v7a3 3 0 0 1-3 3H48a3 3 0 0 1-3-3zM17 90a3 3 0 0 1 3-3h17a3 3 0 0 1 3 3v8a3 3 0 0 1-3 3H20a3 3 0 0 1-3-3zm28 0a3 3 0 0 1 3-3h66a3 3 0 0 1 3 3v8a3 3 0 0 1-3 3H48a3 3 0 0 1-3-3z" fill="#DCF1C0"/>
</svg>
