<svg width="132" height="132" viewBox="0 0 132 132" fill="none" xmlns="http://www.w3.org/2000/svg">
    <path d="M22 13a6 6 0 0 1 6-6h69l13 13v99a6 6 0 0 1-6 6H28a6 6 0 0 1-6-6z" fill="#fff"/>
    <path d="m97 7 13 13v99a6 6 0 0 1-6 6H28a6 6 0 0 1-6-6V13a6 6 0 0 1 6-6zm-1 1H28a5 5 0 0 0-5 5v106a5 5 0 0 0 5 5h76a5 5 0 0 0 5-5V21h-9a4 4 0 0 1-4-4zm12.586 12L97 8.414V17a3 3 0 0 0 3 3z" fill="#CCC"/>
    <path d="M31 19a3 3 0 0 1 3-3h24a3 3 0 0 1 3 3v24a3 3 0 0 1-3 3H34a3 3 0 0 1-3-3zm12 64a3 3 0 0 1 3-3h52a3 3 0 0 1 3 3v1a3 3 0 0 1-3 3H46a3 3 0 0 1-3-3zm-9-3a3 3 0 0 0-3 3v1a3 3 0 0 0 3 3h1a3 3 0 0 0 3-3v-1a3 3 0 0 0-3-3zm-3 15a3 3 0 0 1 3-3h64a3 3 0 0 1 3 3v18a3 3 0 0 1-3 3H34a3 3 0 0 1-3-3zm3-44a3 3 0 0 0-3 3v18a3 3 0 0 0 3 3h64a3 3 0 0 0 3-3V54a3 3 0 0 0-3-3z" fill="#FFDCD7"/>
</svg>
