<svg width="132" height="132" viewBox="0 0 132 132" fill="none" xmlns="http://www.w3.org/2000/svg">
    <path d="M125 121a4 4 0 0 1-4 4H11a4 4 0 0 1-4-4V42a4 4 0 0 1 4-4h110a4 4 0 0 1 4 4z" fill="#fff"/>
    <path d="M11 124a3 3 0 0 1-3-3V42a3 3 0 0 1 3-3h110a3 3 0 0 1 3 3v79a3 3 0 0 1-3 3zm110 1a4 4 0 0 0 4-4V42a4 4 0 0 0-4-4H11a4 4 0 0 0-4 4v79a4 4 0 0 0 4 4z" fill="#AAA"/>
    <path d="M22 13a6 6 0 0 1 6-6h69l13 13v99a6 6 0 0 1-6 6H28a6 6 0 0 1-6-6z" fill="#fff"/>
    <path d="m97 7 13 13v99a6 6 0 0 1-6 6H28a6 6 0 0 1-6-6V13a6 6 0 0 1 6-6zm-1 1H28a5 5 0 0 0-5 5v106a5 5 0 0 0 5 5h76a5 5 0 0 0 5-5V21h-9a4 4 0 0 1-4-4zm12.586 12L97 8.414V17a3 3 0 0 0 3 3z" fill="#CCC"/>
    <path d="M96 16H34a3 3 0 0 0-3 3v94a3 3 0 0 0 3 3h64a3 3 0 0 0 3-3V21h-1a4 4 0 0 1-4-4z" fill="#FFDCD7"/>
    <path d="M125.369 121.41a4 4 0 0 1-3.979 3.59H11.477a4 4 0 0 1-3.975-4.449l6.097-54a4 4 0 0 1 3.975-3.55h69.215a4 4 0 0 0 2.219-.673l6.984-4.656A4 4 0 0 1 98.211 57h29.356a4 4 0 0 1 3.979 4.41z" fill="#fff" fill-opacity=".7"/>
    <path d="M11.477 124a3 3 0 0 1-2.981-3.337l6.097-54A3 3 0 0 1 17.573 64H86.79a5 5 0 0 0 2.774-.84l6.984-4.656A3 3 0 0 1 98.211 58h29.356a3 3 0 0 1 2.985 3.307l-6.177 60a3 3 0 0 1-2.984 2.693zm109.914 1a4 4 0 0 0 3.979-3.59l6.176-60a4 4 0 0 0-3.979-4.41H98.211a4 4 0 0 0-2.218.672l-6.985 4.656a4 4 0 0 1-2.219.672H17.574a4 4 0 0 0-3.975 3.551l-6.097 54A4 4 0 0 0 11.477 125z" fill="#AAA"/>
</svg>
