<svg width="32" height="32" fill="none" xmlns="http://www.w3.org/2000/svg"><path d="M4 1h15l9 8v22H4V1z" fill="#fff"/><path d="m4 31 .083-29.933L19 1l9 8 .148 22H4zM19 0H3v32h26V9L19 0z" fill="#BFBFBF"/><path d="M7 20a1 1 0 0 0-1 1v7a1 1 0 0 0 1 1h18a1 1 0 0 0 1-1v-7a1 1 0 0 0-1-1H7zm14 2v1h1v2h1v-3h2v1h-1v2h-1v2h-1v-1h-1v-2h-1v-2h1zm-3 0v1h-2v1h2v1h1v1h-1v1h-3v-1h3v-1h-2v-1h-1v-1h1v-1h2zm-9 1v-1h3v1H9zm0 3H8v-3h1v3zm3 0v1H9v-1h3zm0 0v-1h1v1h-1zm0-3h1v1h-1v-1z" fill="#88C145"/><path d="M15 16h9v-1h-9v1zM12 16H8v-1h4v1zM8 12h4v-1H8v1zM8 8h4V7H8v1z" fill="#BFBFBF"/><path d="M18 5H6v13h20v-8h-1v3H14v-3h4V9h-4V6h4V5zm7 9v3H14v-3h11zm-12 3H7v-3h6v3zm0-4H7v-3h6v3zM7 9V6h6v3H7z" fill="#BFBFBF"/><path d="M18 7h-3v1h3V7zM15 12h9v-1h-9v1z" fill="#BFBFBF"/><path opacity=".3" d="M17 11V1h1v9h10v1H17z" fill="#000"/></svg>