<svg width="24" height="30" fill="none" xmlns="http://www.w3.org/2000/svg"><g clip-path="url(#a)"><path d="M1 1h14.3L23 8.703V29H1V1z" fill="#fff"/><path d="M11 14h8v-1h-8v1zM8 14H5v-1h3v1zM8 10H5V9h3v1zM5 6h3V5H5v1z" fill="#BFBFBF"/><path d="M3 3h12v1h-5v3h5v1h-5v3h10V9h1v7H3V3zm17 12v-3H10v3h10zM4 15h5v-3H4v3zm0-4h5V8H4v3zm0-7v3h5V4H4z" fill="#BFBFBF"/><path d="M19 9h-8v1h8V9zM15 5h-4v1h4V5z" fill="#BFBFBF"/><path d="M1 29V1h14.3L23 8.7V29H1zM15.3 0H0v30h24V8.7L15.3 0z" fill="#BFBFBF"/><path d="M3 18a1 1 0 0 0-1 1v7a1 1 0 0 0 1 1h18a1 1 0 0 0 1-1v-7a1 1 0 0 0-1-1H3zm14 2v1h1v2h1v-3h2v1h-1v2h-1v2h-1v-1h-1v-2h-1v-2h1zm-3 0v1h-2v1h2v1h1v1h-1v1h-3v-1h3v-1h-2v-1h-1v-1h1v-1h2zm-9 1v-1h3v1H5zm0 3H4v-3h1v3zm3 0v1H5v-1h3zm0 0v-1h1v1H8zm0-3h1v1H8v-1z" fill="#88C145"/><path opacity=".3" d="M14 10V1h1v8h8v1h-9z" fill="#000"/></g><defs><clipPath id="a"><path fill="#fff" d="M0 0h24v30H0z"/></clipPath></defs></svg>