<svg width="24" height="30" fill="none" xmlns="http://www.w3.org/2000/svg"><g clip-path="url(#a)"><path d="M1 1h14.3L23 8.703V29H1V1z" fill="#fff"/><path d="M15 4H3v12h18V9h-1v6H4V5h11V4z" fill="#BFBFBF"/><path d="M15 6H9v4H5v2h2v1H5v1h12v-1h2v-1h-8v-1h8V9h-4V6z" fill="#BFBFBF"/><path d="M5 6h3v3H5V6z" fill="#BFBFBF"/><path d="M1 29V1h14.3L23 8.7V29H1zM15.3 0H0v30h24V8.7L15.3 0z" fill="#BFBFBF"/><path d="M2 19a1 1 0 0 1 1-1h18a1 1 0 0 1 1 1v7a1 1 0 0 1-1 1H3a1 1 0 0 1-1-1v-7zm9 1v2h1v2h1v1h1v-2h-1v-2h-1v-1h-1zm3 3h1v-2h1v-1h-2v3zM4 25h3v-1H5v-3h2v-1H4v5zm3-1h1v-3H7v3zm2-5v1h1v-1H9zm-1 6v1h2v-5H9v4H8zm9-4v4h3v-4h-1v3h-1v-3h-1z" fill="#BC8C18"/><path opacity=".3" d="M14 10V1h1v8h8v1h-9z" fill="#000"/></g><defs><clipPath id="a"><path fill="#fff" d="M0 0h24v30H0z"/></clipPath></defs></svg>