<svg width="24" height="30" fill="none" xmlns="http://www.w3.org/2000/svg"><g clip-path="url(#a)"><path d="M1 1h14.3L23 8.703V29H1V1z" fill="#fff"/><path d="M1 29V1h14.3L23 8.7V29H1zM15.3 0H0v30h24V8.7L15.3 0z" fill="#BFBFBF"/><path d="M2 19a1 1 0 0 1 1-1h18a1 1 0 0 1 1 1v7a1 1 0 0 1-1 1H3a1 1 0 0 1-1-1v-7zm16 1h-1v2h1v1h-1v2h1v-2h2v2h1v-2h-1v-1h1v-2h-1v2h-2v-2zM3 25h3v-1H4v-3h2v-1H3v5zm3-1h1v-3H6v3zm10-4h-2v1h-1v3h1v1h2v-1h-2v-3h2v-1zm-7 1h2v-1H9v1zm0 3v-3H8v3h1zm2 0H9v1h2v-1zm0 0h1v-3h-1v3z" fill="#1E7AAA"/><path d="M15 5H3v2h12V5zM15 8H3v2h12V8zM21 11H3v2h18v-2zM3 14h13v2H3v-2z" fill="#C4C4C4"/><path opacity=".3" d="M14 10V1h1v8h8v1h-9z" fill="#000"/></g><defs><clipPath id="a"><path fill="#fff" d="M0 0h24v30H0z"/></clipPath></defs></svg>