<svg width="32" height="32" fill="none" xmlns="http://www.w3.org/2000/svg"><path d="M4 1h15l9 8v22H4V1z" fill="#fff"/><path d="m4 31 .083-29.933L19 1l9 8v22H4zM19 0H3v32h26V9L19 0z" fill="#BFBFBF"/><path d="M6 21a1 1 0 0 1 1-1h18a1 1 0 0 1 1 1v7a1 1 0 0 1-1 1H7a1 1 0 0 1-1-1v-7zm16 1h-1v2h1v1h-1v2h1v-2h2v2h1v-2h-1v-1h1v-2h-1v2h-2v-2zM7 27h3v-1H8v-3h2v-1H7v5zm3-1h1v-3h-1v3zm10-4h-2v1h-1v3h1v1h2v-1h-2v-3h2v-1zm-7 1h2v-1h-2v1zm0 3v-3h-1v3h1zm2 0h-2v1h2v-1zm0 0h1v-3h-1v3z" fill="#1E7AAA"/><path d="M18 4H6v2h12V4zM18 8H6v2h12V8zM26 12H6v2h20v-2zM6 16h14v2H6v-2z" fill="#C4C4C4"/><path opacity=".3" d="M17 11V1h1v9h10v1H17z" fill="#000"/></svg>