<svg width="24" height="30" fill="none" xmlns="http://www.w3.org/2000/svg"><g clip-path="url(#a)"><path d="M1 1h14.3L23 8.703V29H1V1z" fill="#fff"/><path d="M1 29V1h14.3L23 8.7V29H1zM15.3 0H0v30h24V8.7L15.3 0z" fill="#BFBFBF"/><path d="M8 21h1v3H8v-3z" fill="#27ABA3"/><path d="M3 18a1 1 0 0 0-1 1v7a1 1 0 0 0 1 1h18a1 1 0 0 0 1-1v-7a1 1 0 0 0-1-1H3zm2 6v1H3v-5h2v1H4v3h1zm0 0v-3h1v3H5zm2-3h1v-1h1v1h1v3H9v1H8v-1H7v-3zm6-1v1h-1v3h1v1h-1v-1h-1v-3h1v-1h1zm5 0h3v1h-2v1h1v1h-1v2h-1v-5zm-4 0h1v1h-1v-1zm2 1v3h-1v-3h1zm0 0v-1h1v1h-1zm-1 3v1h-1v-1h1zm1 0h1v1h-1v-1z" fill="#27ABA3"/><path d="M15 4H3v5h12V4zM21 11H3v5h18v-5z" fill="#F2F2F2"/><path d="M4 5h11V4H3v5h12V8H4V5zM3 16v-5h18v5H3zm1-4v3h16v-3H4z" fill="#BFBFBF"/><path opacity=".3" d="M14 10V1h1v8h8v1h-9z" fill="#000"/></g><defs><clipPath id="a"><path fill="#fff" d="M0 0h24v30H0z"/></clipPath></defs></svg>