<svg width="32" height="32" fill="none" xmlns="http://www.w3.org/2000/svg"><path d="M4 1h15l9 8 .168 22H4V1z" fill="#fff"/><path d="m4 31 .083-29.933L19 1l9 8 .148 22H4zM19 0H3v32h26V9L19 0z" fill="#BFBFBF"/><path d="M12 23h1v3h-1v-3z" fill="#27ABA3"/><path d="M7 20a1 1 0 0 0-1 1v7a1 1 0 0 0 1 1h18a1 1 0 0 0 1-1v-7a1 1 0 0 0-1-1H7zm2 6v1H7v-5h2v1H8v3h1zm0 0v-3h1v3H9zm2-3h1v-1h1v1h1v3h-1v1h-1v-1h-1v-3zm6-1v1h-1v3h1v1h-1v-1h-1v-3h1v-1h1zm5 0h3v1h-2v1h1v1h-1v2h-1v-5zm-4 0h1v1h-1v-1zm2 1v3h-1v-3h1zm0 0v-1h1v1h-1zm-1 3v1h-1v-1h1zm1 0h1v1h-1v-1z" fill="#27ABA3"/><path d="M18 4H6v6h12V4zM26 12H6v6h20v-6z" fill="#F2F2F2"/><path d="M7 5h11V4H6v6h12V9H7V5zM6 18v-6h20v6H6zm1-5v4h18v-4H7z" fill="#BFBFBF"/><path opacity=".3" d="M17 11V1h1v9h10v1H17z" fill="#000"/></svg>