<svg width="24" height="30" viewBox="0 0 24 30" fill="none" xmlns="http://www.w3.org/2000/svg">
    <path d="M1.5 2.5a2 2 0 0 1 2-2h13.086a1 1 0 0 1 .707.293l4.915 4.914a1 1 0 0 1 .292.707V27.5a2 2 0 0 1-2 2h-17a2 2 0 0 1-2-2z" fill="#fff" stroke="#BBB"/>
    <path d="M16.5.5V5A1.5 1.5 0 0 0 18 6.5h4.5" stroke="#BBB"/>
    <rect x="5" y="19" width="5" height="2" rx="1" fill="#A9CBDD"/>
    <rect x="5" y="15" width="5" height="2" rx="1" fill="#A9CBDD"/>
    <rect x="5" y="11" width="14" height="2" rx="1" fill="#A9CBDD"/>
    <rect x="12" y="15" width="12" height="12" rx="2" fill="#287CA9"/>
    <path d="M22.437 18.074 20.825 24.5h-1.782l-.747-3.105a4 4 0 0 1-.064-.288 10 10 0 0 0-.09-.432 15 15 0 0 1-.135-.819 6 6 0 0 1-.062.36 13 13 0 0 1-.171.891 4 4 0 0 1-.064.288l-.755 3.105h-1.774l-1.62-6.426h1.495l.765 3.375q.036.135.08.36.045.216.09.468.045.243.081.477.046.226.064.387.025-.216.072-.495l.108-.567q.053-.288.107-.54.055-.252.1-.405l.764-3.06h1.431l.765 3.06q.027.153.081.405.064.252.117.55.064.287.109.566.044.279.072.486.027-.225.08-.54.063-.324.127-.639.063-.324.107-.504l.765-3.384z" fill="#fff"/>
</svg>
