<svg width="32" height="32" fill="none" xmlns="http://www.w3.org/2000/svg"><path d="M4 1h15l9 8v22H4V1z" fill="#fff"/><path d="m4 31 .083-29.933L19 1l9 8 .148 22H4zM19 0H3v32h26V9L19 0z" fill="#BFBFBF"/><path d="M7 20a1 1 0 0 0-1 1v7a1 1 0 0 0 1 1h18a1 1 0 0 0 1-1v-7a1 1 0 0 0-1-1H7zm0 7v-5h3v1H8v3h2v1H7zm3-1v-3h1v3h-1zm3-4h2v1h-2v-1zm0 4h-1v-3h1v3zm2 0v1h-2v-1h2zm0 0v-3h1v3h-1zm7-4v2h2v-2h1v2h-1v1h1v2h-1v-2h-2v2h-1v-2h1v-1h-1v-2h1zm-2 0v1h-1v4h-1v-4h-1v-1h3z" fill="#1E7AAA"/><path d="M6 4h12v2H6V4zM18 8H6v2h12V8zM26 12H6v2h20v-2zM6 16h20v2H6v-2z" fill="#BFBFBF"/><path opacity=".3" d="M17 11V1h1v9h10v1H17z" fill="#000"/></svg>