<svg xmlns="http://www.w3.org/2000/svg" width="24" height="30" fill="none" viewBox="0 0 24 30">
  <path fill="#fff" d="M22 6.414 16.586 1H3a1 1 0 0 0-1 1v26a1 1 0 0 0 1 1h18a1 1 0 0 0 1-1V6.414Z"/>
  <path fill="#BBB" d="M1 2v26a2 2 0 0 0 2 2h18a2 2 0 0 0 2-2V6.414a1 1 0 0 0-.293-.707L17.293.293A1 1 0 0 0 16.586 0H3a2 2 0 0 0-2 2Zm21 5v21a1 1 0 0 1-1 1H3a1 1 0 0 1-1-1V2a1 1 0 0 1 1-1h13v3.12c0 .403 0 .735.022 1.006.023.281.072.54.196.782a2 2 0 0 0 .874.874c.243.124.501.173.782.196.27.022.603.022 1.005.022H22Zm-.414-1H18.9c-.428 0-.72 0-.944-.019-.22-.018-.332-.05-.41-.09a1 1 0 0 1-.437-.437c-.04-.078-.072-.19-.09-.41A12.916 12.916 0 0 1 17 4.1V1.414L21.586 6Z"/>
  <path fill="#A9CBDD" d="M5 16a1 1 0 0 0 1 1h3a1 1 0 1 0 0-2H6a1 1 0 0 0-1 1Zm0 4a1 1 0 0 0 1 1h3a1 1 0 1 0 0-2H6a1 1 0 0 0-1 1Zm0-8a1 1 0 0 0 1 1h12a1 1 0 1 0 0-2H6a1 1 0 0 0-1 1Z"/>
  <path fill="#287CA9" d="M12 16v10a1 1 0 0 0 1 1h10a1 1 0 0 0 1-1V16a1 1 0 0 0-1-1H13a1 1 0 0 0-1 1Z"/>
  <path fill="#fff" d="m22.436 18.074-1.61 6.426h-1.782l-.747-3.105a4.067 4.067 0 0 1-.064-.288 9.455 9.455 0 0 0-.09-.432 14.653 14.653 0 0 1-.135-.819 5.93 5.93 0 0 1-.063.36 13.24 13.24 0 0 1-.171.891 4.067 4.067 0 0 1-.062.288l-.756 3.105h-1.774l-1.62-6.426h1.495l.764 3.375c.024.09.052.21.082.36a16.682 16.682 0 0 1 .17.945c.03.15.052.28.064.387.017-.144.041-.309.072-.495l.108-.567c.035-.192.072-.372.107-.54a6.34 6.34 0 0 1 .1-.405l.764-3.06h1.431l.765 3.06c.018.102.045.237.081.405.043.168.081.351.117.55.043.191.079.38.109.566.03.186.053.348.072.486.018-.15.044-.33.08-.54a65.79 65.79 0 0 1 .234-1.143l.765-3.384h1.494Z"/>
</svg>
