<svg width="32" height="32" fill="none" xmlns="http://www.w3.org/2000/svg"><path d="M4 1h15l9 8 .168 22H4V1z" fill="#fff"/><path d="m4 31 .083-29.933L19 1l9 8 .148 22H4zM19 0H3v32h26V9L19 0z" fill="#BFBFBF"/><path d="M18 5H6v13h20v-8h-1v7H7V6h11V5z" fill="#BFBFBF"/><path d="M18 7h-6v4H8v2h2v1H8v2h14v-1h2v-2h-9v-1h9v-2h-6V7z" fill="#BFBFBF"/><path d="M8 7h3v3H8V7z" fill="#BFBFBF"/><path opacity=".3" d="M17 11V1h1v9h10v1H17z" fill="#000"/><path d="M23 23v1h-2v-1h2zM23 25v1h-2v-1h2zM14 23h-1v1h1v-1z" fill="#C8A428"/><path d="M6 21a1 1 0 0 1 1-1h18a1 1 0 0 1 1 1v7a1 1 0 0 1-1 1H7a1 1 0 0 1-1-1v-7zm5 1H8v5h3v-1H9v-1h2v-1H9v-1h2v-1zm9 0v5h4v-2h-1v-1h1v-1h-1v-1h-3zm-5 0h-3v5h1v-2h2v-3zm2 0h-1v5h3v-5h-1v4h-1v-4z" fill="#C8A428"/></svg>