<svg width="32" height="32" fill="none" xmlns="http://www.w3.org/2000/svg"><path d="M4 1h15l9 8v22H4V1z" fill="#fff"/><path d="m4 31 .083-29.933L19 1l9 8 .148 22H4zM19 0H3v32h26V9L19 0z" fill="#BFBFBF"/><path d="M7 20a1 1 0 0 0-1 1v7a1 1 0 0 0 1 1h18a1 1 0 0 0 1-1v-7a1 1 0 0 0-1-1H7zm5 2v1h-2v1h2v1h-2v2H9v-5h3zm2 5v-5h3v1h-2v1h2v1h-2v1h2v-1h1v2h-4zm3-3v-1h1v1h-1zm5-2v1h1v2h-1v1h1v1h-3v-1h1v-1h1v-1h-2v-1h1v-1h1z" fill="#B07408"/><path d="M18 5H6v13h20v-8h-1v7H7V6h11V5z" fill="#BFBFBF"/><path d="M18 7h-6v4H8v2h2v1H8v2h14v-1h2v-2h-9v-1h9v-2h-6V7z" fill="#BFBFBF"/><path d="M8 7h3v3H8V7z" fill="#BFBFBF"/><path opacity=".3" d="M17 11V1h1v9h10v1H17z" fill="#000"/></svg>