<svg width="24" height="30" fill="none" xmlns="http://www.w3.org/2000/svg"><g clip-path="url(#a)"><path d="M1 1h14.3L23 8.703V29H1V1z" fill="#fff"/><path d="M7 6h4v2H9v2H7v2h2v2h2v2H7v-2H5v-2H3v-2h2V8h2V6zM19 9h-4v1h2v2h-2v2h-2v2h4v-2h2v-2h2v-2h-2V9z" fill="#BFBFBF"/><path d="M1 29V1h14.3L23 8.7V29H1zM15.3 0H0v30h24V8.7L15.3 0z" fill="#BFBFBF"/><path d="M2 19a1 1 0 0 1 1-1h18a1 1 0 0 1 1 1v7a1 1 0 0 1-1 1H3a1 1 0 0 1-1-1v-7zm9 1H8v1h1v4h1v-4h1v-1zm7 0v5h3v-1h-2v-4h-1zM3 20v5h1v-2h2v2h1v-5H6v2H4v-2H3zm9 0v5h1v-2h1v-2h-1v-1h-1zm3 3h-1v2h1v-2zm0 0h1v2h1v-5h-1v1h-1v2z" fill="#5E93A2"/><path opacity=".3" d="M14 10V1h1v8h8v1h-9z" fill="#000"/></g><defs><clipPath id="a"><path fill="#fff" d="M0 0h24v30H0z"/></clipPath></defs></svg>