<svg width="32" height="32" fill="none" xmlns="http://www.w3.org/2000/svg"><path d="M4 1h15l9 8v22H4V1z" fill="#fff"/><path d="m4 31 .083-29.933L19 1l9 8 .148 22H4zM19 0H3v32h26V9L19 0z" fill="#BFBFBF"/><path d="M6 21a1 1 0 0 1 1-1h18a1 1 0 0 1 1 1v7a1 1 0 0 1-1 1H7a1 1 0 0 1-1-1v-7zm9 1h-3v1h1v4h1v-4h1v-1zm7 0v5h3v-1h-2v-4h-1zM7 22v5h1v-2h2v2h1v-5h-1v2H8v-2H7zm9 0v5h1v-2h1v-2h-1v-1h-1zm3 3h-1v2h1v-2zm0 0h1v2h1v-5h-1v1h-1v2z" fill="#5E93A2"/><path d="M10 7h4v2h-2v2h-2v2h2v2h2v2h-4v-2H8v-2H6v-2h2V9h2V7z" fill="#BFBFBF"/><path d="M13 13v-2h2v2h-2zM19 13v-2h-2v2h2z" fill="#BFBFBF"/><path d="M24 10h-4v1h2v2h-2v2h-2v2h4v-2h2v-2h2v-2h-2v-1z" fill="#BFBFBF"/><path opacity=".3" d="M17 11V1h1v9h10v1H17z" fill="#000"/></svg>