<svg width="24" height="30" fill="none" xmlns="http://www.w3.org/2000/svg"><g clip-path="url(#a)"><path d="M1 1h14.3L23 8.703V29H1V1z" fill="#fff"/><path d="M3 4v12h18V9h-1v6H4V5h11V4H3z" fill="#BFBFBF"/><path d="M15 6H8v2h7V6zM7 6H5v2h2V6zM19 9v2H8V9h11zM7 12H5v2h2v-2zM8 12h9v2H8v-2zM7 9H5v2h2V9z" fill="#BFBFBF"/><path d="M1 29V1h14.3L23 8.7V29H1zM15.3 0H0v30h24V8.7L15.3 0z" fill="#BFBFBF"/><path d="M17 21h2v1h-2v-1zM11 21h2v3h-2v-3z" fill="#D6771B"/><path d="M3 18a1 1 0 0 0-1 1v7a1 1 0 0 0 1 1h18a1 1 0 0 0 1-1v-7a1 1 0 0 0-1-1H3zm13 7v-5h4v3h-3v2h-1zm-6-5h3v1h1v3h-1v1h-3v-5zm-5 1v-1h2v1H5zm-1 0h1v3H4v-3zm3 3v1H5v-1h2zm0 0v-3h1v3H7z" fill="#D6771B"/><path opacity=".3" d="M14 10V1h1v8h8v1h-9z" fill="#000"/></g><defs><clipPath id="a"><path fill="#fff" d="M0 0h24v30H0z"/></clipPath></defs></svg>