<svg width="32" height="32" fill="none" xmlns="http://www.w3.org/2000/svg"><path d="M4 1h15l9 8v22H4V1z" fill="#fff"/><path d="m4 31 .083-29.933L19 1l9 8 .148 22H4zM19 0H3v32h26V9L19 0z" fill="#BFBFBF"/><path d="M21 23h2v1h-2v-1zM15 23h2v3h-2v-3z" fill="#D6771B"/><path d="M7 20a1 1 0 0 0-1 1v7a1 1 0 0 0 1 1h18a1 1 0 0 0 1-1v-7a1 1 0 0 0-1-1H7zm13 7v-5h4v3h-3v2h-1zm-6-5h3v1h1v3h-1v1h-3v-5zm-5 1v-1h2v1H9zm-1 0h1v3H8v-3zm3 3v1H9v-1h2zm0 0v-3h1v3h-1z" fill="#D6771B"/><path d="M18 4H6v14h20v-8h-1v7H7V5h11V4z" fill="#BFBFBF"/><path d="M11 10v2h12v-2H11zM10 6H8v2h2V6zM10 10H8v2h2v-2zM10 14H8v2h2v-2zM11 14h9v2h-9v-2zM11 6h5v2h-5V6z" fill="#BFBFBF"/><path opacity=".3" d="M17 11V1h1v9h10v1H17z" fill="#000"/></svg>