<svg width="32" height="32" fill="none" xmlns="http://www.w3.org/2000/svg"><path d="M4 1h15l9 8v22H4V1z" fill="#fff"/><path d="m4 31 .083-29.933L19 1l9 8v22H4zM19 0H3v32h26V9L19 0z" fill="#BFBFBF"/><path d="M17 23h-2v3h2v-3zM11 26H9v-3h2v3z" fill="#3683AB"/><path d="M7 20a1 1 0 0 0-1 1v7a1 1 0 0 0 1 1h18a1 1 0 0 0 1-1v-7a1 1 0 0 0-1-1H7zm13 2h5v1h-2v4h-1v-4h-2v-1zm-6 0h3v1h1v3h-1v1h-3v-5zm-3 1h1v3h-1v1H9v-1H8v-3h1v-1h2v1z" fill="#3683AB"/><path d="M6 4h12v2H6V4zM18 8H6v2h12V8zM26 12H6v2h20v-2zM6 16h20v2H6v-2z" fill="#BFBFBF"/><path opacity=".3" d="M17 11V1h1v9h10v1H17z" fill="#000"/></svg>