<svg width="32" height="32" fill="none" xmlns="http://www.w3.org/2000/svg"><path d="M4 1h15l9 8 .168 22H4V1z" fill="#fff"/><path d="m4 31 .083-29.933L19 1l9 8 .148 22H4zM19 0H3v32h26V9L19 0z" fill="#BFBFBF"/><path d="M8 23h1v3H8v-3zM15 23h1v3h-1v-3zM20 23h-1v1h1v-1z" fill="#188079"/><path d="M7 20a1 1 0 0 0-1 1v7a1 1 0 0 0 1 1h18a1 1 0 0 0 1-1v-7a1 1 0 0 0-1-1H7zm0 3h1v-1h1v1h1v3H9v1H8v-1H7v-3zm7 0h1v-1h1v1h1v3h-1v1h-1v-1h-1v-3zm-3-1h2v1h-1v1h1v1h-1v2h-1v-5zm13 1v-1h1v5h-1v-2h-1v2h-1v-5h1v1h1zm-4-1v1h1v1h-1v1h1v2h-1v-2h-1v2h-1v-5h2z" fill="#188079"/><path d="M6 4h12v6h8v8H6V4z" fill="#F2F2F2"/><path d="M18 5V4H6v14h20v-8h-1v7H7V5h11z" fill="#BFBFBF"/><path d="M12 7v1h-1V7h1zM11 14V8h-1V7H9v1h1v6H9v1h1v-1h1zM11 15v-1h1v1h-1z" fill="#888"/><path opacity=".3" d="M17 11V1h1v9h10v1H17z" fill="#000"/></svg>