<svg width="24" height="30" fill="none" xmlns="http://www.w3.org/2000/svg"><g clip-path="url(#a)"><path d="M1 1h14.3L23 8.703V29H1V1z" fill="#fff"/><path d="M1 29V1h14.3L23 8.7V29H1zM15.3 0H0v30h24V8.7L15.3 0z" fill="#BFBFBF"/><path d="M4 21h1v3H4v-3zM11 21h1v3h-1v-3zM16 21h-1v1h1v-1z" fill="#188079"/><path d="M3 18a1 1 0 0 0-1 1v7a1 1 0 0 0 1 1h18a1 1 0 0 0 1-1v-7a1 1 0 0 0-1-1H3zm0 3h1v-1h1v1h1v3H5v1H4v-1H3v-3zm7 0h1v-1h1v1h1v3h-1v1h-1v-1h-1v-3zm-3-1h2v1H8v1h1v1H8v2H7v-5zm13 1v-1h1v5h-1v-2h-1v2h-1v-5h1v1h1zm-4-1v1h1v1h-1v1h1v2h-1v-2h-1v2h-1v-5h2z" fill="#188079"/><path d="M3 4h11v5h7v7H3V4z" fill="#F2F2F2"/><path d="M15 5V4H3v12h18V9h-1v6H4V5h11z" fill="#BFBFBF"/><path d="M8 6v1H7V6h1zM7 13V7H6V6H5v1h1v6H5v1h1v-1h1zM7 14v-1h1v1H7z" fill="#888"/><path opacity=".3" d="M14 10V1h1v8h8v1h-9z" fill="#000"/></g><defs><clipPath id="a"><path fill="#fff" d="M0 0h24v30H0z"/></clipPath></defs></svg>