<svg width="32" height="32" fill="none" xmlns="http://www.w3.org/2000/svg"><path d="M4 1h15l9 8 .168 22H4V1z" fill="#fff"/><path d="m4 31 .083-29.933L19 1l9 8 .148 22H4zM19 0H3v32h26V9L19 0z" fill="#BFBFBF"/><path d="M22 23h-1v1h1v-1zM10 23h2v3h-2v-3z" fill="#F37600"/><path d="M6 21a1 1 0 0 1 1-1h18a1 1 0 0 1 1 1v7a1 1 0 0 1-1 1H7a1 1 0 0 1-1-1v-7zm8 1v1h2v4h1v-4h2v-1h-5zm6 0v5h1v-2h2v-3h-3zm-10 5h2v-1h1v-3h-1v-1h-2v1H9v3h1v1z" fill="#F37600"/><path d="M6 4v14h20v-8h-1v7H7V5h11V4H6z" fill="#BFBFBF"/><path d="M18 7h-2V6h-4v2h6V7zM10 6H8v2h2V6zM17 10v1h-2v1h-3v-2h5zM10 14H8v2h2v-2zM12 14h3v1h8v1H12v-2zM10 10H8v2h2v-2z" fill="#BFBFBF"/><path opacity=".3" d="M17 11V1h1v9h10v1H17z" fill="#000"/></svg>