<svg width="24" height="30" fill="none" xmlns="http://www.w3.org/2000/svg"><g clip-path="url(#a)"><path d="M1 1h14.3L23 8.703V29H1V1z" fill="#fff"/><path d="M3 4v12h18V9h-1v6H4V5h11V4H3z" fill="#BFBFBF"/><path d="M15 7h-3V6H8v2h7V7zM7 6H5v2h2V6zM17 9v1h-6v1H8V9h9zM7 12H5v2h2v-2zM8 12h3v1h7v1H8v-2zM7 9H5v2h2V9z" fill="#BFBFBF"/><path d="M1 29V1h14.3L23 8.7V29H1zM15.3 0H0v30h24V8.7L15.3 0z" fill="#BFBFBF"/><path d="M18 21h-1v1h1v-1zM6 21h2v3H6v-3z" fill="#F37600"/><path d="M2 19a1 1 0 0 1 1-1h18a1 1 0 0 1 1 1v7a1 1 0 0 1-1 1H3a1 1 0 0 1-1-1v-7zm8 1v1h2v4h1v-4h2v-1h-5zm6 0v5h1v-2h2v-3h-3zM6 25h2v-1h1v-3H8v-1H6v1H5v3h1v1z" fill="#F37600"/><path opacity=".3" d="M14 10V1h1v8h8v1h-9z" fill="#000"/></g><defs><clipPath id="a"><path fill="#fff" d="M0 0h24v30H0z"/></clipPath></defs></svg>