<svg width="32" height="32" fill="none" xmlns="http://www.w3.org/2000/svg"><path d="M4 1h15l9 8v22H4V1z" fill="#fff"/><path d="m4 31 .083-29.933L19 1l9 8 .148 22H4zM19 0H3v32h26V9L19 0z" fill="#BFBFBF"/><path d="M12 26h-2v-3h2v3z" fill="#679F24"/><path d="M7 20a1 1 0 0 0-1 1v7a1 1 0 0 0 1 1h18a1 1 0 0 0 1-1v-7a1 1 0 0 0-1-1H7zm7 2h5v1h-2v4h-1v-4h-2v-1zm9 0v1h-2v1h2v1h1v1h-1v1h-3v-1h3v-1h-2v-1h-1v-1h1v-1h2zm-11 1h1v3h-1v1h-2v-1H9v-3h1v-1h2v1z" fill="#679F24"/><path d="M18 4H6v14h20v-8h-1v3H13V5h5V4zM7 13V5h2v8H7zm3 0V5h2v8h-2zm3 1h12v3H13v-3zm-1 0v3h-2v-3h2zm-3 0v3H7v-3h2z" fill="#BFBFBF"/><path opacity=".3" d="M17 11V1h1v9h10v1H17z" fill="#000"/></svg>