<svg width="24" height="30" fill="none" xmlns="http://www.w3.org/2000/svg"><g clip-path="url(#a)"><path d="M1 1h14.3L23 8.703V29H1V1z" fill="#fff"/><path d="M15 3H3v13h18V9h-1v2H10V4h5V3zM4 11V4h2v7H4zm3 0V4h2v7H7zm3 1h10v3H10v-3zm-1 0v3H7v-3h2zm-3 0v3H4v-3h2z" fill="#BFBFBF"/><path d="M1 29V1h14.3L23 8.7V29H1zM15.3 0H0v30h24V8.7L15.3 0z" fill="#BFBFBF"/><path d="M8 24H6v-3h2v3z" fill="#679F24"/><path d="M3 18a1 1 0 0 0-1 1v7a1 1 0 0 0 1 1h18a1 1 0 0 0 1-1v-7a1 1 0 0 0-1-1H3zm7 2h5v1h-2v4h-1v-4h-2v-1zm9 0v1h-2v1h2v1h1v1h-1v1h-3v-1h3v-1h-2v-1h-1v-1h1v-1h2zM8 21h1v3H8v1H6v-1H5v-3h1v-1h2v1z" fill="#679F24"/><path opacity=".3" d="M14 10V1h1v8h8v1h-9z" fill="#000"/></g><defs><clipPath id="a"><path fill="#fff" d="M0 0h24v30H0z"/></clipPath></defs></svg>