<svg width="32" height="32" fill="none" xmlns="http://www.w3.org/2000/svg"><path d="M4 1h15l9 8 .168 22H4V1z" fill="#fff"/><path d="m4 31 .083-29.933L19 1l9 8 .148 22H4zM19 0H3v32h26V9L19 0z" fill="#BFBFBF"/><path d="M9 23h2v1H9v-1zM17 23v3h-2v-3h2z" fill="#9E1919"/><path d="M7 20a1 1 0 0 0-1 1v7a1 1 0 0 0 1 1h18a1 1 0 0 0 1-1v-7a1 1 0 0 0-1-1H7zm1 7v-5h4v3H9v2H8zm6-5h3v1h1v3h-1v1h-3v-5zm10 0v1h-3v1h2v1h-2v2h-1v-5h4z" fill="#9E1919"/><path d="M16 4h2v2h-2V4zM18 8h-2v2h2V8zM26 12H16v2h10v-2zM26 16v2H6v-2h20zM6 4h8v10H6V4z" fill="#BFBFBF"/><path opacity=".3" d="M17 11V1h1v9h10v1H17z" fill="#000"/></svg>