<svg width="24" height="30" viewBox="0 0 24 30" fill="none" xmlns="http://www.w3.org/2000/svg">
    <path d="M1.5 2.5a2 2 0 0 1 2-2h13.086a1 1 0 0 1 .707.293l4.915 4.914a1 1 0 0 1 .292.707V27.5a2 2 0 0 1-2 2h-17a2 2 0 0 1-2-2z" fill="#fff" stroke="#BBB"/>
    <path d="M16.5.5V5A1.5 1.5 0 0 0 18 6.5h4.5" stroke="#BBB"/>
    <rect x="5" y="19" width="5" height="2" rx="1" fill="#F5A99F"/>
    <rect x="5" y="15" width="5" height="2" rx="1" fill="#F5A99F"/>
    <rect x="5" y="11" width="14" height="2" rx="1" fill="#F5A99F"/>
    <rect x="12" y="15" width="12" height="12" rx="2" fill="#E52910"/>
    <path d="M16.892 16.5c0 1.31-.374 2.856-1.006 4.282-.635 1.431-1.493 2.656-2.386 3.378l.97 1.34c2.408-1.622 5.074-2.734 7.654-2.361l.376-1.611c-2.198-.74-3.962-2.96-3.962-5.028zm1.074 3.43a8 8 0 0 0 1.403 1.634 12.3 12.3 0 0 0-2.365.692q.204-.39.382-.794c.22-.496.415-1.01.58-1.531" fill="#fff"/>
</svg>
