<svg width="24" height="30" viewBox="0 0 24 30" fill="none" xmlns="http://www.w3.org/2000/svg">
    <path d="M1 2a2 2 0 0 1 2-2h13.586a1 1 0 0 1 .707.293l5.414 5.414a1 1 0 0 1 .293.707V28a2 2 0 0 1-2 2H3a2 2 0 0 1-2-2z" fill="#fff"/>
    <path d="M1 2a2 2 0 0 1 2-2h13.586a1 1 0 0 1 .707.293l5.414 5.414a1 1 0 0 1 .293.707V28a2 2 0 0 1-2 2H3a2 2 0 0 1-2-2zm21 5h-3.12c-.403 0-.735 0-1.006-.022-.281-.023-.54-.072-.782-.196a2 2 0 0 1-.874-.874c-.124-.243-.173-.501-.196-.782C16 4.856 16 4.523 16 4.12V1H3a1 1 0 0 0-1 1v26a1 1 0 0 0 1 1h18a1 1 0 0 0 1-1zm-.414-1L17 1.414V4.1c0 .428 0 .72.019.944.018.22.05.332.09.41a1 1 0 0 0 .437.437c.078.04.19.072.41.09.225.019.516.019.944.019z" fill="#BBB"/>
    <path d="M6 11a1 1 0 1 0 0 2h12a1 1 0 1 0 0-2zm-1 5a1 1 0 0 1 1-1h3a1 1 0 1 1 0 2H6a1 1 0 0 1-1-1m0 4a1 1 0 0 1 1-1h3a1 1 0 1 1 0 2H6a1 1 0 0 1-1-1" fill="#F5A99F"/>
    <path d="M12 17a2 2 0 0 1 2-2h8a2 2 0 0 1 2 2v8a2 2 0 0 1-2 2h-8a2 2 0 0 1-2-2z" fill="#E52910"/>
    <path d="M16.892 16.5c0 1.31-.374 2.856-1.006 4.282-.635 1.431-1.493 2.656-2.386 3.378l.97 1.34c2.408-1.622 5.074-2.734 7.654-2.361l.376-1.611c-2.198-.74-3.962-2.96-3.962-5.028zm1.074 3.43a8 8 0 0 0 1.403 1.634 12.3 12.3 0 0 0-2.365.692q.204-.39.382-.794c.22-.496.415-1.01.58-1.531" fill="#fff"/>
</svg>
