<svg width="24" height="30" fill="none" xmlns="http://www.w3.org/2000/svg"><g clip-path="url(#a)"><path d="M1 1h14.3L23 8.703V29H1V1z" fill="#fff"/><path d="M11 5h4v2h-4V5zM21 9h-6V8h-4v2h10V9zM21 11H11v2h10v-2zM21 14v2H3v-2h18zM3 5h7v8H3V5z" fill="#BFBFBF"/><path d="M1 29V1h14.3L23 8.7V29H1zM15.3 0H0v30h24V8.7L15.3 0z" fill="#BFBFBF"/><path d="M5 21h2v1H5v-1zM13 21v3h-2v-3h2z" fill="#9E1919"/><path d="M3 18a1 1 0 0 0-1 1v7a1 1 0 0 0 1 1h18a1 1 0 0 0 1-1v-7a1 1 0 0 0-1-1H3zm1 7v-5h4v3H5v2H4zm6-5h3v1h1v3h-1v1h-3v-5zm10 0v1h-3v1h2v1h-2v2h-1v-5h4z" fill="#9E1919"/><path opacity=".3" d="M14 10V1h1v8h8v1h-9z" fill="#000"/></g><defs><clipPath id="a"><path fill="#fff" d="M0 0h24v30H0z"/></clipPath></defs></svg>