<svg width="32" height="32" viewBox="0 0 32 32" fill="none" xmlns="http://www.w3.org/2000/svg">
    <path d="M5 3a2 2 0 0 1 2-2h14l6 6v22a2 2 0 0 1-2 2H7a2 2 0 0 1-2-2z" fill="#fff"/>
    <path d="m21 1 6 6v22a2 2 0 0 1-2 2H7a2 2 0 0 1-2-2V3a2 2 0 0 1 2-2zm-1 1H7a1 1 0 0 0-1 1v26a1 1 0 0 0 1 1h18a1 1 0 0 0 1-1V8h-4a2 2 0 0 1-2-2zm5.586 5L21 2.414V6a1 1 0 0 0 1 1z" fill="#CFCFCF"/>
    <path d="M18 12a1 1 0 1 0 0 2h4a1 1 0 1 0 0-2zm-8 8a1 1 0 1 0 0 2h12a1 1 0 1 0 0-2zm7-3a1 1 0 0 1 1-1h4a1 1 0 1 1 0 2h-4a1 1 0 0 1-1-1m-5 1a3 3 0 1 0 0-6 3 3 0 0 0 0 6" fill="#F36653"/>
</svg>
