<svg xmlns="http://www.w3.org/2000/svg" width="24" height="30" fill="none" viewBox="0 0 24 30">
  <path fill="#fff" d="M22 6.414 16.586 1H3a1 1 0 0 0-1 1v26a1 1 0 0 0 1 1h18a1 1 0 0 0 1-1V6.414Z"/>
  <path fill="#BBB" d="M1 2v26a2 2 0 0 0 2 2h18a2 2 0 0 0 2-2V6.414a1 1 0 0 0-.293-.707L17.293.293A1 1 0 0 0 16.586 0H3a2 2 0 0 0-2 2Zm21 5v21a1 1 0 0 1-1 1H3a1 1 0 0 1-1-1V2a1 1 0 0 1 1-1h13v3.12c0 .403 0 .735.022 1.006.023.281.072.54.196.782a2 2 0 0 0 .874.874c.243.124.501.173.782.196.27.022.603.022 1.005.022H22Zm-.414-1H18.9c-.428 0-.72 0-.944-.019-.22-.018-.332-.05-.41-.09a1 1 0 0 1-.437-.437c-.04-.078-.072-.19-.09-.41A12.916 12.916 0 0 1 17 4.1V1.414L21.586 6Z"/>
  <path fill="#F5A99F" d="M5 16a1 1 0 0 0 1 1h3a1 1 0 1 0 0-2H6a1 1 0 0 0-1 1Zm0 4a1 1 0 0 0 1 1h3a1 1 0 1 0 0-2H6a1 1 0 0 0-1 1Zm0-8a1 1 0 0 0 1 1h12a1 1 0 1 0 0-2H6a1 1 0 0 0-1 1Z"/>
  <path fill="#E52910" d="M12 16v10a1 1 0 0 0 1 1h10a1 1 0 0 0 1-1V16a1 1 0 0 0-1-1H13a1 1 0 0 0-1 1Z"/>
  <path fill="#fff" d="M16.892 16.5c0 1.31-.374 2.856-1.006 4.282-.635 1.431-1.493 2.656-2.386 3.378l.97 1.34c2.408-1.622 5.074-2.734 7.654-2.361l.376-1.611c-2.198-.74-3.962-2.96-3.962-5.028h-1.646Zm1.074 3.43a8.039 8.039 0 0 0 1.403 1.634 12.3 12.3 0 0 0-2.365.692 14.649 14.649 0 0 0 .962-2.326Z"/>
</svg>
