<svg width="32" height="32" fill="none" xmlns="http://www.w3.org/2000/svg"><path d="M4 1h15l9 8 .168 22H4V1z" fill="#fff"/><path d="m4 31 .083-29.933L19 1l9 8 .148 22H4zM19 0H3v32h26V9L19 0z" fill="#BFBFBF"/><path d="M10 23H9v1h1v-1zM13 23h2v3h-2v-3z" fill="#F36700"/><path d="M6 21a1 1 0 0 1 1-1h18a1 1 0 0 1 1 1v7a1 1 0 0 1-1 1H7a1 1 0 0 1-1-1v-7zm16 1h-1v2h1v1h-1v2h1v-2h1v2h1v-2h-1v-1h1v-2h-1v2h-1v-2zm-5 0v1h1v4h1v-4h1v-1h-3zm-9 0v5h1v-2h2v-3H8zm5 5h2v-1h1v-3h-1v-1h-2v1h-1v3h1v1z" fill="#F36700"/><path d="M6 4v14h20v-8h-1v7H7V5h11V4H6z" fill="#BFBFBF"/><path d="M16 7h-2V6h-2v2h4V7zM10 6H8v2h2V6zM19 10v1h-3v1h-4v-2h7zM10 14H8v2h2v-2zM12 14h12v1h-3v1h-9v-2zM10 10H8v2h2v-2z" fill="#BFBFBF"/><path opacity=".3" d="M17 11V1h1v9h10v1H17z" fill="#000"/></svg>