<svg xmlns="http://www.w3.org/2000/svg" width="24" height="30" fill="none" viewBox="0 0 24 30">
  <path fill="#fff" d="M22 6.414 16.586 1H3a1 1 0 0 0-1 1v26a1 1 0 0 0 1 1h18a1 1 0 0 0 1-1V6.414Z"/>
  <path fill="#BBB" d="M1 2v26a2 2 0 0 0 2 2h18a2 2 0 0 0 2-2V6.414a1 1 0 0 0-.293-.707L17.293.293A1 1 0 0 0 16.586 0H3a2 2 0 0 0-2 2Zm21 5v21a1 1 0 0 1-1 1H3a1 1 0 0 1-1-1V2a1 1 0 0 1 1-1h13v3.12c0 .403 0 .735.022 1.006.023.281.072.54.196.782a2 2 0 0 0 .874.874c.243.124.501.173.782.196.27.022.603.022 1.005.022H22Zm-.414-1H18.9c-.428 0-.72 0-.944-.019-.22-.018-.332-.05-.41-.09a1 1 0 0 1-.437-.437c-.04-.078-.072-.19-.09-.41A12.916 12.916 0 0 1 17 4.1V1.414L21.586 6Z"/>
  <path fill="#F8C9A4" d="M5.5 13c-.276 0-.503-.225-.475-.5a5 5 0 0 1 4.476-4.475c.275-.028.499.199.499.475v4a.5.5 0 0 1-.5.5h-4Z"/>
  <path fill="#F8C9A4" d="M6.5 15h5a.5.5 0 0 0 .5-.5v-5a.47.47 0 0 1 .5-.48 6 6 0 1 1-6.48 6.48.47.47 0 0 1 .48-.5Z"/>
  <path fill="#ED771C" d="M12 16v10a1 1 0 0 0 1 1h10a1 1 0 0 0 1-1V16a1 1 0 0 0-1-1H13a1 1 0 0 0-1 1Z"/>
  <path fill="#fff" d="M18.055 18.074h-2.133V24.5h1.53v-2.214h.54c.462 0 .849-.06 1.16-.18.319-.12.574-.282.766-.486.198-.204.339-.435.423-.693.084-.264.126-.54.126-.828 0-.636-.198-1.13-.594-1.485-.39-.36-.996-.54-1.818-.54ZM18 19.325c.312 0 .543.072.693.216.15.138.225.34.225.603 0 .21-.045.381-.135.513a.765.765 0 0 1-.378.288c-.156.06-.34.09-.55.09h-.404v-1.71H18Z"/>
</svg>
