<svg width="32" height="32" fill="none" xmlns="http://www.w3.org/2000/svg"><path d="M4 1h15l9 8 .168 22H4V1z" fill="#fff"/><path d="m4 31 .083-29.933L19 1l9 8 .148 22H4zM19 0H3v32h26V9L19 0z" fill="#BFBFBF"/><path d="M9 23h2v1H9v-1zM17 23h-2v1h2v-1z" fill="#F36700"/><path d="M7 20a1 1 0 0 0-1 1v7a1 1 0 0 0 1 1h18a1 1 0 0 0 1-1v-7a1 1 0 0 0-1-1H7zm1 7v-5h4v3H9v2H8zm6-5h4v3h-3v2h-1v-5zm5 0h5v1h-2v4h-1v-4h-2v-1z" fill="#F36700"/><path d="M6 4v14h20v-8h-1v7H7V5h11V4H6z" fill="#BFBFBF"/><path d="M18 7h-2V6h-4v2h6V7zM10 6H8v2h2V6zM17 10v1h-2v1h-3v-2h5zM10 14H8v2h2v-2zM12 14h3v1h8v1H12v-2zM10 10H8v2h2v-2z" fill="#BFBFBF"/><path opacity=".3" d="M17 11V1h1v9h10v1H17z" fill="#000"/></svg>