<svg width="32" height="32" viewBox="0 0 32 32" fill="none" xmlns="http://www.w3.org/2000/svg">
    <path d="M5 3a2 2 0 0 1 2-2h14l6 6v22a2 2 0 0 1-2 2H7a2 2 0 0 1-2-2z" fill="#fff"/>
    <path d="m21 1 6 6v22a2 2 0 0 1-2 2H7a2 2 0 0 1-2-2V3a2 2 0 0 1 2-2zm-1 1H7a1 1 0 0 0-1 1v26a1 1 0 0 0 1 1h18a1 1 0 0 0 1-1V8h-4a2 2 0 0 1-2-2zm5.586 5L21 2.414V6a1 1 0 0 0 1 1z" fill="#CFCFCF"/>
    <path d="M21.687 14.115q.199.48.298.988c.106.542-.352.994-.904.994h-3.177a1 1 0 0 1-1-1v-3.178c0-.552.451-1.01.993-.904a5.18 5.18 0 0 1 3.79 3.1" fill="#F4954F"/>
    <path d="M12.301 13.517a5.2 5.2 0 0 1 1.883-.776c.542-.106.994.351.994.903v3.178a1 1 0 0 0 1 1h3.177c.552 0 1.01.452.904.994a5.18 5.18 0 0 1-8.742 2.667 5.178 5.178 0 0 1 .784-7.966" fill="#F4954F"/>
</svg>
