<svg width="24" height="30" viewBox="0 0 24 30" fill="none" xmlns="http://www.w3.org/2000/svg">
    <path d="M1.5 2.5a2 2 0 0 1 2-2h13.086a1 1 0 0 1 .707.293l4.915 4.914a1 1 0 0 1 .292.707V27.5a2 2 0 0 1-2 2h-17a2 2 0 0 1-2-2z" fill="#fff" stroke="#BBB"/>
    <path d="M16.5.5V5A1.5 1.5 0 0 0 18 6.5h4.5" stroke="#BBB"/>
    <path d="M6.5 15h5a.5.5 0 0 0 .5-.5v-5a.47.47 0 0 1 .5-.48 6 6 0 1 1-6.48 6.48.47.47 0 0 1 .48-.5" fill="#F8C9A4"/>
    <path d="M5.5 13c-.276 0-.503-.225-.475-.5a5 5 0 0 1 4.476-4.475c.275-.028.499.199.499.475v4a.5.5 0 0 1-.5.5z" fill="#F8C9A4"/>
    <rect x="12" y="15" width="12" height="12" rx="2" fill="#ED771C"/>
    <path d="M18.055 18.074h-2.133V24.5h1.53v-2.214h.54q.693 0 1.16-.18.478-.18.766-.486.297-.306.423-.693.126-.396.126-.828 0-.953-.594-1.485-.585-.54-1.818-.54M18 19.325q.468 0 .693.216.225.208.225.603 0 .315-.135.513a.77.77 0 0 1-.378.288q-.235.09-.55.09h-.404v-1.71z" fill="#fff"/>
</svg>
