<svg width="32" height="32" fill="none" xmlns="http://www.w3.org/2000/svg"><path d="M4 1h15l9 8 .168 22H4V1z" fill="#fff"/><path d="m4 31 .083-29.933L19 1l9 8 .148 22H4zM19 0H3v32h26V9L19 0z" fill="#BFBFBF"/><path d="M9 23H8v1h1v-1zM12 23h1v1h-1v-1z" fill="#F36700"/><path d="M6 21a1 1 0 0 1 1-1h18a1 1 0 0 1 1 1v7a1 1 0 0 1-1 1H7a1 1 0 0 1-1-1v-7zm16 1h-1v2h1v1h-1v2h1v-2h2v2h1v-2h-1v-1h1v-2h-1v2h-2v-2zm-7 0v1h2v4h1v-4h2v-1h-5zm-8 0v5h1v-2h2v-3H7zm4 5h1v-2h2v-3h-3v5z" fill="#F36700"/><path d="M6 4v14h20v-8h-1v7H7V5h11V4H6z" fill="#BFBFBF"/><path d="M18 7h-2V6h-4v2h6V7zM10 6H8v2h2V6zM17 10v1h-2v1h-3v-2h5zM10 14H8v2h2v-2zM12 14h3v1h8v1H12v-2zM10 10H8v2h2v-2z" fill="#BFBFBF"/><path opacity=".3" d="M17 11V1h1v9h10v1H17z" fill="#000"/></svg>