<svg width="32" height="32" fill="none" xmlns="http://www.w3.org/2000/svg"><path d="M4 1h15l9 8 .168 22H4V1z" fill="#fff"/><path d="m4 31 .083-29.933L19 1l9 8 .148 22H4zM19 0H3v32h26V9L19 0z" fill="#BFBFBF"/><path d="M7 20a1 1 0 0 0-1 1v7a1 1 0 0 0 1 1h18a1 1 0 0 0 1-1v-7a1 1 0 0 0-1-1H7zm7 2h5v1h-2v4h-1v-4h-2v-1zm6 0h4v1h-3v1h2v1h-2v2h-1v-5zM9 22h3v1h-2v1h2v2h-1v-1h-1v2H9v-5zm3 4h1v1h-1v-1zm0-2v-1h1v1h-1z" fill="#3D96C5"/><path d="M18 3H6v15h20v-8h-1v7H7V4h11V3z" fill="#BFBFBF"/><path d="M18 5H9v2h9V5zM18 8H8v2h10V8zM24 11H8v2h16v-2zM24 14H8v2h16v-2z" fill="#BFBFBF"/><path opacity=".3" d="M17 11V1h1v9h10v1H17z" fill="#000"/></svg>