<svg width="24" height="30" fill="none" xmlns="http://www.w3.org/2000/svg"><g clip-path="url(#a)"><path d="M1 1h14.3L23 8.703V29H1V1z" fill="#fff"/><path d="M1 29V1h14.3L23 8.7V29H1zM15.3 0H0v30h24V8.7L15.3 0z" fill="#BFBFBF"/><path d="M3 18a1 1 0 0 0-1 1v7a1 1 0 0 0 1 1h18a1 1 0 0 0 1-1v-7a1 1 0 0 0-1-1H3zm7 2h5v1h-2v4h-1v-4h-2v-1zm6 0h4v1h-3v1h2v1h-2v2h-1v-5zM5 20h3v1H6v1h2v2H7v-1H6v2H5v-5zm3 4h1v1H8v-1zm0-2v-1h1v1H8z" fill="#3D96C5"/><path d="M15 5H3v11h18V9h-1v6H4V6h11V5z" fill="#BFBFBF"/><path d="M15 7H6v1h9V7zM19 9H5v1h14V9zM19 11H5v1h14v-1zM19 13H5v1h14v-1z" fill="#BFBFBF"/><path opacity=".3" d="M14 10V1h1v8h8v1h-9z" fill="#000"/></g><defs><clipPath id="a"><path fill="#fff" d="M0 0h24v30H0z"/></clipPath></defs></svg>