<svg width="32" height="32" fill="none" xmlns="http://www.w3.org/2000/svg"><path d="M4 1h15l9 8 .168 22H4V1z" fill="#fff"/><path d="m4 31 .083-29.933L19 1l9 8 .148 22H4zM19 0H3v32h26V9L19 0z" fill="#BFBFBF"/><path d="M7 20a1 1 0 0 0-1 1v7a1 1 0 0 0 1 1h18a1 1 0 0 0 1-1v-7a1 1 0 0 0-1-1H7zm7 2h1v2h-1v-2zm3 2v1h1v2h-1v-2h-2v2h-1v-2h1v-1h2zm0 0v-2h1v2h-1zm-5-2v1h-2v4H9v-4H7v-1h5zm8 0h5v1h-2v4h-1v-4h-2v-1z" fill="#848F92"/><path d="M6 16h20v2H6v-2zM6 13h20v2H6v-2zM6 10h20v2H6v-2zM6 7h9v2H6V7zM6 4h9v2H6V4z" fill="#BFBFBF"/><path opacity=".3" d="M17 11V1h1v9h10v1H17z" fill="#000"/></svg>