<svg width="24" height="30" viewBox="0 0 24 30" fill="none" xmlns="http://www.w3.org/2000/svg">
    <path d="M1.5 2.5a2 2 0 0 1 2-2h13.086a1 1 0 0 1 .707.293l4.915 4.914a1 1 0 0 1 .292.707V27.5a2 2 0 0 1-2 2h-17a2 2 0 0 1-2-2z" fill="#fff" stroke="#BBB"/>
    <path d="M4.46 11.291a1 1 0 0 0 0 1.415l2.536 2.535v1.757h-1a1 1 0 0 0-1 1v4a1 1 0 0 0 1 1h4a1 1 0 0 0 1-1v-4a1 1 0 0 0-1-1h-1v-1.757l2.243-2.243h6.757a1 1 0 1 0 0-2H11.24L8.703 8.463a1 1 0 0 0-1.414 0zm2.536 9.707v-2h2v2zm-.414-9 1.414-1.414 1.415 1.414-1.415 1.415z" fill="#BDB9E4"/>
    <path d="M16.5.5V5A1.5 1.5 0 0 0 18 6.5h4.5" stroke="#BBB"/>
    <rect x="12" y="15" width="12" height="12" rx="2" fill="#5951BB"/>
    <path d="m21.014 18.074-2.15 6.426h-1.738l-2.142-6.426h1.647l1.044 3.564q.045.135.108.414.063.27.126.567.072.288.09.477.027-.189.081-.477.063-.288.126-.558a5 5 0 0 1 .108-.414l1.062-3.573z" fill="#fff"/>
</svg>
