<svg width="32" height="32" fill="none" xmlns="http://www.w3.org/2000/svg"><path d="M4 1h15l9 8 .168 22H4V1z" fill="#fff"/><path d="m4 31 .083-29.933L19 1l9 8 .148 22H4zM19 0H3v32h26V9L19 0z" fill="#BFBFBF"/><path d="M7 20a1 1 0 0 0-1 1v7a1 1 0 0 0 1 1h18a1 1 0 0 0 1-1v-7a1 1 0 0 0-1-1H7zm8 2h1v4h2v1h-3v-5zm8 0v1h-2v1h2v1h1v1h-1v1h-3v-1h3v-1h-2v-1h-1v-1h1v-1h2zm-13 1h1v-1h2v1h-1v1h-1v1h1v1h1v1h-2v-1h-1v1H8v-1h1v-1h1v-1H9v-1H8v-1h2v1z" fill="#6AAA1E"/><path d="M6 18h20v-8h-1v3h-5v-3h-1v3h-6v-3h5V9h-5V6h5V5H6v13zm6-12v3H7V6h5zm-5 4h5v3H7v-3zm0 4h5v3H7v-3zm12 0v3h-6v-3h6zm1 3v-3h5v3h-5z" fill="#BFBFBF"/><path opacity=".3" d="M17 11V1h1v9h10v1H17z" fill="#000"/></svg>