<svg xmlns="http://www.w3.org/2000/svg" width="24" height="30" fill="none" viewBox="0 0 24 30">
  <path fill="#fff" d="M22 6.414 16.586 1H3a1 1 0 0 0-1 1v26a1 1 0 0 0 1 1h18a1 1 0 0 0 1-1V6.414Z"/>
  <path fill="#B0D9AD" d="M6 11a1 1 0 1 0 0 2h4a1 1 0 1 0 0-2H6Zm-1 5a1 1 0 0 0 1 1h4a1 1 0 1 0 0-2H6a1 1 0 0 0-1 1Zm0 4a1 1 0 0 0 1 1h4a1 1 0 1 0 0-2H6a1 1 0 0 0-1 1Zm8-8a1 1 0 0 0 1 1h4a1 1 0 1 0 0-2h-4a1 1 0 0 0-1 1Z"/>
  <path fill="#BBB" d="M1 2v26a2 2 0 0 0 2 2h18a2 2 0 0 0 2-2V6.414a1 1 0 0 0-.293-.707L17.293.293A1 1 0 0 0 16.586 0H3a2 2 0 0 0-2 2Zm21 5v21a1 1 0 0 1-1 1H3a1 1 0 0 1-1-1V2a1 1 0 0 1 1-1h13v3.12c0 .403 0 .735.022 1.006.023.281.072.54.196.782a2 2 0 0 0 .874.874c.243.124.501.173.782.196.27.022.603.022 1.005.022H22Zm-.414-1H18.9c-.428 0-.72 0-.944-.019-.22-.018-.332-.05-.41-.09a1 1 0 0 1-.437-.437c-.04-.078-.072-.19-.09-.41A12.916 12.916 0 0 1 17 4.1V1.414L21.586 6Z"/>
  <path fill="#3AA133" d="M12 16v10a1 1 0 0 0 1 1h10a1 1 0 0 0 1-1V16a1 1 0 0 0-1-1H13a1 1 0 0 0-1 1Z"/>
  <path fill="#fff" d="m21.099 24.5-2.17-3.195 2.017-3.23h-1.701l-1.242 2.16-1.287-2.16h-1.701l2.007 3.122-2.133 3.303h1.692l1.377-2.232 1.377 2.232h1.764Z"/>
</svg>
