<svg width="32" height="32" viewBox="0 0 32 32" fill="none" xmlns="http://www.w3.org/2000/svg"><path d="M4 1h15l9 8v22H4V1Z" fill="#fff"/><path d="m4 31 .083-29.933L19 1l9 8 .148 22H4ZM19 0H3v32h26V9L19 0Z" fill="#BFBFBF"/><path d="M7 20a1 1 0 0 0-1 1v7a1 1 0 0 0 1 1h18a1 1 0 0 0 1-1v-7a1 1 0 0 0-1-1H7Zm5 2h1v4h2v1h-3v-5Zm3 0h3v1h-1v4h-1v-4h-1v-1Zm-5 0h1v2h-1v-2Zm0 3H9v2H8v-2h1v-1H8v-2h1v2h1v1Zm0 0h1v2h-1v-2Zm10-3v1h1v2h1v-2h1v-1h1v5h-1v-2h-1v2h-1v-2h-1v2h-1v-5h1Z" fill="#6AAA1E"/><path d="M18 4H6v14h20v-8h-1v3H13V5h5V4ZM7 13V5h2v8H7Zm3 0V5h2v8h-2Zm3 1h12v3H13v-3Zm-1 0v3h-2v-3h2Zm-3 0v3H7v-3h2Z" fill="#BFBFBF"/><path opacity=".3" d="M17 11V1h1v9h10v1H17Z" fill="#000"/></svg>