<svg width="24" height="30" viewBox="0 0 24 30" fill="none" xmlns="http://www.w3.org/2000/svg">
    <path d="M1.5 2.5a2 2 0 0 1 2-2h13.086a1 1 0 0 1 .707.293l4.915 4.914a1 1 0 0 1 .292.707V27.5a2 2 0 0 1-2 2h-17a2 2 0 0 1-2-2z" fill="#fff" stroke="#BBB"/>
    <path d="M16.5.5V5A1.5 1.5 0 0 0 18 6.5h4.5" stroke="#BBB"/>
    <rect x="5" y="19" width="6" height="2" rx="1" fill="#B0D9AD"/>
    <rect x="5" y="15" width="6" height="2" rx="1" fill="#B0D9AD"/>
    <rect x="13" y="11" width="6" height="2" rx="1" fill="#B0D9AD"/>
    <rect x="5" y="11" width="6" height="2" rx="1" fill="#B0D9AD"/>
    <rect x="12" y="15" width="12" height="12" rx="2" fill="#3AA133"/>
    <path d="m21.099 24.5-2.17-3.195 2.017-3.23h-1.701l-1.242 2.16-1.287-2.16h-1.701l2.007 3.122-2.133 3.303h1.692l1.377-2.232 1.377 2.232z" fill="#fff"/>
</svg>
