<svg width="32" height="32" fill="none" xmlns="http://www.w3.org/2000/svg"><path d="M4 1h15l9 8 .168 22H4V1z" fill="#fff"/><path d="m4 31 .083-29.933L19 1l9 8 .148 22H4zM19 0H3v32h26V9L19 0z" fill="#BFBFBF"/><path d="M6 21a1 1 0 0 1 1-1h18a1 1 0 0 1 1 1v7a1 1 0 0 1-1 1H7a1 1 0 0 1-1-1v-7zm8 1h-1v5h3v-1h-2v-4zm5 0h-3v1h1v4h1v-4h1v-1zm-7 0h-1v2H9v-2H8v2h1v1H8v2h1v-2h2v2h1v-2h-1v-1h1v-2zm11 0v2h1v-2h-1zm0 3v-1h-2v-2h-1v2h1v1h-1v2h1v-2h2zm0 0v2h1v-2h-1z" fill="#6AAA1E"/><path d="M6 18h20v-8h-1v3h-5v-3h-1v3h-6v-3h5V9h-5V6h5V5H6v13zm6-12v3H7V6h5zm-5 4h5v3H7v-3zm0 4h5v3H7v-3zm12 0v3h-6v-3h6zm1 3v-3h5v3h-5z" fill="#BFBFBF"/><path opacity=".3" d="M17 11V1h1v9h10v1H17z" fill="#000"/></svg>