<svg width="32" height="32" fill="none" xmlns="http://www.w3.org/2000/svg"><path d="M4 1h15l9 8 .168 22H4V1z" fill="#fff"/><path d="m4 31 .083-29.933L19 1l9 8 .148 22H4zM19 0H3v32h26V9L19 0z" fill="#BFBFBF"/><path d="M16 23h2v1h-2v-1z" fill="#51968F"/><path d="M7 20a1 1 0 0 0-1 1v7a1 1 0 0 0 1 1h18a1 1 0 0 0 1-1v-7a1 1 0 0 0-1-1H7zm8 7v-5h4v3h-3v2h-1zm6-5h3v1h-2v1h2v3h-3v-1h2v-1h-2v-3zm-11 1h1v-1h2v1h-1v1h-1v1h1v1h1v1h-2v-1h-1v1H8v-1h1v-1h1v-1H9v-1H8v-1h2v1z" fill="#51968F"/><path d="M10 7h4v2h-2v2h-2v2h2v2h2v2h-4v-2H8v-2H6v-2h2V9h2V7z" fill="#BFBFBF"/><path d="M13 13v-2h2v2h-2zM19 13v-2h-2v2h2z" fill="#BFBFBF"/><path d="M24 10h-4v1h2v2h-2v2h-2v2h4v-2h2v-2h2v-2h-2v-1z" fill="#BFBFBF"/><path opacity=".3" d="M17 11V1h1v9h10v1H17z" fill="#000"/></svg>