<svg width="32" height="32" viewBox="0 0 32 32" fill="none" xmlns="http://www.w3.org/2000/svg">
    <path d="M5 3a2 2 0 0 1 2-2h14l6 6v22a2 2 0 0 1-2 2H7a2 2 0 0 1-2-2z" fill="#fff"/>
    <path d="m21 1 6 6v22a2 2 0 0 1-2 2H7a2 2 0 0 1-2-2V3a2 2 0 0 1 2-2zm-1 1H7a1 1 0 0 0-1 1v26a1 1 0 0 0 1 1h18a1 1 0 0 0 1-1V8h-4a2 2 0 0 1-2-2zm5.586 5L21 2.414V6a1 1 0 0 0 1 1z" fill="#CFCFCF"/>
    <path d="M17.793 19.289a1 1 0 0 0 1.414 1.414l3.707-3.707-3.707-3.707a1 1 0 0 0-1.414 1.414l2.293 2.293zm-3.586-4.586a1 1 0 0 0-1.414-1.414l-3.707 3.707 3.707 3.707a1 1 0 0 0 1.414-1.414l-2.293-2.293z" fill="#666"/>
</svg>
