<?xml version="1.0" encoding="UTF-8" standalone="no"?>
<svg
   width="15px"
   height="15px"
   viewBox="0 0 100 100"
   preserveAspectRatio="xMidYMid"
   class="lds-rolling"
   version="1.1"
   id="svg4"
   sodipodi:docname="portal.svg"
   inkscape:version="1.2.2 (b0a8486541, 2022-12-01)"
   xml:space="preserve"
   style="animation-play-state: running; animation-delay: 0s; background: none;"
   xmlns:inkscape="http://www.inkscape.org/namespaces/inkscape"
   xmlns:sodipodi="http://sodipodi.sourceforge.net/DTD/sodipodi-0.dtd"
   xmlns="http://www.w3.org/2000/svg"
   xmlns:svg="http://www.w3.org/2000/svg"><defs
     id="defs8" /><sodipodi:namedview
     id="namedview6"
     pagecolor="#ffffff"
     bordercolor="#666666"
     borderopacity="1.0"
     inkscape:showpageshadow="2"
     inkscape:pageopacity="0.0"
     inkscape:pagecheckerboard="0"
     inkscape:deskcolor="#d1d1d1"
     showgrid="false"
     inkscape:zoom="32"
     inkscape:cx="13.125"
     inkscape:cy="13.546875"
     inkscape:window-width="3840"
     inkscape:window-height="2035"
     inkscape:window-x="0"
     inkscape:window-y="0"
     inkscape:window-maximized="1"
     inkscape:current-layer="svg4"
     showguides="true" /><g
     id="g302"
     style="stroke:#f0f0f0;stroke-opacity:0.341176" /><g
     id="g5082"><path
       id="path414"
       style="fill:none;fill-rule:evenodd;stroke:#444444;stroke-width:4.96;stroke-linecap:square;stroke-miterlimit:0;paint-order:markers stroke fill"
       d="M 85.732922,49.587257 A 36.566082,36.566082 0 0 1 49.16684,86.153339 36.566082,36.566082 0 0 1 12.600758,49.587257 36.566082,36.566082 0 0 1 49.16684,13.021175 36.566082,36.566082 0 0 1 85.732922,49.587257 Z" /><path
       style="fill:none;stroke:#444444;stroke-width:2.66667;stroke-linecap:butt;stroke-linejoin:miter;stroke-dasharray:none;stroke-opacity:1"
       d="m 24.413747,22.59656 c 0,0 21.03796,0.803044 37.295978,12.76168 14.100648,10.371776 20.031623,29.997329 20.031623,29.997329 M 24.411837,22.640278 c 0,0 -3.551418,27.758501 11.391304,41.708366 14.816987,13.832485 32.83587,15.94427 32.83587,15.94427"
       id="path3321"
       sodipodi:nodetypes="csccsc" /><path
       style="fill:none;stroke:#444444;stroke-width:2.66667;stroke-linecap:butt;stroke-linejoin:miter;stroke-dasharray:none;stroke-opacity:1"
       d="m 18.108486,69.19572 c 0,0 22.118948,8.117614 42.140167,-5.904011 C 78.627818,50.420078 76.773347,25.71008 76.773347,25.71008"
       id="path3321-5"
       sodipodi:nodetypes="csc" /><path
       id="path4332"
       style="fill:#444444;fill-rule:evenodd;stroke:#444444;stroke-width:2.61526;stroke-linecap:square;stroke-miterlimit:0;paint-order:markers stroke fill"
       transform="matrix(0.89804195,0.43990983,-0.33096403,0.94364337,0,0)"
       d="m 86.627206,10.612823 a 2.3683102,4.2550287 0 0 1 -2.36831,4.255028 2.3683102,4.2550287 0 0 1 -2.36831,-4.255028 2.3683102,4.2550287 0 0 1 2.36831,-4.2550292 2.3683102,4.2550287 0 0 1 2.36831,4.2550292 z" /><path
       id="path4332-3"
       style="fill:#444444;fill-rule:evenodd;stroke:#444444;stroke-width:2.6131;stroke-linecap:square;stroke-miterlimit:0;paint-order:markers stroke fill"
       transform="matrix(0.91461592,0.40432377,-0.36224614,0.93208247,0,0)"
       d="m 70.705131,46.902473 a 4.6094203,2.8601909 0 0 1 -4.60942,2.860191 4.6094203,2.8601909 0 0 1 -4.609421,-2.860191 4.6094203,2.8601909 0 0 1 4.609421,-2.86019 4.6094203,2.8601909 0 0 1 4.60942,2.86019 z" /><path
       id="path4332-5"
       style="fill:#444444;fill-rule:evenodd;stroke:#444444;stroke-width:2.61526;stroke-linecap:square;stroke-miterlimit:0;paint-order:markers stroke fill"
       transform="matrix(0.55366988,0.83273625,-0.76165167,0.64798668,0,0)"
       d="M 39.46873,-9.3679571 A 3.5633647,5.0846376 0 0 1 35.905365,-4.2833195 3.5633647,5.0846376 0 0 1 32.342,-9.3679571 3.5633647,5.0846376 0 0 1 35.905365,-14.452595 3.5633647,5.0846376 0 0 1 39.46873,-9.3679571 Z" /></g></svg>
