<?xml version="1.0" encoding="UTF-8" standalone="no"?>
<svg
   width="15px"
   height="15px"
   viewBox="0 0 100 100"
   preserveAspectRatio="xMidYMid"
   class="lds-rolling"
   version="1.1"
   id="svg4"
   sodipodi:docname="portal_light.svg"
   inkscape:version="1.2.2 (b0a8486541, 2022-12-01)"
   xml:space="preserve"
   style="animation-play-state: running; animation-delay: 0s; background: none;"
   xmlns:inkscape="http://www.inkscape.org/namespaces/inkscape"
   xmlns:sodipodi="http://sodipodi.sourceforge.net/DTD/sodipodi-0.dtd"
   xmlns="http://www.w3.org/2000/svg"
   xmlns:svg="http://www.w3.org/2000/svg"><defs
     id="defs8" /><sodipodi:namedview
     id="namedview6"
     pagecolor="#ffffff"
     bordercolor="#666666"
     borderopacity="1.0"
     inkscape:showpageshadow="2"
     inkscape:pageopacity="0.0"
     inkscape:pagecheckerboard="0"
     inkscape:deskcolor="#d1d1d1"
     showgrid="false"
     inkscape:zoom="32"
     inkscape:cx="10.40625"
     inkscape:cy="13.578125"
     inkscape:window-width="3840"
     inkscape:window-height="2035"
     inkscape:window-x="0"
     inkscape:window-y="0"
     inkscape:window-maximized="1"
     inkscape:current-layer="svg4"
     showguides="true" /><g
     id="g302"
     style="stroke:#f0f0f0;stroke-opacity:0.341176" /><g
     id="g870"><path
       id="path414"
       style="fill:none;fill-rule:evenodd;stroke:#bbbbbb;stroke-width:4.96;stroke-linecap:square;stroke-miterlimit:0;paint-order:markers stroke fill;stroke-opacity:1"
       d="M 85.732922,49.587257 A 36.566082,36.566082 0 0 1 49.16684,86.153339 36.566082,36.566082 0 0 1 12.600758,49.587257 36.566082,36.566082 0 0 1 49.16684,13.021175 36.566082,36.566082 0 0 1 85.732922,49.587257 Z" /><path
       style="fill:none;stroke:#bbbbbb;stroke-width:2.66667;stroke-linecap:butt;stroke-linejoin:miter;stroke-dasharray:none;stroke-opacity:1"
       d="m 24.413747,22.59656 c 0,0 21.03796,0.803044 37.295978,12.76168 14.100648,10.371776 20.031623,29.997329 20.031623,29.997329 M 24.411837,22.640278 c 0,0 -3.551418,27.758501 11.391304,41.708366 14.816987,13.832485 32.83587,15.94427 32.83587,15.94427"
       id="path3321"
       sodipodi:nodetypes="csccsc" /><path
       style="fill:none;stroke:#bbbbbb;stroke-width:2.66667;stroke-linecap:butt;stroke-linejoin:miter;stroke-dasharray:none;stroke-opacity:1"
       d="m 18.108486,69.19572 c 0,0 22.118948,8.117614 42.140167,-5.904011 C 78.627818,50.420078 76.773347,25.71008 76.773347,25.71008"
       id="path3321-5"
       sodipodi:nodetypes="csc" /><path
       id="path4332"
       style="fill:#bbbbbb;fill-rule:evenodd;stroke:#bbbbbb;stroke-width:2.60612;stroke-linecap:square;stroke-miterlimit:0;paint-order:markers stroke fill;stroke-opacity:1;fill-opacity:1"
       d="m 74.282402,48.12288 a 2.3445552,4.2681639 16.3642 0 1 -3.535103,2.973386 2.3445552,4.2681639 16.3642 0 1 -0.71858,-5.057072 2.3445552,4.2681639 16.3642 0 1 3.535103,-2.973387 2.3445552,4.2681639 16.3642 0 1 0.71858,5.057073 z" /><path
       id="path4332-3"
       style="fill:#bbbbbb;fill-rule:evenodd;stroke:#bbbbbb;stroke-width:2.61174;stroke-linecap:square;stroke-miterlimit:0;paint-order:markers stroke fill;stroke-opacity:1;fill-opacity:1"
       d="m 47.677799,72.304738 a 4.6124065,2.8553727 25.474993 0 1 -5.251942,0.802236 4.6124065,2.8553727 25.474993 0 1 -3.179757,-4.529633 4.6124065,2.8553727 25.474993 0 1 5.251943,-0.802234 4.6124065,2.8553727 25.474993 0 1 3.179756,4.529631 z" /><path
       id="path4332-5"
       style="fill:#bbbbbb;fill-rule:evenodd;stroke:#bbbbbb;stroke-width:2.60612;stroke-linecap:square;stroke-miterlimit:0;paint-order:markers stroke fill;stroke-opacity:1;fill-opacity:1"
       d="m 28.987767,26.796731 a 3.5155961,5.1177819 43.403901 0 1 -5.84565,0.327434 3.5155961,5.1177819 43.403901 0 1 1.899794,-6.262121 3.5155961,5.1177819 43.403901 0 1 5.845651,-0.327434 3.5155961,5.1177819 43.403901 0 1 -1.899795,6.262121 z" /></g></svg>
