<?xml version="1.0" encoding="UTF-8"?>
<svg xmlns="http://www.w3.org/2000/svg" version="1.1" viewBox="0 0 20 20">
  <g id="btn-browse">
    <path d="M16.8,7v2h.3c.8,0,1.5.7,1.5,1.5s0,.4-.1.6l-1.6,4v.2c-.1.5-.5.8-1,.8H2.8c-.6,0-1-.4-1-1V5c0-.6.4-1,1-1h7c.6,0,1,.4,1,1v1h5c.6,0,1,.4,1,1ZM9.8,7v-2H2.8v7.3l.9-2.4c.2-.6.8-.9,1.4-.9h10.7v-2s-6,0-6,0ZM5.1,10c-.2,0-.4.1-.5.3l-1.6,4c0,.3,0,.5.3.7h12.1c.2,0,.4-.1.5-.3l.9-2.2h0l.7-1.8c.1-.3,0-.5-.3-.7H5.1Z" fill="#000" stroke-width="0"/>
  </g>
  <g id="btn-add-text">
    <path d="M6,3h1v2h2v1h-2v2h-1v-2h-2v-1h2v-2Z" fill="#000" stroke-width="0"/>
    <path d="M6,9h1v7h8V7h-2c-.6,0-1-.4-1-1v-2h-4v-1h4.6c.3,0,.5,0,.7.3l2.4,2.4c.2.2.3.4.3.7v9.6c0,.6-.4,1-1,1H7c-.6,0-1-.4-1-1v-7ZM13,4.4l1.6,1.6h-1.6v-1.6Z" fill="#000" fill-rule="evenodd" stroke-width="0"/>
  </g>
</svg>